%
M48
M72
T01C0.0150
T02C0.0197
T03C0.0217
T04C0.0236
T05C0.0247
T06C0.0276
T07C0.0315
T08C0.0320
T09C0.0340
T10C0.0354
T11C0.0394
T12C0.0433
T13C0.0550
T14C0.0551
T15C0.0591
T16C0.0630
T17C0.1024
T18C0.1260
T19C0.1280
T20C0.1660
%
T01
X49260Y11285
X50760Y17785
X50760Y25285
X50760Y32785
X50760Y40285
X50760Y47785
T02
X17721Y84785
X15799Y84785
T03
X20260Y77785
X20760Y77785
X21260Y77785
X27260Y56785
X27760Y56785
X28260Y56785
X28260Y44785
X27760Y44785
X27260Y44785
X27260Y32785
X27760Y32785
X28260Y32785
X28260Y20785
X27760Y20785
X27260Y20785
T04
X21260Y8785
X22260Y5785
X25760Y5785
X32260Y5285
X47260Y9785
X47760Y9785
X48260Y9785
X49260Y6785
X48260Y29285
X47760Y29285
X47260Y29285
X47260Y47785
X47760Y47785
X48260Y47785
X24010Y77535
X24010Y78035
X28760Y78035
X28760Y78535
X29260Y80035
X30260Y85285
X35260Y81785
X35760Y81785
X36260Y81785
X44760Y88285
X44760Y88785
X19260Y86035
X17260Y87035
X16760Y87035
X16260Y87035
X10760Y78785
X9260Y68285
X7260Y68285
X7760Y56785
X9260Y56785
X9260Y44785
X7760Y44785
X7260Y33285
X9260Y33285
X9260Y21785
X7260Y21785
X6760Y9785
X8760Y5785
T05
X49557Y85533
X49557Y86533
X49557Y87533
X49557Y88533
T06
X44760Y67474
X44760Y66096
X40260Y62285
X40260Y61285
X40260Y60285
X40260Y59285
X39260Y59285
X39260Y60285
X39260Y61285
X39260Y62285
X39760Y64596
X39760Y65974
X39760Y53974
X39760Y52596
X39260Y50285
X39260Y49285
X39260Y48285
X39260Y47285
X40260Y47285
X40260Y48285
X40260Y49285
X40260Y50285
X39760Y41974
X39760Y40596
X39260Y38285
X39260Y37285
X39260Y36285
X39260Y35285
X40260Y35285
X40260Y36285
X40260Y37285
X40260Y38285
X39760Y29974
X39760Y28596
X39260Y26285
X39260Y25285
X39260Y24285
X39260Y23285
X40260Y23285
X40260Y24285
X40260Y25285
X40260Y26285
X39760Y17974
X39760Y16596
X39260Y14285
X39260Y13285
X39260Y12285
X39260Y11285
X40260Y11285
X40260Y12285
X40260Y13285
X40260Y14285
X21260Y14285
X21260Y13285
X21260Y12285
X21260Y11285
X20260Y11285
X20260Y12285
X20260Y13285
X20260Y14285
X16260Y19801
X16260Y21769
X16260Y24801
X16260Y26769
X16260Y29801
X16260Y31769
X16260Y34801
X16260Y36769
X16260Y39801
X16260Y41769
X16260Y44801
X16260Y46769
X16260Y49801
X16260Y51769
X16260Y54801
X16260Y56769
X16260Y59801
X16260Y61769
X16260Y64801
X16260Y66769
X13260Y68801
X13260Y70769
X16260Y72801
X16260Y74769
X19260Y70769
X19260Y68801
X20260Y62285
X20260Y61285
X20260Y60285
X20260Y59285
X21260Y59285
X21260Y60285
X21260Y61285
X21260Y62285
X21260Y50285
X21260Y49285
X21260Y48285
X21260Y47285
X20260Y47285
X20260Y48285
X20260Y49285
X20260Y50285
X20260Y38285
X20260Y37285
X20260Y36285
X20260Y35285
X21260Y35285
X21260Y36285
X21260Y37285
X21260Y38285
X21260Y26285
X21260Y25285
X21260Y24285
X21260Y23285
X20260Y23285
X20260Y24285
X20260Y25285
X20260Y26285
T07
X24760Y68285
X26010Y68285
X27260Y68285
X28510Y68285
X29760Y68285
X31010Y68285
X32260Y68285
X32260Y76285
X31010Y76285
X29760Y76285
X28510Y76285
X27260Y76285
X26010Y76285
X24760Y76285
T08
X32760Y86285
X32760Y90285
X43260Y91785
X43260Y87785
X33760Y57285
X29760Y57285
X29760Y45285
X33760Y45285
X33760Y33285
X29760Y33285
X29760Y21285
X33760Y21285
X33760Y9285
X29760Y9285
T09
X13260Y8785
X13260Y7785
X13260Y6785
X13260Y9785
X10260Y9785
X10260Y8785
X10260Y7785
X10260Y6785
X10260Y16285
X9260Y16285
X8260Y16285
X7260Y16285
X7260Y19285
X8260Y19285
X9260Y19285
X10260Y19285
X10260Y27785
X9260Y27785
X8260Y27785
X7260Y27785
X7260Y30785
X8260Y30785
X9260Y30785
X10260Y30785
X10260Y39285
X9260Y39285
X8260Y39285
X7260Y39285
X7260Y42285
X8260Y42285
X9260Y42285
X10260Y42285
X10260Y51285
X9260Y51285
X8260Y51285
X7260Y51285
X7260Y54285
X8260Y54285
X9260Y54285
X10260Y54285
X10260Y62785
X9260Y62785
X8260Y62785
X7260Y62785
X7260Y65785
X8260Y65785
X9260Y65785
X10260Y65785
X10260Y74285
X9260Y74285
X8260Y74285
X7260Y74285
X7260Y77285
X8260Y77285
X9260Y77285
X10260Y77285
X12260Y79785
X13260Y79785
X14260Y79785
X15260Y79785
X16260Y79785
X17260Y79785
X18260Y79785
X19260Y79785
X20260Y79785
X21260Y79785
X22260Y79785
X23260Y79785
X24260Y79785
X25260Y79785
X25260Y82785
X24260Y82785
X23260Y82785
X23510Y84035
X22510Y84035
X22260Y82785
X21260Y82785
X20260Y82785
X19260Y82785
X18260Y82785
X17260Y82785
X16260Y82785
X15260Y82785
X14260Y82785
X13260Y82785
X12260Y82785
X21510Y84035
X21510Y87035
X22510Y87035
X23510Y87035
X24510Y87035
X24510Y84035
T10
X49440Y67735
X49440Y66735
X50990Y66785
X50990Y65785
X50990Y64785
X50990Y63785
X51990Y64285
X51990Y63285
X53440Y63785
X53440Y64785
X53440Y65785
X53440Y66785
X54440Y66285
X54440Y65285
X54440Y64285
X54440Y63285
X56040Y63335
X56040Y62335
X56040Y60235
X56040Y59235
X54440Y58785
X54440Y57785
X54440Y56785
X54440Y55785
X53440Y56285
X53440Y57285
X53440Y58285
X53440Y59285
X51990Y58785
X51990Y57785
X51990Y56785
X51990Y55785
X50990Y56285
X50990Y57285
X50990Y58285
X50990Y59285
X49440Y59235
X49440Y60235
X49440Y62335
X49440Y63335
X51990Y65285
X51990Y66285
X56040Y66735
X56040Y67735
X56040Y55835
X56040Y54835
X56040Y52735
X56040Y51735
X54440Y51285
X54440Y50285
X54440Y49285
X54440Y48285
X53440Y48785
X53440Y49785
X53440Y50785
X53440Y51785
X51990Y51285
X51990Y50285
X51990Y49285
X51990Y48285
X50990Y48785
X50990Y49785
X50990Y50785
X50990Y51785
X49440Y51735
X49440Y52735
X49440Y54835
X49440Y55835
X49440Y48335
X49440Y47335
X49440Y45235
X49440Y44235
X50990Y44285
X50990Y43285
X50990Y42285
X50990Y41285
X51990Y40785
X51990Y41785
X51990Y42785
X51990Y43785
X53440Y43285
X53440Y42285
X53440Y41285
X54440Y40785
X54440Y41785
X54440Y42785
X54440Y43785
X53440Y44285
X56040Y44235
X56040Y45235
X56040Y47335
X56040Y48335
X56040Y40835
X56040Y39835
X56040Y37735
X56040Y36735
X54440Y36285
X54440Y35285
X54440Y34285
X54440Y33285
X53440Y33785
X53440Y34785
X53440Y35785
X53440Y36785
X51990Y36285
X51990Y35285
X51990Y34285
X51990Y33285
X50990Y33785
X50990Y34785
X50990Y35785
X50990Y36785
X49440Y36735
X49440Y37735
X49440Y39835
X49440Y40835
X49440Y33335
X49440Y32335
X49440Y30235
X49440Y29235
X50990Y29285
X50990Y28285
X50990Y27285
X50990Y26285
X51990Y25785
X51990Y26785
X51990Y27785
X51990Y28785
X53440Y28285
X53440Y27285
X53440Y26285
X54440Y25785
X54440Y26785
X54440Y27785
X54440Y28785
X53440Y29285
X56040Y29235
X56040Y30235
X56040Y32335
X56040Y33335
X56040Y25835
X56040Y24835
X56040Y22735
X56040Y21735
X54440Y21285
X54440Y20285
X54440Y19285
X54440Y18285
X53440Y18785
X53440Y19785
X53440Y20785
X53440Y21785
X51990Y21285
X51990Y20285
X51990Y19285
X51990Y18285
X50990Y18785
X50990Y19785
X50990Y20785
X50990Y21785
X49440Y21735
X49440Y22735
X49440Y24835
X49440Y25835
X49440Y18335
X49440Y17335
X49440Y14735
X49440Y13735
X50990Y13785
X50990Y12785
X50990Y11785
X50990Y10785
X51990Y10285
X51990Y11285
X51990Y12285
X51990Y13285
X53440Y12785
X53440Y11785
X53440Y10785
X54440Y10285
X54440Y11285
X54440Y12285
X54440Y13285
X53440Y13785
X56040Y13735
X56040Y14735
X56040Y17335
X56040Y18335
X56040Y10335
X56040Y9335
X49440Y9335
X49440Y10335
T11
X24260Y89702
X23260Y89702
X22760Y90702
X21760Y90702
X21260Y89702
X22260Y89702
X23760Y90702
X24760Y90702
T12
X24510Y2285
X23510Y2285
X21260Y2285
X20260Y2285
X26760Y2285
X27760Y2285
X30010Y2285
X31010Y2285
X33260Y2285
X34260Y2285
X36510Y2285
X37510Y2285
X39760Y2285
X40760Y2285
X43010Y2285
X44010Y2285
X46260Y2285
X47260Y2285
X49510Y2285
X50510Y2285
T13
X42760Y10285
X42760Y16285
X42760Y22285
X42760Y28285
X42760Y34285
X42760Y40285
X42760Y46285
X42760Y52285
X46760Y55285
X44760Y57285
X42760Y58285
X46760Y61285
X44760Y63285
X42760Y64285
X33760Y70785
X33760Y76785
X36760Y91785
X37760Y91785
X38760Y91785
X48760Y90785
X49760Y90785
X50760Y90785
X51760Y71785
X57760Y71785
X15260Y17285
X15260Y11285
X15760Y8785
X15760Y7785
X15760Y6785
X9260Y14285
X8260Y14285
X7260Y14285
X7260Y25785
X8260Y25785
X9260Y25785
X9260Y37285
X8260Y37285
X7260Y37285
X7260Y48785
X8260Y48785
X9260Y48785
X9260Y60785
X8260Y60785
X7260Y60785
X7260Y72285
X8260Y72285
X9260Y72285
T14
X23382Y66537
X23382Y59037
X23382Y54537
X28382Y59037
X29634Y59037
X30886Y59037
X37138Y59037
X37138Y54537
X37138Y47037
X37138Y42537
X37138Y35037
X37138Y30537
X37138Y23037
X37138Y18537
X37138Y11037
X30886Y11037
X29634Y11037
X28382Y11037
X23382Y11037
X23382Y18537
X23382Y23037
X28382Y23037
X29634Y23037
X30886Y23037
X23382Y30537
X23382Y35037
X28382Y35037
X29634Y35037
X30886Y35037
X23382Y42537
X23382Y47037
X28382Y47037
X29634Y47037
X30886Y47037
X37138Y66537
X41760Y81521
X42760Y81521
X43760Y81521
X46760Y81521
X47760Y81521
X48760Y81521
X26260Y84255
X26260Y86815
T15
X3260Y71785
X3260Y69785
X3260Y60285
X3260Y58285
X3260Y48285
X3260Y46285
X3260Y36785
X3260Y34785
X3260Y25285
X3260Y23285
X3260Y13785
X3260Y11785
X11260Y2785
X13260Y2785
T16
X51590Y8785
X54890Y8785
X54890Y15285
X54890Y16785
X51590Y16785
X51590Y15285
X51590Y23285
X51590Y24285
X54890Y24285
X54890Y23285
X54890Y30785
X54890Y31785
X51590Y31785
X51590Y30785
X51590Y38285
X51590Y39285
X54890Y39285
X54890Y38285
X54890Y45785
X54890Y46785
X51590Y46785
X51590Y45785
X51590Y53285
X51590Y54285
X54890Y54285
X54890Y53285
X54890Y60785
X54890Y61785
X51590Y61785
X51590Y60785
X51590Y68285
X54890Y68285
X53461Y77785
X53461Y81785
X57461Y81785
X57461Y77785
T17
X41260Y90559
X34260Y90559
T18
X25260Y93202
X20760Y93202
T19
X57690Y67535
X57690Y62535
X57690Y60035
X57690Y55035
X57690Y52535
X57690Y47535
X57690Y45035
X57690Y40035
X57690Y37535
X57690Y32535
X57690Y30035
X57690Y25035
X57690Y22535
X57690Y17535
X57690Y14535
X57690Y9535
T20
X5260Y5285
X55260Y5285
X55260Y90285
X5260Y90285
M30
