G04 #@! TF.GenerationSoftware,KiCad,Pcbnew,(5.0.0)*
G04 #@! TF.CreationDate,2018-12-17T21:11:44-06:00*
G04 #@! TF.ProjectId,MotorController_Hardware,4D6F746F72436F6E74726F6C6C65725F,rev?*
G04 #@! TF.SameCoordinates,Original*
G04 #@! TF.FileFunction,Paste,Bot*
G04 #@! TF.FilePolarity,Positive*
%FSLAX46Y46*%
G04 Gerber Fmt 4.6, Leading zero omitted, Abs format (unit mm)*
G04 Created by KiCad (PCBNEW (5.0.0)) date 12/17/18 21:11:44*
%MOMM*%
%LPD*%
G01*
G04 APERTURE LIST*
%ADD10R,0.990600X1.778000*%
G04 APERTURE END LIST*
D10*
G04 #@! TO.C,U3*
X145770600Y-83413600D03*
X148310600Y-83413600D03*
X150850600Y-83413600D03*
X153390600Y-83413600D03*
X155930600Y-83413600D03*
X158470600Y-83413600D03*
X161010600Y-83413600D03*
X163550600Y-83413600D03*
X166090600Y-83413600D03*
X168630600Y-83413600D03*
X145770600Y-77546200D03*
X148310600Y-77546200D03*
X150850600Y-77546200D03*
X153390600Y-77546200D03*
X155930600Y-77546200D03*
X158470600Y-77546200D03*
X161010600Y-77546200D03*
X163550600Y-77546200D03*
X166090600Y-77546200D03*
X168630600Y-77571600D03*
X145770600Y-34391600D03*
X148310600Y-34391600D03*
X150850600Y-34391600D03*
X153390600Y-34391600D03*
X155930600Y-34391600D03*
X158470600Y-34391600D03*
X161010600Y-34391600D03*
X163550600Y-34391600D03*
X166090600Y-34391600D03*
X168630600Y-34391600D03*
X145770600Y-40233600D03*
X148310600Y-40233600D03*
X150850600Y-40233600D03*
X153390600Y-40233600D03*
X155930600Y-40233600D03*
X158470600Y-40233600D03*
X161010600Y-40233600D03*
X163550600Y-40233600D03*
X166090600Y-40233600D03*
X168630600Y-40233600D03*
X100050600Y-83413600D03*
X102590600Y-83413600D03*
X105130600Y-83413600D03*
X82270600Y-77571600D03*
X84810600Y-77571600D03*
X87350600Y-77571600D03*
X89890600Y-77571600D03*
X92430600Y-77571600D03*
X94970600Y-77571600D03*
X97510600Y-77571600D03*
X100050600Y-77571600D03*
X102590600Y-77571600D03*
X105130600Y-77571600D03*
X82270600Y-34391600D03*
X87350600Y-34391600D03*
X92430600Y-34391600D03*
X94970600Y-34391600D03*
X97510600Y-34391600D03*
X100050600Y-34391600D03*
X102590600Y-34391600D03*
X82270600Y-40233600D03*
X87350600Y-40233600D03*
X97510600Y-40233600D03*
X100050600Y-40233600D03*
X102590600Y-40233600D03*
X105130600Y-40233600D03*
X92430600Y-40233600D03*
X89890600Y-40233600D03*
X84810600Y-34391600D03*
X97510600Y-83413600D03*
X94970600Y-83413600D03*
X84810600Y-40233600D03*
X89890600Y-34391600D03*
X87350600Y-83413600D03*
X89890600Y-83413600D03*
X94970600Y-40233600D03*
X92430600Y-83413600D03*
X84810600Y-83413600D03*
X82270600Y-83413600D03*
X105130600Y-34391600D03*
G04 #@! TD*
M02*
