M48
;DRILL file {KiCad (5.0.0)} date 12/17/18 21:11:45
;FORMAT={-:-/ absolute / inch / decimal}
FMAT,2
INCH,TZ
T1C0.0157
T2C0.0300
T3C0.0315
T4C0.0394
T5C0.0394
T6C0.0472
T7C0.1598
%
G90
G05
M72
T1
X2.37Y-2.62
X2.56Y-1.57
X2.56Y-2.01
X2.61Y-1.96
X2.7018Y-2.5
X2.7313Y-2.0128
X2.7313Y-2.2047
X2.7648Y-2.7067
X2.7657Y-2.7854
X2.7657Y-1.5059
X2.7657Y-2.2736
X2.7657Y-2.313
X2.7657Y-2.3524
X2.7657Y-2.3917
X2.7657Y-2.4311
X2.7657Y-2.5886
X2.7657Y-2.628
X2.7657Y-2.6673
X2.766Y-2.746
X2.815Y-1.4469
X2.8839Y-3.0069
X2.8839Y-3.0709
X2.8888Y-1.8898
X2.9085Y-1.4173
X2.997Y-2.1407
X3.0167Y-1.3533
X3.2333Y-2.6772
X3.32Y-1.4173
X3.4Y-1.4469
X3.43Y-1.4793
X3.6Y-1.47
X3.6Y-1.8
X3.6Y-1.84
X3.6Y-2.03
X3.639Y-1.67
X3.64Y-2.03
X3.68Y-1.47
X3.68Y-1.8
X3.68Y-1.84
X3.73Y-2.24
X3.7402Y-1.67
X3.7894Y-2.7559
X3.8Y-1.21
X3.84Y-1.28
X3.84Y-1.67
X3.8435Y-2.0866
X3.9075Y-2.062
X3.9124Y-2.3081
X3.9124Y-2.4754
X3.9124Y-2.6378
X3.94Y-1.26
X3.9715Y-1.6665
X4.039Y-1.5
X4.04Y-1.46
X4.0994Y-2.0817
X4.139Y-3.38
X4.14Y-3.42
X4.1535Y-2.5738
X4.155Y-1.84
X4.1683Y-2.623
X4.1929Y-2.6722
X4.2126Y-2.7215
X4.252Y-2.377
X4.2717Y-2.4262
X4.2913Y-2.4754
X4.3061Y-2.7904
X4.311Y-2.5246
X4.3504Y-2.1801
X4.3701Y-2.2293
X4.3898Y-2.2785
X4.4094Y-2.3278
X4.4094Y-2.7608
X4.5768Y-3.28
X4.6211Y-3.28
X4.6654Y-3.28
X4.8671Y-3.27
X4.915Y-1.915
X4.93Y-1.26
X4.93Y-3.27
X4.97Y-1.29
X4.9951Y-3.27
X5.Y-2.5338
X5.0246Y-2.4846
X5.0394Y-2.4354
X5.0591Y-2.3862
X5.0787Y-2.3376
X5.0984Y-2.2884
X5.1181Y-2.2386
X5.1378Y-2.1893
X5.1575Y-2.1407
X5.17Y-1.11
X5.1772Y-2.0915
X5.1919Y-3.28
X5.1969Y-2.0423
X5.21Y-1.11
X5.2165Y-1.998
X5.2362Y-3.28
X5.2805Y-3.28
X5.31Y-1.935
X5.355Y-1.935
X5.37Y-1.44
X5.4Y-1.54
X5.43Y-1.76
X5.4745Y-2.0762
X5.4745Y-2.2386
X5.4745Y-2.4059
X5.51Y-1.33
X5.51Y-1.38
X5.63Y-1.94
X5.6496Y-2.4754
X5.71Y-1.94
X6.13Y-1.66
X6.15Y-1.51
X6.1516Y-2.0374
X6.23Y-1.51
X6.23Y-1.66
X6.3Y-1.73
X6.33Y-1.66
X6.34Y-1.22
X6.34Y-1.51
X6.37Y-1.73
X6.3899Y-2.5732
X6.43Y-1.66
X6.44Y-1.51
X6.495Y-2.905
X6.5Y-2.85
X6.539Y-1.68
X6.539Y-1.719
X6.5394Y-1.8406
X6.5778Y-2.2356
X6.6191Y-2.185
X6.6191Y-2.5098
X6.6191Y-2.7018
X6.62Y-2.4403
X6.6212Y-2.2386
X6.6212Y-2.2828
X6.6212Y-2.3222
X6.6212Y-2.3616
X6.6212Y-2.401
X6.625Y-2.905
X6.639Y-3.38
X6.64Y-3.42
X6.7Y-3.05
X6.72Y-3.09
X6.74Y-3.13
X6.76Y-3.17
X6.78Y-3.21
X6.8Y-3.25
T2
X2.495Y-2.38
X2.495Y-2.48
X2.495Y-2.58
X2.495Y-2.68
X2.495Y-2.78
T3
X5.0316Y-2.81
X5.13Y-2.81
X4.73Y-2.81
X4.8284Y-2.81
T4
X6.6Y0.93
X6.6Y0.7331
X5.18Y1.56
X5.18Y1.46
X5.18Y1.36
X3.69Y1.56
X3.69Y1.46
X3.69Y1.36
X5.18Y0.3
X5.18Y0.2
X5.18Y0.1
X5.18Y-0.54
X5.18Y-0.64
X5.18Y-0.74
X6.16Y0.1
X6.16Y-0.0969
X5.18Y0.72
X5.18Y0.62
X5.18Y0.52
X5.18Y-0.12
X5.18Y-0.22
X5.18Y-0.32
X3.69Y1.14
X3.69Y1.04
X3.69Y0.94
X3.69Y-0.12
X3.69Y-0.22
X3.69Y-0.32
X3.69Y-0.54
X3.69Y-0.64
X3.69Y-0.74
X5.18Y1.14
X5.18Y1.04
X5.18Y0.94
X6.17Y0.93
X6.17Y0.7331
X2.7Y0.93
X2.7Y0.7331
X2.27Y0.93
X2.27Y0.7331
X2.72Y0.08
X2.72Y-0.1169
X3.69Y0.3
X3.69Y0.2
X3.69Y0.1
X3.69Y0.72
X3.69Y0.62
X3.69Y0.52
T5
X5.95Y0.41
X2.92Y0.41
X3.215Y-1.
X5.05Y0.72
X5.95Y1.25
X3.81Y-0.32
X4.93Y-3.41
X2.92Y1.25
X3.81Y0.52
X3.81Y0.1
X3.81Y-0.74
X3.81Y0.94
X5.05Y1.56
X3.82Y1.36
X5.95Y-0.43
X5.67Y-1.01
X5.05Y1.14
X5.05Y-0.54
X2.92Y-0.43
X5.05Y0.3
X5.05Y-0.12
T6
X6.63Y0.1
X6.63Y-0.0969
X2.25Y0.08
X2.25Y-0.1169
T7
X6.17Y0.41
X6.17Y1.25
X2.71Y0.41
X6.17Y-0.43
X2.71Y-0.43
X2.71Y1.25
X5.87Y-1.01
X6.18Y-1.01
X2.71Y-1.
X3.02Y-1.
T0
M30
