G04 #@! TF.GenerationSoftware,KiCad,Pcbnew,(5.0.2)-1*
G04 #@! TF.CreationDate,2019-03-05T00:25:16-06:00*
G04 #@! TF.ProjectId,PowerBoard_Hardware,506f7765-7242-46f6-9172-645f48617264,rev?*
G04 #@! TF.SameCoordinates,Original*
G04 #@! TF.FileFunction,Copper,L1,Top*
G04 #@! TF.FilePolarity,Positive*
%FSLAX46Y46*%
G04 Gerber Fmt 4.6, Leading zero omitted, Abs format (unit mm)*
G04 Created by KiCad (PCBNEW (5.0.2)-1) date 3/5/2019 12:25:16 AM*
%MOMM*%
%LPD*%
G01*
G04 APERTURE LIST*
G04 #@! TA.AperFunction,ComponentPad*
%ADD10C,3.048000*%
G04 #@! TD*
G04 #@! TA.AperFunction,ComponentPad*
%ADD11C,3.810000*%
G04 #@! TD*
G04 #@! TA.AperFunction,SMDPad,CuDef*
%ADD12R,0.900000X1.200000*%
G04 #@! TD*
G04 #@! TA.AperFunction,SMDPad,CuDef*
%ADD13R,1.200000X0.750000*%
G04 #@! TD*
G04 #@! TA.AperFunction,SMDPad,CuDef*
%ADD14R,0.750000X1.200000*%
G04 #@! TD*
G04 #@! TA.AperFunction,ComponentPad*
%ADD15R,3.200000X3.200000*%
G04 #@! TD*
G04 #@! TA.AperFunction,ComponentPad*
%ADD16O,3.200000X3.200000*%
G04 #@! TD*
G04 #@! TA.AperFunction,SMDPad,CuDef*
%ADD17R,1.200000X0.900000*%
G04 #@! TD*
G04 #@! TA.AperFunction,ComponentPad*
%ADD18C,2.400000*%
G04 #@! TD*
G04 #@! TA.AperFunction,ComponentPad*
%ADD19R,2.400000X2.400000*%
G04 #@! TD*
G04 #@! TA.AperFunction,ComponentPad*
%ADD20C,1.524000*%
G04 #@! TD*
G04 #@! TA.AperFunction,ComponentPad*
%ADD21C,5.080000*%
G04 #@! TD*
G04 #@! TA.AperFunction,SMDPad,CuDef*
%ADD22R,1.500000X0.450000*%
G04 #@! TD*
G04 #@! TA.AperFunction,SMDPad,CuDef*
%ADD23R,4.600000X1.100000*%
G04 #@! TD*
G04 #@! TA.AperFunction,SMDPad,CuDef*
%ADD24R,9.400000X10.800000*%
G04 #@! TD*
G04 #@! TA.AperFunction,SMDPad,CuDef*
%ADD25R,4.550000X5.250000*%
G04 #@! TD*
G04 #@! TA.AperFunction,SMDPad,CuDef*
%ADD26R,5.250000X4.550000*%
G04 #@! TD*
G04 #@! TA.AperFunction,SMDPad,CuDef*
%ADD27R,10.800000X9.400000*%
G04 #@! TD*
G04 #@! TA.AperFunction,SMDPad,CuDef*
%ADD28R,1.100000X4.600000*%
G04 #@! TD*
G04 #@! TA.AperFunction,ComponentPad*
%ADD29C,1.520000*%
G04 #@! TD*
G04 #@! TA.AperFunction,ComponentPad*
%ADD30C,2.819400*%
G04 #@! TD*
G04 #@! TA.AperFunction,SMDPad,CuDef*
%ADD31R,1.550000X0.600000*%
G04 #@! TD*
G04 #@! TA.AperFunction,SMDPad,CuDef*
%ADD32R,0.600000X1.550000*%
G04 #@! TD*
G04 #@! TA.AperFunction,SMDPad,CuDef*
%ADD33R,3.050000X2.750000*%
G04 #@! TD*
G04 #@! TA.AperFunction,SMDPad,CuDef*
%ADD34R,6.400000X5.800000*%
G04 #@! TD*
G04 #@! TA.AperFunction,SMDPad,CuDef*
%ADD35R,2.200000X1.200000*%
G04 #@! TD*
G04 #@! TA.AperFunction,ComponentPad*
%ADD36C,1.600000*%
G04 #@! TD*
G04 #@! TA.AperFunction,ComponentPad*
%ADD37R,1.600000X1.600000*%
G04 #@! TD*
G04 #@! TA.AperFunction,ComponentPad*
%ADD38C,18.288000*%
G04 #@! TD*
G04 #@! TA.AperFunction,ViaPad*
%ADD39C,0.800000*%
G04 #@! TD*
G04 #@! TA.AperFunction,Conductor*
%ADD40C,0.381000*%
G04 #@! TD*
G04 #@! TA.AperFunction,Conductor*
%ADD41C,0.762000*%
G04 #@! TD*
G04 #@! TA.AperFunction,Conductor*
%ADD42C,1.016000*%
G04 #@! TD*
G04 #@! TA.AperFunction,Conductor*
%ADD43C,0.254000*%
G04 #@! TD*
G04 APERTURE END LIST*
D10*
G04 #@! TO.P,Dahlbot,5*
G04 #@! TO.N,GND*
X156210000Y-56388000D03*
G04 #@! TO.P,Dahlbot,6*
G04 #@! TO.N,N/C*
X152400000Y-56388000D03*
G04 #@! TO.P,Dahlbot,7*
G04 #@! TO.N,Net-(C10-Pad1)*
X148590000Y-56388000D03*
D11*
G04 #@! TO.P,Dahlbot,8*
X144780000Y-56388000D03*
G04 #@! TO.P,Dahlbot,4*
G04 #@! TO.N,GND*
X160020000Y-56388000D03*
D10*
G04 #@! TO.P,Dahlbot,1*
G04 #@! TO.N,PVDD*
X144780000Y-107188000D03*
G04 #@! TO.P,Dahlbot,2*
G04 #@! TO.N,Net-(CONV1-Pad2)*
X152400000Y-107188000D03*
G04 #@! TO.P,Dahlbot,3*
G04 #@! TO.N,GND*
X160020000Y-107188000D03*
G04 #@! TD*
G04 #@! TO.P,The Van,5*
G04 #@! TO.N,GND*
X208534000Y-55372000D03*
G04 #@! TO.P,The Van,6*
G04 #@! TO.N,N/C*
X204724000Y-55372000D03*
G04 #@! TO.P,The Van,7*
G04 #@! TO.N,Net-(C11-Pad1)*
X200914000Y-55372000D03*
D11*
G04 #@! TO.P,The Van,8*
X197104000Y-55372000D03*
G04 #@! TO.P,The Van,4*
G04 #@! TO.N,GND*
X212344000Y-55372000D03*
D10*
G04 #@! TO.P,The Van,1*
G04 #@! TO.N,PVDD*
X197104000Y-106172000D03*
G04 #@! TO.P,The Van,2*
G04 #@! TO.N,Net-(CONV2-Pad2)*
X204724000Y-106172000D03*
G04 #@! TO.P,The Van,3*
G04 #@! TO.N,GND*
X212344000Y-106172000D03*
G04 #@! TD*
D12*
G04 #@! TO.P,R9,2*
G04 #@! TO.N,Net-(Conn3-Pad2)*
X221488000Y-23325000D03*
G04 #@! TO.P,R9,1*
G04 #@! TO.N,Net-(D3-Pad2)*
X221488000Y-21125000D03*
G04 #@! TD*
D13*
G04 #@! TO.P,C15,2*
G04 #@! TO.N,GND*
X176845000Y-71755000D03*
G04 #@! TO.P,C15,1*
G04 #@! TO.N,+3.3VA*
X174945000Y-71755000D03*
G04 #@! TD*
G04 #@! TO.P,C19,2*
G04 #@! TO.N,GND*
X180025000Y-71755000D03*
G04 #@! TO.P,C19,1*
G04 #@! TO.N,PVDD*
X181925000Y-71755000D03*
G04 #@! TD*
D14*
G04 #@! TO.P,C21,1*
G04 #@! TO.N,+3.3VA*
X171450000Y-18095000D03*
G04 #@! TO.P,C21,2*
G04 #@! TO.N,GND*
X171450000Y-16195000D03*
G04 #@! TD*
G04 #@! TO.P,C24,1*
G04 #@! TO.N,GND*
X215265000Y-15494000D03*
G04 #@! TO.P,C24,2*
G04 #@! TO.N,+3.3VA*
X215265000Y-17394000D03*
G04 #@! TD*
G04 #@! TO.P,C25,1*
G04 #@! TO.N,GND*
X256540000Y-16830000D03*
G04 #@! TO.P,C25,2*
G04 #@! TO.N,+3.3VA*
X256540000Y-18730000D03*
G04 #@! TD*
G04 #@! TO.P,C27,1*
G04 #@! TO.N,Net-(C27-Pad1)*
X255905000Y-79690000D03*
G04 #@! TO.P,C27,2*
G04 #@! TO.N,GND*
X255905000Y-77790000D03*
G04 #@! TD*
G04 #@! TO.P,C28,1*
G04 #@! TO.N,Net-(C28-Pad1)*
X255270000Y-104455000D03*
G04 #@! TO.P,C28,2*
G04 #@! TO.N,GND*
X255270000Y-102555000D03*
G04 #@! TD*
G04 #@! TO.P,C29,2*
G04 #@! TO.N,GND*
X254635000Y-127320000D03*
G04 #@! TO.P,C29,1*
G04 #@! TO.N,Net-(C29-Pad1)*
X254635000Y-129220000D03*
G04 #@! TD*
G04 #@! TO.P,C32,1*
G04 #@! TO.N,GND*
X249555000Y-72710000D03*
G04 #@! TO.P,C32,2*
G04 #@! TO.N,+3.3VA*
X249555000Y-74610000D03*
G04 #@! TD*
G04 #@! TO.P,C35,2*
G04 #@! TO.N,+3.3VA*
X248920000Y-98105000D03*
G04 #@! TO.P,C35,1*
G04 #@! TO.N,GND*
X248920000Y-96205000D03*
G04 #@! TD*
G04 #@! TO.P,C37,2*
G04 #@! TO.N,+3.3VA*
X248285000Y-124460000D03*
G04 #@! TO.P,C37,1*
G04 #@! TO.N,GND*
X248285000Y-122560000D03*
G04 #@! TD*
G04 #@! TO.P,C38,2*
G04 #@! TO.N,GND*
X90170000Y-132710000D03*
G04 #@! TO.P,C38,1*
G04 #@! TO.N,Net-(C38-Pad1)*
X90170000Y-130810000D03*
G04 #@! TD*
G04 #@! TO.P,C39,1*
G04 #@! TO.N,Net-(C39-Pad1)*
X91440000Y-115255000D03*
G04 #@! TO.P,C39,2*
G04 #@! TO.N,GND*
X91440000Y-117155000D03*
G04 #@! TD*
G04 #@! TO.P,C40,1*
G04 #@! TO.N,Net-(C40-Pad1)*
X90805000Y-97475000D03*
G04 #@! TO.P,C40,2*
G04 #@! TO.N,GND*
X90805000Y-99375000D03*
G04 #@! TD*
G04 #@! TO.P,C41,2*
G04 #@! TO.N,GND*
X90170000Y-82230000D03*
G04 #@! TO.P,C41,1*
G04 #@! TO.N,Net-(C41-Pad1)*
X90170000Y-80330000D03*
G04 #@! TD*
D13*
G04 #@! TO.P,C43,1*
G04 #@! TO.N,GND*
X104455000Y-137160000D03*
G04 #@! TO.P,C43,2*
G04 #@! TO.N,+3.3VA*
X102555000Y-137160000D03*
G04 #@! TD*
D14*
G04 #@! TO.P,C47,2*
G04 #@! TO.N,+3.3VA*
X98806000Y-124145000D03*
G04 #@! TO.P,C47,1*
G04 #@! TO.N,GND*
X98806000Y-126045000D03*
G04 #@! TD*
G04 #@! TO.P,C48,1*
G04 #@! TO.N,GND*
X98552000Y-92212200D03*
G04 #@! TO.P,C48,2*
G04 #@! TO.N,+3.3VA*
X98552000Y-90312200D03*
G04 #@! TD*
G04 #@! TO.P,C49,1*
G04 #@! TO.N,GND*
X98679000Y-107630000D03*
G04 #@! TO.P,C49,2*
G04 #@! TO.N,+3.3VA*
X98679000Y-105730000D03*
G04 #@! TD*
D15*
G04 #@! TO.P,D12,1*
G04 #@! TO.N,PVDD*
X175260000Y-125730000D03*
D16*
G04 #@! TO.P,D12,2*
G04 #@! TO.N,GND*
X180340000Y-125730000D03*
G04 #@! TD*
G04 #@! TO.P,D13,2*
G04 #@! TO.N,GND*
X180340000Y-134620000D03*
D15*
G04 #@! TO.P,D13,1*
G04 #@! TO.N,PVDD*
X175260000Y-134620000D03*
G04 #@! TD*
D17*
G04 #@! TO.P,R3,1*
G04 #@! TO.N,Net-(Q1-Pad1)*
X121285000Y-72390000D03*
G04 #@! TO.P,R3,2*
G04 #@! TO.N,GND*
X119085000Y-72390000D03*
G04 #@! TD*
G04 #@! TO.P,R4,2*
G04 #@! TO.N,Net-(Q2-Pad1)*
X121115000Y-68580000D03*
G04 #@! TO.P,R4,1*
G04 #@! TO.N,GND*
X118915000Y-68580000D03*
G04 #@! TD*
D13*
G04 #@! TO.P,C13,2*
G04 #@! TO.N,GND*
X176845000Y-74295000D03*
G04 #@! TO.P,C13,1*
G04 #@! TO.N,+3.3VA*
X174945000Y-74295000D03*
G04 #@! TD*
G04 #@! TO.P,C18,1*
G04 #@! TO.N,PVDD*
X181925000Y-74295000D03*
G04 #@! TO.P,C18,2*
G04 #@! TO.N,GND*
X180025000Y-74295000D03*
G04 #@! TD*
D12*
G04 #@! TO.P,R1,2*
G04 #@! TO.N,LOGIC\005CCOM_CTL*
X107950000Y-68750000D03*
G04 #@! TO.P,R1,1*
G04 #@! TO.N,Net-(Q1-Pad1)*
X107950000Y-70950000D03*
G04 #@! TD*
G04 #@! TO.P,R2,1*
G04 #@! TO.N,Net-(Q2-Pad1)*
X110490000Y-70950000D03*
G04 #@! TO.P,R2,2*
G04 #@! TO.N,ACT_CTL*
X110490000Y-68750000D03*
G04 #@! TD*
G04 #@! TO.P,R7,2*
G04 #@! TO.N,Net-(Conn1-Pad2)*
X262890000Y-24468000D03*
G04 #@! TO.P,R7,1*
G04 #@! TO.N,Net-(D1-Pad2)*
X262890000Y-22268000D03*
G04 #@! TD*
G04 #@! TO.P,R8,2*
G04 #@! TO.N,Net-(Conn2-Pad2)*
X178562000Y-23790000D03*
G04 #@! TO.P,R8,1*
G04 #@! TO.N,Net-(D2-Pad2)*
X178562000Y-21590000D03*
G04 #@! TD*
D18*
G04 #@! TO.P,C1,2*
G04 #@! TO.N,GND*
X194865000Y-132080000D03*
D19*
G04 #@! TO.P,C1,1*
G04 #@! TO.N,PVDD*
X189865000Y-132080000D03*
G04 #@! TD*
G04 #@! TO.P,C2,1*
G04 #@! TO.N,PVDD*
X161925000Y-132080000D03*
D18*
G04 #@! TO.P,C2,2*
G04 #@! TO.N,GND*
X166925000Y-132080000D03*
G04 #@! TD*
G04 #@! TO.P,C3,2*
G04 #@! TO.N,GND*
X194865000Y-118110000D03*
D19*
G04 #@! TO.P,C3,1*
G04 #@! TO.N,PVDD*
X189865000Y-118110000D03*
G04 #@! TD*
G04 #@! TO.P,C5,1*
G04 #@! TO.N,PVDD*
X161925000Y-118110000D03*
D18*
G04 #@! TO.P,C5,2*
G04 #@! TO.N,GND*
X166925000Y-118110000D03*
G04 #@! TD*
D13*
G04 #@! TO.P,C12,2*
G04 #@! TO.N,GND*
X176845000Y-76835000D03*
G04 #@! TO.P,C12,1*
G04 #@! TO.N,+3.3VA*
X174945000Y-76835000D03*
G04 #@! TD*
G04 #@! TO.P,C17,1*
G04 #@! TO.N,PVDD*
X181925000Y-76835000D03*
G04 #@! TO.P,C17,2*
G04 #@! TO.N,GND*
X180025000Y-76835000D03*
G04 #@! TD*
D14*
G04 #@! TO.P,C20,1*
G04 #@! TO.N,Net-(C20-Pad1)*
X173990000Y-18095000D03*
G04 #@! TO.P,C20,2*
G04 #@! TO.N,GND*
X173990000Y-16195000D03*
G04 #@! TD*
G04 #@! TO.P,C22,2*
G04 #@! TO.N,GND*
X217805000Y-15494000D03*
G04 #@! TO.P,C22,1*
G04 #@! TO.N,Net-(C22-Pad1)*
X217805000Y-17394000D03*
G04 #@! TD*
G04 #@! TO.P,C23,2*
G04 #@! TO.N,GND*
X259080000Y-16830000D03*
G04 #@! TO.P,C23,1*
G04 #@! TO.N,Net-(C23-Pad1)*
X259080000Y-18730000D03*
G04 #@! TD*
G04 #@! TO.P,C30,2*
G04 #@! TO.N,Net-(C30-Pad2)*
X252095000Y-74610000D03*
G04 #@! TO.P,C30,1*
G04 #@! TO.N,GND*
X252095000Y-72710000D03*
G04 #@! TD*
G04 #@! TO.P,C33,1*
G04 #@! TO.N,GND*
X250825000Y-122555000D03*
G04 #@! TO.P,C33,2*
G04 #@! TO.N,Net-(C33-Pad2)*
X250825000Y-124455000D03*
G04 #@! TD*
G04 #@! TO.P,C36,1*
G04 #@! TO.N,GND*
X251460000Y-96205000D03*
G04 #@! TO.P,C36,2*
G04 #@! TO.N,Net-(C36-Pad2)*
X251460000Y-98105000D03*
G04 #@! TD*
G04 #@! TO.P,C42,1*
G04 #@! TO.N,GND*
X96266000Y-126045000D03*
G04 #@! TO.P,C42,2*
G04 #@! TO.N,Net-(C42-Pad2)*
X96266000Y-124145000D03*
G04 #@! TD*
D13*
G04 #@! TO.P,C44,2*
G04 #@! TO.N,Net-(C44-Pad2)*
X92710000Y-137160000D03*
G04 #@! TO.P,C44,1*
G04 #@! TO.N,GND*
X90810000Y-137160000D03*
G04 #@! TD*
D14*
G04 #@! TO.P,C45,2*
G04 #@! TO.N,Net-(C45-Pad2)*
X96012000Y-90297000D03*
G04 #@! TO.P,C45,1*
G04 #@! TO.N,GND*
X96012000Y-92197000D03*
G04 #@! TD*
G04 #@! TO.P,C46,2*
G04 #@! TO.N,Net-(C46-Pad2)*
X96139000Y-105730000D03*
G04 #@! TO.P,C46,1*
G04 #@! TO.N,GND*
X96139000Y-107630000D03*
G04 #@! TD*
D13*
G04 #@! TO.P,C4,2*
G04 #@! TO.N,GND*
X149230000Y-27940000D03*
G04 #@! TO.P,C4,1*
G04 #@! TO.N,Net-(C10-Pad1)*
X151130000Y-27940000D03*
G04 #@! TD*
G04 #@! TO.P,C7,1*
G04 #@! TO.N,GND*
X195260000Y-29210000D03*
G04 #@! TO.P,C7,2*
G04 #@! TO.N,Net-(C10-Pad1)*
X193360000Y-29210000D03*
G04 #@! TD*
D14*
G04 #@! TO.P,C14,2*
G04 #@! TO.N,GND*
X254000000Y-32065000D03*
G04 #@! TO.P,C14,1*
G04 #@! TO.N,Net-(C14-Pad1)*
X254000000Y-30165000D03*
G04 #@! TD*
D20*
G04 #@! TO.P,3V3FAN1,1*
G04 #@! TO.N,Net-(3V3FAN1-Pad1)*
X52832000Y-54356000D03*
G04 #@! TO.P,3V3FAN1,2*
G04 #@! TO.N,+3.3VA*
X52832000Y-51816000D03*
G04 #@! TD*
D17*
G04 #@! TO.P,R10,1*
G04 #@! TO.N,Net-(D5-Pad2)*
X277960000Y-129540000D03*
G04 #@! TO.P,R10,2*
G04 #@! TO.N,Net-(Conn7-Pad2)*
X275760000Y-129540000D03*
G04 #@! TD*
G04 #@! TO.P,R12,2*
G04 #@! TO.N,Net-(Conn5-Pad2)*
X276395000Y-78105000D03*
G04 #@! TO.P,R12,1*
G04 #@! TO.N,Net-(D6-Pad2)*
X278595000Y-78105000D03*
G04 #@! TD*
G04 #@! TO.P,R13,2*
G04 #@! TO.N,Net-(Conn6-Pad2)*
X276395000Y-104775000D03*
G04 #@! TO.P,R13,1*
G04 #@! TO.N,Net-(D7-Pad2)*
X278595000Y-104775000D03*
G04 #@! TD*
G04 #@! TO.P,R14,1*
G04 #@! TO.N,Net-(D8-Pad2)*
X58166000Y-136906000D03*
G04 #@! TO.P,R14,2*
G04 #@! TO.N,Net-(Conn11-Pad2)*
X60366000Y-136906000D03*
G04 #@! TD*
G04 #@! TO.P,R15,1*
G04 #@! TO.N,Net-(D9-Pad2)*
X56812000Y-121412000D03*
G04 #@! TO.P,R15,2*
G04 #@! TO.N,Net-(Conn10-Pad2)*
X59012000Y-121412000D03*
G04 #@! TD*
G04 #@! TO.P,R16,1*
G04 #@! TO.N,Net-(D10-Pad2)*
X57912000Y-103632000D03*
G04 #@! TO.P,R16,2*
G04 #@! TO.N,Net-(Conn9-Pad2)*
X60112000Y-103632000D03*
G04 #@! TD*
G04 #@! TO.P,R17,2*
G04 #@! TO.N,Net-(Conn8-Pad2)*
X60536000Y-87376000D03*
G04 #@! TO.P,R17,1*
G04 #@! TO.N,Net-(D11-Pad2)*
X58336000Y-87376000D03*
G04 #@! TD*
D21*
G04 #@! TO.P,Conn5,2*
G04 #@! TO.N,Net-(Conn5-Pad2)*
X266446000Y-67310000D03*
G04 #@! TO.P,Conn5,1*
G04 #@! TO.N,GND*
X274320000Y-67310000D03*
G04 #@! TD*
G04 #@! TO.P,Conn6,2*
G04 #@! TO.N,Net-(Conn6-Pad2)*
X266446000Y-92710000D03*
G04 #@! TO.P,Conn6,1*
G04 #@! TO.N,GND*
X274320000Y-92710000D03*
G04 #@! TD*
G04 #@! TO.P,Conn7,2*
G04 #@! TO.N,Net-(Conn7-Pad2)*
X266446000Y-117475000D03*
G04 #@! TO.P,Conn7,1*
G04 #@! TO.N,GND*
X274320000Y-117475000D03*
G04 #@! TD*
G04 #@! TO.P,Conn8,1*
G04 #@! TO.N,GND*
X57785000Y-78105000D03*
G04 #@! TO.P,Conn8,2*
G04 #@! TO.N,Net-(Conn8-Pad2)*
X65659000Y-78105000D03*
G04 #@! TD*
G04 #@! TO.P,Conn9,2*
G04 #@! TO.N,Net-(Conn9-Pad2)*
X65659000Y-92710000D03*
G04 #@! TO.P,Conn9,1*
G04 #@! TO.N,GND*
X57785000Y-92710000D03*
G04 #@! TD*
G04 #@! TO.P,Conn10,1*
G04 #@! TO.N,GND*
X57785000Y-109220000D03*
G04 #@! TO.P,Conn10,2*
G04 #@! TO.N,Net-(Conn10-Pad2)*
X65659000Y-109220000D03*
G04 #@! TD*
G04 #@! TO.P,Conn11,2*
G04 #@! TO.N,Net-(Conn11-Pad2)*
X65659000Y-127000000D03*
G04 #@! TO.P,Conn11,1*
G04 #@! TO.N,GND*
X57785000Y-127000000D03*
G04 #@! TD*
D12*
G04 #@! TO.P,D1,2*
G04 #@! TO.N,Net-(D1-Pad2)*
X262890000Y-18880000D03*
G04 #@! TO.P,D1,1*
G04 #@! TO.N,GND*
X262890000Y-16680000D03*
G04 #@! TD*
G04 #@! TO.P,D2,2*
G04 #@! TO.N,Net-(D2-Pad2)*
X178562000Y-18415000D03*
G04 #@! TO.P,D2,1*
G04 #@! TO.N,GND*
X178562000Y-16215000D03*
G04 #@! TD*
G04 #@! TO.P,D3,1*
G04 #@! TO.N,GND*
X221488000Y-15410000D03*
G04 #@! TO.P,D3,2*
G04 #@! TO.N,Net-(D3-Pad2)*
X221488000Y-17610000D03*
G04 #@! TD*
D17*
G04 #@! TO.P,D5,1*
G04 #@! TO.N,GND*
X287188000Y-129540000D03*
G04 #@! TO.P,D5,2*
G04 #@! TO.N,Net-(D5-Pad2)*
X284988000Y-129540000D03*
G04 #@! TD*
G04 #@! TO.P,D6,1*
G04 #@! TO.N,GND*
X286088000Y-78232000D03*
G04 #@! TO.P,D6,2*
G04 #@! TO.N,Net-(D6-Pad2)*
X283888000Y-78232000D03*
G04 #@! TD*
G04 #@! TO.P,D7,2*
G04 #@! TO.N,Net-(D7-Pad2)*
X283888000Y-104775000D03*
G04 #@! TO.P,D7,1*
G04 #@! TO.N,GND*
X286088000Y-104775000D03*
G04 #@! TD*
G04 #@! TO.P,D8,1*
G04 #@! TO.N,GND*
X51224000Y-136906000D03*
G04 #@! TO.P,D8,2*
G04 #@! TO.N,Net-(D8-Pad2)*
X53424000Y-136906000D03*
G04 #@! TD*
G04 #@! TO.P,D9,1*
G04 #@! TO.N,GND*
X51224000Y-121412000D03*
G04 #@! TO.P,D9,2*
G04 #@! TO.N,Net-(D9-Pad2)*
X53424000Y-121412000D03*
G04 #@! TD*
G04 #@! TO.P,D10,2*
G04 #@! TO.N,Net-(D10-Pad2)*
X54440000Y-103632000D03*
G04 #@! TO.P,D10,1*
G04 #@! TO.N,GND*
X52240000Y-103632000D03*
G04 #@! TD*
G04 #@! TO.P,D11,2*
G04 #@! TO.N,Net-(D11-Pad2)*
X54440000Y-87376000D03*
G04 #@! TO.P,D11,1*
G04 #@! TO.N,GND*
X52240000Y-87376000D03*
G04 #@! TD*
D22*
G04 #@! TO.P,Q1,3*
G04 #@! TO.N,Net-(CONV1-Pad2)*
X126425000Y-73660000D03*
G04 #@! TO.P,Q1,2*
G04 #@! TO.N,GND*
X123765000Y-74310000D03*
G04 #@! TO.P,Q1,1*
G04 #@! TO.N,Net-(Q1-Pad1)*
X123765000Y-73010000D03*
G04 #@! TD*
G04 #@! TO.P,Q2,1*
G04 #@! TO.N,Net-(Q2-Pad1)*
X123765000Y-69200000D03*
G04 #@! TO.P,Q2,2*
G04 #@! TO.N,GND*
X123765000Y-70500000D03*
G04 #@! TO.P,Q2,3*
G04 #@! TO.N,Net-(CONV2-Pad2)*
X126425000Y-69850000D03*
G04 #@! TD*
G04 #@! TO.P,Q3,3*
G04 #@! TO.N,Net-(3V3FAN1-Pad1)*
X63440000Y-52705000D03*
G04 #@! TO.P,Q3,2*
G04 #@! TO.N,GND*
X66100000Y-52055000D03*
G04 #@! TO.P,Q3,1*
G04 #@! TO.N,FAN_CTL*
X66100000Y-53355000D03*
G04 #@! TD*
D23*
G04 #@! TO.P,Q6,1*
G04 #@! TO.N,Net-(Q6-Pad1)*
X271405000Y-85090000D03*
G04 #@! TO.P,Q6,3*
G04 #@! TO.N,Net-(Conn5-Pad2)*
X271405000Y-80010000D03*
D24*
G04 #@! TO.P,Q6,2*
G04 #@! TO.N,Net-(C27-Pad1)*
X262255000Y-82550000D03*
D25*
X259830000Y-79775000D03*
X264680000Y-85325000D03*
X259830000Y-85325000D03*
X264680000Y-79775000D03*
G04 #@! TD*
D23*
G04 #@! TO.P,Q7,1*
G04 #@! TO.N,Net-(Q7-Pad1)*
X270135000Y-134620000D03*
G04 #@! TO.P,Q7,3*
G04 #@! TO.N,Net-(Conn7-Pad2)*
X270135000Y-129540000D03*
D24*
G04 #@! TO.P,Q7,2*
G04 #@! TO.N,Net-(C29-Pad1)*
X260985000Y-132080000D03*
D25*
X258560000Y-129305000D03*
X263410000Y-134855000D03*
X258560000Y-134855000D03*
X263410000Y-129305000D03*
G04 #@! TD*
G04 #@! TO.P,Q9,2*
G04 #@! TO.N,Net-(C28-Pad1)*
X264045000Y-104305000D03*
X259195000Y-109855000D03*
X264045000Y-109855000D03*
X259195000Y-104305000D03*
D24*
X261620000Y-107080000D03*
D23*
G04 #@! TO.P,Q9,3*
G04 #@! TO.N,Net-(Conn6-Pad2)*
X270770000Y-104540000D03*
G04 #@! TO.P,Q9,1*
G04 #@! TO.N,Net-(Q9-Pad1)*
X270770000Y-109620000D03*
G04 #@! TD*
D26*
G04 #@! TO.P,Q10,2*
G04 #@! TO.N,Net-(C38-Pad1)*
X74295000Y-130175000D03*
X79845000Y-135025000D03*
X79845000Y-130175000D03*
X74295000Y-135025000D03*
D27*
X77070000Y-132600000D03*
D28*
G04 #@! TO.P,Q10,3*
G04 #@! TO.N,Net-(Conn11-Pad2)*
X74530000Y-123450000D03*
G04 #@! TO.P,Q10,1*
G04 #@! TO.N,Net-(Q10-Pad1)*
X79610000Y-123450000D03*
G04 #@! TD*
G04 #@! TO.P,Q11,1*
G04 #@! TO.N,Net-(Q11-Pad1)*
X79375000Y-105785000D03*
G04 #@! TO.P,Q11,3*
G04 #@! TO.N,Net-(Conn10-Pad2)*
X74295000Y-105785000D03*
D27*
G04 #@! TO.P,Q11,2*
G04 #@! TO.N,Net-(C39-Pad1)*
X76835000Y-114935000D03*
D26*
X74060000Y-117360000D03*
X79610000Y-112510000D03*
X79610000Y-117360000D03*
X74060000Y-112510000D03*
G04 #@! TD*
G04 #@! TO.P,Q12,2*
G04 #@! TO.N,Net-(C41-Pad1)*
X73825000Y-76950000D03*
X79375000Y-81800000D03*
X79375000Y-76950000D03*
X73825000Y-81800000D03*
D27*
X76600000Y-79375000D03*
D28*
G04 #@! TO.P,Q12,3*
G04 #@! TO.N,Net-(Conn8-Pad2)*
X74060000Y-70225000D03*
G04 #@! TO.P,Q12,1*
G04 #@! TO.N,Net-(Q12-Pad1)*
X79140000Y-70225000D03*
G04 #@! TD*
D26*
G04 #@! TO.P,Q13,2*
G04 #@! TO.N,Net-(C40-Pad1)*
X73825000Y-94295000D03*
X79375000Y-99145000D03*
X79375000Y-94295000D03*
X73825000Y-99145000D03*
D27*
X76600000Y-96720000D03*
D28*
G04 #@! TO.P,Q13,3*
G04 #@! TO.N,Net-(Conn9-Pad2)*
X74060000Y-87570000D03*
G04 #@! TO.P,Q13,1*
G04 #@! TO.N,Net-(Q13-Pad1)*
X79140000Y-87570000D03*
G04 #@! TD*
D29*
G04 #@! TO.P,U1,+3V3*
G04 #@! TO.N,+3.3VA*
X67310000Y-20320000D03*
G04 #@! TO.P,U1,PM6*
G04 #@! TO.N,N/C*
X44450000Y-66040000D03*
G04 #@! TO.P,U1,PQ1*
X46990000Y-66040000D03*
G04 #@! TO.P,U1,PQ2*
X54610000Y-66040000D03*
G04 #@! TO.P,U1,PK0*
G04 #@! TO.N,AUX_IMEAS*
X57150000Y-22860000D03*
G04 #@! TO.P,U1,PQ3*
G04 #@! TO.N,N/C*
X52070000Y-66040000D03*
G04 #@! TO.P,U1,PP3*
X49530000Y-66040000D03*
G04 #@! TO.P,U1,PQ0*
X52070000Y-20320000D03*
G04 #@! TO.P,U1,PA4*
X46990000Y-22860000D03*
G04 #@! TO.P,U1,Rese*
G04 #@! TO.N,Net-(U1-PadRese)*
X57150000Y-66040000D03*
G04 #@! TO.P,U1,PA7*
G04 #@! TO.N,N/C*
X59690000Y-66040000D03*
G04 #@! TO.P,U1,PN5*
X46990000Y-20320000D03*
G04 #@! TO.P,U1,PK2*
G04 #@! TO.N,MM_IMEAS*
X52070000Y-22860000D03*
G04 #@! TO.P,U1,PK1*
G04 #@! TO.N,BM_IMEAS*
X54610000Y-22860000D03*
G04 #@! TO.P,U1,+5V*
G04 #@! TO.N,Net-(U1-Pad+5V)*
X67310000Y-22860000D03*
G04 #@! TO.P,U1,GND*
G04 #@! TO.N,GND*
X64770000Y-22860000D03*
G04 #@! TO.P,U1,PB4*
G04 #@! TO.N,GE_IMEAS*
X62230000Y-22860000D03*
G04 #@! TO.P,U1,PB5*
G04 #@! TO.N,ROCKET_IMEAS*
X59690000Y-22860000D03*
G04 #@! TO.P,U1,PK3*
G04 #@! TO.N,FM_IMEAS*
X49530000Y-22860000D03*
G04 #@! TO.P,U1,PA5*
G04 #@! TO.N,N/C*
X44450000Y-22860000D03*
G04 #@! TO.P,U1,PD2*
X64770000Y-20320000D03*
G04 #@! TO.P,U1,PP0*
X62230000Y-20320000D03*
G04 #@! TO.P,U1,PP1*
X59690000Y-20320000D03*
G04 #@! TO.P,U1,PD4*
X57150000Y-20320000D03*
G04 #@! TO.P,U1,PD5*
X54610000Y-20320000D03*
G04 #@! TO.P,U1,PP4*
X49530000Y-20320000D03*
G04 #@! TO.P,U1,PN4*
X44450000Y-20320000D03*
G04 #@! TO.P,U1,PG1*
X67310000Y-63500000D03*
G04 #@! TO.P,U1,PK4*
X64770000Y-63500000D03*
G04 #@! TO.P,U1,PK5*
G04 #@! TO.N,EM_CTL*
X62230000Y-63500000D03*
G04 #@! TO.P,U1,PM0*
G04 #@! TO.N,N/C*
X59690000Y-63500000D03*
G04 #@! TO.P,U1,PM1*
G04 #@! TO.N,GE_CTL*
X57150000Y-63500000D03*
G04 #@! TO.P,U1,PM2*
G04 #@! TO.N,ROCKET_CTL*
X54610000Y-63500000D03*
G04 #@! TO.P,U1,PH0*
G04 #@! TO.N,AUX_CTL*
X52070000Y-63500000D03*
G04 #@! TO.P,U1,PH1*
G04 #@! TO.N,BM_CTL*
X49530000Y-63500000D03*
G04 #@! TO.P,U1,PK6*
G04 #@! TO.N,MM_CTL*
X46990000Y-63500000D03*
G04 #@! TO.P,U1,PK7*
G04 #@! TO.N,FM_CTL*
X44450000Y-63500000D03*
G04 #@! TO.P,U1,GND*
G04 #@! TO.N,GND*
X67310000Y-66040000D03*
G04 #@! TO.P,U1,PM7*
G04 #@! TO.N,N/C*
X64770000Y-66040000D03*
G04 #@! TO.P,U1,PP5*
X62230000Y-66040000D03*
G04 #@! TO.P,U1,+5V*
G04 #@! TO.N,Net-(U1-Pad+5V)*
X130810000Y-22860000D03*
G04 #@! TO.P,U1,GND*
G04 #@! TO.N,GND*
X128270000Y-22860000D03*
G04 #@! TO.P,U1,PE0*
G04 #@! TO.N,COM_IMEAS*
X125730000Y-22860000D03*
G04 #@! TO.P,U1,PE1*
G04 #@! TO.N,LOGIC_IMEAS*
X123190000Y-22860000D03*
G04 #@! TO.P,U1,PE2*
G04 #@! TO.N,ACT_IMEAS*
X120650000Y-22860000D03*
G04 #@! TO.P,U1,PE3*
G04 #@! TO.N,N/C*
X118110000Y-22860000D03*
G04 #@! TO.P,U1,PD7*
X115570000Y-22860000D03*
G04 #@! TO.P,U1,PA6*
X113030000Y-22860000D03*
G04 #@! TO.P,U1,PM4*
X110490000Y-22860000D03*
G04 #@! TO.P,U1,PM5*
X107950000Y-22860000D03*
G04 #@! TO.P,U1,+3V3*
G04 #@! TO.N,+3.3VA*
X130810000Y-20320000D03*
G04 #@! TO.P,U1,PE4*
G04 #@! TO.N,N/C*
X128270000Y-20320000D03*
G04 #@! TO.P,U1,PC4*
X125730000Y-20320000D03*
G04 #@! TO.P,U1,PC5*
X123190000Y-20320000D03*
G04 #@! TO.P,U1,PC6*
X120650000Y-20320000D03*
G04 #@! TO.P,U1,PE5*
X118110000Y-20320000D03*
G04 #@! TO.P,U1,PD3*
X115570000Y-20320000D03*
G04 #@! TO.P,U1,PC7*
X113030000Y-20320000D03*
G04 #@! TO.P,U1,PB2*
X110490000Y-20320000D03*
G04 #@! TO.P,U1,PB3*
X107950000Y-20320000D03*
G04 #@! TO.P,U1,PF1*
X130810000Y-63500000D03*
G04 #@! TO.P,U1,PF2*
X128270000Y-63500000D03*
G04 #@! TO.P,U1,PF3*
X125730000Y-63500000D03*
G04 #@! TO.P,U1,PG0*
X123190000Y-63500000D03*
G04 #@! TO.P,U1,PL4*
X120650000Y-63500000D03*
G04 #@! TO.P,U1,PL5*
X118110000Y-63500000D03*
G04 #@! TO.P,U1,PL0*
X115570000Y-63500000D03*
G04 #@! TO.P,U1,PL1*
X113030000Y-63500000D03*
G04 #@! TO.P,U1,PL2*
X110490000Y-63500000D03*
G04 #@! TO.P,U1,PL3*
X107950000Y-63500000D03*
G04 #@! TO.P,U1,GND*
G04 #@! TO.N,GND*
X130810000Y-66040000D03*
G04 #@! TO.P,U1,PM3*
G04 #@! TO.N,FAN_CTL*
X128270000Y-66040000D03*
G04 #@! TO.P,U1,PH2*
G04 #@! TO.N,COM_CTL*
X125730000Y-66040000D03*
G04 #@! TO.P,U1,PH3*
G04 #@! TO.N,N/C*
X123190000Y-66040000D03*
G04 #@! TO.P,U1,Rese*
G04 #@! TO.N,Net-(U1-PadRese)*
X120650000Y-66040000D03*
G04 #@! TO.P,U1,PD1*
G04 #@! TO.N,LOGIC_CTL*
X118110000Y-66040000D03*
G04 #@! TO.P,U1,PD0*
G04 #@! TO.N,EM_IMEAS*
X115570000Y-66040000D03*
G04 #@! TO.P,U1,PN2*
G04 #@! TO.N,N/C*
X113030000Y-66040000D03*
G04 #@! TO.P,U1,PN3*
G04 #@! TO.N,ACT_CTL*
X110490000Y-66040000D03*
G04 #@! TO.P,U1,PP2*
G04 #@! TO.N,LOGIC\005CCOM_CTL*
X107950000Y-66040000D03*
G04 #@! TD*
D30*
G04 #@! TO.P,U2,2*
G04 #@! TO.N,Net-(C10-Pad1)*
X192278000Y-17526000D03*
X192278000Y-20955000D03*
G04 #@! TO.P,U2,1*
G04 #@! TO.N,Net-(Q5-Pad2)*
X205740000Y-20955000D03*
X205740000Y-17526000D03*
G04 #@! TD*
G04 #@! TO.P,U3,2*
G04 #@! TO.N,Net-(C11-Pad1)*
X236093000Y-17526000D03*
X236093000Y-20955000D03*
G04 #@! TO.P,U3,1*
G04 #@! TO.N,Net-(C14-Pad1)*
X249555000Y-20955000D03*
X249555000Y-17526000D03*
G04 #@! TD*
G04 #@! TO.P,U4,1*
G04 #@! TO.N,Net-(Q4-Pad2)*
X167005000Y-17526000D03*
X167005000Y-20955000D03*
G04 #@! TO.P,U4,2*
G04 #@! TO.N,Net-(C10-Pad1)*
X153543000Y-20955000D03*
X153543000Y-17526000D03*
G04 #@! TD*
D31*
G04 #@! TO.P,U5,1*
G04 #@! TO.N,GND*
X176055000Y-35560000D03*
G04 #@! TO.P,U5,2*
G04 #@! TO.N,N/C*
X176055000Y-34290000D03*
G04 #@! TO.P,U5,3*
X176055000Y-33020000D03*
G04 #@! TO.P,U5,4*
G04 #@! TO.N,COM_CTL*
X176055000Y-31750000D03*
G04 #@! TO.P,U5,5*
G04 #@! TO.N,Net-(Q4-Pad1)*
X170655000Y-31750000D03*
G04 #@! TO.P,U5,6*
G04 #@! TO.N,Net-(Q4-Pad2)*
X170655000Y-33020000D03*
G04 #@! TO.P,U5,7*
G04 #@! TO.N,N/C*
X170655000Y-34290000D03*
G04 #@! TO.P,U5,8*
G04 #@! TO.N,Net-(Q4-Pad2)*
X170655000Y-35560000D03*
G04 #@! TD*
G04 #@! TO.P,U6,8*
G04 #@! TO.N,Net-(Q5-Pad2)*
X212565000Y-34290000D03*
G04 #@! TO.P,U6,7*
G04 #@! TO.N,N/C*
X212565000Y-33020000D03*
G04 #@! TO.P,U6,6*
G04 #@! TO.N,Net-(Q5-Pad2)*
X212565000Y-31750000D03*
G04 #@! TO.P,U6,5*
G04 #@! TO.N,Net-(Q5-Pad1)*
X212565000Y-30480000D03*
G04 #@! TO.P,U6,4*
G04 #@! TO.N,LOGIC_CTL*
X217965000Y-30480000D03*
G04 #@! TO.P,U6,3*
G04 #@! TO.N,N/C*
X217965000Y-31750000D03*
G04 #@! TO.P,U6,2*
X217965000Y-33020000D03*
G04 #@! TO.P,U6,1*
G04 #@! TO.N,GND*
X217965000Y-34290000D03*
G04 #@! TD*
D20*
G04 #@! TO.P,U10,1*
G04 #@! TO.N,PVDD*
X180975000Y-67310000D03*
G04 #@! TO.P,U10,2*
G04 #@! TO.N,GND*
X178435000Y-67310000D03*
G04 #@! TO.P,U10,3*
G04 #@! TO.N,+3.3VA*
X175895000Y-67310000D03*
G04 #@! TD*
D31*
G04 #@! TO.P,U11,8*
G04 #@! TO.N,Net-(C27-Pad1)*
X263050000Y-71755000D03*
G04 #@! TO.P,U11,7*
G04 #@! TO.N,N/C*
X263050000Y-73025000D03*
G04 #@! TO.P,U11,6*
G04 #@! TO.N,Net-(C27-Pad1)*
X263050000Y-74295000D03*
G04 #@! TO.P,U11,5*
G04 #@! TO.N,Net-(Q6-Pad1)*
X263050000Y-75565000D03*
G04 #@! TO.P,U11,4*
G04 #@! TO.N,GE_CTL*
X257650000Y-75565000D03*
G04 #@! TO.P,U11,3*
G04 #@! TO.N,N/C*
X257650000Y-74295000D03*
G04 #@! TO.P,U11,2*
X257650000Y-73025000D03*
G04 #@! TO.P,U11,1*
G04 #@! TO.N,GND*
X257650000Y-71755000D03*
G04 #@! TD*
G04 #@! TO.P,U13,1*
G04 #@! TO.N,GND*
X255745000Y-96520000D03*
G04 #@! TO.P,U13,2*
G04 #@! TO.N,N/C*
X255745000Y-97790000D03*
G04 #@! TO.P,U13,3*
X255745000Y-99060000D03*
G04 #@! TO.P,U13,4*
G04 #@! TO.N,ROCKET_CTL*
X255745000Y-100330000D03*
G04 #@! TO.P,U13,5*
G04 #@! TO.N,Net-(Q9-Pad1)*
X261145000Y-100330000D03*
G04 #@! TO.P,U13,6*
G04 #@! TO.N,Net-(C28-Pad1)*
X261145000Y-99060000D03*
G04 #@! TO.P,U13,7*
G04 #@! TO.N,N/C*
X261145000Y-97790000D03*
G04 #@! TO.P,U13,8*
G04 #@! TO.N,Net-(C28-Pad1)*
X261145000Y-96520000D03*
G04 #@! TD*
G04 #@! TO.P,U14,1*
G04 #@! TO.N,GND*
X255745000Y-120650000D03*
G04 #@! TO.P,U14,2*
G04 #@! TO.N,N/C*
X255745000Y-121920000D03*
G04 #@! TO.P,U14,3*
X255745000Y-123190000D03*
G04 #@! TO.P,U14,4*
G04 #@! TO.N,AUX_CTL*
X255745000Y-124460000D03*
G04 #@! TO.P,U14,5*
G04 #@! TO.N,Net-(Q7-Pad1)*
X261145000Y-124460000D03*
G04 #@! TO.P,U14,6*
G04 #@! TO.N,Net-(C29-Pad1)*
X261145000Y-123190000D03*
G04 #@! TO.P,U14,7*
G04 #@! TO.N,N/C*
X261145000Y-121920000D03*
G04 #@! TO.P,U14,8*
G04 #@! TO.N,Net-(C29-Pad1)*
X261145000Y-120650000D03*
G04 #@! TD*
D30*
G04 #@! TO.P,U15,1*
G04 #@! TO.N,Net-(U15-Pad1)*
X243840000Y-82296000D03*
X243840000Y-85725000D03*
G04 #@! TO.P,U15,2*
G04 #@! TO.N,PVDD*
X230378000Y-85725000D03*
X230378000Y-82296000D03*
G04 #@! TD*
G04 #@! TO.P,U17,2*
G04 #@! TO.N,PVDD*
X229743000Y-107061000D03*
X229743000Y-110490000D03*
G04 #@! TO.P,U17,1*
G04 #@! TO.N,Net-(U17-Pad1)*
X243205000Y-110490000D03*
X243205000Y-107061000D03*
G04 #@! TD*
G04 #@! TO.P,U18,1*
G04 #@! TO.N,Net-(U18-Pad1)*
X243205000Y-131191000D03*
X243205000Y-134620000D03*
G04 #@! TO.P,U18,2*
G04 #@! TO.N,PVDD*
X229743000Y-134620000D03*
X229743000Y-131191000D03*
G04 #@! TD*
D31*
G04 #@! TO.P,U23,1*
G04 #@! TO.N,GND*
X91600000Y-109855000D03*
G04 #@! TO.P,U23,2*
G04 #@! TO.N,N/C*
X91600000Y-108585000D03*
G04 #@! TO.P,U23,3*
X91600000Y-107315000D03*
G04 #@! TO.P,U23,4*
G04 #@! TO.N,MM_CTL*
X91600000Y-106045000D03*
G04 #@! TO.P,U23,5*
G04 #@! TO.N,Net-(Q11-Pad1)*
X86200000Y-106045000D03*
G04 #@! TO.P,U23,6*
G04 #@! TO.N,Net-(C39-Pad1)*
X86200000Y-107315000D03*
G04 #@! TO.P,U23,7*
G04 #@! TO.N,N/C*
X86200000Y-108585000D03*
G04 #@! TO.P,U23,8*
G04 #@! TO.N,Net-(C39-Pad1)*
X86200000Y-109855000D03*
G04 #@! TD*
G04 #@! TO.P,U24,8*
G04 #@! TO.N,Net-(C38-Pad1)*
X86200000Y-126365000D03*
G04 #@! TO.P,U24,7*
G04 #@! TO.N,N/C*
X86200000Y-125095000D03*
G04 #@! TO.P,U24,6*
G04 #@! TO.N,Net-(C38-Pad1)*
X86200000Y-123825000D03*
G04 #@! TO.P,U24,5*
G04 #@! TO.N,Net-(Q10-Pad1)*
X86200000Y-122555000D03*
G04 #@! TO.P,U24,4*
G04 #@! TO.N,BM_CTL*
X91600000Y-122555000D03*
G04 #@! TO.P,U24,3*
G04 #@! TO.N,N/C*
X91600000Y-123825000D03*
G04 #@! TO.P,U24,2*
X91600000Y-125095000D03*
G04 #@! TO.P,U24,1*
G04 #@! TO.N,GND*
X91600000Y-126365000D03*
G04 #@! TD*
G04 #@! TO.P,U25,8*
G04 #@! TO.N,Net-(C40-Pad1)*
X86200000Y-92710000D03*
G04 #@! TO.P,U25,7*
G04 #@! TO.N,N/C*
X86200000Y-91440000D03*
G04 #@! TO.P,U25,6*
G04 #@! TO.N,Net-(C40-Pad1)*
X86200000Y-90170000D03*
G04 #@! TO.P,U25,5*
G04 #@! TO.N,Net-(Q13-Pad1)*
X86200000Y-88900000D03*
G04 #@! TO.P,U25,4*
G04 #@! TO.N,FM_CTL*
X91600000Y-88900000D03*
G04 #@! TO.P,U25,3*
G04 #@! TO.N,N/C*
X91600000Y-90170000D03*
G04 #@! TO.P,U25,2*
X91600000Y-91440000D03*
G04 #@! TO.P,U25,1*
G04 #@! TO.N,GND*
X91600000Y-92710000D03*
G04 #@! TD*
G04 #@! TO.P,U26,8*
G04 #@! TO.N,Net-(C41-Pad1)*
X86200000Y-74930000D03*
G04 #@! TO.P,U26,7*
G04 #@! TO.N,N/C*
X86200000Y-73660000D03*
G04 #@! TO.P,U26,6*
G04 #@! TO.N,Net-(C41-Pad1)*
X86200000Y-72390000D03*
G04 #@! TO.P,U26,5*
G04 #@! TO.N,Net-(Q12-Pad1)*
X86200000Y-71120000D03*
G04 #@! TO.P,U26,4*
G04 #@! TO.N,EM_CTL*
X91600000Y-71120000D03*
G04 #@! TO.P,U26,3*
G04 #@! TO.N,N/C*
X91600000Y-72390000D03*
G04 #@! TO.P,U26,2*
X91600000Y-73660000D03*
G04 #@! TO.P,U26,1*
G04 #@! TO.N,GND*
X91600000Y-74930000D03*
G04 #@! TD*
D30*
G04 #@! TO.P,U27,1*
G04 #@! TO.N,Net-(U27-Pad1)*
X108585000Y-132969000D03*
X108585000Y-129540000D03*
G04 #@! TO.P,U27,2*
G04 #@! TO.N,PVDD*
X122047000Y-129540000D03*
X122047000Y-132969000D03*
G04 #@! TD*
G04 #@! TO.P,U28,2*
G04 #@! TO.N,PVDD*
X122047000Y-100584000D03*
X122047000Y-97155000D03*
G04 #@! TO.P,U28,1*
G04 #@! TO.N,Net-(U28-Pad1)*
X108585000Y-97155000D03*
X108585000Y-100584000D03*
G04 #@! TD*
G04 #@! TO.P,U29,2*
G04 #@! TO.N,PVDD*
X122047000Y-117094000D03*
X122047000Y-113665000D03*
G04 #@! TO.P,U29,1*
G04 #@! TO.N,Net-(U29-Pad1)*
X108585000Y-113665000D03*
X108585000Y-117094000D03*
G04 #@! TD*
G04 #@! TO.P,U30,2*
G04 #@! TO.N,PVDD*
X122047000Y-84074000D03*
X122047000Y-80645000D03*
G04 #@! TO.P,U30,1*
G04 #@! TO.N,Net-(U30-Pad1)*
X108585000Y-80645000D03*
X108585000Y-84074000D03*
G04 #@! TD*
D32*
G04 #@! TO.P,U7,8*
G04 #@! TO.N,+3.3VA*
X171450000Y-20795000D03*
G04 #@! TO.P,U7,7*
G04 #@! TO.N,COM_IMEAS*
X172720000Y-20795000D03*
G04 #@! TO.P,U7,6*
G04 #@! TO.N,Net-(C20-Pad1)*
X173990000Y-20795000D03*
G04 #@! TO.P,U7,5*
G04 #@! TO.N,GND*
X175260000Y-20795000D03*
G04 #@! TO.P,U7,4*
G04 #@! TO.N,Net-(Conn2-Pad2)*
X175260000Y-26195000D03*
G04 #@! TO.P,U7,3*
X173990000Y-26195000D03*
G04 #@! TO.P,U7,2*
G04 #@! TO.N,Net-(Q4-Pad3)*
X172720000Y-26195000D03*
G04 #@! TO.P,U7,1*
X171450000Y-26195000D03*
G04 #@! TD*
G04 #@! TO.P,U8,8*
G04 #@! TO.N,+3.3VA*
X256540000Y-22065000D03*
G04 #@! TO.P,U8,7*
G04 #@! TO.N,ACT_IMEAS*
X257810000Y-22065000D03*
G04 #@! TO.P,U8,6*
G04 #@! TO.N,Net-(C23-Pad1)*
X259080000Y-22065000D03*
G04 #@! TO.P,U8,5*
G04 #@! TO.N,GND*
X260350000Y-22065000D03*
G04 #@! TO.P,U8,4*
G04 #@! TO.N,Net-(Conn1-Pad2)*
X260350000Y-27465000D03*
G04 #@! TO.P,U8,3*
X259080000Y-27465000D03*
G04 #@! TO.P,U8,2*
G04 #@! TO.N,Net-(C14-Pad1)*
X257810000Y-27465000D03*
G04 #@! TO.P,U8,1*
X256540000Y-27465000D03*
G04 #@! TD*
G04 #@! TO.P,U9,8*
G04 #@! TO.N,+3.3VA*
X215265000Y-20160000D03*
G04 #@! TO.P,U9,7*
G04 #@! TO.N,LOGIC_IMEAS*
X216535000Y-20160000D03*
G04 #@! TO.P,U9,6*
G04 #@! TO.N,Net-(C22-Pad1)*
X217805000Y-20160000D03*
G04 #@! TO.P,U9,5*
G04 #@! TO.N,GND*
X219075000Y-20160000D03*
G04 #@! TO.P,U9,4*
G04 #@! TO.N,Net-(Conn3-Pad2)*
X219075000Y-25560000D03*
G04 #@! TO.P,U9,3*
X217805000Y-25560000D03*
G04 #@! TO.P,U9,2*
G04 #@! TO.N,Net-(Q5-Pad3)*
X216535000Y-25560000D03*
G04 #@! TO.P,U9,1*
X215265000Y-25560000D03*
G04 #@! TD*
G04 #@! TO.P,U19,8*
G04 #@! TO.N,+3.3VA*
X249555000Y-77945000D03*
G04 #@! TO.P,U19,7*
G04 #@! TO.N,GE_IMEAS*
X250825000Y-77945000D03*
G04 #@! TO.P,U19,6*
G04 #@! TO.N,Net-(C30-Pad2)*
X252095000Y-77945000D03*
G04 #@! TO.P,U19,5*
G04 #@! TO.N,GND*
X253365000Y-77945000D03*
G04 #@! TO.P,U19,4*
G04 #@! TO.N,Net-(C27-Pad1)*
X253365000Y-83345000D03*
G04 #@! TO.P,U19,3*
X252095000Y-83345000D03*
G04 #@! TO.P,U19,2*
G04 #@! TO.N,Net-(U15-Pad1)*
X250825000Y-83345000D03*
G04 #@! TO.P,U19,1*
X249555000Y-83345000D03*
G04 #@! TD*
G04 #@! TO.P,U21,1*
G04 #@! TO.N,Net-(U17-Pad1)*
X248920000Y-108110000D03*
G04 #@! TO.P,U21,2*
X250190000Y-108110000D03*
G04 #@! TO.P,U21,3*
G04 #@! TO.N,Net-(C28-Pad1)*
X251460000Y-108110000D03*
G04 #@! TO.P,U21,4*
X252730000Y-108110000D03*
G04 #@! TO.P,U21,5*
G04 #@! TO.N,GND*
X252730000Y-102710000D03*
G04 #@! TO.P,U21,6*
G04 #@! TO.N,Net-(C36-Pad2)*
X251460000Y-102710000D03*
G04 #@! TO.P,U21,7*
G04 #@! TO.N,ROCKET_IMEAS*
X250190000Y-102710000D03*
G04 #@! TO.P,U21,8*
G04 #@! TO.N,+3.3VA*
X248920000Y-102710000D03*
G04 #@! TD*
G04 #@! TO.P,U22,1*
G04 #@! TO.N,Net-(U18-Pad1)*
X248920000Y-132875000D03*
G04 #@! TO.P,U22,2*
X250190000Y-132875000D03*
G04 #@! TO.P,U22,3*
G04 #@! TO.N,Net-(C29-Pad1)*
X251460000Y-132875000D03*
G04 #@! TO.P,U22,4*
X252730000Y-132875000D03*
G04 #@! TO.P,U22,5*
G04 #@! TO.N,GND*
X252730000Y-127475000D03*
G04 #@! TO.P,U22,6*
G04 #@! TO.N,Net-(C33-Pad2)*
X251460000Y-127475000D03*
G04 #@! TO.P,U22,7*
G04 #@! TO.N,AUX_IMEAS*
X250190000Y-127475000D03*
G04 #@! TO.P,U22,8*
G04 #@! TO.N,+3.3VA*
X248920000Y-127475000D03*
G04 #@! TD*
G04 #@! TO.P,U31,8*
G04 #@! TO.N,+3.3VA*
X99060000Y-134780000D03*
G04 #@! TO.P,U31,7*
G04 #@! TO.N,BM_IMEAS*
X97790000Y-134780000D03*
G04 #@! TO.P,U31,6*
G04 #@! TO.N,Net-(C44-Pad2)*
X96520000Y-134780000D03*
G04 #@! TO.P,U31,5*
G04 #@! TO.N,GND*
X95250000Y-134780000D03*
G04 #@! TO.P,U31,4*
G04 #@! TO.N,Net-(C38-Pad1)*
X95250000Y-129380000D03*
G04 #@! TO.P,U31,3*
X96520000Y-129380000D03*
G04 #@! TO.P,U31,2*
G04 #@! TO.N,Net-(U27-Pad1)*
X97790000Y-129380000D03*
G04 #@! TO.P,U31,1*
X99060000Y-129380000D03*
G04 #@! TD*
G04 #@! TO.P,U32,1*
G04 #@! TO.N,Net-(U29-Pad1)*
X98806000Y-113378000D03*
G04 #@! TO.P,U32,2*
X97536000Y-113378000D03*
G04 #@! TO.P,U32,3*
G04 #@! TO.N,Net-(C39-Pad1)*
X96266000Y-113378000D03*
G04 #@! TO.P,U32,4*
X94996000Y-113378000D03*
G04 #@! TO.P,U32,5*
G04 #@! TO.N,GND*
X94996000Y-118778000D03*
G04 #@! TO.P,U32,6*
G04 #@! TO.N,Net-(C42-Pad2)*
X96266000Y-118778000D03*
G04 #@! TO.P,U32,7*
G04 #@! TO.N,MM_IMEAS*
X97536000Y-118778000D03*
G04 #@! TO.P,U32,8*
G04 #@! TO.N,+3.3VA*
X98806000Y-118778000D03*
G04 #@! TD*
G04 #@! TO.P,U33,1*
G04 #@! TO.N,Net-(U30-Pad1)*
X98552000Y-79850000D03*
G04 #@! TO.P,U33,2*
X97282000Y-79850000D03*
G04 #@! TO.P,U33,3*
G04 #@! TO.N,Net-(C41-Pad1)*
X96012000Y-79850000D03*
G04 #@! TO.P,U33,4*
X94742000Y-79850000D03*
G04 #@! TO.P,U33,5*
G04 #@! TO.N,GND*
X94742000Y-85250000D03*
G04 #@! TO.P,U33,6*
G04 #@! TO.N,Net-(C45-Pad2)*
X96012000Y-85250000D03*
G04 #@! TO.P,U33,7*
G04 #@! TO.N,EM_IMEAS*
X97282000Y-85250000D03*
G04 #@! TO.P,U33,8*
G04 #@! TO.N,+3.3VA*
X98552000Y-85250000D03*
G04 #@! TD*
G04 #@! TO.P,U34,8*
G04 #@! TO.N,+3.3VA*
X98679000Y-101760000D03*
G04 #@! TO.P,U34,7*
G04 #@! TO.N,FM_IMEAS*
X97409000Y-101760000D03*
G04 #@! TO.P,U34,6*
G04 #@! TO.N,Net-(C46-Pad2)*
X96139000Y-101760000D03*
G04 #@! TO.P,U34,5*
G04 #@! TO.N,GND*
X94869000Y-101760000D03*
G04 #@! TO.P,U34,4*
G04 #@! TO.N,Net-(C40-Pad1)*
X94869000Y-96360000D03*
G04 #@! TO.P,U34,3*
X96139000Y-96360000D03*
G04 #@! TO.P,U34,2*
G04 #@! TO.N,Net-(U28-Pad1)*
X97409000Y-96360000D03*
G04 #@! TO.P,U34,1*
X98679000Y-96360000D03*
G04 #@! TD*
D33*
G04 #@! TO.P,Q4,2*
G04 #@! TO.N,Net-(Q4-Pad2)*
X163600000Y-25780000D03*
X160250000Y-28830000D03*
X163600000Y-28830000D03*
X160250000Y-25780000D03*
D34*
X161925000Y-27305000D03*
D35*
G04 #@! TO.P,Q4,3*
G04 #@! TO.N,Net-(Q4-Pad3)*
X168225000Y-25025000D03*
G04 #@! TO.P,Q4,1*
G04 #@! TO.N,Net-(Q4-Pad1)*
X168225000Y-29585000D03*
G04 #@! TD*
G04 #@! TO.P,Q5,1*
G04 #@! TO.N,Net-(Q5-Pad1)*
X212040000Y-28315000D03*
G04 #@! TO.P,Q5,3*
G04 #@! TO.N,Net-(Q5-Pad3)*
X212040000Y-23755000D03*
D34*
G04 #@! TO.P,Q5,2*
G04 #@! TO.N,Net-(Q5-Pad2)*
X205740000Y-26035000D03*
D33*
X204065000Y-24510000D03*
X207415000Y-27560000D03*
X204065000Y-27560000D03*
X207415000Y-24510000D03*
G04 #@! TD*
D21*
G04 #@! TO.P,Conn1,2*
G04 #@! TO.N,Net-(Conn1-Pad2)*
X270992000Y-25312000D03*
G04 #@! TO.P,Conn1,1*
G04 #@! TO.N,GND*
X270992000Y-17412000D03*
G04 #@! TD*
G04 #@! TO.P,Conn2,1*
G04 #@! TO.N,GND*
X185394000Y-17412000D03*
G04 #@! TO.P,Conn2,2*
G04 #@! TO.N,Net-(Conn2-Pad2)*
X185394000Y-25312000D03*
G04 #@! TD*
G04 #@! TO.P,Conn3,2*
G04 #@! TO.N,Net-(Conn3-Pad2)*
X228574000Y-25312000D03*
G04 #@! TO.P,Conn3,1*
G04 #@! TO.N,GND*
X228574000Y-17412000D03*
G04 #@! TD*
D36*
G04 #@! TO.P,C6,2*
G04 #@! TO.N,GND*
X148900000Y-45720000D03*
D37*
G04 #@! TO.P,C6,1*
G04 #@! TO.N,Net-(C10-Pad1)*
X152400000Y-45720000D03*
G04 #@! TD*
G04 #@! TO.P,C8,1*
G04 #@! TO.N,Net-(C10-Pad1)*
X193040000Y-34290000D03*
D36*
G04 #@! TO.P,C8,2*
G04 #@! TO.N,GND*
X196540000Y-34290000D03*
G04 #@! TD*
D37*
G04 #@! TO.P,C9,1*
G04 #@! TO.N,Net-(C10-Pad1)*
X154615000Y-34925000D03*
D36*
G04 #@! TO.P,C9,2*
G04 #@! TO.N,GND*
X158115000Y-34925000D03*
G04 #@! TD*
G04 #@! TO.P,C10,2*
G04 #@! TO.N,GND*
X196540000Y-45720000D03*
D37*
G04 #@! TO.P,C10,1*
G04 #@! TO.N,Net-(C10-Pad1)*
X193040000Y-45720000D03*
G04 #@! TD*
G04 #@! TO.P,C11,1*
G04 #@! TO.N,Net-(C11-Pad1)*
X236220000Y-36830000D03*
D36*
G04 #@! TO.P,C11,2*
G04 #@! TO.N,GND*
X239720000Y-36830000D03*
G04 #@! TD*
G04 #@! TO.P,C16,2*
G04 #@! TO.N,GND*
X246690000Y-28575000D03*
D37*
G04 #@! TO.P,C16,1*
G04 #@! TO.N,Net-(C14-Pad1)*
X250190000Y-28575000D03*
G04 #@! TD*
D38*
G04 #@! TO.P,PVDD,1*
G04 #@! TO.N,PVDD*
X146050000Y-125095000D03*
G04 #@! TD*
G04 #@! TO.P,REF\002A\002A,1*
G04 #@! TO.N,GND*
X209550000Y-125730000D03*
G04 #@! TD*
D39*
G04 #@! TO.N,Net-(3V3FAN1-Pad1)*
X60960000Y-52705000D03*
G04 #@! TO.N,Net-(CONV1-Pad2)*
X132715000Y-73660000D03*
G04 #@! TO.N,Net-(CONV2-Pad2)*
X132715000Y-69850000D03*
G04 #@! TO.N,GND*
X254635000Y-77945000D03*
X255270000Y-71755000D03*
X248098000Y-72390000D03*
X247463000Y-95885000D03*
X254000000Y-96520000D03*
X254000000Y-102710000D03*
X246385000Y-122560000D03*
X253365000Y-125095000D03*
X253226999Y-119668999D03*
X212852000Y-15494000D03*
X220048000Y-15410000D03*
X256540000Y-14605000D03*
X262890000Y-14605000D03*
X172720000Y-14732000D03*
X179070000Y-35560000D03*
X198120000Y-29210000D03*
X220980000Y-34290000D03*
X252095000Y-33655000D03*
X178435000Y-71755000D03*
X178435000Y-74295000D03*
X178435000Y-76835000D03*
X147320000Y-27940000D03*
X116205000Y-68580000D03*
X115570000Y-71882000D03*
X121905000Y-74310000D03*
X127635000Y-71755000D03*
X49530000Y-87376000D03*
X49784000Y-103632000D03*
X93980000Y-74930000D03*
X92075000Y-82710000D03*
X93980000Y-92710000D03*
X97282000Y-94107000D03*
X97155000Y-109855000D03*
X92710000Y-118778000D03*
X93980000Y-126365000D03*
X97536000Y-126365000D03*
X91440000Y-134780000D03*
X106680000Y-137160000D03*
X88580000Y-137160000D03*
X94615000Y-109855000D03*
X66100000Y-48955000D03*
X91694000Y-101760000D03*
X288290000Y-104775000D03*
X288036000Y-78232000D03*
X289560000Y-129540000D03*
X47752000Y-121412000D03*
X48260000Y-136906000D03*
G04 #@! TO.N,+3.3VA*
X247015000Y-102870000D03*
X247015000Y-78105000D03*
X245585000Y-127475000D03*
X254000000Y-21590000D03*
X170180000Y-13335000D03*
X210820000Y-13335000D03*
X75311000Y-51816000D03*
X101600000Y-134620000D03*
X101600000Y-118745000D03*
X101600000Y-102235000D03*
X99958200Y-89662000D03*
X100330000Y-85250000D03*
X101600000Y-85090000D03*
G04 #@! TO.N,FAN_CTL*
X85090000Y-48260000D03*
X131445000Y-48260000D03*
X69850000Y-48260000D03*
G04 #@! TO.N,AUX_CTL*
X52070000Y-42545000D03*
X252095000Y-120650000D03*
G04 #@! TO.N,LOGIC_IMEAS*
X123190000Y-36830000D03*
X212090000Y-21844000D03*
G04 #@! TO.N,COM_IMEAS*
X125730000Y-36195000D03*
X177165000Y-22860000D03*
G04 #@! TO.N,ACT_IMEAS*
X120650000Y-37465000D03*
X254000000Y-24765000D03*
G04 #@! TO.N,LOGIC_CTL*
X198755000Y-36195000D03*
X187960000Y-36195000D03*
X179705000Y-44450000D03*
G04 #@! TO.N,COM_CTL*
X177800000Y-44450000D03*
G04 #@! TO.N,AUX_IMEAS*
X249601000Y-120696000D03*
X58420000Y-43815000D03*
G04 #@! TO.N,MM_IMEAS*
X53340000Y-43815000D03*
X97536000Y-122555000D03*
G04 #@! TO.N,BM_IMEAS*
X55880000Y-43815000D03*
X97790000Y-137668000D03*
G04 #@! TO.N,GE_IMEAS*
X62230000Y-42545000D03*
X250825000Y-71120000D03*
G04 #@! TO.N,FM_IMEAS*
X97409000Y-104521000D03*
G04 #@! TO.N,GE_CTL*
X254000000Y-75565000D03*
X57150000Y-40005000D03*
G04 #@! TO.N,ROCKET_CTL*
X54610000Y-41275000D03*
X253365000Y-100330000D03*
G04 #@! TO.N,BM_CTL*
X60960000Y-59944000D03*
X93980000Y-122555000D03*
X103378000Y-59944000D03*
G04 #@! TO.N,MM_CTL*
X60960000Y-58420000D03*
X93980000Y-106045000D03*
X100076000Y-58420000D03*
G04 #@! TO.N,FM_CTL*
X93980000Y-88900000D03*
G04 #@! TO.N,EM_IMEAS*
X111760000Y-76708000D03*
G04 #@! TO.N,ROCKET_IMEAS*
X250190000Y-92710000D03*
X60960000Y-42545000D03*
G04 #@! TD*
D40*
G04 #@! TO.N,Net-(3V3FAN1-Pad1)*
X63440000Y-52705000D02*
X61750501Y-52705000D01*
X61750501Y-52705000D02*
X60960000Y-52705000D01*
G04 #@! TO.N,Net-(CONV1-Pad2)*
X127556000Y-73660000D02*
X132715000Y-73660000D01*
X126425000Y-73660000D02*
X127556000Y-73660000D01*
G04 #@! TO.N,Net-(CONV2-Pad2)*
X126425000Y-69850000D02*
X132715000Y-69850000D01*
D41*
G04 #@! TO.N,Net-(Q4-Pad2)*
X169118000Y-35560000D02*
X168910000Y-35352000D01*
X170655000Y-35560000D02*
X169118000Y-35560000D01*
X168910000Y-35352000D02*
X168910000Y-33655000D01*
X168910000Y-33655000D02*
X169545000Y-33020000D01*
X169545000Y-33020000D02*
X170655000Y-33020000D01*
X162225000Y-27305000D02*
X161925000Y-27305000D01*
X168910000Y-33655000D02*
X168575000Y-33655000D01*
X168575000Y-33655000D02*
X162225000Y-27305000D01*
G04 #@! TO.N,Net-(Q4-Pad1)*
X168225000Y-29585000D02*
X168225000Y-31065000D01*
X168910000Y-31750000D02*
X170655000Y-31750000D01*
X168225000Y-31065000D02*
X168910000Y-31750000D01*
G04 #@! TO.N,Net-(Q5-Pad1)*
X212565000Y-28840000D02*
X212040000Y-28315000D01*
X212565000Y-30480000D02*
X212565000Y-28840000D01*
G04 #@! TO.N,Net-(Q5-Pad2)*
X211028000Y-34290000D02*
X210185000Y-33447000D01*
X212565000Y-34290000D02*
X211028000Y-34290000D01*
X210185000Y-33447000D02*
X210185000Y-32385000D01*
X210820000Y-31750000D02*
X212565000Y-31750000D01*
X210185000Y-32385000D02*
X210820000Y-31750000D01*
X207793000Y-31750000D02*
X210820000Y-31750000D01*
X205740000Y-29697000D02*
X207793000Y-31750000D01*
X205740000Y-26035000D02*
X205740000Y-29697000D01*
G04 #@! TO.N,GND*
X253050000Y-71755000D02*
X252095000Y-72710000D01*
X257650000Y-71755000D02*
X255270000Y-71755000D01*
X248418000Y-72710000D02*
X248098000Y-72390000D01*
X249555000Y-72710000D02*
X248418000Y-72710000D01*
X255750000Y-77945000D02*
X255905000Y-77790000D01*
X253365000Y-77945000D02*
X254635000Y-77945000D01*
X254635000Y-77945000D02*
X255750000Y-77945000D01*
X255270000Y-71755000D02*
X253050000Y-71755000D01*
X255115000Y-102710000D02*
X255270000Y-102555000D01*
X252730000Y-102710000D02*
X254000000Y-102710000D01*
X251775000Y-96520000D02*
X251460000Y-96205000D01*
X255745000Y-96520000D02*
X254000000Y-96520000D01*
X247783000Y-96205000D02*
X247463000Y-95885000D01*
X248920000Y-96205000D02*
X247783000Y-96205000D01*
X254000000Y-96520000D02*
X251775000Y-96520000D01*
X254000000Y-102710000D02*
X255115000Y-102710000D01*
X254480000Y-127475000D02*
X254635000Y-127320000D01*
X252730000Y-127475000D02*
X254480000Y-127475000D01*
X248285000Y-122560000D02*
X246385000Y-122560000D01*
X250825000Y-122555000D02*
X250825000Y-120015000D01*
X254208000Y-120650000D02*
X255745000Y-120650000D01*
X251171001Y-119668999D02*
X253226999Y-119668999D01*
X250825000Y-120015000D02*
X251171001Y-119668999D01*
X253226999Y-119668999D02*
X254208000Y-120650000D01*
X256540000Y-16830000D02*
X259080000Y-16830000D01*
X256540000Y-16830000D02*
X256540000Y-14605000D01*
X259400000Y-16830000D02*
X259080000Y-16830000D01*
X260350000Y-22065000D02*
X260350000Y-17780000D01*
X260350000Y-17780000D02*
X259400000Y-16830000D01*
X174310000Y-16195000D02*
X173990000Y-16195000D01*
X176055000Y-35560000D02*
X179070000Y-35560000D01*
X195260000Y-29210000D02*
X198120000Y-29210000D01*
X217965000Y-34290000D02*
X220980000Y-34290000D01*
X253365000Y-32385000D02*
X252095000Y-33655000D01*
X178435000Y-74295000D02*
X180025000Y-74295000D01*
X176845000Y-74295000D02*
X178435000Y-74295000D01*
X178435000Y-76835000D02*
X180025000Y-76835000D01*
X176845000Y-76835000D02*
X178435000Y-76835000D01*
X178435000Y-74295000D02*
X178435000Y-71755000D01*
X176845000Y-71755000D02*
X178435000Y-71755000D01*
X178435000Y-71755000D02*
X180025000Y-71755000D01*
X178435000Y-71755000D02*
X178435000Y-67310000D01*
X178435000Y-76835000D02*
X178435000Y-74295000D01*
X149230000Y-27940000D02*
X147320000Y-27940000D01*
X221488000Y-15410000D02*
X220048000Y-15410000D01*
X175260000Y-20795000D02*
X175260000Y-16195000D01*
X173990000Y-16195000D02*
X175260000Y-16195000D01*
X175260000Y-16195000D02*
X176845000Y-16195000D01*
X118915000Y-68580000D02*
X116205000Y-68580000D01*
X123765000Y-74310000D02*
X121905000Y-74310000D01*
X123765000Y-70500000D02*
X123840000Y-70500000D01*
X123840000Y-70500000D02*
X125095000Y-71755000D01*
X125095000Y-71755000D02*
X127635000Y-71755000D01*
X212852000Y-15494000D02*
X215265000Y-15494000D01*
X215265000Y-15494000D02*
X217805000Y-15494000D01*
X219075000Y-16764000D02*
X219075000Y-20160000D01*
X217805000Y-15494000D02*
X219075000Y-16764000D01*
X262890000Y-16680000D02*
X262890000Y-14605000D01*
X176865000Y-16215000D02*
X178562000Y-16215000D01*
X176845000Y-16195000D02*
X176865000Y-16215000D01*
X172720000Y-16195000D02*
X172720000Y-14732000D01*
X172720000Y-16195000D02*
X173990000Y-16195000D01*
X171450000Y-16195000D02*
X172720000Y-16195000D01*
X253685000Y-32065000D02*
X252095000Y-33655000D01*
X254000000Y-32065000D02*
X253685000Y-32065000D01*
X252730000Y-125730000D02*
X253365000Y-125095000D01*
X252730000Y-127475000D02*
X252730000Y-125730000D01*
X50800000Y-87376000D02*
X49530000Y-87376000D01*
X91600000Y-74930000D02*
X93980000Y-74930000D01*
X93345000Y-74930000D02*
X93980000Y-74930000D01*
X91600000Y-92710000D02*
X93980000Y-92710000D01*
X90805000Y-99375000D02*
X90805000Y-101600000D01*
X90965000Y-101760000D02*
X91694000Y-101760000D01*
X90805000Y-101600000D02*
X90965000Y-101760000D01*
X97155000Y-107630000D02*
X97155000Y-109855000D01*
X97155000Y-107630000D02*
X98679000Y-107630000D01*
X96139000Y-107630000D02*
X97155000Y-107630000D01*
X91440000Y-117155000D02*
X91440000Y-118517000D01*
X91701000Y-118778000D02*
X91440000Y-118517000D01*
X94996000Y-118778000D02*
X92710000Y-118778000D01*
X97790000Y-126365000D02*
X98745000Y-126365000D01*
X96266000Y-126365000D02*
X97790000Y-126365000D01*
X91600000Y-126365000D02*
X93980000Y-126365000D01*
X90170000Y-132710000D02*
X90170000Y-134620000D01*
X90330000Y-134780000D02*
X90170000Y-134620000D01*
X95250000Y-134780000D02*
X91440000Y-134780000D01*
X106680000Y-137160000D02*
X104770000Y-137160000D01*
X88580000Y-137160000D02*
X90805000Y-137160000D01*
X93980000Y-74930000D02*
X93345000Y-74930000D01*
X92710000Y-118778000D02*
X91701000Y-118778000D01*
X91440000Y-134780000D02*
X90330000Y-134780000D01*
X91600000Y-109855000D02*
X94615000Y-109855000D01*
X66100000Y-52055000D02*
X66100000Y-48955000D01*
X90650000Y-82710000D02*
X90170000Y-82230000D01*
X92075000Y-82710000D02*
X90650000Y-82710000D01*
X94615000Y-85250000D02*
X92075000Y-82710000D01*
X94742000Y-85250000D02*
X94615000Y-85250000D01*
X98536800Y-92197000D02*
X98552000Y-92212200D01*
X97282000Y-92197000D02*
X97282000Y-94107000D01*
X97282000Y-92197000D02*
X98536800Y-92197000D01*
X96012000Y-92197000D02*
X97282000Y-92197000D01*
X116078000Y-72390000D02*
X115570000Y-71882000D01*
X119085000Y-72390000D02*
X116078000Y-72390000D01*
X91694000Y-101760000D02*
X94869000Y-101760000D01*
X285580000Y-104775000D02*
X286942000Y-104775000D01*
X286942000Y-104775000D02*
X288290000Y-104775000D01*
X288290000Y-104775000D02*
X288290000Y-104775000D01*
X286088000Y-78232000D02*
X288036000Y-78232000D01*
X288036000Y-78232000D02*
X288036000Y-78232000D01*
X287188000Y-129540000D02*
X289560000Y-129540000D01*
X289560000Y-129540000D02*
X289560000Y-129540000D01*
X52240000Y-103632000D02*
X49784000Y-103632000D01*
X51224000Y-121412000D02*
X47752000Y-121412000D01*
X47752000Y-121412000D02*
X47752000Y-121412000D01*
X51224000Y-136906000D02*
X49495001Y-136906000D01*
X49495001Y-136906000D02*
X48260000Y-136906000D01*
X48260000Y-136906000D02*
X48260000Y-136906000D01*
D40*
G04 #@! TO.N,Net-(C20-Pad1)*
X173990000Y-20795000D02*
X173990000Y-18095000D01*
G04 #@! TO.N,Net-(C22-Pad1)*
X217805000Y-17394000D02*
X217805000Y-20160000D01*
G04 #@! TO.N,Net-(C23-Pad1)*
X259080000Y-22065000D02*
X259080000Y-18730000D01*
D41*
G04 #@! TO.N,Net-(C27-Pad1)*
X262148000Y-71755000D02*
X263685000Y-71755000D01*
X261620000Y-71755000D02*
X262148000Y-71755000D01*
X260985000Y-72390000D02*
X261620000Y-71755000D01*
X263050000Y-74295000D02*
X260985000Y-74295000D01*
X260985000Y-74295000D02*
X260985000Y-72390000D01*
X260985000Y-78620000D02*
X259830000Y-79775000D01*
X260985000Y-74295000D02*
X260985000Y-78620000D01*
G04 #@! TO.N,Net-(C28-Pad1)*
X259608000Y-99060000D02*
X261145000Y-99060000D01*
X259195000Y-99473000D02*
X259608000Y-99060000D01*
X259195000Y-104305000D02*
X259195000Y-99473000D01*
X259608000Y-96520000D02*
X259080000Y-97048000D01*
X261145000Y-96520000D02*
X259608000Y-96520000D01*
X259080000Y-99358000D02*
X259195000Y-99473000D01*
X259080000Y-97048000D02*
X259080000Y-99358000D01*
G04 #@! TO.N,Net-(C29-Pad1)*
X259080000Y-123190000D02*
X261145000Y-123190000D01*
X259608000Y-120650000D02*
X259080000Y-121178000D01*
X261145000Y-120650000D02*
X259608000Y-120650000D01*
X259080000Y-121178000D02*
X259080000Y-123190000D01*
X259080000Y-130175000D02*
X260985000Y-132080000D01*
X259080000Y-123190000D02*
X259080000Y-130175000D01*
D40*
G04 #@! TO.N,Net-(C30-Pad2)*
X252095000Y-77945000D02*
X252095000Y-74610000D01*
G04 #@! TO.N,Net-(C33-Pad2)*
X251460000Y-125090000D02*
X250825000Y-124455000D01*
X251460000Y-127475000D02*
X251460000Y-125090000D01*
G04 #@! TO.N,Net-(C36-Pad2)*
X251460000Y-102710000D02*
X251460000Y-98105000D01*
D41*
G04 #@! TO.N,Net-(C38-Pad1)*
X79845000Y-128643000D02*
X79845000Y-130175000D01*
X86200000Y-123825000D02*
X84663000Y-123825000D01*
X84663000Y-126365000D02*
X82123000Y-126365000D01*
X86200000Y-126365000D02*
X84663000Y-126365000D01*
X84663000Y-123825000D02*
X82123000Y-126365000D01*
X82123000Y-126365000D02*
X79845000Y-128643000D01*
G04 #@! TO.N,Net-(C39-Pad1)*
X81915000Y-109855000D02*
X76835000Y-114935000D01*
X86200000Y-109855000D02*
X81915000Y-109855000D01*
X82123000Y-109855000D02*
X81915000Y-109855000D01*
X84663000Y-107315000D02*
X86200000Y-107315000D01*
X81915000Y-109855000D02*
X84455000Y-107315000D01*
G04 #@! TO.N,Net-(C40-Pad1)*
X80610000Y-92710000D02*
X76600000Y-96720000D01*
X86200000Y-92710000D02*
X82550000Y-92710000D01*
X82550000Y-92710000D02*
X80610000Y-92710000D01*
X84028000Y-90597000D02*
X81915000Y-92710000D01*
X86200000Y-90170000D02*
X84455000Y-90170000D01*
X84455000Y-90170000D02*
X84028000Y-90597000D01*
G04 #@! TO.N,Net-(C41-Pad1)*
X81395000Y-74930000D02*
X79375000Y-76950000D01*
X82550000Y-74503000D02*
X82550000Y-74930000D01*
X84663000Y-72390000D02*
X82550000Y-74503000D01*
X86200000Y-72390000D02*
X84663000Y-72390000D01*
X86200000Y-74930000D02*
X82550000Y-74930000D01*
X82550000Y-74930000D02*
X81395000Y-74930000D01*
D40*
G04 #@! TO.N,Net-(C42-Pad2)*
X96266000Y-122494000D02*
X96266000Y-118778000D01*
X96266000Y-122494000D02*
X96266000Y-124145000D01*
G04 #@! TO.N,Net-(C44-Pad2)*
X93691000Y-137160000D02*
X92710000Y-137160000D01*
X95296000Y-137160000D02*
X93691000Y-137160000D01*
X96520000Y-135936000D02*
X95296000Y-137160000D01*
X96520000Y-134780000D02*
X96520000Y-135936000D01*
G04 #@! TO.N,Net-(C45-Pad2)*
X96139000Y-90170000D02*
X96012000Y-90297000D01*
X96012000Y-88773000D02*
X96012000Y-85250000D01*
X96012000Y-90297000D02*
X96012000Y-88773000D01*
G04 #@! TO.N,Net-(C46-Pad2)*
X96139000Y-105730000D02*
X96139000Y-101760000D01*
D41*
G04 #@! TO.N,Net-(Conn6-Pad2)*
X276160000Y-104540000D02*
X276395000Y-104775000D01*
G04 #@! TO.N,Net-(Conn8-Pad2)*
X60536000Y-85514000D02*
X60536000Y-87376000D01*
X62865000Y-83185000D02*
X60536000Y-85514000D01*
G04 #@! TO.N,Net-(Conn9-Pad2)*
X60112000Y-102420000D02*
X63500000Y-99032000D01*
X60112000Y-103632000D02*
X60112000Y-102420000D01*
X63500000Y-99032000D02*
X63500000Y-98044000D01*
G04 #@! TO.N,Net-(Conn10-Pad2)*
X59012000Y-120200000D02*
X63500000Y-115712000D01*
X59012000Y-121412000D02*
X59012000Y-120200000D01*
G04 #@! TO.N,Net-(Conn11-Pad2)*
X61728000Y-136906000D02*
X64262000Y-134372000D01*
X60366000Y-136906000D02*
X61728000Y-136906000D01*
X64262000Y-134372000D02*
X64262000Y-133096000D01*
G04 #@! TO.N,Net-(D1-Pad2)*
X262890000Y-22225000D02*
X262890000Y-18880000D01*
G04 #@! TO.N,Net-(D2-Pad2)*
X178562000Y-21590000D02*
X178562000Y-18415000D01*
G04 #@! TO.N,Net-(D3-Pad2)*
X221488000Y-21125000D02*
X221488000Y-17610000D01*
G04 #@! TO.N,Net-(D5-Pad2)*
X277960000Y-129540000D02*
X282110000Y-129540000D01*
X282110000Y-129540000D02*
X284988000Y-129540000D01*
G04 #@! TO.N,Net-(D6-Pad2)*
X283761000Y-78105000D02*
X283888000Y-78232000D01*
X278595000Y-78105000D02*
X283761000Y-78105000D01*
G04 #@! TO.N,Net-(D7-Pad2)*
X278595000Y-104775000D02*
X283380000Y-104775000D01*
G04 #@! TO.N,Net-(D8-Pad2)*
X58166000Y-136906000D02*
X53424000Y-136906000D01*
G04 #@! TO.N,Net-(D9-Pad2)*
X56812000Y-121412000D02*
X53424000Y-121412000D01*
G04 #@! TO.N,Net-(D10-Pad2)*
X57912000Y-103632000D02*
X54440000Y-103632000D01*
G04 #@! TO.N,Net-(D11-Pad2)*
X58336000Y-87376000D02*
X54440000Y-87376000D01*
D40*
G04 #@! TO.N,Net-(Q1-Pad1)*
X123145000Y-72390000D02*
X123765000Y-73010000D01*
X121285000Y-72390000D02*
X123145000Y-72390000D01*
X121285000Y-73221000D02*
X120846000Y-73660000D01*
X121285000Y-72390000D02*
X121285000Y-73221000D01*
X107950000Y-71931000D02*
X107950000Y-70950000D01*
X113030000Y-73025000D02*
X109044000Y-73025000D01*
X109044000Y-73025000D02*
X107950000Y-71931000D01*
X120846000Y-73660000D02*
X115570000Y-73660000D01*
X114935000Y-73025000D02*
X113030000Y-73025000D01*
X115570000Y-73660000D02*
X114935000Y-73025000D01*
G04 #@! TO.N,Net-(Q2-Pad1)*
X117619000Y-70950000D02*
X117475000Y-70950000D01*
X110490000Y-70950000D02*
X117475000Y-70950000D01*
X117475000Y-70950000D02*
X117645000Y-70950000D01*
X121735000Y-69200000D02*
X121115000Y-68580000D01*
X123765000Y-69200000D02*
X121735000Y-69200000D01*
X119576000Y-70950000D02*
X117475000Y-70950000D01*
X121115000Y-69411000D02*
X119576000Y-70950000D01*
X121115000Y-68580000D02*
X121115000Y-69411000D01*
D41*
G04 #@! TO.N,Net-(Q6-Pad1)*
X268343000Y-85090000D02*
X267970000Y-84717000D01*
X271405000Y-85090000D02*
X268343000Y-85090000D01*
X267970000Y-84717000D02*
X267970000Y-76200000D01*
X267970000Y-76200000D02*
X267335000Y-75565000D01*
X263050000Y-75565000D02*
X264160000Y-75565000D01*
X267335000Y-75565000D02*
X264160000Y-75565000D01*
X264160000Y-75565000D02*
X263685000Y-75565000D01*
G04 #@! TO.N,Net-(Q7-Pad1)*
X265430000Y-124460000D02*
X261145000Y-124460000D01*
X266700000Y-125730000D02*
X265430000Y-124460000D01*
X266700000Y-134247000D02*
X266700000Y-125730000D01*
X270135000Y-134620000D02*
X267073000Y-134620000D01*
X267073000Y-134620000D02*
X266700000Y-134247000D01*
G04 #@! TO.N,Net-(Q9-Pad1)*
X263050000Y-100330000D02*
X261145000Y-100330000D01*
X266700000Y-100330000D02*
X263050000Y-100330000D01*
X267335000Y-100965000D02*
X266700000Y-100330000D01*
X267335000Y-109247000D02*
X267335000Y-100965000D01*
X270770000Y-109620000D02*
X267708000Y-109620000D01*
X267708000Y-109620000D02*
X267335000Y-109247000D01*
G04 #@! TO.N,Net-(Q10-Pad1)*
X80505000Y-122555000D02*
X79610000Y-123450000D01*
X86200000Y-122555000D02*
X80505000Y-122555000D01*
G04 #@! TO.N,Net-(Q11-Pad1)*
X79635000Y-106045000D02*
X79375000Y-105785000D01*
X86200000Y-106045000D02*
X79635000Y-106045000D01*
G04 #@! TO.N,Net-(Q12-Pad1)*
X80035000Y-71120000D02*
X79140000Y-70225000D01*
X86200000Y-71120000D02*
X80035000Y-71120000D01*
G04 #@! TO.N,Net-(Q13-Pad1)*
X80470000Y-88900000D02*
X79140000Y-87570000D01*
X86200000Y-88900000D02*
X80470000Y-88900000D01*
D40*
G04 #@! TO.N,+3.3VA*
X249555000Y-77945000D02*
X249555000Y-74610000D01*
X248920000Y-99086000D02*
X248920000Y-102710000D01*
X248920000Y-98105000D02*
X248920000Y-99086000D01*
X248285000Y-126840000D02*
X248920000Y-127475000D01*
X248285000Y-124460000D02*
X248285000Y-126840000D01*
X171450000Y-20795000D02*
X171450000Y-18095000D01*
X256540000Y-22065000D02*
X256540000Y-18730000D01*
D42*
X174945000Y-68260000D02*
X174945000Y-71755000D01*
X175895000Y-67310000D02*
X174945000Y-68260000D01*
X174945000Y-71755000D02*
X174945000Y-74295000D01*
X174945000Y-76835000D02*
X174945000Y-74295000D01*
D40*
X248920000Y-127475000D02*
X246220000Y-127475000D01*
X246220000Y-127475000D02*
X245585000Y-127475000D01*
X254475000Y-22065000D02*
X254000000Y-21590000D01*
X256540000Y-22065000D02*
X254475000Y-22065000D01*
X171450000Y-20795000D02*
X170655000Y-20795000D01*
X170655000Y-20795000D02*
X170180000Y-20320000D01*
X170180000Y-20320000D02*
X170180000Y-13970000D01*
X170180000Y-13970000D02*
X170180000Y-13335000D01*
X247175000Y-77945000D02*
X247015000Y-78105000D01*
X249555000Y-77945000D02*
X247175000Y-77945000D01*
X247175000Y-102710000D02*
X247015000Y-102870000D01*
X248920000Y-102710000D02*
X247175000Y-102710000D01*
X210820000Y-16510000D02*
X210820000Y-13335000D01*
X211704000Y-17394000D02*
X215265000Y-17394000D01*
X210820000Y-16510000D02*
X211704000Y-17394000D01*
X215265000Y-17394000D02*
X215265000Y-20160000D01*
X98552000Y-85250000D02*
X99233000Y-85250000D01*
X98552000Y-85250000D02*
X100330000Y-85250000D01*
X98679000Y-105730000D02*
X98679000Y-101760000D01*
X98806000Y-122555000D02*
X98806000Y-118778000D01*
X101574000Y-137160000D02*
X102555000Y-137160000D01*
X100284000Y-137160000D02*
X101574000Y-137160000D01*
X99060000Y-135936000D02*
X100284000Y-137160000D01*
X99060000Y-134780000D02*
X99060000Y-135936000D01*
X99060000Y-134780000D02*
X101440000Y-134780000D01*
X98806000Y-118778000D02*
X101567000Y-118778000D01*
X101125000Y-101760000D02*
X101600000Y-102235000D01*
X98679000Y-101760000D02*
X101125000Y-101760000D01*
X98806000Y-122555000D02*
X98806000Y-124145000D01*
X98425000Y-85377000D02*
X98552000Y-85250000D01*
X99308000Y-90312200D02*
X99958200Y-89662000D01*
X98552000Y-90312200D02*
X99308000Y-90312200D01*
X100330000Y-85250000D02*
X101440000Y-85250000D01*
X101440000Y-85250000D02*
X101600000Y-85090000D01*
G04 #@! TO.N,FAN_CTL*
X85090000Y-48260000D02*
X130810000Y-48260000D01*
X130810000Y-48260000D02*
X131445000Y-48260000D01*
X69850000Y-48825685D02*
X69850000Y-48260000D01*
X69850000Y-50130000D02*
X69850000Y-48825685D01*
X66625000Y-53355000D02*
X69850000Y-50130000D01*
X66100000Y-53355000D02*
X66625000Y-53355000D01*
G04 #@! TO.N,LOGIC\005CCOM_CTL*
X107950000Y-68750000D02*
X107950000Y-66040000D01*
G04 #@! TO.N,ACT_CTL*
X110490000Y-68750000D02*
X110490000Y-66040000D01*
G04 #@! TO.N,AUX_CTL*
X253365000Y-123190000D02*
X252095000Y-121920000D01*
X252095000Y-121920000D02*
X252095000Y-120650000D01*
X253365000Y-123236000D02*
X253365000Y-123190000D01*
X255745000Y-124460000D02*
X254589000Y-124460000D01*
X254589000Y-124460000D02*
X253365000Y-123236000D01*
X52070000Y-63500000D02*
X52070000Y-56642000D01*
X52070000Y-56642000D02*
X51054000Y-55626000D01*
X51054000Y-55626000D02*
X51054000Y-49276000D01*
X52070000Y-48260000D02*
X52070000Y-42545000D01*
X51054000Y-49276000D02*
X52070000Y-48260000D01*
G04 #@! TO.N,LOGIC_IMEAS*
X123190000Y-35560000D02*
X123190000Y-36830000D01*
X123190000Y-22860000D02*
X123190000Y-35560000D01*
X216428000Y-21316000D02*
X215900000Y-21844000D01*
X215900000Y-21844000D02*
X212090000Y-21844000D01*
X216428000Y-20267000D02*
X216535000Y-20160000D01*
X216428000Y-21316000D02*
X216428000Y-20267000D01*
G04 #@! TO.N,COM_IMEAS*
X125730000Y-35560000D02*
X125730000Y-36195000D01*
X125730000Y-35560000D02*
X125730000Y-22860000D01*
X172720000Y-20795000D02*
X172720000Y-22225000D01*
X172720000Y-22225000D02*
X173355000Y-22860000D01*
X173355000Y-22860000D02*
X177165000Y-22860000D01*
G04 #@! TO.N,ACT_IMEAS*
X120650000Y-37465000D02*
X120650000Y-36195000D01*
X120650000Y-36195000D02*
X120650000Y-22860000D01*
X257810000Y-22065000D02*
X257810000Y-24130000D01*
X257810000Y-24130000D02*
X257175000Y-24765000D01*
X257175000Y-24765000D02*
X254000000Y-24765000D01*
G04 #@! TO.N,LOGIC_CTL*
X199390000Y-36830000D02*
X198755000Y-36195000D01*
X187960000Y-36195000D02*
X187960000Y-42545000D01*
X187960000Y-42545000D02*
X186690000Y-43815000D01*
X180340000Y-43815000D02*
X179705000Y-44450000D01*
X186690000Y-43815000D02*
X180340000Y-43815000D01*
X215265000Y-36195000D02*
X214630000Y-36830000D01*
X215265000Y-31115000D02*
X215265000Y-36195000D01*
X215900000Y-30480000D02*
X215265000Y-31115000D01*
X217965000Y-30480000D02*
X215900000Y-30480000D01*
X214630000Y-36830000D02*
X199390000Y-36830000D01*
G04 #@! TO.N,COM_CTL*
X176055000Y-31750000D02*
X177211000Y-31750000D01*
X177211000Y-31750000D02*
X179705000Y-31750000D01*
X179860501Y-31905501D02*
X179860501Y-42389499D01*
X179705000Y-31750000D02*
X179860501Y-31905501D01*
X179860501Y-42389499D02*
X177800000Y-44450000D01*
G04 #@! TO.N,AUX_IMEAS*
X250190000Y-126319000D02*
X249601000Y-125730000D01*
X250190000Y-127475000D02*
X250190000Y-126319000D01*
X249601000Y-125730000D02*
X249601000Y-120696000D01*
X58420000Y-24130000D02*
X57150000Y-22860000D01*
X58420000Y-42545000D02*
X58420000Y-24130000D01*
X58420000Y-42545000D02*
X58420000Y-43815000D01*
G04 #@! TO.N,MM_IMEAS*
X53340000Y-24130000D02*
X52070000Y-22860000D01*
X53340000Y-42545000D02*
X53340000Y-24130000D01*
X53340000Y-42545000D02*
X53340000Y-43815000D01*
X97536000Y-121158000D02*
X97536000Y-122555000D01*
X97536000Y-118778000D02*
X97536000Y-121158000D01*
G04 #@! TO.N,BM_IMEAS*
X55880000Y-24130000D02*
X54610000Y-22860000D01*
X55880000Y-42545000D02*
X55880000Y-24130000D01*
X55880000Y-42545000D02*
X55880000Y-43815000D01*
X97790000Y-134780000D02*
X97790000Y-137668000D01*
G04 #@! TO.N,GE_IMEAS*
X250825000Y-77945000D02*
X250825000Y-71120000D01*
X62230000Y-42545000D02*
X62230000Y-22860000D01*
G04 #@! TO.N,FM_IMEAS*
X97409000Y-101760000D02*
X97409000Y-104521000D01*
G04 #@! TO.N,EM_CTL*
X91600000Y-66835000D02*
X91600000Y-71120000D01*
X86360000Y-61595000D02*
X91600000Y-66835000D01*
X62230000Y-63500000D02*
X64135000Y-61595000D01*
X64135000Y-61595000D02*
X86360000Y-61595000D01*
G04 #@! TO.N,GE_CTL*
X254000000Y-75565000D02*
X257650000Y-75565000D01*
X57150000Y-63500000D02*
X57150000Y-45085000D01*
X57150000Y-45085000D02*
X57150000Y-40005000D01*
G04 #@! TO.N,ROCKET_CTL*
X255745000Y-100330000D02*
X253365000Y-100330000D01*
X54610000Y-41275000D02*
X54610000Y-63500000D01*
G04 #@! TO.N,BM_CTL*
X91600000Y-122555000D02*
X93980000Y-122555000D01*
X103378000Y-59944000D02*
X61341000Y-59944000D01*
G04 #@! TO.N,MM_CTL*
X91600000Y-106045000D02*
X93980000Y-106045000D01*
X100076000Y-58420000D02*
X60960000Y-58420000D01*
G04 #@! TO.N,FM_CTL*
X91600000Y-88900000D02*
X92756000Y-88900000D01*
X92756000Y-88900000D02*
X93980000Y-88900000D01*
G04 #@! TO.N,EM_IMEAS*
X98933000Y-88773000D02*
X97282000Y-87122000D01*
X110363000Y-88773000D02*
X98933000Y-88773000D01*
X111760000Y-87376000D02*
X110363000Y-88773000D01*
X111760000Y-76708000D02*
X111760000Y-87376000D01*
X97282000Y-85250000D02*
X97282000Y-87122000D01*
G04 #@! TO.N,ROCKET_IMEAS*
X250190000Y-102710000D02*
X250190000Y-93980000D01*
X250190000Y-93980000D02*
X250190000Y-92710000D01*
X60960000Y-24130000D02*
X59690000Y-22860000D01*
X60960000Y-42545000D02*
X60960000Y-24130000D01*
G04 #@! TD*
D43*
G04 #@! TO.N,PVDD*
G36*
X234823000Y-138330000D02*
X118237000Y-138330000D01*
X118237000Y-134620000D01*
X177543262Y-134620000D01*
X177756151Y-135690265D01*
X178362408Y-136597592D01*
X179269735Y-137203849D01*
X180069841Y-137363000D01*
X180610159Y-137363000D01*
X181410265Y-137203849D01*
X182317592Y-136597592D01*
X182923849Y-135690265D01*
X183136738Y-134620000D01*
X182923849Y-133549735D01*
X182317592Y-132642408D01*
X181410265Y-132036151D01*
X180610159Y-131877000D01*
X180069841Y-131877000D01*
X179269735Y-132036151D01*
X178362408Y-132642408D01*
X177756151Y-133549735D01*
X177543262Y-134620000D01*
X118237000Y-134620000D01*
X118237000Y-131613948D01*
X164582000Y-131613948D01*
X164582000Y-132546052D01*
X164938701Y-133407203D01*
X165597797Y-134066299D01*
X166458948Y-134423000D01*
X167391052Y-134423000D01*
X168252203Y-134066299D01*
X168911299Y-133407203D01*
X169268000Y-132546052D01*
X169268000Y-131613948D01*
X192522000Y-131613948D01*
X192522000Y-132546052D01*
X192878701Y-133407203D01*
X193537797Y-134066299D01*
X194398948Y-134423000D01*
X195331052Y-134423000D01*
X196192203Y-134066299D01*
X196851299Y-133407203D01*
X197208000Y-132546052D01*
X197208000Y-131613948D01*
X196851299Y-130752797D01*
X196192203Y-130093701D01*
X195331052Y-129737000D01*
X194398948Y-129737000D01*
X193537797Y-130093701D01*
X192878701Y-130752797D01*
X192522000Y-131613948D01*
X169268000Y-131613948D01*
X168911299Y-130752797D01*
X168252203Y-130093701D01*
X167391052Y-129737000D01*
X166458948Y-129737000D01*
X165597797Y-130093701D01*
X164938701Y-130752797D01*
X164582000Y-131613948D01*
X118237000Y-131613948D01*
X118237000Y-125730000D01*
X177543262Y-125730000D01*
X177756151Y-126800265D01*
X178362408Y-127707592D01*
X179269735Y-128313849D01*
X180069841Y-128473000D01*
X180610159Y-128473000D01*
X181410265Y-128313849D01*
X182317592Y-127707592D01*
X182923849Y-126800265D01*
X183136738Y-125730000D01*
X182923849Y-124659735D01*
X182317592Y-123752408D01*
X181609984Y-123279599D01*
X197231000Y-123279599D01*
X197231000Y-128180401D01*
X199106456Y-132708153D01*
X202571847Y-136173544D01*
X207099599Y-138049000D01*
X212000401Y-138049000D01*
X216528153Y-136173544D01*
X219993544Y-132708153D01*
X221869000Y-128180401D01*
X221869000Y-123279599D01*
X219993544Y-118751847D01*
X216528153Y-115286456D01*
X212000401Y-113411000D01*
X207099599Y-113411000D01*
X202571847Y-115286456D01*
X199106456Y-118751847D01*
X197231000Y-123279599D01*
X181609984Y-123279599D01*
X181410265Y-123146151D01*
X180610159Y-122987000D01*
X180069841Y-122987000D01*
X179269735Y-123146151D01*
X178362408Y-123752408D01*
X177756151Y-124659735D01*
X177543262Y-125730000D01*
X118237000Y-125730000D01*
X118237000Y-117643948D01*
X164582000Y-117643948D01*
X164582000Y-118576052D01*
X164938701Y-119437203D01*
X165597797Y-120096299D01*
X166458948Y-120453000D01*
X167391052Y-120453000D01*
X168252203Y-120096299D01*
X168911299Y-119437203D01*
X169268000Y-118576052D01*
X169268000Y-117643948D01*
X192522000Y-117643948D01*
X192522000Y-118576052D01*
X192878701Y-119437203D01*
X193537797Y-120096299D01*
X194398948Y-120453000D01*
X195331052Y-120453000D01*
X196192203Y-120096299D01*
X196851299Y-119437203D01*
X197208000Y-118576052D01*
X197208000Y-117643948D01*
X196851299Y-116782797D01*
X196192203Y-116123701D01*
X195331052Y-115767000D01*
X194398948Y-115767000D01*
X193537797Y-116123701D01*
X192878701Y-116782797D01*
X192522000Y-117643948D01*
X169268000Y-117643948D01*
X168911299Y-116782797D01*
X168252203Y-116123701D01*
X167391052Y-115767000D01*
X166458948Y-115767000D01*
X165597797Y-116123701D01*
X164938701Y-116782797D01*
X164582000Y-117643948D01*
X118237000Y-117643948D01*
X118237000Y-106657501D01*
X149733000Y-106657501D01*
X149733000Y-107718499D01*
X150139026Y-108698734D01*
X150889266Y-109448974D01*
X151869501Y-109855000D01*
X152930499Y-109855000D01*
X153910734Y-109448974D01*
X154660974Y-108698734D01*
X155067000Y-107718499D01*
X155067000Y-106657501D01*
X157353000Y-106657501D01*
X157353000Y-107718499D01*
X157759026Y-108698734D01*
X158509266Y-109448974D01*
X159489501Y-109855000D01*
X160550499Y-109855000D01*
X161530734Y-109448974D01*
X162280974Y-108698734D01*
X162687000Y-107718499D01*
X162687000Y-106657501D01*
X162280974Y-105677266D01*
X162245209Y-105641501D01*
X202057000Y-105641501D01*
X202057000Y-106702499D01*
X202463026Y-107682734D01*
X203213266Y-108432974D01*
X204193501Y-108839000D01*
X205254499Y-108839000D01*
X206234734Y-108432974D01*
X206984974Y-107682734D01*
X207391000Y-106702499D01*
X207391000Y-105641501D01*
X209677000Y-105641501D01*
X209677000Y-106702499D01*
X210083026Y-107682734D01*
X210833266Y-108432974D01*
X211813501Y-108839000D01*
X212874499Y-108839000D01*
X213854734Y-108432974D01*
X214604974Y-107682734D01*
X215011000Y-106702499D01*
X215011000Y-105641501D01*
X214604974Y-104661266D01*
X213854734Y-103911026D01*
X212874499Y-103505000D01*
X211813501Y-103505000D01*
X210833266Y-103911026D01*
X210083026Y-104661266D01*
X209677000Y-105641501D01*
X207391000Y-105641501D01*
X206984974Y-104661266D01*
X206234734Y-103911026D01*
X205254499Y-103505000D01*
X204193501Y-103505000D01*
X203213266Y-103911026D01*
X202463026Y-104661266D01*
X202057000Y-105641501D01*
X162245209Y-105641501D01*
X161530734Y-104927026D01*
X160550499Y-104521000D01*
X159489501Y-104521000D01*
X158509266Y-104927026D01*
X157759026Y-105677266D01*
X157353000Y-106657501D01*
X155067000Y-106657501D01*
X154660974Y-105677266D01*
X153910734Y-104927026D01*
X152930499Y-104521000D01*
X151869501Y-104521000D01*
X150889266Y-104927026D01*
X150139026Y-105677266D01*
X149733000Y-106657501D01*
X118237000Y-106657501D01*
X118237000Y-83226346D01*
X174815500Y-83226346D01*
X174815500Y-84413654D01*
X175269863Y-85510584D01*
X176109416Y-86350137D01*
X177206346Y-86804500D01*
X178393654Y-86804500D01*
X179490584Y-86350137D01*
X180330137Y-85510584D01*
X180784500Y-84413654D01*
X180784500Y-83226346D01*
X180330137Y-82129416D01*
X179490584Y-81289863D01*
X178393654Y-80835500D01*
X177206346Y-80835500D01*
X176109416Y-81289863D01*
X175269863Y-82129416D01*
X174815500Y-83226346D01*
X118237000Y-83226346D01*
X118237000Y-76327000D01*
X134620000Y-76327000D01*
X134668601Y-76317333D01*
X134709803Y-76289803D01*
X134737333Y-76248601D01*
X134747000Y-76200000D01*
X134747000Y-71380000D01*
X173179608Y-71380000D01*
X173179608Y-72130000D01*
X173268318Y-72575976D01*
X173294000Y-72614412D01*
X173294001Y-73435587D01*
X173268318Y-73474024D01*
X173179608Y-73920000D01*
X173179608Y-74670000D01*
X173268318Y-75115976D01*
X173294001Y-75154413D01*
X173294000Y-75975588D01*
X173268318Y-76014024D01*
X173179608Y-76460000D01*
X173179608Y-77210000D01*
X173268318Y-77655976D01*
X173520943Y-78034057D01*
X173899024Y-78286682D01*
X174250509Y-78356597D01*
X174300812Y-78390208D01*
X174945000Y-78518345D01*
X175589187Y-78390208D01*
X175639490Y-78356597D01*
X175895000Y-78305773D01*
X176245000Y-78375392D01*
X177445000Y-78375392D01*
X177527408Y-78359000D01*
X178082208Y-78359000D01*
X178128078Y-78378000D01*
X178380423Y-78378000D01*
X178435000Y-78388856D01*
X178489577Y-78378000D01*
X178741922Y-78378000D01*
X178787792Y-78359000D01*
X179342592Y-78359000D01*
X179425000Y-78375392D01*
X180625000Y-78375392D01*
X181070976Y-78286682D01*
X181449057Y-78034057D01*
X181701682Y-77655976D01*
X181790392Y-77210000D01*
X181790392Y-76460000D01*
X181701682Y-76014024D01*
X181449057Y-75635943D01*
X181342883Y-75565000D01*
X181449057Y-75494057D01*
X181701682Y-75115976D01*
X181790392Y-74670000D01*
X181790392Y-73920000D01*
X181701682Y-73474024D01*
X181449057Y-73095943D01*
X181342883Y-73025000D01*
X181449057Y-72954057D01*
X181701682Y-72575976D01*
X181790392Y-72130000D01*
X181790392Y-71380000D01*
X181701682Y-70934024D01*
X181449057Y-70555943D01*
X181070976Y-70303318D01*
X180625000Y-70214608D01*
X179959000Y-70214608D01*
X179959000Y-68480077D01*
X180049981Y-68389096D01*
X180340000Y-67688928D01*
X180340000Y-66931072D01*
X180049981Y-66230904D01*
X179514096Y-65695019D01*
X178813928Y-65405000D01*
X178056072Y-65405000D01*
X177355904Y-65695019D01*
X177165000Y-65885923D01*
X176974096Y-65695019D01*
X176273928Y-65405000D01*
X175516072Y-65405000D01*
X174815904Y-65695019D01*
X174280019Y-66230904D01*
X174026019Y-66844115D01*
X173892552Y-66977582D01*
X173754695Y-67069695D01*
X173389792Y-67615813D01*
X173324537Y-67943871D01*
X173261655Y-68260000D01*
X173294000Y-68422608D01*
X173294001Y-70895587D01*
X173268318Y-70934024D01*
X173179608Y-71380000D01*
X134747000Y-71380000D01*
X134747000Y-60579000D01*
X193675000Y-60579000D01*
X193675726Y-60578998D01*
X215900726Y-60451998D01*
X215949270Y-60442053D01*
X215990314Y-60414288D01*
X216017608Y-60372930D01*
X216027000Y-60325000D01*
X216027000Y-53467000D01*
X234823000Y-53467000D01*
X234823000Y-138330000D01*
X234823000Y-138330000D01*
G37*
X234823000Y-138330000D02*
X118237000Y-138330000D01*
X118237000Y-134620000D01*
X177543262Y-134620000D01*
X177756151Y-135690265D01*
X178362408Y-136597592D01*
X179269735Y-137203849D01*
X180069841Y-137363000D01*
X180610159Y-137363000D01*
X181410265Y-137203849D01*
X182317592Y-136597592D01*
X182923849Y-135690265D01*
X183136738Y-134620000D01*
X182923849Y-133549735D01*
X182317592Y-132642408D01*
X181410265Y-132036151D01*
X180610159Y-131877000D01*
X180069841Y-131877000D01*
X179269735Y-132036151D01*
X178362408Y-132642408D01*
X177756151Y-133549735D01*
X177543262Y-134620000D01*
X118237000Y-134620000D01*
X118237000Y-131613948D01*
X164582000Y-131613948D01*
X164582000Y-132546052D01*
X164938701Y-133407203D01*
X165597797Y-134066299D01*
X166458948Y-134423000D01*
X167391052Y-134423000D01*
X168252203Y-134066299D01*
X168911299Y-133407203D01*
X169268000Y-132546052D01*
X169268000Y-131613948D01*
X192522000Y-131613948D01*
X192522000Y-132546052D01*
X192878701Y-133407203D01*
X193537797Y-134066299D01*
X194398948Y-134423000D01*
X195331052Y-134423000D01*
X196192203Y-134066299D01*
X196851299Y-133407203D01*
X197208000Y-132546052D01*
X197208000Y-131613948D01*
X196851299Y-130752797D01*
X196192203Y-130093701D01*
X195331052Y-129737000D01*
X194398948Y-129737000D01*
X193537797Y-130093701D01*
X192878701Y-130752797D01*
X192522000Y-131613948D01*
X169268000Y-131613948D01*
X168911299Y-130752797D01*
X168252203Y-130093701D01*
X167391052Y-129737000D01*
X166458948Y-129737000D01*
X165597797Y-130093701D01*
X164938701Y-130752797D01*
X164582000Y-131613948D01*
X118237000Y-131613948D01*
X118237000Y-125730000D01*
X177543262Y-125730000D01*
X177756151Y-126800265D01*
X178362408Y-127707592D01*
X179269735Y-128313849D01*
X180069841Y-128473000D01*
X180610159Y-128473000D01*
X181410265Y-128313849D01*
X182317592Y-127707592D01*
X182923849Y-126800265D01*
X183136738Y-125730000D01*
X182923849Y-124659735D01*
X182317592Y-123752408D01*
X181609984Y-123279599D01*
X197231000Y-123279599D01*
X197231000Y-128180401D01*
X199106456Y-132708153D01*
X202571847Y-136173544D01*
X207099599Y-138049000D01*
X212000401Y-138049000D01*
X216528153Y-136173544D01*
X219993544Y-132708153D01*
X221869000Y-128180401D01*
X221869000Y-123279599D01*
X219993544Y-118751847D01*
X216528153Y-115286456D01*
X212000401Y-113411000D01*
X207099599Y-113411000D01*
X202571847Y-115286456D01*
X199106456Y-118751847D01*
X197231000Y-123279599D01*
X181609984Y-123279599D01*
X181410265Y-123146151D01*
X180610159Y-122987000D01*
X180069841Y-122987000D01*
X179269735Y-123146151D01*
X178362408Y-123752408D01*
X177756151Y-124659735D01*
X177543262Y-125730000D01*
X118237000Y-125730000D01*
X118237000Y-117643948D01*
X164582000Y-117643948D01*
X164582000Y-118576052D01*
X164938701Y-119437203D01*
X165597797Y-120096299D01*
X166458948Y-120453000D01*
X167391052Y-120453000D01*
X168252203Y-120096299D01*
X168911299Y-119437203D01*
X169268000Y-118576052D01*
X169268000Y-117643948D01*
X192522000Y-117643948D01*
X192522000Y-118576052D01*
X192878701Y-119437203D01*
X193537797Y-120096299D01*
X194398948Y-120453000D01*
X195331052Y-120453000D01*
X196192203Y-120096299D01*
X196851299Y-119437203D01*
X197208000Y-118576052D01*
X197208000Y-117643948D01*
X196851299Y-116782797D01*
X196192203Y-116123701D01*
X195331052Y-115767000D01*
X194398948Y-115767000D01*
X193537797Y-116123701D01*
X192878701Y-116782797D01*
X192522000Y-117643948D01*
X169268000Y-117643948D01*
X168911299Y-116782797D01*
X168252203Y-116123701D01*
X167391052Y-115767000D01*
X166458948Y-115767000D01*
X165597797Y-116123701D01*
X164938701Y-116782797D01*
X164582000Y-117643948D01*
X118237000Y-117643948D01*
X118237000Y-106657501D01*
X149733000Y-106657501D01*
X149733000Y-107718499D01*
X150139026Y-108698734D01*
X150889266Y-109448974D01*
X151869501Y-109855000D01*
X152930499Y-109855000D01*
X153910734Y-109448974D01*
X154660974Y-108698734D01*
X155067000Y-107718499D01*
X155067000Y-106657501D01*
X157353000Y-106657501D01*
X157353000Y-107718499D01*
X157759026Y-108698734D01*
X158509266Y-109448974D01*
X159489501Y-109855000D01*
X160550499Y-109855000D01*
X161530734Y-109448974D01*
X162280974Y-108698734D01*
X162687000Y-107718499D01*
X162687000Y-106657501D01*
X162280974Y-105677266D01*
X162245209Y-105641501D01*
X202057000Y-105641501D01*
X202057000Y-106702499D01*
X202463026Y-107682734D01*
X203213266Y-108432974D01*
X204193501Y-108839000D01*
X205254499Y-108839000D01*
X206234734Y-108432974D01*
X206984974Y-107682734D01*
X207391000Y-106702499D01*
X207391000Y-105641501D01*
X209677000Y-105641501D01*
X209677000Y-106702499D01*
X210083026Y-107682734D01*
X210833266Y-108432974D01*
X211813501Y-108839000D01*
X212874499Y-108839000D01*
X213854734Y-108432974D01*
X214604974Y-107682734D01*
X215011000Y-106702499D01*
X215011000Y-105641501D01*
X214604974Y-104661266D01*
X213854734Y-103911026D01*
X212874499Y-103505000D01*
X211813501Y-103505000D01*
X210833266Y-103911026D01*
X210083026Y-104661266D01*
X209677000Y-105641501D01*
X207391000Y-105641501D01*
X206984974Y-104661266D01*
X206234734Y-103911026D01*
X205254499Y-103505000D01*
X204193501Y-103505000D01*
X203213266Y-103911026D01*
X202463026Y-104661266D01*
X202057000Y-105641501D01*
X162245209Y-105641501D01*
X161530734Y-104927026D01*
X160550499Y-104521000D01*
X159489501Y-104521000D01*
X158509266Y-104927026D01*
X157759026Y-105677266D01*
X157353000Y-106657501D01*
X155067000Y-106657501D01*
X154660974Y-105677266D01*
X153910734Y-104927026D01*
X152930499Y-104521000D01*
X151869501Y-104521000D01*
X150889266Y-104927026D01*
X150139026Y-105677266D01*
X149733000Y-106657501D01*
X118237000Y-106657501D01*
X118237000Y-83226346D01*
X174815500Y-83226346D01*
X174815500Y-84413654D01*
X175269863Y-85510584D01*
X176109416Y-86350137D01*
X177206346Y-86804500D01*
X178393654Y-86804500D01*
X179490584Y-86350137D01*
X180330137Y-85510584D01*
X180784500Y-84413654D01*
X180784500Y-83226346D01*
X180330137Y-82129416D01*
X179490584Y-81289863D01*
X178393654Y-80835500D01*
X177206346Y-80835500D01*
X176109416Y-81289863D01*
X175269863Y-82129416D01*
X174815500Y-83226346D01*
X118237000Y-83226346D01*
X118237000Y-76327000D01*
X134620000Y-76327000D01*
X134668601Y-76317333D01*
X134709803Y-76289803D01*
X134737333Y-76248601D01*
X134747000Y-76200000D01*
X134747000Y-71380000D01*
X173179608Y-71380000D01*
X173179608Y-72130000D01*
X173268318Y-72575976D01*
X173294000Y-72614412D01*
X173294001Y-73435587D01*
X173268318Y-73474024D01*
X173179608Y-73920000D01*
X173179608Y-74670000D01*
X173268318Y-75115976D01*
X173294001Y-75154413D01*
X173294000Y-75975588D01*
X173268318Y-76014024D01*
X173179608Y-76460000D01*
X173179608Y-77210000D01*
X173268318Y-77655976D01*
X173520943Y-78034057D01*
X173899024Y-78286682D01*
X174250509Y-78356597D01*
X174300812Y-78390208D01*
X174945000Y-78518345D01*
X175589187Y-78390208D01*
X175639490Y-78356597D01*
X175895000Y-78305773D01*
X176245000Y-78375392D01*
X177445000Y-78375392D01*
X177527408Y-78359000D01*
X178082208Y-78359000D01*
X178128078Y-78378000D01*
X178380423Y-78378000D01*
X178435000Y-78388856D01*
X178489577Y-78378000D01*
X178741922Y-78378000D01*
X178787792Y-78359000D01*
X179342592Y-78359000D01*
X179425000Y-78375392D01*
X180625000Y-78375392D01*
X181070976Y-78286682D01*
X181449057Y-78034057D01*
X181701682Y-77655976D01*
X181790392Y-77210000D01*
X181790392Y-76460000D01*
X181701682Y-76014024D01*
X181449057Y-75635943D01*
X181342883Y-75565000D01*
X181449057Y-75494057D01*
X181701682Y-75115976D01*
X181790392Y-74670000D01*
X181790392Y-73920000D01*
X181701682Y-73474024D01*
X181449057Y-73095943D01*
X181342883Y-73025000D01*
X181449057Y-72954057D01*
X181701682Y-72575976D01*
X181790392Y-72130000D01*
X181790392Y-71380000D01*
X181701682Y-70934024D01*
X181449057Y-70555943D01*
X181070976Y-70303318D01*
X180625000Y-70214608D01*
X179959000Y-70214608D01*
X179959000Y-68480077D01*
X180049981Y-68389096D01*
X180340000Y-67688928D01*
X180340000Y-66931072D01*
X180049981Y-66230904D01*
X179514096Y-65695019D01*
X178813928Y-65405000D01*
X178056072Y-65405000D01*
X177355904Y-65695019D01*
X177165000Y-65885923D01*
X176974096Y-65695019D01*
X176273928Y-65405000D01*
X175516072Y-65405000D01*
X174815904Y-65695019D01*
X174280019Y-66230904D01*
X174026019Y-66844115D01*
X173892552Y-66977582D01*
X173754695Y-67069695D01*
X173389792Y-67615813D01*
X173324537Y-67943871D01*
X173261655Y-68260000D01*
X173294000Y-68422608D01*
X173294001Y-70895587D01*
X173268318Y-70934024D01*
X173179608Y-71380000D01*
X134747000Y-71380000D01*
X134747000Y-60579000D01*
X193675000Y-60579000D01*
X193675726Y-60578998D01*
X215900726Y-60451998D01*
X215949270Y-60442053D01*
X215990314Y-60414288D01*
X216017608Y-60372930D01*
X216027000Y-60325000D01*
X216027000Y-53467000D01*
X234823000Y-53467000D01*
X234823000Y-138330000D01*
G04 #@! TO.N,Net-(U30-Pad1)*
G36*
X110363000Y-85901655D02*
X106103413Y-85901655D01*
X102331426Y-81501004D01*
X102292457Y-81470395D01*
X102235000Y-81456655D01*
X96901000Y-81456655D01*
X96901000Y-78535655D01*
X110363000Y-78535655D01*
X110363000Y-85901655D01*
X110363000Y-85901655D01*
G37*
X110363000Y-85901655D02*
X106103413Y-85901655D01*
X102331426Y-81501004D01*
X102292457Y-81470395D01*
X102235000Y-81456655D01*
X96901000Y-81456655D01*
X96901000Y-78535655D01*
X110363000Y-78535655D01*
X110363000Y-85901655D01*
G04 #@! TO.N,Net-(U28-Pad1)*
G36*
X110363000Y-102108000D02*
X105468413Y-102108000D01*
X101696426Y-97707349D01*
X101657457Y-97676740D01*
X101600000Y-97663000D01*
X96901000Y-97663000D01*
X96901000Y-94794533D01*
X97126649Y-94888000D01*
X97437351Y-94888000D01*
X97724401Y-94769100D01*
X97751501Y-94742000D01*
X110363000Y-94742000D01*
X110363000Y-102108000D01*
X110363000Y-102108000D01*
G37*
X110363000Y-102108000D02*
X105468413Y-102108000D01*
X101696426Y-97707349D01*
X101657457Y-97676740D01*
X101600000Y-97663000D01*
X96901000Y-97663000D01*
X96901000Y-94794533D01*
X97126649Y-94888000D01*
X97437351Y-94888000D01*
X97724401Y-94769100D01*
X97751501Y-94742000D01*
X110363000Y-94742000D01*
X110363000Y-102108000D01*
G04 #@! TO.N,Net-(U29-Pad1)*
G36*
X110363000Y-118829667D02*
X110045500Y-119253000D01*
X105087413Y-119253000D01*
X101315426Y-114852349D01*
X101276457Y-114821740D01*
X101215033Y-114808062D01*
X97282000Y-114930969D01*
X97282000Y-112014000D01*
X110363000Y-112014000D01*
X110363000Y-118829667D01*
X110363000Y-118829667D01*
G37*
X110363000Y-118829667D02*
X110045500Y-119253000D01*
X105087413Y-119253000D01*
X101315426Y-114852349D01*
X101276457Y-114821740D01*
X101215033Y-114808062D01*
X97282000Y-114930969D01*
X97282000Y-112014000D01*
X110363000Y-112014000D01*
X110363000Y-118829667D01*
G04 #@! TO.N,Net-(U27-Pad1)*
G36*
X110363000Y-135128000D02*
X106103413Y-135128000D01*
X102331426Y-130727349D01*
X102292457Y-130696740D01*
X102235000Y-130683000D01*
X97409000Y-130683000D01*
X97409000Y-127762000D01*
X110363000Y-127762000D01*
X110363000Y-135128000D01*
X110363000Y-135128000D01*
G37*
X110363000Y-135128000D02*
X106103413Y-135128000D01*
X102331426Y-130727349D01*
X102292457Y-130696740D01*
X102235000Y-130683000D01*
X97409000Y-130683000D01*
X97409000Y-127762000D01*
X110363000Y-127762000D01*
X110363000Y-135128000D01*
G04 #@! TO.N,Net-(C41-Pad1)*
G36*
X83185000Y-76166400D02*
X83194667Y-76215001D01*
X83222197Y-76256203D01*
X83263399Y-76283733D01*
X83312000Y-76293400D01*
X96393000Y-76293400D01*
X96393000Y-81153000D01*
X89535000Y-81153000D01*
X89477769Y-81166626D01*
X83281762Y-84294400D01*
X70739000Y-84294400D01*
X70739000Y-74388400D01*
X83185000Y-74388400D01*
X83185000Y-76166400D01*
X83185000Y-76166400D01*
G37*
X83185000Y-76166400D02*
X83194667Y-76215001D01*
X83222197Y-76256203D01*
X83263399Y-76283733D01*
X83312000Y-76293400D01*
X96393000Y-76293400D01*
X96393000Y-81153000D01*
X89535000Y-81153000D01*
X89477769Y-81166626D01*
X83281762Y-84294400D01*
X70739000Y-84294400D01*
X70739000Y-74388400D01*
X83185000Y-74388400D01*
X83185000Y-76166400D01*
G04 #@! TO.N,Net-(C40-Pad1)*
G36*
X83185000Y-93980000D02*
X83194667Y-94028601D01*
X83222197Y-94069803D01*
X83263399Y-94097333D01*
X83312000Y-94107000D01*
X96393000Y-94107000D01*
X96393000Y-98298000D01*
X89662000Y-98298000D01*
X89596659Y-98316098D01*
X83276822Y-102108000D01*
X70739000Y-102108000D01*
X70739000Y-92202000D01*
X83185000Y-92202000D01*
X83185000Y-93980000D01*
X83185000Y-93980000D01*
G37*
X83185000Y-93980000D02*
X83194667Y-94028601D01*
X83222197Y-94069803D01*
X83263399Y-94097333D01*
X83312000Y-94107000D01*
X96393000Y-94107000D01*
X96393000Y-98298000D01*
X89662000Y-98298000D01*
X89596659Y-98316098D01*
X83276822Y-102108000D01*
X70739000Y-102108000D01*
X70739000Y-92202000D01*
X83185000Y-92202000D01*
X83185000Y-93980000D01*
G04 #@! TO.N,Net-(C39-Pad1)*
G36*
X83443150Y-111767811D02*
X83452817Y-111816412D01*
X83480347Y-111857614D01*
X83521549Y-111885144D01*
X83570226Y-111894811D01*
X96520000Y-111887076D01*
X96520000Y-116078147D01*
X89920003Y-116085811D01*
X89854809Y-116103909D01*
X83534972Y-119895811D01*
X70997150Y-119895811D01*
X70997150Y-109989811D01*
X83443150Y-109989811D01*
X83443150Y-111767811D01*
X83443150Y-111767811D01*
G37*
X83443150Y-111767811D02*
X83452817Y-111816412D01*
X83480347Y-111857614D01*
X83521549Y-111885144D01*
X83570226Y-111894811D01*
X96520000Y-111887076D01*
X96520000Y-116078147D01*
X89920003Y-116085811D01*
X89854809Y-116103909D01*
X83534972Y-119895811D01*
X70997150Y-119895811D01*
X70997150Y-109989811D01*
X83443150Y-109989811D01*
X83443150Y-111767811D01*
G04 #@! TO.N,Net-(C38-Pad1)*
G36*
X96901000Y-131318000D02*
X90297000Y-131318000D01*
X90248399Y-131327667D01*
X90207957Y-131354444D01*
X89834625Y-131721536D01*
X89795000Y-131721536D01*
X89646341Y-131751106D01*
X89520314Y-131835314D01*
X89436106Y-131961341D01*
X89406536Y-132110000D01*
X89406536Y-132142470D01*
X83618123Y-137834138D01*
X71097385Y-137834138D01*
X71119719Y-127762000D01*
X96901000Y-127762000D01*
X96901000Y-131318000D01*
X96901000Y-131318000D01*
G37*
X96901000Y-131318000D02*
X90297000Y-131318000D01*
X90248399Y-131327667D01*
X90207957Y-131354444D01*
X89834625Y-131721536D01*
X89795000Y-131721536D01*
X89646341Y-131751106D01*
X89520314Y-131835314D01*
X89436106Y-131961341D01*
X89406536Y-132110000D01*
X89406536Y-132142470D01*
X83618123Y-137834138D01*
X71097385Y-137834138D01*
X71119719Y-127762000D01*
X96901000Y-127762000D01*
X96901000Y-131318000D01*
G04 #@! TO.N,Net-(U15-Pad1)*
G36*
X251079000Y-82615356D02*
X251079000Y-84963000D01*
X247015000Y-84963000D01*
X246966399Y-84972667D01*
X246913400Y-85013800D01*
X245046500Y-87503000D01*
X242062000Y-87503000D01*
X242062000Y-80137000D01*
X247609301Y-80137000D01*
X251079000Y-82615356D01*
X251079000Y-82615356D01*
G37*
X251079000Y-82615356D02*
X251079000Y-84963000D01*
X247015000Y-84963000D01*
X246966399Y-84972667D01*
X246913400Y-85013800D01*
X245046500Y-87503000D01*
X242062000Y-87503000D01*
X242062000Y-80137000D01*
X247609301Y-80137000D01*
X251079000Y-82615356D01*
G04 #@! TO.N,Net-(U17-Pad1)*
G36*
X250444000Y-107380356D02*
X250444000Y-109728000D01*
X246380000Y-109728000D01*
X246331399Y-109737667D01*
X246278400Y-109778800D01*
X244411500Y-112268000D01*
X241427000Y-112268000D01*
X241427000Y-104902000D01*
X246974301Y-104902000D01*
X250444000Y-107380356D01*
X250444000Y-107380356D01*
G37*
X250444000Y-107380356D02*
X250444000Y-109728000D01*
X246380000Y-109728000D01*
X246331399Y-109737667D01*
X246278400Y-109778800D01*
X244411500Y-112268000D01*
X241427000Y-112268000D01*
X241427000Y-104902000D01*
X246974301Y-104902000D01*
X250444000Y-107380356D01*
G04 #@! TO.N,Net-(U18-Pad1)*
G36*
X250444000Y-132145356D02*
X250444000Y-134493000D01*
X246380000Y-134493000D01*
X246331399Y-134502667D01*
X246278400Y-134543800D01*
X244411500Y-137033000D01*
X241427000Y-137033000D01*
X241427000Y-129667000D01*
X246974301Y-129667000D01*
X250444000Y-132145356D01*
X250444000Y-132145356D01*
G37*
X250444000Y-132145356D02*
X250444000Y-134493000D01*
X246380000Y-134493000D01*
X246331399Y-134502667D01*
X246278400Y-134543800D01*
X244411500Y-137033000D01*
X241427000Y-137033000D01*
X241427000Y-129667000D01*
X246974301Y-129667000D01*
X250444000Y-132145356D01*
G04 #@! TO.N,Net-(C27-Pad1)*
G36*
X267208000Y-84641957D02*
X267193073Y-84717000D01*
X267208000Y-84792043D01*
X267208000Y-88138000D01*
X257229070Y-88138000D01*
X254091546Y-84874975D01*
X254050892Y-84846643D01*
X254000000Y-84836000D01*
X251714000Y-84836000D01*
X251714000Y-82467549D01*
X254696039Y-78740000D01*
X255368030Y-78740000D01*
X255381341Y-78748894D01*
X255530000Y-78778464D01*
X256280000Y-78778464D01*
X256428659Y-78748894D01*
X256441970Y-78740000D01*
X257175000Y-78740000D01*
X257223601Y-78730333D01*
X257264803Y-78702803D01*
X257292333Y-78661601D01*
X257302000Y-78613000D01*
X257302000Y-76962000D01*
X267208000Y-76962000D01*
X267208000Y-84641957D01*
X267208000Y-84641957D01*
G37*
X267208000Y-84641957D02*
X267193073Y-84717000D01*
X267208000Y-84792043D01*
X267208000Y-88138000D01*
X257229070Y-88138000D01*
X254091546Y-84874975D01*
X254050892Y-84846643D01*
X254000000Y-84836000D01*
X251714000Y-84836000D01*
X251714000Y-82467549D01*
X254696039Y-78740000D01*
X255368030Y-78740000D01*
X255381341Y-78748894D01*
X255530000Y-78778464D01*
X256280000Y-78778464D01*
X256428659Y-78748894D01*
X256441970Y-78740000D01*
X257175000Y-78740000D01*
X257223601Y-78730333D01*
X257264803Y-78702803D01*
X257292333Y-78661601D01*
X257302000Y-78613000D01*
X257302000Y-76962000D01*
X267208000Y-76962000D01*
X267208000Y-84641957D01*
G04 #@! TO.N,Net-(C28-Pad1)*
G36*
X266573000Y-109171957D02*
X266558073Y-109247000D01*
X266573000Y-109322043D01*
X266573000Y-112903000D01*
X255972968Y-112903000D01*
X253470670Y-109149553D01*
X253435668Y-109114477D01*
X253389907Y-109095466D01*
X253365000Y-109093000D01*
X251079000Y-109093000D01*
X251079000Y-106731094D01*
X254054130Y-103632000D01*
X256540000Y-103632000D01*
X256588601Y-103622333D01*
X256629803Y-103594803D01*
X256657333Y-103553601D01*
X256667000Y-103505000D01*
X256667000Y-101727000D01*
X266573000Y-101727000D01*
X266573000Y-109171957D01*
X266573000Y-109171957D01*
G37*
X266573000Y-109171957D02*
X266558073Y-109247000D01*
X266573000Y-109322043D01*
X266573000Y-112903000D01*
X255972968Y-112903000D01*
X253470670Y-109149553D01*
X253435668Y-109114477D01*
X253389907Y-109095466D01*
X253365000Y-109093000D01*
X251079000Y-109093000D01*
X251079000Y-106731094D01*
X254054130Y-103632000D01*
X256540000Y-103632000D01*
X256588601Y-103622333D01*
X256629803Y-103594803D01*
X256657333Y-103553601D01*
X256667000Y-103505000D01*
X256667000Y-101727000D01*
X266573000Y-101727000D01*
X266573000Y-109171957D01*
G04 #@! TO.N,Net-(C29-Pad1)*
G36*
X265938000Y-134171957D02*
X265923073Y-134247000D01*
X265938000Y-134322043D01*
X265938000Y-137668000D01*
X255966039Y-137668000D01*
X253464170Y-134540664D01*
X253426261Y-134508752D01*
X253365000Y-134493000D01*
X251079000Y-134493000D01*
X251079000Y-132124549D01*
X254061039Y-128397000D01*
X255905000Y-128397000D01*
X255953601Y-128387333D01*
X255994803Y-128359803D01*
X256022333Y-128318601D01*
X256032000Y-128270000D01*
X256032000Y-126492000D01*
X265938000Y-126492000D01*
X265938000Y-134171957D01*
X265938000Y-134171957D01*
G37*
X265938000Y-134171957D02*
X265923073Y-134247000D01*
X265938000Y-134322043D01*
X265938000Y-137668000D01*
X255966039Y-137668000D01*
X253464170Y-134540664D01*
X253426261Y-134508752D01*
X253365000Y-134493000D01*
X251079000Y-134493000D01*
X251079000Y-132124549D01*
X254061039Y-128397000D01*
X255905000Y-128397000D01*
X255953601Y-128387333D01*
X255994803Y-128359803D01*
X256022333Y-128318601D01*
X256032000Y-128270000D01*
X256032000Y-126492000D01*
X265938000Y-126492000D01*
X265938000Y-134171957D01*
G04 #@! TO.N,Net-(Conn8-Pad2)*
G36*
X75184000Y-67690293D02*
X75184000Y-73151703D01*
X69850297Y-73139241D01*
X69801673Y-73148795D01*
X69760407Y-73176229D01*
X69732781Y-73217366D01*
X69723000Y-73266241D01*
X69723000Y-83934241D01*
X62357000Y-83934241D01*
X62357000Y-67678241D01*
X73024649Y-67678241D01*
X75184000Y-67690293D01*
X75184000Y-67690293D01*
G37*
X75184000Y-67690293D02*
X75184000Y-73151703D01*
X69850297Y-73139241D01*
X69801673Y-73148795D01*
X69760407Y-73176229D01*
X69732781Y-73217366D01*
X69723000Y-73266241D01*
X69723000Y-83934241D01*
X62357000Y-83934241D01*
X62357000Y-67678241D01*
X73024649Y-67678241D01*
X75184000Y-67690293D01*
G04 #@! TO.N,Net-(Conn9-Pad2)*
G36*
X75438000Y-90678000D02*
X69215000Y-90678000D01*
X69166399Y-90687667D01*
X69125197Y-90715197D01*
X69097667Y-90756399D01*
X69088000Y-90805000D01*
X69088000Y-98933000D01*
X62432241Y-98933000D01*
X62357000Y-91439323D01*
X62357000Y-85217000D01*
X75438000Y-85217000D01*
X75438000Y-90678000D01*
X75438000Y-90678000D01*
G37*
X75438000Y-90678000D02*
X69215000Y-90678000D01*
X69166399Y-90687667D01*
X69125197Y-90715197D01*
X69097667Y-90756399D01*
X69088000Y-90805000D01*
X69088000Y-98933000D01*
X62432241Y-98933000D01*
X62357000Y-91439323D01*
X62357000Y-85217000D01*
X75438000Y-85217000D01*
X75438000Y-90678000D01*
G04 #@! TO.N,Net-(Conn10-Pad2)*
G36*
X75587572Y-108458000D02*
X69291509Y-108458000D01*
X69242908Y-108467667D01*
X69201706Y-108495197D01*
X69174176Y-108536399D01*
X69164515Y-108583725D01*
X69089268Y-116078000D01*
X62433509Y-116078000D01*
X62433509Y-109220000D01*
X62433500Y-109218470D01*
X62358540Y-102997000D01*
X75441354Y-102997000D01*
X75587572Y-108458000D01*
X75587572Y-108458000D01*
G37*
X75587572Y-108458000D02*
X69291509Y-108458000D01*
X69242908Y-108467667D01*
X69201706Y-108495197D01*
X69174176Y-108536399D01*
X69164515Y-108583725D01*
X69089268Y-116078000D01*
X62433509Y-116078000D01*
X62433509Y-109220000D01*
X62433500Y-109218470D01*
X62358540Y-102997000D01*
X75441354Y-102997000D01*
X75587572Y-108458000D01*
G04 #@! TO.N,Net-(Conn11-Pad2)*
G36*
X75590438Y-126238000D02*
X69926509Y-126238000D01*
X69877908Y-126247667D01*
X69836706Y-126275197D01*
X69809176Y-126316399D01*
X69799515Y-126363725D01*
X69724268Y-133858000D01*
X62355616Y-133858000D01*
X62280499Y-127000096D01*
X62355479Y-120777000D01*
X75565577Y-120777000D01*
X75590438Y-126238000D01*
X75590438Y-126238000D01*
G37*
X75590438Y-126238000D02*
X69926509Y-126238000D01*
X69877908Y-126247667D01*
X69836706Y-126275197D01*
X69809176Y-126316399D01*
X69799515Y-126363725D01*
X69724268Y-133858000D01*
X62355616Y-133858000D01*
X62280499Y-127000096D01*
X62355479Y-120777000D01*
X75565577Y-120777000D01*
X75590438Y-126238000D01*
G04 #@! TO.N,Net-(Conn5-Pad2)*
G36*
X271655466Y-70509907D02*
X271690197Y-70574803D01*
X277368000Y-76252606D01*
X277368000Y-81153000D01*
X269240000Y-81153000D01*
X269240000Y-76200000D01*
X269230333Y-76151399D01*
X269205844Y-76113346D01*
X267429692Y-74210326D01*
X263652000Y-69803019D01*
X263652000Y-64262000D01*
X270405885Y-64262000D01*
X271655466Y-70509907D01*
X271655466Y-70509907D01*
G37*
X271655466Y-70509907D02*
X271690197Y-70574803D01*
X277368000Y-76252606D01*
X277368000Y-81153000D01*
X269240000Y-81153000D01*
X269240000Y-76200000D01*
X269230333Y-76151399D01*
X269205844Y-76113346D01*
X267429692Y-74210326D01*
X263652000Y-69803019D01*
X263652000Y-64262000D01*
X270405885Y-64262000D01*
X271655466Y-70509907D01*
G04 #@! TO.N,Net-(Conn6-Pad2)*
G36*
X270384990Y-94002396D02*
X270416381Y-94065817D01*
X277368000Y-101649401D01*
X277368000Y-106550891D01*
X268410236Y-106403343D01*
X268096832Y-100323462D01*
X268084675Y-100275423D01*
X268062844Y-100243346D01*
X266284844Y-98338346D01*
X266279619Y-98333065D01*
X262828512Y-95043969D01*
X262828512Y-89510372D01*
X269580242Y-89510372D01*
X270384990Y-94002396D01*
X270384990Y-94002396D01*
G37*
X270384990Y-94002396D02*
X270416381Y-94065817D01*
X277368000Y-101649401D01*
X277368000Y-106550891D01*
X268410236Y-106403343D01*
X268096832Y-100323462D01*
X268084675Y-100275423D01*
X268062844Y-100243346D01*
X266284844Y-98338346D01*
X266279619Y-98333065D01*
X262828512Y-95043969D01*
X262828512Y-89510372D01*
X269580242Y-89510372D01*
X270384990Y-94002396D01*
G04 #@! TO.N,Net-(Conn7-Pad2)*
G36*
X271659517Y-120055161D02*
X271685079Y-120099374D01*
X276733000Y-125778285D01*
X276733000Y-130683000D01*
X267589000Y-130683000D01*
X267589000Y-124714000D01*
X267579333Y-124665399D01*
X267558523Y-124631463D01*
X265842011Y-122624091D01*
X265841855Y-122623909D01*
X263017000Y-119332968D01*
X263017000Y-114427000D01*
X269783463Y-114427000D01*
X271659517Y-120055161D01*
X271659517Y-120055161D01*
G37*
X271659517Y-120055161D02*
X271685079Y-120099374D01*
X276733000Y-125778285D01*
X276733000Y-130683000D01*
X267589000Y-130683000D01*
X267589000Y-124714000D01*
X267579333Y-124665399D01*
X267558523Y-124631463D01*
X265842011Y-122624091D01*
X265841855Y-122623909D01*
X263017000Y-119332968D01*
X263017000Y-114427000D01*
X269783463Y-114427000D01*
X271659517Y-120055161D01*
G04 #@! TO.N,Net-(Q5-Pad2)*
G36*
X209423000Y-29083000D02*
X202692000Y-29083000D01*
X202692000Y-15367000D01*
X209423000Y-15367000D01*
X209423000Y-29083000D01*
X209423000Y-29083000D01*
G37*
X209423000Y-29083000D02*
X202692000Y-29083000D01*
X202692000Y-15367000D01*
X209423000Y-15367000D01*
X209423000Y-29083000D01*
G04 #@! TO.N,Net-(Q5-Pad3)*
G36*
X216916000Y-24206674D02*
X216916000Y-26543000D01*
X214047606Y-26543000D01*
X212814803Y-25310197D01*
X212773601Y-25282667D01*
X212725000Y-25273000D01*
X210312000Y-25273000D01*
X210312000Y-22987000D01*
X214598618Y-22987000D01*
X216916000Y-24206674D01*
X216916000Y-24206674D01*
G37*
X216916000Y-24206674D02*
X216916000Y-26543000D01*
X214047606Y-26543000D01*
X212814803Y-25310197D01*
X212773601Y-25282667D01*
X212725000Y-25273000D01*
X210312000Y-25273000D01*
X210312000Y-22987000D01*
X214598618Y-22987000D01*
X216916000Y-24206674D01*
G04 #@! TO.N,Net-(Conn3-Pad2)*
G36*
X231648000Y-28448000D02*
X224181067Y-28448000D01*
X219760028Y-26553269D01*
X219710000Y-26543000D01*
X217424000Y-26543000D01*
X217424000Y-24206674D01*
X219768010Y-22972985D01*
X221009980Y-22352000D01*
X231648000Y-22352000D01*
X231648000Y-28448000D01*
X231648000Y-28448000D01*
G37*
X231648000Y-28448000D02*
X224181067Y-28448000D01*
X219760028Y-26553269D01*
X219710000Y-26543000D01*
X217424000Y-26543000D01*
X217424000Y-24206674D01*
X219768010Y-22972985D01*
X221009980Y-22352000D01*
X231648000Y-22352000D01*
X231648000Y-28448000D01*
G04 #@! TO.N,Net-(Q4-Pad2)*
G36*
X168783000Y-22755885D02*
X165710093Y-23370466D01*
X165664332Y-23389477D01*
X165629330Y-23424553D01*
X165608000Y-23495000D01*
X165608000Y-30353000D01*
X158242000Y-30353000D01*
X158242000Y-22912606D01*
X160109803Y-21044803D01*
X160115577Y-21038630D01*
X164522628Y-16002000D01*
X168783000Y-16002000D01*
X168783000Y-22755885D01*
X168783000Y-22755885D01*
G37*
X168783000Y-22755885D02*
X165710093Y-23370466D01*
X165664332Y-23389477D01*
X165629330Y-23424553D01*
X165608000Y-23495000D01*
X165608000Y-30353000D01*
X158242000Y-30353000D01*
X158242000Y-22912606D01*
X160109803Y-21044803D01*
X160115577Y-21038630D01*
X164522628Y-16002000D01*
X168783000Y-16002000D01*
X168783000Y-22755885D01*
G04 #@! TO.N,Net-(Q4-Pad3)*
G36*
X173101000Y-24868269D02*
X173101000Y-27178000D01*
X170203581Y-27178000D01*
X167005000Y-25947777D01*
X167005000Y-24257000D01*
X170166909Y-24257000D01*
X173101000Y-24868269D01*
X173101000Y-24868269D01*
G37*
X173101000Y-24868269D02*
X173101000Y-27178000D01*
X170203581Y-27178000D01*
X167005000Y-25947777D01*
X167005000Y-24257000D01*
X170166909Y-24257000D01*
X173101000Y-24868269D01*
G04 #@! TO.N,Net-(Conn2-Pad2)*
G36*
X188087000Y-28321000D02*
X180862465Y-28321000D01*
X175923557Y-27181252D01*
X175895000Y-27178000D01*
X173609000Y-27178000D01*
X173609000Y-24854499D01*
X175302715Y-24249601D01*
X175307167Y-24247917D01*
X176918671Y-23603316D01*
X177009649Y-23641000D01*
X177320351Y-23641000D01*
X177607401Y-23522100D01*
X177827100Y-23302401D01*
X177858108Y-23227541D01*
X178459460Y-22987000D01*
X179705000Y-22987000D01*
X179765814Y-22971493D01*
X181134385Y-22225000D01*
X188087000Y-22225000D01*
X188087000Y-28321000D01*
X188087000Y-28321000D01*
G37*
X188087000Y-28321000D02*
X180862465Y-28321000D01*
X175923557Y-27181252D01*
X175895000Y-27178000D01*
X173609000Y-27178000D01*
X173609000Y-24854499D01*
X175302715Y-24249601D01*
X175307167Y-24247917D01*
X176918671Y-23603316D01*
X177009649Y-23641000D01*
X177320351Y-23641000D01*
X177607401Y-23522100D01*
X177827100Y-23302401D01*
X177858108Y-23227541D01*
X178459460Y-22987000D01*
X179705000Y-22987000D01*
X179765814Y-22971493D01*
X181134385Y-22225000D01*
X188087000Y-22225000D01*
X188087000Y-28321000D01*
G04 #@! TO.N,Net-(C14-Pad1)*
G36*
X253238000Y-21388779D02*
X253219000Y-21434649D01*
X253219000Y-21745351D01*
X253238000Y-21791221D01*
X253238000Y-24563779D01*
X253219000Y-24609649D01*
X253219000Y-24920351D01*
X253238000Y-24966221D01*
X253238000Y-26035000D01*
X253247667Y-26083601D01*
X253275197Y-26124803D01*
X253316399Y-26152333D01*
X253365000Y-26162000D01*
X258191000Y-26162000D01*
X258191000Y-28515517D01*
X255224020Y-30988000D01*
X247777000Y-30988000D01*
X247777000Y-29036851D01*
X247871000Y-28809915D01*
X247871000Y-28340085D01*
X247777000Y-28113149D01*
X247777000Y-15367000D01*
X253238000Y-15367000D01*
X253238000Y-21388779D01*
X253238000Y-21388779D01*
G37*
X253238000Y-21388779D02*
X253219000Y-21434649D01*
X253219000Y-21745351D01*
X253238000Y-21791221D01*
X253238000Y-24563779D01*
X253219000Y-24609649D01*
X253219000Y-24920351D01*
X253238000Y-24966221D01*
X253238000Y-26035000D01*
X253247667Y-26083601D01*
X253275197Y-26124803D01*
X253316399Y-26152333D01*
X253365000Y-26162000D01*
X258191000Y-26162000D01*
X258191000Y-28515517D01*
X255224020Y-30988000D01*
X247777000Y-30988000D01*
X247777000Y-29036851D01*
X247871000Y-28809915D01*
X247871000Y-28340085D01*
X247777000Y-28113149D01*
X247777000Y-15367000D01*
X253238000Y-15367000D01*
X253238000Y-21388779D01*
G04 #@! TO.N,Net-(Conn1-Pad2)*
G36*
X274193000Y-28321000D02*
X258699000Y-28321000D01*
X258699000Y-26210926D01*
X261041361Y-23622000D01*
X264160000Y-23622000D01*
X264208601Y-23612333D01*
X264245817Y-23588619D01*
X265733401Y-22225000D01*
X274193000Y-22225000D01*
X274193000Y-28321000D01*
X274193000Y-28321000D01*
G37*
X274193000Y-28321000D02*
X258699000Y-28321000D01*
X258699000Y-26210926D01*
X261041361Y-23622000D01*
X264160000Y-23622000D01*
X264208601Y-23612333D01*
X264245817Y-23588619D01*
X265733401Y-22225000D01*
X274193000Y-22225000D01*
X274193000Y-28321000D01*
G04 #@! TO.N,Net-(C10-Pad1)*
G36*
X156083000Y-44450000D02*
X156092667Y-44498601D01*
X156120197Y-44539803D01*
X156161399Y-44567333D01*
X156210000Y-44577000D01*
X176765000Y-44577000D01*
X176765000Y-44655874D01*
X176922569Y-45036280D01*
X177213720Y-45327431D01*
X177594126Y-45485000D01*
X178005874Y-45485000D01*
X178386280Y-45327431D01*
X178677431Y-45036280D01*
X178752500Y-44855047D01*
X178827569Y-45036280D01*
X179118720Y-45327431D01*
X179499126Y-45485000D01*
X179910874Y-45485000D01*
X180291280Y-45327431D01*
X180582431Y-45036280D01*
X180740000Y-44655874D01*
X180740000Y-44640500D01*
X186608699Y-44640500D01*
X186690000Y-44656672D01*
X186771301Y-44640500D01*
X186771303Y-44640500D01*
X187012094Y-44592604D01*
X187035447Y-44577000D01*
X188722000Y-44577000D01*
X188770601Y-44567333D01*
X188811803Y-44539803D01*
X188839333Y-44498601D01*
X188849000Y-44450000D01*
X188849000Y-36753350D01*
X188995000Y-36400874D01*
X188995000Y-35989126D01*
X188849000Y-35636650D01*
X188849000Y-15621000D01*
X194183000Y-15621000D01*
X194183000Y-28405912D01*
X194061843Y-28587235D01*
X194012560Y-28835000D01*
X194012560Y-29585000D01*
X194061843Y-29832765D01*
X194183000Y-30014088D01*
X194183000Y-54482926D01*
X161688170Y-54464067D01*
X161458795Y-54234692D01*
X160525238Y-53848000D01*
X159514762Y-53848000D01*
X158581205Y-54234692D01*
X158353765Y-54462132D01*
X157200666Y-54461462D01*
X156639452Y-54229000D01*
X155780548Y-54229000D01*
X155222107Y-54460314D01*
X153385320Y-54459248D01*
X152829452Y-54229000D01*
X151970548Y-54229000D01*
X151417438Y-54458106D01*
X150545874Y-54457600D01*
X150497267Y-54467239D01*
X150456050Y-54494745D01*
X150428496Y-54535931D01*
X150418800Y-54584600D01*
X150418800Y-55529301D01*
X150241000Y-55958548D01*
X150241000Y-56817452D01*
X150418800Y-57246699D01*
X150418800Y-59309000D01*
X142367000Y-59309000D01*
X142367000Y-48387000D01*
X150495000Y-48387000D01*
X150543601Y-48377333D01*
X150584803Y-48349803D01*
X150612333Y-48308601D01*
X150622000Y-48260000D01*
X150622000Y-15367000D01*
X156083000Y-15367000D01*
X156083000Y-44450000D01*
X156083000Y-44450000D01*
G37*
X156083000Y-44450000D02*
X156092667Y-44498601D01*
X156120197Y-44539803D01*
X156161399Y-44567333D01*
X156210000Y-44577000D01*
X176765000Y-44577000D01*
X176765000Y-44655874D01*
X176922569Y-45036280D01*
X177213720Y-45327431D01*
X177594126Y-45485000D01*
X178005874Y-45485000D01*
X178386280Y-45327431D01*
X178677431Y-45036280D01*
X178752500Y-44855047D01*
X178827569Y-45036280D01*
X179118720Y-45327431D01*
X179499126Y-45485000D01*
X179910874Y-45485000D01*
X180291280Y-45327431D01*
X180582431Y-45036280D01*
X180740000Y-44655874D01*
X180740000Y-44640500D01*
X186608699Y-44640500D01*
X186690000Y-44656672D01*
X186771301Y-44640500D01*
X186771303Y-44640500D01*
X187012094Y-44592604D01*
X187035447Y-44577000D01*
X188722000Y-44577000D01*
X188770601Y-44567333D01*
X188811803Y-44539803D01*
X188839333Y-44498601D01*
X188849000Y-44450000D01*
X188849000Y-36753350D01*
X188995000Y-36400874D01*
X188995000Y-35989126D01*
X188849000Y-35636650D01*
X188849000Y-15621000D01*
X194183000Y-15621000D01*
X194183000Y-28405912D01*
X194061843Y-28587235D01*
X194012560Y-28835000D01*
X194012560Y-29585000D01*
X194061843Y-29832765D01*
X194183000Y-30014088D01*
X194183000Y-54482926D01*
X161688170Y-54464067D01*
X161458795Y-54234692D01*
X160525238Y-53848000D01*
X159514762Y-53848000D01*
X158581205Y-54234692D01*
X158353765Y-54462132D01*
X157200666Y-54461462D01*
X156639452Y-54229000D01*
X155780548Y-54229000D01*
X155222107Y-54460314D01*
X153385320Y-54459248D01*
X152829452Y-54229000D01*
X151970548Y-54229000D01*
X151417438Y-54458106D01*
X150545874Y-54457600D01*
X150497267Y-54467239D01*
X150456050Y-54494745D01*
X150428496Y-54535931D01*
X150418800Y-54584600D01*
X150418800Y-55529301D01*
X150241000Y-55958548D01*
X150241000Y-56817452D01*
X150418800Y-57246699D01*
X150418800Y-59309000D01*
X142367000Y-59309000D01*
X142367000Y-48387000D01*
X150495000Y-48387000D01*
X150543601Y-48377333D01*
X150584803Y-48349803D01*
X150612333Y-48308601D01*
X150622000Y-48260000D01*
X150622000Y-15367000D01*
X156083000Y-15367000D01*
X156083000Y-44450000D01*
G04 #@! TO.N,Net-(C11-Pad1)*
G36*
X237998000Y-51943000D02*
X202920600Y-51943000D01*
X202871999Y-51952667D01*
X202830797Y-51980197D01*
X202803267Y-52021399D01*
X202793601Y-52069526D01*
X202784861Y-54411755D01*
X202565000Y-54942548D01*
X202565000Y-55801452D01*
X202777760Y-56315099D01*
X202768672Y-58750601D01*
X195021943Y-58775194D01*
X195071695Y-50217911D01*
X198172606Y-47117000D01*
X232410000Y-47117000D01*
X232458601Y-47107333D01*
X232499803Y-47079803D01*
X232527333Y-47038601D01*
X232537000Y-46990000D01*
X232537000Y-15367000D01*
X237998000Y-15367000D01*
X237998000Y-51943000D01*
X237998000Y-51943000D01*
G37*
X237998000Y-51943000D02*
X202920600Y-51943000D01*
X202871999Y-51952667D01*
X202830797Y-51980197D01*
X202803267Y-52021399D01*
X202793601Y-52069526D01*
X202784861Y-54411755D01*
X202565000Y-54942548D01*
X202565000Y-55801452D01*
X202777760Y-56315099D01*
X202768672Y-58750601D01*
X195021943Y-58775194D01*
X195071695Y-50217911D01*
X198172606Y-47117000D01*
X232410000Y-47117000D01*
X232458601Y-47107333D01*
X232499803Y-47079803D01*
X232527333Y-47038601D01*
X232537000Y-46990000D01*
X232537000Y-15367000D01*
X237998000Y-15367000D01*
X237998000Y-51943000D01*
G04 #@! TD*
M02*
