M48
;DRILL file {KiCad (5.0.2)-1} date 3/5/2019 12:25:18 AM
;FORMAT={-:-/ absolute / inch / decimal}
FMAT,2
INCH,TZ
T1C0.0157
T2C0.0300
T3C0.0315
T4C0.0350
T5C0.0394
T6C0.0472
T7C0.0630
T8C0.0660
T9C0.0700
T10C0.0900
T11C0.1598
T12C0.1616
T13C0.3600
%
G90
G05
T1
X1.88Y-4.78
X1.9Y-5.39
X1.95Y-3.44
X1.96Y-4.08
X2.05Y-1.675
X2.1Y-1.725
X2.15Y-1.625
X2.2Y-1.725
X2.25Y-1.575
X2.3Y-1.725
X2.4Y-1.675
X2.4Y-2.075
X2.4Y-2.3
X2.4Y-2.36
X2.45Y-1.675
X2.6024Y-1.9274
X2.75Y-1.9
X2.965Y-2.04
X3.35Y-1.9
X3.4874Y-5.4
X3.6Y-5.3063
X3.61Y-4.0063
X3.625Y-3.2563
X3.65Y-4.6763
X3.7Y-2.95
X3.7Y-3.5
X3.7Y-3.65
X3.7Y-4.175
X3.7Y-4.825
X3.7Y-4.975
X3.725Y-4.325
X3.825Y-4.325
X3.83Y-3.705
X3.835Y-4.115
X3.84Y-4.825
X3.84Y-4.975
X3.85Y-5.42
X3.9354Y-3.53
X3.94Y-2.3
X3.95Y-3.3563
X4.Y-3.35
X4.Y-4.025
X4.Y-4.675
X4.Y-5.3
X4.07Y-2.36
X4.2Y-5.4
X4.4Y-3.02
X4.55Y-2.83
X4.575Y-2.7
X4.75Y-1.475
X4.7994Y-2.9256
X4.85Y-1.45
X4.95Y-1.425
X5.025Y-2.825
X5.175Y-1.9
X5.225Y-2.75
X5.225Y-2.9
X5.8Y-1.1
X6.7Y-0.525
X6.8Y-0.58
X6.975Y-0.9
X7.Y-1.75
X7.025Y-2.825
X7.025Y-2.925
X7.025Y-3.025
X7.05Y-1.4
X7.075Y-1.75
X7.4Y-1.425
X7.8Y-1.15
X7.825Y-1.425
X8.3Y-0.525
X8.35Y-0.86
X8.38Y-0.61
X8.6633Y-0.6067
X8.7Y-1.35
X9.6687Y-5.0187
X9.7002Y-4.8252
X9.725Y-3.075
X9.725Y-4.05
X9.7426Y-3.775
X9.7676Y-2.85
X9.8268Y-4.7518
X9.85Y-3.65
X9.875Y-2.8
X9.925Y-1.325
X9.925Y-4.75
X9.9696Y-4.7114
X9.975Y-3.95
X9.975Y-4.925
X10.Y-0.85
X10.Y-0.975
X10.Y-2.975
X10.Y-3.8
X10.Y-4.0437
X10.025Y-3.0687
X10.05Y-2.825
X10.1Y-0.575
X10.35Y-0.575
X11.34Y-3.08
X11.35Y-4.125
X11.4Y-5.1
T2
X2.08Y-2.04
X2.08Y-2.14
T3
X7.6Y-1.8
X7.7378Y-1.8
X9.7122Y-1.125
X9.85Y-1.125
X7.6Y-1.35
X7.7378Y-1.35
X5.8622Y-1.8
X6.Y-1.8
X6.0872Y-1.375
X6.225Y-1.375
X9.3Y-1.45
X9.4378Y-1.45
T4
X6.925Y-2.65
X7.025Y-2.65
X7.125Y-2.65
T5
X1.75Y-0.8
X1.75Y-0.9
X1.75Y-2.5
X1.75Y-2.6
X1.85Y-0.8
X1.85Y-0.9
X1.85Y-2.5
X1.85Y-2.6
X1.95Y-0.8
X1.95Y-0.9
X1.95Y-2.5
X1.95Y-2.6
X2.05Y-0.8
X2.05Y-0.9
X2.05Y-2.5
X2.05Y-2.6
X2.15Y-0.8
X2.15Y-0.9
X2.15Y-2.5
X2.15Y-2.6
X2.25Y-0.8
X2.25Y-0.9
X2.25Y-2.5
X2.25Y-2.6
X2.35Y-0.8
X2.35Y-0.9
X2.35Y-2.5
X2.35Y-2.6
X2.45Y-0.8
X2.45Y-0.9
X2.45Y-2.5
X2.45Y-2.6
X2.55Y-0.8
X2.55Y-0.9
X2.55Y-2.5
X2.55Y-2.6
X2.65Y-0.8
X2.65Y-0.9
X2.65Y-2.5
X2.65Y-2.6
X4.25Y-0.8
X4.25Y-0.9
X4.25Y-2.5
X4.25Y-2.6
X4.35Y-0.8
X4.35Y-0.9
X4.35Y-2.5
X4.35Y-2.6
X4.45Y-0.8
X4.45Y-0.9
X4.45Y-2.5
X4.45Y-2.6
X4.55Y-0.8
X4.55Y-0.9
X4.55Y-2.5
X4.55Y-2.6
X4.65Y-0.8
X4.65Y-0.9
X4.65Y-2.5
X4.65Y-2.6
X4.75Y-0.8
X4.75Y-0.9
X4.75Y-2.5
X4.75Y-2.6
X4.85Y-0.8
X4.85Y-0.9
X4.85Y-2.5
X4.85Y-2.6
X4.95Y-0.8
X4.95Y-0.9
X4.95Y-2.5
X4.95Y-2.6
X5.05Y-0.8
X5.05Y-0.9
X5.05Y-2.5
X5.05Y-2.6
X5.15Y-0.8
X5.15Y-0.9
X5.15Y-2.5
X5.15Y-2.6
T6
X7.475Y-4.65
X7.6719Y-4.65
X6.375Y-5.2
X6.5719Y-5.2
X7.475Y-5.2
X7.6719Y-5.2
X6.375Y-4.65
X6.5719Y-4.65
T7
X6.9Y-4.95
X7.1Y-4.95
X6.9Y-5.3
X7.1Y-5.3
T8
X4.275Y-5.1
X4.275Y-5.235
X4.805Y-5.1
X4.805Y-5.235
X9.045Y-4.215
X9.045Y-4.35
X9.575Y-4.215
X9.575Y-4.35
X9.045Y-5.165
X9.045Y-5.3
X9.575Y-5.165
X9.575Y-5.3
X6.045Y-0.69
X6.045Y-0.825
X6.575Y-0.69
X6.575Y-0.825
X9.07Y-3.24
X9.07Y-3.375
X9.6Y-3.24
X9.6Y-3.375
X4.275Y-3.825
X4.275Y-3.96
X4.805Y-3.825
X4.805Y-3.96
X4.275Y-4.475
X4.275Y-4.61
X4.805Y-4.475
X4.805Y-4.61
X7.57Y-0.69
X7.57Y-0.825
X8.1Y-0.69
X8.1Y-0.825
X4.275Y-3.175
X4.275Y-3.31
X4.805Y-3.175
X4.805Y-3.31
X9.295Y-0.69
X9.295Y-0.825
X9.825Y-0.69
X9.825Y-0.825
T9
X7.76Y-4.18
X7.91Y-2.18
X8.06Y-2.18
X8.06Y-4.18
X8.21Y-2.18
X8.36Y-4.18
X5.7Y-4.22
X5.85Y-2.22
X6.Y-2.22
X6.Y-4.22
X6.15Y-2.22
X6.3Y-4.22
T10
X7.76Y-2.18
X8.36Y-2.18
X5.7Y-2.22
X6.3Y-2.22
T11
X10.49Y-3.65
X10.8Y-3.65
X10.49Y-2.65
X10.8Y-2.65
X2.275Y-3.075
X2.585Y-3.075
X2.275Y-5.
X2.585Y-5.
X2.275Y-3.65
X2.585Y-3.65
X10.49Y-4.625
X10.8Y-4.625
X2.275Y-4.3
X2.585Y-4.3
T12
X8.999Y-0.6855
X8.999Y-0.9965
X10.669Y-0.6855
X10.669Y-0.9965
X7.299Y-0.6855
X7.299Y-0.9965
T13
X8.25Y-4.95
X5.75Y-4.925
T0
M30
