G04 #@! TF.GenerationSoftware,KiCad,Pcbnew,(5.0.2)-1*
G04 #@! TF.CreationDate,2019-03-05T00:25:16-06:00*
G04 #@! TF.ProjectId,PowerBoard_Hardware,506f7765-7242-46f6-9172-645f48617264,rev?*
G04 #@! TF.SameCoordinates,Original*
G04 #@! TF.FileFunction,Copper,L2,Inr*
G04 #@! TF.FilePolarity,Positive*
%FSLAX46Y46*%
G04 Gerber Fmt 4.6, Leading zero omitted, Abs format (unit mm)*
G04 Created by KiCad (PCBNEW (5.0.2)-1) date 3/5/2019 12:25:16 AM*
%MOMM*%
%LPD*%
G01*
G04 APERTURE LIST*
G04 #@! TA.AperFunction,ViaPad*
%ADD10C,3.048000*%
G04 #@! TD*
G04 #@! TA.AperFunction,ViaPad*
%ADD11C,3.810000*%
G04 #@! TD*
G04 #@! TA.AperFunction,ViaPad*
%ADD12R,3.200000X3.200000*%
G04 #@! TD*
G04 #@! TA.AperFunction,ViaPad*
%ADD13O,3.200000X3.200000*%
G04 #@! TD*
G04 #@! TA.AperFunction,ViaPad*
%ADD14C,2.400000*%
G04 #@! TD*
G04 #@! TA.AperFunction,ViaPad*
%ADD15R,2.400000X2.400000*%
G04 #@! TD*
G04 #@! TA.AperFunction,ViaPad*
%ADD16C,1.524000*%
G04 #@! TD*
G04 #@! TA.AperFunction,ViaPad*
%ADD17C,5.080000*%
G04 #@! TD*
G04 #@! TA.AperFunction,ViaPad*
%ADD18C,1.520000*%
G04 #@! TD*
G04 #@! TA.AperFunction,ViaPad*
%ADD19C,2.819400*%
G04 #@! TD*
G04 #@! TA.AperFunction,ViaPad*
%ADD20C,1.600000*%
G04 #@! TD*
G04 #@! TA.AperFunction,ViaPad*
%ADD21R,1.600000X1.600000*%
G04 #@! TD*
G04 #@! TA.AperFunction,ViaPad*
%ADD22C,18.288000*%
G04 #@! TD*
G04 #@! TA.AperFunction,ViaPad*
%ADD23C,0.800000*%
G04 #@! TD*
G04 #@! TA.AperFunction,Conductor*
%ADD24C,1.016000*%
G04 #@! TD*
G04 #@! TA.AperFunction,Conductor*
%ADD25C,0.381000*%
G04 #@! TD*
G04 #@! TA.AperFunction,Conductor*
%ADD26C,0.254000*%
G04 #@! TD*
G04 APERTURE END LIST*
D10*
G04 #@! TO.N,GND*
G04 #@! TO.C,Dahlbot*
X156210000Y-56388000D03*
G04 #@! TO.N,N/C*
X152400000Y-56388000D03*
G04 #@! TO.N,Net-(C10-Pad1)*
X148590000Y-56388000D03*
D11*
X144780000Y-56388000D03*
G04 #@! TO.N,GND*
X160020000Y-56388000D03*
D10*
G04 #@! TO.N,PVDD*
X144780000Y-107188000D03*
G04 #@! TO.N,Net-(CONV1-Pad2)*
X152400000Y-107188000D03*
G04 #@! TO.N,GND*
X160020000Y-107188000D03*
G04 #@! TD*
G04 #@! TO.N,GND*
G04 #@! TO.C,The Van*
X208534000Y-55372000D03*
G04 #@! TO.N,N/C*
X204724000Y-55372000D03*
G04 #@! TO.N,Net-(C11-Pad1)*
X200914000Y-55372000D03*
D11*
X197104000Y-55372000D03*
G04 #@! TO.N,GND*
X212344000Y-55372000D03*
D10*
G04 #@! TO.N,PVDD*
X197104000Y-106172000D03*
G04 #@! TO.N,Net-(CONV2-Pad2)*
X204724000Y-106172000D03*
G04 #@! TO.N,GND*
X212344000Y-106172000D03*
G04 #@! TD*
D12*
G04 #@! TO.N,PVDD*
G04 #@! TO.C,D12*
X175260000Y-125730000D03*
D13*
G04 #@! TO.N,GND*
X180340000Y-125730000D03*
G04 #@! TD*
G04 #@! TO.N,GND*
G04 #@! TO.C,D13*
X180340000Y-134620000D03*
D12*
G04 #@! TO.N,PVDD*
X175260000Y-134620000D03*
G04 #@! TD*
D14*
G04 #@! TO.N,GND*
G04 #@! TO.C,C1*
X194865000Y-132080000D03*
D15*
G04 #@! TO.N,PVDD*
X189865000Y-132080000D03*
G04 #@! TD*
G04 #@! TO.N,PVDD*
G04 #@! TO.C,C2*
X161925000Y-132080000D03*
D14*
G04 #@! TO.N,GND*
X166925000Y-132080000D03*
G04 #@! TD*
G04 #@! TO.N,GND*
G04 #@! TO.C,C3*
X194865000Y-118110000D03*
D15*
G04 #@! TO.N,PVDD*
X189865000Y-118110000D03*
G04 #@! TD*
G04 #@! TO.N,PVDD*
G04 #@! TO.C,C5*
X161925000Y-118110000D03*
D14*
G04 #@! TO.N,GND*
X166925000Y-118110000D03*
G04 #@! TD*
D16*
G04 #@! TO.N,Net-(3V3FAN1-Pad1)*
G04 #@! TO.C,3V3FAN1*
X52832000Y-54356000D03*
G04 #@! TO.N,+3.3VA*
X52832000Y-51816000D03*
G04 #@! TD*
D17*
G04 #@! TO.N,Net-(Conn5-Pad2)*
G04 #@! TO.C,Conn5*
X266446000Y-67310000D03*
G04 #@! TO.N,GND*
X274320000Y-67310000D03*
G04 #@! TD*
G04 #@! TO.N,Net-(Conn6-Pad2)*
G04 #@! TO.C,Conn6*
X266446000Y-92710000D03*
G04 #@! TO.N,GND*
X274320000Y-92710000D03*
G04 #@! TD*
G04 #@! TO.N,Net-(Conn7-Pad2)*
G04 #@! TO.C,Conn7*
X266446000Y-117475000D03*
G04 #@! TO.N,GND*
X274320000Y-117475000D03*
G04 #@! TD*
G04 #@! TO.N,GND*
G04 #@! TO.C,Conn8*
X57785000Y-78105000D03*
G04 #@! TO.N,Net-(Conn8-Pad2)*
X65659000Y-78105000D03*
G04 #@! TD*
G04 #@! TO.N,Net-(Conn9-Pad2)*
G04 #@! TO.C,Conn9*
X65659000Y-92710000D03*
G04 #@! TO.N,GND*
X57785000Y-92710000D03*
G04 #@! TD*
G04 #@! TO.N,GND*
G04 #@! TO.C,Conn10*
X57785000Y-109220000D03*
G04 #@! TO.N,Net-(Conn10-Pad2)*
X65659000Y-109220000D03*
G04 #@! TD*
G04 #@! TO.N,Net-(Conn11-Pad2)*
G04 #@! TO.C,Conn11*
X65659000Y-127000000D03*
G04 #@! TO.N,GND*
X57785000Y-127000000D03*
G04 #@! TD*
D18*
G04 #@! TO.N,+3.3VA*
G04 #@! TO.C,U1*
X67310000Y-20320000D03*
G04 #@! TO.N,N/C*
X44450000Y-66040000D03*
X46990000Y-66040000D03*
X54610000Y-66040000D03*
G04 #@! TO.N,AUX_IMEAS*
X57150000Y-22860000D03*
G04 #@! TO.N,N/C*
X52070000Y-66040000D03*
X49530000Y-66040000D03*
X52070000Y-20320000D03*
X46990000Y-22860000D03*
G04 #@! TO.N,Net-(U1-PadRese)*
X57150000Y-66040000D03*
G04 #@! TO.N,N/C*
X59690000Y-66040000D03*
X46990000Y-20320000D03*
G04 #@! TO.N,MM_IMEAS*
X52070000Y-22860000D03*
G04 #@! TO.N,BM_IMEAS*
X54610000Y-22860000D03*
G04 #@! TO.N,Net-(U1-Pad+5V)*
X67310000Y-22860000D03*
G04 #@! TO.N,GND*
X64770000Y-22860000D03*
G04 #@! TO.N,GE_IMEAS*
X62230000Y-22860000D03*
G04 #@! TO.N,ROCKET_IMEAS*
X59690000Y-22860000D03*
G04 #@! TO.N,FM_IMEAS*
X49530000Y-22860000D03*
G04 #@! TO.N,N/C*
X44450000Y-22860000D03*
X64770000Y-20320000D03*
X62230000Y-20320000D03*
X59690000Y-20320000D03*
X57150000Y-20320000D03*
X54610000Y-20320000D03*
X49530000Y-20320000D03*
X44450000Y-20320000D03*
X67310000Y-63500000D03*
X64770000Y-63500000D03*
G04 #@! TO.N,EM_CTL*
X62230000Y-63500000D03*
G04 #@! TO.N,N/C*
X59690000Y-63500000D03*
G04 #@! TO.N,GE_CTL*
X57150000Y-63500000D03*
G04 #@! TO.N,ROCKET_CTL*
X54610000Y-63500000D03*
G04 #@! TO.N,AUX_CTL*
X52070000Y-63500000D03*
G04 #@! TO.N,BM_CTL*
X49530000Y-63500000D03*
G04 #@! TO.N,MM_CTL*
X46990000Y-63500000D03*
G04 #@! TO.N,FM_CTL*
X44450000Y-63500000D03*
G04 #@! TO.N,GND*
X67310000Y-66040000D03*
G04 #@! TO.N,N/C*
X64770000Y-66040000D03*
X62230000Y-66040000D03*
G04 #@! TO.N,Net-(U1-Pad+5V)*
X130810000Y-22860000D03*
G04 #@! TO.N,GND*
X128270000Y-22860000D03*
G04 #@! TO.N,COM_IMEAS*
X125730000Y-22860000D03*
G04 #@! TO.N,LOGIC_IMEAS*
X123190000Y-22860000D03*
G04 #@! TO.N,ACT_IMEAS*
X120650000Y-22860000D03*
G04 #@! TO.N,N/C*
X118110000Y-22860000D03*
X115570000Y-22860000D03*
X113030000Y-22860000D03*
X110490000Y-22860000D03*
X107950000Y-22860000D03*
G04 #@! TO.N,+3.3VA*
X130810000Y-20320000D03*
G04 #@! TO.N,N/C*
X128270000Y-20320000D03*
X125730000Y-20320000D03*
X123190000Y-20320000D03*
X120650000Y-20320000D03*
X118110000Y-20320000D03*
X115570000Y-20320000D03*
X113030000Y-20320000D03*
X110490000Y-20320000D03*
X107950000Y-20320000D03*
X130810000Y-63500000D03*
X128270000Y-63500000D03*
X125730000Y-63500000D03*
X123190000Y-63500000D03*
X120650000Y-63500000D03*
X118110000Y-63500000D03*
X115570000Y-63500000D03*
X113030000Y-63500000D03*
X110490000Y-63500000D03*
X107950000Y-63500000D03*
G04 #@! TO.N,GND*
X130810000Y-66040000D03*
G04 #@! TO.N,FAN_CTL*
X128270000Y-66040000D03*
G04 #@! TO.N,COM_CTL*
X125730000Y-66040000D03*
G04 #@! TO.N,N/C*
X123190000Y-66040000D03*
G04 #@! TO.N,Net-(U1-PadRese)*
X120650000Y-66040000D03*
G04 #@! TO.N,LOGIC_CTL*
X118110000Y-66040000D03*
G04 #@! TO.N,EM_IMEAS*
X115570000Y-66040000D03*
G04 #@! TO.N,N/C*
X113030000Y-66040000D03*
G04 #@! TO.N,ACT_CTL*
X110490000Y-66040000D03*
G04 #@! TO.N,LOGIC\005CCOM_CTL*
X107950000Y-66040000D03*
G04 #@! TD*
D19*
G04 #@! TO.N,Net-(C10-Pad1)*
G04 #@! TO.C,U2*
X192278000Y-17526000D03*
X192278000Y-20955000D03*
G04 #@! TO.N,Net-(Q5-Pad2)*
X205740000Y-20955000D03*
X205740000Y-17526000D03*
G04 #@! TD*
G04 #@! TO.N,Net-(C11-Pad1)*
G04 #@! TO.C,U3*
X236093000Y-17526000D03*
X236093000Y-20955000D03*
G04 #@! TO.N,Net-(C14-Pad1)*
X249555000Y-20955000D03*
X249555000Y-17526000D03*
G04 #@! TD*
G04 #@! TO.N,Net-(Q4-Pad2)*
G04 #@! TO.C,U4*
X167005000Y-17526000D03*
X167005000Y-20955000D03*
G04 #@! TO.N,Net-(C10-Pad1)*
X153543000Y-20955000D03*
X153543000Y-17526000D03*
G04 #@! TD*
D16*
G04 #@! TO.N,PVDD*
G04 #@! TO.C,U10*
X180975000Y-67310000D03*
G04 #@! TO.N,GND*
X178435000Y-67310000D03*
G04 #@! TO.N,+3.3VA*
X175895000Y-67310000D03*
G04 #@! TD*
D19*
G04 #@! TO.N,Net-(U15-Pad1)*
G04 #@! TO.C,U15*
X243840000Y-82296000D03*
X243840000Y-85725000D03*
G04 #@! TO.N,PVDD*
X230378000Y-85725000D03*
X230378000Y-82296000D03*
G04 #@! TD*
G04 #@! TO.N,PVDD*
G04 #@! TO.C,U17*
X229743000Y-107061000D03*
X229743000Y-110490000D03*
G04 #@! TO.N,Net-(U17-Pad1)*
X243205000Y-110490000D03*
X243205000Y-107061000D03*
G04 #@! TD*
G04 #@! TO.N,Net-(U18-Pad1)*
G04 #@! TO.C,U18*
X243205000Y-131191000D03*
X243205000Y-134620000D03*
G04 #@! TO.N,PVDD*
X229743000Y-134620000D03*
X229743000Y-131191000D03*
G04 #@! TD*
G04 #@! TO.N,Net-(U27-Pad1)*
G04 #@! TO.C,U27*
X108585000Y-132969000D03*
X108585000Y-129540000D03*
G04 #@! TO.N,PVDD*
X122047000Y-129540000D03*
X122047000Y-132969000D03*
G04 #@! TD*
G04 #@! TO.N,PVDD*
G04 #@! TO.C,U28*
X122047000Y-100584000D03*
X122047000Y-97155000D03*
G04 #@! TO.N,Net-(U28-Pad1)*
X108585000Y-97155000D03*
X108585000Y-100584000D03*
G04 #@! TD*
G04 #@! TO.N,PVDD*
G04 #@! TO.C,U29*
X122047000Y-117094000D03*
X122047000Y-113665000D03*
G04 #@! TO.N,Net-(U29-Pad1)*
X108585000Y-113665000D03*
X108585000Y-117094000D03*
G04 #@! TD*
G04 #@! TO.N,PVDD*
G04 #@! TO.C,U30*
X122047000Y-84074000D03*
X122047000Y-80645000D03*
G04 #@! TO.N,Net-(U30-Pad1)*
X108585000Y-80645000D03*
X108585000Y-84074000D03*
G04 #@! TD*
D17*
G04 #@! TO.N,Net-(Conn1-Pad2)*
G04 #@! TO.C,Conn1*
X270992000Y-25312000D03*
G04 #@! TO.N,GND*
X270992000Y-17412000D03*
G04 #@! TD*
G04 #@! TO.N,GND*
G04 #@! TO.C,Conn2*
X185394000Y-17412000D03*
G04 #@! TO.N,Net-(Conn2-Pad2)*
X185394000Y-25312000D03*
G04 #@! TD*
G04 #@! TO.N,Net-(Conn3-Pad2)*
G04 #@! TO.C,Conn3*
X228574000Y-25312000D03*
G04 #@! TO.N,GND*
X228574000Y-17412000D03*
G04 #@! TD*
D20*
G04 #@! TO.N,GND*
G04 #@! TO.C,C6*
X148900000Y-45720000D03*
D21*
G04 #@! TO.N,Net-(C10-Pad1)*
X152400000Y-45720000D03*
G04 #@! TD*
G04 #@! TO.N,Net-(C10-Pad1)*
G04 #@! TO.C,C8*
X193040000Y-34290000D03*
D20*
G04 #@! TO.N,GND*
X196540000Y-34290000D03*
G04 #@! TD*
D21*
G04 #@! TO.N,Net-(C10-Pad1)*
G04 #@! TO.C,C9*
X154615000Y-34925000D03*
D20*
G04 #@! TO.N,GND*
X158115000Y-34925000D03*
G04 #@! TD*
G04 #@! TO.N,GND*
G04 #@! TO.C,C10*
X196540000Y-45720000D03*
D21*
G04 #@! TO.N,Net-(C10-Pad1)*
X193040000Y-45720000D03*
G04 #@! TD*
G04 #@! TO.N,Net-(C11-Pad1)*
G04 #@! TO.C,C11*
X236220000Y-36830000D03*
D20*
G04 #@! TO.N,GND*
X239720000Y-36830000D03*
G04 #@! TD*
G04 #@! TO.N,GND*
G04 #@! TO.C,C16*
X246690000Y-28575000D03*
D21*
G04 #@! TO.N,Net-(C14-Pad1)*
X250190000Y-28575000D03*
G04 #@! TD*
D22*
G04 #@! TO.N,PVDD*
G04 #@! TO.C,PVDD*
X146050000Y-125095000D03*
G04 #@! TD*
G04 #@! TO.N,GND*
G04 #@! TO.C,REF\002A\002A*
X209550000Y-125730000D03*
G04 #@! TD*
D23*
G04 #@! TO.N,Net-(3V3FAN1-Pad1)*
X60960000Y-52705000D03*
G04 #@! TO.N,Net-(CONV1-Pad2)*
X132715000Y-73660000D03*
G04 #@! TO.N,Net-(CONV2-Pad2)*
X132715000Y-69850000D03*
G04 #@! TO.N,GND*
X254635000Y-77945000D03*
X255270000Y-71755000D03*
X248098000Y-72390000D03*
X247463000Y-95885000D03*
X254000000Y-96520000D03*
X254000000Y-102710000D03*
X246385000Y-122560000D03*
X253365000Y-125095000D03*
X253226999Y-119668999D03*
X212852000Y-15494000D03*
X220048000Y-15410000D03*
X256540000Y-14605000D03*
X262890000Y-14605000D03*
X172720000Y-14732000D03*
X179070000Y-35560000D03*
X198120000Y-29210000D03*
X220980000Y-34290000D03*
X252095000Y-33655000D03*
X178435000Y-71755000D03*
X178435000Y-74295000D03*
X178435000Y-76835000D03*
X147320000Y-27940000D03*
X116205000Y-68580000D03*
X115570000Y-71882000D03*
X121905000Y-74310000D03*
X127635000Y-71755000D03*
X49530000Y-87376000D03*
X49784000Y-103632000D03*
X93980000Y-74930000D03*
X92075000Y-82710000D03*
X93980000Y-92710000D03*
X97282000Y-94107000D03*
X97155000Y-109855000D03*
X92710000Y-118778000D03*
X93980000Y-126365000D03*
X97536000Y-126365000D03*
X91440000Y-134780000D03*
X106680000Y-137160000D03*
X88580000Y-137160000D03*
X94615000Y-109855000D03*
X66100000Y-48955000D03*
X91694000Y-101760000D03*
X288290000Y-104775000D03*
X288036000Y-78232000D03*
X289560000Y-129540000D03*
X47752000Y-121412000D03*
X48260000Y-136906000D03*
G04 #@! TO.N,+3.3VA*
X247015000Y-102870000D03*
X247015000Y-78105000D03*
X245585000Y-127475000D03*
X254000000Y-21590000D03*
X170180000Y-13335000D03*
X210820000Y-13335000D03*
X75311000Y-51816000D03*
X101600000Y-134620000D03*
X101600000Y-118745000D03*
X101600000Y-102235000D03*
X99958200Y-89662000D03*
X100330000Y-85250000D03*
X101600000Y-85090000D03*
G04 #@! TO.N,FAN_CTL*
X85090000Y-48260000D03*
X131445000Y-48260000D03*
X69850000Y-48260000D03*
G04 #@! TO.N,AUX_CTL*
X52070000Y-42545000D03*
X252095000Y-120650000D03*
G04 #@! TO.N,LOGIC_IMEAS*
X123190000Y-36830000D03*
X212090000Y-21844000D03*
G04 #@! TO.N,COM_IMEAS*
X125730000Y-36195000D03*
X177165000Y-22860000D03*
G04 #@! TO.N,ACT_IMEAS*
X120650000Y-37465000D03*
X254000000Y-24765000D03*
G04 #@! TO.N,LOGIC_CTL*
X198755000Y-36195000D03*
X187960000Y-36195000D03*
X179705000Y-44450000D03*
G04 #@! TO.N,COM_CTL*
X177800000Y-44450000D03*
G04 #@! TO.N,AUX_IMEAS*
X249601000Y-120696000D03*
X58420000Y-43815000D03*
G04 #@! TO.N,MM_IMEAS*
X53340000Y-43815000D03*
X97536000Y-122555000D03*
G04 #@! TO.N,BM_IMEAS*
X55880000Y-43815000D03*
X97790000Y-137668000D03*
G04 #@! TO.N,GE_IMEAS*
X62230000Y-42545000D03*
X250825000Y-71120000D03*
G04 #@! TO.N,FM_IMEAS*
X97409000Y-104521000D03*
G04 #@! TO.N,GE_CTL*
X254000000Y-75565000D03*
X57150000Y-40005000D03*
G04 #@! TO.N,ROCKET_CTL*
X54610000Y-41275000D03*
X253365000Y-100330000D03*
G04 #@! TO.N,BM_CTL*
X60960000Y-59944000D03*
X93980000Y-122555000D03*
X103378000Y-59944000D03*
G04 #@! TO.N,MM_CTL*
X60960000Y-58420000D03*
X93980000Y-106045000D03*
X100076000Y-58420000D03*
G04 #@! TO.N,FM_CTL*
X93980000Y-88900000D03*
G04 #@! TO.N,EM_IMEAS*
X111760000Y-76708000D03*
G04 #@! TO.N,ROCKET_IMEAS*
X250190000Y-92710000D03*
X60960000Y-42545000D03*
G04 #@! TD*
D24*
G04 #@! TO.N,+3.3VA*
X245110000Y-127000000D02*
X245110000Y-120650000D01*
X245585000Y-127475000D02*
X245110000Y-127000000D01*
X247015000Y-118745000D02*
X247015000Y-103505000D01*
X245110000Y-120650000D02*
X247015000Y-118745000D01*
X247015000Y-103505000D02*
X247015000Y-97790000D01*
X247015000Y-97790000D02*
X245745000Y-96520000D01*
X245745000Y-96520000D02*
X245745000Y-95250000D01*
X247015000Y-93980000D02*
X247015000Y-78740000D01*
X245745000Y-95250000D02*
X247015000Y-93980000D01*
X247015000Y-73660000D02*
X247015000Y-78740000D01*
X246380000Y-73025000D02*
X247015000Y-73660000D01*
X246380000Y-71755000D02*
X246380000Y-73025000D01*
X247175000Y-53180000D02*
X247175000Y-70960000D01*
X247175000Y-70960000D02*
X246380000Y-71755000D01*
X247175000Y-53180000D02*
X247175000Y-49690000D01*
X247175000Y-49690000D02*
X245745000Y-48260000D01*
X245745000Y-48260000D02*
X245745000Y-46355000D01*
X254000000Y-21590000D02*
X254000000Y-14605000D01*
X254000000Y-14605000D02*
X253365000Y-13970000D01*
X253365000Y-13970000D02*
X252903010Y-13508010D01*
X252903010Y-13508010D02*
X222250000Y-13508010D01*
X222250000Y-13508010D02*
X211281990Y-13508010D01*
X211281990Y-13508010D02*
X206836990Y-13508010D01*
X206836990Y-13508010D02*
X181610000Y-13508010D01*
X173355000Y-13508010D02*
X168910000Y-13508010D01*
X168910000Y-13508010D02*
X145241990Y-13508010D01*
X145241990Y-13508010D02*
X142875000Y-15875000D01*
X142875000Y-15875000D02*
X142875000Y-19050000D01*
X142875000Y-19050000D02*
X140970000Y-20955000D01*
X140845001Y-21079999D02*
X142875000Y-19050000D01*
X131569999Y-21079999D02*
X140845001Y-21079999D01*
X130810000Y-20320000D02*
X131569999Y-21079999D01*
X128270000Y-17780000D02*
X130810000Y-20320000D01*
X175895000Y-67310000D02*
X175895000Y-19685000D01*
X175895000Y-19685000D02*
X175895000Y-13508010D01*
X181610000Y-13508010D02*
X175895000Y-13508010D01*
X175895000Y-13508010D02*
X173355000Y-13508010D01*
X73025000Y-20320000D02*
X75565000Y-17780000D01*
X73025000Y-48895000D02*
X73025000Y-30480000D01*
X75565000Y-17780000D02*
X128270000Y-17780000D01*
X254000000Y-43815000D02*
X248285000Y-43815000D01*
X255270000Y-42545000D02*
X254000000Y-43815000D01*
X255270000Y-22860000D02*
X255270000Y-42545000D01*
X254000000Y-21590000D02*
X255270000Y-22860000D01*
X245745000Y-46355000D02*
X248285000Y-43815000D01*
X73025000Y-30480000D02*
X73025000Y-20320000D01*
X67310000Y-20320000D02*
X73025000Y-20320000D01*
X73025000Y-48895000D02*
X73025000Y-49530000D01*
X73025000Y-49530000D02*
X75311000Y-51816000D01*
X101600000Y-63500000D02*
X101600000Y-85090000D01*
X75311000Y-51816000D02*
X100076000Y-51816000D01*
X101600000Y-53340000D02*
X101600000Y-63500000D01*
X100076000Y-51816000D02*
X101600000Y-53340000D01*
X101600000Y-85090000D02*
X101600000Y-102235000D01*
X101600000Y-134620000D02*
X101600000Y-135255000D01*
X101600000Y-118745000D02*
X101600000Y-134620000D01*
X101600000Y-102235000D02*
X101600000Y-118745000D01*
D25*
X100358199Y-89262001D02*
X100358199Y-85372199D01*
X99958200Y-89662000D02*
X100358199Y-89262001D01*
G04 #@! TD*
D26*
G04 #@! TO.N,PVDD*
G36*
X234823000Y-138330000D02*
X118237000Y-138330000D01*
X118237000Y-134620000D01*
X177543262Y-134620000D01*
X177756151Y-135690265D01*
X178362408Y-136597592D01*
X179269735Y-137203849D01*
X180069841Y-137363000D01*
X180610159Y-137363000D01*
X181410265Y-137203849D01*
X182317592Y-136597592D01*
X182923849Y-135690265D01*
X183136738Y-134620000D01*
X182923849Y-133549735D01*
X182317592Y-132642408D01*
X181410265Y-132036151D01*
X180610159Y-131877000D01*
X180069841Y-131877000D01*
X179269735Y-132036151D01*
X178362408Y-132642408D01*
X177756151Y-133549735D01*
X177543262Y-134620000D01*
X118237000Y-134620000D01*
X118237000Y-131613948D01*
X164582000Y-131613948D01*
X164582000Y-132546052D01*
X164938701Y-133407203D01*
X165597797Y-134066299D01*
X166458948Y-134423000D01*
X167391052Y-134423000D01*
X168252203Y-134066299D01*
X168911299Y-133407203D01*
X169268000Y-132546052D01*
X169268000Y-131613948D01*
X192522000Y-131613948D01*
X192522000Y-132546052D01*
X192878701Y-133407203D01*
X193537797Y-134066299D01*
X194398948Y-134423000D01*
X195331052Y-134423000D01*
X196192203Y-134066299D01*
X196851299Y-133407203D01*
X197208000Y-132546052D01*
X197208000Y-131613948D01*
X196851299Y-130752797D01*
X196192203Y-130093701D01*
X195331052Y-129737000D01*
X194398948Y-129737000D01*
X193537797Y-130093701D01*
X192878701Y-130752797D01*
X192522000Y-131613948D01*
X169268000Y-131613948D01*
X168911299Y-130752797D01*
X168252203Y-130093701D01*
X167391052Y-129737000D01*
X166458948Y-129737000D01*
X165597797Y-130093701D01*
X164938701Y-130752797D01*
X164582000Y-131613948D01*
X118237000Y-131613948D01*
X118237000Y-125730000D01*
X177543262Y-125730000D01*
X177756151Y-126800265D01*
X178362408Y-127707592D01*
X179269735Y-128313849D01*
X180069841Y-128473000D01*
X180610159Y-128473000D01*
X181410265Y-128313849D01*
X182317592Y-127707592D01*
X182923849Y-126800265D01*
X183136738Y-125730000D01*
X182923849Y-124659735D01*
X182317592Y-123752408D01*
X181609984Y-123279599D01*
X197231000Y-123279599D01*
X197231000Y-128180401D01*
X199106456Y-132708153D01*
X202571847Y-136173544D01*
X207099599Y-138049000D01*
X212000401Y-138049000D01*
X216528153Y-136173544D01*
X219993544Y-132708153D01*
X221869000Y-128180401D01*
X221869000Y-123279599D01*
X219993544Y-118751847D01*
X216528153Y-115286456D01*
X212000401Y-113411000D01*
X207099599Y-113411000D01*
X202571847Y-115286456D01*
X199106456Y-118751847D01*
X197231000Y-123279599D01*
X181609984Y-123279599D01*
X181410265Y-123146151D01*
X180610159Y-122987000D01*
X180069841Y-122987000D01*
X179269735Y-123146151D01*
X178362408Y-123752408D01*
X177756151Y-124659735D01*
X177543262Y-125730000D01*
X118237000Y-125730000D01*
X118237000Y-117643948D01*
X164582000Y-117643948D01*
X164582000Y-118576052D01*
X164938701Y-119437203D01*
X165597797Y-120096299D01*
X166458948Y-120453000D01*
X167391052Y-120453000D01*
X168252203Y-120096299D01*
X168911299Y-119437203D01*
X169268000Y-118576052D01*
X169268000Y-117643948D01*
X192522000Y-117643948D01*
X192522000Y-118576052D01*
X192878701Y-119437203D01*
X193537797Y-120096299D01*
X194398948Y-120453000D01*
X195331052Y-120453000D01*
X196192203Y-120096299D01*
X196851299Y-119437203D01*
X197208000Y-118576052D01*
X197208000Y-117643948D01*
X196851299Y-116782797D01*
X196192203Y-116123701D01*
X195331052Y-115767000D01*
X194398948Y-115767000D01*
X193537797Y-116123701D01*
X192878701Y-116782797D01*
X192522000Y-117643948D01*
X169268000Y-117643948D01*
X168911299Y-116782797D01*
X168252203Y-116123701D01*
X167391052Y-115767000D01*
X166458948Y-115767000D01*
X165597797Y-116123701D01*
X164938701Y-116782797D01*
X164582000Y-117643948D01*
X118237000Y-117643948D01*
X118237000Y-106657501D01*
X149733000Y-106657501D01*
X149733000Y-107718499D01*
X150139026Y-108698734D01*
X150889266Y-109448974D01*
X151869501Y-109855000D01*
X152930499Y-109855000D01*
X153910734Y-109448974D01*
X154660974Y-108698734D01*
X155067000Y-107718499D01*
X155067000Y-106657501D01*
X157353000Y-106657501D01*
X157353000Y-107718499D01*
X157759026Y-108698734D01*
X158509266Y-109448974D01*
X159489501Y-109855000D01*
X160550499Y-109855000D01*
X161530734Y-109448974D01*
X162280974Y-108698734D01*
X162687000Y-107718499D01*
X162687000Y-106657501D01*
X162280974Y-105677266D01*
X162245209Y-105641501D01*
X202057000Y-105641501D01*
X202057000Y-106702499D01*
X202463026Y-107682734D01*
X203213266Y-108432974D01*
X204193501Y-108839000D01*
X205254499Y-108839000D01*
X206234734Y-108432974D01*
X206984974Y-107682734D01*
X207391000Y-106702499D01*
X207391000Y-105641501D01*
X209677000Y-105641501D01*
X209677000Y-106702499D01*
X210083026Y-107682734D01*
X210833266Y-108432974D01*
X211813501Y-108839000D01*
X212874499Y-108839000D01*
X213854734Y-108432974D01*
X214604974Y-107682734D01*
X215011000Y-106702499D01*
X215011000Y-105641501D01*
X214604974Y-104661266D01*
X213854734Y-103911026D01*
X212874499Y-103505000D01*
X211813501Y-103505000D01*
X210833266Y-103911026D01*
X210083026Y-104661266D01*
X209677000Y-105641501D01*
X207391000Y-105641501D01*
X206984974Y-104661266D01*
X206234734Y-103911026D01*
X205254499Y-103505000D01*
X204193501Y-103505000D01*
X203213266Y-103911026D01*
X202463026Y-104661266D01*
X202057000Y-105641501D01*
X162245209Y-105641501D01*
X161530734Y-104927026D01*
X160550499Y-104521000D01*
X159489501Y-104521000D01*
X158509266Y-104927026D01*
X157759026Y-105677266D01*
X157353000Y-106657501D01*
X155067000Y-106657501D01*
X154660974Y-105677266D01*
X153910734Y-104927026D01*
X152930499Y-104521000D01*
X151869501Y-104521000D01*
X150889266Y-104927026D01*
X150139026Y-105677266D01*
X149733000Y-106657501D01*
X118237000Y-106657501D01*
X118237000Y-83226346D01*
X174815500Y-83226346D01*
X174815500Y-84413654D01*
X175269863Y-85510584D01*
X176109416Y-86350137D01*
X177206346Y-86804500D01*
X178393654Y-86804500D01*
X179490584Y-86350137D01*
X180330137Y-85510584D01*
X180784500Y-84413654D01*
X180784500Y-83226346D01*
X180330137Y-82129416D01*
X179490584Y-81289863D01*
X178393654Y-80835500D01*
X177206346Y-80835500D01*
X176109416Y-81289863D01*
X175269863Y-82129416D01*
X174815500Y-83226346D01*
X118237000Y-83226346D01*
X118237000Y-76327000D01*
X134620000Y-76327000D01*
X134668601Y-76317333D01*
X134709803Y-76289803D01*
X134737333Y-76248601D01*
X134747000Y-76200000D01*
X134747000Y-71448078D01*
X176892000Y-71448078D01*
X176892000Y-72061922D01*
X177126908Y-72629039D01*
X177522869Y-73025000D01*
X177126908Y-73420961D01*
X176892000Y-73988078D01*
X176892000Y-74601922D01*
X177126908Y-75169039D01*
X177522869Y-75565000D01*
X177126908Y-75960961D01*
X176892000Y-76528078D01*
X176892000Y-77141922D01*
X177126908Y-77709039D01*
X177560961Y-78143092D01*
X178128078Y-78378000D01*
X178741922Y-78378000D01*
X179309039Y-78143092D01*
X179743092Y-77709039D01*
X179978000Y-77141922D01*
X179978000Y-76528078D01*
X179743092Y-75960961D01*
X179347131Y-75565000D01*
X179743092Y-75169039D01*
X179978000Y-74601922D01*
X179978000Y-73988078D01*
X179743092Y-73420961D01*
X179347131Y-73025000D01*
X179743092Y-72629039D01*
X179978000Y-72061922D01*
X179978000Y-71448078D01*
X179743092Y-70880961D01*
X179309039Y-70446908D01*
X178741922Y-70212000D01*
X178128078Y-70212000D01*
X177560961Y-70446908D01*
X177126908Y-70880961D01*
X176892000Y-71448078D01*
X134747000Y-71448078D01*
X134747000Y-60579000D01*
X174244000Y-60579000D01*
X174244000Y-66317862D01*
X173990000Y-66931072D01*
X173990000Y-67688928D01*
X174280019Y-68389096D01*
X174815904Y-68924981D01*
X175516072Y-69215000D01*
X176273928Y-69215000D01*
X176974096Y-68924981D01*
X177165000Y-68734077D01*
X177355904Y-68924981D01*
X178056072Y-69215000D01*
X178813928Y-69215000D01*
X179514096Y-68924981D01*
X180049981Y-68389096D01*
X180340000Y-67688928D01*
X180340000Y-66931072D01*
X180049981Y-66230904D01*
X179514096Y-65695019D01*
X178813928Y-65405000D01*
X178056072Y-65405000D01*
X177546000Y-65616279D01*
X177546000Y-60579000D01*
X194183000Y-60579000D01*
X194183743Y-60578998D01*
X215900743Y-60451998D01*
X215949286Y-60442046D01*
X215990326Y-60414276D01*
X216017615Y-60372914D01*
X216027000Y-60325000D01*
X216027000Y-53467000D01*
X234823000Y-53467000D01*
X234823000Y-138330000D01*
X234823000Y-138330000D01*
G37*
X234823000Y-138330000D02*
X118237000Y-138330000D01*
X118237000Y-134620000D01*
X177543262Y-134620000D01*
X177756151Y-135690265D01*
X178362408Y-136597592D01*
X179269735Y-137203849D01*
X180069841Y-137363000D01*
X180610159Y-137363000D01*
X181410265Y-137203849D01*
X182317592Y-136597592D01*
X182923849Y-135690265D01*
X183136738Y-134620000D01*
X182923849Y-133549735D01*
X182317592Y-132642408D01*
X181410265Y-132036151D01*
X180610159Y-131877000D01*
X180069841Y-131877000D01*
X179269735Y-132036151D01*
X178362408Y-132642408D01*
X177756151Y-133549735D01*
X177543262Y-134620000D01*
X118237000Y-134620000D01*
X118237000Y-131613948D01*
X164582000Y-131613948D01*
X164582000Y-132546052D01*
X164938701Y-133407203D01*
X165597797Y-134066299D01*
X166458948Y-134423000D01*
X167391052Y-134423000D01*
X168252203Y-134066299D01*
X168911299Y-133407203D01*
X169268000Y-132546052D01*
X169268000Y-131613948D01*
X192522000Y-131613948D01*
X192522000Y-132546052D01*
X192878701Y-133407203D01*
X193537797Y-134066299D01*
X194398948Y-134423000D01*
X195331052Y-134423000D01*
X196192203Y-134066299D01*
X196851299Y-133407203D01*
X197208000Y-132546052D01*
X197208000Y-131613948D01*
X196851299Y-130752797D01*
X196192203Y-130093701D01*
X195331052Y-129737000D01*
X194398948Y-129737000D01*
X193537797Y-130093701D01*
X192878701Y-130752797D01*
X192522000Y-131613948D01*
X169268000Y-131613948D01*
X168911299Y-130752797D01*
X168252203Y-130093701D01*
X167391052Y-129737000D01*
X166458948Y-129737000D01*
X165597797Y-130093701D01*
X164938701Y-130752797D01*
X164582000Y-131613948D01*
X118237000Y-131613948D01*
X118237000Y-125730000D01*
X177543262Y-125730000D01*
X177756151Y-126800265D01*
X178362408Y-127707592D01*
X179269735Y-128313849D01*
X180069841Y-128473000D01*
X180610159Y-128473000D01*
X181410265Y-128313849D01*
X182317592Y-127707592D01*
X182923849Y-126800265D01*
X183136738Y-125730000D01*
X182923849Y-124659735D01*
X182317592Y-123752408D01*
X181609984Y-123279599D01*
X197231000Y-123279599D01*
X197231000Y-128180401D01*
X199106456Y-132708153D01*
X202571847Y-136173544D01*
X207099599Y-138049000D01*
X212000401Y-138049000D01*
X216528153Y-136173544D01*
X219993544Y-132708153D01*
X221869000Y-128180401D01*
X221869000Y-123279599D01*
X219993544Y-118751847D01*
X216528153Y-115286456D01*
X212000401Y-113411000D01*
X207099599Y-113411000D01*
X202571847Y-115286456D01*
X199106456Y-118751847D01*
X197231000Y-123279599D01*
X181609984Y-123279599D01*
X181410265Y-123146151D01*
X180610159Y-122987000D01*
X180069841Y-122987000D01*
X179269735Y-123146151D01*
X178362408Y-123752408D01*
X177756151Y-124659735D01*
X177543262Y-125730000D01*
X118237000Y-125730000D01*
X118237000Y-117643948D01*
X164582000Y-117643948D01*
X164582000Y-118576052D01*
X164938701Y-119437203D01*
X165597797Y-120096299D01*
X166458948Y-120453000D01*
X167391052Y-120453000D01*
X168252203Y-120096299D01*
X168911299Y-119437203D01*
X169268000Y-118576052D01*
X169268000Y-117643948D01*
X192522000Y-117643948D01*
X192522000Y-118576052D01*
X192878701Y-119437203D01*
X193537797Y-120096299D01*
X194398948Y-120453000D01*
X195331052Y-120453000D01*
X196192203Y-120096299D01*
X196851299Y-119437203D01*
X197208000Y-118576052D01*
X197208000Y-117643948D01*
X196851299Y-116782797D01*
X196192203Y-116123701D01*
X195331052Y-115767000D01*
X194398948Y-115767000D01*
X193537797Y-116123701D01*
X192878701Y-116782797D01*
X192522000Y-117643948D01*
X169268000Y-117643948D01*
X168911299Y-116782797D01*
X168252203Y-116123701D01*
X167391052Y-115767000D01*
X166458948Y-115767000D01*
X165597797Y-116123701D01*
X164938701Y-116782797D01*
X164582000Y-117643948D01*
X118237000Y-117643948D01*
X118237000Y-106657501D01*
X149733000Y-106657501D01*
X149733000Y-107718499D01*
X150139026Y-108698734D01*
X150889266Y-109448974D01*
X151869501Y-109855000D01*
X152930499Y-109855000D01*
X153910734Y-109448974D01*
X154660974Y-108698734D01*
X155067000Y-107718499D01*
X155067000Y-106657501D01*
X157353000Y-106657501D01*
X157353000Y-107718499D01*
X157759026Y-108698734D01*
X158509266Y-109448974D01*
X159489501Y-109855000D01*
X160550499Y-109855000D01*
X161530734Y-109448974D01*
X162280974Y-108698734D01*
X162687000Y-107718499D01*
X162687000Y-106657501D01*
X162280974Y-105677266D01*
X162245209Y-105641501D01*
X202057000Y-105641501D01*
X202057000Y-106702499D01*
X202463026Y-107682734D01*
X203213266Y-108432974D01*
X204193501Y-108839000D01*
X205254499Y-108839000D01*
X206234734Y-108432974D01*
X206984974Y-107682734D01*
X207391000Y-106702499D01*
X207391000Y-105641501D01*
X209677000Y-105641501D01*
X209677000Y-106702499D01*
X210083026Y-107682734D01*
X210833266Y-108432974D01*
X211813501Y-108839000D01*
X212874499Y-108839000D01*
X213854734Y-108432974D01*
X214604974Y-107682734D01*
X215011000Y-106702499D01*
X215011000Y-105641501D01*
X214604974Y-104661266D01*
X213854734Y-103911026D01*
X212874499Y-103505000D01*
X211813501Y-103505000D01*
X210833266Y-103911026D01*
X210083026Y-104661266D01*
X209677000Y-105641501D01*
X207391000Y-105641501D01*
X206984974Y-104661266D01*
X206234734Y-103911026D01*
X205254499Y-103505000D01*
X204193501Y-103505000D01*
X203213266Y-103911026D01*
X202463026Y-104661266D01*
X202057000Y-105641501D01*
X162245209Y-105641501D01*
X161530734Y-104927026D01*
X160550499Y-104521000D01*
X159489501Y-104521000D01*
X158509266Y-104927026D01*
X157759026Y-105677266D01*
X157353000Y-106657501D01*
X155067000Y-106657501D01*
X154660974Y-105677266D01*
X153910734Y-104927026D01*
X152930499Y-104521000D01*
X151869501Y-104521000D01*
X150889266Y-104927026D01*
X150139026Y-105677266D01*
X149733000Y-106657501D01*
X118237000Y-106657501D01*
X118237000Y-83226346D01*
X174815500Y-83226346D01*
X174815500Y-84413654D01*
X175269863Y-85510584D01*
X176109416Y-86350137D01*
X177206346Y-86804500D01*
X178393654Y-86804500D01*
X179490584Y-86350137D01*
X180330137Y-85510584D01*
X180784500Y-84413654D01*
X180784500Y-83226346D01*
X180330137Y-82129416D01*
X179490584Y-81289863D01*
X178393654Y-80835500D01*
X177206346Y-80835500D01*
X176109416Y-81289863D01*
X175269863Y-82129416D01*
X174815500Y-83226346D01*
X118237000Y-83226346D01*
X118237000Y-76327000D01*
X134620000Y-76327000D01*
X134668601Y-76317333D01*
X134709803Y-76289803D01*
X134737333Y-76248601D01*
X134747000Y-76200000D01*
X134747000Y-71448078D01*
X176892000Y-71448078D01*
X176892000Y-72061922D01*
X177126908Y-72629039D01*
X177522869Y-73025000D01*
X177126908Y-73420961D01*
X176892000Y-73988078D01*
X176892000Y-74601922D01*
X177126908Y-75169039D01*
X177522869Y-75565000D01*
X177126908Y-75960961D01*
X176892000Y-76528078D01*
X176892000Y-77141922D01*
X177126908Y-77709039D01*
X177560961Y-78143092D01*
X178128078Y-78378000D01*
X178741922Y-78378000D01*
X179309039Y-78143092D01*
X179743092Y-77709039D01*
X179978000Y-77141922D01*
X179978000Y-76528078D01*
X179743092Y-75960961D01*
X179347131Y-75565000D01*
X179743092Y-75169039D01*
X179978000Y-74601922D01*
X179978000Y-73988078D01*
X179743092Y-73420961D01*
X179347131Y-73025000D01*
X179743092Y-72629039D01*
X179978000Y-72061922D01*
X179978000Y-71448078D01*
X179743092Y-70880961D01*
X179309039Y-70446908D01*
X178741922Y-70212000D01*
X178128078Y-70212000D01*
X177560961Y-70446908D01*
X177126908Y-70880961D01*
X176892000Y-71448078D01*
X134747000Y-71448078D01*
X134747000Y-60579000D01*
X174244000Y-60579000D01*
X174244000Y-66317862D01*
X173990000Y-66931072D01*
X173990000Y-67688928D01*
X174280019Y-68389096D01*
X174815904Y-68924981D01*
X175516072Y-69215000D01*
X176273928Y-69215000D01*
X176974096Y-68924981D01*
X177165000Y-68734077D01*
X177355904Y-68924981D01*
X178056072Y-69215000D01*
X178813928Y-69215000D01*
X179514096Y-68924981D01*
X180049981Y-68389096D01*
X180340000Y-67688928D01*
X180340000Y-66931072D01*
X180049981Y-66230904D01*
X179514096Y-65695019D01*
X178813928Y-65405000D01*
X178056072Y-65405000D01*
X177546000Y-65616279D01*
X177546000Y-60579000D01*
X194183000Y-60579000D01*
X194183743Y-60578998D01*
X215900743Y-60451998D01*
X215949286Y-60442046D01*
X215990326Y-60414276D01*
X216017615Y-60372914D01*
X216027000Y-60325000D01*
X216027000Y-53467000D01*
X234823000Y-53467000D01*
X234823000Y-138330000D01*
G04 #@! TD*
M02*
