G75*
G70*
%OFA0B0*%
%FSLAX24Y24*%
%IPPOS*%
%LPD*%
%AMOC8*
5,1,8,0,0,1.08239X$1,22.5*
%
%ADD10R,0.0907X0.0907*%
%ADD11C,0.0600*%
%ADD12R,0.0600X0.0600*%
%ADD13R,0.0634X0.0634*%
%ADD14C,0.1360*%
%ADD15C,0.0710*%
%ADD16C,0.0905*%
%ADD17R,0.0620X0.0620*%
%ADD18C,0.0620*%
%ADD19R,0.0905X0.0905*%
%ADD20R,0.0966X0.0966*%
%ADD21R,0.0730X0.0730*%
%ADD22C,0.0730*%
%ADD23R,0.0477X0.0477*%
%ADD24C,0.0674*%
%ADD25C,0.1340*%
%ADD26R,0.1025X0.1025*%
%ADD27C,0.1104*%
%ADD28R,0.0556X0.0556*%
%ADD29C,0.0556*%
%ADD30C,0.0497*%
%ADD31C,0.2140*%
%ADD32R,0.0595X0.0595*%
%ADD33C,0.0595*%
%ADD34R,0.0527X0.0527*%
%ADD35R,0.0476X0.0476*%
%ADD36C,0.0390*%
D10*
X023382Y011037D03*
X028382Y011037D03*
X029634Y011037D03*
X030886Y011037D03*
X037138Y011037D03*
X037138Y018537D03*
X037138Y023037D03*
X037138Y030537D03*
X037138Y035037D03*
X030886Y035037D03*
X029634Y035037D03*
X028382Y035037D03*
X023382Y035037D03*
X023382Y030537D03*
X023382Y023037D03*
X023382Y018537D03*
X028382Y023037D03*
X029634Y023037D03*
X030886Y023037D03*
X037138Y042537D03*
X037138Y047037D03*
X037138Y054537D03*
X037138Y059037D03*
X030886Y059037D03*
X029634Y059037D03*
X028382Y059037D03*
X023382Y059037D03*
X023382Y054537D03*
X023382Y047037D03*
X023382Y042537D03*
X028382Y047037D03*
X029634Y047037D03*
X030886Y047037D03*
X037138Y066537D03*
X041760Y081521D03*
X042760Y081521D03*
X043760Y081521D03*
X046760Y081521D03*
X047760Y081521D03*
X048760Y081521D03*
X026260Y084255D03*
X026260Y086815D03*
X023382Y066537D03*
D11*
X029760Y057285D03*
X029760Y045285D03*
X029760Y033285D03*
X029760Y021285D03*
X029760Y009285D03*
X043260Y087785D03*
X032760Y090285D03*
D12*
X032760Y086285D03*
X043260Y091785D03*
X033760Y057285D03*
X033760Y045285D03*
X033760Y033285D03*
X033760Y021285D03*
X033760Y009285D03*
D13*
X049440Y009335D03*
X049440Y010335D03*
X050990Y010785D03*
X050990Y011785D03*
X050990Y012785D03*
X050990Y013785D03*
X051990Y013285D03*
X051990Y012285D03*
X051990Y011285D03*
X051990Y010285D03*
X053440Y010785D03*
X053440Y011785D03*
X053440Y012785D03*
X053440Y013785D03*
X054440Y013285D03*
X054440Y012285D03*
X054440Y011285D03*
X054440Y010285D03*
X056040Y010335D03*
X056040Y009335D03*
X056040Y013735D03*
X056040Y014735D03*
X056040Y017335D03*
X056040Y018335D03*
X054440Y018285D03*
X054440Y019285D03*
X054440Y020285D03*
X054440Y021285D03*
X053440Y020785D03*
X053440Y019785D03*
X053440Y018785D03*
X051990Y018285D03*
X051990Y019285D03*
X051990Y020285D03*
X051990Y021285D03*
X050990Y020785D03*
X050990Y019785D03*
X050990Y018785D03*
X049440Y018335D03*
X049440Y017335D03*
X049440Y014735D03*
X049440Y013735D03*
X049440Y021735D03*
X049440Y022735D03*
X050990Y021785D03*
X053440Y021785D03*
X056040Y021735D03*
X056040Y022735D03*
X056040Y024835D03*
X056040Y025835D03*
X054440Y025785D03*
X054440Y026785D03*
X054440Y027785D03*
X053440Y028285D03*
X053440Y027285D03*
X053440Y026285D03*
X051990Y025785D03*
X051990Y026785D03*
X051990Y027785D03*
X050990Y028285D03*
X050990Y027285D03*
X050990Y026285D03*
X049440Y025835D03*
X049440Y024835D03*
X049440Y029235D03*
X049440Y030235D03*
X050990Y029285D03*
X051990Y028785D03*
X053440Y029285D03*
X054440Y028785D03*
X056040Y029235D03*
X056040Y030235D03*
X056040Y032335D03*
X056040Y033335D03*
X054440Y033285D03*
X054440Y034285D03*
X054440Y035285D03*
X054440Y036285D03*
X053440Y036785D03*
X053440Y035785D03*
X053440Y034785D03*
X053440Y033785D03*
X051990Y033285D03*
X051990Y034285D03*
X051990Y035285D03*
X051990Y036285D03*
X050990Y036785D03*
X050990Y035785D03*
X050990Y034785D03*
X050990Y033785D03*
X049440Y033335D03*
X049440Y032335D03*
X049440Y036735D03*
X049440Y037735D03*
X049440Y039835D03*
X049440Y040835D03*
X050990Y041285D03*
X050990Y042285D03*
X050990Y043285D03*
X050990Y044285D03*
X051990Y043785D03*
X051990Y042785D03*
X051990Y041785D03*
X051990Y040785D03*
X053440Y041285D03*
X053440Y042285D03*
X053440Y043285D03*
X053440Y044285D03*
X054440Y043785D03*
X054440Y042785D03*
X054440Y041785D03*
X054440Y040785D03*
X056040Y040835D03*
X056040Y039835D03*
X056040Y037735D03*
X056040Y036735D03*
X056040Y044235D03*
X056040Y045235D03*
X056040Y047335D03*
X056040Y048335D03*
X054440Y048285D03*
X054440Y049285D03*
X054440Y050285D03*
X054440Y051285D03*
X053440Y050785D03*
X053440Y049785D03*
X053440Y048785D03*
X051990Y048285D03*
X051990Y049285D03*
X051990Y050285D03*
X051990Y051285D03*
X050990Y050785D03*
X050990Y049785D03*
X050990Y048785D03*
X049440Y048335D03*
X049440Y047335D03*
X049440Y045235D03*
X049440Y044235D03*
X049440Y051735D03*
X049440Y052735D03*
X050990Y051785D03*
X053440Y051785D03*
X056040Y051735D03*
X056040Y052735D03*
X056040Y054835D03*
X056040Y055835D03*
X054440Y055785D03*
X054440Y056785D03*
X054440Y057785D03*
X054440Y058785D03*
X053440Y058285D03*
X053440Y057285D03*
X053440Y056285D03*
X051990Y055785D03*
X051990Y056785D03*
X051990Y057785D03*
X051990Y058785D03*
X050990Y058285D03*
X050990Y057285D03*
X050990Y056285D03*
X049440Y055835D03*
X049440Y054835D03*
X049440Y059235D03*
X049440Y060235D03*
X050990Y059285D03*
X053440Y059285D03*
X056040Y059235D03*
X056040Y060235D03*
X056040Y062335D03*
X056040Y063335D03*
X054440Y063285D03*
X054440Y064285D03*
X054440Y065285D03*
X054440Y066285D03*
X053440Y065785D03*
X053440Y064785D03*
X053440Y063785D03*
X051990Y063285D03*
X051990Y064285D03*
X051990Y065285D03*
X051990Y066285D03*
X050990Y065785D03*
X050990Y064785D03*
X050990Y063785D03*
X049440Y063335D03*
X049440Y062335D03*
X049440Y066735D03*
X049440Y067735D03*
X050990Y066785D03*
X053440Y066785D03*
X056040Y066735D03*
X056040Y067735D03*
D14*
X057690Y067535D03*
X057690Y062535D03*
X057690Y060035D03*
X057690Y055035D03*
X057690Y052535D03*
X057690Y047535D03*
X057690Y045035D03*
X057690Y040035D03*
X057690Y037535D03*
X057690Y032535D03*
X057690Y030035D03*
X057690Y025035D03*
X057690Y022535D03*
X057690Y017535D03*
X057690Y014535D03*
X057690Y009535D03*
D15*
X054890Y008785D03*
X051590Y008785D03*
X051590Y015285D03*
X051590Y016785D03*
X054890Y016785D03*
X054890Y015285D03*
X054890Y023285D03*
X054890Y024285D03*
X051590Y024285D03*
X051590Y023285D03*
X051590Y030785D03*
X051590Y031785D03*
X054890Y031785D03*
X054890Y030785D03*
X054890Y038285D03*
X054890Y039285D03*
X051590Y039285D03*
X051590Y038285D03*
X051590Y045785D03*
X051590Y046785D03*
X054890Y046785D03*
X054890Y045785D03*
X054890Y053285D03*
X054890Y054285D03*
X051590Y054285D03*
X051590Y053285D03*
X051590Y060785D03*
X051590Y061785D03*
X054890Y061785D03*
X054890Y060785D03*
X054890Y068285D03*
X051590Y068285D03*
D16*
X051760Y071785D03*
X057760Y071785D03*
X046760Y061285D03*
X044760Y063285D03*
X042760Y064285D03*
X042760Y058285D03*
X044760Y057285D03*
X046760Y055285D03*
X042760Y052285D03*
X042760Y046285D03*
X042760Y040285D03*
X042760Y034285D03*
X042760Y028285D03*
X042760Y022285D03*
X042760Y016285D03*
X042760Y010285D03*
X015760Y007785D03*
X015760Y006785D03*
X015260Y011285D03*
X015260Y017285D03*
X008260Y014285D03*
X007260Y014285D03*
X007260Y025785D03*
X008260Y025785D03*
X008260Y037285D03*
X007260Y037285D03*
X007260Y048785D03*
X008260Y048785D03*
X008260Y060785D03*
X007260Y060785D03*
X007260Y072285D03*
X008260Y072285D03*
X033760Y070785D03*
X033760Y076785D03*
X036760Y091785D03*
X037760Y091785D03*
X048760Y090785D03*
X049760Y090785D03*
D17*
X025260Y082785D03*
X021510Y084035D03*
X010260Y077285D03*
X010260Y065785D03*
X010260Y054285D03*
X010260Y042285D03*
X010260Y030785D03*
X010260Y019285D03*
X010260Y009785D03*
D18*
X010260Y008785D03*
X010260Y007785D03*
X010260Y006785D03*
X013260Y006785D03*
X013260Y007785D03*
X013260Y008785D03*
X013260Y009785D03*
X010260Y016285D03*
X009260Y016285D03*
X008260Y016285D03*
X007260Y016285D03*
X007260Y019285D03*
X008260Y019285D03*
X009260Y019285D03*
X009260Y027785D03*
X008260Y027785D03*
X007260Y027785D03*
X010260Y027785D03*
X009260Y030785D03*
X008260Y030785D03*
X007260Y030785D03*
X007260Y039285D03*
X008260Y039285D03*
X009260Y039285D03*
X010260Y039285D03*
X009260Y042285D03*
X008260Y042285D03*
X007260Y042285D03*
X007260Y051285D03*
X008260Y051285D03*
X009260Y051285D03*
X010260Y051285D03*
X009260Y054285D03*
X008260Y054285D03*
X007260Y054285D03*
X007260Y062785D03*
X008260Y062785D03*
X009260Y062785D03*
X010260Y062785D03*
X009260Y065785D03*
X008260Y065785D03*
X007260Y065785D03*
X007260Y074285D03*
X008260Y074285D03*
X009260Y074285D03*
X010260Y074285D03*
X009260Y077285D03*
X008260Y077285D03*
X007260Y077285D03*
X012260Y079785D03*
X013260Y079785D03*
X014260Y079785D03*
X015260Y079785D03*
X016260Y079785D03*
X017260Y079785D03*
X018260Y079785D03*
X019260Y079785D03*
X020260Y079785D03*
X021260Y079785D03*
X022260Y079785D03*
X023260Y079785D03*
X024260Y079785D03*
X025260Y079785D03*
X024260Y082785D03*
X023260Y082785D03*
X023510Y084035D03*
X022510Y084035D03*
X022260Y082785D03*
X021260Y082785D03*
X020260Y082785D03*
X019260Y082785D03*
X018260Y082785D03*
X017260Y082785D03*
X016260Y082785D03*
X015260Y082785D03*
X014260Y082785D03*
X013260Y082785D03*
X012260Y082785D03*
X021510Y087035D03*
X022510Y087035D03*
X023510Y087035D03*
X024510Y087035D03*
X024510Y084035D03*
D19*
X038760Y091785D03*
X050760Y090785D03*
X009260Y072285D03*
X009260Y060785D03*
X009260Y048785D03*
X009260Y037285D03*
X009260Y025785D03*
X009260Y014285D03*
X015760Y008785D03*
D20*
X013260Y002785D03*
X011260Y002785D03*
X003260Y011785D03*
X003260Y013785D03*
X003260Y023285D03*
X003260Y025285D03*
X003260Y034785D03*
X003260Y036785D03*
X003260Y046285D03*
X003260Y048285D03*
X003260Y058285D03*
X003260Y060285D03*
X003260Y069785D03*
X003260Y071785D03*
D21*
X021260Y002285D03*
X024510Y002285D03*
X027760Y002285D03*
X031010Y002285D03*
X034260Y002285D03*
X037510Y002285D03*
X040760Y002285D03*
X044010Y002285D03*
X047260Y002285D03*
X050510Y002285D03*
D22*
X049510Y002285D03*
X046260Y002285D03*
X043010Y002285D03*
X039760Y002285D03*
X036510Y002285D03*
X033260Y002285D03*
X030010Y002285D03*
X026760Y002285D03*
X023510Y002285D03*
X020260Y002285D03*
D23*
X017721Y084785D03*
X015799Y084785D03*
D24*
X021260Y089702D03*
X022260Y089702D03*
X021760Y090702D03*
X022760Y090702D03*
X023760Y090702D03*
X024760Y090702D03*
X024260Y089702D03*
X023260Y089702D03*
D25*
X025260Y093202D03*
X020760Y093202D03*
D26*
X053461Y081785D03*
X053461Y077785D03*
X057461Y077785D03*
X057461Y081785D03*
D27*
X041260Y090559D03*
X034260Y090559D03*
D28*
X019260Y070769D03*
X016260Y066769D03*
X013260Y070769D03*
X016260Y074769D03*
X016260Y061769D03*
X020260Y062285D03*
X016260Y056769D03*
X016260Y051769D03*
X020260Y050285D03*
X016260Y046769D03*
X016260Y041769D03*
X016260Y036769D03*
X020260Y038285D03*
X016260Y031769D03*
X016260Y026769D03*
X020260Y026285D03*
X016260Y021769D03*
X020260Y014285D03*
X039260Y014285D03*
X039760Y016596D03*
X039260Y026285D03*
X039760Y028596D03*
X039260Y038285D03*
X039760Y040596D03*
X039260Y050285D03*
X039760Y052596D03*
X039260Y062285D03*
X039760Y064596D03*
X044760Y066096D03*
D29*
X044760Y067474D03*
X039760Y065974D03*
X040260Y062285D03*
X040260Y061285D03*
X040260Y060285D03*
X040260Y059285D03*
X039260Y059285D03*
X039260Y060285D03*
X039260Y061285D03*
X039760Y053974D03*
X040260Y050285D03*
X040260Y049285D03*
X040260Y048285D03*
X040260Y047285D03*
X039260Y047285D03*
X039260Y048285D03*
X039260Y049285D03*
X039760Y041974D03*
X040260Y038285D03*
X040260Y037285D03*
X040260Y036285D03*
X040260Y035285D03*
X039260Y035285D03*
X039260Y036285D03*
X039260Y037285D03*
X039760Y029974D03*
X040260Y026285D03*
X040260Y025285D03*
X040260Y024285D03*
X040260Y023285D03*
X039260Y023285D03*
X039260Y024285D03*
X039260Y025285D03*
X039760Y017974D03*
X040260Y014285D03*
X040260Y013285D03*
X040260Y012285D03*
X040260Y011285D03*
X039260Y011285D03*
X039260Y012285D03*
X039260Y013285D03*
X021260Y013285D03*
X021260Y012285D03*
X021260Y011285D03*
X020260Y011285D03*
X020260Y012285D03*
X020260Y013285D03*
X021260Y014285D03*
X016260Y019801D03*
X016260Y024801D03*
X020260Y025285D03*
X020260Y024285D03*
X020260Y023285D03*
X021260Y023285D03*
X021260Y024285D03*
X021260Y025285D03*
X021260Y026285D03*
X016260Y029801D03*
X016260Y034801D03*
X020260Y035285D03*
X020260Y036285D03*
X020260Y037285D03*
X021260Y037285D03*
X021260Y036285D03*
X021260Y035285D03*
X021260Y038285D03*
X016260Y039801D03*
X016260Y044801D03*
X020260Y047285D03*
X020260Y048285D03*
X020260Y049285D03*
X021260Y049285D03*
X021260Y048285D03*
X021260Y047285D03*
X021260Y050285D03*
X016260Y049801D03*
X016260Y054801D03*
X016260Y059801D03*
X020260Y060285D03*
X020260Y059285D03*
X021260Y059285D03*
X021260Y060285D03*
X021260Y061285D03*
X021260Y062285D03*
X020260Y061285D03*
X016260Y064801D03*
X013260Y068801D03*
X016260Y072801D03*
X019260Y068801D03*
D30*
X020260Y077785D03*
X020760Y077785D03*
X021260Y077785D03*
X027260Y056785D03*
X027760Y056785D03*
X028260Y056785D03*
X028260Y044785D03*
X027760Y044785D03*
X027260Y044785D03*
X027260Y032785D03*
X027760Y032785D03*
X028260Y032785D03*
X028260Y020785D03*
X027760Y020785D03*
X027260Y020785D03*
D31*
X005260Y005285D03*
X055260Y005285D03*
X055260Y090285D03*
X005260Y090285D03*
D32*
X024760Y076285D03*
X026010Y076285D03*
X027260Y076285D03*
X028510Y076285D03*
X029760Y076285D03*
X031010Y076285D03*
X032260Y076285D03*
D33*
X032260Y068285D03*
X031010Y068285D03*
X029760Y068285D03*
X028510Y068285D03*
X027260Y068285D03*
X026010Y068285D03*
X024760Y068285D03*
D34*
X049557Y085533D03*
X049557Y086533D03*
X049557Y087533D03*
X049557Y088533D03*
D35*
X044760Y088285D03*
X044760Y088785D03*
X036260Y081785D03*
X035760Y081785D03*
X035260Y081785D03*
X030260Y085285D03*
X029260Y080035D03*
X028760Y078535D03*
X028760Y078035D03*
X024010Y078035D03*
X024010Y077535D03*
X019260Y086035D03*
X017260Y087035D03*
X016760Y087035D03*
X016260Y087035D03*
X010760Y078785D03*
X009260Y068285D03*
X007260Y068285D03*
X007760Y056785D03*
X009260Y056785D03*
X009260Y044785D03*
X007760Y044785D03*
X007260Y033285D03*
X009260Y033285D03*
X009260Y021785D03*
X007260Y021785D03*
X006760Y009785D03*
X008760Y005785D03*
X021260Y008785D03*
X022260Y005785D03*
X025760Y005785D03*
X032260Y005285D03*
X047260Y009785D03*
X047760Y009785D03*
X048260Y009785D03*
X049260Y006785D03*
X048260Y029285D03*
X047760Y029285D03*
X047260Y029285D03*
X047260Y047785D03*
X047760Y047785D03*
X048260Y047785D03*
D36*
X050760Y047785D03*
X050760Y040285D03*
X050760Y032785D03*
X050760Y025285D03*
X050760Y017785D03*
X049260Y011285D03*
M02*
