G75*
G70*
%OFA0B0*%
%FSLAX24Y24*%
%IPPOS*%
%LPD*%
%AMOC8*
5,1,8,0,0,1.08239X$1,22.5*
%
%ADD10C,0.0320*%
%ADD11C,0.0000*%
D10*
X000260Y000285D02*
X000260Y095285D01*
X060260Y095285D01*
X060260Y000285D01*
X000260Y000285D01*
D11*
X051275Y008785D02*
X051277Y008820D01*
X051283Y008855D01*
X051293Y008889D01*
X051306Y008922D01*
X051323Y008953D01*
X051344Y008981D01*
X051367Y009008D01*
X051394Y009031D01*
X051422Y009052D01*
X051453Y009069D01*
X051486Y009082D01*
X051520Y009092D01*
X051555Y009098D01*
X051590Y009100D01*
X051625Y009098D01*
X051660Y009092D01*
X051694Y009082D01*
X051727Y009069D01*
X051758Y009052D01*
X051786Y009031D01*
X051813Y009008D01*
X051836Y008981D01*
X051857Y008953D01*
X051874Y008922D01*
X051887Y008889D01*
X051897Y008855D01*
X051903Y008820D01*
X051905Y008785D01*
X051903Y008750D01*
X051897Y008715D01*
X051887Y008681D01*
X051874Y008648D01*
X051857Y008617D01*
X051836Y008589D01*
X051813Y008562D01*
X051786Y008539D01*
X051758Y008518D01*
X051727Y008501D01*
X051694Y008488D01*
X051660Y008478D01*
X051625Y008472D01*
X051590Y008470D01*
X051555Y008472D01*
X051520Y008478D01*
X051486Y008488D01*
X051453Y008501D01*
X051422Y008518D01*
X051394Y008539D01*
X051367Y008562D01*
X051344Y008589D01*
X051323Y008617D01*
X051306Y008648D01*
X051293Y008681D01*
X051283Y008715D01*
X051277Y008750D01*
X051275Y008785D01*
X054575Y008785D02*
X054577Y008820D01*
X054583Y008855D01*
X054593Y008889D01*
X054606Y008922D01*
X054623Y008953D01*
X054644Y008981D01*
X054667Y009008D01*
X054694Y009031D01*
X054722Y009052D01*
X054753Y009069D01*
X054786Y009082D01*
X054820Y009092D01*
X054855Y009098D01*
X054890Y009100D01*
X054925Y009098D01*
X054960Y009092D01*
X054994Y009082D01*
X055027Y009069D01*
X055058Y009052D01*
X055086Y009031D01*
X055113Y009008D01*
X055136Y008981D01*
X055157Y008953D01*
X055174Y008922D01*
X055187Y008889D01*
X055197Y008855D01*
X055203Y008820D01*
X055205Y008785D01*
X055203Y008750D01*
X055197Y008715D01*
X055187Y008681D01*
X055174Y008648D01*
X055157Y008617D01*
X055136Y008589D01*
X055113Y008562D01*
X055086Y008539D01*
X055058Y008518D01*
X055027Y008501D01*
X054994Y008488D01*
X054960Y008478D01*
X054925Y008472D01*
X054890Y008470D01*
X054855Y008472D01*
X054820Y008478D01*
X054786Y008488D01*
X054753Y008501D01*
X054722Y008518D01*
X054694Y008539D01*
X054667Y008562D01*
X054644Y008589D01*
X054623Y008617D01*
X054606Y008648D01*
X054593Y008681D01*
X054583Y008715D01*
X054577Y008750D01*
X054575Y008785D01*
X057050Y009535D02*
X057052Y009585D01*
X057058Y009635D01*
X057068Y009684D01*
X057081Y009733D01*
X057099Y009780D01*
X057120Y009826D01*
X057144Y009869D01*
X057172Y009911D01*
X057203Y009951D01*
X057237Y009988D01*
X057274Y010022D01*
X057314Y010053D01*
X057356Y010081D01*
X057399Y010105D01*
X057445Y010126D01*
X057492Y010144D01*
X057541Y010157D01*
X057590Y010167D01*
X057640Y010173D01*
X057690Y010175D01*
X057740Y010173D01*
X057790Y010167D01*
X057839Y010157D01*
X057888Y010144D01*
X057935Y010126D01*
X057981Y010105D01*
X058024Y010081D01*
X058066Y010053D01*
X058106Y010022D01*
X058143Y009988D01*
X058177Y009951D01*
X058208Y009911D01*
X058236Y009869D01*
X058260Y009826D01*
X058281Y009780D01*
X058299Y009733D01*
X058312Y009684D01*
X058322Y009635D01*
X058328Y009585D01*
X058330Y009535D01*
X058328Y009485D01*
X058322Y009435D01*
X058312Y009386D01*
X058299Y009337D01*
X058281Y009290D01*
X058260Y009244D01*
X058236Y009201D01*
X058208Y009159D01*
X058177Y009119D01*
X058143Y009082D01*
X058106Y009048D01*
X058066Y009017D01*
X058024Y008989D01*
X057981Y008965D01*
X057935Y008944D01*
X057888Y008926D01*
X057839Y008913D01*
X057790Y008903D01*
X057740Y008897D01*
X057690Y008895D01*
X057640Y008897D01*
X057590Y008903D01*
X057541Y008913D01*
X057492Y008926D01*
X057445Y008944D01*
X057399Y008965D01*
X057356Y008989D01*
X057314Y009017D01*
X057274Y009048D01*
X057237Y009082D01*
X057203Y009119D01*
X057172Y009159D01*
X057144Y009201D01*
X057120Y009244D01*
X057099Y009290D01*
X057081Y009337D01*
X057068Y009386D01*
X057058Y009435D01*
X057052Y009485D01*
X057050Y009535D01*
X057050Y014535D02*
X057052Y014585D01*
X057058Y014635D01*
X057068Y014684D01*
X057081Y014733D01*
X057099Y014780D01*
X057120Y014826D01*
X057144Y014869D01*
X057172Y014911D01*
X057203Y014951D01*
X057237Y014988D01*
X057274Y015022D01*
X057314Y015053D01*
X057356Y015081D01*
X057399Y015105D01*
X057445Y015126D01*
X057492Y015144D01*
X057541Y015157D01*
X057590Y015167D01*
X057640Y015173D01*
X057690Y015175D01*
X057740Y015173D01*
X057790Y015167D01*
X057839Y015157D01*
X057888Y015144D01*
X057935Y015126D01*
X057981Y015105D01*
X058024Y015081D01*
X058066Y015053D01*
X058106Y015022D01*
X058143Y014988D01*
X058177Y014951D01*
X058208Y014911D01*
X058236Y014869D01*
X058260Y014826D01*
X058281Y014780D01*
X058299Y014733D01*
X058312Y014684D01*
X058322Y014635D01*
X058328Y014585D01*
X058330Y014535D01*
X058328Y014485D01*
X058322Y014435D01*
X058312Y014386D01*
X058299Y014337D01*
X058281Y014290D01*
X058260Y014244D01*
X058236Y014201D01*
X058208Y014159D01*
X058177Y014119D01*
X058143Y014082D01*
X058106Y014048D01*
X058066Y014017D01*
X058024Y013989D01*
X057981Y013965D01*
X057935Y013944D01*
X057888Y013926D01*
X057839Y013913D01*
X057790Y013903D01*
X057740Y013897D01*
X057690Y013895D01*
X057640Y013897D01*
X057590Y013903D01*
X057541Y013913D01*
X057492Y013926D01*
X057445Y013944D01*
X057399Y013965D01*
X057356Y013989D01*
X057314Y014017D01*
X057274Y014048D01*
X057237Y014082D01*
X057203Y014119D01*
X057172Y014159D01*
X057144Y014201D01*
X057120Y014244D01*
X057099Y014290D01*
X057081Y014337D01*
X057068Y014386D01*
X057058Y014435D01*
X057052Y014485D01*
X057050Y014535D01*
X054575Y015285D02*
X054577Y015320D01*
X054583Y015355D01*
X054593Y015389D01*
X054606Y015422D01*
X054623Y015453D01*
X054644Y015481D01*
X054667Y015508D01*
X054694Y015531D01*
X054722Y015552D01*
X054753Y015569D01*
X054786Y015582D01*
X054820Y015592D01*
X054855Y015598D01*
X054890Y015600D01*
X054925Y015598D01*
X054960Y015592D01*
X054994Y015582D01*
X055027Y015569D01*
X055058Y015552D01*
X055086Y015531D01*
X055113Y015508D01*
X055136Y015481D01*
X055157Y015453D01*
X055174Y015422D01*
X055187Y015389D01*
X055197Y015355D01*
X055203Y015320D01*
X055205Y015285D01*
X055203Y015250D01*
X055197Y015215D01*
X055187Y015181D01*
X055174Y015148D01*
X055157Y015117D01*
X055136Y015089D01*
X055113Y015062D01*
X055086Y015039D01*
X055058Y015018D01*
X055027Y015001D01*
X054994Y014988D01*
X054960Y014978D01*
X054925Y014972D01*
X054890Y014970D01*
X054855Y014972D01*
X054820Y014978D01*
X054786Y014988D01*
X054753Y015001D01*
X054722Y015018D01*
X054694Y015039D01*
X054667Y015062D01*
X054644Y015089D01*
X054623Y015117D01*
X054606Y015148D01*
X054593Y015181D01*
X054583Y015215D01*
X054577Y015250D01*
X054575Y015285D01*
X054575Y016785D02*
X054577Y016820D01*
X054583Y016855D01*
X054593Y016889D01*
X054606Y016922D01*
X054623Y016953D01*
X054644Y016981D01*
X054667Y017008D01*
X054694Y017031D01*
X054722Y017052D01*
X054753Y017069D01*
X054786Y017082D01*
X054820Y017092D01*
X054855Y017098D01*
X054890Y017100D01*
X054925Y017098D01*
X054960Y017092D01*
X054994Y017082D01*
X055027Y017069D01*
X055058Y017052D01*
X055086Y017031D01*
X055113Y017008D01*
X055136Y016981D01*
X055157Y016953D01*
X055174Y016922D01*
X055187Y016889D01*
X055197Y016855D01*
X055203Y016820D01*
X055205Y016785D01*
X055203Y016750D01*
X055197Y016715D01*
X055187Y016681D01*
X055174Y016648D01*
X055157Y016617D01*
X055136Y016589D01*
X055113Y016562D01*
X055086Y016539D01*
X055058Y016518D01*
X055027Y016501D01*
X054994Y016488D01*
X054960Y016478D01*
X054925Y016472D01*
X054890Y016470D01*
X054855Y016472D01*
X054820Y016478D01*
X054786Y016488D01*
X054753Y016501D01*
X054722Y016518D01*
X054694Y016539D01*
X054667Y016562D01*
X054644Y016589D01*
X054623Y016617D01*
X054606Y016648D01*
X054593Y016681D01*
X054583Y016715D01*
X054577Y016750D01*
X054575Y016785D01*
X051275Y016785D02*
X051277Y016820D01*
X051283Y016855D01*
X051293Y016889D01*
X051306Y016922D01*
X051323Y016953D01*
X051344Y016981D01*
X051367Y017008D01*
X051394Y017031D01*
X051422Y017052D01*
X051453Y017069D01*
X051486Y017082D01*
X051520Y017092D01*
X051555Y017098D01*
X051590Y017100D01*
X051625Y017098D01*
X051660Y017092D01*
X051694Y017082D01*
X051727Y017069D01*
X051758Y017052D01*
X051786Y017031D01*
X051813Y017008D01*
X051836Y016981D01*
X051857Y016953D01*
X051874Y016922D01*
X051887Y016889D01*
X051897Y016855D01*
X051903Y016820D01*
X051905Y016785D01*
X051903Y016750D01*
X051897Y016715D01*
X051887Y016681D01*
X051874Y016648D01*
X051857Y016617D01*
X051836Y016589D01*
X051813Y016562D01*
X051786Y016539D01*
X051758Y016518D01*
X051727Y016501D01*
X051694Y016488D01*
X051660Y016478D01*
X051625Y016472D01*
X051590Y016470D01*
X051555Y016472D01*
X051520Y016478D01*
X051486Y016488D01*
X051453Y016501D01*
X051422Y016518D01*
X051394Y016539D01*
X051367Y016562D01*
X051344Y016589D01*
X051323Y016617D01*
X051306Y016648D01*
X051293Y016681D01*
X051283Y016715D01*
X051277Y016750D01*
X051275Y016785D01*
X051275Y015285D02*
X051277Y015320D01*
X051283Y015355D01*
X051293Y015389D01*
X051306Y015422D01*
X051323Y015453D01*
X051344Y015481D01*
X051367Y015508D01*
X051394Y015531D01*
X051422Y015552D01*
X051453Y015569D01*
X051486Y015582D01*
X051520Y015592D01*
X051555Y015598D01*
X051590Y015600D01*
X051625Y015598D01*
X051660Y015592D01*
X051694Y015582D01*
X051727Y015569D01*
X051758Y015552D01*
X051786Y015531D01*
X051813Y015508D01*
X051836Y015481D01*
X051857Y015453D01*
X051874Y015422D01*
X051887Y015389D01*
X051897Y015355D01*
X051903Y015320D01*
X051905Y015285D01*
X051903Y015250D01*
X051897Y015215D01*
X051887Y015181D01*
X051874Y015148D01*
X051857Y015117D01*
X051836Y015089D01*
X051813Y015062D01*
X051786Y015039D01*
X051758Y015018D01*
X051727Y015001D01*
X051694Y014988D01*
X051660Y014978D01*
X051625Y014972D01*
X051590Y014970D01*
X051555Y014972D01*
X051520Y014978D01*
X051486Y014988D01*
X051453Y015001D01*
X051422Y015018D01*
X051394Y015039D01*
X051367Y015062D01*
X051344Y015089D01*
X051323Y015117D01*
X051306Y015148D01*
X051293Y015181D01*
X051283Y015215D01*
X051277Y015250D01*
X051275Y015285D01*
X057050Y017535D02*
X057052Y017585D01*
X057058Y017635D01*
X057068Y017684D01*
X057081Y017733D01*
X057099Y017780D01*
X057120Y017826D01*
X057144Y017869D01*
X057172Y017911D01*
X057203Y017951D01*
X057237Y017988D01*
X057274Y018022D01*
X057314Y018053D01*
X057356Y018081D01*
X057399Y018105D01*
X057445Y018126D01*
X057492Y018144D01*
X057541Y018157D01*
X057590Y018167D01*
X057640Y018173D01*
X057690Y018175D01*
X057740Y018173D01*
X057790Y018167D01*
X057839Y018157D01*
X057888Y018144D01*
X057935Y018126D01*
X057981Y018105D01*
X058024Y018081D01*
X058066Y018053D01*
X058106Y018022D01*
X058143Y017988D01*
X058177Y017951D01*
X058208Y017911D01*
X058236Y017869D01*
X058260Y017826D01*
X058281Y017780D01*
X058299Y017733D01*
X058312Y017684D01*
X058322Y017635D01*
X058328Y017585D01*
X058330Y017535D01*
X058328Y017485D01*
X058322Y017435D01*
X058312Y017386D01*
X058299Y017337D01*
X058281Y017290D01*
X058260Y017244D01*
X058236Y017201D01*
X058208Y017159D01*
X058177Y017119D01*
X058143Y017082D01*
X058106Y017048D01*
X058066Y017017D01*
X058024Y016989D01*
X057981Y016965D01*
X057935Y016944D01*
X057888Y016926D01*
X057839Y016913D01*
X057790Y016903D01*
X057740Y016897D01*
X057690Y016895D01*
X057640Y016897D01*
X057590Y016903D01*
X057541Y016913D01*
X057492Y016926D01*
X057445Y016944D01*
X057399Y016965D01*
X057356Y016989D01*
X057314Y017017D01*
X057274Y017048D01*
X057237Y017082D01*
X057203Y017119D01*
X057172Y017159D01*
X057144Y017201D01*
X057120Y017244D01*
X057099Y017290D01*
X057081Y017337D01*
X057068Y017386D01*
X057058Y017435D01*
X057052Y017485D01*
X057050Y017535D01*
X057050Y022535D02*
X057052Y022585D01*
X057058Y022635D01*
X057068Y022684D01*
X057081Y022733D01*
X057099Y022780D01*
X057120Y022826D01*
X057144Y022869D01*
X057172Y022911D01*
X057203Y022951D01*
X057237Y022988D01*
X057274Y023022D01*
X057314Y023053D01*
X057356Y023081D01*
X057399Y023105D01*
X057445Y023126D01*
X057492Y023144D01*
X057541Y023157D01*
X057590Y023167D01*
X057640Y023173D01*
X057690Y023175D01*
X057740Y023173D01*
X057790Y023167D01*
X057839Y023157D01*
X057888Y023144D01*
X057935Y023126D01*
X057981Y023105D01*
X058024Y023081D01*
X058066Y023053D01*
X058106Y023022D01*
X058143Y022988D01*
X058177Y022951D01*
X058208Y022911D01*
X058236Y022869D01*
X058260Y022826D01*
X058281Y022780D01*
X058299Y022733D01*
X058312Y022684D01*
X058322Y022635D01*
X058328Y022585D01*
X058330Y022535D01*
X058328Y022485D01*
X058322Y022435D01*
X058312Y022386D01*
X058299Y022337D01*
X058281Y022290D01*
X058260Y022244D01*
X058236Y022201D01*
X058208Y022159D01*
X058177Y022119D01*
X058143Y022082D01*
X058106Y022048D01*
X058066Y022017D01*
X058024Y021989D01*
X057981Y021965D01*
X057935Y021944D01*
X057888Y021926D01*
X057839Y021913D01*
X057790Y021903D01*
X057740Y021897D01*
X057690Y021895D01*
X057640Y021897D01*
X057590Y021903D01*
X057541Y021913D01*
X057492Y021926D01*
X057445Y021944D01*
X057399Y021965D01*
X057356Y021989D01*
X057314Y022017D01*
X057274Y022048D01*
X057237Y022082D01*
X057203Y022119D01*
X057172Y022159D01*
X057144Y022201D01*
X057120Y022244D01*
X057099Y022290D01*
X057081Y022337D01*
X057068Y022386D01*
X057058Y022435D01*
X057052Y022485D01*
X057050Y022535D01*
X054575Y023285D02*
X054577Y023320D01*
X054583Y023355D01*
X054593Y023389D01*
X054606Y023422D01*
X054623Y023453D01*
X054644Y023481D01*
X054667Y023508D01*
X054694Y023531D01*
X054722Y023552D01*
X054753Y023569D01*
X054786Y023582D01*
X054820Y023592D01*
X054855Y023598D01*
X054890Y023600D01*
X054925Y023598D01*
X054960Y023592D01*
X054994Y023582D01*
X055027Y023569D01*
X055058Y023552D01*
X055086Y023531D01*
X055113Y023508D01*
X055136Y023481D01*
X055157Y023453D01*
X055174Y023422D01*
X055187Y023389D01*
X055197Y023355D01*
X055203Y023320D01*
X055205Y023285D01*
X055203Y023250D01*
X055197Y023215D01*
X055187Y023181D01*
X055174Y023148D01*
X055157Y023117D01*
X055136Y023089D01*
X055113Y023062D01*
X055086Y023039D01*
X055058Y023018D01*
X055027Y023001D01*
X054994Y022988D01*
X054960Y022978D01*
X054925Y022972D01*
X054890Y022970D01*
X054855Y022972D01*
X054820Y022978D01*
X054786Y022988D01*
X054753Y023001D01*
X054722Y023018D01*
X054694Y023039D01*
X054667Y023062D01*
X054644Y023089D01*
X054623Y023117D01*
X054606Y023148D01*
X054593Y023181D01*
X054583Y023215D01*
X054577Y023250D01*
X054575Y023285D01*
X054575Y024285D02*
X054577Y024320D01*
X054583Y024355D01*
X054593Y024389D01*
X054606Y024422D01*
X054623Y024453D01*
X054644Y024481D01*
X054667Y024508D01*
X054694Y024531D01*
X054722Y024552D01*
X054753Y024569D01*
X054786Y024582D01*
X054820Y024592D01*
X054855Y024598D01*
X054890Y024600D01*
X054925Y024598D01*
X054960Y024592D01*
X054994Y024582D01*
X055027Y024569D01*
X055058Y024552D01*
X055086Y024531D01*
X055113Y024508D01*
X055136Y024481D01*
X055157Y024453D01*
X055174Y024422D01*
X055187Y024389D01*
X055197Y024355D01*
X055203Y024320D01*
X055205Y024285D01*
X055203Y024250D01*
X055197Y024215D01*
X055187Y024181D01*
X055174Y024148D01*
X055157Y024117D01*
X055136Y024089D01*
X055113Y024062D01*
X055086Y024039D01*
X055058Y024018D01*
X055027Y024001D01*
X054994Y023988D01*
X054960Y023978D01*
X054925Y023972D01*
X054890Y023970D01*
X054855Y023972D01*
X054820Y023978D01*
X054786Y023988D01*
X054753Y024001D01*
X054722Y024018D01*
X054694Y024039D01*
X054667Y024062D01*
X054644Y024089D01*
X054623Y024117D01*
X054606Y024148D01*
X054593Y024181D01*
X054583Y024215D01*
X054577Y024250D01*
X054575Y024285D01*
X051275Y024285D02*
X051277Y024320D01*
X051283Y024355D01*
X051293Y024389D01*
X051306Y024422D01*
X051323Y024453D01*
X051344Y024481D01*
X051367Y024508D01*
X051394Y024531D01*
X051422Y024552D01*
X051453Y024569D01*
X051486Y024582D01*
X051520Y024592D01*
X051555Y024598D01*
X051590Y024600D01*
X051625Y024598D01*
X051660Y024592D01*
X051694Y024582D01*
X051727Y024569D01*
X051758Y024552D01*
X051786Y024531D01*
X051813Y024508D01*
X051836Y024481D01*
X051857Y024453D01*
X051874Y024422D01*
X051887Y024389D01*
X051897Y024355D01*
X051903Y024320D01*
X051905Y024285D01*
X051903Y024250D01*
X051897Y024215D01*
X051887Y024181D01*
X051874Y024148D01*
X051857Y024117D01*
X051836Y024089D01*
X051813Y024062D01*
X051786Y024039D01*
X051758Y024018D01*
X051727Y024001D01*
X051694Y023988D01*
X051660Y023978D01*
X051625Y023972D01*
X051590Y023970D01*
X051555Y023972D01*
X051520Y023978D01*
X051486Y023988D01*
X051453Y024001D01*
X051422Y024018D01*
X051394Y024039D01*
X051367Y024062D01*
X051344Y024089D01*
X051323Y024117D01*
X051306Y024148D01*
X051293Y024181D01*
X051283Y024215D01*
X051277Y024250D01*
X051275Y024285D01*
X051275Y023285D02*
X051277Y023320D01*
X051283Y023355D01*
X051293Y023389D01*
X051306Y023422D01*
X051323Y023453D01*
X051344Y023481D01*
X051367Y023508D01*
X051394Y023531D01*
X051422Y023552D01*
X051453Y023569D01*
X051486Y023582D01*
X051520Y023592D01*
X051555Y023598D01*
X051590Y023600D01*
X051625Y023598D01*
X051660Y023592D01*
X051694Y023582D01*
X051727Y023569D01*
X051758Y023552D01*
X051786Y023531D01*
X051813Y023508D01*
X051836Y023481D01*
X051857Y023453D01*
X051874Y023422D01*
X051887Y023389D01*
X051897Y023355D01*
X051903Y023320D01*
X051905Y023285D01*
X051903Y023250D01*
X051897Y023215D01*
X051887Y023181D01*
X051874Y023148D01*
X051857Y023117D01*
X051836Y023089D01*
X051813Y023062D01*
X051786Y023039D01*
X051758Y023018D01*
X051727Y023001D01*
X051694Y022988D01*
X051660Y022978D01*
X051625Y022972D01*
X051590Y022970D01*
X051555Y022972D01*
X051520Y022978D01*
X051486Y022988D01*
X051453Y023001D01*
X051422Y023018D01*
X051394Y023039D01*
X051367Y023062D01*
X051344Y023089D01*
X051323Y023117D01*
X051306Y023148D01*
X051293Y023181D01*
X051283Y023215D01*
X051277Y023250D01*
X051275Y023285D01*
X057050Y025035D02*
X057052Y025085D01*
X057058Y025135D01*
X057068Y025184D01*
X057081Y025233D01*
X057099Y025280D01*
X057120Y025326D01*
X057144Y025369D01*
X057172Y025411D01*
X057203Y025451D01*
X057237Y025488D01*
X057274Y025522D01*
X057314Y025553D01*
X057356Y025581D01*
X057399Y025605D01*
X057445Y025626D01*
X057492Y025644D01*
X057541Y025657D01*
X057590Y025667D01*
X057640Y025673D01*
X057690Y025675D01*
X057740Y025673D01*
X057790Y025667D01*
X057839Y025657D01*
X057888Y025644D01*
X057935Y025626D01*
X057981Y025605D01*
X058024Y025581D01*
X058066Y025553D01*
X058106Y025522D01*
X058143Y025488D01*
X058177Y025451D01*
X058208Y025411D01*
X058236Y025369D01*
X058260Y025326D01*
X058281Y025280D01*
X058299Y025233D01*
X058312Y025184D01*
X058322Y025135D01*
X058328Y025085D01*
X058330Y025035D01*
X058328Y024985D01*
X058322Y024935D01*
X058312Y024886D01*
X058299Y024837D01*
X058281Y024790D01*
X058260Y024744D01*
X058236Y024701D01*
X058208Y024659D01*
X058177Y024619D01*
X058143Y024582D01*
X058106Y024548D01*
X058066Y024517D01*
X058024Y024489D01*
X057981Y024465D01*
X057935Y024444D01*
X057888Y024426D01*
X057839Y024413D01*
X057790Y024403D01*
X057740Y024397D01*
X057690Y024395D01*
X057640Y024397D01*
X057590Y024403D01*
X057541Y024413D01*
X057492Y024426D01*
X057445Y024444D01*
X057399Y024465D01*
X057356Y024489D01*
X057314Y024517D01*
X057274Y024548D01*
X057237Y024582D01*
X057203Y024619D01*
X057172Y024659D01*
X057144Y024701D01*
X057120Y024744D01*
X057099Y024790D01*
X057081Y024837D01*
X057068Y024886D01*
X057058Y024935D01*
X057052Y024985D01*
X057050Y025035D01*
X057050Y030035D02*
X057052Y030085D01*
X057058Y030135D01*
X057068Y030184D01*
X057081Y030233D01*
X057099Y030280D01*
X057120Y030326D01*
X057144Y030369D01*
X057172Y030411D01*
X057203Y030451D01*
X057237Y030488D01*
X057274Y030522D01*
X057314Y030553D01*
X057356Y030581D01*
X057399Y030605D01*
X057445Y030626D01*
X057492Y030644D01*
X057541Y030657D01*
X057590Y030667D01*
X057640Y030673D01*
X057690Y030675D01*
X057740Y030673D01*
X057790Y030667D01*
X057839Y030657D01*
X057888Y030644D01*
X057935Y030626D01*
X057981Y030605D01*
X058024Y030581D01*
X058066Y030553D01*
X058106Y030522D01*
X058143Y030488D01*
X058177Y030451D01*
X058208Y030411D01*
X058236Y030369D01*
X058260Y030326D01*
X058281Y030280D01*
X058299Y030233D01*
X058312Y030184D01*
X058322Y030135D01*
X058328Y030085D01*
X058330Y030035D01*
X058328Y029985D01*
X058322Y029935D01*
X058312Y029886D01*
X058299Y029837D01*
X058281Y029790D01*
X058260Y029744D01*
X058236Y029701D01*
X058208Y029659D01*
X058177Y029619D01*
X058143Y029582D01*
X058106Y029548D01*
X058066Y029517D01*
X058024Y029489D01*
X057981Y029465D01*
X057935Y029444D01*
X057888Y029426D01*
X057839Y029413D01*
X057790Y029403D01*
X057740Y029397D01*
X057690Y029395D01*
X057640Y029397D01*
X057590Y029403D01*
X057541Y029413D01*
X057492Y029426D01*
X057445Y029444D01*
X057399Y029465D01*
X057356Y029489D01*
X057314Y029517D01*
X057274Y029548D01*
X057237Y029582D01*
X057203Y029619D01*
X057172Y029659D01*
X057144Y029701D01*
X057120Y029744D01*
X057099Y029790D01*
X057081Y029837D01*
X057068Y029886D01*
X057058Y029935D01*
X057052Y029985D01*
X057050Y030035D01*
X057050Y032535D02*
X057052Y032585D01*
X057058Y032635D01*
X057068Y032684D01*
X057081Y032733D01*
X057099Y032780D01*
X057120Y032826D01*
X057144Y032869D01*
X057172Y032911D01*
X057203Y032951D01*
X057237Y032988D01*
X057274Y033022D01*
X057314Y033053D01*
X057356Y033081D01*
X057399Y033105D01*
X057445Y033126D01*
X057492Y033144D01*
X057541Y033157D01*
X057590Y033167D01*
X057640Y033173D01*
X057690Y033175D01*
X057740Y033173D01*
X057790Y033167D01*
X057839Y033157D01*
X057888Y033144D01*
X057935Y033126D01*
X057981Y033105D01*
X058024Y033081D01*
X058066Y033053D01*
X058106Y033022D01*
X058143Y032988D01*
X058177Y032951D01*
X058208Y032911D01*
X058236Y032869D01*
X058260Y032826D01*
X058281Y032780D01*
X058299Y032733D01*
X058312Y032684D01*
X058322Y032635D01*
X058328Y032585D01*
X058330Y032535D01*
X058328Y032485D01*
X058322Y032435D01*
X058312Y032386D01*
X058299Y032337D01*
X058281Y032290D01*
X058260Y032244D01*
X058236Y032201D01*
X058208Y032159D01*
X058177Y032119D01*
X058143Y032082D01*
X058106Y032048D01*
X058066Y032017D01*
X058024Y031989D01*
X057981Y031965D01*
X057935Y031944D01*
X057888Y031926D01*
X057839Y031913D01*
X057790Y031903D01*
X057740Y031897D01*
X057690Y031895D01*
X057640Y031897D01*
X057590Y031903D01*
X057541Y031913D01*
X057492Y031926D01*
X057445Y031944D01*
X057399Y031965D01*
X057356Y031989D01*
X057314Y032017D01*
X057274Y032048D01*
X057237Y032082D01*
X057203Y032119D01*
X057172Y032159D01*
X057144Y032201D01*
X057120Y032244D01*
X057099Y032290D01*
X057081Y032337D01*
X057068Y032386D01*
X057058Y032435D01*
X057052Y032485D01*
X057050Y032535D01*
X054575Y031785D02*
X054577Y031820D01*
X054583Y031855D01*
X054593Y031889D01*
X054606Y031922D01*
X054623Y031953D01*
X054644Y031981D01*
X054667Y032008D01*
X054694Y032031D01*
X054722Y032052D01*
X054753Y032069D01*
X054786Y032082D01*
X054820Y032092D01*
X054855Y032098D01*
X054890Y032100D01*
X054925Y032098D01*
X054960Y032092D01*
X054994Y032082D01*
X055027Y032069D01*
X055058Y032052D01*
X055086Y032031D01*
X055113Y032008D01*
X055136Y031981D01*
X055157Y031953D01*
X055174Y031922D01*
X055187Y031889D01*
X055197Y031855D01*
X055203Y031820D01*
X055205Y031785D01*
X055203Y031750D01*
X055197Y031715D01*
X055187Y031681D01*
X055174Y031648D01*
X055157Y031617D01*
X055136Y031589D01*
X055113Y031562D01*
X055086Y031539D01*
X055058Y031518D01*
X055027Y031501D01*
X054994Y031488D01*
X054960Y031478D01*
X054925Y031472D01*
X054890Y031470D01*
X054855Y031472D01*
X054820Y031478D01*
X054786Y031488D01*
X054753Y031501D01*
X054722Y031518D01*
X054694Y031539D01*
X054667Y031562D01*
X054644Y031589D01*
X054623Y031617D01*
X054606Y031648D01*
X054593Y031681D01*
X054583Y031715D01*
X054577Y031750D01*
X054575Y031785D01*
X054575Y030785D02*
X054577Y030820D01*
X054583Y030855D01*
X054593Y030889D01*
X054606Y030922D01*
X054623Y030953D01*
X054644Y030981D01*
X054667Y031008D01*
X054694Y031031D01*
X054722Y031052D01*
X054753Y031069D01*
X054786Y031082D01*
X054820Y031092D01*
X054855Y031098D01*
X054890Y031100D01*
X054925Y031098D01*
X054960Y031092D01*
X054994Y031082D01*
X055027Y031069D01*
X055058Y031052D01*
X055086Y031031D01*
X055113Y031008D01*
X055136Y030981D01*
X055157Y030953D01*
X055174Y030922D01*
X055187Y030889D01*
X055197Y030855D01*
X055203Y030820D01*
X055205Y030785D01*
X055203Y030750D01*
X055197Y030715D01*
X055187Y030681D01*
X055174Y030648D01*
X055157Y030617D01*
X055136Y030589D01*
X055113Y030562D01*
X055086Y030539D01*
X055058Y030518D01*
X055027Y030501D01*
X054994Y030488D01*
X054960Y030478D01*
X054925Y030472D01*
X054890Y030470D01*
X054855Y030472D01*
X054820Y030478D01*
X054786Y030488D01*
X054753Y030501D01*
X054722Y030518D01*
X054694Y030539D01*
X054667Y030562D01*
X054644Y030589D01*
X054623Y030617D01*
X054606Y030648D01*
X054593Y030681D01*
X054583Y030715D01*
X054577Y030750D01*
X054575Y030785D01*
X051275Y030785D02*
X051277Y030820D01*
X051283Y030855D01*
X051293Y030889D01*
X051306Y030922D01*
X051323Y030953D01*
X051344Y030981D01*
X051367Y031008D01*
X051394Y031031D01*
X051422Y031052D01*
X051453Y031069D01*
X051486Y031082D01*
X051520Y031092D01*
X051555Y031098D01*
X051590Y031100D01*
X051625Y031098D01*
X051660Y031092D01*
X051694Y031082D01*
X051727Y031069D01*
X051758Y031052D01*
X051786Y031031D01*
X051813Y031008D01*
X051836Y030981D01*
X051857Y030953D01*
X051874Y030922D01*
X051887Y030889D01*
X051897Y030855D01*
X051903Y030820D01*
X051905Y030785D01*
X051903Y030750D01*
X051897Y030715D01*
X051887Y030681D01*
X051874Y030648D01*
X051857Y030617D01*
X051836Y030589D01*
X051813Y030562D01*
X051786Y030539D01*
X051758Y030518D01*
X051727Y030501D01*
X051694Y030488D01*
X051660Y030478D01*
X051625Y030472D01*
X051590Y030470D01*
X051555Y030472D01*
X051520Y030478D01*
X051486Y030488D01*
X051453Y030501D01*
X051422Y030518D01*
X051394Y030539D01*
X051367Y030562D01*
X051344Y030589D01*
X051323Y030617D01*
X051306Y030648D01*
X051293Y030681D01*
X051283Y030715D01*
X051277Y030750D01*
X051275Y030785D01*
X051275Y031785D02*
X051277Y031820D01*
X051283Y031855D01*
X051293Y031889D01*
X051306Y031922D01*
X051323Y031953D01*
X051344Y031981D01*
X051367Y032008D01*
X051394Y032031D01*
X051422Y032052D01*
X051453Y032069D01*
X051486Y032082D01*
X051520Y032092D01*
X051555Y032098D01*
X051590Y032100D01*
X051625Y032098D01*
X051660Y032092D01*
X051694Y032082D01*
X051727Y032069D01*
X051758Y032052D01*
X051786Y032031D01*
X051813Y032008D01*
X051836Y031981D01*
X051857Y031953D01*
X051874Y031922D01*
X051887Y031889D01*
X051897Y031855D01*
X051903Y031820D01*
X051905Y031785D01*
X051903Y031750D01*
X051897Y031715D01*
X051887Y031681D01*
X051874Y031648D01*
X051857Y031617D01*
X051836Y031589D01*
X051813Y031562D01*
X051786Y031539D01*
X051758Y031518D01*
X051727Y031501D01*
X051694Y031488D01*
X051660Y031478D01*
X051625Y031472D01*
X051590Y031470D01*
X051555Y031472D01*
X051520Y031478D01*
X051486Y031488D01*
X051453Y031501D01*
X051422Y031518D01*
X051394Y031539D01*
X051367Y031562D01*
X051344Y031589D01*
X051323Y031617D01*
X051306Y031648D01*
X051293Y031681D01*
X051283Y031715D01*
X051277Y031750D01*
X051275Y031785D01*
X051275Y038285D02*
X051277Y038320D01*
X051283Y038355D01*
X051293Y038389D01*
X051306Y038422D01*
X051323Y038453D01*
X051344Y038481D01*
X051367Y038508D01*
X051394Y038531D01*
X051422Y038552D01*
X051453Y038569D01*
X051486Y038582D01*
X051520Y038592D01*
X051555Y038598D01*
X051590Y038600D01*
X051625Y038598D01*
X051660Y038592D01*
X051694Y038582D01*
X051727Y038569D01*
X051758Y038552D01*
X051786Y038531D01*
X051813Y038508D01*
X051836Y038481D01*
X051857Y038453D01*
X051874Y038422D01*
X051887Y038389D01*
X051897Y038355D01*
X051903Y038320D01*
X051905Y038285D01*
X051903Y038250D01*
X051897Y038215D01*
X051887Y038181D01*
X051874Y038148D01*
X051857Y038117D01*
X051836Y038089D01*
X051813Y038062D01*
X051786Y038039D01*
X051758Y038018D01*
X051727Y038001D01*
X051694Y037988D01*
X051660Y037978D01*
X051625Y037972D01*
X051590Y037970D01*
X051555Y037972D01*
X051520Y037978D01*
X051486Y037988D01*
X051453Y038001D01*
X051422Y038018D01*
X051394Y038039D01*
X051367Y038062D01*
X051344Y038089D01*
X051323Y038117D01*
X051306Y038148D01*
X051293Y038181D01*
X051283Y038215D01*
X051277Y038250D01*
X051275Y038285D01*
X051275Y039285D02*
X051277Y039320D01*
X051283Y039355D01*
X051293Y039389D01*
X051306Y039422D01*
X051323Y039453D01*
X051344Y039481D01*
X051367Y039508D01*
X051394Y039531D01*
X051422Y039552D01*
X051453Y039569D01*
X051486Y039582D01*
X051520Y039592D01*
X051555Y039598D01*
X051590Y039600D01*
X051625Y039598D01*
X051660Y039592D01*
X051694Y039582D01*
X051727Y039569D01*
X051758Y039552D01*
X051786Y039531D01*
X051813Y039508D01*
X051836Y039481D01*
X051857Y039453D01*
X051874Y039422D01*
X051887Y039389D01*
X051897Y039355D01*
X051903Y039320D01*
X051905Y039285D01*
X051903Y039250D01*
X051897Y039215D01*
X051887Y039181D01*
X051874Y039148D01*
X051857Y039117D01*
X051836Y039089D01*
X051813Y039062D01*
X051786Y039039D01*
X051758Y039018D01*
X051727Y039001D01*
X051694Y038988D01*
X051660Y038978D01*
X051625Y038972D01*
X051590Y038970D01*
X051555Y038972D01*
X051520Y038978D01*
X051486Y038988D01*
X051453Y039001D01*
X051422Y039018D01*
X051394Y039039D01*
X051367Y039062D01*
X051344Y039089D01*
X051323Y039117D01*
X051306Y039148D01*
X051293Y039181D01*
X051283Y039215D01*
X051277Y039250D01*
X051275Y039285D01*
X054575Y039285D02*
X054577Y039320D01*
X054583Y039355D01*
X054593Y039389D01*
X054606Y039422D01*
X054623Y039453D01*
X054644Y039481D01*
X054667Y039508D01*
X054694Y039531D01*
X054722Y039552D01*
X054753Y039569D01*
X054786Y039582D01*
X054820Y039592D01*
X054855Y039598D01*
X054890Y039600D01*
X054925Y039598D01*
X054960Y039592D01*
X054994Y039582D01*
X055027Y039569D01*
X055058Y039552D01*
X055086Y039531D01*
X055113Y039508D01*
X055136Y039481D01*
X055157Y039453D01*
X055174Y039422D01*
X055187Y039389D01*
X055197Y039355D01*
X055203Y039320D01*
X055205Y039285D01*
X055203Y039250D01*
X055197Y039215D01*
X055187Y039181D01*
X055174Y039148D01*
X055157Y039117D01*
X055136Y039089D01*
X055113Y039062D01*
X055086Y039039D01*
X055058Y039018D01*
X055027Y039001D01*
X054994Y038988D01*
X054960Y038978D01*
X054925Y038972D01*
X054890Y038970D01*
X054855Y038972D01*
X054820Y038978D01*
X054786Y038988D01*
X054753Y039001D01*
X054722Y039018D01*
X054694Y039039D01*
X054667Y039062D01*
X054644Y039089D01*
X054623Y039117D01*
X054606Y039148D01*
X054593Y039181D01*
X054583Y039215D01*
X054577Y039250D01*
X054575Y039285D01*
X054575Y038285D02*
X054577Y038320D01*
X054583Y038355D01*
X054593Y038389D01*
X054606Y038422D01*
X054623Y038453D01*
X054644Y038481D01*
X054667Y038508D01*
X054694Y038531D01*
X054722Y038552D01*
X054753Y038569D01*
X054786Y038582D01*
X054820Y038592D01*
X054855Y038598D01*
X054890Y038600D01*
X054925Y038598D01*
X054960Y038592D01*
X054994Y038582D01*
X055027Y038569D01*
X055058Y038552D01*
X055086Y038531D01*
X055113Y038508D01*
X055136Y038481D01*
X055157Y038453D01*
X055174Y038422D01*
X055187Y038389D01*
X055197Y038355D01*
X055203Y038320D01*
X055205Y038285D01*
X055203Y038250D01*
X055197Y038215D01*
X055187Y038181D01*
X055174Y038148D01*
X055157Y038117D01*
X055136Y038089D01*
X055113Y038062D01*
X055086Y038039D01*
X055058Y038018D01*
X055027Y038001D01*
X054994Y037988D01*
X054960Y037978D01*
X054925Y037972D01*
X054890Y037970D01*
X054855Y037972D01*
X054820Y037978D01*
X054786Y037988D01*
X054753Y038001D01*
X054722Y038018D01*
X054694Y038039D01*
X054667Y038062D01*
X054644Y038089D01*
X054623Y038117D01*
X054606Y038148D01*
X054593Y038181D01*
X054583Y038215D01*
X054577Y038250D01*
X054575Y038285D01*
X057050Y037535D02*
X057052Y037585D01*
X057058Y037635D01*
X057068Y037684D01*
X057081Y037733D01*
X057099Y037780D01*
X057120Y037826D01*
X057144Y037869D01*
X057172Y037911D01*
X057203Y037951D01*
X057237Y037988D01*
X057274Y038022D01*
X057314Y038053D01*
X057356Y038081D01*
X057399Y038105D01*
X057445Y038126D01*
X057492Y038144D01*
X057541Y038157D01*
X057590Y038167D01*
X057640Y038173D01*
X057690Y038175D01*
X057740Y038173D01*
X057790Y038167D01*
X057839Y038157D01*
X057888Y038144D01*
X057935Y038126D01*
X057981Y038105D01*
X058024Y038081D01*
X058066Y038053D01*
X058106Y038022D01*
X058143Y037988D01*
X058177Y037951D01*
X058208Y037911D01*
X058236Y037869D01*
X058260Y037826D01*
X058281Y037780D01*
X058299Y037733D01*
X058312Y037684D01*
X058322Y037635D01*
X058328Y037585D01*
X058330Y037535D01*
X058328Y037485D01*
X058322Y037435D01*
X058312Y037386D01*
X058299Y037337D01*
X058281Y037290D01*
X058260Y037244D01*
X058236Y037201D01*
X058208Y037159D01*
X058177Y037119D01*
X058143Y037082D01*
X058106Y037048D01*
X058066Y037017D01*
X058024Y036989D01*
X057981Y036965D01*
X057935Y036944D01*
X057888Y036926D01*
X057839Y036913D01*
X057790Y036903D01*
X057740Y036897D01*
X057690Y036895D01*
X057640Y036897D01*
X057590Y036903D01*
X057541Y036913D01*
X057492Y036926D01*
X057445Y036944D01*
X057399Y036965D01*
X057356Y036989D01*
X057314Y037017D01*
X057274Y037048D01*
X057237Y037082D01*
X057203Y037119D01*
X057172Y037159D01*
X057144Y037201D01*
X057120Y037244D01*
X057099Y037290D01*
X057081Y037337D01*
X057068Y037386D01*
X057058Y037435D01*
X057052Y037485D01*
X057050Y037535D01*
X057050Y040035D02*
X057052Y040085D01*
X057058Y040135D01*
X057068Y040184D01*
X057081Y040233D01*
X057099Y040280D01*
X057120Y040326D01*
X057144Y040369D01*
X057172Y040411D01*
X057203Y040451D01*
X057237Y040488D01*
X057274Y040522D01*
X057314Y040553D01*
X057356Y040581D01*
X057399Y040605D01*
X057445Y040626D01*
X057492Y040644D01*
X057541Y040657D01*
X057590Y040667D01*
X057640Y040673D01*
X057690Y040675D01*
X057740Y040673D01*
X057790Y040667D01*
X057839Y040657D01*
X057888Y040644D01*
X057935Y040626D01*
X057981Y040605D01*
X058024Y040581D01*
X058066Y040553D01*
X058106Y040522D01*
X058143Y040488D01*
X058177Y040451D01*
X058208Y040411D01*
X058236Y040369D01*
X058260Y040326D01*
X058281Y040280D01*
X058299Y040233D01*
X058312Y040184D01*
X058322Y040135D01*
X058328Y040085D01*
X058330Y040035D01*
X058328Y039985D01*
X058322Y039935D01*
X058312Y039886D01*
X058299Y039837D01*
X058281Y039790D01*
X058260Y039744D01*
X058236Y039701D01*
X058208Y039659D01*
X058177Y039619D01*
X058143Y039582D01*
X058106Y039548D01*
X058066Y039517D01*
X058024Y039489D01*
X057981Y039465D01*
X057935Y039444D01*
X057888Y039426D01*
X057839Y039413D01*
X057790Y039403D01*
X057740Y039397D01*
X057690Y039395D01*
X057640Y039397D01*
X057590Y039403D01*
X057541Y039413D01*
X057492Y039426D01*
X057445Y039444D01*
X057399Y039465D01*
X057356Y039489D01*
X057314Y039517D01*
X057274Y039548D01*
X057237Y039582D01*
X057203Y039619D01*
X057172Y039659D01*
X057144Y039701D01*
X057120Y039744D01*
X057099Y039790D01*
X057081Y039837D01*
X057068Y039886D01*
X057058Y039935D01*
X057052Y039985D01*
X057050Y040035D01*
X057050Y045035D02*
X057052Y045085D01*
X057058Y045135D01*
X057068Y045184D01*
X057081Y045233D01*
X057099Y045280D01*
X057120Y045326D01*
X057144Y045369D01*
X057172Y045411D01*
X057203Y045451D01*
X057237Y045488D01*
X057274Y045522D01*
X057314Y045553D01*
X057356Y045581D01*
X057399Y045605D01*
X057445Y045626D01*
X057492Y045644D01*
X057541Y045657D01*
X057590Y045667D01*
X057640Y045673D01*
X057690Y045675D01*
X057740Y045673D01*
X057790Y045667D01*
X057839Y045657D01*
X057888Y045644D01*
X057935Y045626D01*
X057981Y045605D01*
X058024Y045581D01*
X058066Y045553D01*
X058106Y045522D01*
X058143Y045488D01*
X058177Y045451D01*
X058208Y045411D01*
X058236Y045369D01*
X058260Y045326D01*
X058281Y045280D01*
X058299Y045233D01*
X058312Y045184D01*
X058322Y045135D01*
X058328Y045085D01*
X058330Y045035D01*
X058328Y044985D01*
X058322Y044935D01*
X058312Y044886D01*
X058299Y044837D01*
X058281Y044790D01*
X058260Y044744D01*
X058236Y044701D01*
X058208Y044659D01*
X058177Y044619D01*
X058143Y044582D01*
X058106Y044548D01*
X058066Y044517D01*
X058024Y044489D01*
X057981Y044465D01*
X057935Y044444D01*
X057888Y044426D01*
X057839Y044413D01*
X057790Y044403D01*
X057740Y044397D01*
X057690Y044395D01*
X057640Y044397D01*
X057590Y044403D01*
X057541Y044413D01*
X057492Y044426D01*
X057445Y044444D01*
X057399Y044465D01*
X057356Y044489D01*
X057314Y044517D01*
X057274Y044548D01*
X057237Y044582D01*
X057203Y044619D01*
X057172Y044659D01*
X057144Y044701D01*
X057120Y044744D01*
X057099Y044790D01*
X057081Y044837D01*
X057068Y044886D01*
X057058Y044935D01*
X057052Y044985D01*
X057050Y045035D01*
X054575Y045785D02*
X054577Y045820D01*
X054583Y045855D01*
X054593Y045889D01*
X054606Y045922D01*
X054623Y045953D01*
X054644Y045981D01*
X054667Y046008D01*
X054694Y046031D01*
X054722Y046052D01*
X054753Y046069D01*
X054786Y046082D01*
X054820Y046092D01*
X054855Y046098D01*
X054890Y046100D01*
X054925Y046098D01*
X054960Y046092D01*
X054994Y046082D01*
X055027Y046069D01*
X055058Y046052D01*
X055086Y046031D01*
X055113Y046008D01*
X055136Y045981D01*
X055157Y045953D01*
X055174Y045922D01*
X055187Y045889D01*
X055197Y045855D01*
X055203Y045820D01*
X055205Y045785D01*
X055203Y045750D01*
X055197Y045715D01*
X055187Y045681D01*
X055174Y045648D01*
X055157Y045617D01*
X055136Y045589D01*
X055113Y045562D01*
X055086Y045539D01*
X055058Y045518D01*
X055027Y045501D01*
X054994Y045488D01*
X054960Y045478D01*
X054925Y045472D01*
X054890Y045470D01*
X054855Y045472D01*
X054820Y045478D01*
X054786Y045488D01*
X054753Y045501D01*
X054722Y045518D01*
X054694Y045539D01*
X054667Y045562D01*
X054644Y045589D01*
X054623Y045617D01*
X054606Y045648D01*
X054593Y045681D01*
X054583Y045715D01*
X054577Y045750D01*
X054575Y045785D01*
X054575Y046785D02*
X054577Y046820D01*
X054583Y046855D01*
X054593Y046889D01*
X054606Y046922D01*
X054623Y046953D01*
X054644Y046981D01*
X054667Y047008D01*
X054694Y047031D01*
X054722Y047052D01*
X054753Y047069D01*
X054786Y047082D01*
X054820Y047092D01*
X054855Y047098D01*
X054890Y047100D01*
X054925Y047098D01*
X054960Y047092D01*
X054994Y047082D01*
X055027Y047069D01*
X055058Y047052D01*
X055086Y047031D01*
X055113Y047008D01*
X055136Y046981D01*
X055157Y046953D01*
X055174Y046922D01*
X055187Y046889D01*
X055197Y046855D01*
X055203Y046820D01*
X055205Y046785D01*
X055203Y046750D01*
X055197Y046715D01*
X055187Y046681D01*
X055174Y046648D01*
X055157Y046617D01*
X055136Y046589D01*
X055113Y046562D01*
X055086Y046539D01*
X055058Y046518D01*
X055027Y046501D01*
X054994Y046488D01*
X054960Y046478D01*
X054925Y046472D01*
X054890Y046470D01*
X054855Y046472D01*
X054820Y046478D01*
X054786Y046488D01*
X054753Y046501D01*
X054722Y046518D01*
X054694Y046539D01*
X054667Y046562D01*
X054644Y046589D01*
X054623Y046617D01*
X054606Y046648D01*
X054593Y046681D01*
X054583Y046715D01*
X054577Y046750D01*
X054575Y046785D01*
X051275Y046785D02*
X051277Y046820D01*
X051283Y046855D01*
X051293Y046889D01*
X051306Y046922D01*
X051323Y046953D01*
X051344Y046981D01*
X051367Y047008D01*
X051394Y047031D01*
X051422Y047052D01*
X051453Y047069D01*
X051486Y047082D01*
X051520Y047092D01*
X051555Y047098D01*
X051590Y047100D01*
X051625Y047098D01*
X051660Y047092D01*
X051694Y047082D01*
X051727Y047069D01*
X051758Y047052D01*
X051786Y047031D01*
X051813Y047008D01*
X051836Y046981D01*
X051857Y046953D01*
X051874Y046922D01*
X051887Y046889D01*
X051897Y046855D01*
X051903Y046820D01*
X051905Y046785D01*
X051903Y046750D01*
X051897Y046715D01*
X051887Y046681D01*
X051874Y046648D01*
X051857Y046617D01*
X051836Y046589D01*
X051813Y046562D01*
X051786Y046539D01*
X051758Y046518D01*
X051727Y046501D01*
X051694Y046488D01*
X051660Y046478D01*
X051625Y046472D01*
X051590Y046470D01*
X051555Y046472D01*
X051520Y046478D01*
X051486Y046488D01*
X051453Y046501D01*
X051422Y046518D01*
X051394Y046539D01*
X051367Y046562D01*
X051344Y046589D01*
X051323Y046617D01*
X051306Y046648D01*
X051293Y046681D01*
X051283Y046715D01*
X051277Y046750D01*
X051275Y046785D01*
X051275Y045785D02*
X051277Y045820D01*
X051283Y045855D01*
X051293Y045889D01*
X051306Y045922D01*
X051323Y045953D01*
X051344Y045981D01*
X051367Y046008D01*
X051394Y046031D01*
X051422Y046052D01*
X051453Y046069D01*
X051486Y046082D01*
X051520Y046092D01*
X051555Y046098D01*
X051590Y046100D01*
X051625Y046098D01*
X051660Y046092D01*
X051694Y046082D01*
X051727Y046069D01*
X051758Y046052D01*
X051786Y046031D01*
X051813Y046008D01*
X051836Y045981D01*
X051857Y045953D01*
X051874Y045922D01*
X051887Y045889D01*
X051897Y045855D01*
X051903Y045820D01*
X051905Y045785D01*
X051903Y045750D01*
X051897Y045715D01*
X051887Y045681D01*
X051874Y045648D01*
X051857Y045617D01*
X051836Y045589D01*
X051813Y045562D01*
X051786Y045539D01*
X051758Y045518D01*
X051727Y045501D01*
X051694Y045488D01*
X051660Y045478D01*
X051625Y045472D01*
X051590Y045470D01*
X051555Y045472D01*
X051520Y045478D01*
X051486Y045488D01*
X051453Y045501D01*
X051422Y045518D01*
X051394Y045539D01*
X051367Y045562D01*
X051344Y045589D01*
X051323Y045617D01*
X051306Y045648D01*
X051293Y045681D01*
X051283Y045715D01*
X051277Y045750D01*
X051275Y045785D01*
X057050Y047535D02*
X057052Y047585D01*
X057058Y047635D01*
X057068Y047684D01*
X057081Y047733D01*
X057099Y047780D01*
X057120Y047826D01*
X057144Y047869D01*
X057172Y047911D01*
X057203Y047951D01*
X057237Y047988D01*
X057274Y048022D01*
X057314Y048053D01*
X057356Y048081D01*
X057399Y048105D01*
X057445Y048126D01*
X057492Y048144D01*
X057541Y048157D01*
X057590Y048167D01*
X057640Y048173D01*
X057690Y048175D01*
X057740Y048173D01*
X057790Y048167D01*
X057839Y048157D01*
X057888Y048144D01*
X057935Y048126D01*
X057981Y048105D01*
X058024Y048081D01*
X058066Y048053D01*
X058106Y048022D01*
X058143Y047988D01*
X058177Y047951D01*
X058208Y047911D01*
X058236Y047869D01*
X058260Y047826D01*
X058281Y047780D01*
X058299Y047733D01*
X058312Y047684D01*
X058322Y047635D01*
X058328Y047585D01*
X058330Y047535D01*
X058328Y047485D01*
X058322Y047435D01*
X058312Y047386D01*
X058299Y047337D01*
X058281Y047290D01*
X058260Y047244D01*
X058236Y047201D01*
X058208Y047159D01*
X058177Y047119D01*
X058143Y047082D01*
X058106Y047048D01*
X058066Y047017D01*
X058024Y046989D01*
X057981Y046965D01*
X057935Y046944D01*
X057888Y046926D01*
X057839Y046913D01*
X057790Y046903D01*
X057740Y046897D01*
X057690Y046895D01*
X057640Y046897D01*
X057590Y046903D01*
X057541Y046913D01*
X057492Y046926D01*
X057445Y046944D01*
X057399Y046965D01*
X057356Y046989D01*
X057314Y047017D01*
X057274Y047048D01*
X057237Y047082D01*
X057203Y047119D01*
X057172Y047159D01*
X057144Y047201D01*
X057120Y047244D01*
X057099Y047290D01*
X057081Y047337D01*
X057068Y047386D01*
X057058Y047435D01*
X057052Y047485D01*
X057050Y047535D01*
X057050Y052535D02*
X057052Y052585D01*
X057058Y052635D01*
X057068Y052684D01*
X057081Y052733D01*
X057099Y052780D01*
X057120Y052826D01*
X057144Y052869D01*
X057172Y052911D01*
X057203Y052951D01*
X057237Y052988D01*
X057274Y053022D01*
X057314Y053053D01*
X057356Y053081D01*
X057399Y053105D01*
X057445Y053126D01*
X057492Y053144D01*
X057541Y053157D01*
X057590Y053167D01*
X057640Y053173D01*
X057690Y053175D01*
X057740Y053173D01*
X057790Y053167D01*
X057839Y053157D01*
X057888Y053144D01*
X057935Y053126D01*
X057981Y053105D01*
X058024Y053081D01*
X058066Y053053D01*
X058106Y053022D01*
X058143Y052988D01*
X058177Y052951D01*
X058208Y052911D01*
X058236Y052869D01*
X058260Y052826D01*
X058281Y052780D01*
X058299Y052733D01*
X058312Y052684D01*
X058322Y052635D01*
X058328Y052585D01*
X058330Y052535D01*
X058328Y052485D01*
X058322Y052435D01*
X058312Y052386D01*
X058299Y052337D01*
X058281Y052290D01*
X058260Y052244D01*
X058236Y052201D01*
X058208Y052159D01*
X058177Y052119D01*
X058143Y052082D01*
X058106Y052048D01*
X058066Y052017D01*
X058024Y051989D01*
X057981Y051965D01*
X057935Y051944D01*
X057888Y051926D01*
X057839Y051913D01*
X057790Y051903D01*
X057740Y051897D01*
X057690Y051895D01*
X057640Y051897D01*
X057590Y051903D01*
X057541Y051913D01*
X057492Y051926D01*
X057445Y051944D01*
X057399Y051965D01*
X057356Y051989D01*
X057314Y052017D01*
X057274Y052048D01*
X057237Y052082D01*
X057203Y052119D01*
X057172Y052159D01*
X057144Y052201D01*
X057120Y052244D01*
X057099Y052290D01*
X057081Y052337D01*
X057068Y052386D01*
X057058Y052435D01*
X057052Y052485D01*
X057050Y052535D01*
X054575Y053285D02*
X054577Y053320D01*
X054583Y053355D01*
X054593Y053389D01*
X054606Y053422D01*
X054623Y053453D01*
X054644Y053481D01*
X054667Y053508D01*
X054694Y053531D01*
X054722Y053552D01*
X054753Y053569D01*
X054786Y053582D01*
X054820Y053592D01*
X054855Y053598D01*
X054890Y053600D01*
X054925Y053598D01*
X054960Y053592D01*
X054994Y053582D01*
X055027Y053569D01*
X055058Y053552D01*
X055086Y053531D01*
X055113Y053508D01*
X055136Y053481D01*
X055157Y053453D01*
X055174Y053422D01*
X055187Y053389D01*
X055197Y053355D01*
X055203Y053320D01*
X055205Y053285D01*
X055203Y053250D01*
X055197Y053215D01*
X055187Y053181D01*
X055174Y053148D01*
X055157Y053117D01*
X055136Y053089D01*
X055113Y053062D01*
X055086Y053039D01*
X055058Y053018D01*
X055027Y053001D01*
X054994Y052988D01*
X054960Y052978D01*
X054925Y052972D01*
X054890Y052970D01*
X054855Y052972D01*
X054820Y052978D01*
X054786Y052988D01*
X054753Y053001D01*
X054722Y053018D01*
X054694Y053039D01*
X054667Y053062D01*
X054644Y053089D01*
X054623Y053117D01*
X054606Y053148D01*
X054593Y053181D01*
X054583Y053215D01*
X054577Y053250D01*
X054575Y053285D01*
X054575Y054285D02*
X054577Y054320D01*
X054583Y054355D01*
X054593Y054389D01*
X054606Y054422D01*
X054623Y054453D01*
X054644Y054481D01*
X054667Y054508D01*
X054694Y054531D01*
X054722Y054552D01*
X054753Y054569D01*
X054786Y054582D01*
X054820Y054592D01*
X054855Y054598D01*
X054890Y054600D01*
X054925Y054598D01*
X054960Y054592D01*
X054994Y054582D01*
X055027Y054569D01*
X055058Y054552D01*
X055086Y054531D01*
X055113Y054508D01*
X055136Y054481D01*
X055157Y054453D01*
X055174Y054422D01*
X055187Y054389D01*
X055197Y054355D01*
X055203Y054320D01*
X055205Y054285D01*
X055203Y054250D01*
X055197Y054215D01*
X055187Y054181D01*
X055174Y054148D01*
X055157Y054117D01*
X055136Y054089D01*
X055113Y054062D01*
X055086Y054039D01*
X055058Y054018D01*
X055027Y054001D01*
X054994Y053988D01*
X054960Y053978D01*
X054925Y053972D01*
X054890Y053970D01*
X054855Y053972D01*
X054820Y053978D01*
X054786Y053988D01*
X054753Y054001D01*
X054722Y054018D01*
X054694Y054039D01*
X054667Y054062D01*
X054644Y054089D01*
X054623Y054117D01*
X054606Y054148D01*
X054593Y054181D01*
X054583Y054215D01*
X054577Y054250D01*
X054575Y054285D01*
X051275Y054285D02*
X051277Y054320D01*
X051283Y054355D01*
X051293Y054389D01*
X051306Y054422D01*
X051323Y054453D01*
X051344Y054481D01*
X051367Y054508D01*
X051394Y054531D01*
X051422Y054552D01*
X051453Y054569D01*
X051486Y054582D01*
X051520Y054592D01*
X051555Y054598D01*
X051590Y054600D01*
X051625Y054598D01*
X051660Y054592D01*
X051694Y054582D01*
X051727Y054569D01*
X051758Y054552D01*
X051786Y054531D01*
X051813Y054508D01*
X051836Y054481D01*
X051857Y054453D01*
X051874Y054422D01*
X051887Y054389D01*
X051897Y054355D01*
X051903Y054320D01*
X051905Y054285D01*
X051903Y054250D01*
X051897Y054215D01*
X051887Y054181D01*
X051874Y054148D01*
X051857Y054117D01*
X051836Y054089D01*
X051813Y054062D01*
X051786Y054039D01*
X051758Y054018D01*
X051727Y054001D01*
X051694Y053988D01*
X051660Y053978D01*
X051625Y053972D01*
X051590Y053970D01*
X051555Y053972D01*
X051520Y053978D01*
X051486Y053988D01*
X051453Y054001D01*
X051422Y054018D01*
X051394Y054039D01*
X051367Y054062D01*
X051344Y054089D01*
X051323Y054117D01*
X051306Y054148D01*
X051293Y054181D01*
X051283Y054215D01*
X051277Y054250D01*
X051275Y054285D01*
X051275Y053285D02*
X051277Y053320D01*
X051283Y053355D01*
X051293Y053389D01*
X051306Y053422D01*
X051323Y053453D01*
X051344Y053481D01*
X051367Y053508D01*
X051394Y053531D01*
X051422Y053552D01*
X051453Y053569D01*
X051486Y053582D01*
X051520Y053592D01*
X051555Y053598D01*
X051590Y053600D01*
X051625Y053598D01*
X051660Y053592D01*
X051694Y053582D01*
X051727Y053569D01*
X051758Y053552D01*
X051786Y053531D01*
X051813Y053508D01*
X051836Y053481D01*
X051857Y053453D01*
X051874Y053422D01*
X051887Y053389D01*
X051897Y053355D01*
X051903Y053320D01*
X051905Y053285D01*
X051903Y053250D01*
X051897Y053215D01*
X051887Y053181D01*
X051874Y053148D01*
X051857Y053117D01*
X051836Y053089D01*
X051813Y053062D01*
X051786Y053039D01*
X051758Y053018D01*
X051727Y053001D01*
X051694Y052988D01*
X051660Y052978D01*
X051625Y052972D01*
X051590Y052970D01*
X051555Y052972D01*
X051520Y052978D01*
X051486Y052988D01*
X051453Y053001D01*
X051422Y053018D01*
X051394Y053039D01*
X051367Y053062D01*
X051344Y053089D01*
X051323Y053117D01*
X051306Y053148D01*
X051293Y053181D01*
X051283Y053215D01*
X051277Y053250D01*
X051275Y053285D01*
X057050Y055035D02*
X057052Y055085D01*
X057058Y055135D01*
X057068Y055184D01*
X057081Y055233D01*
X057099Y055280D01*
X057120Y055326D01*
X057144Y055369D01*
X057172Y055411D01*
X057203Y055451D01*
X057237Y055488D01*
X057274Y055522D01*
X057314Y055553D01*
X057356Y055581D01*
X057399Y055605D01*
X057445Y055626D01*
X057492Y055644D01*
X057541Y055657D01*
X057590Y055667D01*
X057640Y055673D01*
X057690Y055675D01*
X057740Y055673D01*
X057790Y055667D01*
X057839Y055657D01*
X057888Y055644D01*
X057935Y055626D01*
X057981Y055605D01*
X058024Y055581D01*
X058066Y055553D01*
X058106Y055522D01*
X058143Y055488D01*
X058177Y055451D01*
X058208Y055411D01*
X058236Y055369D01*
X058260Y055326D01*
X058281Y055280D01*
X058299Y055233D01*
X058312Y055184D01*
X058322Y055135D01*
X058328Y055085D01*
X058330Y055035D01*
X058328Y054985D01*
X058322Y054935D01*
X058312Y054886D01*
X058299Y054837D01*
X058281Y054790D01*
X058260Y054744D01*
X058236Y054701D01*
X058208Y054659D01*
X058177Y054619D01*
X058143Y054582D01*
X058106Y054548D01*
X058066Y054517D01*
X058024Y054489D01*
X057981Y054465D01*
X057935Y054444D01*
X057888Y054426D01*
X057839Y054413D01*
X057790Y054403D01*
X057740Y054397D01*
X057690Y054395D01*
X057640Y054397D01*
X057590Y054403D01*
X057541Y054413D01*
X057492Y054426D01*
X057445Y054444D01*
X057399Y054465D01*
X057356Y054489D01*
X057314Y054517D01*
X057274Y054548D01*
X057237Y054582D01*
X057203Y054619D01*
X057172Y054659D01*
X057144Y054701D01*
X057120Y054744D01*
X057099Y054790D01*
X057081Y054837D01*
X057068Y054886D01*
X057058Y054935D01*
X057052Y054985D01*
X057050Y055035D01*
X057050Y060035D02*
X057052Y060085D01*
X057058Y060135D01*
X057068Y060184D01*
X057081Y060233D01*
X057099Y060280D01*
X057120Y060326D01*
X057144Y060369D01*
X057172Y060411D01*
X057203Y060451D01*
X057237Y060488D01*
X057274Y060522D01*
X057314Y060553D01*
X057356Y060581D01*
X057399Y060605D01*
X057445Y060626D01*
X057492Y060644D01*
X057541Y060657D01*
X057590Y060667D01*
X057640Y060673D01*
X057690Y060675D01*
X057740Y060673D01*
X057790Y060667D01*
X057839Y060657D01*
X057888Y060644D01*
X057935Y060626D01*
X057981Y060605D01*
X058024Y060581D01*
X058066Y060553D01*
X058106Y060522D01*
X058143Y060488D01*
X058177Y060451D01*
X058208Y060411D01*
X058236Y060369D01*
X058260Y060326D01*
X058281Y060280D01*
X058299Y060233D01*
X058312Y060184D01*
X058322Y060135D01*
X058328Y060085D01*
X058330Y060035D01*
X058328Y059985D01*
X058322Y059935D01*
X058312Y059886D01*
X058299Y059837D01*
X058281Y059790D01*
X058260Y059744D01*
X058236Y059701D01*
X058208Y059659D01*
X058177Y059619D01*
X058143Y059582D01*
X058106Y059548D01*
X058066Y059517D01*
X058024Y059489D01*
X057981Y059465D01*
X057935Y059444D01*
X057888Y059426D01*
X057839Y059413D01*
X057790Y059403D01*
X057740Y059397D01*
X057690Y059395D01*
X057640Y059397D01*
X057590Y059403D01*
X057541Y059413D01*
X057492Y059426D01*
X057445Y059444D01*
X057399Y059465D01*
X057356Y059489D01*
X057314Y059517D01*
X057274Y059548D01*
X057237Y059582D01*
X057203Y059619D01*
X057172Y059659D01*
X057144Y059701D01*
X057120Y059744D01*
X057099Y059790D01*
X057081Y059837D01*
X057068Y059886D01*
X057058Y059935D01*
X057052Y059985D01*
X057050Y060035D01*
X054575Y060785D02*
X054577Y060820D01*
X054583Y060855D01*
X054593Y060889D01*
X054606Y060922D01*
X054623Y060953D01*
X054644Y060981D01*
X054667Y061008D01*
X054694Y061031D01*
X054722Y061052D01*
X054753Y061069D01*
X054786Y061082D01*
X054820Y061092D01*
X054855Y061098D01*
X054890Y061100D01*
X054925Y061098D01*
X054960Y061092D01*
X054994Y061082D01*
X055027Y061069D01*
X055058Y061052D01*
X055086Y061031D01*
X055113Y061008D01*
X055136Y060981D01*
X055157Y060953D01*
X055174Y060922D01*
X055187Y060889D01*
X055197Y060855D01*
X055203Y060820D01*
X055205Y060785D01*
X055203Y060750D01*
X055197Y060715D01*
X055187Y060681D01*
X055174Y060648D01*
X055157Y060617D01*
X055136Y060589D01*
X055113Y060562D01*
X055086Y060539D01*
X055058Y060518D01*
X055027Y060501D01*
X054994Y060488D01*
X054960Y060478D01*
X054925Y060472D01*
X054890Y060470D01*
X054855Y060472D01*
X054820Y060478D01*
X054786Y060488D01*
X054753Y060501D01*
X054722Y060518D01*
X054694Y060539D01*
X054667Y060562D01*
X054644Y060589D01*
X054623Y060617D01*
X054606Y060648D01*
X054593Y060681D01*
X054583Y060715D01*
X054577Y060750D01*
X054575Y060785D01*
X054575Y061785D02*
X054577Y061820D01*
X054583Y061855D01*
X054593Y061889D01*
X054606Y061922D01*
X054623Y061953D01*
X054644Y061981D01*
X054667Y062008D01*
X054694Y062031D01*
X054722Y062052D01*
X054753Y062069D01*
X054786Y062082D01*
X054820Y062092D01*
X054855Y062098D01*
X054890Y062100D01*
X054925Y062098D01*
X054960Y062092D01*
X054994Y062082D01*
X055027Y062069D01*
X055058Y062052D01*
X055086Y062031D01*
X055113Y062008D01*
X055136Y061981D01*
X055157Y061953D01*
X055174Y061922D01*
X055187Y061889D01*
X055197Y061855D01*
X055203Y061820D01*
X055205Y061785D01*
X055203Y061750D01*
X055197Y061715D01*
X055187Y061681D01*
X055174Y061648D01*
X055157Y061617D01*
X055136Y061589D01*
X055113Y061562D01*
X055086Y061539D01*
X055058Y061518D01*
X055027Y061501D01*
X054994Y061488D01*
X054960Y061478D01*
X054925Y061472D01*
X054890Y061470D01*
X054855Y061472D01*
X054820Y061478D01*
X054786Y061488D01*
X054753Y061501D01*
X054722Y061518D01*
X054694Y061539D01*
X054667Y061562D01*
X054644Y061589D01*
X054623Y061617D01*
X054606Y061648D01*
X054593Y061681D01*
X054583Y061715D01*
X054577Y061750D01*
X054575Y061785D01*
X051275Y061785D02*
X051277Y061820D01*
X051283Y061855D01*
X051293Y061889D01*
X051306Y061922D01*
X051323Y061953D01*
X051344Y061981D01*
X051367Y062008D01*
X051394Y062031D01*
X051422Y062052D01*
X051453Y062069D01*
X051486Y062082D01*
X051520Y062092D01*
X051555Y062098D01*
X051590Y062100D01*
X051625Y062098D01*
X051660Y062092D01*
X051694Y062082D01*
X051727Y062069D01*
X051758Y062052D01*
X051786Y062031D01*
X051813Y062008D01*
X051836Y061981D01*
X051857Y061953D01*
X051874Y061922D01*
X051887Y061889D01*
X051897Y061855D01*
X051903Y061820D01*
X051905Y061785D01*
X051903Y061750D01*
X051897Y061715D01*
X051887Y061681D01*
X051874Y061648D01*
X051857Y061617D01*
X051836Y061589D01*
X051813Y061562D01*
X051786Y061539D01*
X051758Y061518D01*
X051727Y061501D01*
X051694Y061488D01*
X051660Y061478D01*
X051625Y061472D01*
X051590Y061470D01*
X051555Y061472D01*
X051520Y061478D01*
X051486Y061488D01*
X051453Y061501D01*
X051422Y061518D01*
X051394Y061539D01*
X051367Y061562D01*
X051344Y061589D01*
X051323Y061617D01*
X051306Y061648D01*
X051293Y061681D01*
X051283Y061715D01*
X051277Y061750D01*
X051275Y061785D01*
X051275Y060785D02*
X051277Y060820D01*
X051283Y060855D01*
X051293Y060889D01*
X051306Y060922D01*
X051323Y060953D01*
X051344Y060981D01*
X051367Y061008D01*
X051394Y061031D01*
X051422Y061052D01*
X051453Y061069D01*
X051486Y061082D01*
X051520Y061092D01*
X051555Y061098D01*
X051590Y061100D01*
X051625Y061098D01*
X051660Y061092D01*
X051694Y061082D01*
X051727Y061069D01*
X051758Y061052D01*
X051786Y061031D01*
X051813Y061008D01*
X051836Y060981D01*
X051857Y060953D01*
X051874Y060922D01*
X051887Y060889D01*
X051897Y060855D01*
X051903Y060820D01*
X051905Y060785D01*
X051903Y060750D01*
X051897Y060715D01*
X051887Y060681D01*
X051874Y060648D01*
X051857Y060617D01*
X051836Y060589D01*
X051813Y060562D01*
X051786Y060539D01*
X051758Y060518D01*
X051727Y060501D01*
X051694Y060488D01*
X051660Y060478D01*
X051625Y060472D01*
X051590Y060470D01*
X051555Y060472D01*
X051520Y060478D01*
X051486Y060488D01*
X051453Y060501D01*
X051422Y060518D01*
X051394Y060539D01*
X051367Y060562D01*
X051344Y060589D01*
X051323Y060617D01*
X051306Y060648D01*
X051293Y060681D01*
X051283Y060715D01*
X051277Y060750D01*
X051275Y060785D01*
X057050Y062535D02*
X057052Y062585D01*
X057058Y062635D01*
X057068Y062684D01*
X057081Y062733D01*
X057099Y062780D01*
X057120Y062826D01*
X057144Y062869D01*
X057172Y062911D01*
X057203Y062951D01*
X057237Y062988D01*
X057274Y063022D01*
X057314Y063053D01*
X057356Y063081D01*
X057399Y063105D01*
X057445Y063126D01*
X057492Y063144D01*
X057541Y063157D01*
X057590Y063167D01*
X057640Y063173D01*
X057690Y063175D01*
X057740Y063173D01*
X057790Y063167D01*
X057839Y063157D01*
X057888Y063144D01*
X057935Y063126D01*
X057981Y063105D01*
X058024Y063081D01*
X058066Y063053D01*
X058106Y063022D01*
X058143Y062988D01*
X058177Y062951D01*
X058208Y062911D01*
X058236Y062869D01*
X058260Y062826D01*
X058281Y062780D01*
X058299Y062733D01*
X058312Y062684D01*
X058322Y062635D01*
X058328Y062585D01*
X058330Y062535D01*
X058328Y062485D01*
X058322Y062435D01*
X058312Y062386D01*
X058299Y062337D01*
X058281Y062290D01*
X058260Y062244D01*
X058236Y062201D01*
X058208Y062159D01*
X058177Y062119D01*
X058143Y062082D01*
X058106Y062048D01*
X058066Y062017D01*
X058024Y061989D01*
X057981Y061965D01*
X057935Y061944D01*
X057888Y061926D01*
X057839Y061913D01*
X057790Y061903D01*
X057740Y061897D01*
X057690Y061895D01*
X057640Y061897D01*
X057590Y061903D01*
X057541Y061913D01*
X057492Y061926D01*
X057445Y061944D01*
X057399Y061965D01*
X057356Y061989D01*
X057314Y062017D01*
X057274Y062048D01*
X057237Y062082D01*
X057203Y062119D01*
X057172Y062159D01*
X057144Y062201D01*
X057120Y062244D01*
X057099Y062290D01*
X057081Y062337D01*
X057068Y062386D01*
X057058Y062435D01*
X057052Y062485D01*
X057050Y062535D01*
X057050Y067535D02*
X057052Y067585D01*
X057058Y067635D01*
X057068Y067684D01*
X057081Y067733D01*
X057099Y067780D01*
X057120Y067826D01*
X057144Y067869D01*
X057172Y067911D01*
X057203Y067951D01*
X057237Y067988D01*
X057274Y068022D01*
X057314Y068053D01*
X057356Y068081D01*
X057399Y068105D01*
X057445Y068126D01*
X057492Y068144D01*
X057541Y068157D01*
X057590Y068167D01*
X057640Y068173D01*
X057690Y068175D01*
X057740Y068173D01*
X057790Y068167D01*
X057839Y068157D01*
X057888Y068144D01*
X057935Y068126D01*
X057981Y068105D01*
X058024Y068081D01*
X058066Y068053D01*
X058106Y068022D01*
X058143Y067988D01*
X058177Y067951D01*
X058208Y067911D01*
X058236Y067869D01*
X058260Y067826D01*
X058281Y067780D01*
X058299Y067733D01*
X058312Y067684D01*
X058322Y067635D01*
X058328Y067585D01*
X058330Y067535D01*
X058328Y067485D01*
X058322Y067435D01*
X058312Y067386D01*
X058299Y067337D01*
X058281Y067290D01*
X058260Y067244D01*
X058236Y067201D01*
X058208Y067159D01*
X058177Y067119D01*
X058143Y067082D01*
X058106Y067048D01*
X058066Y067017D01*
X058024Y066989D01*
X057981Y066965D01*
X057935Y066944D01*
X057888Y066926D01*
X057839Y066913D01*
X057790Y066903D01*
X057740Y066897D01*
X057690Y066895D01*
X057640Y066897D01*
X057590Y066903D01*
X057541Y066913D01*
X057492Y066926D01*
X057445Y066944D01*
X057399Y066965D01*
X057356Y066989D01*
X057314Y067017D01*
X057274Y067048D01*
X057237Y067082D01*
X057203Y067119D01*
X057172Y067159D01*
X057144Y067201D01*
X057120Y067244D01*
X057099Y067290D01*
X057081Y067337D01*
X057068Y067386D01*
X057058Y067435D01*
X057052Y067485D01*
X057050Y067535D01*
X054575Y068285D02*
X054577Y068320D01*
X054583Y068355D01*
X054593Y068389D01*
X054606Y068422D01*
X054623Y068453D01*
X054644Y068481D01*
X054667Y068508D01*
X054694Y068531D01*
X054722Y068552D01*
X054753Y068569D01*
X054786Y068582D01*
X054820Y068592D01*
X054855Y068598D01*
X054890Y068600D01*
X054925Y068598D01*
X054960Y068592D01*
X054994Y068582D01*
X055027Y068569D01*
X055058Y068552D01*
X055086Y068531D01*
X055113Y068508D01*
X055136Y068481D01*
X055157Y068453D01*
X055174Y068422D01*
X055187Y068389D01*
X055197Y068355D01*
X055203Y068320D01*
X055205Y068285D01*
X055203Y068250D01*
X055197Y068215D01*
X055187Y068181D01*
X055174Y068148D01*
X055157Y068117D01*
X055136Y068089D01*
X055113Y068062D01*
X055086Y068039D01*
X055058Y068018D01*
X055027Y068001D01*
X054994Y067988D01*
X054960Y067978D01*
X054925Y067972D01*
X054890Y067970D01*
X054855Y067972D01*
X054820Y067978D01*
X054786Y067988D01*
X054753Y068001D01*
X054722Y068018D01*
X054694Y068039D01*
X054667Y068062D01*
X054644Y068089D01*
X054623Y068117D01*
X054606Y068148D01*
X054593Y068181D01*
X054583Y068215D01*
X054577Y068250D01*
X054575Y068285D01*
X051275Y068285D02*
X051277Y068320D01*
X051283Y068355D01*
X051293Y068389D01*
X051306Y068422D01*
X051323Y068453D01*
X051344Y068481D01*
X051367Y068508D01*
X051394Y068531D01*
X051422Y068552D01*
X051453Y068569D01*
X051486Y068582D01*
X051520Y068592D01*
X051555Y068598D01*
X051590Y068600D01*
X051625Y068598D01*
X051660Y068592D01*
X051694Y068582D01*
X051727Y068569D01*
X051758Y068552D01*
X051786Y068531D01*
X051813Y068508D01*
X051836Y068481D01*
X051857Y068453D01*
X051874Y068422D01*
X051887Y068389D01*
X051897Y068355D01*
X051903Y068320D01*
X051905Y068285D01*
X051903Y068250D01*
X051897Y068215D01*
X051887Y068181D01*
X051874Y068148D01*
X051857Y068117D01*
X051836Y068089D01*
X051813Y068062D01*
X051786Y068039D01*
X051758Y068018D01*
X051727Y068001D01*
X051694Y067988D01*
X051660Y067978D01*
X051625Y067972D01*
X051590Y067970D01*
X051555Y067972D01*
X051520Y067978D01*
X051486Y067988D01*
X051453Y068001D01*
X051422Y068018D01*
X051394Y068039D01*
X051367Y068062D01*
X051344Y068089D01*
X051323Y068117D01*
X051306Y068148D01*
X051293Y068181D01*
X051283Y068215D01*
X051277Y068250D01*
X051275Y068285D01*
X040748Y090559D02*
X040750Y090604D01*
X040756Y090648D01*
X040765Y090692D01*
X040779Y090734D01*
X040796Y090775D01*
X040817Y090815D01*
X040841Y090853D01*
X040868Y090888D01*
X040898Y090921D01*
X040931Y090951D01*
X040966Y090978D01*
X041004Y091002D01*
X041044Y091023D01*
X041085Y091040D01*
X041127Y091054D01*
X041171Y091063D01*
X041215Y091069D01*
X041260Y091071D01*
X041305Y091069D01*
X041349Y091063D01*
X041393Y091054D01*
X041435Y091040D01*
X041476Y091023D01*
X041516Y091002D01*
X041554Y090978D01*
X041589Y090951D01*
X041622Y090921D01*
X041652Y090888D01*
X041679Y090853D01*
X041703Y090815D01*
X041724Y090775D01*
X041741Y090734D01*
X041755Y090692D01*
X041764Y090648D01*
X041770Y090604D01*
X041772Y090559D01*
X041770Y090514D01*
X041764Y090470D01*
X041755Y090426D01*
X041741Y090384D01*
X041724Y090343D01*
X041703Y090303D01*
X041679Y090265D01*
X041652Y090230D01*
X041622Y090197D01*
X041589Y090167D01*
X041554Y090140D01*
X041516Y090116D01*
X041476Y090095D01*
X041435Y090078D01*
X041393Y090064D01*
X041349Y090055D01*
X041305Y090049D01*
X041260Y090047D01*
X041215Y090049D01*
X041171Y090055D01*
X041127Y090064D01*
X041085Y090078D01*
X041044Y090095D01*
X041004Y090116D01*
X040966Y090140D01*
X040931Y090167D01*
X040898Y090197D01*
X040868Y090230D01*
X040841Y090265D01*
X040817Y090303D01*
X040796Y090343D01*
X040779Y090384D01*
X040765Y090426D01*
X040756Y090470D01*
X040750Y090514D01*
X040748Y090559D01*
X033748Y090559D02*
X033750Y090604D01*
X033756Y090648D01*
X033765Y090692D01*
X033779Y090734D01*
X033796Y090775D01*
X033817Y090815D01*
X033841Y090853D01*
X033868Y090888D01*
X033898Y090921D01*
X033931Y090951D01*
X033966Y090978D01*
X034004Y091002D01*
X034044Y091023D01*
X034085Y091040D01*
X034127Y091054D01*
X034171Y091063D01*
X034215Y091069D01*
X034260Y091071D01*
X034305Y091069D01*
X034349Y091063D01*
X034393Y091054D01*
X034435Y091040D01*
X034476Y091023D01*
X034516Y091002D01*
X034554Y090978D01*
X034589Y090951D01*
X034622Y090921D01*
X034652Y090888D01*
X034679Y090853D01*
X034703Y090815D01*
X034724Y090775D01*
X034741Y090734D01*
X034755Y090692D01*
X034764Y090648D01*
X034770Y090604D01*
X034772Y090559D01*
X034770Y090514D01*
X034764Y090470D01*
X034755Y090426D01*
X034741Y090384D01*
X034724Y090343D01*
X034703Y090303D01*
X034679Y090265D01*
X034652Y090230D01*
X034622Y090197D01*
X034589Y090167D01*
X034554Y090140D01*
X034516Y090116D01*
X034476Y090095D01*
X034435Y090078D01*
X034393Y090064D01*
X034349Y090055D01*
X034305Y090049D01*
X034260Y090047D01*
X034215Y090049D01*
X034171Y090055D01*
X034127Y090064D01*
X034085Y090078D01*
X034044Y090095D01*
X034004Y090116D01*
X033966Y090140D01*
X033931Y090167D01*
X033898Y090197D01*
X033868Y090230D01*
X033841Y090265D01*
X033817Y090303D01*
X033796Y090343D01*
X033779Y090384D01*
X033765Y090426D01*
X033756Y090470D01*
X033750Y090514D01*
X033748Y090559D01*
X024630Y093202D02*
X024632Y093252D01*
X024638Y093302D01*
X024648Y093351D01*
X024662Y093399D01*
X024679Y093446D01*
X024700Y093491D01*
X024725Y093535D01*
X024753Y093576D01*
X024785Y093615D01*
X024819Y093652D01*
X024856Y093686D01*
X024896Y093716D01*
X024938Y093743D01*
X024982Y093767D01*
X025028Y093788D01*
X025075Y093804D01*
X025123Y093817D01*
X025173Y093826D01*
X025222Y093831D01*
X025273Y093832D01*
X025323Y093829D01*
X025372Y093822D01*
X025421Y093811D01*
X025469Y093796D01*
X025515Y093778D01*
X025560Y093756D01*
X025603Y093730D01*
X025644Y093701D01*
X025683Y093669D01*
X025719Y093634D01*
X025751Y093596D01*
X025781Y093556D01*
X025808Y093513D01*
X025831Y093469D01*
X025850Y093423D01*
X025866Y093375D01*
X025878Y093326D01*
X025886Y093277D01*
X025890Y093227D01*
X025890Y093177D01*
X025886Y093127D01*
X025878Y093078D01*
X025866Y093029D01*
X025850Y092981D01*
X025831Y092935D01*
X025808Y092891D01*
X025781Y092848D01*
X025751Y092808D01*
X025719Y092770D01*
X025683Y092735D01*
X025644Y092703D01*
X025603Y092674D01*
X025560Y092648D01*
X025515Y092626D01*
X025469Y092608D01*
X025421Y092593D01*
X025372Y092582D01*
X025323Y092575D01*
X025273Y092572D01*
X025222Y092573D01*
X025173Y092578D01*
X025123Y092587D01*
X025075Y092600D01*
X025028Y092616D01*
X024982Y092637D01*
X024938Y092661D01*
X024896Y092688D01*
X024856Y092718D01*
X024819Y092752D01*
X024785Y092789D01*
X024753Y092828D01*
X024725Y092869D01*
X024700Y092913D01*
X024679Y092958D01*
X024662Y093005D01*
X024648Y093053D01*
X024638Y093102D01*
X024632Y093152D01*
X024630Y093202D01*
X020130Y093202D02*
X020132Y093252D01*
X020138Y093302D01*
X020148Y093351D01*
X020162Y093399D01*
X020179Y093446D01*
X020200Y093491D01*
X020225Y093535D01*
X020253Y093576D01*
X020285Y093615D01*
X020319Y093652D01*
X020356Y093686D01*
X020396Y093716D01*
X020438Y093743D01*
X020482Y093767D01*
X020528Y093788D01*
X020575Y093804D01*
X020623Y093817D01*
X020673Y093826D01*
X020722Y093831D01*
X020773Y093832D01*
X020823Y093829D01*
X020872Y093822D01*
X020921Y093811D01*
X020969Y093796D01*
X021015Y093778D01*
X021060Y093756D01*
X021103Y093730D01*
X021144Y093701D01*
X021183Y093669D01*
X021219Y093634D01*
X021251Y093596D01*
X021281Y093556D01*
X021308Y093513D01*
X021331Y093469D01*
X021350Y093423D01*
X021366Y093375D01*
X021378Y093326D01*
X021386Y093277D01*
X021390Y093227D01*
X021390Y093177D01*
X021386Y093127D01*
X021378Y093078D01*
X021366Y093029D01*
X021350Y092981D01*
X021331Y092935D01*
X021308Y092891D01*
X021281Y092848D01*
X021251Y092808D01*
X021219Y092770D01*
X021183Y092735D01*
X021144Y092703D01*
X021103Y092674D01*
X021060Y092648D01*
X021015Y092626D01*
X020969Y092608D01*
X020921Y092593D01*
X020872Y092582D01*
X020823Y092575D01*
X020773Y092572D01*
X020722Y092573D01*
X020673Y092578D01*
X020623Y092587D01*
X020575Y092600D01*
X020528Y092616D01*
X020482Y092637D01*
X020438Y092661D01*
X020396Y092688D01*
X020356Y092718D01*
X020319Y092752D01*
X020285Y092789D01*
X020253Y092828D01*
X020225Y092869D01*
X020200Y092913D01*
X020179Y092958D01*
X020162Y093005D01*
X020148Y093053D01*
X020138Y093102D01*
X020132Y093152D01*
X020130Y093202D01*
M02*
