M48
;DRILL file {KiCad (5.0.0)} date 12/17/18 13:23:11
;FORMAT={-:-/ absolute / inch / decimal}
FMAT,2
INCH,TZ
T1C0.0157
T2C0.0300
T3C0.0350
T4C0.0394
T5C0.1040
T6C0.1598
%
G90
G05
M72
T1
X3.4499Y-4.2282
X3.5499Y-4.2266
X3.65Y-4.23
X3.75Y-4.23
X3.85Y-4.23
X3.95Y-4.23
X4.2Y-3.0689
X4.57Y-2.95
X4.57Y-3.05
X4.6Y-3.4
X4.6Y-3.5
X4.6189Y-3.
X4.65Y-2.9
X4.65Y-3.35
X4.65Y-3.55
X4.69Y-2.8
X4.69Y-3.26
X5.06Y-2.68
X5.06Y-2.95
X5.06Y-3.4
X5.06Y-3.63
X5.1Y-2.9
X5.1Y-3.35
X5.1Y-4.02
X5.1003Y-3.82
X5.14Y-2.8
X5.14Y-3.25
X5.14Y-3.32
X5.14Y-3.509
X5.2866Y-3.27
X5.29Y-2.79
X5.29Y-3.74
T2
X5.28Y-2.419
X5.28Y-2.519
X5.28Y-2.619
X5.28Y-2.919
X5.28Y-3.019
X5.28Y-3.119
X5.28Y-3.919
X5.28Y-4.019
X5.28Y-4.119
X5.28Y-3.419
X5.28Y-3.519
X5.28Y-3.619
T3
X4.2Y-2.773
X4.3Y-2.773
X3.6Y-2.773
X3.7Y-2.773
X3.835Y-4.53
X3.835Y-4.63
X3.835Y-4.73
T4
X4.77Y-3.75
X4.87Y-3.75
X4.97Y-3.75
X3.45Y-3.274
X3.45Y-3.374
X3.45Y-4.974
X3.45Y-5.074
X3.55Y-3.274
X3.55Y-3.374
X3.55Y-4.974
X3.55Y-5.074
X3.65Y-3.274
X3.65Y-3.374
X3.65Y-4.974
X3.65Y-5.074
X3.75Y-3.274
X3.75Y-3.374
X3.75Y-4.974
X3.75Y-5.074
X3.85Y-3.274
X3.85Y-3.374
X3.85Y-4.974
X3.85Y-5.074
X3.95Y-3.274
X3.95Y-3.374
X3.95Y-4.974
X3.95Y-5.074
X4.05Y-3.274
X4.05Y-3.374
X4.05Y-4.974
X4.05Y-5.074
X4.15Y-3.274
X4.15Y-3.374
X4.15Y-4.974
X4.15Y-5.074
X4.25Y-3.274
X4.25Y-3.374
X4.25Y-4.974
X4.25Y-5.074
X4.35Y-3.274
X4.35Y-3.374
X4.35Y-4.974
X4.35Y-5.074
T5
X4.1Y-2.573
X4.5Y-2.573
X3.5Y-2.573
X3.9Y-2.573
T6
X4.69Y-4.545
X4.69Y-4.86
T0
M30
