G04 #@! TF.GenerationSoftware,KiCad,Pcbnew,(5.0.0)*
G04 #@! TF.CreationDate,2018-12-17T13:23:09-06:00*
G04 #@! TF.ProjectId,CameraBoard_Hardware,43616D657261426F6172645F48617264,rev?*
G04 #@! TF.SameCoordinates,Original*
G04 #@! TF.FileFunction,Soldermask,Top*
G04 #@! TF.FilePolarity,Negative*
%FSLAX46Y46*%
G04 Gerber Fmt 4.6, Leading zero omitted, Abs format (unit mm)*
G04 Created by KiCad (PCBNEW (5.0.0)) date 12/17/18 13:23:09*
%MOMM*%
%LPD*%
G01*
G04 APERTURE LIST*
%ADD10R,1.600000X1.300000*%
%ADD11R,2.381200X0.933400*%
%ADD12R,1.600000X1.150000*%
%ADD13R,1.300000X1.600000*%
%ADD14C,3.041600*%
%ADD15C,1.924000*%
%ADD16C,5.480000*%
%ADD17C,1.920000*%
%ADD18C,3.850000*%
%ADD19R,2.100000X2.100000*%
%ADD20O,2.100000X2.100000*%
%ADD21R,1.150000X1.600000*%
G04 APERTURE END LIST*
D10*
G04 #@! TO.C,R7*
X134280000Y-81762600D03*
X132080000Y-81762600D03*
G04 #@! TD*
D11*
G04 #@! TO.C,U4*
X121412000Y-90170000D03*
X121412000Y-88900000D03*
X121412000Y-87630000D03*
X121412000Y-86360000D03*
X121412000Y-85090000D03*
X121412000Y-83820000D03*
X121412000Y-82550000D03*
X126339600Y-82550000D03*
X126339600Y-83820000D03*
X126339600Y-85090000D03*
X126339600Y-86360000D03*
X126339600Y-87630000D03*
X126339600Y-88900000D03*
X126339600Y-90170000D03*
G04 #@! TD*
D12*
G04 #@! TO.C,C3*
X124592000Y-68072000D03*
X126492000Y-68072000D03*
G04 #@! TD*
G04 #@! TO.C,C4*
X124592000Y-92202000D03*
X126492000Y-92202000D03*
G04 #@! TD*
D13*
G04 #@! TO.C,D1*
X90168106Y-98212000D03*
X90168106Y-96012000D03*
G04 #@! TD*
G04 #@! TO.C,D2*
X87630000Y-96012000D03*
X87630000Y-98212000D03*
G04 #@! TD*
G04 #@! TO.C,D3*
X95250000Y-98212000D03*
X95250000Y-96012000D03*
G04 #@! TD*
G04 #@! TO.C,D4*
X92710000Y-96012000D03*
X92710000Y-98212000D03*
G04 #@! TD*
G04 #@! TO.C,R1*
X90168106Y-100584000D03*
X90168106Y-102784000D03*
G04 #@! TD*
G04 #@! TO.C,R2*
X87630000Y-102784000D03*
X87630000Y-100584000D03*
G04 #@! TD*
G04 #@! TO.C,R3*
X95250000Y-102784000D03*
X95250000Y-100584000D03*
G04 #@! TD*
G04 #@! TO.C,R4*
X92710000Y-100584000D03*
X92710000Y-102784000D03*
G04 #@! TD*
D10*
G04 #@! TO.C,R5*
X134280000Y-97002600D03*
X132080000Y-97002600D03*
G04 #@! TD*
G04 #@! TO.C,R6*
X134280000Y-84302600D03*
X132080000Y-84302600D03*
G04 #@! TD*
G04 #@! TO.C,R8*
X134280000Y-69062600D03*
X132080000Y-69062600D03*
G04 #@! TD*
D13*
G04 #@! TO.C,R9*
X91440000Y-76368000D03*
X91440000Y-74168000D03*
G04 #@! TD*
G04 #@! TO.C,R10*
X106680000Y-74168000D03*
X106680000Y-76368000D03*
G04 #@! TD*
D11*
G04 #@! TO.C,U3*
X126339600Y-78740000D03*
X126339600Y-77470000D03*
X126339600Y-76200000D03*
X126339600Y-74930000D03*
X126339600Y-73660000D03*
X126339600Y-72390000D03*
X126339600Y-71120000D03*
X121412000Y-71120000D03*
X121412000Y-72390000D03*
X121412000Y-73660000D03*
X121412000Y-74930000D03*
X121412000Y-76200000D03*
X121412000Y-77470000D03*
X121412000Y-78740000D03*
G04 #@! TD*
D14*
G04 #@! TO.C,J1*
X99060000Y-65354200D03*
X88900000Y-65354200D03*
D15*
X91440000Y-70434200D03*
X93980000Y-70434200D03*
G04 #@! TD*
G04 #@! TO.C,J2*
X109220000Y-70434200D03*
X106680000Y-70434200D03*
D14*
X104140000Y-65354200D03*
X114300000Y-65354200D03*
G04 #@! TD*
D16*
G04 #@! TO.C,Conn1*
X119126000Y-115443000D03*
X119126000Y-123444000D03*
G04 #@! TD*
D13*
G04 #@! TO.C,D6*
X97790000Y-96012000D03*
X97790000Y-98212000D03*
G04 #@! TD*
G04 #@! TO.C,R11*
X97790000Y-102784000D03*
X97790000Y-100584000D03*
G04 #@! TD*
G04 #@! TO.C,R12*
X126238000Y-100076000D03*
X126238000Y-102276000D03*
G04 #@! TD*
G04 #@! TO.C,R13*
X124206000Y-100076000D03*
X124206000Y-102276000D03*
G04 #@! TD*
D17*
G04 #@! TO.C,U1*
X87630000Y-126338601D03*
X90170000Y-126338601D03*
X92710000Y-126338601D03*
X95250000Y-126338601D03*
X97790000Y-126338601D03*
X100330000Y-126338601D03*
X102870000Y-126338601D03*
X105410000Y-126338601D03*
X107950000Y-126338601D03*
X110490000Y-126338601D03*
X87630000Y-128878601D03*
X90170000Y-128878601D03*
X92710000Y-128878601D03*
X95250000Y-128878601D03*
X97790000Y-128878601D03*
X100330000Y-128878601D03*
X102870000Y-128878601D03*
X105410000Y-128878601D03*
X107950000Y-128878601D03*
X110490000Y-128878601D03*
X87630000Y-85698601D03*
X90170000Y-85698601D03*
X92710000Y-85698601D03*
X95250000Y-85698601D03*
X97790000Y-85698601D03*
X100330000Y-85698601D03*
X102870000Y-85698601D03*
X105410000Y-85698601D03*
X107950000Y-85698601D03*
X110490000Y-85698601D03*
X87630000Y-83158601D03*
X90170000Y-83158601D03*
X92710000Y-83158601D03*
X95250000Y-83158601D03*
X97790000Y-83158601D03*
X100330000Y-83158601D03*
X102870000Y-83158601D03*
X105410000Y-83158601D03*
X107950000Y-83158601D03*
X110490000Y-83158601D03*
G04 #@! TD*
D13*
G04 #@! TO.C,D7*
X100330000Y-96012000D03*
X100330000Y-98212000D03*
G04 #@! TD*
G04 #@! TO.C,R14*
X100330000Y-102784000D03*
X100330000Y-100584000D03*
G04 #@! TD*
D15*
G04 #@! TO.C,Conn3*
X134112000Y-99542600D03*
X134112000Y-102082600D03*
X134112000Y-104622600D03*
D18*
X142748000Y-98272600D03*
X142748000Y-105892600D03*
G04 #@! TD*
D15*
G04 #@! TO.C,Conn4*
X134112000Y-86842600D03*
X134112000Y-89382600D03*
X134112000Y-91922600D03*
D18*
X142748000Y-85572600D03*
X142748000Y-93192600D03*
G04 #@! TD*
G04 #@! TO.C,Conn5*
X142748000Y-80492600D03*
X142748000Y-72872600D03*
D15*
X134112000Y-79222600D03*
X134112000Y-76682600D03*
X134112000Y-74142600D03*
G04 #@! TD*
D18*
G04 #@! TO.C,Conn6*
X142748000Y-67792600D03*
X142748000Y-60172600D03*
D15*
X134112000Y-66522600D03*
X134112000Y-63982600D03*
X134112000Y-61442600D03*
G04 #@! TD*
D19*
G04 #@! TO.C,JP1*
X126238000Y-95250000D03*
D20*
X123698000Y-95250000D03*
X121158000Y-95250000D03*
G04 #@! TD*
D21*
G04 #@! TO.C,C1*
X93599000Y-120650000D03*
X93599000Y-118750000D03*
G04 #@! TD*
G04 #@! TO.C,C2*
X93599000Y-116459000D03*
X93599000Y-114559000D03*
G04 #@! TD*
D15*
G04 #@! TO.C,U2*
X97409000Y-120142000D03*
X97409000Y-117602000D03*
X97409000Y-115062000D03*
G04 #@! TD*
M02*
