G04 #@! TF.GenerationSoftware,KiCad,Pcbnew,(5.0.0)*
G04 #@! TF.CreationDate,2018-12-17T13:23:09-06:00*
G04 #@! TF.ProjectId,CameraBoard_Hardware,43616D657261426F6172645F48617264,rev?*
G04 #@! TF.SameCoordinates,Original*
G04 #@! TF.FileFunction,Copper,L2,Bot,Signal*
G04 #@! TF.FilePolarity,Positive*
%FSLAX46Y46*%
G04 Gerber Fmt 4.6, Leading zero omitted, Abs format (unit mm)*
G04 Created by KiCad (PCBNEW (5.0.0)) date 12/17/18 13:23:09*
%MOMM*%
%LPD*%
G01*
G04 APERTURE LIST*
G04 #@! TA.AperFunction,ComponentPad*
%ADD10C,2.641600*%
G04 #@! TD*
G04 #@! TA.AperFunction,ComponentPad*
%ADD11C,1.524000*%
G04 #@! TD*
G04 #@! TA.AperFunction,ComponentPad*
%ADD12C,5.080000*%
G04 #@! TD*
G04 #@! TA.AperFunction,ComponentPad*
%ADD13C,1.520000*%
G04 #@! TD*
G04 #@! TA.AperFunction,ComponentPad*
%ADD14R,1.700000X1.700000*%
G04 #@! TD*
G04 #@! TA.AperFunction,ComponentPad*
%ADD15O,1.700000X1.700000*%
G04 #@! TD*
G04 #@! TA.AperFunction,ViaPad*
%ADD16C,0.800000*%
G04 #@! TD*
G04 #@! TA.AperFunction,Conductor*
%ADD17C,0.381000*%
G04 #@! TD*
G04 #@! TA.AperFunction,Conductor*
%ADD18C,0.254000*%
G04 #@! TD*
G04 APERTURE END LIST*
D10*
G04 #@! TO.P,J1,4*
G04 #@! TO.N,N/C*
X99060000Y-65354200D03*
G04 #@! TO.P,J1,3*
X88900000Y-65354200D03*
D11*
G04 #@! TO.P,J1,2*
G04 #@! TO.N,Net-(J1-Pad2)*
X91440000Y-70434200D03*
G04 #@! TO.P,J1,1*
G04 #@! TO.N,GND*
X93980000Y-70434200D03*
G04 #@! TD*
G04 #@! TO.P,J2,1*
G04 #@! TO.N,GND*
X109220000Y-70434200D03*
G04 #@! TO.P,J2,2*
G04 #@! TO.N,Net-(J2-Pad2)*
X106680000Y-70434200D03*
D10*
G04 #@! TO.P,J2,3*
G04 #@! TO.N,N/C*
X104140000Y-65354200D03*
G04 #@! TO.P,J2,4*
X114300000Y-65354200D03*
G04 #@! TD*
D12*
G04 #@! TO.P,Conn1,1*
G04 #@! TO.N,GND*
X119126000Y-115443000D03*
G04 #@! TO.P,Conn1,2*
G04 #@! TO.N,+12V*
X119126000Y-123444000D03*
G04 #@! TD*
D13*
G04 #@! TO.P,U1,+5V*
G04 #@! TO.N,+5V*
X87630000Y-126338601D03*
G04 #@! TO.P,U1,GND*
G04 #@! TO.N,GND*
X90170000Y-126338601D03*
G04 #@! TO.P,U1,PE0*
G04 #@! TO.N,N/C*
X92710000Y-126338601D03*
G04 #@! TO.P,U1,PE1*
X95250000Y-126338601D03*
G04 #@! TO.P,U1,PE2*
X97790000Y-126338601D03*
G04 #@! TO.P,U1,PE3*
X100330000Y-126338601D03*
G04 #@! TO.P,U1,PD7*
X102870000Y-126338601D03*
G04 #@! TO.P,U1,PA6*
X105410000Y-126338601D03*
G04 #@! TO.P,U1,PM4*
X107950000Y-126338601D03*
G04 #@! TO.P,U1,PM5*
X110490000Y-126338601D03*
G04 #@! TO.P,U1,+3V3*
X87630000Y-128878601D03*
G04 #@! TO.P,U1,PE4*
X90170000Y-128878601D03*
G04 #@! TO.P,U1,PC4*
X92710000Y-128878601D03*
G04 #@! TO.P,U1,PC5*
X95250000Y-128878601D03*
G04 #@! TO.P,U1,PC6*
X97790000Y-128878601D03*
G04 #@! TO.P,U1,PE5*
X100330000Y-128878601D03*
G04 #@! TO.P,U1,PD3*
X102870000Y-128878601D03*
G04 #@! TO.P,U1,PC7*
X105410000Y-128878601D03*
G04 #@! TO.P,U1,PB2*
X107950000Y-128878601D03*
G04 #@! TO.P,U1,PB3*
X110490000Y-128878601D03*
G04 #@! TO.P,U1,PF1*
G04 #@! TO.N,MUXA0*
X87630000Y-85698601D03*
G04 #@! TO.P,U1,PF2*
G04 #@! TO.N,MUXA1*
X90170000Y-85698601D03*
G04 #@! TO.P,U1,PF3*
G04 #@! TO.N,MUXB0*
X92710000Y-85698601D03*
G04 #@! TO.P,U1,PG0*
G04 #@! TO.N,MUXB1*
X95250000Y-85698601D03*
G04 #@! TO.P,U1,PL4*
G04 #@! TO.N,SW_ERR*
X97790000Y-85698601D03*
G04 #@! TO.P,U1,PL5*
G04 #@! TO.N,N/C*
X100330000Y-85698601D03*
G04 #@! TO.P,U1,PL0*
X102870000Y-85698601D03*
G04 #@! TO.P,U1,PL1*
X105410000Y-85698601D03*
G04 #@! TO.P,U1,PL2*
X107950000Y-85698601D03*
G04 #@! TO.P,U1,PL3*
G04 #@! TO.N,MUXB_SHDN*
X110490000Y-85698601D03*
G04 #@! TO.P,U1,GND*
G04 #@! TO.N,GND*
X87630000Y-83158601D03*
G04 #@! TO.P,U1,PM3*
G04 #@! TO.N,N/C*
X90170000Y-83158601D03*
G04 #@! TO.P,U1,PH2*
X92710000Y-83158601D03*
G04 #@! TO.P,U1,PH3*
X95250000Y-83158601D03*
G04 #@! TO.P,U1,Rese*
X97790000Y-83158601D03*
G04 #@! TO.P,U1,PD1*
X100330000Y-83158601D03*
G04 #@! TO.P,U1,PD0*
X102870000Y-83158601D03*
G04 #@! TO.P,U1,PN2*
X105410000Y-83158601D03*
G04 #@! TO.P,U1,PN3*
X107950000Y-83158601D03*
G04 #@! TO.P,U1,PP2*
G04 #@! TO.N,MUXA_SHDN*
X110490000Y-83158601D03*
G04 #@! TD*
D11*
G04 #@! TO.P,Conn3,1*
G04 #@! TO.N,GND*
X134112000Y-99542600D03*
G04 #@! TO.P,Conn3,2*
G04 #@! TO.N,CAM_IN0*
X134112000Y-102082600D03*
G04 #@! TO.P,Conn3,3*
G04 #@! TO.N,+12V*
X134112000Y-104622600D03*
G04 #@! TD*
G04 #@! TO.P,Conn4,1*
G04 #@! TO.N,GND*
X134112000Y-86842600D03*
G04 #@! TO.P,Conn4,2*
G04 #@! TO.N,CAM_IN1*
X134112000Y-89382600D03*
G04 #@! TO.P,Conn4,3*
G04 #@! TO.N,+12V*
X134112000Y-91922600D03*
G04 #@! TD*
G04 #@! TO.P,Conn5,3*
G04 #@! TO.N,+12V*
X134112000Y-79222600D03*
G04 #@! TO.P,Conn5,2*
G04 #@! TO.N,CAM_IN2*
X134112000Y-76682600D03*
G04 #@! TO.P,Conn5,1*
G04 #@! TO.N,GND*
X134112000Y-74142600D03*
G04 #@! TD*
G04 #@! TO.P,Conn6,3*
G04 #@! TO.N,+12V*
X134112000Y-66522600D03*
G04 #@! TO.P,Conn6,2*
G04 #@! TO.N,CAM_IN3*
X134112000Y-63982600D03*
G04 #@! TO.P,Conn6,1*
G04 #@! TO.N,GND*
X134112000Y-61442600D03*
G04 #@! TD*
D14*
G04 #@! TO.P,JP1,1*
G04 #@! TO.N,+10V*
X126238000Y-95250000D03*
D15*
G04 #@! TO.P,JP1,2*
G04 #@! TO.N,/MUX_PWR*
X123698000Y-95250000D03*
G04 #@! TO.P,JP1,3*
G04 #@! TO.N,+5V*
X121158000Y-95250000D03*
G04 #@! TD*
D11*
G04 #@! TO.P,U2,1*
G04 #@! TO.N,+12V*
X97409000Y-120142000D03*
G04 #@! TO.P,U2,2*
G04 #@! TO.N,GND*
X97409000Y-117602000D03*
G04 #@! TO.P,U2,3*
G04 #@! TO.N,+5V*
X97409000Y-115062000D03*
G04 #@! TD*
D16*
G04 #@! TO.N,GND*
X100330000Y-107442000D03*
X97790000Y-107442000D03*
X95250000Y-107442000D03*
X90168106Y-107356000D03*
X87628106Y-107397000D03*
X92710000Y-107442000D03*
X116840000Y-88900000D03*
X116078000Y-77470000D03*
X116078000Y-74930000D03*
X134366000Y-70866000D03*
X134280000Y-83058000D03*
X134366000Y-94996000D03*
X116840000Y-86360000D03*
G04 #@! TO.N,CAM_IN0*
X129540000Y-85090000D03*
X129540000Y-73660000D03*
X129547598Y-97028000D03*
X129540000Y-102108000D03*
G04 #@! TO.N,CAM_IN1*
X130556000Y-89128600D03*
X130556000Y-71120000D03*
X130556000Y-82550000D03*
X130556000Y-84328000D03*
G04 #@! TO.N,CAM_IN2*
X119126000Y-82804000D03*
X119126000Y-71120000D03*
G04 #@! TO.N,CAM_IN3*
X118110000Y-73660000D03*
X118110000Y-85090000D03*
G04 #@! TO.N,CAM_OUT1*
X118110000Y-90170000D03*
X106680000Y-77949500D03*
G04 #@! TO.N,MUXA_SHDN*
X117319500Y-76200000D03*
G04 #@! TO.N,/MUX_PWR*
X128524000Y-74930000D03*
X128524000Y-86360000D03*
X128524000Y-92202000D03*
X128524000Y-68072000D03*
G04 #@! TD*
D17*
G04 #@! TO.N,CAM_IN0*
X129540000Y-94234000D02*
X129540000Y-94488000D01*
X129547598Y-93987598D02*
X129540000Y-93980000D01*
X129540000Y-85598000D02*
X129540000Y-93980000D01*
X129540000Y-93980000D02*
X129540000Y-94234000D01*
X129540000Y-74422000D02*
X129540000Y-73660000D01*
X129540000Y-74422000D02*
X129540000Y-74168000D01*
X129540000Y-94234000D02*
X129540000Y-74422000D01*
X129547598Y-97028000D02*
X129547598Y-93987598D01*
X129540000Y-99067598D02*
X129547598Y-99060000D01*
X129540000Y-102108000D02*
X129540000Y-99067598D01*
X129547598Y-99572722D02*
X129547598Y-99060000D01*
X129547598Y-99060000D02*
X129547598Y-97028000D01*
G04 #@! TO.N,CAM_IN1*
X130556000Y-89128600D02*
X130556000Y-85318600D01*
X130556000Y-80492600D02*
X130556000Y-84048600D01*
X130556000Y-74142600D02*
X130556000Y-80492600D01*
X130556000Y-73888600D02*
X130556000Y-74142600D01*
X130556000Y-73583800D02*
X130556000Y-71120000D01*
X130556000Y-73583800D02*
X130556000Y-73380600D01*
X130556000Y-74142600D02*
X130556000Y-73583800D01*
X130556000Y-84048600D02*
X130556000Y-84328000D01*
X130556000Y-84328000D02*
X130556000Y-85318600D01*
G04 #@! TO.N,CAM_IN2*
X119126000Y-82804000D02*
X119126000Y-71120000D01*
G04 #@! TO.N,CAM_IN3*
X118110000Y-73660000D02*
X118110000Y-74225685D01*
X118110000Y-85090000D02*
X118110000Y-74225685D01*
G04 #@! TO.N,CAM_OUT1*
X118110000Y-90170000D02*
X117544315Y-90170000D01*
X117544315Y-90170000D02*
X107442000Y-90170000D01*
X107442000Y-90170000D02*
X106680000Y-89408000D01*
X106680000Y-89408000D02*
X106680000Y-82725859D01*
X106680000Y-80010000D02*
X106680000Y-77949500D01*
X106680000Y-80010000D02*
X106680000Y-78740000D01*
X106680000Y-82725859D02*
X106680000Y-80010000D01*
G04 #@! TO.N,MUXA_SHDN*
X115824000Y-76200000D02*
X111760000Y-76200000D01*
X117319500Y-76200000D02*
X115824000Y-76200000D01*
X111760000Y-76200000D02*
X110490000Y-77470000D01*
X110490000Y-77470000D02*
X110490000Y-83158601D01*
G04 #@! TO.N,/MUX_PWR*
X128524000Y-69088000D02*
X128524000Y-69653685D01*
X128524000Y-85090000D02*
X128524000Y-92202000D01*
X128524000Y-85090000D02*
X128524000Y-74930000D01*
X128524000Y-86360000D02*
X128524000Y-85090000D01*
X128524000Y-70866000D02*
X128524000Y-68072000D01*
X128524000Y-70866000D02*
X128524000Y-74930000D01*
X128524000Y-69653685D02*
X128524000Y-70866000D01*
G04 #@! TD*
D18*
G04 #@! TO.N,GND*
G36*
X145657009Y-57005690D02*
X145996352Y-57159981D01*
X146278752Y-57403312D01*
X146481506Y-57716123D01*
X146595348Y-58096784D01*
X146610000Y-58293950D01*
X146610001Y-107747012D01*
X146549910Y-108166609D01*
X146395619Y-108505952D01*
X146152288Y-108788352D01*
X145839479Y-108991106D01*
X145458815Y-109104948D01*
X145261649Y-109119600D01*
X129609925Y-109119600D01*
X129540000Y-109105691D01*
X129470074Y-109119600D01*
X129262972Y-109160795D01*
X129028119Y-109317719D01*
X128871195Y-109552572D01*
X128816091Y-109829600D01*
X128830000Y-109899526D01*
X128830001Y-130587669D01*
X128816091Y-130657600D01*
X128871195Y-130934628D01*
X129028119Y-131169481D01*
X129262972Y-131326405D01*
X129470074Y-131367600D01*
X129470075Y-131367600D01*
X129540000Y-131381509D01*
X129609926Y-131367600D01*
X145237419Y-131367600D01*
X145657009Y-131427690D01*
X145996352Y-131581981D01*
X146278752Y-131825312D01*
X146481506Y-132138123D01*
X146595348Y-132518784D01*
X146610001Y-132715963D01*
X146610000Y-140221360D01*
X146264241Y-140324764D01*
X146176769Y-140365182D01*
X146088806Y-140404529D01*
X146081502Y-140409201D01*
X146081498Y-140409203D01*
X146081499Y-140409203D01*
X145598040Y-140722566D01*
X145525447Y-140785893D01*
X145452045Y-140848363D01*
X145446343Y-140854900D01*
X145070266Y-141291359D01*
X145018347Y-141372542D01*
X144965446Y-141453075D01*
X144961808Y-141460950D01*
X144723347Y-141985417D01*
X144696300Y-142077909D01*
X144668129Y-142170052D01*
X144666847Y-142178631D01*
X144585171Y-142748946D01*
X144585171Y-142821366D01*
X144579362Y-142893563D01*
X144579952Y-142902218D01*
X144602272Y-143202566D01*
X144617826Y-143273311D01*
X144627654Y-143345055D01*
X144630088Y-143353381D01*
X144795164Y-143905358D01*
X144835591Y-143992850D01*
X144874930Y-144080794D01*
X144879603Y-144088101D01*
X145192966Y-144571561D01*
X145256328Y-144644194D01*
X145318763Y-144717555D01*
X145325296Y-144723254D01*
X145325300Y-144723258D01*
X145325305Y-144723261D01*
X145761759Y-145099334D01*
X145842942Y-145151253D01*
X145923475Y-145204154D01*
X145931346Y-145207790D01*
X145931349Y-145207792D01*
X145931352Y-145207793D01*
X146455817Y-145446253D01*
X146548309Y-145473300D01*
X146610000Y-145492161D01*
X146610001Y-153467012D01*
X146549910Y-153886609D01*
X146395619Y-154225952D01*
X146152288Y-154508352D01*
X145839479Y-154711106D01*
X145458815Y-154824948D01*
X145261649Y-154839600D01*
X88442581Y-154839600D01*
X88022991Y-154779510D01*
X87683648Y-154625219D01*
X87401248Y-154381888D01*
X87198494Y-154069079D01*
X87084652Y-153688415D01*
X87070000Y-153491249D01*
X87070000Y-145477839D01*
X87415758Y-145374436D01*
X87503250Y-145334009D01*
X87591194Y-145294670D01*
X87598498Y-145289999D01*
X87598502Y-145289997D01*
X88081961Y-144976634D01*
X88154594Y-144913272D01*
X88227955Y-144850837D01*
X88233654Y-144844304D01*
X88233658Y-144844300D01*
X88233661Y-144844295D01*
X88609734Y-144407841D01*
X88661653Y-144326658D01*
X88714554Y-144246125D01*
X88718192Y-144238250D01*
X88956653Y-143713783D01*
X88983700Y-143621291D01*
X89011871Y-143529148D01*
X89013153Y-143520569D01*
X89094829Y-142950253D01*
X89094829Y-142877833D01*
X89100638Y-142805636D01*
X89100048Y-142796982D01*
X89077728Y-142496633D01*
X89062174Y-142425888D01*
X89052346Y-142354144D01*
X89049912Y-142345819D01*
X88884836Y-141793841D01*
X88844418Y-141706369D01*
X88805071Y-141618406D01*
X88800397Y-141611099D01*
X88487034Y-141127640D01*
X88423707Y-141055047D01*
X88361237Y-140981645D01*
X88354700Y-140975943D01*
X87918241Y-140599866D01*
X87837058Y-140547947D01*
X87756525Y-140495046D01*
X87748654Y-140491410D01*
X87748651Y-140491408D01*
X87748648Y-140491407D01*
X87224183Y-140252947D01*
X87131691Y-140225900D01*
X87070000Y-140207039D01*
X87070000Y-130156579D01*
X87352517Y-130273601D01*
X87907483Y-130273601D01*
X88420204Y-130061225D01*
X88812624Y-129668805D01*
X88900000Y-129457861D01*
X88987376Y-129668805D01*
X89379796Y-130061225D01*
X89892517Y-130273601D01*
X90447483Y-130273601D01*
X90960204Y-130061225D01*
X91352624Y-129668805D01*
X91440000Y-129457861D01*
X91527376Y-129668805D01*
X91919796Y-130061225D01*
X92432517Y-130273601D01*
X92987483Y-130273601D01*
X93500204Y-130061225D01*
X93892624Y-129668805D01*
X93980000Y-129457861D01*
X94067376Y-129668805D01*
X94459796Y-130061225D01*
X94972517Y-130273601D01*
X95527483Y-130273601D01*
X96040204Y-130061225D01*
X96432624Y-129668805D01*
X96520000Y-129457861D01*
X96607376Y-129668805D01*
X96999796Y-130061225D01*
X97512517Y-130273601D01*
X98067483Y-130273601D01*
X98580204Y-130061225D01*
X98972624Y-129668805D01*
X99060000Y-129457861D01*
X99147376Y-129668805D01*
X99539796Y-130061225D01*
X100052517Y-130273601D01*
X100607483Y-130273601D01*
X101120204Y-130061225D01*
X101512624Y-129668805D01*
X101600000Y-129457861D01*
X101687376Y-129668805D01*
X102079796Y-130061225D01*
X102592517Y-130273601D01*
X103147483Y-130273601D01*
X103660204Y-130061225D01*
X104052624Y-129668805D01*
X104140000Y-129457861D01*
X104227376Y-129668805D01*
X104619796Y-130061225D01*
X105132517Y-130273601D01*
X105687483Y-130273601D01*
X106200204Y-130061225D01*
X106592624Y-129668805D01*
X106680000Y-129457861D01*
X106767376Y-129668805D01*
X107159796Y-130061225D01*
X107672517Y-130273601D01*
X108227483Y-130273601D01*
X108740204Y-130061225D01*
X109132624Y-129668805D01*
X109220000Y-129457861D01*
X109307376Y-129668805D01*
X109699796Y-130061225D01*
X110212517Y-130273601D01*
X110767483Y-130273601D01*
X111280204Y-130061225D01*
X111672624Y-129668805D01*
X111885000Y-129156084D01*
X111885000Y-128601118D01*
X111672624Y-128088397D01*
X111280204Y-127695977D01*
X111069260Y-127608601D01*
X111280204Y-127521225D01*
X111672624Y-127128805D01*
X111885000Y-126616084D01*
X111885000Y-126061118D01*
X111672624Y-125548397D01*
X111280204Y-125155977D01*
X110767483Y-124943601D01*
X110212517Y-124943601D01*
X109699796Y-125155977D01*
X109307376Y-125548397D01*
X109220000Y-125759341D01*
X109132624Y-125548397D01*
X108740204Y-125155977D01*
X108227483Y-124943601D01*
X107672517Y-124943601D01*
X107159796Y-125155977D01*
X106767376Y-125548397D01*
X106680000Y-125759341D01*
X106592624Y-125548397D01*
X106200204Y-125155977D01*
X105687483Y-124943601D01*
X105132517Y-124943601D01*
X104619796Y-125155977D01*
X104227376Y-125548397D01*
X104140000Y-125759341D01*
X104052624Y-125548397D01*
X103660204Y-125155977D01*
X103147483Y-124943601D01*
X102592517Y-124943601D01*
X102079796Y-125155977D01*
X101687376Y-125548397D01*
X101600000Y-125759341D01*
X101512624Y-125548397D01*
X101120204Y-125155977D01*
X100607483Y-124943601D01*
X100052517Y-124943601D01*
X99539796Y-125155977D01*
X99147376Y-125548397D01*
X99060000Y-125759341D01*
X98972624Y-125548397D01*
X98580204Y-125155977D01*
X98067483Y-124943601D01*
X97512517Y-124943601D01*
X96999796Y-125155977D01*
X96607376Y-125548397D01*
X96520000Y-125759341D01*
X96432624Y-125548397D01*
X96040204Y-125155977D01*
X95527483Y-124943601D01*
X94972517Y-124943601D01*
X94459796Y-125155977D01*
X94067376Y-125548397D01*
X93980000Y-125759341D01*
X93892624Y-125548397D01*
X93500204Y-125155977D01*
X92987483Y-124943601D01*
X92432517Y-124943601D01*
X91919796Y-125155977D01*
X91527376Y-125548397D01*
X91315000Y-126061118D01*
X91315000Y-126616084D01*
X91527376Y-127128805D01*
X91919796Y-127521225D01*
X92130740Y-127608601D01*
X91919796Y-127695977D01*
X91527376Y-128088397D01*
X91440000Y-128299341D01*
X91352624Y-128088397D01*
X90960204Y-127695977D01*
X90447483Y-127483601D01*
X89892517Y-127483601D01*
X89379796Y-127695977D01*
X88987376Y-128088397D01*
X88900000Y-128299341D01*
X88812624Y-128088397D01*
X88420204Y-127695977D01*
X88209260Y-127608601D01*
X88420204Y-127521225D01*
X88812624Y-127128805D01*
X89025000Y-126616084D01*
X89025000Y-126061118D01*
X88812624Y-125548397D01*
X88420204Y-125155977D01*
X87907483Y-124943601D01*
X87352517Y-124943601D01*
X87070000Y-125060623D01*
X87070000Y-122812453D01*
X115951000Y-122812453D01*
X115951000Y-124075547D01*
X116434365Y-125242493D01*
X117327507Y-126135635D01*
X118494453Y-126619000D01*
X119757547Y-126619000D01*
X120924493Y-126135635D01*
X121817635Y-125242493D01*
X122301000Y-124075547D01*
X122301000Y-122812453D01*
X121817635Y-121645507D01*
X120924493Y-120752365D01*
X119757547Y-120269000D01*
X118494453Y-120269000D01*
X117327507Y-120752365D01*
X116434365Y-121645507D01*
X115951000Y-122812453D01*
X87070000Y-122812453D01*
X87070000Y-119864119D01*
X96012000Y-119864119D01*
X96012000Y-120419881D01*
X96224680Y-120933337D01*
X96617663Y-121326320D01*
X97131119Y-121539000D01*
X97686881Y-121539000D01*
X98200337Y-121326320D01*
X98593320Y-120933337D01*
X98806000Y-120419881D01*
X98806000Y-119864119D01*
X98593320Y-119350663D01*
X98200337Y-118957680D01*
X97686881Y-118745000D01*
X97131119Y-118745000D01*
X96617663Y-118957680D01*
X96224680Y-119350663D01*
X96012000Y-119864119D01*
X87070000Y-119864119D01*
X87070000Y-114784119D01*
X96012000Y-114784119D01*
X96012000Y-115339881D01*
X96224680Y-115853337D01*
X96617663Y-116246320D01*
X97131119Y-116459000D01*
X97686881Y-116459000D01*
X98200337Y-116246320D01*
X98593320Y-115853337D01*
X98806000Y-115339881D01*
X98806000Y-114784119D01*
X98593320Y-114270663D01*
X98200337Y-113877680D01*
X97686881Y-113665000D01*
X97131119Y-113665000D01*
X96617663Y-113877680D01*
X96224680Y-114270663D01*
X96012000Y-114784119D01*
X87070000Y-114784119D01*
X87070000Y-95250000D01*
X119643908Y-95250000D01*
X119759161Y-95829418D01*
X120087375Y-96320625D01*
X120578582Y-96648839D01*
X121011744Y-96735000D01*
X121304256Y-96735000D01*
X121737418Y-96648839D01*
X122228625Y-96320625D01*
X122428000Y-96022239D01*
X122627375Y-96320625D01*
X123118582Y-96648839D01*
X123551744Y-96735000D01*
X123844256Y-96735000D01*
X124277418Y-96648839D01*
X124768625Y-96320625D01*
X124780816Y-96302381D01*
X124789843Y-96347765D01*
X124930191Y-96557809D01*
X125140235Y-96698157D01*
X125388000Y-96747440D01*
X127088000Y-96747440D01*
X127335765Y-96698157D01*
X127545809Y-96557809D01*
X127686157Y-96347765D01*
X127735440Y-96100000D01*
X127735440Y-94400000D01*
X127686157Y-94152235D01*
X127545809Y-93942191D01*
X127335765Y-93801843D01*
X127088000Y-93752560D01*
X125388000Y-93752560D01*
X125140235Y-93801843D01*
X124930191Y-93942191D01*
X124789843Y-94152235D01*
X124780816Y-94197619D01*
X124768625Y-94179375D01*
X124277418Y-93851161D01*
X123844256Y-93765000D01*
X123551744Y-93765000D01*
X123118582Y-93851161D01*
X122627375Y-94179375D01*
X122428000Y-94477761D01*
X122228625Y-94179375D01*
X121737418Y-93851161D01*
X121304256Y-93765000D01*
X121011744Y-93765000D01*
X120578582Y-93851161D01*
X120087375Y-94179375D01*
X119759161Y-94670582D01*
X119643908Y-95250000D01*
X87070000Y-95250000D01*
X87070000Y-86976579D01*
X87352517Y-87093601D01*
X87907483Y-87093601D01*
X88420204Y-86881225D01*
X88812624Y-86488805D01*
X88900000Y-86277861D01*
X88987376Y-86488805D01*
X89379796Y-86881225D01*
X89892517Y-87093601D01*
X90447483Y-87093601D01*
X90960204Y-86881225D01*
X91352624Y-86488805D01*
X91440000Y-86277861D01*
X91527376Y-86488805D01*
X91919796Y-86881225D01*
X92432517Y-87093601D01*
X92987483Y-87093601D01*
X93500204Y-86881225D01*
X93892624Y-86488805D01*
X93980000Y-86277861D01*
X94067376Y-86488805D01*
X94459796Y-86881225D01*
X94972517Y-87093601D01*
X95527483Y-87093601D01*
X96040204Y-86881225D01*
X96432624Y-86488805D01*
X96520000Y-86277861D01*
X96607376Y-86488805D01*
X96999796Y-86881225D01*
X97512517Y-87093601D01*
X98067483Y-87093601D01*
X98580204Y-86881225D01*
X98972624Y-86488805D01*
X99060000Y-86277861D01*
X99147376Y-86488805D01*
X99539796Y-86881225D01*
X100052517Y-87093601D01*
X100607483Y-87093601D01*
X101120204Y-86881225D01*
X101512624Y-86488805D01*
X101600000Y-86277861D01*
X101687376Y-86488805D01*
X102079796Y-86881225D01*
X102592517Y-87093601D01*
X103147483Y-87093601D01*
X103660204Y-86881225D01*
X104052624Y-86488805D01*
X104140000Y-86277861D01*
X104227376Y-86488805D01*
X104619796Y-86881225D01*
X105132517Y-87093601D01*
X105687483Y-87093601D01*
X105854500Y-87024420D01*
X105854500Y-89326698D01*
X105838328Y-89408000D01*
X105854500Y-89489301D01*
X105854500Y-89489302D01*
X105902396Y-89730093D01*
X106084848Y-90003152D01*
X106153777Y-90049209D01*
X106800793Y-90696226D01*
X106846848Y-90765152D01*
X106915773Y-90811206D01*
X107119905Y-90947604D01*
X107442000Y-91011672D01*
X107523303Y-90995500D01*
X117471789Y-90995500D01*
X117523720Y-91047431D01*
X117904126Y-91205000D01*
X118315874Y-91205000D01*
X118696280Y-91047431D01*
X118987431Y-90756280D01*
X119145000Y-90375874D01*
X119145000Y-89964126D01*
X118987431Y-89583720D01*
X118696280Y-89292569D01*
X118315874Y-89135000D01*
X117904126Y-89135000D01*
X117523720Y-89292569D01*
X117471789Y-89344500D01*
X107783933Y-89344500D01*
X107505500Y-89066068D01*
X107505500Y-87024420D01*
X107672517Y-87093601D01*
X108227483Y-87093601D01*
X108740204Y-86881225D01*
X109132624Y-86488805D01*
X109220000Y-86277861D01*
X109307376Y-86488805D01*
X109699796Y-86881225D01*
X110212517Y-87093601D01*
X110767483Y-87093601D01*
X111280204Y-86881225D01*
X111672624Y-86488805D01*
X111885000Y-85976084D01*
X111885000Y-85421118D01*
X111672624Y-84908397D01*
X111280204Y-84515977D01*
X111069260Y-84428601D01*
X111280204Y-84341225D01*
X111672624Y-83948805D01*
X111885000Y-83436084D01*
X111885000Y-82881118D01*
X111672624Y-82368397D01*
X111315500Y-82011273D01*
X111315500Y-77811932D01*
X112101933Y-77025500D01*
X116681289Y-77025500D01*
X116733220Y-77077431D01*
X117113626Y-77235000D01*
X117284501Y-77235000D01*
X117284500Y-84451789D01*
X117232569Y-84503720D01*
X117075000Y-84884126D01*
X117075000Y-85295874D01*
X117232569Y-85676280D01*
X117523720Y-85967431D01*
X117904126Y-86125000D01*
X118315874Y-86125000D01*
X118696280Y-85967431D01*
X118987431Y-85676280D01*
X119145000Y-85295874D01*
X119145000Y-84884126D01*
X118987431Y-84503720D01*
X118935500Y-84451789D01*
X118935500Y-83839000D01*
X119331874Y-83839000D01*
X119712280Y-83681431D01*
X120003431Y-83390280D01*
X120161000Y-83009874D01*
X120161000Y-82598126D01*
X120003431Y-82217720D01*
X119951500Y-82165789D01*
X119951500Y-71758211D01*
X120003431Y-71706280D01*
X120161000Y-71325874D01*
X120161000Y-70914126D01*
X120003431Y-70533720D01*
X119712280Y-70242569D01*
X119331874Y-70085000D01*
X118920126Y-70085000D01*
X118539720Y-70242569D01*
X118248569Y-70533720D01*
X118091000Y-70914126D01*
X118091000Y-71325874D01*
X118248569Y-71706280D01*
X118300501Y-71758212D01*
X118300501Y-72625000D01*
X117904126Y-72625000D01*
X117523720Y-72782569D01*
X117232569Y-73073720D01*
X117075000Y-73454126D01*
X117075000Y-73865874D01*
X117232569Y-74246280D01*
X117284500Y-74298211D01*
X117284500Y-74306988D01*
X117284501Y-74306993D01*
X117284501Y-75165000D01*
X117113626Y-75165000D01*
X116733220Y-75322569D01*
X116681289Y-75374500D01*
X111841297Y-75374500D01*
X111759999Y-75358329D01*
X111678701Y-75374500D01*
X111678697Y-75374500D01*
X111437906Y-75422396D01*
X111164848Y-75604848D01*
X111118793Y-75673774D01*
X109963777Y-76828791D01*
X109894848Y-76874848D01*
X109712396Y-77147907D01*
X109671333Y-77354348D01*
X109648328Y-77470000D01*
X109664500Y-77551302D01*
X109664501Y-82011272D01*
X109307376Y-82368397D01*
X109220000Y-82579341D01*
X109132624Y-82368397D01*
X108740204Y-81975977D01*
X108227483Y-81763601D01*
X107672517Y-81763601D01*
X107505500Y-81832782D01*
X107505500Y-78587711D01*
X107557431Y-78535780D01*
X107715000Y-78155374D01*
X107715000Y-77743626D01*
X107557431Y-77363220D01*
X107266280Y-77072069D01*
X106885874Y-76914500D01*
X106474126Y-76914500D01*
X106093720Y-77072069D01*
X105802569Y-77363220D01*
X105645000Y-77743626D01*
X105645000Y-78155374D01*
X105802569Y-78535780D01*
X105854501Y-78587712D01*
X105854500Y-79414848D01*
X105854500Y-80091302D01*
X105854501Y-80091307D01*
X105854500Y-81832782D01*
X105687483Y-81763601D01*
X105132517Y-81763601D01*
X104619796Y-81975977D01*
X104227376Y-82368397D01*
X104140000Y-82579341D01*
X104052624Y-82368397D01*
X103660204Y-81975977D01*
X103147483Y-81763601D01*
X102592517Y-81763601D01*
X102079796Y-81975977D01*
X101687376Y-82368397D01*
X101600000Y-82579341D01*
X101512624Y-82368397D01*
X101120204Y-81975977D01*
X100607483Y-81763601D01*
X100052517Y-81763601D01*
X99539796Y-81975977D01*
X99147376Y-82368397D01*
X99060000Y-82579341D01*
X98972624Y-82368397D01*
X98580204Y-81975977D01*
X98067483Y-81763601D01*
X97512517Y-81763601D01*
X96999796Y-81975977D01*
X96607376Y-82368397D01*
X96520000Y-82579341D01*
X96432624Y-82368397D01*
X96040204Y-81975977D01*
X95527483Y-81763601D01*
X94972517Y-81763601D01*
X94459796Y-81975977D01*
X94067376Y-82368397D01*
X93980000Y-82579341D01*
X93892624Y-82368397D01*
X93500204Y-81975977D01*
X92987483Y-81763601D01*
X92432517Y-81763601D01*
X91919796Y-81975977D01*
X91527376Y-82368397D01*
X91440000Y-82579341D01*
X91352624Y-82368397D01*
X90960204Y-81975977D01*
X90447483Y-81763601D01*
X89892517Y-81763601D01*
X89379796Y-81975977D01*
X88987376Y-82368397D01*
X88775000Y-82881118D01*
X88775000Y-83436084D01*
X88987376Y-83948805D01*
X89379796Y-84341225D01*
X89590740Y-84428601D01*
X89379796Y-84515977D01*
X88987376Y-84908397D01*
X88900000Y-85119341D01*
X88812624Y-84908397D01*
X88420204Y-84515977D01*
X87907483Y-84303601D01*
X87352517Y-84303601D01*
X87070000Y-84420623D01*
X87070000Y-70156319D01*
X90043000Y-70156319D01*
X90043000Y-70712081D01*
X90255680Y-71225537D01*
X90648663Y-71618520D01*
X91162119Y-71831200D01*
X91717881Y-71831200D01*
X92231337Y-71618520D01*
X92624320Y-71225537D01*
X92837000Y-70712081D01*
X92837000Y-70156319D01*
X105283000Y-70156319D01*
X105283000Y-70712081D01*
X105495680Y-71225537D01*
X105888663Y-71618520D01*
X106402119Y-71831200D01*
X106957881Y-71831200D01*
X107471337Y-71618520D01*
X107864320Y-71225537D01*
X108077000Y-70712081D01*
X108077000Y-70156319D01*
X107864320Y-69642863D01*
X107471337Y-69249880D01*
X106957881Y-69037200D01*
X106402119Y-69037200D01*
X105888663Y-69249880D01*
X105495680Y-69642863D01*
X105283000Y-70156319D01*
X92837000Y-70156319D01*
X92624320Y-69642863D01*
X92231337Y-69249880D01*
X91717881Y-69037200D01*
X91162119Y-69037200D01*
X90648663Y-69249880D01*
X90255680Y-69642863D01*
X90043000Y-70156319D01*
X87070000Y-70156319D01*
X87070000Y-67866126D01*
X127489000Y-67866126D01*
X127489000Y-68277874D01*
X127646569Y-68658280D01*
X127698501Y-68710212D01*
X127698501Y-69006695D01*
X127698500Y-69006698D01*
X127698500Y-70784698D01*
X127698501Y-74291788D01*
X127646569Y-74343720D01*
X127489000Y-74724126D01*
X127489000Y-75135874D01*
X127646569Y-75516280D01*
X127698501Y-75568212D01*
X127698500Y-85008697D01*
X127698500Y-85721789D01*
X127646569Y-85773720D01*
X127489000Y-86154126D01*
X127489000Y-86565874D01*
X127646569Y-86946280D01*
X127698500Y-86998211D01*
X127698501Y-91563788D01*
X127646569Y-91615720D01*
X127489000Y-91996126D01*
X127489000Y-92407874D01*
X127646569Y-92788280D01*
X127937720Y-93079431D01*
X128318126Y-93237000D01*
X128714500Y-93237000D01*
X128714500Y-93898697D01*
X128698328Y-93980000D01*
X128714500Y-94061301D01*
X128714500Y-94569303D01*
X128722099Y-94607505D01*
X128722098Y-96389789D01*
X128670167Y-96441720D01*
X128512598Y-96822126D01*
X128512598Y-97233874D01*
X128670167Y-97614280D01*
X128722099Y-97666212D01*
X128722098Y-98948099D01*
X128698328Y-99067598D01*
X128714501Y-99148904D01*
X128714500Y-101469789D01*
X128662569Y-101521720D01*
X128505000Y-101902126D01*
X128505000Y-102313874D01*
X128662569Y-102694280D01*
X128953720Y-102985431D01*
X129334126Y-103143000D01*
X129745874Y-103143000D01*
X130126280Y-102985431D01*
X130417431Y-102694280D01*
X130575000Y-102313874D01*
X130575000Y-101902126D01*
X130534653Y-101804719D01*
X132715000Y-101804719D01*
X132715000Y-102360481D01*
X132927680Y-102873937D01*
X133320663Y-103266920D01*
X133527513Y-103352600D01*
X133320663Y-103438280D01*
X132927680Y-103831263D01*
X132715000Y-104344719D01*
X132715000Y-104900481D01*
X132927680Y-105413937D01*
X133320663Y-105806920D01*
X133834119Y-106019600D01*
X134389881Y-106019600D01*
X134903337Y-105806920D01*
X135287090Y-105423167D01*
X140388000Y-105423167D01*
X140388000Y-106362033D01*
X140747289Y-107229433D01*
X141411167Y-107893311D01*
X142278567Y-108252600D01*
X143217433Y-108252600D01*
X144084833Y-107893311D01*
X144748711Y-107229433D01*
X145108000Y-106362033D01*
X145108000Y-105423167D01*
X144748711Y-104555767D01*
X144084833Y-103891889D01*
X143217433Y-103532600D01*
X142278567Y-103532600D01*
X141411167Y-103891889D01*
X140747289Y-104555767D01*
X140388000Y-105423167D01*
X135287090Y-105423167D01*
X135296320Y-105413937D01*
X135509000Y-104900481D01*
X135509000Y-104344719D01*
X135296320Y-103831263D01*
X134903337Y-103438280D01*
X134696487Y-103352600D01*
X134903337Y-103266920D01*
X135296320Y-102873937D01*
X135509000Y-102360481D01*
X135509000Y-101804719D01*
X135296320Y-101291263D01*
X134903337Y-100898280D01*
X134389881Y-100685600D01*
X133834119Y-100685600D01*
X133320663Y-100898280D01*
X132927680Y-101291263D01*
X132715000Y-101804719D01*
X130534653Y-101804719D01*
X130417431Y-101521720D01*
X130365500Y-101469789D01*
X130365500Y-99692223D01*
X130373098Y-99654025D01*
X130373098Y-99141298D01*
X130389269Y-99060001D01*
X130373098Y-98978703D01*
X130373098Y-97803167D01*
X140388000Y-97803167D01*
X140388000Y-98742033D01*
X140747289Y-99609433D01*
X141411167Y-100273311D01*
X142278567Y-100632600D01*
X143217433Y-100632600D01*
X144084833Y-100273311D01*
X144748711Y-99609433D01*
X145108000Y-98742033D01*
X145108000Y-97803167D01*
X144748711Y-96935767D01*
X144084833Y-96271889D01*
X143217433Y-95912600D01*
X142278567Y-95912600D01*
X141411167Y-96271889D01*
X140747289Y-96935767D01*
X140388000Y-97803167D01*
X130373098Y-97803167D01*
X130373098Y-97666211D01*
X130425029Y-97614280D01*
X130582598Y-97233874D01*
X130582598Y-96822126D01*
X130425029Y-96441720D01*
X130373098Y-96389789D01*
X130373098Y-94068895D01*
X130389269Y-93987597D01*
X130373098Y-93906300D01*
X130373098Y-93906295D01*
X130365500Y-93868097D01*
X130365500Y-90163600D01*
X130761874Y-90163600D01*
X131142280Y-90006031D01*
X131433431Y-89714880D01*
X131591000Y-89334474D01*
X131591000Y-89104719D01*
X132715000Y-89104719D01*
X132715000Y-89660481D01*
X132927680Y-90173937D01*
X133320663Y-90566920D01*
X133527513Y-90652600D01*
X133320663Y-90738280D01*
X132927680Y-91131263D01*
X132715000Y-91644719D01*
X132715000Y-92200481D01*
X132927680Y-92713937D01*
X133320663Y-93106920D01*
X133834119Y-93319600D01*
X134389881Y-93319600D01*
X134903337Y-93106920D01*
X135287090Y-92723167D01*
X140388000Y-92723167D01*
X140388000Y-93662033D01*
X140747289Y-94529433D01*
X141411167Y-95193311D01*
X142278567Y-95552600D01*
X143217433Y-95552600D01*
X144084833Y-95193311D01*
X144748711Y-94529433D01*
X145108000Y-93662033D01*
X145108000Y-92723167D01*
X144748711Y-91855767D01*
X144084833Y-91191889D01*
X143217433Y-90832600D01*
X142278567Y-90832600D01*
X141411167Y-91191889D01*
X140747289Y-91855767D01*
X140388000Y-92723167D01*
X135287090Y-92723167D01*
X135296320Y-92713937D01*
X135509000Y-92200481D01*
X135509000Y-91644719D01*
X135296320Y-91131263D01*
X134903337Y-90738280D01*
X134696487Y-90652600D01*
X134903337Y-90566920D01*
X135296320Y-90173937D01*
X135509000Y-89660481D01*
X135509000Y-89104719D01*
X135296320Y-88591263D01*
X134903337Y-88198280D01*
X134389881Y-87985600D01*
X133834119Y-87985600D01*
X133320663Y-88198280D01*
X132927680Y-88591263D01*
X132715000Y-89104719D01*
X131591000Y-89104719D01*
X131591000Y-88922726D01*
X131433431Y-88542320D01*
X131381500Y-88490389D01*
X131381500Y-85103167D01*
X140388000Y-85103167D01*
X140388000Y-86042033D01*
X140747289Y-86909433D01*
X141411167Y-87573311D01*
X142278567Y-87932600D01*
X143217433Y-87932600D01*
X144084833Y-87573311D01*
X144748711Y-86909433D01*
X145108000Y-86042033D01*
X145108000Y-85103167D01*
X144748711Y-84235767D01*
X144084833Y-83571889D01*
X143217433Y-83212600D01*
X142278567Y-83212600D01*
X141411167Y-83571889D01*
X140747289Y-84235767D01*
X140388000Y-85103167D01*
X131381500Y-85103167D01*
X131381500Y-84966211D01*
X131433431Y-84914280D01*
X131591000Y-84533874D01*
X131591000Y-84122126D01*
X131433431Y-83741720D01*
X131381500Y-83689789D01*
X131381500Y-83188211D01*
X131433431Y-83136280D01*
X131591000Y-82755874D01*
X131591000Y-82344126D01*
X131433431Y-81963720D01*
X131381500Y-81911789D01*
X131381500Y-76404719D01*
X132715000Y-76404719D01*
X132715000Y-76960481D01*
X132927680Y-77473937D01*
X133320663Y-77866920D01*
X133527513Y-77952600D01*
X133320663Y-78038280D01*
X132927680Y-78431263D01*
X132715000Y-78944719D01*
X132715000Y-79500481D01*
X132927680Y-80013937D01*
X133320663Y-80406920D01*
X133834119Y-80619600D01*
X134389881Y-80619600D01*
X134903337Y-80406920D01*
X135287090Y-80023167D01*
X140388000Y-80023167D01*
X140388000Y-80962033D01*
X140747289Y-81829433D01*
X141411167Y-82493311D01*
X142278567Y-82852600D01*
X143217433Y-82852600D01*
X144084833Y-82493311D01*
X144748711Y-81829433D01*
X145108000Y-80962033D01*
X145108000Y-80023167D01*
X144748711Y-79155767D01*
X144084833Y-78491889D01*
X143217433Y-78132600D01*
X142278567Y-78132600D01*
X141411167Y-78491889D01*
X140747289Y-79155767D01*
X140388000Y-80023167D01*
X135287090Y-80023167D01*
X135296320Y-80013937D01*
X135509000Y-79500481D01*
X135509000Y-78944719D01*
X135296320Y-78431263D01*
X134903337Y-78038280D01*
X134696487Y-77952600D01*
X134903337Y-77866920D01*
X135296320Y-77473937D01*
X135509000Y-76960481D01*
X135509000Y-76404719D01*
X135296320Y-75891263D01*
X134903337Y-75498280D01*
X134389881Y-75285600D01*
X133834119Y-75285600D01*
X133320663Y-75498280D01*
X132927680Y-75891263D01*
X132715000Y-76404719D01*
X131381500Y-76404719D01*
X131381500Y-72403167D01*
X140388000Y-72403167D01*
X140388000Y-73342033D01*
X140747289Y-74209433D01*
X141411167Y-74873311D01*
X142278567Y-75232600D01*
X143217433Y-75232600D01*
X144084833Y-74873311D01*
X144748711Y-74209433D01*
X145108000Y-73342033D01*
X145108000Y-72403167D01*
X144748711Y-71535767D01*
X144084833Y-70871889D01*
X143217433Y-70512600D01*
X142278567Y-70512600D01*
X141411167Y-70871889D01*
X140747289Y-71535767D01*
X140388000Y-72403167D01*
X131381500Y-72403167D01*
X131381500Y-71758211D01*
X131433431Y-71706280D01*
X131591000Y-71325874D01*
X131591000Y-70914126D01*
X131433431Y-70533720D01*
X131142280Y-70242569D01*
X130761874Y-70085000D01*
X130350126Y-70085000D01*
X129969720Y-70242569D01*
X129678569Y-70533720D01*
X129521000Y-70914126D01*
X129521000Y-71325874D01*
X129678569Y-71706280D01*
X129730501Y-71758212D01*
X129730500Y-72625000D01*
X129349500Y-72625000D01*
X129349500Y-68710211D01*
X129401431Y-68658280D01*
X129559000Y-68277874D01*
X129559000Y-67866126D01*
X129401431Y-67485720D01*
X129110280Y-67194569D01*
X128729874Y-67037000D01*
X128318126Y-67037000D01*
X127937720Y-67194569D01*
X127646569Y-67485720D01*
X127489000Y-67866126D01*
X87070000Y-67866126D01*
X87070000Y-66046941D01*
X87241953Y-66462071D01*
X87792129Y-67012247D01*
X88510967Y-67310000D01*
X89289033Y-67310000D01*
X90007871Y-67012247D01*
X90558047Y-66462071D01*
X90855800Y-65743233D01*
X90855800Y-64965167D01*
X97104200Y-64965167D01*
X97104200Y-65743233D01*
X97401953Y-66462071D01*
X97952129Y-67012247D01*
X98670967Y-67310000D01*
X99449033Y-67310000D01*
X100167871Y-67012247D01*
X100718047Y-66462071D01*
X101015800Y-65743233D01*
X101015800Y-64965167D01*
X102184200Y-64965167D01*
X102184200Y-65743233D01*
X102481953Y-66462071D01*
X103032129Y-67012247D01*
X103750967Y-67310000D01*
X104529033Y-67310000D01*
X105247871Y-67012247D01*
X105798047Y-66462071D01*
X106095800Y-65743233D01*
X106095800Y-64965167D01*
X112344200Y-64965167D01*
X112344200Y-65743233D01*
X112641953Y-66462071D01*
X113192129Y-67012247D01*
X113910967Y-67310000D01*
X114689033Y-67310000D01*
X115407871Y-67012247D01*
X115958047Y-66462071D01*
X116255800Y-65743233D01*
X116255800Y-64965167D01*
X115958047Y-64246329D01*
X115416437Y-63704719D01*
X132715000Y-63704719D01*
X132715000Y-64260481D01*
X132927680Y-64773937D01*
X133320663Y-65166920D01*
X133527513Y-65252600D01*
X133320663Y-65338280D01*
X132927680Y-65731263D01*
X132715000Y-66244719D01*
X132715000Y-66800481D01*
X132927680Y-67313937D01*
X133320663Y-67706920D01*
X133834119Y-67919600D01*
X134389881Y-67919600D01*
X134903337Y-67706920D01*
X135287090Y-67323167D01*
X140388000Y-67323167D01*
X140388000Y-68262033D01*
X140747289Y-69129433D01*
X141411167Y-69793311D01*
X142278567Y-70152600D01*
X143217433Y-70152600D01*
X144084833Y-69793311D01*
X144748711Y-69129433D01*
X145108000Y-68262033D01*
X145108000Y-67323167D01*
X144748711Y-66455767D01*
X144084833Y-65791889D01*
X143217433Y-65432600D01*
X142278567Y-65432600D01*
X141411167Y-65791889D01*
X140747289Y-66455767D01*
X140388000Y-67323167D01*
X135287090Y-67323167D01*
X135296320Y-67313937D01*
X135509000Y-66800481D01*
X135509000Y-66244719D01*
X135296320Y-65731263D01*
X134903337Y-65338280D01*
X134696487Y-65252600D01*
X134903337Y-65166920D01*
X135296320Y-64773937D01*
X135509000Y-64260481D01*
X135509000Y-63704719D01*
X135296320Y-63191263D01*
X134903337Y-62798280D01*
X134389881Y-62585600D01*
X133834119Y-62585600D01*
X133320663Y-62798280D01*
X132927680Y-63191263D01*
X132715000Y-63704719D01*
X115416437Y-63704719D01*
X115407871Y-63696153D01*
X114689033Y-63398400D01*
X113910967Y-63398400D01*
X113192129Y-63696153D01*
X112641953Y-64246329D01*
X112344200Y-64965167D01*
X106095800Y-64965167D01*
X105798047Y-64246329D01*
X105247871Y-63696153D01*
X104529033Y-63398400D01*
X103750967Y-63398400D01*
X103032129Y-63696153D01*
X102481953Y-64246329D01*
X102184200Y-64965167D01*
X101015800Y-64965167D01*
X100718047Y-64246329D01*
X100167871Y-63696153D01*
X99449033Y-63398400D01*
X98670967Y-63398400D01*
X97952129Y-63696153D01*
X97401953Y-64246329D01*
X97104200Y-64965167D01*
X90855800Y-64965167D01*
X90558047Y-64246329D01*
X90007871Y-63696153D01*
X89289033Y-63398400D01*
X88510967Y-63398400D01*
X87792129Y-63696153D01*
X87241953Y-64246329D01*
X87070000Y-64661459D01*
X87070000Y-59703167D01*
X140388000Y-59703167D01*
X140388000Y-60642033D01*
X140747289Y-61509433D01*
X141411167Y-62173311D01*
X142278567Y-62532600D01*
X143217433Y-62532600D01*
X144084833Y-62173311D01*
X144748711Y-61509433D01*
X145108000Y-60642033D01*
X145108000Y-59703167D01*
X144748711Y-58835767D01*
X144084833Y-58171889D01*
X143217433Y-57812600D01*
X142278567Y-57812600D01*
X141411167Y-58171889D01*
X140747289Y-58835767D01*
X140388000Y-59703167D01*
X87070000Y-59703167D01*
X87070000Y-58318181D01*
X87130090Y-57898591D01*
X87284381Y-57559248D01*
X87527712Y-57276848D01*
X87840523Y-57074094D01*
X88221184Y-56960252D01*
X88418350Y-56945600D01*
X145237419Y-56945600D01*
X145657009Y-57005690D01*
X145657009Y-57005690D01*
G37*
X145657009Y-57005690D02*
X145996352Y-57159981D01*
X146278752Y-57403312D01*
X146481506Y-57716123D01*
X146595348Y-58096784D01*
X146610000Y-58293950D01*
X146610001Y-107747012D01*
X146549910Y-108166609D01*
X146395619Y-108505952D01*
X146152288Y-108788352D01*
X145839479Y-108991106D01*
X145458815Y-109104948D01*
X145261649Y-109119600D01*
X129609925Y-109119600D01*
X129540000Y-109105691D01*
X129470074Y-109119600D01*
X129262972Y-109160795D01*
X129028119Y-109317719D01*
X128871195Y-109552572D01*
X128816091Y-109829600D01*
X128830000Y-109899526D01*
X128830001Y-130587669D01*
X128816091Y-130657600D01*
X128871195Y-130934628D01*
X129028119Y-131169481D01*
X129262972Y-131326405D01*
X129470074Y-131367600D01*
X129470075Y-131367600D01*
X129540000Y-131381509D01*
X129609926Y-131367600D01*
X145237419Y-131367600D01*
X145657009Y-131427690D01*
X145996352Y-131581981D01*
X146278752Y-131825312D01*
X146481506Y-132138123D01*
X146595348Y-132518784D01*
X146610001Y-132715963D01*
X146610000Y-140221360D01*
X146264241Y-140324764D01*
X146176769Y-140365182D01*
X146088806Y-140404529D01*
X146081502Y-140409201D01*
X146081498Y-140409203D01*
X146081499Y-140409203D01*
X145598040Y-140722566D01*
X145525447Y-140785893D01*
X145452045Y-140848363D01*
X145446343Y-140854900D01*
X145070266Y-141291359D01*
X145018347Y-141372542D01*
X144965446Y-141453075D01*
X144961808Y-141460950D01*
X144723347Y-141985417D01*
X144696300Y-142077909D01*
X144668129Y-142170052D01*
X144666847Y-142178631D01*
X144585171Y-142748946D01*
X144585171Y-142821366D01*
X144579362Y-142893563D01*
X144579952Y-142902218D01*
X144602272Y-143202566D01*
X144617826Y-143273311D01*
X144627654Y-143345055D01*
X144630088Y-143353381D01*
X144795164Y-143905358D01*
X144835591Y-143992850D01*
X144874930Y-144080794D01*
X144879603Y-144088101D01*
X145192966Y-144571561D01*
X145256328Y-144644194D01*
X145318763Y-144717555D01*
X145325296Y-144723254D01*
X145325300Y-144723258D01*
X145325305Y-144723261D01*
X145761759Y-145099334D01*
X145842942Y-145151253D01*
X145923475Y-145204154D01*
X145931346Y-145207790D01*
X145931349Y-145207792D01*
X145931352Y-145207793D01*
X146455817Y-145446253D01*
X146548309Y-145473300D01*
X146610000Y-145492161D01*
X146610001Y-153467012D01*
X146549910Y-153886609D01*
X146395619Y-154225952D01*
X146152288Y-154508352D01*
X145839479Y-154711106D01*
X145458815Y-154824948D01*
X145261649Y-154839600D01*
X88442581Y-154839600D01*
X88022991Y-154779510D01*
X87683648Y-154625219D01*
X87401248Y-154381888D01*
X87198494Y-154069079D01*
X87084652Y-153688415D01*
X87070000Y-153491249D01*
X87070000Y-145477839D01*
X87415758Y-145374436D01*
X87503250Y-145334009D01*
X87591194Y-145294670D01*
X87598498Y-145289999D01*
X87598502Y-145289997D01*
X88081961Y-144976634D01*
X88154594Y-144913272D01*
X88227955Y-144850837D01*
X88233654Y-144844304D01*
X88233658Y-144844300D01*
X88233661Y-144844295D01*
X88609734Y-144407841D01*
X88661653Y-144326658D01*
X88714554Y-144246125D01*
X88718192Y-144238250D01*
X88956653Y-143713783D01*
X88983700Y-143621291D01*
X89011871Y-143529148D01*
X89013153Y-143520569D01*
X89094829Y-142950253D01*
X89094829Y-142877833D01*
X89100638Y-142805636D01*
X89100048Y-142796982D01*
X89077728Y-142496633D01*
X89062174Y-142425888D01*
X89052346Y-142354144D01*
X89049912Y-142345819D01*
X88884836Y-141793841D01*
X88844418Y-141706369D01*
X88805071Y-141618406D01*
X88800397Y-141611099D01*
X88487034Y-141127640D01*
X88423707Y-141055047D01*
X88361237Y-140981645D01*
X88354700Y-140975943D01*
X87918241Y-140599866D01*
X87837058Y-140547947D01*
X87756525Y-140495046D01*
X87748654Y-140491410D01*
X87748651Y-140491408D01*
X87748648Y-140491407D01*
X87224183Y-140252947D01*
X87131691Y-140225900D01*
X87070000Y-140207039D01*
X87070000Y-130156579D01*
X87352517Y-130273601D01*
X87907483Y-130273601D01*
X88420204Y-130061225D01*
X88812624Y-129668805D01*
X88900000Y-129457861D01*
X88987376Y-129668805D01*
X89379796Y-130061225D01*
X89892517Y-130273601D01*
X90447483Y-130273601D01*
X90960204Y-130061225D01*
X91352624Y-129668805D01*
X91440000Y-129457861D01*
X91527376Y-129668805D01*
X91919796Y-130061225D01*
X92432517Y-130273601D01*
X92987483Y-130273601D01*
X93500204Y-130061225D01*
X93892624Y-129668805D01*
X93980000Y-129457861D01*
X94067376Y-129668805D01*
X94459796Y-130061225D01*
X94972517Y-130273601D01*
X95527483Y-130273601D01*
X96040204Y-130061225D01*
X96432624Y-129668805D01*
X96520000Y-129457861D01*
X96607376Y-129668805D01*
X96999796Y-130061225D01*
X97512517Y-130273601D01*
X98067483Y-130273601D01*
X98580204Y-130061225D01*
X98972624Y-129668805D01*
X99060000Y-129457861D01*
X99147376Y-129668805D01*
X99539796Y-130061225D01*
X100052517Y-130273601D01*
X100607483Y-130273601D01*
X101120204Y-130061225D01*
X101512624Y-129668805D01*
X101600000Y-129457861D01*
X101687376Y-129668805D01*
X102079796Y-130061225D01*
X102592517Y-130273601D01*
X103147483Y-130273601D01*
X103660204Y-130061225D01*
X104052624Y-129668805D01*
X104140000Y-129457861D01*
X104227376Y-129668805D01*
X104619796Y-130061225D01*
X105132517Y-130273601D01*
X105687483Y-130273601D01*
X106200204Y-130061225D01*
X106592624Y-129668805D01*
X106680000Y-129457861D01*
X106767376Y-129668805D01*
X107159796Y-130061225D01*
X107672517Y-130273601D01*
X108227483Y-130273601D01*
X108740204Y-130061225D01*
X109132624Y-129668805D01*
X109220000Y-129457861D01*
X109307376Y-129668805D01*
X109699796Y-130061225D01*
X110212517Y-130273601D01*
X110767483Y-130273601D01*
X111280204Y-130061225D01*
X111672624Y-129668805D01*
X111885000Y-129156084D01*
X111885000Y-128601118D01*
X111672624Y-128088397D01*
X111280204Y-127695977D01*
X111069260Y-127608601D01*
X111280204Y-127521225D01*
X111672624Y-127128805D01*
X111885000Y-126616084D01*
X111885000Y-126061118D01*
X111672624Y-125548397D01*
X111280204Y-125155977D01*
X110767483Y-124943601D01*
X110212517Y-124943601D01*
X109699796Y-125155977D01*
X109307376Y-125548397D01*
X109220000Y-125759341D01*
X109132624Y-125548397D01*
X108740204Y-125155977D01*
X108227483Y-124943601D01*
X107672517Y-124943601D01*
X107159796Y-125155977D01*
X106767376Y-125548397D01*
X106680000Y-125759341D01*
X106592624Y-125548397D01*
X106200204Y-125155977D01*
X105687483Y-124943601D01*
X105132517Y-124943601D01*
X104619796Y-125155977D01*
X104227376Y-125548397D01*
X104140000Y-125759341D01*
X104052624Y-125548397D01*
X103660204Y-125155977D01*
X103147483Y-124943601D01*
X102592517Y-124943601D01*
X102079796Y-125155977D01*
X101687376Y-125548397D01*
X101600000Y-125759341D01*
X101512624Y-125548397D01*
X101120204Y-125155977D01*
X100607483Y-124943601D01*
X100052517Y-124943601D01*
X99539796Y-125155977D01*
X99147376Y-125548397D01*
X99060000Y-125759341D01*
X98972624Y-125548397D01*
X98580204Y-125155977D01*
X98067483Y-124943601D01*
X97512517Y-124943601D01*
X96999796Y-125155977D01*
X96607376Y-125548397D01*
X96520000Y-125759341D01*
X96432624Y-125548397D01*
X96040204Y-125155977D01*
X95527483Y-124943601D01*
X94972517Y-124943601D01*
X94459796Y-125155977D01*
X94067376Y-125548397D01*
X93980000Y-125759341D01*
X93892624Y-125548397D01*
X93500204Y-125155977D01*
X92987483Y-124943601D01*
X92432517Y-124943601D01*
X91919796Y-125155977D01*
X91527376Y-125548397D01*
X91315000Y-126061118D01*
X91315000Y-126616084D01*
X91527376Y-127128805D01*
X91919796Y-127521225D01*
X92130740Y-127608601D01*
X91919796Y-127695977D01*
X91527376Y-128088397D01*
X91440000Y-128299341D01*
X91352624Y-128088397D01*
X90960204Y-127695977D01*
X90447483Y-127483601D01*
X89892517Y-127483601D01*
X89379796Y-127695977D01*
X88987376Y-128088397D01*
X88900000Y-128299341D01*
X88812624Y-128088397D01*
X88420204Y-127695977D01*
X88209260Y-127608601D01*
X88420204Y-127521225D01*
X88812624Y-127128805D01*
X89025000Y-126616084D01*
X89025000Y-126061118D01*
X88812624Y-125548397D01*
X88420204Y-125155977D01*
X87907483Y-124943601D01*
X87352517Y-124943601D01*
X87070000Y-125060623D01*
X87070000Y-122812453D01*
X115951000Y-122812453D01*
X115951000Y-124075547D01*
X116434365Y-125242493D01*
X117327507Y-126135635D01*
X118494453Y-126619000D01*
X119757547Y-126619000D01*
X120924493Y-126135635D01*
X121817635Y-125242493D01*
X122301000Y-124075547D01*
X122301000Y-122812453D01*
X121817635Y-121645507D01*
X120924493Y-120752365D01*
X119757547Y-120269000D01*
X118494453Y-120269000D01*
X117327507Y-120752365D01*
X116434365Y-121645507D01*
X115951000Y-122812453D01*
X87070000Y-122812453D01*
X87070000Y-119864119D01*
X96012000Y-119864119D01*
X96012000Y-120419881D01*
X96224680Y-120933337D01*
X96617663Y-121326320D01*
X97131119Y-121539000D01*
X97686881Y-121539000D01*
X98200337Y-121326320D01*
X98593320Y-120933337D01*
X98806000Y-120419881D01*
X98806000Y-119864119D01*
X98593320Y-119350663D01*
X98200337Y-118957680D01*
X97686881Y-118745000D01*
X97131119Y-118745000D01*
X96617663Y-118957680D01*
X96224680Y-119350663D01*
X96012000Y-119864119D01*
X87070000Y-119864119D01*
X87070000Y-114784119D01*
X96012000Y-114784119D01*
X96012000Y-115339881D01*
X96224680Y-115853337D01*
X96617663Y-116246320D01*
X97131119Y-116459000D01*
X97686881Y-116459000D01*
X98200337Y-116246320D01*
X98593320Y-115853337D01*
X98806000Y-115339881D01*
X98806000Y-114784119D01*
X98593320Y-114270663D01*
X98200337Y-113877680D01*
X97686881Y-113665000D01*
X97131119Y-113665000D01*
X96617663Y-113877680D01*
X96224680Y-114270663D01*
X96012000Y-114784119D01*
X87070000Y-114784119D01*
X87070000Y-95250000D01*
X119643908Y-95250000D01*
X119759161Y-95829418D01*
X120087375Y-96320625D01*
X120578582Y-96648839D01*
X121011744Y-96735000D01*
X121304256Y-96735000D01*
X121737418Y-96648839D01*
X122228625Y-96320625D01*
X122428000Y-96022239D01*
X122627375Y-96320625D01*
X123118582Y-96648839D01*
X123551744Y-96735000D01*
X123844256Y-96735000D01*
X124277418Y-96648839D01*
X124768625Y-96320625D01*
X124780816Y-96302381D01*
X124789843Y-96347765D01*
X124930191Y-96557809D01*
X125140235Y-96698157D01*
X125388000Y-96747440D01*
X127088000Y-96747440D01*
X127335765Y-96698157D01*
X127545809Y-96557809D01*
X127686157Y-96347765D01*
X127735440Y-96100000D01*
X127735440Y-94400000D01*
X127686157Y-94152235D01*
X127545809Y-93942191D01*
X127335765Y-93801843D01*
X127088000Y-93752560D01*
X125388000Y-93752560D01*
X125140235Y-93801843D01*
X124930191Y-93942191D01*
X124789843Y-94152235D01*
X124780816Y-94197619D01*
X124768625Y-94179375D01*
X124277418Y-93851161D01*
X123844256Y-93765000D01*
X123551744Y-93765000D01*
X123118582Y-93851161D01*
X122627375Y-94179375D01*
X122428000Y-94477761D01*
X122228625Y-94179375D01*
X121737418Y-93851161D01*
X121304256Y-93765000D01*
X121011744Y-93765000D01*
X120578582Y-93851161D01*
X120087375Y-94179375D01*
X119759161Y-94670582D01*
X119643908Y-95250000D01*
X87070000Y-95250000D01*
X87070000Y-86976579D01*
X87352517Y-87093601D01*
X87907483Y-87093601D01*
X88420204Y-86881225D01*
X88812624Y-86488805D01*
X88900000Y-86277861D01*
X88987376Y-86488805D01*
X89379796Y-86881225D01*
X89892517Y-87093601D01*
X90447483Y-87093601D01*
X90960204Y-86881225D01*
X91352624Y-86488805D01*
X91440000Y-86277861D01*
X91527376Y-86488805D01*
X91919796Y-86881225D01*
X92432517Y-87093601D01*
X92987483Y-87093601D01*
X93500204Y-86881225D01*
X93892624Y-86488805D01*
X93980000Y-86277861D01*
X94067376Y-86488805D01*
X94459796Y-86881225D01*
X94972517Y-87093601D01*
X95527483Y-87093601D01*
X96040204Y-86881225D01*
X96432624Y-86488805D01*
X96520000Y-86277861D01*
X96607376Y-86488805D01*
X96999796Y-86881225D01*
X97512517Y-87093601D01*
X98067483Y-87093601D01*
X98580204Y-86881225D01*
X98972624Y-86488805D01*
X99060000Y-86277861D01*
X99147376Y-86488805D01*
X99539796Y-86881225D01*
X100052517Y-87093601D01*
X100607483Y-87093601D01*
X101120204Y-86881225D01*
X101512624Y-86488805D01*
X101600000Y-86277861D01*
X101687376Y-86488805D01*
X102079796Y-86881225D01*
X102592517Y-87093601D01*
X103147483Y-87093601D01*
X103660204Y-86881225D01*
X104052624Y-86488805D01*
X104140000Y-86277861D01*
X104227376Y-86488805D01*
X104619796Y-86881225D01*
X105132517Y-87093601D01*
X105687483Y-87093601D01*
X105854500Y-87024420D01*
X105854500Y-89326698D01*
X105838328Y-89408000D01*
X105854500Y-89489301D01*
X105854500Y-89489302D01*
X105902396Y-89730093D01*
X106084848Y-90003152D01*
X106153777Y-90049209D01*
X106800793Y-90696226D01*
X106846848Y-90765152D01*
X106915773Y-90811206D01*
X107119905Y-90947604D01*
X107442000Y-91011672D01*
X107523303Y-90995500D01*
X117471789Y-90995500D01*
X117523720Y-91047431D01*
X117904126Y-91205000D01*
X118315874Y-91205000D01*
X118696280Y-91047431D01*
X118987431Y-90756280D01*
X119145000Y-90375874D01*
X119145000Y-89964126D01*
X118987431Y-89583720D01*
X118696280Y-89292569D01*
X118315874Y-89135000D01*
X117904126Y-89135000D01*
X117523720Y-89292569D01*
X117471789Y-89344500D01*
X107783933Y-89344500D01*
X107505500Y-89066068D01*
X107505500Y-87024420D01*
X107672517Y-87093601D01*
X108227483Y-87093601D01*
X108740204Y-86881225D01*
X109132624Y-86488805D01*
X109220000Y-86277861D01*
X109307376Y-86488805D01*
X109699796Y-86881225D01*
X110212517Y-87093601D01*
X110767483Y-87093601D01*
X111280204Y-86881225D01*
X111672624Y-86488805D01*
X111885000Y-85976084D01*
X111885000Y-85421118D01*
X111672624Y-84908397D01*
X111280204Y-84515977D01*
X111069260Y-84428601D01*
X111280204Y-84341225D01*
X111672624Y-83948805D01*
X111885000Y-83436084D01*
X111885000Y-82881118D01*
X111672624Y-82368397D01*
X111315500Y-82011273D01*
X111315500Y-77811932D01*
X112101933Y-77025500D01*
X116681289Y-77025500D01*
X116733220Y-77077431D01*
X117113626Y-77235000D01*
X117284501Y-77235000D01*
X117284500Y-84451789D01*
X117232569Y-84503720D01*
X117075000Y-84884126D01*
X117075000Y-85295874D01*
X117232569Y-85676280D01*
X117523720Y-85967431D01*
X117904126Y-86125000D01*
X118315874Y-86125000D01*
X118696280Y-85967431D01*
X118987431Y-85676280D01*
X119145000Y-85295874D01*
X119145000Y-84884126D01*
X118987431Y-84503720D01*
X118935500Y-84451789D01*
X118935500Y-83839000D01*
X119331874Y-83839000D01*
X119712280Y-83681431D01*
X120003431Y-83390280D01*
X120161000Y-83009874D01*
X120161000Y-82598126D01*
X120003431Y-82217720D01*
X119951500Y-82165789D01*
X119951500Y-71758211D01*
X120003431Y-71706280D01*
X120161000Y-71325874D01*
X120161000Y-70914126D01*
X120003431Y-70533720D01*
X119712280Y-70242569D01*
X119331874Y-70085000D01*
X118920126Y-70085000D01*
X118539720Y-70242569D01*
X118248569Y-70533720D01*
X118091000Y-70914126D01*
X118091000Y-71325874D01*
X118248569Y-71706280D01*
X118300501Y-71758212D01*
X118300501Y-72625000D01*
X117904126Y-72625000D01*
X117523720Y-72782569D01*
X117232569Y-73073720D01*
X117075000Y-73454126D01*
X117075000Y-73865874D01*
X117232569Y-74246280D01*
X117284500Y-74298211D01*
X117284500Y-74306988D01*
X117284501Y-74306993D01*
X117284501Y-75165000D01*
X117113626Y-75165000D01*
X116733220Y-75322569D01*
X116681289Y-75374500D01*
X111841297Y-75374500D01*
X111759999Y-75358329D01*
X111678701Y-75374500D01*
X111678697Y-75374500D01*
X111437906Y-75422396D01*
X111164848Y-75604848D01*
X111118793Y-75673774D01*
X109963777Y-76828791D01*
X109894848Y-76874848D01*
X109712396Y-77147907D01*
X109671333Y-77354348D01*
X109648328Y-77470000D01*
X109664500Y-77551302D01*
X109664501Y-82011272D01*
X109307376Y-82368397D01*
X109220000Y-82579341D01*
X109132624Y-82368397D01*
X108740204Y-81975977D01*
X108227483Y-81763601D01*
X107672517Y-81763601D01*
X107505500Y-81832782D01*
X107505500Y-78587711D01*
X107557431Y-78535780D01*
X107715000Y-78155374D01*
X107715000Y-77743626D01*
X107557431Y-77363220D01*
X107266280Y-77072069D01*
X106885874Y-76914500D01*
X106474126Y-76914500D01*
X106093720Y-77072069D01*
X105802569Y-77363220D01*
X105645000Y-77743626D01*
X105645000Y-78155374D01*
X105802569Y-78535780D01*
X105854501Y-78587712D01*
X105854500Y-79414848D01*
X105854500Y-80091302D01*
X105854501Y-80091307D01*
X105854500Y-81832782D01*
X105687483Y-81763601D01*
X105132517Y-81763601D01*
X104619796Y-81975977D01*
X104227376Y-82368397D01*
X104140000Y-82579341D01*
X104052624Y-82368397D01*
X103660204Y-81975977D01*
X103147483Y-81763601D01*
X102592517Y-81763601D01*
X102079796Y-81975977D01*
X101687376Y-82368397D01*
X101600000Y-82579341D01*
X101512624Y-82368397D01*
X101120204Y-81975977D01*
X100607483Y-81763601D01*
X100052517Y-81763601D01*
X99539796Y-81975977D01*
X99147376Y-82368397D01*
X99060000Y-82579341D01*
X98972624Y-82368397D01*
X98580204Y-81975977D01*
X98067483Y-81763601D01*
X97512517Y-81763601D01*
X96999796Y-81975977D01*
X96607376Y-82368397D01*
X96520000Y-82579341D01*
X96432624Y-82368397D01*
X96040204Y-81975977D01*
X95527483Y-81763601D01*
X94972517Y-81763601D01*
X94459796Y-81975977D01*
X94067376Y-82368397D01*
X93980000Y-82579341D01*
X93892624Y-82368397D01*
X93500204Y-81975977D01*
X92987483Y-81763601D01*
X92432517Y-81763601D01*
X91919796Y-81975977D01*
X91527376Y-82368397D01*
X91440000Y-82579341D01*
X91352624Y-82368397D01*
X90960204Y-81975977D01*
X90447483Y-81763601D01*
X89892517Y-81763601D01*
X89379796Y-81975977D01*
X88987376Y-82368397D01*
X88775000Y-82881118D01*
X88775000Y-83436084D01*
X88987376Y-83948805D01*
X89379796Y-84341225D01*
X89590740Y-84428601D01*
X89379796Y-84515977D01*
X88987376Y-84908397D01*
X88900000Y-85119341D01*
X88812624Y-84908397D01*
X88420204Y-84515977D01*
X87907483Y-84303601D01*
X87352517Y-84303601D01*
X87070000Y-84420623D01*
X87070000Y-70156319D01*
X90043000Y-70156319D01*
X90043000Y-70712081D01*
X90255680Y-71225537D01*
X90648663Y-71618520D01*
X91162119Y-71831200D01*
X91717881Y-71831200D01*
X92231337Y-71618520D01*
X92624320Y-71225537D01*
X92837000Y-70712081D01*
X92837000Y-70156319D01*
X105283000Y-70156319D01*
X105283000Y-70712081D01*
X105495680Y-71225537D01*
X105888663Y-71618520D01*
X106402119Y-71831200D01*
X106957881Y-71831200D01*
X107471337Y-71618520D01*
X107864320Y-71225537D01*
X108077000Y-70712081D01*
X108077000Y-70156319D01*
X107864320Y-69642863D01*
X107471337Y-69249880D01*
X106957881Y-69037200D01*
X106402119Y-69037200D01*
X105888663Y-69249880D01*
X105495680Y-69642863D01*
X105283000Y-70156319D01*
X92837000Y-70156319D01*
X92624320Y-69642863D01*
X92231337Y-69249880D01*
X91717881Y-69037200D01*
X91162119Y-69037200D01*
X90648663Y-69249880D01*
X90255680Y-69642863D01*
X90043000Y-70156319D01*
X87070000Y-70156319D01*
X87070000Y-67866126D01*
X127489000Y-67866126D01*
X127489000Y-68277874D01*
X127646569Y-68658280D01*
X127698501Y-68710212D01*
X127698501Y-69006695D01*
X127698500Y-69006698D01*
X127698500Y-70784698D01*
X127698501Y-74291788D01*
X127646569Y-74343720D01*
X127489000Y-74724126D01*
X127489000Y-75135874D01*
X127646569Y-75516280D01*
X127698501Y-75568212D01*
X127698500Y-85008697D01*
X127698500Y-85721789D01*
X127646569Y-85773720D01*
X127489000Y-86154126D01*
X127489000Y-86565874D01*
X127646569Y-86946280D01*
X127698500Y-86998211D01*
X127698501Y-91563788D01*
X127646569Y-91615720D01*
X127489000Y-91996126D01*
X127489000Y-92407874D01*
X127646569Y-92788280D01*
X127937720Y-93079431D01*
X128318126Y-93237000D01*
X128714500Y-93237000D01*
X128714500Y-93898697D01*
X128698328Y-93980000D01*
X128714500Y-94061301D01*
X128714500Y-94569303D01*
X128722099Y-94607505D01*
X128722098Y-96389789D01*
X128670167Y-96441720D01*
X128512598Y-96822126D01*
X128512598Y-97233874D01*
X128670167Y-97614280D01*
X128722099Y-97666212D01*
X128722098Y-98948099D01*
X128698328Y-99067598D01*
X128714501Y-99148904D01*
X128714500Y-101469789D01*
X128662569Y-101521720D01*
X128505000Y-101902126D01*
X128505000Y-102313874D01*
X128662569Y-102694280D01*
X128953720Y-102985431D01*
X129334126Y-103143000D01*
X129745874Y-103143000D01*
X130126280Y-102985431D01*
X130417431Y-102694280D01*
X130575000Y-102313874D01*
X130575000Y-101902126D01*
X130534653Y-101804719D01*
X132715000Y-101804719D01*
X132715000Y-102360481D01*
X132927680Y-102873937D01*
X133320663Y-103266920D01*
X133527513Y-103352600D01*
X133320663Y-103438280D01*
X132927680Y-103831263D01*
X132715000Y-104344719D01*
X132715000Y-104900481D01*
X132927680Y-105413937D01*
X133320663Y-105806920D01*
X133834119Y-106019600D01*
X134389881Y-106019600D01*
X134903337Y-105806920D01*
X135287090Y-105423167D01*
X140388000Y-105423167D01*
X140388000Y-106362033D01*
X140747289Y-107229433D01*
X141411167Y-107893311D01*
X142278567Y-108252600D01*
X143217433Y-108252600D01*
X144084833Y-107893311D01*
X144748711Y-107229433D01*
X145108000Y-106362033D01*
X145108000Y-105423167D01*
X144748711Y-104555767D01*
X144084833Y-103891889D01*
X143217433Y-103532600D01*
X142278567Y-103532600D01*
X141411167Y-103891889D01*
X140747289Y-104555767D01*
X140388000Y-105423167D01*
X135287090Y-105423167D01*
X135296320Y-105413937D01*
X135509000Y-104900481D01*
X135509000Y-104344719D01*
X135296320Y-103831263D01*
X134903337Y-103438280D01*
X134696487Y-103352600D01*
X134903337Y-103266920D01*
X135296320Y-102873937D01*
X135509000Y-102360481D01*
X135509000Y-101804719D01*
X135296320Y-101291263D01*
X134903337Y-100898280D01*
X134389881Y-100685600D01*
X133834119Y-100685600D01*
X133320663Y-100898280D01*
X132927680Y-101291263D01*
X132715000Y-101804719D01*
X130534653Y-101804719D01*
X130417431Y-101521720D01*
X130365500Y-101469789D01*
X130365500Y-99692223D01*
X130373098Y-99654025D01*
X130373098Y-99141298D01*
X130389269Y-99060001D01*
X130373098Y-98978703D01*
X130373098Y-97803167D01*
X140388000Y-97803167D01*
X140388000Y-98742033D01*
X140747289Y-99609433D01*
X141411167Y-100273311D01*
X142278567Y-100632600D01*
X143217433Y-100632600D01*
X144084833Y-100273311D01*
X144748711Y-99609433D01*
X145108000Y-98742033D01*
X145108000Y-97803167D01*
X144748711Y-96935767D01*
X144084833Y-96271889D01*
X143217433Y-95912600D01*
X142278567Y-95912600D01*
X141411167Y-96271889D01*
X140747289Y-96935767D01*
X140388000Y-97803167D01*
X130373098Y-97803167D01*
X130373098Y-97666211D01*
X130425029Y-97614280D01*
X130582598Y-97233874D01*
X130582598Y-96822126D01*
X130425029Y-96441720D01*
X130373098Y-96389789D01*
X130373098Y-94068895D01*
X130389269Y-93987597D01*
X130373098Y-93906300D01*
X130373098Y-93906295D01*
X130365500Y-93868097D01*
X130365500Y-90163600D01*
X130761874Y-90163600D01*
X131142280Y-90006031D01*
X131433431Y-89714880D01*
X131591000Y-89334474D01*
X131591000Y-89104719D01*
X132715000Y-89104719D01*
X132715000Y-89660481D01*
X132927680Y-90173937D01*
X133320663Y-90566920D01*
X133527513Y-90652600D01*
X133320663Y-90738280D01*
X132927680Y-91131263D01*
X132715000Y-91644719D01*
X132715000Y-92200481D01*
X132927680Y-92713937D01*
X133320663Y-93106920D01*
X133834119Y-93319600D01*
X134389881Y-93319600D01*
X134903337Y-93106920D01*
X135287090Y-92723167D01*
X140388000Y-92723167D01*
X140388000Y-93662033D01*
X140747289Y-94529433D01*
X141411167Y-95193311D01*
X142278567Y-95552600D01*
X143217433Y-95552600D01*
X144084833Y-95193311D01*
X144748711Y-94529433D01*
X145108000Y-93662033D01*
X145108000Y-92723167D01*
X144748711Y-91855767D01*
X144084833Y-91191889D01*
X143217433Y-90832600D01*
X142278567Y-90832600D01*
X141411167Y-91191889D01*
X140747289Y-91855767D01*
X140388000Y-92723167D01*
X135287090Y-92723167D01*
X135296320Y-92713937D01*
X135509000Y-92200481D01*
X135509000Y-91644719D01*
X135296320Y-91131263D01*
X134903337Y-90738280D01*
X134696487Y-90652600D01*
X134903337Y-90566920D01*
X135296320Y-90173937D01*
X135509000Y-89660481D01*
X135509000Y-89104719D01*
X135296320Y-88591263D01*
X134903337Y-88198280D01*
X134389881Y-87985600D01*
X133834119Y-87985600D01*
X133320663Y-88198280D01*
X132927680Y-88591263D01*
X132715000Y-89104719D01*
X131591000Y-89104719D01*
X131591000Y-88922726D01*
X131433431Y-88542320D01*
X131381500Y-88490389D01*
X131381500Y-85103167D01*
X140388000Y-85103167D01*
X140388000Y-86042033D01*
X140747289Y-86909433D01*
X141411167Y-87573311D01*
X142278567Y-87932600D01*
X143217433Y-87932600D01*
X144084833Y-87573311D01*
X144748711Y-86909433D01*
X145108000Y-86042033D01*
X145108000Y-85103167D01*
X144748711Y-84235767D01*
X144084833Y-83571889D01*
X143217433Y-83212600D01*
X142278567Y-83212600D01*
X141411167Y-83571889D01*
X140747289Y-84235767D01*
X140388000Y-85103167D01*
X131381500Y-85103167D01*
X131381500Y-84966211D01*
X131433431Y-84914280D01*
X131591000Y-84533874D01*
X131591000Y-84122126D01*
X131433431Y-83741720D01*
X131381500Y-83689789D01*
X131381500Y-83188211D01*
X131433431Y-83136280D01*
X131591000Y-82755874D01*
X131591000Y-82344126D01*
X131433431Y-81963720D01*
X131381500Y-81911789D01*
X131381500Y-76404719D01*
X132715000Y-76404719D01*
X132715000Y-76960481D01*
X132927680Y-77473937D01*
X133320663Y-77866920D01*
X133527513Y-77952600D01*
X133320663Y-78038280D01*
X132927680Y-78431263D01*
X132715000Y-78944719D01*
X132715000Y-79500481D01*
X132927680Y-80013937D01*
X133320663Y-80406920D01*
X133834119Y-80619600D01*
X134389881Y-80619600D01*
X134903337Y-80406920D01*
X135287090Y-80023167D01*
X140388000Y-80023167D01*
X140388000Y-80962033D01*
X140747289Y-81829433D01*
X141411167Y-82493311D01*
X142278567Y-82852600D01*
X143217433Y-82852600D01*
X144084833Y-82493311D01*
X144748711Y-81829433D01*
X145108000Y-80962033D01*
X145108000Y-80023167D01*
X144748711Y-79155767D01*
X144084833Y-78491889D01*
X143217433Y-78132600D01*
X142278567Y-78132600D01*
X141411167Y-78491889D01*
X140747289Y-79155767D01*
X140388000Y-80023167D01*
X135287090Y-80023167D01*
X135296320Y-80013937D01*
X135509000Y-79500481D01*
X135509000Y-78944719D01*
X135296320Y-78431263D01*
X134903337Y-78038280D01*
X134696487Y-77952600D01*
X134903337Y-77866920D01*
X135296320Y-77473937D01*
X135509000Y-76960481D01*
X135509000Y-76404719D01*
X135296320Y-75891263D01*
X134903337Y-75498280D01*
X134389881Y-75285600D01*
X133834119Y-75285600D01*
X133320663Y-75498280D01*
X132927680Y-75891263D01*
X132715000Y-76404719D01*
X131381500Y-76404719D01*
X131381500Y-72403167D01*
X140388000Y-72403167D01*
X140388000Y-73342033D01*
X140747289Y-74209433D01*
X141411167Y-74873311D01*
X142278567Y-75232600D01*
X143217433Y-75232600D01*
X144084833Y-74873311D01*
X144748711Y-74209433D01*
X145108000Y-73342033D01*
X145108000Y-72403167D01*
X144748711Y-71535767D01*
X144084833Y-70871889D01*
X143217433Y-70512600D01*
X142278567Y-70512600D01*
X141411167Y-70871889D01*
X140747289Y-71535767D01*
X140388000Y-72403167D01*
X131381500Y-72403167D01*
X131381500Y-71758211D01*
X131433431Y-71706280D01*
X131591000Y-71325874D01*
X131591000Y-70914126D01*
X131433431Y-70533720D01*
X131142280Y-70242569D01*
X130761874Y-70085000D01*
X130350126Y-70085000D01*
X129969720Y-70242569D01*
X129678569Y-70533720D01*
X129521000Y-70914126D01*
X129521000Y-71325874D01*
X129678569Y-71706280D01*
X129730501Y-71758212D01*
X129730500Y-72625000D01*
X129349500Y-72625000D01*
X129349500Y-68710211D01*
X129401431Y-68658280D01*
X129559000Y-68277874D01*
X129559000Y-67866126D01*
X129401431Y-67485720D01*
X129110280Y-67194569D01*
X128729874Y-67037000D01*
X128318126Y-67037000D01*
X127937720Y-67194569D01*
X127646569Y-67485720D01*
X127489000Y-67866126D01*
X87070000Y-67866126D01*
X87070000Y-66046941D01*
X87241953Y-66462071D01*
X87792129Y-67012247D01*
X88510967Y-67310000D01*
X89289033Y-67310000D01*
X90007871Y-67012247D01*
X90558047Y-66462071D01*
X90855800Y-65743233D01*
X90855800Y-64965167D01*
X97104200Y-64965167D01*
X97104200Y-65743233D01*
X97401953Y-66462071D01*
X97952129Y-67012247D01*
X98670967Y-67310000D01*
X99449033Y-67310000D01*
X100167871Y-67012247D01*
X100718047Y-66462071D01*
X101015800Y-65743233D01*
X101015800Y-64965167D01*
X102184200Y-64965167D01*
X102184200Y-65743233D01*
X102481953Y-66462071D01*
X103032129Y-67012247D01*
X103750967Y-67310000D01*
X104529033Y-67310000D01*
X105247871Y-67012247D01*
X105798047Y-66462071D01*
X106095800Y-65743233D01*
X106095800Y-64965167D01*
X112344200Y-64965167D01*
X112344200Y-65743233D01*
X112641953Y-66462071D01*
X113192129Y-67012247D01*
X113910967Y-67310000D01*
X114689033Y-67310000D01*
X115407871Y-67012247D01*
X115958047Y-66462071D01*
X116255800Y-65743233D01*
X116255800Y-64965167D01*
X115958047Y-64246329D01*
X115416437Y-63704719D01*
X132715000Y-63704719D01*
X132715000Y-64260481D01*
X132927680Y-64773937D01*
X133320663Y-65166920D01*
X133527513Y-65252600D01*
X133320663Y-65338280D01*
X132927680Y-65731263D01*
X132715000Y-66244719D01*
X132715000Y-66800481D01*
X132927680Y-67313937D01*
X133320663Y-67706920D01*
X133834119Y-67919600D01*
X134389881Y-67919600D01*
X134903337Y-67706920D01*
X135287090Y-67323167D01*
X140388000Y-67323167D01*
X140388000Y-68262033D01*
X140747289Y-69129433D01*
X141411167Y-69793311D01*
X142278567Y-70152600D01*
X143217433Y-70152600D01*
X144084833Y-69793311D01*
X144748711Y-69129433D01*
X145108000Y-68262033D01*
X145108000Y-67323167D01*
X144748711Y-66455767D01*
X144084833Y-65791889D01*
X143217433Y-65432600D01*
X142278567Y-65432600D01*
X141411167Y-65791889D01*
X140747289Y-66455767D01*
X140388000Y-67323167D01*
X135287090Y-67323167D01*
X135296320Y-67313937D01*
X135509000Y-66800481D01*
X135509000Y-66244719D01*
X135296320Y-65731263D01*
X134903337Y-65338280D01*
X134696487Y-65252600D01*
X134903337Y-65166920D01*
X135296320Y-64773937D01*
X135509000Y-64260481D01*
X135509000Y-63704719D01*
X135296320Y-63191263D01*
X134903337Y-62798280D01*
X134389881Y-62585600D01*
X133834119Y-62585600D01*
X133320663Y-62798280D01*
X132927680Y-63191263D01*
X132715000Y-63704719D01*
X115416437Y-63704719D01*
X115407871Y-63696153D01*
X114689033Y-63398400D01*
X113910967Y-63398400D01*
X113192129Y-63696153D01*
X112641953Y-64246329D01*
X112344200Y-64965167D01*
X106095800Y-64965167D01*
X105798047Y-64246329D01*
X105247871Y-63696153D01*
X104529033Y-63398400D01*
X103750967Y-63398400D01*
X103032129Y-63696153D01*
X102481953Y-64246329D01*
X102184200Y-64965167D01*
X101015800Y-64965167D01*
X100718047Y-64246329D01*
X100167871Y-63696153D01*
X99449033Y-63398400D01*
X98670967Y-63398400D01*
X97952129Y-63696153D01*
X97401953Y-64246329D01*
X97104200Y-64965167D01*
X90855800Y-64965167D01*
X90558047Y-64246329D01*
X90007871Y-63696153D01*
X89289033Y-63398400D01*
X88510967Y-63398400D01*
X87792129Y-63696153D01*
X87241953Y-64246329D01*
X87070000Y-64661459D01*
X87070000Y-59703167D01*
X140388000Y-59703167D01*
X140388000Y-60642033D01*
X140747289Y-61509433D01*
X141411167Y-62173311D01*
X142278567Y-62532600D01*
X143217433Y-62532600D01*
X144084833Y-62173311D01*
X144748711Y-61509433D01*
X145108000Y-60642033D01*
X145108000Y-59703167D01*
X144748711Y-58835767D01*
X144084833Y-58171889D01*
X143217433Y-57812600D01*
X142278567Y-57812600D01*
X141411167Y-58171889D01*
X140747289Y-58835767D01*
X140388000Y-59703167D01*
X87070000Y-59703167D01*
X87070000Y-58318181D01*
X87130090Y-57898591D01*
X87284381Y-57559248D01*
X87527712Y-57276848D01*
X87840523Y-57074094D01*
X88221184Y-56960252D01*
X88418350Y-56945600D01*
X145237419Y-56945600D01*
X145657009Y-57005690D01*
G04 #@! TD*
M02*
