G04 #@! TF.GenerationSoftware,KiCad,Pcbnew,(5.0.0)*
G04 #@! TF.CreationDate,2018-12-17T13:23:09-06:00*
G04 #@! TF.ProjectId,CameraBoard_Hardware,43616D657261426F6172645F48617264,rev?*
G04 #@! TF.SameCoordinates,Original*
G04 #@! TF.FileFunction,Soldermask,Bot*
G04 #@! TF.FilePolarity,Negative*
%FSLAX46Y46*%
G04 Gerber Fmt 4.6, Leading zero omitted, Abs format (unit mm)*
G04 Created by KiCad (PCBNEW (5.0.0)) date 12/17/18 13:23:09*
%MOMM*%
%LPD*%
G01*
G04 APERTURE LIST*
%ADD10C,3.041600*%
%ADD11C,1.924000*%
%ADD12C,5.480000*%
%ADD13C,1.920000*%
%ADD14C,3.850000*%
%ADD15R,2.100000X2.100000*%
%ADD16O,2.100000X2.100000*%
G04 APERTURE END LIST*
D10*
G04 #@! TO.C,J1*
X99060000Y-65354200D03*
X88900000Y-65354200D03*
D11*
X91440000Y-70434200D03*
X93980000Y-70434200D03*
G04 #@! TD*
G04 #@! TO.C,J2*
X109220000Y-70434200D03*
X106680000Y-70434200D03*
D10*
X104140000Y-65354200D03*
X114300000Y-65354200D03*
G04 #@! TD*
D12*
G04 #@! TO.C,Conn1*
X119126000Y-115443000D03*
X119126000Y-123444000D03*
G04 #@! TD*
D13*
G04 #@! TO.C,U1*
X87630000Y-126338601D03*
X90170000Y-126338601D03*
X92710000Y-126338601D03*
X95250000Y-126338601D03*
X97790000Y-126338601D03*
X100330000Y-126338601D03*
X102870000Y-126338601D03*
X105410000Y-126338601D03*
X107950000Y-126338601D03*
X110490000Y-126338601D03*
X87630000Y-128878601D03*
X90170000Y-128878601D03*
X92710000Y-128878601D03*
X95250000Y-128878601D03*
X97790000Y-128878601D03*
X100330000Y-128878601D03*
X102870000Y-128878601D03*
X105410000Y-128878601D03*
X107950000Y-128878601D03*
X110490000Y-128878601D03*
X87630000Y-85698601D03*
X90170000Y-85698601D03*
X92710000Y-85698601D03*
X95250000Y-85698601D03*
X97790000Y-85698601D03*
X100330000Y-85698601D03*
X102870000Y-85698601D03*
X105410000Y-85698601D03*
X107950000Y-85698601D03*
X110490000Y-85698601D03*
X87630000Y-83158601D03*
X90170000Y-83158601D03*
X92710000Y-83158601D03*
X95250000Y-83158601D03*
X97790000Y-83158601D03*
X100330000Y-83158601D03*
X102870000Y-83158601D03*
X105410000Y-83158601D03*
X107950000Y-83158601D03*
X110490000Y-83158601D03*
G04 #@! TD*
D11*
G04 #@! TO.C,Conn3*
X134112000Y-99542600D03*
X134112000Y-102082600D03*
X134112000Y-104622600D03*
D14*
X142748000Y-98272600D03*
X142748000Y-105892600D03*
G04 #@! TD*
D11*
G04 #@! TO.C,Conn4*
X134112000Y-86842600D03*
X134112000Y-89382600D03*
X134112000Y-91922600D03*
D14*
X142748000Y-85572600D03*
X142748000Y-93192600D03*
G04 #@! TD*
G04 #@! TO.C,Conn5*
X142748000Y-80492600D03*
X142748000Y-72872600D03*
D11*
X134112000Y-79222600D03*
X134112000Y-76682600D03*
X134112000Y-74142600D03*
G04 #@! TD*
D14*
G04 #@! TO.C,Conn6*
X142748000Y-67792600D03*
X142748000Y-60172600D03*
D11*
X134112000Y-66522600D03*
X134112000Y-63982600D03*
X134112000Y-61442600D03*
G04 #@! TD*
D15*
G04 #@! TO.C,JP1*
X126238000Y-95250000D03*
D16*
X123698000Y-95250000D03*
X121158000Y-95250000D03*
G04 #@! TD*
D11*
G04 #@! TO.C,U2*
X97409000Y-120142000D03*
X97409000Y-117602000D03*
X97409000Y-115062000D03*
G04 #@! TD*
M02*
