G04 #@! TF.GenerationSoftware,KiCad,Pcbnew,(5.0.0)*
G04 #@! TF.CreationDate,2018-12-17T13:23:09-06:00*
G04 #@! TF.ProjectId,CameraBoard_Hardware,43616D657261426F6172645F48617264,rev?*
G04 #@! TF.SameCoordinates,Original*
G04 #@! TF.FileFunction,Profile,NP*
%FSLAX46Y46*%
G04 Gerber Fmt 4.6, Leading zero omitted, Abs format (unit mm)*
G04 Created by KiCad (PCBNEW (5.0.0)) date 12/17/18 13:23:09*
%MOMM*%
%LPD*%
G01*
G04 APERTURE LIST*
%ADD10C,0.150000*%
G04 APERTURE END LIST*
D10*
X86360000Y-58267600D02*
G75*
G02X88392000Y-56235600I2032000J0D01*
G01*
X88392000Y-56235600D02*
X145288000Y-56235600D01*
X86360000Y-140817600D02*
X86360000Y-58267600D01*
X145288000Y-155549600D02*
X88392000Y-155549600D01*
X147320000Y-144881600D02*
X147320000Y-153517600D01*
X147320000Y-140817600D02*
X147320000Y-132689600D01*
X129540000Y-130657600D02*
X145288000Y-130657600D01*
X129540000Y-109829600D02*
X129540000Y-130657600D01*
X145288000Y-109829600D02*
X129540000Y-109829600D01*
X147320000Y-58267600D02*
X147320000Y-107797600D01*
X145288000Y-56235600D02*
G75*
G02X147320000Y-58267600I0J-2032000D01*
G01*
X147320000Y-107797600D02*
G75*
G02X145288000Y-109829600I-2032000J0D01*
G01*
X145288000Y-130657600D02*
G75*
G02X147320000Y-132689600I0J-2032000D01*
G01*
X86360000Y-140817600D02*
G75*
G02X88392000Y-142849600I0J-2032000D01*
G01*
X88392000Y-142849600D02*
G75*
G02X86360000Y-144881600I-2032000J0D01*
G01*
X145288000Y-142849600D02*
G75*
G02X147320000Y-140817600I2032000J0D01*
G01*
X147320000Y-144881600D02*
G75*
G02X145288000Y-142849600I0J2032000D01*
G01*
X147320000Y-153517600D02*
G75*
G02X145288000Y-155549600I-2032000J0D01*
G01*
X88392000Y-155549600D02*
G75*
G02X86360000Y-153517600I0J2032000D01*
G01*
X86360000Y-144881600D02*
X86360000Y-153517600D01*
M02*
