G04 #@! TF.GenerationSoftware,KiCad,Pcbnew,(5.0.2)-1*
G04 #@! TF.CreationDate,2019-04-02T18:39:04-05:00*
G04 #@! TF.ProjectId,CameraPowerInjector_Hardware,43616d65-7261-4506-9f77-6572496e6a65,rev?*
G04 #@! TF.SameCoordinates,Original*
G04 #@! TF.FileFunction,Copper,L1,Top*
G04 #@! TF.FilePolarity,Positive*
%FSLAX46Y46*%
G04 Gerber Fmt 4.6, Leading zero omitted, Abs format (unit mm)*
G04 Created by KiCad (PCBNEW (5.0.2)-1) date 4/2/2019 6:39:04 PM*
%MOMM*%
%LPD*%
G01*
G04 APERTURE LIST*
G04 #@! TA.AperFunction,Conductor*
%ADD10C,0.100000*%
G04 #@! TD*
G04 #@! TA.AperFunction,SMDPad,CuDef*
%ADD11C,0.950000*%
G04 #@! TD*
G04 #@! TA.AperFunction,ComponentPad*
%ADD12C,5.080000*%
G04 #@! TD*
G04 #@! TA.AperFunction,ComponentPad*
%ADD13C,1.524000*%
G04 #@! TD*
G04 #@! TA.AperFunction,ComponentPad*
%ADD14C,2.641600*%
G04 #@! TD*
G04 #@! TA.AperFunction,ComponentPad*
%ADD15R,1.700000X1.700000*%
G04 #@! TD*
G04 #@! TA.AperFunction,ComponentPad*
%ADD16O,1.700000X1.700000*%
G04 #@! TD*
G04 #@! TA.AperFunction,Conductor*
%ADD17C,1.016000*%
G04 #@! TD*
G04 #@! TA.AperFunction,Conductor*
%ADD18C,0.381000*%
G04 #@! TD*
G04 #@! TA.AperFunction,Conductor*
%ADD19C,0.762000*%
G04 #@! TD*
G04 #@! TA.AperFunction,Conductor*
%ADD20C,0.254000*%
G04 #@! TD*
G04 APERTURE END LIST*
D10*
G04 #@! TO.N,GND*
G04 #@! TO.C,C1*
G36*
X134880779Y-102346144D02*
X134903834Y-102349563D01*
X134926443Y-102355227D01*
X134948387Y-102363079D01*
X134969457Y-102373044D01*
X134989448Y-102385026D01*
X135008168Y-102398910D01*
X135025438Y-102414562D01*
X135041090Y-102431832D01*
X135054974Y-102450552D01*
X135066956Y-102470543D01*
X135076921Y-102491613D01*
X135084773Y-102513557D01*
X135090437Y-102536166D01*
X135093856Y-102559221D01*
X135095000Y-102582500D01*
X135095000Y-103157500D01*
X135093856Y-103180779D01*
X135090437Y-103203834D01*
X135084773Y-103226443D01*
X135076921Y-103248387D01*
X135066956Y-103269457D01*
X135054974Y-103289448D01*
X135041090Y-103308168D01*
X135025438Y-103325438D01*
X135008168Y-103341090D01*
X134989448Y-103354974D01*
X134969457Y-103366956D01*
X134948387Y-103376921D01*
X134926443Y-103384773D01*
X134903834Y-103390437D01*
X134880779Y-103393856D01*
X134857500Y-103395000D01*
X134382500Y-103395000D01*
X134359221Y-103393856D01*
X134336166Y-103390437D01*
X134313557Y-103384773D01*
X134291613Y-103376921D01*
X134270543Y-103366956D01*
X134250552Y-103354974D01*
X134231832Y-103341090D01*
X134214562Y-103325438D01*
X134198910Y-103308168D01*
X134185026Y-103289448D01*
X134173044Y-103269457D01*
X134163079Y-103248387D01*
X134155227Y-103226443D01*
X134149563Y-103203834D01*
X134146144Y-103180779D01*
X134145000Y-103157500D01*
X134145000Y-102582500D01*
X134146144Y-102559221D01*
X134149563Y-102536166D01*
X134155227Y-102513557D01*
X134163079Y-102491613D01*
X134173044Y-102470543D01*
X134185026Y-102450552D01*
X134198910Y-102431832D01*
X134214562Y-102414562D01*
X134231832Y-102398910D01*
X134250552Y-102385026D01*
X134270543Y-102373044D01*
X134291613Y-102363079D01*
X134313557Y-102355227D01*
X134336166Y-102349563D01*
X134359221Y-102346144D01*
X134382500Y-102345000D01*
X134857500Y-102345000D01*
X134880779Y-102346144D01*
X134880779Y-102346144D01*
G37*
D11*
G04 #@! TD*
G04 #@! TO.P,C1,2*
G04 #@! TO.N,GND*
X134620000Y-102870000D03*
D10*
G04 #@! TO.N,VDDA*
G04 #@! TO.C,C1*
G36*
X134880779Y-104096144D02*
X134903834Y-104099563D01*
X134926443Y-104105227D01*
X134948387Y-104113079D01*
X134969457Y-104123044D01*
X134989448Y-104135026D01*
X135008168Y-104148910D01*
X135025438Y-104164562D01*
X135041090Y-104181832D01*
X135054974Y-104200552D01*
X135066956Y-104220543D01*
X135076921Y-104241613D01*
X135084773Y-104263557D01*
X135090437Y-104286166D01*
X135093856Y-104309221D01*
X135095000Y-104332500D01*
X135095000Y-104907500D01*
X135093856Y-104930779D01*
X135090437Y-104953834D01*
X135084773Y-104976443D01*
X135076921Y-104998387D01*
X135066956Y-105019457D01*
X135054974Y-105039448D01*
X135041090Y-105058168D01*
X135025438Y-105075438D01*
X135008168Y-105091090D01*
X134989448Y-105104974D01*
X134969457Y-105116956D01*
X134948387Y-105126921D01*
X134926443Y-105134773D01*
X134903834Y-105140437D01*
X134880779Y-105143856D01*
X134857500Y-105145000D01*
X134382500Y-105145000D01*
X134359221Y-105143856D01*
X134336166Y-105140437D01*
X134313557Y-105134773D01*
X134291613Y-105126921D01*
X134270543Y-105116956D01*
X134250552Y-105104974D01*
X134231832Y-105091090D01*
X134214562Y-105075438D01*
X134198910Y-105058168D01*
X134185026Y-105039448D01*
X134173044Y-105019457D01*
X134163079Y-104998387D01*
X134155227Y-104976443D01*
X134149563Y-104953834D01*
X134146144Y-104930779D01*
X134145000Y-104907500D01*
X134145000Y-104332500D01*
X134146144Y-104309221D01*
X134149563Y-104286166D01*
X134155227Y-104263557D01*
X134163079Y-104241613D01*
X134173044Y-104220543D01*
X134185026Y-104200552D01*
X134198910Y-104181832D01*
X134214562Y-104164562D01*
X134231832Y-104148910D01*
X134250552Y-104135026D01*
X134270543Y-104123044D01*
X134291613Y-104113079D01*
X134313557Y-104105227D01*
X134336166Y-104099563D01*
X134359221Y-104096144D01*
X134382500Y-104095000D01*
X134857500Y-104095000D01*
X134880779Y-104096144D01*
X134880779Y-104096144D01*
G37*
D11*
G04 #@! TD*
G04 #@! TO.P,C1,1*
G04 #@! TO.N,VDDA*
X134620000Y-104620000D03*
D10*
G04 #@! TO.N,VDDF*
G04 #@! TO.C,C2*
G36*
X134880779Y-98056144D02*
X134903834Y-98059563D01*
X134926443Y-98065227D01*
X134948387Y-98073079D01*
X134969457Y-98083044D01*
X134989448Y-98095026D01*
X135008168Y-98108910D01*
X135025438Y-98124562D01*
X135041090Y-98141832D01*
X135054974Y-98160552D01*
X135066956Y-98180543D01*
X135076921Y-98201613D01*
X135084773Y-98223557D01*
X135090437Y-98246166D01*
X135093856Y-98269221D01*
X135095000Y-98292500D01*
X135095000Y-98867500D01*
X135093856Y-98890779D01*
X135090437Y-98913834D01*
X135084773Y-98936443D01*
X135076921Y-98958387D01*
X135066956Y-98979457D01*
X135054974Y-98999448D01*
X135041090Y-99018168D01*
X135025438Y-99035438D01*
X135008168Y-99051090D01*
X134989448Y-99064974D01*
X134969457Y-99076956D01*
X134948387Y-99086921D01*
X134926443Y-99094773D01*
X134903834Y-99100437D01*
X134880779Y-99103856D01*
X134857500Y-99105000D01*
X134382500Y-99105000D01*
X134359221Y-99103856D01*
X134336166Y-99100437D01*
X134313557Y-99094773D01*
X134291613Y-99086921D01*
X134270543Y-99076956D01*
X134250552Y-99064974D01*
X134231832Y-99051090D01*
X134214562Y-99035438D01*
X134198910Y-99018168D01*
X134185026Y-98999448D01*
X134173044Y-98979457D01*
X134163079Y-98958387D01*
X134155227Y-98936443D01*
X134149563Y-98913834D01*
X134146144Y-98890779D01*
X134145000Y-98867500D01*
X134145000Y-98292500D01*
X134146144Y-98269221D01*
X134149563Y-98246166D01*
X134155227Y-98223557D01*
X134163079Y-98201613D01*
X134173044Y-98180543D01*
X134185026Y-98160552D01*
X134198910Y-98141832D01*
X134214562Y-98124562D01*
X134231832Y-98108910D01*
X134250552Y-98095026D01*
X134270543Y-98083044D01*
X134291613Y-98073079D01*
X134313557Y-98065227D01*
X134336166Y-98059563D01*
X134359221Y-98056144D01*
X134382500Y-98055000D01*
X134857500Y-98055000D01*
X134880779Y-98056144D01*
X134880779Y-98056144D01*
G37*
D11*
G04 #@! TD*
G04 #@! TO.P,C2,1*
G04 #@! TO.N,VDDF*
X134620000Y-98580000D03*
D10*
G04 #@! TO.N,GND*
G04 #@! TO.C,C2*
G36*
X134880779Y-99806144D02*
X134903834Y-99809563D01*
X134926443Y-99815227D01*
X134948387Y-99823079D01*
X134969457Y-99833044D01*
X134989448Y-99845026D01*
X135008168Y-99858910D01*
X135025438Y-99874562D01*
X135041090Y-99891832D01*
X135054974Y-99910552D01*
X135066956Y-99930543D01*
X135076921Y-99951613D01*
X135084773Y-99973557D01*
X135090437Y-99996166D01*
X135093856Y-100019221D01*
X135095000Y-100042500D01*
X135095000Y-100617500D01*
X135093856Y-100640779D01*
X135090437Y-100663834D01*
X135084773Y-100686443D01*
X135076921Y-100708387D01*
X135066956Y-100729457D01*
X135054974Y-100749448D01*
X135041090Y-100768168D01*
X135025438Y-100785438D01*
X135008168Y-100801090D01*
X134989448Y-100814974D01*
X134969457Y-100826956D01*
X134948387Y-100836921D01*
X134926443Y-100844773D01*
X134903834Y-100850437D01*
X134880779Y-100853856D01*
X134857500Y-100855000D01*
X134382500Y-100855000D01*
X134359221Y-100853856D01*
X134336166Y-100850437D01*
X134313557Y-100844773D01*
X134291613Y-100836921D01*
X134270543Y-100826956D01*
X134250552Y-100814974D01*
X134231832Y-100801090D01*
X134214562Y-100785438D01*
X134198910Y-100768168D01*
X134185026Y-100749448D01*
X134173044Y-100729457D01*
X134163079Y-100708387D01*
X134155227Y-100686443D01*
X134149563Y-100663834D01*
X134146144Y-100640779D01*
X134145000Y-100617500D01*
X134145000Y-100042500D01*
X134146144Y-100019221D01*
X134149563Y-99996166D01*
X134155227Y-99973557D01*
X134163079Y-99951613D01*
X134173044Y-99930543D01*
X134185026Y-99910552D01*
X134198910Y-99891832D01*
X134214562Y-99874562D01*
X134231832Y-99858910D01*
X134250552Y-99845026D01*
X134270543Y-99833044D01*
X134291613Y-99823079D01*
X134313557Y-99815227D01*
X134336166Y-99809563D01*
X134359221Y-99806144D01*
X134382500Y-99805000D01*
X134857500Y-99805000D01*
X134880779Y-99806144D01*
X134880779Y-99806144D01*
G37*
D11*
G04 #@! TD*
G04 #@! TO.P,C2,2*
G04 #@! TO.N,GND*
X134620000Y-100330000D03*
D10*
G04 #@! TO.N,VCOM*
G04 #@! TO.C,C3*
G36*
X86670779Y-108746144D02*
X86693834Y-108749563D01*
X86716443Y-108755227D01*
X86738387Y-108763079D01*
X86759457Y-108773044D01*
X86779448Y-108785026D01*
X86798168Y-108798910D01*
X86815438Y-108814562D01*
X86831090Y-108831832D01*
X86844974Y-108850552D01*
X86856956Y-108870543D01*
X86866921Y-108891613D01*
X86874773Y-108913557D01*
X86880437Y-108936166D01*
X86883856Y-108959221D01*
X86885000Y-108982500D01*
X86885000Y-109457500D01*
X86883856Y-109480779D01*
X86880437Y-109503834D01*
X86874773Y-109526443D01*
X86866921Y-109548387D01*
X86856956Y-109569457D01*
X86844974Y-109589448D01*
X86831090Y-109608168D01*
X86815438Y-109625438D01*
X86798168Y-109641090D01*
X86779448Y-109654974D01*
X86759457Y-109666956D01*
X86738387Y-109676921D01*
X86716443Y-109684773D01*
X86693834Y-109690437D01*
X86670779Y-109693856D01*
X86647500Y-109695000D01*
X86072500Y-109695000D01*
X86049221Y-109693856D01*
X86026166Y-109690437D01*
X86003557Y-109684773D01*
X85981613Y-109676921D01*
X85960543Y-109666956D01*
X85940552Y-109654974D01*
X85921832Y-109641090D01*
X85904562Y-109625438D01*
X85888910Y-109608168D01*
X85875026Y-109589448D01*
X85863044Y-109569457D01*
X85853079Y-109548387D01*
X85845227Y-109526443D01*
X85839563Y-109503834D01*
X85836144Y-109480779D01*
X85835000Y-109457500D01*
X85835000Y-108982500D01*
X85836144Y-108959221D01*
X85839563Y-108936166D01*
X85845227Y-108913557D01*
X85853079Y-108891613D01*
X85863044Y-108870543D01*
X85875026Y-108850552D01*
X85888910Y-108831832D01*
X85904562Y-108814562D01*
X85921832Y-108798910D01*
X85940552Y-108785026D01*
X85960543Y-108773044D01*
X85981613Y-108763079D01*
X86003557Y-108755227D01*
X86026166Y-108749563D01*
X86049221Y-108746144D01*
X86072500Y-108745000D01*
X86647500Y-108745000D01*
X86670779Y-108746144D01*
X86670779Y-108746144D01*
G37*
D11*
G04 #@! TD*
G04 #@! TO.P,C3,1*
G04 #@! TO.N,VCOM*
X86360000Y-109220000D03*
D10*
G04 #@! TO.N,GND*
G04 #@! TO.C,C3*
G36*
X84920779Y-108746144D02*
X84943834Y-108749563D01*
X84966443Y-108755227D01*
X84988387Y-108763079D01*
X85009457Y-108773044D01*
X85029448Y-108785026D01*
X85048168Y-108798910D01*
X85065438Y-108814562D01*
X85081090Y-108831832D01*
X85094974Y-108850552D01*
X85106956Y-108870543D01*
X85116921Y-108891613D01*
X85124773Y-108913557D01*
X85130437Y-108936166D01*
X85133856Y-108959221D01*
X85135000Y-108982500D01*
X85135000Y-109457500D01*
X85133856Y-109480779D01*
X85130437Y-109503834D01*
X85124773Y-109526443D01*
X85116921Y-109548387D01*
X85106956Y-109569457D01*
X85094974Y-109589448D01*
X85081090Y-109608168D01*
X85065438Y-109625438D01*
X85048168Y-109641090D01*
X85029448Y-109654974D01*
X85009457Y-109666956D01*
X84988387Y-109676921D01*
X84966443Y-109684773D01*
X84943834Y-109690437D01*
X84920779Y-109693856D01*
X84897500Y-109695000D01*
X84322500Y-109695000D01*
X84299221Y-109693856D01*
X84276166Y-109690437D01*
X84253557Y-109684773D01*
X84231613Y-109676921D01*
X84210543Y-109666956D01*
X84190552Y-109654974D01*
X84171832Y-109641090D01*
X84154562Y-109625438D01*
X84138910Y-109608168D01*
X84125026Y-109589448D01*
X84113044Y-109569457D01*
X84103079Y-109548387D01*
X84095227Y-109526443D01*
X84089563Y-109503834D01*
X84086144Y-109480779D01*
X84085000Y-109457500D01*
X84085000Y-108982500D01*
X84086144Y-108959221D01*
X84089563Y-108936166D01*
X84095227Y-108913557D01*
X84103079Y-108891613D01*
X84113044Y-108870543D01*
X84125026Y-108850552D01*
X84138910Y-108831832D01*
X84154562Y-108814562D01*
X84171832Y-108798910D01*
X84190552Y-108785026D01*
X84210543Y-108773044D01*
X84231613Y-108763079D01*
X84253557Y-108755227D01*
X84276166Y-108749563D01*
X84299221Y-108746144D01*
X84322500Y-108745000D01*
X84897500Y-108745000D01*
X84920779Y-108746144D01*
X84920779Y-108746144D01*
G37*
D11*
G04 #@! TD*
G04 #@! TO.P,C3,2*
G04 #@! TO.N,GND*
X84610000Y-109220000D03*
D10*
G04 #@! TO.N,GND*
G04 #@! TO.C,C4*
G36*
X69680779Y-108746144D02*
X69703834Y-108749563D01*
X69726443Y-108755227D01*
X69748387Y-108763079D01*
X69769457Y-108773044D01*
X69789448Y-108785026D01*
X69808168Y-108798910D01*
X69825438Y-108814562D01*
X69841090Y-108831832D01*
X69854974Y-108850552D01*
X69866956Y-108870543D01*
X69876921Y-108891613D01*
X69884773Y-108913557D01*
X69890437Y-108936166D01*
X69893856Y-108959221D01*
X69895000Y-108982500D01*
X69895000Y-109457500D01*
X69893856Y-109480779D01*
X69890437Y-109503834D01*
X69884773Y-109526443D01*
X69876921Y-109548387D01*
X69866956Y-109569457D01*
X69854974Y-109589448D01*
X69841090Y-109608168D01*
X69825438Y-109625438D01*
X69808168Y-109641090D01*
X69789448Y-109654974D01*
X69769457Y-109666956D01*
X69748387Y-109676921D01*
X69726443Y-109684773D01*
X69703834Y-109690437D01*
X69680779Y-109693856D01*
X69657500Y-109695000D01*
X69082500Y-109695000D01*
X69059221Y-109693856D01*
X69036166Y-109690437D01*
X69013557Y-109684773D01*
X68991613Y-109676921D01*
X68970543Y-109666956D01*
X68950552Y-109654974D01*
X68931832Y-109641090D01*
X68914562Y-109625438D01*
X68898910Y-109608168D01*
X68885026Y-109589448D01*
X68873044Y-109569457D01*
X68863079Y-109548387D01*
X68855227Y-109526443D01*
X68849563Y-109503834D01*
X68846144Y-109480779D01*
X68845000Y-109457500D01*
X68845000Y-108982500D01*
X68846144Y-108959221D01*
X68849563Y-108936166D01*
X68855227Y-108913557D01*
X68863079Y-108891613D01*
X68873044Y-108870543D01*
X68885026Y-108850552D01*
X68898910Y-108831832D01*
X68914562Y-108814562D01*
X68931832Y-108798910D01*
X68950552Y-108785026D01*
X68970543Y-108773044D01*
X68991613Y-108763079D01*
X69013557Y-108755227D01*
X69036166Y-108749563D01*
X69059221Y-108746144D01*
X69082500Y-108745000D01*
X69657500Y-108745000D01*
X69680779Y-108746144D01*
X69680779Y-108746144D01*
G37*
D11*
G04 #@! TD*
G04 #@! TO.P,C4,2*
G04 #@! TO.N,GND*
X69370000Y-109220000D03*
D10*
G04 #@! TO.N,VCOM*
G04 #@! TO.C,C4*
G36*
X71430779Y-108746144D02*
X71453834Y-108749563D01*
X71476443Y-108755227D01*
X71498387Y-108763079D01*
X71519457Y-108773044D01*
X71539448Y-108785026D01*
X71558168Y-108798910D01*
X71575438Y-108814562D01*
X71591090Y-108831832D01*
X71604974Y-108850552D01*
X71616956Y-108870543D01*
X71626921Y-108891613D01*
X71634773Y-108913557D01*
X71640437Y-108936166D01*
X71643856Y-108959221D01*
X71645000Y-108982500D01*
X71645000Y-109457500D01*
X71643856Y-109480779D01*
X71640437Y-109503834D01*
X71634773Y-109526443D01*
X71626921Y-109548387D01*
X71616956Y-109569457D01*
X71604974Y-109589448D01*
X71591090Y-109608168D01*
X71575438Y-109625438D01*
X71558168Y-109641090D01*
X71539448Y-109654974D01*
X71519457Y-109666956D01*
X71498387Y-109676921D01*
X71476443Y-109684773D01*
X71453834Y-109690437D01*
X71430779Y-109693856D01*
X71407500Y-109695000D01*
X70832500Y-109695000D01*
X70809221Y-109693856D01*
X70786166Y-109690437D01*
X70763557Y-109684773D01*
X70741613Y-109676921D01*
X70720543Y-109666956D01*
X70700552Y-109654974D01*
X70681832Y-109641090D01*
X70664562Y-109625438D01*
X70648910Y-109608168D01*
X70635026Y-109589448D01*
X70623044Y-109569457D01*
X70613079Y-109548387D01*
X70605227Y-109526443D01*
X70599563Y-109503834D01*
X70596144Y-109480779D01*
X70595000Y-109457500D01*
X70595000Y-108982500D01*
X70596144Y-108959221D01*
X70599563Y-108936166D01*
X70605227Y-108913557D01*
X70613079Y-108891613D01*
X70623044Y-108870543D01*
X70635026Y-108850552D01*
X70648910Y-108831832D01*
X70664562Y-108814562D01*
X70681832Y-108798910D01*
X70700552Y-108785026D01*
X70720543Y-108773044D01*
X70741613Y-108763079D01*
X70763557Y-108755227D01*
X70786166Y-108749563D01*
X70809221Y-108746144D01*
X70832500Y-108745000D01*
X71407500Y-108745000D01*
X71430779Y-108746144D01*
X71430779Y-108746144D01*
G37*
D11*
G04 #@! TD*
G04 #@! TO.P,C4,1*
G04 #@! TO.N,VCOM*
X71120000Y-109220000D03*
D10*
G04 #@! TO.N,VCOM*
G04 #@! TO.C,C5*
G36*
X101910779Y-108746144D02*
X101933834Y-108749563D01*
X101956443Y-108755227D01*
X101978387Y-108763079D01*
X101999457Y-108773044D01*
X102019448Y-108785026D01*
X102038168Y-108798910D01*
X102055438Y-108814562D01*
X102071090Y-108831832D01*
X102084974Y-108850552D01*
X102096956Y-108870543D01*
X102106921Y-108891613D01*
X102114773Y-108913557D01*
X102120437Y-108936166D01*
X102123856Y-108959221D01*
X102125000Y-108982500D01*
X102125000Y-109457500D01*
X102123856Y-109480779D01*
X102120437Y-109503834D01*
X102114773Y-109526443D01*
X102106921Y-109548387D01*
X102096956Y-109569457D01*
X102084974Y-109589448D01*
X102071090Y-109608168D01*
X102055438Y-109625438D01*
X102038168Y-109641090D01*
X102019448Y-109654974D01*
X101999457Y-109666956D01*
X101978387Y-109676921D01*
X101956443Y-109684773D01*
X101933834Y-109690437D01*
X101910779Y-109693856D01*
X101887500Y-109695000D01*
X101312500Y-109695000D01*
X101289221Y-109693856D01*
X101266166Y-109690437D01*
X101243557Y-109684773D01*
X101221613Y-109676921D01*
X101200543Y-109666956D01*
X101180552Y-109654974D01*
X101161832Y-109641090D01*
X101144562Y-109625438D01*
X101128910Y-109608168D01*
X101115026Y-109589448D01*
X101103044Y-109569457D01*
X101093079Y-109548387D01*
X101085227Y-109526443D01*
X101079563Y-109503834D01*
X101076144Y-109480779D01*
X101075000Y-109457500D01*
X101075000Y-108982500D01*
X101076144Y-108959221D01*
X101079563Y-108936166D01*
X101085227Y-108913557D01*
X101093079Y-108891613D01*
X101103044Y-108870543D01*
X101115026Y-108850552D01*
X101128910Y-108831832D01*
X101144562Y-108814562D01*
X101161832Y-108798910D01*
X101180552Y-108785026D01*
X101200543Y-108773044D01*
X101221613Y-108763079D01*
X101243557Y-108755227D01*
X101266166Y-108749563D01*
X101289221Y-108746144D01*
X101312500Y-108745000D01*
X101887500Y-108745000D01*
X101910779Y-108746144D01*
X101910779Y-108746144D01*
G37*
D11*
G04 #@! TD*
G04 #@! TO.P,C5,1*
G04 #@! TO.N,VCOM*
X101600000Y-109220000D03*
D10*
G04 #@! TO.N,GND*
G04 #@! TO.C,C5*
G36*
X100160779Y-108746144D02*
X100183834Y-108749563D01*
X100206443Y-108755227D01*
X100228387Y-108763079D01*
X100249457Y-108773044D01*
X100269448Y-108785026D01*
X100288168Y-108798910D01*
X100305438Y-108814562D01*
X100321090Y-108831832D01*
X100334974Y-108850552D01*
X100346956Y-108870543D01*
X100356921Y-108891613D01*
X100364773Y-108913557D01*
X100370437Y-108936166D01*
X100373856Y-108959221D01*
X100375000Y-108982500D01*
X100375000Y-109457500D01*
X100373856Y-109480779D01*
X100370437Y-109503834D01*
X100364773Y-109526443D01*
X100356921Y-109548387D01*
X100346956Y-109569457D01*
X100334974Y-109589448D01*
X100321090Y-109608168D01*
X100305438Y-109625438D01*
X100288168Y-109641090D01*
X100269448Y-109654974D01*
X100249457Y-109666956D01*
X100228387Y-109676921D01*
X100206443Y-109684773D01*
X100183834Y-109690437D01*
X100160779Y-109693856D01*
X100137500Y-109695000D01*
X99562500Y-109695000D01*
X99539221Y-109693856D01*
X99516166Y-109690437D01*
X99493557Y-109684773D01*
X99471613Y-109676921D01*
X99450543Y-109666956D01*
X99430552Y-109654974D01*
X99411832Y-109641090D01*
X99394562Y-109625438D01*
X99378910Y-109608168D01*
X99365026Y-109589448D01*
X99353044Y-109569457D01*
X99343079Y-109548387D01*
X99335227Y-109526443D01*
X99329563Y-109503834D01*
X99326144Y-109480779D01*
X99325000Y-109457500D01*
X99325000Y-108982500D01*
X99326144Y-108959221D01*
X99329563Y-108936166D01*
X99335227Y-108913557D01*
X99343079Y-108891613D01*
X99353044Y-108870543D01*
X99365026Y-108850552D01*
X99378910Y-108831832D01*
X99394562Y-108814562D01*
X99411832Y-108798910D01*
X99430552Y-108785026D01*
X99450543Y-108773044D01*
X99471613Y-108763079D01*
X99493557Y-108755227D01*
X99516166Y-108749563D01*
X99539221Y-108746144D01*
X99562500Y-108745000D01*
X100137500Y-108745000D01*
X100160779Y-108746144D01*
X100160779Y-108746144D01*
G37*
D11*
G04 #@! TD*
G04 #@! TO.P,C5,2*
G04 #@! TO.N,GND*
X99850000Y-109220000D03*
D10*
G04 #@! TO.N,GND*
G04 #@! TO.C,C6*
G36*
X115400779Y-108746144D02*
X115423834Y-108749563D01*
X115446443Y-108755227D01*
X115468387Y-108763079D01*
X115489457Y-108773044D01*
X115509448Y-108785026D01*
X115528168Y-108798910D01*
X115545438Y-108814562D01*
X115561090Y-108831832D01*
X115574974Y-108850552D01*
X115586956Y-108870543D01*
X115596921Y-108891613D01*
X115604773Y-108913557D01*
X115610437Y-108936166D01*
X115613856Y-108959221D01*
X115615000Y-108982500D01*
X115615000Y-109457500D01*
X115613856Y-109480779D01*
X115610437Y-109503834D01*
X115604773Y-109526443D01*
X115596921Y-109548387D01*
X115586956Y-109569457D01*
X115574974Y-109589448D01*
X115561090Y-109608168D01*
X115545438Y-109625438D01*
X115528168Y-109641090D01*
X115509448Y-109654974D01*
X115489457Y-109666956D01*
X115468387Y-109676921D01*
X115446443Y-109684773D01*
X115423834Y-109690437D01*
X115400779Y-109693856D01*
X115377500Y-109695000D01*
X114802500Y-109695000D01*
X114779221Y-109693856D01*
X114756166Y-109690437D01*
X114733557Y-109684773D01*
X114711613Y-109676921D01*
X114690543Y-109666956D01*
X114670552Y-109654974D01*
X114651832Y-109641090D01*
X114634562Y-109625438D01*
X114618910Y-109608168D01*
X114605026Y-109589448D01*
X114593044Y-109569457D01*
X114583079Y-109548387D01*
X114575227Y-109526443D01*
X114569563Y-109503834D01*
X114566144Y-109480779D01*
X114565000Y-109457500D01*
X114565000Y-108982500D01*
X114566144Y-108959221D01*
X114569563Y-108936166D01*
X114575227Y-108913557D01*
X114583079Y-108891613D01*
X114593044Y-108870543D01*
X114605026Y-108850552D01*
X114618910Y-108831832D01*
X114634562Y-108814562D01*
X114651832Y-108798910D01*
X114670552Y-108785026D01*
X114690543Y-108773044D01*
X114711613Y-108763079D01*
X114733557Y-108755227D01*
X114756166Y-108749563D01*
X114779221Y-108746144D01*
X114802500Y-108745000D01*
X115377500Y-108745000D01*
X115400779Y-108746144D01*
X115400779Y-108746144D01*
G37*
D11*
G04 #@! TD*
G04 #@! TO.P,C6,2*
G04 #@! TO.N,GND*
X115090000Y-109220000D03*
D10*
G04 #@! TO.N,VCOM*
G04 #@! TO.C,C6*
G36*
X117150779Y-108746144D02*
X117173834Y-108749563D01*
X117196443Y-108755227D01*
X117218387Y-108763079D01*
X117239457Y-108773044D01*
X117259448Y-108785026D01*
X117278168Y-108798910D01*
X117295438Y-108814562D01*
X117311090Y-108831832D01*
X117324974Y-108850552D01*
X117336956Y-108870543D01*
X117346921Y-108891613D01*
X117354773Y-108913557D01*
X117360437Y-108936166D01*
X117363856Y-108959221D01*
X117365000Y-108982500D01*
X117365000Y-109457500D01*
X117363856Y-109480779D01*
X117360437Y-109503834D01*
X117354773Y-109526443D01*
X117346921Y-109548387D01*
X117336956Y-109569457D01*
X117324974Y-109589448D01*
X117311090Y-109608168D01*
X117295438Y-109625438D01*
X117278168Y-109641090D01*
X117259448Y-109654974D01*
X117239457Y-109666956D01*
X117218387Y-109676921D01*
X117196443Y-109684773D01*
X117173834Y-109690437D01*
X117150779Y-109693856D01*
X117127500Y-109695000D01*
X116552500Y-109695000D01*
X116529221Y-109693856D01*
X116506166Y-109690437D01*
X116483557Y-109684773D01*
X116461613Y-109676921D01*
X116440543Y-109666956D01*
X116420552Y-109654974D01*
X116401832Y-109641090D01*
X116384562Y-109625438D01*
X116368910Y-109608168D01*
X116355026Y-109589448D01*
X116343044Y-109569457D01*
X116333079Y-109548387D01*
X116325227Y-109526443D01*
X116319563Y-109503834D01*
X116316144Y-109480779D01*
X116315000Y-109457500D01*
X116315000Y-108982500D01*
X116316144Y-108959221D01*
X116319563Y-108936166D01*
X116325227Y-108913557D01*
X116333079Y-108891613D01*
X116343044Y-108870543D01*
X116355026Y-108850552D01*
X116368910Y-108831832D01*
X116384562Y-108814562D01*
X116401832Y-108798910D01*
X116420552Y-108785026D01*
X116440543Y-108773044D01*
X116461613Y-108763079D01*
X116483557Y-108755227D01*
X116506166Y-108749563D01*
X116529221Y-108746144D01*
X116552500Y-108745000D01*
X117127500Y-108745000D01*
X117150779Y-108746144D01*
X117150779Y-108746144D01*
G37*
D11*
G04 #@! TD*
G04 #@! TO.P,C6,1*
G04 #@! TO.N,VCOM*
X116840000Y-109220000D03*
D12*
G04 #@! TO.P,Conn1,1*
G04 #@! TO.N,GND*
X134620000Y-127254000D03*
G04 #@! TO.P,Conn1,2*
G04 #@! TO.N,N/C*
X134620000Y-119380000D03*
G04 #@! TO.P,Conn1,3*
G04 #@! TO.N,VDDA*
X134620000Y-111506000D03*
G04 #@! TD*
D13*
G04 #@! TO.P,Conn2,3*
G04 #@! TO.N,GND*
X124460000Y-109220000D03*
G04 #@! TO.P,Conn2,2*
G04 #@! TO.N,C1_Sig*
X121920000Y-109220000D03*
G04 #@! TO.P,Conn2,1*
G04 #@! TO.N,VCOM*
X119380000Y-109220000D03*
G04 #@! TD*
G04 #@! TO.P,Conn3,1*
G04 #@! TO.N,VCOM*
X104140000Y-109220000D03*
G04 #@! TO.P,Conn3,2*
G04 #@! TO.N,C2_Sig*
X106680000Y-109220000D03*
G04 #@! TO.P,Conn3,3*
G04 #@! TO.N,GND*
X109220000Y-109220000D03*
G04 #@! TD*
G04 #@! TO.P,Conn4,3*
G04 #@! TO.N,GND*
X93980000Y-109220000D03*
G04 #@! TO.P,Conn4,2*
G04 #@! TO.N,C3_Sig*
X91440000Y-109220000D03*
G04 #@! TO.P,Conn4,1*
G04 #@! TO.N,VCOM*
X88900000Y-109220000D03*
G04 #@! TD*
G04 #@! TO.P,Conn5,1*
G04 #@! TO.N,VCOM*
X73660000Y-109220000D03*
G04 #@! TO.P,Conn5,2*
G04 #@! TO.N,C4_Sig*
X76200000Y-109220000D03*
G04 #@! TO.P,Conn5,3*
G04 #@! TO.N,GND*
X78740000Y-109220000D03*
G04 #@! TD*
D12*
G04 #@! TO.P,Conn6,3*
G04 #@! TO.N,VDDA*
X63500000Y-127254000D03*
G04 #@! TO.P,Conn6,2*
G04 #@! TO.N,N/C*
X63500000Y-119380000D03*
G04 #@! TO.P,Conn6,1*
G04 #@! TO.N,GND*
X63500000Y-111506000D03*
G04 #@! TD*
D13*
G04 #@! TO.P,J1,1*
G04 #@! TO.N,C1_Sig*
X121920000Y-119380000D03*
G04 #@! TO.P,J1,2*
G04 #@! TO.N,GND*
X124460000Y-119380000D03*
D14*
G04 #@! TO.P,J1,3*
G04 #@! TO.N,N/C*
X127000000Y-124460000D03*
G04 #@! TO.P,J1,4*
X116840000Y-124460000D03*
G04 #@! TD*
G04 #@! TO.P,J2,4*
G04 #@! TO.N,N/C*
X101600000Y-124460000D03*
G04 #@! TO.P,J2,3*
X111760000Y-124460000D03*
D13*
G04 #@! TO.P,J2,2*
G04 #@! TO.N,GND*
X109220000Y-119380000D03*
G04 #@! TO.P,J2,1*
G04 #@! TO.N,C2_Sig*
X106680000Y-119380000D03*
G04 #@! TD*
G04 #@! TO.P,J3,1*
G04 #@! TO.N,C3_Sig*
X91440000Y-119380000D03*
G04 #@! TO.P,J3,2*
G04 #@! TO.N,GND*
X93980000Y-119380000D03*
D14*
G04 #@! TO.P,J3,3*
G04 #@! TO.N,N/C*
X96520000Y-124460000D03*
G04 #@! TO.P,J3,4*
X86360000Y-124460000D03*
G04 #@! TD*
G04 #@! TO.P,J4,4*
G04 #@! TO.N,N/C*
X71120000Y-124460000D03*
G04 #@! TO.P,J4,3*
X81280000Y-124460000D03*
D13*
G04 #@! TO.P,J4,2*
G04 #@! TO.N,GND*
X78740000Y-119380000D03*
G04 #@! TO.P,J4,1*
G04 #@! TO.N,C4_Sig*
X76200000Y-119380000D03*
G04 #@! TD*
D15*
G04 #@! TO.P,JP1,1*
G04 #@! TO.N,VDDF*
X130810000Y-99060000D03*
D16*
G04 #@! TO.P,JP1,2*
G04 #@! TO.N,VCOM*
X130810000Y-101600000D03*
G04 #@! TO.P,JP1,3*
G04 #@! TO.N,VDDA*
X130810000Y-104140000D03*
G04 #@! TD*
D13*
G04 #@! TO.P,U1,1*
G04 #@! TO.N,VDDA*
X137160000Y-104140000D03*
G04 #@! TO.P,U1,2*
G04 #@! TO.N,GND*
X137160000Y-101600000D03*
G04 #@! TO.P,U1,3*
G04 #@! TO.N,VDDF*
X137160000Y-99060000D03*
G04 #@! TD*
D10*
G04 #@! TO.N,GND*
G04 #@! TO.C,D1*
G36*
X129800779Y-116796144D02*
X129823834Y-116799563D01*
X129846443Y-116805227D01*
X129868387Y-116813079D01*
X129889457Y-116823044D01*
X129909448Y-116835026D01*
X129928168Y-116848910D01*
X129945438Y-116864562D01*
X129961090Y-116881832D01*
X129974974Y-116900552D01*
X129986956Y-116920543D01*
X129996921Y-116941613D01*
X130004773Y-116963557D01*
X130010437Y-116986166D01*
X130013856Y-117009221D01*
X130015000Y-117032500D01*
X130015000Y-117607500D01*
X130013856Y-117630779D01*
X130010437Y-117653834D01*
X130004773Y-117676443D01*
X129996921Y-117698387D01*
X129986956Y-117719457D01*
X129974974Y-117739448D01*
X129961090Y-117758168D01*
X129945438Y-117775438D01*
X129928168Y-117791090D01*
X129909448Y-117804974D01*
X129889457Y-117816956D01*
X129868387Y-117826921D01*
X129846443Y-117834773D01*
X129823834Y-117840437D01*
X129800779Y-117843856D01*
X129777500Y-117845000D01*
X129302500Y-117845000D01*
X129279221Y-117843856D01*
X129256166Y-117840437D01*
X129233557Y-117834773D01*
X129211613Y-117826921D01*
X129190543Y-117816956D01*
X129170552Y-117804974D01*
X129151832Y-117791090D01*
X129134562Y-117775438D01*
X129118910Y-117758168D01*
X129105026Y-117739448D01*
X129093044Y-117719457D01*
X129083079Y-117698387D01*
X129075227Y-117676443D01*
X129069563Y-117653834D01*
X129066144Y-117630779D01*
X129065000Y-117607500D01*
X129065000Y-117032500D01*
X129066144Y-117009221D01*
X129069563Y-116986166D01*
X129075227Y-116963557D01*
X129083079Y-116941613D01*
X129093044Y-116920543D01*
X129105026Y-116900552D01*
X129118910Y-116881832D01*
X129134562Y-116864562D01*
X129151832Y-116848910D01*
X129170552Y-116835026D01*
X129190543Y-116823044D01*
X129211613Y-116813079D01*
X129233557Y-116805227D01*
X129256166Y-116799563D01*
X129279221Y-116796144D01*
X129302500Y-116795000D01*
X129777500Y-116795000D01*
X129800779Y-116796144D01*
X129800779Y-116796144D01*
G37*
D11*
G04 #@! TD*
G04 #@! TO.P,D1,1*
G04 #@! TO.N,GND*
X129540000Y-117320000D03*
D10*
G04 #@! TO.N,Net-(D1-Pad2)*
G04 #@! TO.C,D1*
G36*
X129800779Y-115046144D02*
X129823834Y-115049563D01*
X129846443Y-115055227D01*
X129868387Y-115063079D01*
X129889457Y-115073044D01*
X129909448Y-115085026D01*
X129928168Y-115098910D01*
X129945438Y-115114562D01*
X129961090Y-115131832D01*
X129974974Y-115150552D01*
X129986956Y-115170543D01*
X129996921Y-115191613D01*
X130004773Y-115213557D01*
X130010437Y-115236166D01*
X130013856Y-115259221D01*
X130015000Y-115282500D01*
X130015000Y-115857500D01*
X130013856Y-115880779D01*
X130010437Y-115903834D01*
X130004773Y-115926443D01*
X129996921Y-115948387D01*
X129986956Y-115969457D01*
X129974974Y-115989448D01*
X129961090Y-116008168D01*
X129945438Y-116025438D01*
X129928168Y-116041090D01*
X129909448Y-116054974D01*
X129889457Y-116066956D01*
X129868387Y-116076921D01*
X129846443Y-116084773D01*
X129823834Y-116090437D01*
X129800779Y-116093856D01*
X129777500Y-116095000D01*
X129302500Y-116095000D01*
X129279221Y-116093856D01*
X129256166Y-116090437D01*
X129233557Y-116084773D01*
X129211613Y-116076921D01*
X129190543Y-116066956D01*
X129170552Y-116054974D01*
X129151832Y-116041090D01*
X129134562Y-116025438D01*
X129118910Y-116008168D01*
X129105026Y-115989448D01*
X129093044Y-115969457D01*
X129083079Y-115948387D01*
X129075227Y-115926443D01*
X129069563Y-115903834D01*
X129066144Y-115880779D01*
X129065000Y-115857500D01*
X129065000Y-115282500D01*
X129066144Y-115259221D01*
X129069563Y-115236166D01*
X129075227Y-115213557D01*
X129083079Y-115191613D01*
X129093044Y-115170543D01*
X129105026Y-115150552D01*
X129118910Y-115131832D01*
X129134562Y-115114562D01*
X129151832Y-115098910D01*
X129170552Y-115085026D01*
X129190543Y-115073044D01*
X129211613Y-115063079D01*
X129233557Y-115055227D01*
X129256166Y-115049563D01*
X129279221Y-115046144D01*
X129302500Y-115045000D01*
X129777500Y-115045000D01*
X129800779Y-115046144D01*
X129800779Y-115046144D01*
G37*
D11*
G04 #@! TD*
G04 #@! TO.P,D1,2*
G04 #@! TO.N,Net-(D1-Pad2)*
X129540000Y-115570000D03*
D10*
G04 #@! TO.N,VDDA*
G04 #@! TO.C,R1*
G36*
X129800779Y-111236144D02*
X129823834Y-111239563D01*
X129846443Y-111245227D01*
X129868387Y-111253079D01*
X129889457Y-111263044D01*
X129909448Y-111275026D01*
X129928168Y-111288910D01*
X129945438Y-111304562D01*
X129961090Y-111321832D01*
X129974974Y-111340552D01*
X129986956Y-111360543D01*
X129996921Y-111381613D01*
X130004773Y-111403557D01*
X130010437Y-111426166D01*
X130013856Y-111449221D01*
X130015000Y-111472500D01*
X130015000Y-112047500D01*
X130013856Y-112070779D01*
X130010437Y-112093834D01*
X130004773Y-112116443D01*
X129996921Y-112138387D01*
X129986956Y-112159457D01*
X129974974Y-112179448D01*
X129961090Y-112198168D01*
X129945438Y-112215438D01*
X129928168Y-112231090D01*
X129909448Y-112244974D01*
X129889457Y-112256956D01*
X129868387Y-112266921D01*
X129846443Y-112274773D01*
X129823834Y-112280437D01*
X129800779Y-112283856D01*
X129777500Y-112285000D01*
X129302500Y-112285000D01*
X129279221Y-112283856D01*
X129256166Y-112280437D01*
X129233557Y-112274773D01*
X129211613Y-112266921D01*
X129190543Y-112256956D01*
X129170552Y-112244974D01*
X129151832Y-112231090D01*
X129134562Y-112215438D01*
X129118910Y-112198168D01*
X129105026Y-112179448D01*
X129093044Y-112159457D01*
X129083079Y-112138387D01*
X129075227Y-112116443D01*
X129069563Y-112093834D01*
X129066144Y-112070779D01*
X129065000Y-112047500D01*
X129065000Y-111472500D01*
X129066144Y-111449221D01*
X129069563Y-111426166D01*
X129075227Y-111403557D01*
X129083079Y-111381613D01*
X129093044Y-111360543D01*
X129105026Y-111340552D01*
X129118910Y-111321832D01*
X129134562Y-111304562D01*
X129151832Y-111288910D01*
X129170552Y-111275026D01*
X129190543Y-111263044D01*
X129211613Y-111253079D01*
X129233557Y-111245227D01*
X129256166Y-111239563D01*
X129279221Y-111236144D01*
X129302500Y-111235000D01*
X129777500Y-111235000D01*
X129800779Y-111236144D01*
X129800779Y-111236144D01*
G37*
D11*
G04 #@! TD*
G04 #@! TO.P,R1,1*
G04 #@! TO.N,VDDA*
X129540000Y-111760000D03*
D10*
G04 #@! TO.N,Net-(D1-Pad2)*
G04 #@! TO.C,R1*
G36*
X129800779Y-112986144D02*
X129823834Y-112989563D01*
X129846443Y-112995227D01*
X129868387Y-113003079D01*
X129889457Y-113013044D01*
X129909448Y-113025026D01*
X129928168Y-113038910D01*
X129945438Y-113054562D01*
X129961090Y-113071832D01*
X129974974Y-113090552D01*
X129986956Y-113110543D01*
X129996921Y-113131613D01*
X130004773Y-113153557D01*
X130010437Y-113176166D01*
X130013856Y-113199221D01*
X130015000Y-113222500D01*
X130015000Y-113797500D01*
X130013856Y-113820779D01*
X130010437Y-113843834D01*
X130004773Y-113866443D01*
X129996921Y-113888387D01*
X129986956Y-113909457D01*
X129974974Y-113929448D01*
X129961090Y-113948168D01*
X129945438Y-113965438D01*
X129928168Y-113981090D01*
X129909448Y-113994974D01*
X129889457Y-114006956D01*
X129868387Y-114016921D01*
X129846443Y-114024773D01*
X129823834Y-114030437D01*
X129800779Y-114033856D01*
X129777500Y-114035000D01*
X129302500Y-114035000D01*
X129279221Y-114033856D01*
X129256166Y-114030437D01*
X129233557Y-114024773D01*
X129211613Y-114016921D01*
X129190543Y-114006956D01*
X129170552Y-113994974D01*
X129151832Y-113981090D01*
X129134562Y-113965438D01*
X129118910Y-113948168D01*
X129105026Y-113929448D01*
X129093044Y-113909457D01*
X129083079Y-113888387D01*
X129075227Y-113866443D01*
X129069563Y-113843834D01*
X129066144Y-113820779D01*
X129065000Y-113797500D01*
X129065000Y-113222500D01*
X129066144Y-113199221D01*
X129069563Y-113176166D01*
X129075227Y-113153557D01*
X129083079Y-113131613D01*
X129093044Y-113110543D01*
X129105026Y-113090552D01*
X129118910Y-113071832D01*
X129134562Y-113054562D01*
X129151832Y-113038910D01*
X129170552Y-113025026D01*
X129190543Y-113013044D01*
X129211613Y-113003079D01*
X129233557Y-112995227D01*
X129256166Y-112989563D01*
X129279221Y-112986144D01*
X129302500Y-112985000D01*
X129777500Y-112985000D01*
X129800779Y-112986144D01*
X129800779Y-112986144D01*
G37*
D11*
G04 #@! TD*
G04 #@! TO.P,R1,2*
G04 #@! TO.N,Net-(D1-Pad2)*
X129540000Y-113510000D03*
D17*
G04 #@! TO.N,VDDA*
X134620000Y-111506000D02*
X134620000Y-104620000D01*
X136680000Y-104620000D02*
X137160000Y-104140000D01*
X134620000Y-104620000D02*
X136680000Y-104620000D01*
X131290000Y-104620000D02*
X130810000Y-104140000D01*
X134620000Y-104620000D02*
X131290000Y-104620000D01*
X134620000Y-111506000D02*
X138430000Y-115316000D01*
X138430000Y-115316000D02*
X138430000Y-129540000D01*
X138430000Y-129540000D02*
X137160000Y-130810000D01*
X67056000Y-130810000D02*
X63500000Y-127254000D01*
X137160000Y-130810000D02*
X67056000Y-130810000D01*
D18*
X129794000Y-111506000D02*
X129540000Y-111760000D01*
X134620000Y-111506000D02*
X129794000Y-111506000D01*
D17*
G04 #@! TO.N,VDDF*
X136680000Y-98580000D02*
X137160000Y-99060000D01*
X134620000Y-98580000D02*
X136680000Y-98580000D01*
X131290000Y-98580000D02*
X130810000Y-99060000D01*
X134620000Y-98580000D02*
X131290000Y-98580000D01*
D19*
G04 #@! TO.N,VCOM*
X104140000Y-109220000D02*
X102870000Y-109220000D01*
X102870000Y-109220000D02*
X101600000Y-109220000D01*
X119380000Y-109220000D02*
X116840000Y-109220000D01*
X88900000Y-109220000D02*
X86360000Y-109220000D01*
X73660000Y-109220000D02*
X71120000Y-109220000D01*
G04 #@! TO.N,C1_Sig*
X121920000Y-109220000D02*
X121920000Y-119380000D01*
G04 #@! TO.N,C2_Sig*
X106680000Y-109220000D02*
X106680000Y-119380000D01*
G04 #@! TO.N,C3_Sig*
X91440000Y-109220000D02*
X91440000Y-119380000D01*
G04 #@! TO.N,C4_Sig*
X76200000Y-109220000D02*
X76200000Y-119380000D01*
D18*
G04 #@! TO.N,Net-(D1-Pad2)*
X129540000Y-115570000D02*
X129540000Y-113510000D01*
G04 #@! TD*
D20*
G04 #@! TO.N,GND*
G36*
X150307431Y-97317365D02*
X150726750Y-97483385D01*
X151091610Y-97748471D01*
X151379079Y-98095963D01*
X151571102Y-98504031D01*
X151662168Y-98981417D01*
X151665001Y-99071568D01*
X151665000Y-129493759D01*
X151602635Y-129987430D01*
X151436613Y-130406753D01*
X151171529Y-130771609D01*
X150824037Y-131059079D01*
X150415968Y-131251102D01*
X149938583Y-131342168D01*
X149848465Y-131345000D01*
X138241445Y-131345000D01*
X139158620Y-130427826D01*
X139254057Y-130364057D01*
X139506682Y-129985976D01*
X139573000Y-129652572D01*
X139595392Y-129540001D01*
X139573000Y-129427430D01*
X139573000Y-126580653D01*
X145211800Y-126580653D01*
X145211800Y-127419347D01*
X145532754Y-128194199D01*
X146125801Y-128787246D01*
X146900653Y-129108200D01*
X147739347Y-129108200D01*
X148514199Y-128787246D01*
X149107246Y-128194199D01*
X149428200Y-127419347D01*
X149428200Y-126580653D01*
X149107246Y-125805801D01*
X148514199Y-125212754D01*
X147739347Y-124891800D01*
X146900653Y-124891800D01*
X146125801Y-125212754D01*
X145532754Y-125805801D01*
X145211800Y-126580653D01*
X139573000Y-126580653D01*
X139573000Y-115428572D01*
X139595392Y-115316000D01*
X139506682Y-114870023D01*
X139420535Y-114741096D01*
X139254057Y-114491943D01*
X139158621Y-114428175D01*
X137523486Y-112793040D01*
X137795000Y-112137547D01*
X137795000Y-110874453D01*
X137311635Y-109707507D01*
X136418493Y-108814365D01*
X135763000Y-108542851D01*
X135763000Y-105763000D01*
X136567429Y-105763000D01*
X136680000Y-105785392D01*
X136792571Y-105763000D01*
X136792572Y-105763000D01*
X137125976Y-105696682D01*
X137364958Y-105537000D01*
X137437881Y-105537000D01*
X137951337Y-105324320D01*
X138344320Y-104931337D01*
X138557000Y-104417881D01*
X138557000Y-103862119D01*
X138344320Y-103348663D01*
X137951337Y-102955680D01*
X137437881Y-102743000D01*
X136882119Y-102743000D01*
X136368663Y-102955680D01*
X135975680Y-103348663D01*
X135922521Y-103477000D01*
X135005505Y-103477000D01*
X134857500Y-103447560D01*
X134382500Y-103447560D01*
X134234495Y-103477000D01*
X132152991Y-103477000D01*
X131880625Y-103069375D01*
X131582239Y-102870000D01*
X131880625Y-102670625D01*
X132208839Y-102179418D01*
X132324092Y-101600000D01*
X132240679Y-101180653D01*
X145211800Y-101180653D01*
X145211800Y-102019347D01*
X145532754Y-102794199D01*
X146125801Y-103387246D01*
X146900653Y-103708200D01*
X147739347Y-103708200D01*
X148514199Y-103387246D01*
X149107246Y-102794199D01*
X149428200Y-102019347D01*
X149428200Y-101180653D01*
X149107246Y-100405801D01*
X148514199Y-99812754D01*
X147739347Y-99491800D01*
X146900653Y-99491800D01*
X146125801Y-99812754D01*
X145532754Y-100405801D01*
X145211800Y-101180653D01*
X132240679Y-101180653D01*
X132208839Y-101020582D01*
X131880625Y-100529375D01*
X131862381Y-100517184D01*
X131907765Y-100508157D01*
X132117809Y-100367809D01*
X132258157Y-100157765D01*
X132307440Y-99910000D01*
X132307440Y-99723000D01*
X134234495Y-99723000D01*
X134382500Y-99752440D01*
X134857500Y-99752440D01*
X135005505Y-99723000D01*
X135922521Y-99723000D01*
X135975680Y-99851337D01*
X136368663Y-100244320D01*
X136882119Y-100457000D01*
X137437881Y-100457000D01*
X137951337Y-100244320D01*
X138344320Y-99851337D01*
X138557000Y-99337881D01*
X138557000Y-98782119D01*
X138344320Y-98268663D01*
X137951337Y-97875680D01*
X137437881Y-97663000D01*
X137364958Y-97663000D01*
X137125976Y-97503318D01*
X136792572Y-97437000D01*
X136792571Y-97437000D01*
X136680000Y-97414608D01*
X136567429Y-97437000D01*
X135005505Y-97437000D01*
X134857500Y-97407560D01*
X134382500Y-97407560D01*
X134234495Y-97437000D01*
X131402572Y-97437000D01*
X131290000Y-97414608D01*
X130844023Y-97503318D01*
X130817010Y-97521368D01*
X130755362Y-97562560D01*
X129960000Y-97562560D01*
X129712235Y-97611843D01*
X129502191Y-97752191D01*
X129361843Y-97962235D01*
X129312560Y-98210000D01*
X129312560Y-99910000D01*
X129361843Y-100157765D01*
X129502191Y-100367809D01*
X129712235Y-100508157D01*
X129757619Y-100517184D01*
X129739375Y-100529375D01*
X129411161Y-101020582D01*
X129295908Y-101600000D01*
X129411161Y-102179418D01*
X129739375Y-102670625D01*
X130037761Y-102870000D01*
X129739375Y-103069375D01*
X129411161Y-103560582D01*
X129295908Y-104140000D01*
X129411161Y-104719418D01*
X129739375Y-105210625D01*
X130230582Y-105538839D01*
X130663744Y-105625000D01*
X130736744Y-105625000D01*
X130844023Y-105696682D01*
X131290000Y-105785392D01*
X131402572Y-105763000D01*
X133477001Y-105763000D01*
X133477000Y-108542851D01*
X132821507Y-108814365D01*
X131928365Y-109707507D01*
X131525338Y-110680500D01*
X130154432Y-110680500D01*
X130116152Y-110654922D01*
X129777500Y-110587560D01*
X129302500Y-110587560D01*
X128963848Y-110654922D01*
X128676753Y-110846753D01*
X128484922Y-111133848D01*
X128417560Y-111472500D01*
X128417560Y-112047500D01*
X128484922Y-112386152D01*
X128651197Y-112635000D01*
X128484922Y-112883848D01*
X128417560Y-113222500D01*
X128417560Y-113797500D01*
X128484922Y-114136152D01*
X128676753Y-114423247D01*
X128714501Y-114448469D01*
X128714500Y-114631531D01*
X128676753Y-114656753D01*
X128484922Y-114943848D01*
X128417560Y-115282500D01*
X128417560Y-115857500D01*
X128484922Y-116196152D01*
X128676753Y-116483247D01*
X128963848Y-116675078D01*
X129302500Y-116742440D01*
X129777500Y-116742440D01*
X130116152Y-116675078D01*
X130403247Y-116483247D01*
X130595078Y-116196152D01*
X130662440Y-115857500D01*
X130662440Y-115282500D01*
X130595078Y-114943848D01*
X130403247Y-114656753D01*
X130365500Y-114631531D01*
X130365500Y-114448469D01*
X130403247Y-114423247D01*
X130595078Y-114136152D01*
X130662440Y-113797500D01*
X130662440Y-113222500D01*
X130595078Y-112883848D01*
X130428803Y-112635000D01*
X130595078Y-112386152D01*
X130605949Y-112331500D01*
X131525338Y-112331500D01*
X131928365Y-113304493D01*
X132821507Y-114197635D01*
X133988453Y-114681000D01*
X135251547Y-114681000D01*
X135907040Y-114409486D01*
X137287000Y-115789446D01*
X137287000Y-117556872D01*
X136418493Y-116688365D01*
X135251547Y-116205000D01*
X133988453Y-116205000D01*
X132821507Y-116688365D01*
X131928365Y-117581507D01*
X131445000Y-118748453D01*
X131445000Y-120011547D01*
X131928365Y-121178493D01*
X132821507Y-122071635D01*
X133988453Y-122555000D01*
X135251547Y-122555000D01*
X136418493Y-122071635D01*
X137287000Y-121203128D01*
X137287001Y-129066553D01*
X136686555Y-129667000D01*
X67529446Y-129667000D01*
X66403486Y-128541040D01*
X66675000Y-127885547D01*
X66675000Y-126622453D01*
X66191635Y-125455507D01*
X65298493Y-124562365D01*
X64131547Y-124079000D01*
X62868453Y-124079000D01*
X61701507Y-124562365D01*
X60808365Y-125455507D01*
X60325000Y-126622453D01*
X60325000Y-127885547D01*
X60808365Y-129052493D01*
X61701507Y-129945635D01*
X62868453Y-130429000D01*
X64131547Y-130429000D01*
X64787040Y-130157486D01*
X65974554Y-131345000D01*
X48306241Y-131345000D01*
X47812570Y-131282635D01*
X47393247Y-131116613D01*
X47028391Y-130851529D01*
X46740921Y-130504037D01*
X46548898Y-130095968D01*
X46457832Y-129618583D01*
X46455000Y-129528465D01*
X46455000Y-126580653D01*
X48691800Y-126580653D01*
X48691800Y-127419347D01*
X49012754Y-128194199D01*
X49605801Y-128787246D01*
X50380653Y-129108200D01*
X51219347Y-129108200D01*
X51994199Y-128787246D01*
X52587246Y-128194199D01*
X52908200Y-127419347D01*
X52908200Y-126580653D01*
X52587246Y-125805801D01*
X51994199Y-125212754D01*
X51219347Y-124891800D01*
X50380653Y-124891800D01*
X49605801Y-125212754D01*
X49012754Y-125805801D01*
X48691800Y-126580653D01*
X46455000Y-126580653D01*
X46455000Y-124070967D01*
X69164200Y-124070967D01*
X69164200Y-124849033D01*
X69461953Y-125567871D01*
X70012129Y-126118047D01*
X70730967Y-126415800D01*
X71509033Y-126415800D01*
X72227871Y-126118047D01*
X72778047Y-125567871D01*
X73075800Y-124849033D01*
X73075800Y-124070967D01*
X79324200Y-124070967D01*
X79324200Y-124849033D01*
X79621953Y-125567871D01*
X80172129Y-126118047D01*
X80890967Y-126415800D01*
X81669033Y-126415800D01*
X82387871Y-126118047D01*
X82938047Y-125567871D01*
X83235800Y-124849033D01*
X83235800Y-124070967D01*
X84404200Y-124070967D01*
X84404200Y-124849033D01*
X84701953Y-125567871D01*
X85252129Y-126118047D01*
X85970967Y-126415800D01*
X86749033Y-126415800D01*
X87467871Y-126118047D01*
X88018047Y-125567871D01*
X88315800Y-124849033D01*
X88315800Y-124070967D01*
X94564200Y-124070967D01*
X94564200Y-124849033D01*
X94861953Y-125567871D01*
X95412129Y-126118047D01*
X96130967Y-126415800D01*
X96909033Y-126415800D01*
X97627871Y-126118047D01*
X98178047Y-125567871D01*
X98475800Y-124849033D01*
X98475800Y-124070967D01*
X99644200Y-124070967D01*
X99644200Y-124849033D01*
X99941953Y-125567871D01*
X100492129Y-126118047D01*
X101210967Y-126415800D01*
X101989033Y-126415800D01*
X102707871Y-126118047D01*
X103258047Y-125567871D01*
X103555800Y-124849033D01*
X103555800Y-124070967D01*
X109804200Y-124070967D01*
X109804200Y-124849033D01*
X110101953Y-125567871D01*
X110652129Y-126118047D01*
X111370967Y-126415800D01*
X112149033Y-126415800D01*
X112867871Y-126118047D01*
X113418047Y-125567871D01*
X113715800Y-124849033D01*
X113715800Y-124070967D01*
X114884200Y-124070967D01*
X114884200Y-124849033D01*
X115181953Y-125567871D01*
X115732129Y-126118047D01*
X116450967Y-126415800D01*
X117229033Y-126415800D01*
X117947871Y-126118047D01*
X118498047Y-125567871D01*
X118795800Y-124849033D01*
X118795800Y-124070967D01*
X125044200Y-124070967D01*
X125044200Y-124849033D01*
X125341953Y-125567871D01*
X125892129Y-126118047D01*
X126610967Y-126415800D01*
X127389033Y-126415800D01*
X128107871Y-126118047D01*
X128658047Y-125567871D01*
X128955800Y-124849033D01*
X128955800Y-124070967D01*
X128658047Y-123352129D01*
X128107871Y-122801953D01*
X127389033Y-122504200D01*
X126610967Y-122504200D01*
X125892129Y-122801953D01*
X125341953Y-123352129D01*
X125044200Y-124070967D01*
X118795800Y-124070967D01*
X118498047Y-123352129D01*
X117947871Y-122801953D01*
X117229033Y-122504200D01*
X116450967Y-122504200D01*
X115732129Y-122801953D01*
X115181953Y-123352129D01*
X114884200Y-124070967D01*
X113715800Y-124070967D01*
X113418047Y-123352129D01*
X112867871Y-122801953D01*
X112149033Y-122504200D01*
X111370967Y-122504200D01*
X110652129Y-122801953D01*
X110101953Y-123352129D01*
X109804200Y-124070967D01*
X103555800Y-124070967D01*
X103258047Y-123352129D01*
X102707871Y-122801953D01*
X101989033Y-122504200D01*
X101210967Y-122504200D01*
X100492129Y-122801953D01*
X99941953Y-123352129D01*
X99644200Y-124070967D01*
X98475800Y-124070967D01*
X98178047Y-123352129D01*
X97627871Y-122801953D01*
X96909033Y-122504200D01*
X96130967Y-122504200D01*
X95412129Y-122801953D01*
X94861953Y-123352129D01*
X94564200Y-124070967D01*
X88315800Y-124070967D01*
X88018047Y-123352129D01*
X87467871Y-122801953D01*
X86749033Y-122504200D01*
X85970967Y-122504200D01*
X85252129Y-122801953D01*
X84701953Y-123352129D01*
X84404200Y-124070967D01*
X83235800Y-124070967D01*
X82938047Y-123352129D01*
X82387871Y-122801953D01*
X81669033Y-122504200D01*
X80890967Y-122504200D01*
X80172129Y-122801953D01*
X79621953Y-123352129D01*
X79324200Y-124070967D01*
X73075800Y-124070967D01*
X72778047Y-123352129D01*
X72227871Y-122801953D01*
X71509033Y-122504200D01*
X70730967Y-122504200D01*
X70012129Y-122801953D01*
X69461953Y-123352129D01*
X69164200Y-124070967D01*
X46455000Y-124070967D01*
X46455000Y-118748453D01*
X60325000Y-118748453D01*
X60325000Y-120011547D01*
X60808365Y-121178493D01*
X61701507Y-122071635D01*
X62868453Y-122555000D01*
X64131547Y-122555000D01*
X65298493Y-122071635D01*
X66191635Y-121178493D01*
X66675000Y-120011547D01*
X66675000Y-118748453D01*
X66191635Y-117581507D01*
X65298493Y-116688365D01*
X64131547Y-116205000D01*
X62868453Y-116205000D01*
X61701507Y-116688365D01*
X60808365Y-117581507D01*
X60325000Y-118748453D01*
X46455000Y-118748453D01*
X46455000Y-108982500D01*
X69947560Y-108982500D01*
X69947560Y-109457500D01*
X70014922Y-109796152D01*
X70206753Y-110083247D01*
X70493848Y-110275078D01*
X70832500Y-110342440D01*
X71407500Y-110342440D01*
X71746152Y-110275078D01*
X71804636Y-110236000D01*
X72700343Y-110236000D01*
X72868663Y-110404320D01*
X73382119Y-110617000D01*
X73937881Y-110617000D01*
X74451337Y-110404320D01*
X74844320Y-110011337D01*
X74930000Y-109804487D01*
X75015680Y-110011337D01*
X75184000Y-110179657D01*
X75184001Y-118420342D01*
X75015680Y-118588663D01*
X74803000Y-119102119D01*
X74803000Y-119657881D01*
X75015680Y-120171337D01*
X75408663Y-120564320D01*
X75922119Y-120777000D01*
X76477881Y-120777000D01*
X76991337Y-120564320D01*
X77384320Y-120171337D01*
X77597000Y-119657881D01*
X77597000Y-119102119D01*
X77384320Y-118588663D01*
X77216000Y-118420343D01*
X77216000Y-110179657D01*
X77384320Y-110011337D01*
X77597000Y-109497881D01*
X77597000Y-108982500D01*
X85187560Y-108982500D01*
X85187560Y-109457500D01*
X85254922Y-109796152D01*
X85446753Y-110083247D01*
X85733848Y-110275078D01*
X86072500Y-110342440D01*
X86647500Y-110342440D01*
X86986152Y-110275078D01*
X87044636Y-110236000D01*
X87940343Y-110236000D01*
X88108663Y-110404320D01*
X88622119Y-110617000D01*
X89177881Y-110617000D01*
X89691337Y-110404320D01*
X90084320Y-110011337D01*
X90170000Y-109804487D01*
X90255680Y-110011337D01*
X90424000Y-110179657D01*
X90424001Y-118420342D01*
X90255680Y-118588663D01*
X90043000Y-119102119D01*
X90043000Y-119657881D01*
X90255680Y-120171337D01*
X90648663Y-120564320D01*
X91162119Y-120777000D01*
X91717881Y-120777000D01*
X92231337Y-120564320D01*
X92624320Y-120171337D01*
X92837000Y-119657881D01*
X92837000Y-119102119D01*
X92624320Y-118588663D01*
X92456000Y-118420343D01*
X92456000Y-110179657D01*
X92624320Y-110011337D01*
X92837000Y-109497881D01*
X92837000Y-108982500D01*
X100427560Y-108982500D01*
X100427560Y-109457500D01*
X100494922Y-109796152D01*
X100686753Y-110083247D01*
X100973848Y-110275078D01*
X101312500Y-110342440D01*
X101887500Y-110342440D01*
X102226152Y-110275078D01*
X102284636Y-110236000D01*
X103180343Y-110236000D01*
X103348663Y-110404320D01*
X103862119Y-110617000D01*
X104417881Y-110617000D01*
X104931337Y-110404320D01*
X105324320Y-110011337D01*
X105410000Y-109804487D01*
X105495680Y-110011337D01*
X105664000Y-110179657D01*
X105664001Y-118420342D01*
X105495680Y-118588663D01*
X105283000Y-119102119D01*
X105283000Y-119657881D01*
X105495680Y-120171337D01*
X105888663Y-120564320D01*
X106402119Y-120777000D01*
X106957881Y-120777000D01*
X107471337Y-120564320D01*
X107864320Y-120171337D01*
X108077000Y-119657881D01*
X108077000Y-119102119D01*
X107864320Y-118588663D01*
X107696000Y-118420343D01*
X107696000Y-110179657D01*
X107864320Y-110011337D01*
X108077000Y-109497881D01*
X108077000Y-108982500D01*
X115667560Y-108982500D01*
X115667560Y-109457500D01*
X115734922Y-109796152D01*
X115926753Y-110083247D01*
X116213848Y-110275078D01*
X116552500Y-110342440D01*
X117127500Y-110342440D01*
X117466152Y-110275078D01*
X117524636Y-110236000D01*
X118420343Y-110236000D01*
X118588663Y-110404320D01*
X119102119Y-110617000D01*
X119657881Y-110617000D01*
X120171337Y-110404320D01*
X120564320Y-110011337D01*
X120650000Y-109804487D01*
X120735680Y-110011337D01*
X120904000Y-110179657D01*
X120904001Y-118420342D01*
X120735680Y-118588663D01*
X120523000Y-119102119D01*
X120523000Y-119657881D01*
X120735680Y-120171337D01*
X121128663Y-120564320D01*
X121642119Y-120777000D01*
X122197881Y-120777000D01*
X122711337Y-120564320D01*
X123104320Y-120171337D01*
X123317000Y-119657881D01*
X123317000Y-119102119D01*
X123104320Y-118588663D01*
X122936000Y-118420343D01*
X122936000Y-110179657D01*
X123104320Y-110011337D01*
X123317000Y-109497881D01*
X123317000Y-108942119D01*
X123104320Y-108428663D01*
X122711337Y-108035680D01*
X122197881Y-107823000D01*
X121642119Y-107823000D01*
X121128663Y-108035680D01*
X120735680Y-108428663D01*
X120650000Y-108635513D01*
X120564320Y-108428663D01*
X120171337Y-108035680D01*
X119657881Y-107823000D01*
X119102119Y-107823000D01*
X118588663Y-108035680D01*
X118420343Y-108204000D01*
X117524636Y-108204000D01*
X117466152Y-108164922D01*
X117127500Y-108097560D01*
X116552500Y-108097560D01*
X116213848Y-108164922D01*
X115926753Y-108356753D01*
X115734922Y-108643848D01*
X115667560Y-108982500D01*
X108077000Y-108982500D01*
X108077000Y-108942119D01*
X107864320Y-108428663D01*
X107471337Y-108035680D01*
X106957881Y-107823000D01*
X106402119Y-107823000D01*
X105888663Y-108035680D01*
X105495680Y-108428663D01*
X105410000Y-108635513D01*
X105324320Y-108428663D01*
X104931337Y-108035680D01*
X104417881Y-107823000D01*
X103862119Y-107823000D01*
X103348663Y-108035680D01*
X103180343Y-108204000D01*
X102284636Y-108204000D01*
X102226152Y-108164922D01*
X101887500Y-108097560D01*
X101312500Y-108097560D01*
X100973848Y-108164922D01*
X100686753Y-108356753D01*
X100494922Y-108643848D01*
X100427560Y-108982500D01*
X92837000Y-108982500D01*
X92837000Y-108942119D01*
X92624320Y-108428663D01*
X92231337Y-108035680D01*
X91717881Y-107823000D01*
X91162119Y-107823000D01*
X90648663Y-108035680D01*
X90255680Y-108428663D01*
X90170000Y-108635513D01*
X90084320Y-108428663D01*
X89691337Y-108035680D01*
X89177881Y-107823000D01*
X88622119Y-107823000D01*
X88108663Y-108035680D01*
X87940343Y-108204000D01*
X87044636Y-108204000D01*
X86986152Y-108164922D01*
X86647500Y-108097560D01*
X86072500Y-108097560D01*
X85733848Y-108164922D01*
X85446753Y-108356753D01*
X85254922Y-108643848D01*
X85187560Y-108982500D01*
X77597000Y-108982500D01*
X77597000Y-108942119D01*
X77384320Y-108428663D01*
X76991337Y-108035680D01*
X76477881Y-107823000D01*
X75922119Y-107823000D01*
X75408663Y-108035680D01*
X75015680Y-108428663D01*
X74930000Y-108635513D01*
X74844320Y-108428663D01*
X74451337Y-108035680D01*
X73937881Y-107823000D01*
X73382119Y-107823000D01*
X72868663Y-108035680D01*
X72700343Y-108204000D01*
X71804636Y-108204000D01*
X71746152Y-108164922D01*
X71407500Y-108097560D01*
X70832500Y-108097560D01*
X70493848Y-108164922D01*
X70206753Y-108356753D01*
X70014922Y-108643848D01*
X69947560Y-108982500D01*
X46455000Y-108982500D01*
X46455000Y-101180653D01*
X48691800Y-101180653D01*
X48691800Y-102019347D01*
X49012754Y-102794199D01*
X49605801Y-103387246D01*
X50380653Y-103708200D01*
X51219347Y-103708200D01*
X51994199Y-103387246D01*
X52587246Y-102794199D01*
X52908200Y-102019347D01*
X52908200Y-101180653D01*
X52587246Y-100405801D01*
X52296012Y-100114567D01*
X70030000Y-100114567D01*
X70030000Y-101053433D01*
X70389289Y-101920833D01*
X71053167Y-102584711D01*
X71920567Y-102944000D01*
X72859433Y-102944000D01*
X73726833Y-102584711D01*
X74390711Y-101920833D01*
X74750000Y-101053433D01*
X74750000Y-100114567D01*
X77650000Y-100114567D01*
X77650000Y-101053433D01*
X78009289Y-101920833D01*
X78673167Y-102584711D01*
X79540567Y-102944000D01*
X80479433Y-102944000D01*
X81346833Y-102584711D01*
X82010711Y-101920833D01*
X82370000Y-101053433D01*
X82370000Y-100114567D01*
X85270000Y-100114567D01*
X85270000Y-101053433D01*
X85629289Y-101920833D01*
X86293167Y-102584711D01*
X87160567Y-102944000D01*
X88099433Y-102944000D01*
X88966833Y-102584711D01*
X89630711Y-101920833D01*
X89990000Y-101053433D01*
X89990000Y-100114567D01*
X92890000Y-100114567D01*
X92890000Y-101053433D01*
X93249289Y-101920833D01*
X93913167Y-102584711D01*
X94780567Y-102944000D01*
X95719433Y-102944000D01*
X96586833Y-102584711D01*
X97250711Y-101920833D01*
X97610000Y-101053433D01*
X97610000Y-100114567D01*
X100510000Y-100114567D01*
X100510000Y-101053433D01*
X100869289Y-101920833D01*
X101533167Y-102584711D01*
X102400567Y-102944000D01*
X103339433Y-102944000D01*
X104206833Y-102584711D01*
X104870711Y-101920833D01*
X105230000Y-101053433D01*
X105230000Y-100114567D01*
X108130000Y-100114567D01*
X108130000Y-101053433D01*
X108489289Y-101920833D01*
X109153167Y-102584711D01*
X110020567Y-102944000D01*
X110959433Y-102944000D01*
X111826833Y-102584711D01*
X112490711Y-101920833D01*
X112850000Y-101053433D01*
X112850000Y-100114567D01*
X115750000Y-100114567D01*
X115750000Y-101053433D01*
X116109289Y-101920833D01*
X116773167Y-102584711D01*
X117640567Y-102944000D01*
X118579433Y-102944000D01*
X119446833Y-102584711D01*
X120110711Y-101920833D01*
X120470000Y-101053433D01*
X120470000Y-100114567D01*
X123370000Y-100114567D01*
X123370000Y-101053433D01*
X123729289Y-101920833D01*
X124393167Y-102584711D01*
X125260567Y-102944000D01*
X126199433Y-102944000D01*
X127066833Y-102584711D01*
X127730711Y-101920833D01*
X128090000Y-101053433D01*
X128090000Y-100114567D01*
X127730711Y-99247167D01*
X127066833Y-98583289D01*
X126199433Y-98224000D01*
X125260567Y-98224000D01*
X124393167Y-98583289D01*
X123729289Y-99247167D01*
X123370000Y-100114567D01*
X120470000Y-100114567D01*
X120110711Y-99247167D01*
X119446833Y-98583289D01*
X118579433Y-98224000D01*
X117640567Y-98224000D01*
X116773167Y-98583289D01*
X116109289Y-99247167D01*
X115750000Y-100114567D01*
X112850000Y-100114567D01*
X112490711Y-99247167D01*
X111826833Y-98583289D01*
X110959433Y-98224000D01*
X110020567Y-98224000D01*
X109153167Y-98583289D01*
X108489289Y-99247167D01*
X108130000Y-100114567D01*
X105230000Y-100114567D01*
X104870711Y-99247167D01*
X104206833Y-98583289D01*
X103339433Y-98224000D01*
X102400567Y-98224000D01*
X101533167Y-98583289D01*
X100869289Y-99247167D01*
X100510000Y-100114567D01*
X97610000Y-100114567D01*
X97250711Y-99247167D01*
X96586833Y-98583289D01*
X95719433Y-98224000D01*
X94780567Y-98224000D01*
X93913167Y-98583289D01*
X93249289Y-99247167D01*
X92890000Y-100114567D01*
X89990000Y-100114567D01*
X89630711Y-99247167D01*
X88966833Y-98583289D01*
X88099433Y-98224000D01*
X87160567Y-98224000D01*
X86293167Y-98583289D01*
X85629289Y-99247167D01*
X85270000Y-100114567D01*
X82370000Y-100114567D01*
X82010711Y-99247167D01*
X81346833Y-98583289D01*
X80479433Y-98224000D01*
X79540567Y-98224000D01*
X78673167Y-98583289D01*
X78009289Y-99247167D01*
X77650000Y-100114567D01*
X74750000Y-100114567D01*
X74390711Y-99247167D01*
X73726833Y-98583289D01*
X72859433Y-98224000D01*
X71920567Y-98224000D01*
X71053167Y-98583289D01*
X70389289Y-99247167D01*
X70030000Y-100114567D01*
X52296012Y-100114567D01*
X51994199Y-99812754D01*
X51219347Y-99491800D01*
X50380653Y-99491800D01*
X49605801Y-99812754D01*
X49012754Y-100405801D01*
X48691800Y-101180653D01*
X46455000Y-101180653D01*
X46455000Y-99106240D01*
X46517365Y-98612569D01*
X46683385Y-98193250D01*
X46948471Y-97828390D01*
X47295963Y-97540921D01*
X47704031Y-97348898D01*
X48181417Y-97257832D01*
X48271536Y-97255000D01*
X149813760Y-97255000D01*
X150307431Y-97317365D01*
X150307431Y-97317365D01*
G37*
X150307431Y-97317365D02*
X150726750Y-97483385D01*
X151091610Y-97748471D01*
X151379079Y-98095963D01*
X151571102Y-98504031D01*
X151662168Y-98981417D01*
X151665001Y-99071568D01*
X151665000Y-129493759D01*
X151602635Y-129987430D01*
X151436613Y-130406753D01*
X151171529Y-130771609D01*
X150824037Y-131059079D01*
X150415968Y-131251102D01*
X149938583Y-131342168D01*
X149848465Y-131345000D01*
X138241445Y-131345000D01*
X139158620Y-130427826D01*
X139254057Y-130364057D01*
X139506682Y-129985976D01*
X139573000Y-129652572D01*
X139595392Y-129540001D01*
X139573000Y-129427430D01*
X139573000Y-126580653D01*
X145211800Y-126580653D01*
X145211800Y-127419347D01*
X145532754Y-128194199D01*
X146125801Y-128787246D01*
X146900653Y-129108200D01*
X147739347Y-129108200D01*
X148514199Y-128787246D01*
X149107246Y-128194199D01*
X149428200Y-127419347D01*
X149428200Y-126580653D01*
X149107246Y-125805801D01*
X148514199Y-125212754D01*
X147739347Y-124891800D01*
X146900653Y-124891800D01*
X146125801Y-125212754D01*
X145532754Y-125805801D01*
X145211800Y-126580653D01*
X139573000Y-126580653D01*
X139573000Y-115428572D01*
X139595392Y-115316000D01*
X139506682Y-114870023D01*
X139420535Y-114741096D01*
X139254057Y-114491943D01*
X139158621Y-114428175D01*
X137523486Y-112793040D01*
X137795000Y-112137547D01*
X137795000Y-110874453D01*
X137311635Y-109707507D01*
X136418493Y-108814365D01*
X135763000Y-108542851D01*
X135763000Y-105763000D01*
X136567429Y-105763000D01*
X136680000Y-105785392D01*
X136792571Y-105763000D01*
X136792572Y-105763000D01*
X137125976Y-105696682D01*
X137364958Y-105537000D01*
X137437881Y-105537000D01*
X137951337Y-105324320D01*
X138344320Y-104931337D01*
X138557000Y-104417881D01*
X138557000Y-103862119D01*
X138344320Y-103348663D01*
X137951337Y-102955680D01*
X137437881Y-102743000D01*
X136882119Y-102743000D01*
X136368663Y-102955680D01*
X135975680Y-103348663D01*
X135922521Y-103477000D01*
X135005505Y-103477000D01*
X134857500Y-103447560D01*
X134382500Y-103447560D01*
X134234495Y-103477000D01*
X132152991Y-103477000D01*
X131880625Y-103069375D01*
X131582239Y-102870000D01*
X131880625Y-102670625D01*
X132208839Y-102179418D01*
X132324092Y-101600000D01*
X132240679Y-101180653D01*
X145211800Y-101180653D01*
X145211800Y-102019347D01*
X145532754Y-102794199D01*
X146125801Y-103387246D01*
X146900653Y-103708200D01*
X147739347Y-103708200D01*
X148514199Y-103387246D01*
X149107246Y-102794199D01*
X149428200Y-102019347D01*
X149428200Y-101180653D01*
X149107246Y-100405801D01*
X148514199Y-99812754D01*
X147739347Y-99491800D01*
X146900653Y-99491800D01*
X146125801Y-99812754D01*
X145532754Y-100405801D01*
X145211800Y-101180653D01*
X132240679Y-101180653D01*
X132208839Y-101020582D01*
X131880625Y-100529375D01*
X131862381Y-100517184D01*
X131907765Y-100508157D01*
X132117809Y-100367809D01*
X132258157Y-100157765D01*
X132307440Y-99910000D01*
X132307440Y-99723000D01*
X134234495Y-99723000D01*
X134382500Y-99752440D01*
X134857500Y-99752440D01*
X135005505Y-99723000D01*
X135922521Y-99723000D01*
X135975680Y-99851337D01*
X136368663Y-100244320D01*
X136882119Y-100457000D01*
X137437881Y-100457000D01*
X137951337Y-100244320D01*
X138344320Y-99851337D01*
X138557000Y-99337881D01*
X138557000Y-98782119D01*
X138344320Y-98268663D01*
X137951337Y-97875680D01*
X137437881Y-97663000D01*
X137364958Y-97663000D01*
X137125976Y-97503318D01*
X136792572Y-97437000D01*
X136792571Y-97437000D01*
X136680000Y-97414608D01*
X136567429Y-97437000D01*
X135005505Y-97437000D01*
X134857500Y-97407560D01*
X134382500Y-97407560D01*
X134234495Y-97437000D01*
X131402572Y-97437000D01*
X131290000Y-97414608D01*
X130844023Y-97503318D01*
X130817010Y-97521368D01*
X130755362Y-97562560D01*
X129960000Y-97562560D01*
X129712235Y-97611843D01*
X129502191Y-97752191D01*
X129361843Y-97962235D01*
X129312560Y-98210000D01*
X129312560Y-99910000D01*
X129361843Y-100157765D01*
X129502191Y-100367809D01*
X129712235Y-100508157D01*
X129757619Y-100517184D01*
X129739375Y-100529375D01*
X129411161Y-101020582D01*
X129295908Y-101600000D01*
X129411161Y-102179418D01*
X129739375Y-102670625D01*
X130037761Y-102870000D01*
X129739375Y-103069375D01*
X129411161Y-103560582D01*
X129295908Y-104140000D01*
X129411161Y-104719418D01*
X129739375Y-105210625D01*
X130230582Y-105538839D01*
X130663744Y-105625000D01*
X130736744Y-105625000D01*
X130844023Y-105696682D01*
X131290000Y-105785392D01*
X131402572Y-105763000D01*
X133477001Y-105763000D01*
X133477000Y-108542851D01*
X132821507Y-108814365D01*
X131928365Y-109707507D01*
X131525338Y-110680500D01*
X130154432Y-110680500D01*
X130116152Y-110654922D01*
X129777500Y-110587560D01*
X129302500Y-110587560D01*
X128963848Y-110654922D01*
X128676753Y-110846753D01*
X128484922Y-111133848D01*
X128417560Y-111472500D01*
X128417560Y-112047500D01*
X128484922Y-112386152D01*
X128651197Y-112635000D01*
X128484922Y-112883848D01*
X128417560Y-113222500D01*
X128417560Y-113797500D01*
X128484922Y-114136152D01*
X128676753Y-114423247D01*
X128714501Y-114448469D01*
X128714500Y-114631531D01*
X128676753Y-114656753D01*
X128484922Y-114943848D01*
X128417560Y-115282500D01*
X128417560Y-115857500D01*
X128484922Y-116196152D01*
X128676753Y-116483247D01*
X128963848Y-116675078D01*
X129302500Y-116742440D01*
X129777500Y-116742440D01*
X130116152Y-116675078D01*
X130403247Y-116483247D01*
X130595078Y-116196152D01*
X130662440Y-115857500D01*
X130662440Y-115282500D01*
X130595078Y-114943848D01*
X130403247Y-114656753D01*
X130365500Y-114631531D01*
X130365500Y-114448469D01*
X130403247Y-114423247D01*
X130595078Y-114136152D01*
X130662440Y-113797500D01*
X130662440Y-113222500D01*
X130595078Y-112883848D01*
X130428803Y-112635000D01*
X130595078Y-112386152D01*
X130605949Y-112331500D01*
X131525338Y-112331500D01*
X131928365Y-113304493D01*
X132821507Y-114197635D01*
X133988453Y-114681000D01*
X135251547Y-114681000D01*
X135907040Y-114409486D01*
X137287000Y-115789446D01*
X137287000Y-117556872D01*
X136418493Y-116688365D01*
X135251547Y-116205000D01*
X133988453Y-116205000D01*
X132821507Y-116688365D01*
X131928365Y-117581507D01*
X131445000Y-118748453D01*
X131445000Y-120011547D01*
X131928365Y-121178493D01*
X132821507Y-122071635D01*
X133988453Y-122555000D01*
X135251547Y-122555000D01*
X136418493Y-122071635D01*
X137287000Y-121203128D01*
X137287001Y-129066553D01*
X136686555Y-129667000D01*
X67529446Y-129667000D01*
X66403486Y-128541040D01*
X66675000Y-127885547D01*
X66675000Y-126622453D01*
X66191635Y-125455507D01*
X65298493Y-124562365D01*
X64131547Y-124079000D01*
X62868453Y-124079000D01*
X61701507Y-124562365D01*
X60808365Y-125455507D01*
X60325000Y-126622453D01*
X60325000Y-127885547D01*
X60808365Y-129052493D01*
X61701507Y-129945635D01*
X62868453Y-130429000D01*
X64131547Y-130429000D01*
X64787040Y-130157486D01*
X65974554Y-131345000D01*
X48306241Y-131345000D01*
X47812570Y-131282635D01*
X47393247Y-131116613D01*
X47028391Y-130851529D01*
X46740921Y-130504037D01*
X46548898Y-130095968D01*
X46457832Y-129618583D01*
X46455000Y-129528465D01*
X46455000Y-126580653D01*
X48691800Y-126580653D01*
X48691800Y-127419347D01*
X49012754Y-128194199D01*
X49605801Y-128787246D01*
X50380653Y-129108200D01*
X51219347Y-129108200D01*
X51994199Y-128787246D01*
X52587246Y-128194199D01*
X52908200Y-127419347D01*
X52908200Y-126580653D01*
X52587246Y-125805801D01*
X51994199Y-125212754D01*
X51219347Y-124891800D01*
X50380653Y-124891800D01*
X49605801Y-125212754D01*
X49012754Y-125805801D01*
X48691800Y-126580653D01*
X46455000Y-126580653D01*
X46455000Y-124070967D01*
X69164200Y-124070967D01*
X69164200Y-124849033D01*
X69461953Y-125567871D01*
X70012129Y-126118047D01*
X70730967Y-126415800D01*
X71509033Y-126415800D01*
X72227871Y-126118047D01*
X72778047Y-125567871D01*
X73075800Y-124849033D01*
X73075800Y-124070967D01*
X79324200Y-124070967D01*
X79324200Y-124849033D01*
X79621953Y-125567871D01*
X80172129Y-126118047D01*
X80890967Y-126415800D01*
X81669033Y-126415800D01*
X82387871Y-126118047D01*
X82938047Y-125567871D01*
X83235800Y-124849033D01*
X83235800Y-124070967D01*
X84404200Y-124070967D01*
X84404200Y-124849033D01*
X84701953Y-125567871D01*
X85252129Y-126118047D01*
X85970967Y-126415800D01*
X86749033Y-126415800D01*
X87467871Y-126118047D01*
X88018047Y-125567871D01*
X88315800Y-124849033D01*
X88315800Y-124070967D01*
X94564200Y-124070967D01*
X94564200Y-124849033D01*
X94861953Y-125567871D01*
X95412129Y-126118047D01*
X96130967Y-126415800D01*
X96909033Y-126415800D01*
X97627871Y-126118047D01*
X98178047Y-125567871D01*
X98475800Y-124849033D01*
X98475800Y-124070967D01*
X99644200Y-124070967D01*
X99644200Y-124849033D01*
X99941953Y-125567871D01*
X100492129Y-126118047D01*
X101210967Y-126415800D01*
X101989033Y-126415800D01*
X102707871Y-126118047D01*
X103258047Y-125567871D01*
X103555800Y-124849033D01*
X103555800Y-124070967D01*
X109804200Y-124070967D01*
X109804200Y-124849033D01*
X110101953Y-125567871D01*
X110652129Y-126118047D01*
X111370967Y-126415800D01*
X112149033Y-126415800D01*
X112867871Y-126118047D01*
X113418047Y-125567871D01*
X113715800Y-124849033D01*
X113715800Y-124070967D01*
X114884200Y-124070967D01*
X114884200Y-124849033D01*
X115181953Y-125567871D01*
X115732129Y-126118047D01*
X116450967Y-126415800D01*
X117229033Y-126415800D01*
X117947871Y-126118047D01*
X118498047Y-125567871D01*
X118795800Y-124849033D01*
X118795800Y-124070967D01*
X125044200Y-124070967D01*
X125044200Y-124849033D01*
X125341953Y-125567871D01*
X125892129Y-126118047D01*
X126610967Y-126415800D01*
X127389033Y-126415800D01*
X128107871Y-126118047D01*
X128658047Y-125567871D01*
X128955800Y-124849033D01*
X128955800Y-124070967D01*
X128658047Y-123352129D01*
X128107871Y-122801953D01*
X127389033Y-122504200D01*
X126610967Y-122504200D01*
X125892129Y-122801953D01*
X125341953Y-123352129D01*
X125044200Y-124070967D01*
X118795800Y-124070967D01*
X118498047Y-123352129D01*
X117947871Y-122801953D01*
X117229033Y-122504200D01*
X116450967Y-122504200D01*
X115732129Y-122801953D01*
X115181953Y-123352129D01*
X114884200Y-124070967D01*
X113715800Y-124070967D01*
X113418047Y-123352129D01*
X112867871Y-122801953D01*
X112149033Y-122504200D01*
X111370967Y-122504200D01*
X110652129Y-122801953D01*
X110101953Y-123352129D01*
X109804200Y-124070967D01*
X103555800Y-124070967D01*
X103258047Y-123352129D01*
X102707871Y-122801953D01*
X101989033Y-122504200D01*
X101210967Y-122504200D01*
X100492129Y-122801953D01*
X99941953Y-123352129D01*
X99644200Y-124070967D01*
X98475800Y-124070967D01*
X98178047Y-123352129D01*
X97627871Y-122801953D01*
X96909033Y-122504200D01*
X96130967Y-122504200D01*
X95412129Y-122801953D01*
X94861953Y-123352129D01*
X94564200Y-124070967D01*
X88315800Y-124070967D01*
X88018047Y-123352129D01*
X87467871Y-122801953D01*
X86749033Y-122504200D01*
X85970967Y-122504200D01*
X85252129Y-122801953D01*
X84701953Y-123352129D01*
X84404200Y-124070967D01*
X83235800Y-124070967D01*
X82938047Y-123352129D01*
X82387871Y-122801953D01*
X81669033Y-122504200D01*
X80890967Y-122504200D01*
X80172129Y-122801953D01*
X79621953Y-123352129D01*
X79324200Y-124070967D01*
X73075800Y-124070967D01*
X72778047Y-123352129D01*
X72227871Y-122801953D01*
X71509033Y-122504200D01*
X70730967Y-122504200D01*
X70012129Y-122801953D01*
X69461953Y-123352129D01*
X69164200Y-124070967D01*
X46455000Y-124070967D01*
X46455000Y-118748453D01*
X60325000Y-118748453D01*
X60325000Y-120011547D01*
X60808365Y-121178493D01*
X61701507Y-122071635D01*
X62868453Y-122555000D01*
X64131547Y-122555000D01*
X65298493Y-122071635D01*
X66191635Y-121178493D01*
X66675000Y-120011547D01*
X66675000Y-118748453D01*
X66191635Y-117581507D01*
X65298493Y-116688365D01*
X64131547Y-116205000D01*
X62868453Y-116205000D01*
X61701507Y-116688365D01*
X60808365Y-117581507D01*
X60325000Y-118748453D01*
X46455000Y-118748453D01*
X46455000Y-108982500D01*
X69947560Y-108982500D01*
X69947560Y-109457500D01*
X70014922Y-109796152D01*
X70206753Y-110083247D01*
X70493848Y-110275078D01*
X70832500Y-110342440D01*
X71407500Y-110342440D01*
X71746152Y-110275078D01*
X71804636Y-110236000D01*
X72700343Y-110236000D01*
X72868663Y-110404320D01*
X73382119Y-110617000D01*
X73937881Y-110617000D01*
X74451337Y-110404320D01*
X74844320Y-110011337D01*
X74930000Y-109804487D01*
X75015680Y-110011337D01*
X75184000Y-110179657D01*
X75184001Y-118420342D01*
X75015680Y-118588663D01*
X74803000Y-119102119D01*
X74803000Y-119657881D01*
X75015680Y-120171337D01*
X75408663Y-120564320D01*
X75922119Y-120777000D01*
X76477881Y-120777000D01*
X76991337Y-120564320D01*
X77384320Y-120171337D01*
X77597000Y-119657881D01*
X77597000Y-119102119D01*
X77384320Y-118588663D01*
X77216000Y-118420343D01*
X77216000Y-110179657D01*
X77384320Y-110011337D01*
X77597000Y-109497881D01*
X77597000Y-108982500D01*
X85187560Y-108982500D01*
X85187560Y-109457500D01*
X85254922Y-109796152D01*
X85446753Y-110083247D01*
X85733848Y-110275078D01*
X86072500Y-110342440D01*
X86647500Y-110342440D01*
X86986152Y-110275078D01*
X87044636Y-110236000D01*
X87940343Y-110236000D01*
X88108663Y-110404320D01*
X88622119Y-110617000D01*
X89177881Y-110617000D01*
X89691337Y-110404320D01*
X90084320Y-110011337D01*
X90170000Y-109804487D01*
X90255680Y-110011337D01*
X90424000Y-110179657D01*
X90424001Y-118420342D01*
X90255680Y-118588663D01*
X90043000Y-119102119D01*
X90043000Y-119657881D01*
X90255680Y-120171337D01*
X90648663Y-120564320D01*
X91162119Y-120777000D01*
X91717881Y-120777000D01*
X92231337Y-120564320D01*
X92624320Y-120171337D01*
X92837000Y-119657881D01*
X92837000Y-119102119D01*
X92624320Y-118588663D01*
X92456000Y-118420343D01*
X92456000Y-110179657D01*
X92624320Y-110011337D01*
X92837000Y-109497881D01*
X92837000Y-108982500D01*
X100427560Y-108982500D01*
X100427560Y-109457500D01*
X100494922Y-109796152D01*
X100686753Y-110083247D01*
X100973848Y-110275078D01*
X101312500Y-110342440D01*
X101887500Y-110342440D01*
X102226152Y-110275078D01*
X102284636Y-110236000D01*
X103180343Y-110236000D01*
X103348663Y-110404320D01*
X103862119Y-110617000D01*
X104417881Y-110617000D01*
X104931337Y-110404320D01*
X105324320Y-110011337D01*
X105410000Y-109804487D01*
X105495680Y-110011337D01*
X105664000Y-110179657D01*
X105664001Y-118420342D01*
X105495680Y-118588663D01*
X105283000Y-119102119D01*
X105283000Y-119657881D01*
X105495680Y-120171337D01*
X105888663Y-120564320D01*
X106402119Y-120777000D01*
X106957881Y-120777000D01*
X107471337Y-120564320D01*
X107864320Y-120171337D01*
X108077000Y-119657881D01*
X108077000Y-119102119D01*
X107864320Y-118588663D01*
X107696000Y-118420343D01*
X107696000Y-110179657D01*
X107864320Y-110011337D01*
X108077000Y-109497881D01*
X108077000Y-108982500D01*
X115667560Y-108982500D01*
X115667560Y-109457500D01*
X115734922Y-109796152D01*
X115926753Y-110083247D01*
X116213848Y-110275078D01*
X116552500Y-110342440D01*
X117127500Y-110342440D01*
X117466152Y-110275078D01*
X117524636Y-110236000D01*
X118420343Y-110236000D01*
X118588663Y-110404320D01*
X119102119Y-110617000D01*
X119657881Y-110617000D01*
X120171337Y-110404320D01*
X120564320Y-110011337D01*
X120650000Y-109804487D01*
X120735680Y-110011337D01*
X120904000Y-110179657D01*
X120904001Y-118420342D01*
X120735680Y-118588663D01*
X120523000Y-119102119D01*
X120523000Y-119657881D01*
X120735680Y-120171337D01*
X121128663Y-120564320D01*
X121642119Y-120777000D01*
X122197881Y-120777000D01*
X122711337Y-120564320D01*
X123104320Y-120171337D01*
X123317000Y-119657881D01*
X123317000Y-119102119D01*
X123104320Y-118588663D01*
X122936000Y-118420343D01*
X122936000Y-110179657D01*
X123104320Y-110011337D01*
X123317000Y-109497881D01*
X123317000Y-108942119D01*
X123104320Y-108428663D01*
X122711337Y-108035680D01*
X122197881Y-107823000D01*
X121642119Y-107823000D01*
X121128663Y-108035680D01*
X120735680Y-108428663D01*
X120650000Y-108635513D01*
X120564320Y-108428663D01*
X120171337Y-108035680D01*
X119657881Y-107823000D01*
X119102119Y-107823000D01*
X118588663Y-108035680D01*
X118420343Y-108204000D01*
X117524636Y-108204000D01*
X117466152Y-108164922D01*
X117127500Y-108097560D01*
X116552500Y-108097560D01*
X116213848Y-108164922D01*
X115926753Y-108356753D01*
X115734922Y-108643848D01*
X115667560Y-108982500D01*
X108077000Y-108982500D01*
X108077000Y-108942119D01*
X107864320Y-108428663D01*
X107471337Y-108035680D01*
X106957881Y-107823000D01*
X106402119Y-107823000D01*
X105888663Y-108035680D01*
X105495680Y-108428663D01*
X105410000Y-108635513D01*
X105324320Y-108428663D01*
X104931337Y-108035680D01*
X104417881Y-107823000D01*
X103862119Y-107823000D01*
X103348663Y-108035680D01*
X103180343Y-108204000D01*
X102284636Y-108204000D01*
X102226152Y-108164922D01*
X101887500Y-108097560D01*
X101312500Y-108097560D01*
X100973848Y-108164922D01*
X100686753Y-108356753D01*
X100494922Y-108643848D01*
X100427560Y-108982500D01*
X92837000Y-108982500D01*
X92837000Y-108942119D01*
X92624320Y-108428663D01*
X92231337Y-108035680D01*
X91717881Y-107823000D01*
X91162119Y-107823000D01*
X90648663Y-108035680D01*
X90255680Y-108428663D01*
X90170000Y-108635513D01*
X90084320Y-108428663D01*
X89691337Y-108035680D01*
X89177881Y-107823000D01*
X88622119Y-107823000D01*
X88108663Y-108035680D01*
X87940343Y-108204000D01*
X87044636Y-108204000D01*
X86986152Y-108164922D01*
X86647500Y-108097560D01*
X86072500Y-108097560D01*
X85733848Y-108164922D01*
X85446753Y-108356753D01*
X85254922Y-108643848D01*
X85187560Y-108982500D01*
X77597000Y-108982500D01*
X77597000Y-108942119D01*
X77384320Y-108428663D01*
X76991337Y-108035680D01*
X76477881Y-107823000D01*
X75922119Y-107823000D01*
X75408663Y-108035680D01*
X75015680Y-108428663D01*
X74930000Y-108635513D01*
X74844320Y-108428663D01*
X74451337Y-108035680D01*
X73937881Y-107823000D01*
X73382119Y-107823000D01*
X72868663Y-108035680D01*
X72700343Y-108204000D01*
X71804636Y-108204000D01*
X71746152Y-108164922D01*
X71407500Y-108097560D01*
X70832500Y-108097560D01*
X70493848Y-108164922D01*
X70206753Y-108356753D01*
X70014922Y-108643848D01*
X69947560Y-108982500D01*
X46455000Y-108982500D01*
X46455000Y-101180653D01*
X48691800Y-101180653D01*
X48691800Y-102019347D01*
X49012754Y-102794199D01*
X49605801Y-103387246D01*
X50380653Y-103708200D01*
X51219347Y-103708200D01*
X51994199Y-103387246D01*
X52587246Y-102794199D01*
X52908200Y-102019347D01*
X52908200Y-101180653D01*
X52587246Y-100405801D01*
X52296012Y-100114567D01*
X70030000Y-100114567D01*
X70030000Y-101053433D01*
X70389289Y-101920833D01*
X71053167Y-102584711D01*
X71920567Y-102944000D01*
X72859433Y-102944000D01*
X73726833Y-102584711D01*
X74390711Y-101920833D01*
X74750000Y-101053433D01*
X74750000Y-100114567D01*
X77650000Y-100114567D01*
X77650000Y-101053433D01*
X78009289Y-101920833D01*
X78673167Y-102584711D01*
X79540567Y-102944000D01*
X80479433Y-102944000D01*
X81346833Y-102584711D01*
X82010711Y-101920833D01*
X82370000Y-101053433D01*
X82370000Y-100114567D01*
X85270000Y-100114567D01*
X85270000Y-101053433D01*
X85629289Y-101920833D01*
X86293167Y-102584711D01*
X87160567Y-102944000D01*
X88099433Y-102944000D01*
X88966833Y-102584711D01*
X89630711Y-101920833D01*
X89990000Y-101053433D01*
X89990000Y-100114567D01*
X92890000Y-100114567D01*
X92890000Y-101053433D01*
X93249289Y-101920833D01*
X93913167Y-102584711D01*
X94780567Y-102944000D01*
X95719433Y-102944000D01*
X96586833Y-102584711D01*
X97250711Y-101920833D01*
X97610000Y-101053433D01*
X97610000Y-100114567D01*
X100510000Y-100114567D01*
X100510000Y-101053433D01*
X100869289Y-101920833D01*
X101533167Y-102584711D01*
X102400567Y-102944000D01*
X103339433Y-102944000D01*
X104206833Y-102584711D01*
X104870711Y-101920833D01*
X105230000Y-101053433D01*
X105230000Y-100114567D01*
X108130000Y-100114567D01*
X108130000Y-101053433D01*
X108489289Y-101920833D01*
X109153167Y-102584711D01*
X110020567Y-102944000D01*
X110959433Y-102944000D01*
X111826833Y-102584711D01*
X112490711Y-101920833D01*
X112850000Y-101053433D01*
X112850000Y-100114567D01*
X115750000Y-100114567D01*
X115750000Y-101053433D01*
X116109289Y-101920833D01*
X116773167Y-102584711D01*
X117640567Y-102944000D01*
X118579433Y-102944000D01*
X119446833Y-102584711D01*
X120110711Y-101920833D01*
X120470000Y-101053433D01*
X120470000Y-100114567D01*
X123370000Y-100114567D01*
X123370000Y-101053433D01*
X123729289Y-101920833D01*
X124393167Y-102584711D01*
X125260567Y-102944000D01*
X126199433Y-102944000D01*
X127066833Y-102584711D01*
X127730711Y-101920833D01*
X128090000Y-101053433D01*
X128090000Y-100114567D01*
X127730711Y-99247167D01*
X127066833Y-98583289D01*
X126199433Y-98224000D01*
X125260567Y-98224000D01*
X124393167Y-98583289D01*
X123729289Y-99247167D01*
X123370000Y-100114567D01*
X120470000Y-100114567D01*
X120110711Y-99247167D01*
X119446833Y-98583289D01*
X118579433Y-98224000D01*
X117640567Y-98224000D01*
X116773167Y-98583289D01*
X116109289Y-99247167D01*
X115750000Y-100114567D01*
X112850000Y-100114567D01*
X112490711Y-99247167D01*
X111826833Y-98583289D01*
X110959433Y-98224000D01*
X110020567Y-98224000D01*
X109153167Y-98583289D01*
X108489289Y-99247167D01*
X108130000Y-100114567D01*
X105230000Y-100114567D01*
X104870711Y-99247167D01*
X104206833Y-98583289D01*
X103339433Y-98224000D01*
X102400567Y-98224000D01*
X101533167Y-98583289D01*
X100869289Y-99247167D01*
X100510000Y-100114567D01*
X97610000Y-100114567D01*
X97250711Y-99247167D01*
X96586833Y-98583289D01*
X95719433Y-98224000D01*
X94780567Y-98224000D01*
X93913167Y-98583289D01*
X93249289Y-99247167D01*
X92890000Y-100114567D01*
X89990000Y-100114567D01*
X89630711Y-99247167D01*
X88966833Y-98583289D01*
X88099433Y-98224000D01*
X87160567Y-98224000D01*
X86293167Y-98583289D01*
X85629289Y-99247167D01*
X85270000Y-100114567D01*
X82370000Y-100114567D01*
X82010711Y-99247167D01*
X81346833Y-98583289D01*
X80479433Y-98224000D01*
X79540567Y-98224000D01*
X78673167Y-98583289D01*
X78009289Y-99247167D01*
X77650000Y-100114567D01*
X74750000Y-100114567D01*
X74390711Y-99247167D01*
X73726833Y-98583289D01*
X72859433Y-98224000D01*
X71920567Y-98224000D01*
X71053167Y-98583289D01*
X70389289Y-99247167D01*
X70030000Y-100114567D01*
X52296012Y-100114567D01*
X51994199Y-99812754D01*
X51219347Y-99491800D01*
X50380653Y-99491800D01*
X49605801Y-99812754D01*
X49012754Y-100405801D01*
X48691800Y-101180653D01*
X46455000Y-101180653D01*
X46455000Y-99106240D01*
X46517365Y-98612569D01*
X46683385Y-98193250D01*
X46948471Y-97828390D01*
X47295963Y-97540921D01*
X47704031Y-97348898D01*
X48181417Y-97257832D01*
X48271536Y-97255000D01*
X149813760Y-97255000D01*
X150307431Y-97317365D01*
G04 #@! TD*
M02*
