G04 #@! TF.GenerationSoftware,KiCad,Pcbnew,(5.0.2)-1*
G04 #@! TF.CreationDate,2019-04-02T18:39:04-05:00*
G04 #@! TF.ProjectId,CameraPowerInjector_Hardware,43616d65-7261-4506-9f77-6572496e6a65,rev?*
G04 #@! TF.SameCoordinates,Original*
G04 #@! TF.FileFunction,Legend,Bot*
G04 #@! TF.FilePolarity,Positive*
%FSLAX46Y46*%
G04 Gerber Fmt 4.6, Leading zero omitted, Abs format (unit mm)*
G04 Created by KiCad (PCBNEW (5.0.2)-1) date 4/2/2019 6:39:04 PM*
%MOMM*%
%LPD*%
G01*
G04 APERTURE LIST*
%ADD10C,0.300000*%
%ADD11C,0.150000*%
G04 APERTURE END LIST*
D10*
X76628571Y-107287142D02*
X76414285Y-107358571D01*
X76057142Y-107358571D01*
X75914285Y-107287142D01*
X75842857Y-107215714D01*
X75771428Y-107072857D01*
X75771428Y-106930000D01*
X75842857Y-106787142D01*
X75914285Y-106715714D01*
X76057142Y-106644285D01*
X76342857Y-106572857D01*
X76485714Y-106501428D01*
X76557142Y-106430000D01*
X76628571Y-106287142D01*
X76628571Y-106144285D01*
X76557142Y-106001428D01*
X76485714Y-105930000D01*
X76342857Y-105858571D01*
X75985714Y-105858571D01*
X75771428Y-105930000D01*
X74231428Y-106787142D02*
X73088571Y-106787142D01*
X73660000Y-107358571D02*
X73660000Y-106215714D01*
X79311428Y-106787142D02*
X78168571Y-106787142D01*
X89471428Y-106787142D02*
X88328571Y-106787142D01*
X88900000Y-107358571D02*
X88900000Y-106215714D01*
X94551428Y-106787142D02*
X93408571Y-106787142D01*
X91868571Y-107287142D02*
X91654285Y-107358571D01*
X91297142Y-107358571D01*
X91154285Y-107287142D01*
X91082857Y-107215714D01*
X91011428Y-107072857D01*
X91011428Y-106930000D01*
X91082857Y-106787142D01*
X91154285Y-106715714D01*
X91297142Y-106644285D01*
X91582857Y-106572857D01*
X91725714Y-106501428D01*
X91797142Y-106430000D01*
X91868571Y-106287142D01*
X91868571Y-106144285D01*
X91797142Y-106001428D01*
X91725714Y-105930000D01*
X91582857Y-105858571D01*
X91225714Y-105858571D01*
X91011428Y-105930000D01*
X104711428Y-106787142D02*
X103568571Y-106787142D01*
X104140000Y-107358571D02*
X104140000Y-106215714D01*
X109791428Y-106787142D02*
X108648571Y-106787142D01*
X107108571Y-107287142D02*
X106894285Y-107358571D01*
X106537142Y-107358571D01*
X106394285Y-107287142D01*
X106322857Y-107215714D01*
X106251428Y-107072857D01*
X106251428Y-106930000D01*
X106322857Y-106787142D01*
X106394285Y-106715714D01*
X106537142Y-106644285D01*
X106822857Y-106572857D01*
X106965714Y-106501428D01*
X107037142Y-106430000D01*
X107108571Y-106287142D01*
X107108571Y-106144285D01*
X107037142Y-106001428D01*
X106965714Y-105930000D01*
X106822857Y-105858571D01*
X106465714Y-105858571D01*
X106251428Y-105930000D01*
X125031428Y-106787142D02*
X123888571Y-106787142D01*
X122348571Y-107287142D02*
X122134285Y-107358571D01*
X121777142Y-107358571D01*
X121634285Y-107287142D01*
X121562857Y-107215714D01*
X121491428Y-107072857D01*
X121491428Y-106930000D01*
X121562857Y-106787142D01*
X121634285Y-106715714D01*
X121777142Y-106644285D01*
X122062857Y-106572857D01*
X122205714Y-106501428D01*
X122277142Y-106430000D01*
X122348571Y-106287142D01*
X122348571Y-106144285D01*
X122277142Y-106001428D01*
X122205714Y-105930000D01*
X122062857Y-105858571D01*
X121705714Y-105858571D01*
X121491428Y-105930000D01*
X119951428Y-106787142D02*
X118808571Y-106787142D01*
X119380000Y-107358571D02*
X119380000Y-106215714D01*
X137262857Y-106787142D02*
X136120000Y-106787142D01*
X136691428Y-107358571D02*
X136691428Y-106215714D01*
X134620000Y-107358571D02*
X135477142Y-107358571D01*
X135048571Y-107358571D02*
X135048571Y-105858571D01*
X135191428Y-106072857D01*
X135334285Y-106215714D01*
X135477142Y-106287142D01*
X134048571Y-106001428D02*
X133977142Y-105930000D01*
X133834285Y-105858571D01*
X133477142Y-105858571D01*
X133334285Y-105930000D01*
X133262857Y-106001428D01*
X133191428Y-106144285D01*
X133191428Y-106287142D01*
X133262857Y-106501428D01*
X134120000Y-107358571D01*
X133191428Y-107358571D01*
X132762857Y-105858571D02*
X132262857Y-107358571D01*
X131762857Y-105858571D01*
X135870000Y-96968571D02*
X135584285Y-96968571D01*
X135441428Y-97040000D01*
X135298571Y-97182857D01*
X135227142Y-97468571D01*
X135227142Y-97968571D01*
X135298571Y-98254285D01*
X135441428Y-98397142D01*
X135584285Y-98468571D01*
X135870000Y-98468571D01*
X136012857Y-98397142D01*
X136155714Y-98254285D01*
X136227142Y-97968571D01*
X136227142Y-97468571D01*
X136155714Y-97182857D01*
X136012857Y-97040000D01*
X135870000Y-96968571D01*
X134584285Y-98468571D02*
X134584285Y-96968571D01*
X133727142Y-98468571D02*
X134370000Y-97611428D01*
X133727142Y-96968571D02*
X134584285Y-97825714D01*
X133084285Y-98468571D02*
X133084285Y-96968571D01*
D11*
G04 #@! TO.C,REF\002A\002A*
X151338283Y-101600000D02*
G75*
G03X151338283Y-101600000I-4018283J0D01*
G01*
X151338283Y-127000000D02*
G75*
G03X151338283Y-127000000I-4018283J0D01*
G01*
X54818283Y-127000000D02*
G75*
G03X54818283Y-127000000I-4018283J0D01*
G01*
X54818283Y-101600000D02*
G75*
G03X54818283Y-101600000I-4018283J0D01*
G01*
G04 #@! TD*
M02*
