G04 #@! TF.GenerationSoftware,KiCad,Pcbnew,(5.0.2)-1*
G04 #@! TF.CreationDate,2019-04-02T18:39:04-05:00*
G04 #@! TF.ProjectId,CameraPowerInjector_Hardware,43616d65-7261-4506-9f77-6572496e6a65,rev?*
G04 #@! TF.SameCoordinates,Original*
G04 #@! TF.FileFunction,Paste,Top*
G04 #@! TF.FilePolarity,Positive*
%FSLAX46Y46*%
G04 Gerber Fmt 4.6, Leading zero omitted, Abs format (unit mm)*
G04 Created by KiCad (PCBNEW (5.0.2)-1) date 4/2/2019 6:39:04 PM*
%MOMM*%
%LPD*%
G01*
G04 APERTURE LIST*
%ADD10C,0.100000*%
%ADD11C,0.950000*%
%ADD12C,5.080000*%
G04 APERTURE END LIST*
D10*
G04 #@! TO.C,C1*
G36*
X134880779Y-102346144D02*
X134903834Y-102349563D01*
X134926443Y-102355227D01*
X134948387Y-102363079D01*
X134969457Y-102373044D01*
X134989448Y-102385026D01*
X135008168Y-102398910D01*
X135025438Y-102414562D01*
X135041090Y-102431832D01*
X135054974Y-102450552D01*
X135066956Y-102470543D01*
X135076921Y-102491613D01*
X135084773Y-102513557D01*
X135090437Y-102536166D01*
X135093856Y-102559221D01*
X135095000Y-102582500D01*
X135095000Y-103157500D01*
X135093856Y-103180779D01*
X135090437Y-103203834D01*
X135084773Y-103226443D01*
X135076921Y-103248387D01*
X135066956Y-103269457D01*
X135054974Y-103289448D01*
X135041090Y-103308168D01*
X135025438Y-103325438D01*
X135008168Y-103341090D01*
X134989448Y-103354974D01*
X134969457Y-103366956D01*
X134948387Y-103376921D01*
X134926443Y-103384773D01*
X134903834Y-103390437D01*
X134880779Y-103393856D01*
X134857500Y-103395000D01*
X134382500Y-103395000D01*
X134359221Y-103393856D01*
X134336166Y-103390437D01*
X134313557Y-103384773D01*
X134291613Y-103376921D01*
X134270543Y-103366956D01*
X134250552Y-103354974D01*
X134231832Y-103341090D01*
X134214562Y-103325438D01*
X134198910Y-103308168D01*
X134185026Y-103289448D01*
X134173044Y-103269457D01*
X134163079Y-103248387D01*
X134155227Y-103226443D01*
X134149563Y-103203834D01*
X134146144Y-103180779D01*
X134145000Y-103157500D01*
X134145000Y-102582500D01*
X134146144Y-102559221D01*
X134149563Y-102536166D01*
X134155227Y-102513557D01*
X134163079Y-102491613D01*
X134173044Y-102470543D01*
X134185026Y-102450552D01*
X134198910Y-102431832D01*
X134214562Y-102414562D01*
X134231832Y-102398910D01*
X134250552Y-102385026D01*
X134270543Y-102373044D01*
X134291613Y-102363079D01*
X134313557Y-102355227D01*
X134336166Y-102349563D01*
X134359221Y-102346144D01*
X134382500Y-102345000D01*
X134857500Y-102345000D01*
X134880779Y-102346144D01*
X134880779Y-102346144D01*
G37*
D11*
X134620000Y-102870000D03*
D10*
G36*
X134880779Y-104096144D02*
X134903834Y-104099563D01*
X134926443Y-104105227D01*
X134948387Y-104113079D01*
X134969457Y-104123044D01*
X134989448Y-104135026D01*
X135008168Y-104148910D01*
X135025438Y-104164562D01*
X135041090Y-104181832D01*
X135054974Y-104200552D01*
X135066956Y-104220543D01*
X135076921Y-104241613D01*
X135084773Y-104263557D01*
X135090437Y-104286166D01*
X135093856Y-104309221D01*
X135095000Y-104332500D01*
X135095000Y-104907500D01*
X135093856Y-104930779D01*
X135090437Y-104953834D01*
X135084773Y-104976443D01*
X135076921Y-104998387D01*
X135066956Y-105019457D01*
X135054974Y-105039448D01*
X135041090Y-105058168D01*
X135025438Y-105075438D01*
X135008168Y-105091090D01*
X134989448Y-105104974D01*
X134969457Y-105116956D01*
X134948387Y-105126921D01*
X134926443Y-105134773D01*
X134903834Y-105140437D01*
X134880779Y-105143856D01*
X134857500Y-105145000D01*
X134382500Y-105145000D01*
X134359221Y-105143856D01*
X134336166Y-105140437D01*
X134313557Y-105134773D01*
X134291613Y-105126921D01*
X134270543Y-105116956D01*
X134250552Y-105104974D01*
X134231832Y-105091090D01*
X134214562Y-105075438D01*
X134198910Y-105058168D01*
X134185026Y-105039448D01*
X134173044Y-105019457D01*
X134163079Y-104998387D01*
X134155227Y-104976443D01*
X134149563Y-104953834D01*
X134146144Y-104930779D01*
X134145000Y-104907500D01*
X134145000Y-104332500D01*
X134146144Y-104309221D01*
X134149563Y-104286166D01*
X134155227Y-104263557D01*
X134163079Y-104241613D01*
X134173044Y-104220543D01*
X134185026Y-104200552D01*
X134198910Y-104181832D01*
X134214562Y-104164562D01*
X134231832Y-104148910D01*
X134250552Y-104135026D01*
X134270543Y-104123044D01*
X134291613Y-104113079D01*
X134313557Y-104105227D01*
X134336166Y-104099563D01*
X134359221Y-104096144D01*
X134382500Y-104095000D01*
X134857500Y-104095000D01*
X134880779Y-104096144D01*
X134880779Y-104096144D01*
G37*
D11*
X134620000Y-104620000D03*
G04 #@! TD*
D10*
G04 #@! TO.C,C2*
G36*
X134880779Y-98056144D02*
X134903834Y-98059563D01*
X134926443Y-98065227D01*
X134948387Y-98073079D01*
X134969457Y-98083044D01*
X134989448Y-98095026D01*
X135008168Y-98108910D01*
X135025438Y-98124562D01*
X135041090Y-98141832D01*
X135054974Y-98160552D01*
X135066956Y-98180543D01*
X135076921Y-98201613D01*
X135084773Y-98223557D01*
X135090437Y-98246166D01*
X135093856Y-98269221D01*
X135095000Y-98292500D01*
X135095000Y-98867500D01*
X135093856Y-98890779D01*
X135090437Y-98913834D01*
X135084773Y-98936443D01*
X135076921Y-98958387D01*
X135066956Y-98979457D01*
X135054974Y-98999448D01*
X135041090Y-99018168D01*
X135025438Y-99035438D01*
X135008168Y-99051090D01*
X134989448Y-99064974D01*
X134969457Y-99076956D01*
X134948387Y-99086921D01*
X134926443Y-99094773D01*
X134903834Y-99100437D01*
X134880779Y-99103856D01*
X134857500Y-99105000D01*
X134382500Y-99105000D01*
X134359221Y-99103856D01*
X134336166Y-99100437D01*
X134313557Y-99094773D01*
X134291613Y-99086921D01*
X134270543Y-99076956D01*
X134250552Y-99064974D01*
X134231832Y-99051090D01*
X134214562Y-99035438D01*
X134198910Y-99018168D01*
X134185026Y-98999448D01*
X134173044Y-98979457D01*
X134163079Y-98958387D01*
X134155227Y-98936443D01*
X134149563Y-98913834D01*
X134146144Y-98890779D01*
X134145000Y-98867500D01*
X134145000Y-98292500D01*
X134146144Y-98269221D01*
X134149563Y-98246166D01*
X134155227Y-98223557D01*
X134163079Y-98201613D01*
X134173044Y-98180543D01*
X134185026Y-98160552D01*
X134198910Y-98141832D01*
X134214562Y-98124562D01*
X134231832Y-98108910D01*
X134250552Y-98095026D01*
X134270543Y-98083044D01*
X134291613Y-98073079D01*
X134313557Y-98065227D01*
X134336166Y-98059563D01*
X134359221Y-98056144D01*
X134382500Y-98055000D01*
X134857500Y-98055000D01*
X134880779Y-98056144D01*
X134880779Y-98056144D01*
G37*
D11*
X134620000Y-98580000D03*
D10*
G36*
X134880779Y-99806144D02*
X134903834Y-99809563D01*
X134926443Y-99815227D01*
X134948387Y-99823079D01*
X134969457Y-99833044D01*
X134989448Y-99845026D01*
X135008168Y-99858910D01*
X135025438Y-99874562D01*
X135041090Y-99891832D01*
X135054974Y-99910552D01*
X135066956Y-99930543D01*
X135076921Y-99951613D01*
X135084773Y-99973557D01*
X135090437Y-99996166D01*
X135093856Y-100019221D01*
X135095000Y-100042500D01*
X135095000Y-100617500D01*
X135093856Y-100640779D01*
X135090437Y-100663834D01*
X135084773Y-100686443D01*
X135076921Y-100708387D01*
X135066956Y-100729457D01*
X135054974Y-100749448D01*
X135041090Y-100768168D01*
X135025438Y-100785438D01*
X135008168Y-100801090D01*
X134989448Y-100814974D01*
X134969457Y-100826956D01*
X134948387Y-100836921D01*
X134926443Y-100844773D01*
X134903834Y-100850437D01*
X134880779Y-100853856D01*
X134857500Y-100855000D01*
X134382500Y-100855000D01*
X134359221Y-100853856D01*
X134336166Y-100850437D01*
X134313557Y-100844773D01*
X134291613Y-100836921D01*
X134270543Y-100826956D01*
X134250552Y-100814974D01*
X134231832Y-100801090D01*
X134214562Y-100785438D01*
X134198910Y-100768168D01*
X134185026Y-100749448D01*
X134173044Y-100729457D01*
X134163079Y-100708387D01*
X134155227Y-100686443D01*
X134149563Y-100663834D01*
X134146144Y-100640779D01*
X134145000Y-100617500D01*
X134145000Y-100042500D01*
X134146144Y-100019221D01*
X134149563Y-99996166D01*
X134155227Y-99973557D01*
X134163079Y-99951613D01*
X134173044Y-99930543D01*
X134185026Y-99910552D01*
X134198910Y-99891832D01*
X134214562Y-99874562D01*
X134231832Y-99858910D01*
X134250552Y-99845026D01*
X134270543Y-99833044D01*
X134291613Y-99823079D01*
X134313557Y-99815227D01*
X134336166Y-99809563D01*
X134359221Y-99806144D01*
X134382500Y-99805000D01*
X134857500Y-99805000D01*
X134880779Y-99806144D01*
X134880779Y-99806144D01*
G37*
D11*
X134620000Y-100330000D03*
G04 #@! TD*
D10*
G04 #@! TO.C,C3*
G36*
X86670779Y-108746144D02*
X86693834Y-108749563D01*
X86716443Y-108755227D01*
X86738387Y-108763079D01*
X86759457Y-108773044D01*
X86779448Y-108785026D01*
X86798168Y-108798910D01*
X86815438Y-108814562D01*
X86831090Y-108831832D01*
X86844974Y-108850552D01*
X86856956Y-108870543D01*
X86866921Y-108891613D01*
X86874773Y-108913557D01*
X86880437Y-108936166D01*
X86883856Y-108959221D01*
X86885000Y-108982500D01*
X86885000Y-109457500D01*
X86883856Y-109480779D01*
X86880437Y-109503834D01*
X86874773Y-109526443D01*
X86866921Y-109548387D01*
X86856956Y-109569457D01*
X86844974Y-109589448D01*
X86831090Y-109608168D01*
X86815438Y-109625438D01*
X86798168Y-109641090D01*
X86779448Y-109654974D01*
X86759457Y-109666956D01*
X86738387Y-109676921D01*
X86716443Y-109684773D01*
X86693834Y-109690437D01*
X86670779Y-109693856D01*
X86647500Y-109695000D01*
X86072500Y-109695000D01*
X86049221Y-109693856D01*
X86026166Y-109690437D01*
X86003557Y-109684773D01*
X85981613Y-109676921D01*
X85960543Y-109666956D01*
X85940552Y-109654974D01*
X85921832Y-109641090D01*
X85904562Y-109625438D01*
X85888910Y-109608168D01*
X85875026Y-109589448D01*
X85863044Y-109569457D01*
X85853079Y-109548387D01*
X85845227Y-109526443D01*
X85839563Y-109503834D01*
X85836144Y-109480779D01*
X85835000Y-109457500D01*
X85835000Y-108982500D01*
X85836144Y-108959221D01*
X85839563Y-108936166D01*
X85845227Y-108913557D01*
X85853079Y-108891613D01*
X85863044Y-108870543D01*
X85875026Y-108850552D01*
X85888910Y-108831832D01*
X85904562Y-108814562D01*
X85921832Y-108798910D01*
X85940552Y-108785026D01*
X85960543Y-108773044D01*
X85981613Y-108763079D01*
X86003557Y-108755227D01*
X86026166Y-108749563D01*
X86049221Y-108746144D01*
X86072500Y-108745000D01*
X86647500Y-108745000D01*
X86670779Y-108746144D01*
X86670779Y-108746144D01*
G37*
D11*
X86360000Y-109220000D03*
D10*
G36*
X84920779Y-108746144D02*
X84943834Y-108749563D01*
X84966443Y-108755227D01*
X84988387Y-108763079D01*
X85009457Y-108773044D01*
X85029448Y-108785026D01*
X85048168Y-108798910D01*
X85065438Y-108814562D01*
X85081090Y-108831832D01*
X85094974Y-108850552D01*
X85106956Y-108870543D01*
X85116921Y-108891613D01*
X85124773Y-108913557D01*
X85130437Y-108936166D01*
X85133856Y-108959221D01*
X85135000Y-108982500D01*
X85135000Y-109457500D01*
X85133856Y-109480779D01*
X85130437Y-109503834D01*
X85124773Y-109526443D01*
X85116921Y-109548387D01*
X85106956Y-109569457D01*
X85094974Y-109589448D01*
X85081090Y-109608168D01*
X85065438Y-109625438D01*
X85048168Y-109641090D01*
X85029448Y-109654974D01*
X85009457Y-109666956D01*
X84988387Y-109676921D01*
X84966443Y-109684773D01*
X84943834Y-109690437D01*
X84920779Y-109693856D01*
X84897500Y-109695000D01*
X84322500Y-109695000D01*
X84299221Y-109693856D01*
X84276166Y-109690437D01*
X84253557Y-109684773D01*
X84231613Y-109676921D01*
X84210543Y-109666956D01*
X84190552Y-109654974D01*
X84171832Y-109641090D01*
X84154562Y-109625438D01*
X84138910Y-109608168D01*
X84125026Y-109589448D01*
X84113044Y-109569457D01*
X84103079Y-109548387D01*
X84095227Y-109526443D01*
X84089563Y-109503834D01*
X84086144Y-109480779D01*
X84085000Y-109457500D01*
X84085000Y-108982500D01*
X84086144Y-108959221D01*
X84089563Y-108936166D01*
X84095227Y-108913557D01*
X84103079Y-108891613D01*
X84113044Y-108870543D01*
X84125026Y-108850552D01*
X84138910Y-108831832D01*
X84154562Y-108814562D01*
X84171832Y-108798910D01*
X84190552Y-108785026D01*
X84210543Y-108773044D01*
X84231613Y-108763079D01*
X84253557Y-108755227D01*
X84276166Y-108749563D01*
X84299221Y-108746144D01*
X84322500Y-108745000D01*
X84897500Y-108745000D01*
X84920779Y-108746144D01*
X84920779Y-108746144D01*
G37*
D11*
X84610000Y-109220000D03*
G04 #@! TD*
D10*
G04 #@! TO.C,C4*
G36*
X69680779Y-108746144D02*
X69703834Y-108749563D01*
X69726443Y-108755227D01*
X69748387Y-108763079D01*
X69769457Y-108773044D01*
X69789448Y-108785026D01*
X69808168Y-108798910D01*
X69825438Y-108814562D01*
X69841090Y-108831832D01*
X69854974Y-108850552D01*
X69866956Y-108870543D01*
X69876921Y-108891613D01*
X69884773Y-108913557D01*
X69890437Y-108936166D01*
X69893856Y-108959221D01*
X69895000Y-108982500D01*
X69895000Y-109457500D01*
X69893856Y-109480779D01*
X69890437Y-109503834D01*
X69884773Y-109526443D01*
X69876921Y-109548387D01*
X69866956Y-109569457D01*
X69854974Y-109589448D01*
X69841090Y-109608168D01*
X69825438Y-109625438D01*
X69808168Y-109641090D01*
X69789448Y-109654974D01*
X69769457Y-109666956D01*
X69748387Y-109676921D01*
X69726443Y-109684773D01*
X69703834Y-109690437D01*
X69680779Y-109693856D01*
X69657500Y-109695000D01*
X69082500Y-109695000D01*
X69059221Y-109693856D01*
X69036166Y-109690437D01*
X69013557Y-109684773D01*
X68991613Y-109676921D01*
X68970543Y-109666956D01*
X68950552Y-109654974D01*
X68931832Y-109641090D01*
X68914562Y-109625438D01*
X68898910Y-109608168D01*
X68885026Y-109589448D01*
X68873044Y-109569457D01*
X68863079Y-109548387D01*
X68855227Y-109526443D01*
X68849563Y-109503834D01*
X68846144Y-109480779D01*
X68845000Y-109457500D01*
X68845000Y-108982500D01*
X68846144Y-108959221D01*
X68849563Y-108936166D01*
X68855227Y-108913557D01*
X68863079Y-108891613D01*
X68873044Y-108870543D01*
X68885026Y-108850552D01*
X68898910Y-108831832D01*
X68914562Y-108814562D01*
X68931832Y-108798910D01*
X68950552Y-108785026D01*
X68970543Y-108773044D01*
X68991613Y-108763079D01*
X69013557Y-108755227D01*
X69036166Y-108749563D01*
X69059221Y-108746144D01*
X69082500Y-108745000D01*
X69657500Y-108745000D01*
X69680779Y-108746144D01*
X69680779Y-108746144D01*
G37*
D11*
X69370000Y-109220000D03*
D10*
G36*
X71430779Y-108746144D02*
X71453834Y-108749563D01*
X71476443Y-108755227D01*
X71498387Y-108763079D01*
X71519457Y-108773044D01*
X71539448Y-108785026D01*
X71558168Y-108798910D01*
X71575438Y-108814562D01*
X71591090Y-108831832D01*
X71604974Y-108850552D01*
X71616956Y-108870543D01*
X71626921Y-108891613D01*
X71634773Y-108913557D01*
X71640437Y-108936166D01*
X71643856Y-108959221D01*
X71645000Y-108982500D01*
X71645000Y-109457500D01*
X71643856Y-109480779D01*
X71640437Y-109503834D01*
X71634773Y-109526443D01*
X71626921Y-109548387D01*
X71616956Y-109569457D01*
X71604974Y-109589448D01*
X71591090Y-109608168D01*
X71575438Y-109625438D01*
X71558168Y-109641090D01*
X71539448Y-109654974D01*
X71519457Y-109666956D01*
X71498387Y-109676921D01*
X71476443Y-109684773D01*
X71453834Y-109690437D01*
X71430779Y-109693856D01*
X71407500Y-109695000D01*
X70832500Y-109695000D01*
X70809221Y-109693856D01*
X70786166Y-109690437D01*
X70763557Y-109684773D01*
X70741613Y-109676921D01*
X70720543Y-109666956D01*
X70700552Y-109654974D01*
X70681832Y-109641090D01*
X70664562Y-109625438D01*
X70648910Y-109608168D01*
X70635026Y-109589448D01*
X70623044Y-109569457D01*
X70613079Y-109548387D01*
X70605227Y-109526443D01*
X70599563Y-109503834D01*
X70596144Y-109480779D01*
X70595000Y-109457500D01*
X70595000Y-108982500D01*
X70596144Y-108959221D01*
X70599563Y-108936166D01*
X70605227Y-108913557D01*
X70613079Y-108891613D01*
X70623044Y-108870543D01*
X70635026Y-108850552D01*
X70648910Y-108831832D01*
X70664562Y-108814562D01*
X70681832Y-108798910D01*
X70700552Y-108785026D01*
X70720543Y-108773044D01*
X70741613Y-108763079D01*
X70763557Y-108755227D01*
X70786166Y-108749563D01*
X70809221Y-108746144D01*
X70832500Y-108745000D01*
X71407500Y-108745000D01*
X71430779Y-108746144D01*
X71430779Y-108746144D01*
G37*
D11*
X71120000Y-109220000D03*
G04 #@! TD*
D10*
G04 #@! TO.C,C5*
G36*
X101910779Y-108746144D02*
X101933834Y-108749563D01*
X101956443Y-108755227D01*
X101978387Y-108763079D01*
X101999457Y-108773044D01*
X102019448Y-108785026D01*
X102038168Y-108798910D01*
X102055438Y-108814562D01*
X102071090Y-108831832D01*
X102084974Y-108850552D01*
X102096956Y-108870543D01*
X102106921Y-108891613D01*
X102114773Y-108913557D01*
X102120437Y-108936166D01*
X102123856Y-108959221D01*
X102125000Y-108982500D01*
X102125000Y-109457500D01*
X102123856Y-109480779D01*
X102120437Y-109503834D01*
X102114773Y-109526443D01*
X102106921Y-109548387D01*
X102096956Y-109569457D01*
X102084974Y-109589448D01*
X102071090Y-109608168D01*
X102055438Y-109625438D01*
X102038168Y-109641090D01*
X102019448Y-109654974D01*
X101999457Y-109666956D01*
X101978387Y-109676921D01*
X101956443Y-109684773D01*
X101933834Y-109690437D01*
X101910779Y-109693856D01*
X101887500Y-109695000D01*
X101312500Y-109695000D01*
X101289221Y-109693856D01*
X101266166Y-109690437D01*
X101243557Y-109684773D01*
X101221613Y-109676921D01*
X101200543Y-109666956D01*
X101180552Y-109654974D01*
X101161832Y-109641090D01*
X101144562Y-109625438D01*
X101128910Y-109608168D01*
X101115026Y-109589448D01*
X101103044Y-109569457D01*
X101093079Y-109548387D01*
X101085227Y-109526443D01*
X101079563Y-109503834D01*
X101076144Y-109480779D01*
X101075000Y-109457500D01*
X101075000Y-108982500D01*
X101076144Y-108959221D01*
X101079563Y-108936166D01*
X101085227Y-108913557D01*
X101093079Y-108891613D01*
X101103044Y-108870543D01*
X101115026Y-108850552D01*
X101128910Y-108831832D01*
X101144562Y-108814562D01*
X101161832Y-108798910D01*
X101180552Y-108785026D01*
X101200543Y-108773044D01*
X101221613Y-108763079D01*
X101243557Y-108755227D01*
X101266166Y-108749563D01*
X101289221Y-108746144D01*
X101312500Y-108745000D01*
X101887500Y-108745000D01*
X101910779Y-108746144D01*
X101910779Y-108746144D01*
G37*
D11*
X101600000Y-109220000D03*
D10*
G36*
X100160779Y-108746144D02*
X100183834Y-108749563D01*
X100206443Y-108755227D01*
X100228387Y-108763079D01*
X100249457Y-108773044D01*
X100269448Y-108785026D01*
X100288168Y-108798910D01*
X100305438Y-108814562D01*
X100321090Y-108831832D01*
X100334974Y-108850552D01*
X100346956Y-108870543D01*
X100356921Y-108891613D01*
X100364773Y-108913557D01*
X100370437Y-108936166D01*
X100373856Y-108959221D01*
X100375000Y-108982500D01*
X100375000Y-109457500D01*
X100373856Y-109480779D01*
X100370437Y-109503834D01*
X100364773Y-109526443D01*
X100356921Y-109548387D01*
X100346956Y-109569457D01*
X100334974Y-109589448D01*
X100321090Y-109608168D01*
X100305438Y-109625438D01*
X100288168Y-109641090D01*
X100269448Y-109654974D01*
X100249457Y-109666956D01*
X100228387Y-109676921D01*
X100206443Y-109684773D01*
X100183834Y-109690437D01*
X100160779Y-109693856D01*
X100137500Y-109695000D01*
X99562500Y-109695000D01*
X99539221Y-109693856D01*
X99516166Y-109690437D01*
X99493557Y-109684773D01*
X99471613Y-109676921D01*
X99450543Y-109666956D01*
X99430552Y-109654974D01*
X99411832Y-109641090D01*
X99394562Y-109625438D01*
X99378910Y-109608168D01*
X99365026Y-109589448D01*
X99353044Y-109569457D01*
X99343079Y-109548387D01*
X99335227Y-109526443D01*
X99329563Y-109503834D01*
X99326144Y-109480779D01*
X99325000Y-109457500D01*
X99325000Y-108982500D01*
X99326144Y-108959221D01*
X99329563Y-108936166D01*
X99335227Y-108913557D01*
X99343079Y-108891613D01*
X99353044Y-108870543D01*
X99365026Y-108850552D01*
X99378910Y-108831832D01*
X99394562Y-108814562D01*
X99411832Y-108798910D01*
X99430552Y-108785026D01*
X99450543Y-108773044D01*
X99471613Y-108763079D01*
X99493557Y-108755227D01*
X99516166Y-108749563D01*
X99539221Y-108746144D01*
X99562500Y-108745000D01*
X100137500Y-108745000D01*
X100160779Y-108746144D01*
X100160779Y-108746144D01*
G37*
D11*
X99850000Y-109220000D03*
G04 #@! TD*
D10*
G04 #@! TO.C,C6*
G36*
X115400779Y-108746144D02*
X115423834Y-108749563D01*
X115446443Y-108755227D01*
X115468387Y-108763079D01*
X115489457Y-108773044D01*
X115509448Y-108785026D01*
X115528168Y-108798910D01*
X115545438Y-108814562D01*
X115561090Y-108831832D01*
X115574974Y-108850552D01*
X115586956Y-108870543D01*
X115596921Y-108891613D01*
X115604773Y-108913557D01*
X115610437Y-108936166D01*
X115613856Y-108959221D01*
X115615000Y-108982500D01*
X115615000Y-109457500D01*
X115613856Y-109480779D01*
X115610437Y-109503834D01*
X115604773Y-109526443D01*
X115596921Y-109548387D01*
X115586956Y-109569457D01*
X115574974Y-109589448D01*
X115561090Y-109608168D01*
X115545438Y-109625438D01*
X115528168Y-109641090D01*
X115509448Y-109654974D01*
X115489457Y-109666956D01*
X115468387Y-109676921D01*
X115446443Y-109684773D01*
X115423834Y-109690437D01*
X115400779Y-109693856D01*
X115377500Y-109695000D01*
X114802500Y-109695000D01*
X114779221Y-109693856D01*
X114756166Y-109690437D01*
X114733557Y-109684773D01*
X114711613Y-109676921D01*
X114690543Y-109666956D01*
X114670552Y-109654974D01*
X114651832Y-109641090D01*
X114634562Y-109625438D01*
X114618910Y-109608168D01*
X114605026Y-109589448D01*
X114593044Y-109569457D01*
X114583079Y-109548387D01*
X114575227Y-109526443D01*
X114569563Y-109503834D01*
X114566144Y-109480779D01*
X114565000Y-109457500D01*
X114565000Y-108982500D01*
X114566144Y-108959221D01*
X114569563Y-108936166D01*
X114575227Y-108913557D01*
X114583079Y-108891613D01*
X114593044Y-108870543D01*
X114605026Y-108850552D01*
X114618910Y-108831832D01*
X114634562Y-108814562D01*
X114651832Y-108798910D01*
X114670552Y-108785026D01*
X114690543Y-108773044D01*
X114711613Y-108763079D01*
X114733557Y-108755227D01*
X114756166Y-108749563D01*
X114779221Y-108746144D01*
X114802500Y-108745000D01*
X115377500Y-108745000D01*
X115400779Y-108746144D01*
X115400779Y-108746144D01*
G37*
D11*
X115090000Y-109220000D03*
D10*
G36*
X117150779Y-108746144D02*
X117173834Y-108749563D01*
X117196443Y-108755227D01*
X117218387Y-108763079D01*
X117239457Y-108773044D01*
X117259448Y-108785026D01*
X117278168Y-108798910D01*
X117295438Y-108814562D01*
X117311090Y-108831832D01*
X117324974Y-108850552D01*
X117336956Y-108870543D01*
X117346921Y-108891613D01*
X117354773Y-108913557D01*
X117360437Y-108936166D01*
X117363856Y-108959221D01*
X117365000Y-108982500D01*
X117365000Y-109457500D01*
X117363856Y-109480779D01*
X117360437Y-109503834D01*
X117354773Y-109526443D01*
X117346921Y-109548387D01*
X117336956Y-109569457D01*
X117324974Y-109589448D01*
X117311090Y-109608168D01*
X117295438Y-109625438D01*
X117278168Y-109641090D01*
X117259448Y-109654974D01*
X117239457Y-109666956D01*
X117218387Y-109676921D01*
X117196443Y-109684773D01*
X117173834Y-109690437D01*
X117150779Y-109693856D01*
X117127500Y-109695000D01*
X116552500Y-109695000D01*
X116529221Y-109693856D01*
X116506166Y-109690437D01*
X116483557Y-109684773D01*
X116461613Y-109676921D01*
X116440543Y-109666956D01*
X116420552Y-109654974D01*
X116401832Y-109641090D01*
X116384562Y-109625438D01*
X116368910Y-109608168D01*
X116355026Y-109589448D01*
X116343044Y-109569457D01*
X116333079Y-109548387D01*
X116325227Y-109526443D01*
X116319563Y-109503834D01*
X116316144Y-109480779D01*
X116315000Y-109457500D01*
X116315000Y-108982500D01*
X116316144Y-108959221D01*
X116319563Y-108936166D01*
X116325227Y-108913557D01*
X116333079Y-108891613D01*
X116343044Y-108870543D01*
X116355026Y-108850552D01*
X116368910Y-108831832D01*
X116384562Y-108814562D01*
X116401832Y-108798910D01*
X116420552Y-108785026D01*
X116440543Y-108773044D01*
X116461613Y-108763079D01*
X116483557Y-108755227D01*
X116506166Y-108749563D01*
X116529221Y-108746144D01*
X116552500Y-108745000D01*
X117127500Y-108745000D01*
X117150779Y-108746144D01*
X117150779Y-108746144D01*
G37*
D11*
X116840000Y-109220000D03*
G04 #@! TD*
D12*
G04 #@! TO.C,Conn1*
X134620000Y-127254000D03*
X134620000Y-119380000D03*
X134620000Y-111506000D03*
G04 #@! TD*
G04 #@! TO.C,Conn6*
X63500000Y-127254000D03*
X63500000Y-119380000D03*
X63500000Y-111506000D03*
G04 #@! TD*
D10*
G04 #@! TO.C,D1*
G36*
X129800779Y-116796144D02*
X129823834Y-116799563D01*
X129846443Y-116805227D01*
X129868387Y-116813079D01*
X129889457Y-116823044D01*
X129909448Y-116835026D01*
X129928168Y-116848910D01*
X129945438Y-116864562D01*
X129961090Y-116881832D01*
X129974974Y-116900552D01*
X129986956Y-116920543D01*
X129996921Y-116941613D01*
X130004773Y-116963557D01*
X130010437Y-116986166D01*
X130013856Y-117009221D01*
X130015000Y-117032500D01*
X130015000Y-117607500D01*
X130013856Y-117630779D01*
X130010437Y-117653834D01*
X130004773Y-117676443D01*
X129996921Y-117698387D01*
X129986956Y-117719457D01*
X129974974Y-117739448D01*
X129961090Y-117758168D01*
X129945438Y-117775438D01*
X129928168Y-117791090D01*
X129909448Y-117804974D01*
X129889457Y-117816956D01*
X129868387Y-117826921D01*
X129846443Y-117834773D01*
X129823834Y-117840437D01*
X129800779Y-117843856D01*
X129777500Y-117845000D01*
X129302500Y-117845000D01*
X129279221Y-117843856D01*
X129256166Y-117840437D01*
X129233557Y-117834773D01*
X129211613Y-117826921D01*
X129190543Y-117816956D01*
X129170552Y-117804974D01*
X129151832Y-117791090D01*
X129134562Y-117775438D01*
X129118910Y-117758168D01*
X129105026Y-117739448D01*
X129093044Y-117719457D01*
X129083079Y-117698387D01*
X129075227Y-117676443D01*
X129069563Y-117653834D01*
X129066144Y-117630779D01*
X129065000Y-117607500D01*
X129065000Y-117032500D01*
X129066144Y-117009221D01*
X129069563Y-116986166D01*
X129075227Y-116963557D01*
X129083079Y-116941613D01*
X129093044Y-116920543D01*
X129105026Y-116900552D01*
X129118910Y-116881832D01*
X129134562Y-116864562D01*
X129151832Y-116848910D01*
X129170552Y-116835026D01*
X129190543Y-116823044D01*
X129211613Y-116813079D01*
X129233557Y-116805227D01*
X129256166Y-116799563D01*
X129279221Y-116796144D01*
X129302500Y-116795000D01*
X129777500Y-116795000D01*
X129800779Y-116796144D01*
X129800779Y-116796144D01*
G37*
D11*
X129540000Y-117320000D03*
D10*
G36*
X129800779Y-115046144D02*
X129823834Y-115049563D01*
X129846443Y-115055227D01*
X129868387Y-115063079D01*
X129889457Y-115073044D01*
X129909448Y-115085026D01*
X129928168Y-115098910D01*
X129945438Y-115114562D01*
X129961090Y-115131832D01*
X129974974Y-115150552D01*
X129986956Y-115170543D01*
X129996921Y-115191613D01*
X130004773Y-115213557D01*
X130010437Y-115236166D01*
X130013856Y-115259221D01*
X130015000Y-115282500D01*
X130015000Y-115857500D01*
X130013856Y-115880779D01*
X130010437Y-115903834D01*
X130004773Y-115926443D01*
X129996921Y-115948387D01*
X129986956Y-115969457D01*
X129974974Y-115989448D01*
X129961090Y-116008168D01*
X129945438Y-116025438D01*
X129928168Y-116041090D01*
X129909448Y-116054974D01*
X129889457Y-116066956D01*
X129868387Y-116076921D01*
X129846443Y-116084773D01*
X129823834Y-116090437D01*
X129800779Y-116093856D01*
X129777500Y-116095000D01*
X129302500Y-116095000D01*
X129279221Y-116093856D01*
X129256166Y-116090437D01*
X129233557Y-116084773D01*
X129211613Y-116076921D01*
X129190543Y-116066956D01*
X129170552Y-116054974D01*
X129151832Y-116041090D01*
X129134562Y-116025438D01*
X129118910Y-116008168D01*
X129105026Y-115989448D01*
X129093044Y-115969457D01*
X129083079Y-115948387D01*
X129075227Y-115926443D01*
X129069563Y-115903834D01*
X129066144Y-115880779D01*
X129065000Y-115857500D01*
X129065000Y-115282500D01*
X129066144Y-115259221D01*
X129069563Y-115236166D01*
X129075227Y-115213557D01*
X129083079Y-115191613D01*
X129093044Y-115170543D01*
X129105026Y-115150552D01*
X129118910Y-115131832D01*
X129134562Y-115114562D01*
X129151832Y-115098910D01*
X129170552Y-115085026D01*
X129190543Y-115073044D01*
X129211613Y-115063079D01*
X129233557Y-115055227D01*
X129256166Y-115049563D01*
X129279221Y-115046144D01*
X129302500Y-115045000D01*
X129777500Y-115045000D01*
X129800779Y-115046144D01*
X129800779Y-115046144D01*
G37*
D11*
X129540000Y-115570000D03*
G04 #@! TD*
D10*
G04 #@! TO.C,R1*
G36*
X129800779Y-111236144D02*
X129823834Y-111239563D01*
X129846443Y-111245227D01*
X129868387Y-111253079D01*
X129889457Y-111263044D01*
X129909448Y-111275026D01*
X129928168Y-111288910D01*
X129945438Y-111304562D01*
X129961090Y-111321832D01*
X129974974Y-111340552D01*
X129986956Y-111360543D01*
X129996921Y-111381613D01*
X130004773Y-111403557D01*
X130010437Y-111426166D01*
X130013856Y-111449221D01*
X130015000Y-111472500D01*
X130015000Y-112047500D01*
X130013856Y-112070779D01*
X130010437Y-112093834D01*
X130004773Y-112116443D01*
X129996921Y-112138387D01*
X129986956Y-112159457D01*
X129974974Y-112179448D01*
X129961090Y-112198168D01*
X129945438Y-112215438D01*
X129928168Y-112231090D01*
X129909448Y-112244974D01*
X129889457Y-112256956D01*
X129868387Y-112266921D01*
X129846443Y-112274773D01*
X129823834Y-112280437D01*
X129800779Y-112283856D01*
X129777500Y-112285000D01*
X129302500Y-112285000D01*
X129279221Y-112283856D01*
X129256166Y-112280437D01*
X129233557Y-112274773D01*
X129211613Y-112266921D01*
X129190543Y-112256956D01*
X129170552Y-112244974D01*
X129151832Y-112231090D01*
X129134562Y-112215438D01*
X129118910Y-112198168D01*
X129105026Y-112179448D01*
X129093044Y-112159457D01*
X129083079Y-112138387D01*
X129075227Y-112116443D01*
X129069563Y-112093834D01*
X129066144Y-112070779D01*
X129065000Y-112047500D01*
X129065000Y-111472500D01*
X129066144Y-111449221D01*
X129069563Y-111426166D01*
X129075227Y-111403557D01*
X129083079Y-111381613D01*
X129093044Y-111360543D01*
X129105026Y-111340552D01*
X129118910Y-111321832D01*
X129134562Y-111304562D01*
X129151832Y-111288910D01*
X129170552Y-111275026D01*
X129190543Y-111263044D01*
X129211613Y-111253079D01*
X129233557Y-111245227D01*
X129256166Y-111239563D01*
X129279221Y-111236144D01*
X129302500Y-111235000D01*
X129777500Y-111235000D01*
X129800779Y-111236144D01*
X129800779Y-111236144D01*
G37*
D11*
X129540000Y-111760000D03*
D10*
G36*
X129800779Y-112986144D02*
X129823834Y-112989563D01*
X129846443Y-112995227D01*
X129868387Y-113003079D01*
X129889457Y-113013044D01*
X129909448Y-113025026D01*
X129928168Y-113038910D01*
X129945438Y-113054562D01*
X129961090Y-113071832D01*
X129974974Y-113090552D01*
X129986956Y-113110543D01*
X129996921Y-113131613D01*
X130004773Y-113153557D01*
X130010437Y-113176166D01*
X130013856Y-113199221D01*
X130015000Y-113222500D01*
X130015000Y-113797500D01*
X130013856Y-113820779D01*
X130010437Y-113843834D01*
X130004773Y-113866443D01*
X129996921Y-113888387D01*
X129986956Y-113909457D01*
X129974974Y-113929448D01*
X129961090Y-113948168D01*
X129945438Y-113965438D01*
X129928168Y-113981090D01*
X129909448Y-113994974D01*
X129889457Y-114006956D01*
X129868387Y-114016921D01*
X129846443Y-114024773D01*
X129823834Y-114030437D01*
X129800779Y-114033856D01*
X129777500Y-114035000D01*
X129302500Y-114035000D01*
X129279221Y-114033856D01*
X129256166Y-114030437D01*
X129233557Y-114024773D01*
X129211613Y-114016921D01*
X129190543Y-114006956D01*
X129170552Y-113994974D01*
X129151832Y-113981090D01*
X129134562Y-113965438D01*
X129118910Y-113948168D01*
X129105026Y-113929448D01*
X129093044Y-113909457D01*
X129083079Y-113888387D01*
X129075227Y-113866443D01*
X129069563Y-113843834D01*
X129066144Y-113820779D01*
X129065000Y-113797500D01*
X129065000Y-113222500D01*
X129066144Y-113199221D01*
X129069563Y-113176166D01*
X129075227Y-113153557D01*
X129083079Y-113131613D01*
X129093044Y-113110543D01*
X129105026Y-113090552D01*
X129118910Y-113071832D01*
X129134562Y-113054562D01*
X129151832Y-113038910D01*
X129170552Y-113025026D01*
X129190543Y-113013044D01*
X129211613Y-113003079D01*
X129233557Y-112995227D01*
X129256166Y-112989563D01*
X129279221Y-112986144D01*
X129302500Y-112985000D01*
X129777500Y-112985000D01*
X129800779Y-112986144D01*
X129800779Y-112986144D01*
G37*
D11*
X129540000Y-113510000D03*
G04 #@! TD*
M02*
