G04 #@! TF.GenerationSoftware,KiCad,Pcbnew,(5.0.2)-1*
G04 #@! TF.CreationDate,2019-04-02T18:39:04-05:00*
G04 #@! TF.ProjectId,CameraPowerInjector_Hardware,43616d65-7261-4506-9f77-6572496e6a65,rev?*
G04 #@! TF.SameCoordinates,Original*
G04 #@! TF.FileFunction,Soldermask,Bot*
G04 #@! TF.FilePolarity,Negative*
%FSLAX46Y46*%
G04 Gerber Fmt 4.6, Leading zero omitted, Abs format (unit mm)*
G04 Created by KiCad (PCBNEW (5.0.2)-1) date 4/2/2019 6:39:04 PM*
%MOMM*%
%LPD*%
G01*
G04 APERTURE LIST*
%ADD10C,0.100000*%
G04 APERTURE END LIST*
D10*
G36*
X64088908Y-124729380D02*
X64255767Y-124762570D01*
X64727299Y-124957885D01*
X65148803Y-125239526D01*
X65151669Y-125241441D01*
X65512559Y-125602331D01*
X65512561Y-125602334D01*
X65796115Y-126026701D01*
X65991430Y-126498233D01*
X66002803Y-126555408D01*
X66091000Y-126998807D01*
X66091000Y-127509193D01*
X66048674Y-127721979D01*
X65991430Y-128009767D01*
X65796115Y-128481299D01*
X65767449Y-128524200D01*
X65512559Y-128905669D01*
X65151669Y-129266559D01*
X65151666Y-129266561D01*
X64727299Y-129550115D01*
X64255767Y-129745430D01*
X64088908Y-129778620D01*
X63755193Y-129845000D01*
X63244807Y-129845000D01*
X62911092Y-129778620D01*
X62744233Y-129745430D01*
X62272701Y-129550115D01*
X61848334Y-129266561D01*
X61848331Y-129266559D01*
X61487441Y-128905669D01*
X61232551Y-128524200D01*
X61203885Y-128481299D01*
X61008570Y-128009767D01*
X60951326Y-127721979D01*
X60909000Y-127509193D01*
X60909000Y-126998807D01*
X60997197Y-126555408D01*
X61008570Y-126498233D01*
X61203885Y-126026701D01*
X61487439Y-125602334D01*
X61487441Y-125602331D01*
X61848331Y-125241441D01*
X61851197Y-125239526D01*
X62272701Y-124957885D01*
X62744233Y-124762570D01*
X62911092Y-124729380D01*
X63244807Y-124663000D01*
X63755193Y-124663000D01*
X64088908Y-124729380D01*
X64088908Y-124729380D01*
G37*
G36*
X135208908Y-124729380D02*
X135375767Y-124762570D01*
X135847299Y-124957885D01*
X136268803Y-125239526D01*
X136271669Y-125241441D01*
X136632559Y-125602331D01*
X136632561Y-125602334D01*
X136916115Y-126026701D01*
X137111430Y-126498233D01*
X137122803Y-126555408D01*
X137211000Y-126998807D01*
X137211000Y-127509193D01*
X137168674Y-127721979D01*
X137111430Y-128009767D01*
X136916115Y-128481299D01*
X136887449Y-128524200D01*
X136632559Y-128905669D01*
X136271669Y-129266559D01*
X136271666Y-129266561D01*
X135847299Y-129550115D01*
X135375767Y-129745430D01*
X135208908Y-129778620D01*
X134875193Y-129845000D01*
X134364807Y-129845000D01*
X134031092Y-129778620D01*
X133864233Y-129745430D01*
X133392701Y-129550115D01*
X132968334Y-129266561D01*
X132968331Y-129266559D01*
X132607441Y-128905669D01*
X132352551Y-128524200D01*
X132323885Y-128481299D01*
X132128570Y-128009767D01*
X132071326Y-127721979D01*
X132029000Y-127509193D01*
X132029000Y-126998807D01*
X132117197Y-126555408D01*
X132128570Y-126498233D01*
X132323885Y-126026701D01*
X132607439Y-125602334D01*
X132607441Y-125602331D01*
X132968331Y-125241441D01*
X132971197Y-125239526D01*
X133392701Y-124957885D01*
X133864233Y-124762570D01*
X134031092Y-124729380D01*
X134364807Y-124663000D01*
X134875193Y-124663000D01*
X135208908Y-124729380D01*
X135208908Y-124729380D01*
G37*
G36*
X51097357Y-125505087D02*
X51244593Y-125534374D01*
X51521979Y-125649271D01*
X51716254Y-125779082D01*
X51771624Y-125816079D01*
X51983921Y-126028376D01*
X51983923Y-126028379D01*
X52150729Y-126278021D01*
X52265626Y-126555407D01*
X52324200Y-126849879D01*
X52324200Y-127150121D01*
X52265626Y-127444593D01*
X52150729Y-127721979D01*
X51985047Y-127969938D01*
X51983921Y-127971624D01*
X51771624Y-128183921D01*
X51771621Y-128183923D01*
X51521979Y-128350729D01*
X51244593Y-128465626D01*
X51165804Y-128481298D01*
X50950122Y-128524200D01*
X50649878Y-128524200D01*
X50434196Y-128481298D01*
X50355407Y-128465626D01*
X50078021Y-128350729D01*
X49828379Y-128183923D01*
X49828376Y-128183921D01*
X49616079Y-127971624D01*
X49614953Y-127969938D01*
X49449271Y-127721979D01*
X49334374Y-127444593D01*
X49275800Y-127150121D01*
X49275800Y-126849879D01*
X49334374Y-126555407D01*
X49449271Y-126278021D01*
X49616077Y-126028379D01*
X49616079Y-126028376D01*
X49828376Y-125816079D01*
X49883746Y-125779082D01*
X50078021Y-125649271D01*
X50355407Y-125534374D01*
X50502643Y-125505087D01*
X50649878Y-125475800D01*
X50950122Y-125475800D01*
X51097357Y-125505087D01*
X51097357Y-125505087D01*
G37*
G36*
X147617357Y-125505087D02*
X147764593Y-125534374D01*
X148041979Y-125649271D01*
X148236254Y-125779082D01*
X148291624Y-125816079D01*
X148503921Y-126028376D01*
X148503923Y-126028379D01*
X148670729Y-126278021D01*
X148785626Y-126555407D01*
X148844200Y-126849879D01*
X148844200Y-127150121D01*
X148785626Y-127444593D01*
X148670729Y-127721979D01*
X148505047Y-127969938D01*
X148503921Y-127971624D01*
X148291624Y-128183921D01*
X148291621Y-128183923D01*
X148041979Y-128350729D01*
X147764593Y-128465626D01*
X147685804Y-128481298D01*
X147470122Y-128524200D01*
X147169878Y-128524200D01*
X146954196Y-128481298D01*
X146875407Y-128465626D01*
X146598021Y-128350729D01*
X146348379Y-128183923D01*
X146348376Y-128183921D01*
X146136079Y-127971624D01*
X146134953Y-127969938D01*
X145969271Y-127721979D01*
X145854374Y-127444593D01*
X145795800Y-127150121D01*
X145795800Y-126849879D01*
X145854374Y-126555407D01*
X145969271Y-126278021D01*
X146136077Y-126028379D01*
X146136079Y-126028376D01*
X146348376Y-125816079D01*
X146403746Y-125779082D01*
X146598021Y-125649271D01*
X146875407Y-125534374D01*
X147022643Y-125505087D01*
X147169878Y-125475800D01*
X147470122Y-125475800D01*
X147617357Y-125505087D01*
X147617357Y-125505087D01*
G37*
G36*
X86760139Y-123140917D02*
X87009791Y-123244326D01*
X87234472Y-123394453D01*
X87425547Y-123585528D01*
X87575674Y-123810209D01*
X87679083Y-124059861D01*
X87731800Y-124324889D01*
X87731800Y-124595111D01*
X87679083Y-124860139D01*
X87575674Y-125109791D01*
X87425547Y-125334472D01*
X87234472Y-125525547D01*
X87009791Y-125675674D01*
X86760139Y-125779083D01*
X86495111Y-125831800D01*
X86224889Y-125831800D01*
X85959861Y-125779083D01*
X85710209Y-125675674D01*
X85485528Y-125525547D01*
X85294453Y-125334472D01*
X85144326Y-125109791D01*
X85040917Y-124860139D01*
X84988200Y-124595111D01*
X84988200Y-124324889D01*
X85040917Y-124059861D01*
X85144326Y-123810209D01*
X85294453Y-123585528D01*
X85485528Y-123394453D01*
X85710209Y-123244326D01*
X85959861Y-123140917D01*
X86224889Y-123088200D01*
X86495111Y-123088200D01*
X86760139Y-123140917D01*
X86760139Y-123140917D01*
G37*
G36*
X81680139Y-123140917D02*
X81929791Y-123244326D01*
X82154472Y-123394453D01*
X82345547Y-123585528D01*
X82495674Y-123810209D01*
X82599083Y-124059861D01*
X82651800Y-124324889D01*
X82651800Y-124595111D01*
X82599083Y-124860139D01*
X82495674Y-125109791D01*
X82345547Y-125334472D01*
X82154472Y-125525547D01*
X81929791Y-125675674D01*
X81680139Y-125779083D01*
X81415111Y-125831800D01*
X81144889Y-125831800D01*
X80879861Y-125779083D01*
X80630209Y-125675674D01*
X80405528Y-125525547D01*
X80214453Y-125334472D01*
X80064326Y-125109791D01*
X79960917Y-124860139D01*
X79908200Y-124595111D01*
X79908200Y-124324889D01*
X79960917Y-124059861D01*
X80064326Y-123810209D01*
X80214453Y-123585528D01*
X80405528Y-123394453D01*
X80630209Y-123244326D01*
X80879861Y-123140917D01*
X81144889Y-123088200D01*
X81415111Y-123088200D01*
X81680139Y-123140917D01*
X81680139Y-123140917D01*
G37*
G36*
X71520139Y-123140917D02*
X71769791Y-123244326D01*
X71994472Y-123394453D01*
X72185547Y-123585528D01*
X72335674Y-123810209D01*
X72439083Y-124059861D01*
X72491800Y-124324889D01*
X72491800Y-124595111D01*
X72439083Y-124860139D01*
X72335674Y-125109791D01*
X72185547Y-125334472D01*
X71994472Y-125525547D01*
X71769791Y-125675674D01*
X71520139Y-125779083D01*
X71255111Y-125831800D01*
X70984889Y-125831800D01*
X70719861Y-125779083D01*
X70470209Y-125675674D01*
X70245528Y-125525547D01*
X70054453Y-125334472D01*
X69904326Y-125109791D01*
X69800917Y-124860139D01*
X69748200Y-124595111D01*
X69748200Y-124324889D01*
X69800917Y-124059861D01*
X69904326Y-123810209D01*
X70054453Y-123585528D01*
X70245528Y-123394453D01*
X70470209Y-123244326D01*
X70719861Y-123140917D01*
X70984889Y-123088200D01*
X71255111Y-123088200D01*
X71520139Y-123140917D01*
X71520139Y-123140917D01*
G37*
G36*
X96920139Y-123140917D02*
X97169791Y-123244326D01*
X97394472Y-123394453D01*
X97585547Y-123585528D01*
X97735674Y-123810209D01*
X97839083Y-124059861D01*
X97891800Y-124324889D01*
X97891800Y-124595111D01*
X97839083Y-124860139D01*
X97735674Y-125109791D01*
X97585547Y-125334472D01*
X97394472Y-125525547D01*
X97169791Y-125675674D01*
X96920139Y-125779083D01*
X96655111Y-125831800D01*
X96384889Y-125831800D01*
X96119861Y-125779083D01*
X95870209Y-125675674D01*
X95645528Y-125525547D01*
X95454453Y-125334472D01*
X95304326Y-125109791D01*
X95200917Y-124860139D01*
X95148200Y-124595111D01*
X95148200Y-124324889D01*
X95200917Y-124059861D01*
X95304326Y-123810209D01*
X95454453Y-123585528D01*
X95645528Y-123394453D01*
X95870209Y-123244326D01*
X96119861Y-123140917D01*
X96384889Y-123088200D01*
X96655111Y-123088200D01*
X96920139Y-123140917D01*
X96920139Y-123140917D01*
G37*
G36*
X112160139Y-123140917D02*
X112409791Y-123244326D01*
X112634472Y-123394453D01*
X112825547Y-123585528D01*
X112975674Y-123810209D01*
X113079083Y-124059861D01*
X113131800Y-124324889D01*
X113131800Y-124595111D01*
X113079083Y-124860139D01*
X112975674Y-125109791D01*
X112825547Y-125334472D01*
X112634472Y-125525547D01*
X112409791Y-125675674D01*
X112160139Y-125779083D01*
X111895111Y-125831800D01*
X111624889Y-125831800D01*
X111359861Y-125779083D01*
X111110209Y-125675674D01*
X110885528Y-125525547D01*
X110694453Y-125334472D01*
X110544326Y-125109791D01*
X110440917Y-124860139D01*
X110388200Y-124595111D01*
X110388200Y-124324889D01*
X110440917Y-124059861D01*
X110544326Y-123810209D01*
X110694453Y-123585528D01*
X110885528Y-123394453D01*
X111110209Y-123244326D01*
X111359861Y-123140917D01*
X111624889Y-123088200D01*
X111895111Y-123088200D01*
X112160139Y-123140917D01*
X112160139Y-123140917D01*
G37*
G36*
X102000139Y-123140917D02*
X102249791Y-123244326D01*
X102474472Y-123394453D01*
X102665547Y-123585528D01*
X102815674Y-123810209D01*
X102919083Y-124059861D01*
X102971800Y-124324889D01*
X102971800Y-124595111D01*
X102919083Y-124860139D01*
X102815674Y-125109791D01*
X102665547Y-125334472D01*
X102474472Y-125525547D01*
X102249791Y-125675674D01*
X102000139Y-125779083D01*
X101735111Y-125831800D01*
X101464889Y-125831800D01*
X101199861Y-125779083D01*
X100950209Y-125675674D01*
X100725528Y-125525547D01*
X100534453Y-125334472D01*
X100384326Y-125109791D01*
X100280917Y-124860139D01*
X100228200Y-124595111D01*
X100228200Y-124324889D01*
X100280917Y-124059861D01*
X100384326Y-123810209D01*
X100534453Y-123585528D01*
X100725528Y-123394453D01*
X100950209Y-123244326D01*
X101199861Y-123140917D01*
X101464889Y-123088200D01*
X101735111Y-123088200D01*
X102000139Y-123140917D01*
X102000139Y-123140917D01*
G37*
G36*
X117240139Y-123140917D02*
X117489791Y-123244326D01*
X117714472Y-123394453D01*
X117905547Y-123585528D01*
X118055674Y-123810209D01*
X118159083Y-124059861D01*
X118211800Y-124324889D01*
X118211800Y-124595111D01*
X118159083Y-124860139D01*
X118055674Y-125109791D01*
X117905547Y-125334472D01*
X117714472Y-125525547D01*
X117489791Y-125675674D01*
X117240139Y-125779083D01*
X116975111Y-125831800D01*
X116704889Y-125831800D01*
X116439861Y-125779083D01*
X116190209Y-125675674D01*
X115965528Y-125525547D01*
X115774453Y-125334472D01*
X115624326Y-125109791D01*
X115520917Y-124860139D01*
X115468200Y-124595111D01*
X115468200Y-124324889D01*
X115520917Y-124059861D01*
X115624326Y-123810209D01*
X115774453Y-123585528D01*
X115965528Y-123394453D01*
X116190209Y-123244326D01*
X116439861Y-123140917D01*
X116704889Y-123088200D01*
X116975111Y-123088200D01*
X117240139Y-123140917D01*
X117240139Y-123140917D01*
G37*
G36*
X127400139Y-123140917D02*
X127649791Y-123244326D01*
X127874472Y-123394453D01*
X128065547Y-123585528D01*
X128215674Y-123810209D01*
X128319083Y-124059861D01*
X128371800Y-124324889D01*
X128371800Y-124595111D01*
X128319083Y-124860139D01*
X128215674Y-125109791D01*
X128065547Y-125334472D01*
X127874472Y-125525547D01*
X127649791Y-125675674D01*
X127400139Y-125779083D01*
X127135111Y-125831800D01*
X126864889Y-125831800D01*
X126599861Y-125779083D01*
X126350209Y-125675674D01*
X126125528Y-125525547D01*
X125934453Y-125334472D01*
X125784326Y-125109791D01*
X125680917Y-124860139D01*
X125628200Y-124595111D01*
X125628200Y-124324889D01*
X125680917Y-124059861D01*
X125784326Y-123810209D01*
X125934453Y-123585528D01*
X126125528Y-123394453D01*
X126350209Y-123244326D01*
X126599861Y-123140917D01*
X126864889Y-123088200D01*
X127135111Y-123088200D01*
X127400139Y-123140917D01*
X127400139Y-123140917D01*
G37*
G36*
X135208908Y-116855380D02*
X135375767Y-116888570D01*
X135847299Y-117083885D01*
X136268803Y-117365526D01*
X136271669Y-117367441D01*
X136632559Y-117728331D01*
X136632561Y-117728334D01*
X136916115Y-118152701D01*
X137111430Y-118624233D01*
X137111430Y-118624234D01*
X137211000Y-119124807D01*
X137211000Y-119635193D01*
X137158673Y-119898257D01*
X137111430Y-120135767D01*
X136916115Y-120607299D01*
X136634474Y-121028803D01*
X136632559Y-121031669D01*
X136271669Y-121392559D01*
X136271666Y-121392561D01*
X135847299Y-121676115D01*
X135375767Y-121871430D01*
X135208908Y-121904620D01*
X134875193Y-121971000D01*
X134364807Y-121971000D01*
X134031092Y-121904620D01*
X133864233Y-121871430D01*
X133392701Y-121676115D01*
X132968334Y-121392561D01*
X132968331Y-121392559D01*
X132607441Y-121031669D01*
X132605526Y-121028803D01*
X132323885Y-120607299D01*
X132128570Y-120135767D01*
X132081327Y-119898257D01*
X132029000Y-119635193D01*
X132029000Y-119124807D01*
X132128570Y-118624234D01*
X132128570Y-118624233D01*
X132323885Y-118152701D01*
X132607439Y-117728334D01*
X132607441Y-117728331D01*
X132968331Y-117367441D01*
X132971197Y-117365526D01*
X133392701Y-117083885D01*
X133864233Y-116888570D01*
X134031092Y-116855380D01*
X134364807Y-116789000D01*
X134875193Y-116789000D01*
X135208908Y-116855380D01*
X135208908Y-116855380D01*
G37*
G36*
X64088908Y-116855380D02*
X64255767Y-116888570D01*
X64727299Y-117083885D01*
X65148803Y-117365526D01*
X65151669Y-117367441D01*
X65512559Y-117728331D01*
X65512561Y-117728334D01*
X65796115Y-118152701D01*
X65991430Y-118624233D01*
X65991430Y-118624234D01*
X66091000Y-119124807D01*
X66091000Y-119635193D01*
X66038673Y-119898257D01*
X65991430Y-120135767D01*
X65796115Y-120607299D01*
X65514474Y-121028803D01*
X65512559Y-121031669D01*
X65151669Y-121392559D01*
X65151666Y-121392561D01*
X64727299Y-121676115D01*
X64255767Y-121871430D01*
X64088908Y-121904620D01*
X63755193Y-121971000D01*
X63244807Y-121971000D01*
X62911092Y-121904620D01*
X62744233Y-121871430D01*
X62272701Y-121676115D01*
X61848334Y-121392561D01*
X61848331Y-121392559D01*
X61487441Y-121031669D01*
X61485526Y-121028803D01*
X61203885Y-120607299D01*
X61008570Y-120135767D01*
X60961327Y-119898257D01*
X60909000Y-119635193D01*
X60909000Y-119124807D01*
X61008570Y-118624234D01*
X61008570Y-118624233D01*
X61203885Y-118152701D01*
X61487439Y-117728334D01*
X61487441Y-117728331D01*
X61848331Y-117367441D01*
X61851197Y-117365526D01*
X62272701Y-117083885D01*
X62744233Y-116888570D01*
X62911092Y-116855380D01*
X63244807Y-116789000D01*
X63755193Y-116789000D01*
X64088908Y-116855380D01*
X64088908Y-116855380D01*
G37*
G36*
X78977142Y-118598242D02*
X79125102Y-118659530D01*
X79258258Y-118748502D01*
X79371498Y-118861742D01*
X79460470Y-118994898D01*
X79521758Y-119142858D01*
X79553000Y-119299925D01*
X79553000Y-119460075D01*
X79521758Y-119617142D01*
X79460470Y-119765102D01*
X79371498Y-119898258D01*
X79258258Y-120011498D01*
X79125102Y-120100470D01*
X78977142Y-120161758D01*
X78820075Y-120193000D01*
X78659925Y-120193000D01*
X78502858Y-120161758D01*
X78354898Y-120100470D01*
X78221742Y-120011498D01*
X78108502Y-119898258D01*
X78019530Y-119765102D01*
X77958242Y-119617142D01*
X77927000Y-119460075D01*
X77927000Y-119299925D01*
X77958242Y-119142858D01*
X78019530Y-118994898D01*
X78108502Y-118861742D01*
X78221742Y-118748502D01*
X78354898Y-118659530D01*
X78502858Y-118598242D01*
X78659925Y-118567000D01*
X78820075Y-118567000D01*
X78977142Y-118598242D01*
X78977142Y-118598242D01*
G37*
G36*
X94217142Y-118598242D02*
X94365102Y-118659530D01*
X94498258Y-118748502D01*
X94611498Y-118861742D01*
X94700470Y-118994898D01*
X94761758Y-119142858D01*
X94793000Y-119299925D01*
X94793000Y-119460075D01*
X94761758Y-119617142D01*
X94700470Y-119765102D01*
X94611498Y-119898258D01*
X94498258Y-120011498D01*
X94365102Y-120100470D01*
X94217142Y-120161758D01*
X94060075Y-120193000D01*
X93899925Y-120193000D01*
X93742858Y-120161758D01*
X93594898Y-120100470D01*
X93461742Y-120011498D01*
X93348502Y-119898258D01*
X93259530Y-119765102D01*
X93198242Y-119617142D01*
X93167000Y-119460075D01*
X93167000Y-119299925D01*
X93198242Y-119142858D01*
X93259530Y-118994898D01*
X93348502Y-118861742D01*
X93461742Y-118748502D01*
X93594898Y-118659530D01*
X93742858Y-118598242D01*
X93899925Y-118567000D01*
X94060075Y-118567000D01*
X94217142Y-118598242D01*
X94217142Y-118598242D01*
G37*
G36*
X91677142Y-118598242D02*
X91825102Y-118659530D01*
X91958258Y-118748502D01*
X92071498Y-118861742D01*
X92160470Y-118994898D01*
X92221758Y-119142858D01*
X92253000Y-119299925D01*
X92253000Y-119460075D01*
X92221758Y-119617142D01*
X92160470Y-119765102D01*
X92071498Y-119898258D01*
X91958258Y-120011498D01*
X91825102Y-120100470D01*
X91677142Y-120161758D01*
X91520075Y-120193000D01*
X91359925Y-120193000D01*
X91202858Y-120161758D01*
X91054898Y-120100470D01*
X90921742Y-120011498D01*
X90808502Y-119898258D01*
X90719530Y-119765102D01*
X90658242Y-119617142D01*
X90627000Y-119460075D01*
X90627000Y-119299925D01*
X90658242Y-119142858D01*
X90719530Y-118994898D01*
X90808502Y-118861742D01*
X90921742Y-118748502D01*
X91054898Y-118659530D01*
X91202858Y-118598242D01*
X91359925Y-118567000D01*
X91520075Y-118567000D01*
X91677142Y-118598242D01*
X91677142Y-118598242D01*
G37*
G36*
X106917142Y-118598242D02*
X107065102Y-118659530D01*
X107198258Y-118748502D01*
X107311498Y-118861742D01*
X107400470Y-118994898D01*
X107461758Y-119142858D01*
X107493000Y-119299925D01*
X107493000Y-119460075D01*
X107461758Y-119617142D01*
X107400470Y-119765102D01*
X107311498Y-119898258D01*
X107198258Y-120011498D01*
X107065102Y-120100470D01*
X106917142Y-120161758D01*
X106760075Y-120193000D01*
X106599925Y-120193000D01*
X106442858Y-120161758D01*
X106294898Y-120100470D01*
X106161742Y-120011498D01*
X106048502Y-119898258D01*
X105959530Y-119765102D01*
X105898242Y-119617142D01*
X105867000Y-119460075D01*
X105867000Y-119299925D01*
X105898242Y-119142858D01*
X105959530Y-118994898D01*
X106048502Y-118861742D01*
X106161742Y-118748502D01*
X106294898Y-118659530D01*
X106442858Y-118598242D01*
X106599925Y-118567000D01*
X106760075Y-118567000D01*
X106917142Y-118598242D01*
X106917142Y-118598242D01*
G37*
G36*
X124697142Y-118598242D02*
X124845102Y-118659530D01*
X124978258Y-118748502D01*
X125091498Y-118861742D01*
X125180470Y-118994898D01*
X125241758Y-119142858D01*
X125273000Y-119299925D01*
X125273000Y-119460075D01*
X125241758Y-119617142D01*
X125180470Y-119765102D01*
X125091498Y-119898258D01*
X124978258Y-120011498D01*
X124845102Y-120100470D01*
X124697142Y-120161758D01*
X124540075Y-120193000D01*
X124379925Y-120193000D01*
X124222858Y-120161758D01*
X124074898Y-120100470D01*
X123941742Y-120011498D01*
X123828502Y-119898258D01*
X123739530Y-119765102D01*
X123678242Y-119617142D01*
X123647000Y-119460075D01*
X123647000Y-119299925D01*
X123678242Y-119142858D01*
X123739530Y-118994898D01*
X123828502Y-118861742D01*
X123941742Y-118748502D01*
X124074898Y-118659530D01*
X124222858Y-118598242D01*
X124379925Y-118567000D01*
X124540075Y-118567000D01*
X124697142Y-118598242D01*
X124697142Y-118598242D01*
G37*
G36*
X122157142Y-118598242D02*
X122305102Y-118659530D01*
X122438258Y-118748502D01*
X122551498Y-118861742D01*
X122640470Y-118994898D01*
X122701758Y-119142858D01*
X122733000Y-119299925D01*
X122733000Y-119460075D01*
X122701758Y-119617142D01*
X122640470Y-119765102D01*
X122551498Y-119898258D01*
X122438258Y-120011498D01*
X122305102Y-120100470D01*
X122157142Y-120161758D01*
X122000075Y-120193000D01*
X121839925Y-120193000D01*
X121682858Y-120161758D01*
X121534898Y-120100470D01*
X121401742Y-120011498D01*
X121288502Y-119898258D01*
X121199530Y-119765102D01*
X121138242Y-119617142D01*
X121107000Y-119460075D01*
X121107000Y-119299925D01*
X121138242Y-119142858D01*
X121199530Y-118994898D01*
X121288502Y-118861742D01*
X121401742Y-118748502D01*
X121534898Y-118659530D01*
X121682858Y-118598242D01*
X121839925Y-118567000D01*
X122000075Y-118567000D01*
X122157142Y-118598242D01*
X122157142Y-118598242D01*
G37*
G36*
X109457142Y-118598242D02*
X109605102Y-118659530D01*
X109738258Y-118748502D01*
X109851498Y-118861742D01*
X109940470Y-118994898D01*
X110001758Y-119142858D01*
X110033000Y-119299925D01*
X110033000Y-119460075D01*
X110001758Y-119617142D01*
X109940470Y-119765102D01*
X109851498Y-119898258D01*
X109738258Y-120011498D01*
X109605102Y-120100470D01*
X109457142Y-120161758D01*
X109300075Y-120193000D01*
X109139925Y-120193000D01*
X108982858Y-120161758D01*
X108834898Y-120100470D01*
X108701742Y-120011498D01*
X108588502Y-119898258D01*
X108499530Y-119765102D01*
X108438242Y-119617142D01*
X108407000Y-119460075D01*
X108407000Y-119299925D01*
X108438242Y-119142858D01*
X108499530Y-118994898D01*
X108588502Y-118861742D01*
X108701742Y-118748502D01*
X108834898Y-118659530D01*
X108982858Y-118598242D01*
X109139925Y-118567000D01*
X109300075Y-118567000D01*
X109457142Y-118598242D01*
X109457142Y-118598242D01*
G37*
G36*
X76437142Y-118598242D02*
X76585102Y-118659530D01*
X76718258Y-118748502D01*
X76831498Y-118861742D01*
X76920470Y-118994898D01*
X76981758Y-119142858D01*
X77013000Y-119299925D01*
X77013000Y-119460075D01*
X76981758Y-119617142D01*
X76920470Y-119765102D01*
X76831498Y-119898258D01*
X76718258Y-120011498D01*
X76585102Y-120100470D01*
X76437142Y-120161758D01*
X76280075Y-120193000D01*
X76119925Y-120193000D01*
X75962858Y-120161758D01*
X75814898Y-120100470D01*
X75681742Y-120011498D01*
X75568502Y-119898258D01*
X75479530Y-119765102D01*
X75418242Y-119617142D01*
X75387000Y-119460075D01*
X75387000Y-119299925D01*
X75418242Y-119142858D01*
X75479530Y-118994898D01*
X75568502Y-118861742D01*
X75681742Y-118748502D01*
X75814898Y-118659530D01*
X75962858Y-118598242D01*
X76119925Y-118567000D01*
X76280075Y-118567000D01*
X76437142Y-118598242D01*
X76437142Y-118598242D01*
G37*
G36*
X64088908Y-108981380D02*
X64255767Y-109014570D01*
X64727299Y-109209885D01*
X64862277Y-109300075D01*
X65151669Y-109493441D01*
X65512559Y-109854331D01*
X65512561Y-109854334D01*
X65796115Y-110278701D01*
X65991430Y-110750233D01*
X66091000Y-111250809D01*
X66091000Y-111761191D01*
X65991430Y-112261767D01*
X65796115Y-112733299D01*
X65514474Y-113154803D01*
X65512559Y-113157669D01*
X65151669Y-113518559D01*
X65151666Y-113518561D01*
X64727299Y-113802115D01*
X64255767Y-113997430D01*
X64088908Y-114030620D01*
X63755193Y-114097000D01*
X63244807Y-114097000D01*
X62911092Y-114030620D01*
X62744233Y-113997430D01*
X62272701Y-113802115D01*
X61848334Y-113518561D01*
X61848331Y-113518559D01*
X61487441Y-113157669D01*
X61485526Y-113154803D01*
X61203885Y-112733299D01*
X61008570Y-112261767D01*
X60909000Y-111761191D01*
X60909000Y-111250809D01*
X61008570Y-110750233D01*
X61203885Y-110278701D01*
X61487439Y-109854334D01*
X61487441Y-109854331D01*
X61848331Y-109493441D01*
X62137723Y-109300075D01*
X62272701Y-109209885D01*
X62744233Y-109014570D01*
X62911092Y-108981380D01*
X63244807Y-108915000D01*
X63755193Y-108915000D01*
X64088908Y-108981380D01*
X64088908Y-108981380D01*
G37*
G36*
X135208908Y-108981380D02*
X135375767Y-109014570D01*
X135847299Y-109209885D01*
X135982277Y-109300075D01*
X136271669Y-109493441D01*
X136632559Y-109854331D01*
X136632561Y-109854334D01*
X136916115Y-110278701D01*
X137111430Y-110750233D01*
X137211000Y-111250809D01*
X137211000Y-111761191D01*
X137111430Y-112261767D01*
X136916115Y-112733299D01*
X136634474Y-113154803D01*
X136632559Y-113157669D01*
X136271669Y-113518559D01*
X136271666Y-113518561D01*
X135847299Y-113802115D01*
X135375767Y-113997430D01*
X135208908Y-114030620D01*
X134875193Y-114097000D01*
X134364807Y-114097000D01*
X134031092Y-114030620D01*
X133864233Y-113997430D01*
X133392701Y-113802115D01*
X132968334Y-113518561D01*
X132968331Y-113518559D01*
X132607441Y-113157669D01*
X132605526Y-113154803D01*
X132323885Y-112733299D01*
X132128570Y-112261767D01*
X132029000Y-111761191D01*
X132029000Y-111250809D01*
X132128570Y-110750233D01*
X132323885Y-110278701D01*
X132607439Y-109854334D01*
X132607441Y-109854331D01*
X132968331Y-109493441D01*
X133257723Y-109300075D01*
X133392701Y-109209885D01*
X133864233Y-109014570D01*
X134031092Y-108981380D01*
X134364807Y-108915000D01*
X134875193Y-108915000D01*
X135208908Y-108981380D01*
X135208908Y-108981380D01*
G37*
G36*
X76437142Y-108438242D02*
X76585102Y-108499530D01*
X76718258Y-108588502D01*
X76831498Y-108701742D01*
X76920470Y-108834898D01*
X76981758Y-108982858D01*
X77013000Y-109139925D01*
X77013000Y-109300075D01*
X76981758Y-109457142D01*
X76966723Y-109493439D01*
X76920471Y-109605100D01*
X76831499Y-109738257D01*
X76718257Y-109851499D01*
X76714014Y-109854334D01*
X76585102Y-109940470D01*
X76437142Y-110001758D01*
X76280075Y-110033000D01*
X76119925Y-110033000D01*
X75962858Y-110001758D01*
X75814898Y-109940470D01*
X75685986Y-109854334D01*
X75681743Y-109851499D01*
X75568501Y-109738257D01*
X75479529Y-109605100D01*
X75433277Y-109493439D01*
X75418242Y-109457142D01*
X75387000Y-109300075D01*
X75387000Y-109139925D01*
X75418242Y-108982858D01*
X75479530Y-108834898D01*
X75568502Y-108701742D01*
X75681742Y-108588502D01*
X75814898Y-108499530D01*
X75962858Y-108438242D01*
X76119925Y-108407000D01*
X76280075Y-108407000D01*
X76437142Y-108438242D01*
X76437142Y-108438242D01*
G37*
G36*
X124697142Y-108438242D02*
X124845102Y-108499530D01*
X124978258Y-108588502D01*
X125091498Y-108701742D01*
X125180470Y-108834898D01*
X125241758Y-108982858D01*
X125273000Y-109139925D01*
X125273000Y-109300075D01*
X125241758Y-109457142D01*
X125226723Y-109493439D01*
X125180471Y-109605100D01*
X125091499Y-109738257D01*
X124978257Y-109851499D01*
X124974014Y-109854334D01*
X124845102Y-109940470D01*
X124697142Y-110001758D01*
X124540075Y-110033000D01*
X124379925Y-110033000D01*
X124222858Y-110001758D01*
X124074898Y-109940470D01*
X123945986Y-109854334D01*
X123941743Y-109851499D01*
X123828501Y-109738257D01*
X123739529Y-109605100D01*
X123693277Y-109493439D01*
X123678242Y-109457142D01*
X123647000Y-109300075D01*
X123647000Y-109139925D01*
X123678242Y-108982858D01*
X123739530Y-108834898D01*
X123828502Y-108701742D01*
X123941742Y-108588502D01*
X124074898Y-108499530D01*
X124222858Y-108438242D01*
X124379925Y-108407000D01*
X124540075Y-108407000D01*
X124697142Y-108438242D01*
X124697142Y-108438242D01*
G37*
G36*
X122157142Y-108438242D02*
X122305102Y-108499530D01*
X122438258Y-108588502D01*
X122551498Y-108701742D01*
X122640470Y-108834898D01*
X122701758Y-108982858D01*
X122733000Y-109139925D01*
X122733000Y-109300075D01*
X122701758Y-109457142D01*
X122686723Y-109493439D01*
X122640471Y-109605100D01*
X122551499Y-109738257D01*
X122438257Y-109851499D01*
X122434014Y-109854334D01*
X122305102Y-109940470D01*
X122157142Y-110001758D01*
X122000075Y-110033000D01*
X121839925Y-110033000D01*
X121682858Y-110001758D01*
X121534898Y-109940470D01*
X121405986Y-109854334D01*
X121401743Y-109851499D01*
X121288501Y-109738257D01*
X121199529Y-109605100D01*
X121153277Y-109493439D01*
X121138242Y-109457142D01*
X121107000Y-109300075D01*
X121107000Y-109139925D01*
X121138242Y-108982858D01*
X121199530Y-108834898D01*
X121288502Y-108701742D01*
X121401742Y-108588502D01*
X121534898Y-108499530D01*
X121682858Y-108438242D01*
X121839925Y-108407000D01*
X122000075Y-108407000D01*
X122157142Y-108438242D01*
X122157142Y-108438242D01*
G37*
G36*
X119617142Y-108438242D02*
X119765102Y-108499530D01*
X119898258Y-108588502D01*
X120011498Y-108701742D01*
X120100470Y-108834898D01*
X120161758Y-108982858D01*
X120193000Y-109139925D01*
X120193000Y-109300075D01*
X120161758Y-109457142D01*
X120146723Y-109493439D01*
X120100471Y-109605100D01*
X120011499Y-109738257D01*
X119898257Y-109851499D01*
X119894014Y-109854334D01*
X119765102Y-109940470D01*
X119617142Y-110001758D01*
X119460075Y-110033000D01*
X119299925Y-110033000D01*
X119142858Y-110001758D01*
X118994898Y-109940470D01*
X118865986Y-109854334D01*
X118861743Y-109851499D01*
X118748501Y-109738257D01*
X118659529Y-109605100D01*
X118613277Y-109493439D01*
X118598242Y-109457142D01*
X118567000Y-109300075D01*
X118567000Y-109139925D01*
X118598242Y-108982858D01*
X118659530Y-108834898D01*
X118748502Y-108701742D01*
X118861742Y-108588502D01*
X118994898Y-108499530D01*
X119142858Y-108438242D01*
X119299925Y-108407000D01*
X119460075Y-108407000D01*
X119617142Y-108438242D01*
X119617142Y-108438242D01*
G37*
G36*
X104377142Y-108438242D02*
X104525102Y-108499530D01*
X104658258Y-108588502D01*
X104771498Y-108701742D01*
X104860470Y-108834898D01*
X104921758Y-108982858D01*
X104953000Y-109139925D01*
X104953000Y-109300075D01*
X104921758Y-109457142D01*
X104906723Y-109493439D01*
X104860471Y-109605100D01*
X104771499Y-109738257D01*
X104658257Y-109851499D01*
X104654014Y-109854334D01*
X104525102Y-109940470D01*
X104377142Y-110001758D01*
X104220075Y-110033000D01*
X104059925Y-110033000D01*
X103902858Y-110001758D01*
X103754898Y-109940470D01*
X103625986Y-109854334D01*
X103621743Y-109851499D01*
X103508501Y-109738257D01*
X103419529Y-109605100D01*
X103373277Y-109493439D01*
X103358242Y-109457142D01*
X103327000Y-109300075D01*
X103327000Y-109139925D01*
X103358242Y-108982858D01*
X103419530Y-108834898D01*
X103508502Y-108701742D01*
X103621742Y-108588502D01*
X103754898Y-108499530D01*
X103902858Y-108438242D01*
X104059925Y-108407000D01*
X104220075Y-108407000D01*
X104377142Y-108438242D01*
X104377142Y-108438242D01*
G37*
G36*
X106917142Y-108438242D02*
X107065102Y-108499530D01*
X107198258Y-108588502D01*
X107311498Y-108701742D01*
X107400470Y-108834898D01*
X107461758Y-108982858D01*
X107493000Y-109139925D01*
X107493000Y-109300075D01*
X107461758Y-109457142D01*
X107446723Y-109493439D01*
X107400471Y-109605100D01*
X107311499Y-109738257D01*
X107198257Y-109851499D01*
X107194014Y-109854334D01*
X107065102Y-109940470D01*
X106917142Y-110001758D01*
X106760075Y-110033000D01*
X106599925Y-110033000D01*
X106442858Y-110001758D01*
X106294898Y-109940470D01*
X106165986Y-109854334D01*
X106161743Y-109851499D01*
X106048501Y-109738257D01*
X105959529Y-109605100D01*
X105913277Y-109493439D01*
X105898242Y-109457142D01*
X105867000Y-109300075D01*
X105867000Y-109139925D01*
X105898242Y-108982858D01*
X105959530Y-108834898D01*
X106048502Y-108701742D01*
X106161742Y-108588502D01*
X106294898Y-108499530D01*
X106442858Y-108438242D01*
X106599925Y-108407000D01*
X106760075Y-108407000D01*
X106917142Y-108438242D01*
X106917142Y-108438242D01*
G37*
G36*
X94217142Y-108438242D02*
X94365102Y-108499530D01*
X94498258Y-108588502D01*
X94611498Y-108701742D01*
X94700470Y-108834898D01*
X94761758Y-108982858D01*
X94793000Y-109139925D01*
X94793000Y-109300075D01*
X94761758Y-109457142D01*
X94746723Y-109493439D01*
X94700471Y-109605100D01*
X94611499Y-109738257D01*
X94498257Y-109851499D01*
X94494014Y-109854334D01*
X94365102Y-109940470D01*
X94217142Y-110001758D01*
X94060075Y-110033000D01*
X93899925Y-110033000D01*
X93742858Y-110001758D01*
X93594898Y-109940470D01*
X93465986Y-109854334D01*
X93461743Y-109851499D01*
X93348501Y-109738257D01*
X93259529Y-109605100D01*
X93213277Y-109493439D01*
X93198242Y-109457142D01*
X93167000Y-109300075D01*
X93167000Y-109139925D01*
X93198242Y-108982858D01*
X93259530Y-108834898D01*
X93348502Y-108701742D01*
X93461742Y-108588502D01*
X93594898Y-108499530D01*
X93742858Y-108438242D01*
X93899925Y-108407000D01*
X94060075Y-108407000D01*
X94217142Y-108438242D01*
X94217142Y-108438242D01*
G37*
G36*
X89137142Y-108438242D02*
X89285102Y-108499530D01*
X89418258Y-108588502D01*
X89531498Y-108701742D01*
X89620470Y-108834898D01*
X89681758Y-108982858D01*
X89713000Y-109139925D01*
X89713000Y-109300075D01*
X89681758Y-109457142D01*
X89666723Y-109493439D01*
X89620471Y-109605100D01*
X89531499Y-109738257D01*
X89418257Y-109851499D01*
X89414014Y-109854334D01*
X89285102Y-109940470D01*
X89137142Y-110001758D01*
X88980075Y-110033000D01*
X88819925Y-110033000D01*
X88662858Y-110001758D01*
X88514898Y-109940470D01*
X88385986Y-109854334D01*
X88381743Y-109851499D01*
X88268501Y-109738257D01*
X88179529Y-109605100D01*
X88133277Y-109493439D01*
X88118242Y-109457142D01*
X88087000Y-109300075D01*
X88087000Y-109139925D01*
X88118242Y-108982858D01*
X88179530Y-108834898D01*
X88268502Y-108701742D01*
X88381742Y-108588502D01*
X88514898Y-108499530D01*
X88662858Y-108438242D01*
X88819925Y-108407000D01*
X88980075Y-108407000D01*
X89137142Y-108438242D01*
X89137142Y-108438242D01*
G37*
G36*
X73897142Y-108438242D02*
X74045102Y-108499530D01*
X74178258Y-108588502D01*
X74291498Y-108701742D01*
X74380470Y-108834898D01*
X74441758Y-108982858D01*
X74473000Y-109139925D01*
X74473000Y-109300075D01*
X74441758Y-109457142D01*
X74426723Y-109493439D01*
X74380471Y-109605100D01*
X74291499Y-109738257D01*
X74178257Y-109851499D01*
X74174014Y-109854334D01*
X74045102Y-109940470D01*
X73897142Y-110001758D01*
X73740075Y-110033000D01*
X73579925Y-110033000D01*
X73422858Y-110001758D01*
X73274898Y-109940470D01*
X73145986Y-109854334D01*
X73141743Y-109851499D01*
X73028501Y-109738257D01*
X72939529Y-109605100D01*
X72893277Y-109493439D01*
X72878242Y-109457142D01*
X72847000Y-109300075D01*
X72847000Y-109139925D01*
X72878242Y-108982858D01*
X72939530Y-108834898D01*
X73028502Y-108701742D01*
X73141742Y-108588502D01*
X73274898Y-108499530D01*
X73422858Y-108438242D01*
X73579925Y-108407000D01*
X73740075Y-108407000D01*
X73897142Y-108438242D01*
X73897142Y-108438242D01*
G37*
G36*
X78977142Y-108438242D02*
X79125102Y-108499530D01*
X79258258Y-108588502D01*
X79371498Y-108701742D01*
X79460470Y-108834898D01*
X79521758Y-108982858D01*
X79553000Y-109139925D01*
X79553000Y-109300075D01*
X79521758Y-109457142D01*
X79506723Y-109493439D01*
X79460471Y-109605100D01*
X79371499Y-109738257D01*
X79258257Y-109851499D01*
X79254014Y-109854334D01*
X79125102Y-109940470D01*
X78977142Y-110001758D01*
X78820075Y-110033000D01*
X78659925Y-110033000D01*
X78502858Y-110001758D01*
X78354898Y-109940470D01*
X78225986Y-109854334D01*
X78221743Y-109851499D01*
X78108501Y-109738257D01*
X78019529Y-109605100D01*
X77973277Y-109493439D01*
X77958242Y-109457142D01*
X77927000Y-109300075D01*
X77927000Y-109139925D01*
X77958242Y-108982858D01*
X78019530Y-108834898D01*
X78108502Y-108701742D01*
X78221742Y-108588502D01*
X78354898Y-108499530D01*
X78502858Y-108438242D01*
X78659925Y-108407000D01*
X78820075Y-108407000D01*
X78977142Y-108438242D01*
X78977142Y-108438242D01*
G37*
G36*
X91677142Y-108438242D02*
X91825102Y-108499530D01*
X91958258Y-108588502D01*
X92071498Y-108701742D01*
X92160470Y-108834898D01*
X92221758Y-108982858D01*
X92253000Y-109139925D01*
X92253000Y-109300075D01*
X92221758Y-109457142D01*
X92206723Y-109493439D01*
X92160471Y-109605100D01*
X92071499Y-109738257D01*
X91958257Y-109851499D01*
X91954014Y-109854334D01*
X91825102Y-109940470D01*
X91677142Y-110001758D01*
X91520075Y-110033000D01*
X91359925Y-110033000D01*
X91202858Y-110001758D01*
X91054898Y-109940470D01*
X90925986Y-109854334D01*
X90921743Y-109851499D01*
X90808501Y-109738257D01*
X90719529Y-109605100D01*
X90673277Y-109493439D01*
X90658242Y-109457142D01*
X90627000Y-109300075D01*
X90627000Y-109139925D01*
X90658242Y-108982858D01*
X90719530Y-108834898D01*
X90808502Y-108701742D01*
X90921742Y-108588502D01*
X91054898Y-108499530D01*
X91202858Y-108438242D01*
X91359925Y-108407000D01*
X91520075Y-108407000D01*
X91677142Y-108438242D01*
X91677142Y-108438242D01*
G37*
G36*
X109457142Y-108438242D02*
X109605102Y-108499530D01*
X109738258Y-108588502D01*
X109851498Y-108701742D01*
X109940470Y-108834898D01*
X110001758Y-108982858D01*
X110033000Y-109139925D01*
X110033000Y-109300075D01*
X110001758Y-109457142D01*
X109986723Y-109493439D01*
X109940471Y-109605100D01*
X109851499Y-109738257D01*
X109738257Y-109851499D01*
X109734014Y-109854334D01*
X109605102Y-109940470D01*
X109457142Y-110001758D01*
X109300075Y-110033000D01*
X109139925Y-110033000D01*
X108982858Y-110001758D01*
X108834898Y-109940470D01*
X108705986Y-109854334D01*
X108701743Y-109851499D01*
X108588501Y-109738257D01*
X108499529Y-109605100D01*
X108453277Y-109493439D01*
X108438242Y-109457142D01*
X108407000Y-109300075D01*
X108407000Y-109139925D01*
X108438242Y-108982858D01*
X108499530Y-108834898D01*
X108588502Y-108701742D01*
X108701742Y-108588502D01*
X108834898Y-108499530D01*
X108982858Y-108438242D01*
X109139925Y-108407000D01*
X109300075Y-108407000D01*
X109457142Y-108438242D01*
X109457142Y-108438242D01*
G37*
G36*
X130920443Y-103245519D02*
X130986627Y-103252037D01*
X131099853Y-103286384D01*
X131156467Y-103303557D01*
X131258774Y-103358242D01*
X131312991Y-103387222D01*
X131348729Y-103416552D01*
X131450186Y-103499814D01*
X131533448Y-103601271D01*
X131562778Y-103637009D01*
X131562779Y-103637011D01*
X131646443Y-103793533D01*
X131646443Y-103793534D01*
X131697963Y-103963373D01*
X131715359Y-104140000D01*
X131697963Y-104316627D01*
X131663616Y-104429853D01*
X131646443Y-104486467D01*
X131572348Y-104625087D01*
X131562778Y-104642991D01*
X131533448Y-104678729D01*
X131450186Y-104780186D01*
X131352358Y-104860470D01*
X131312991Y-104892778D01*
X131312989Y-104892779D01*
X131156467Y-104976443D01*
X131099853Y-104993616D01*
X130986627Y-105027963D01*
X130920442Y-105034482D01*
X130854260Y-105041000D01*
X130765740Y-105041000D01*
X130699557Y-105034481D01*
X130633373Y-105027963D01*
X130520147Y-104993616D01*
X130463533Y-104976443D01*
X130307011Y-104892779D01*
X130307009Y-104892778D01*
X130267642Y-104860470D01*
X130169814Y-104780186D01*
X130086552Y-104678729D01*
X130057222Y-104642991D01*
X130047652Y-104625087D01*
X129973557Y-104486467D01*
X129956384Y-104429853D01*
X129922037Y-104316627D01*
X129904641Y-104140000D01*
X129922037Y-103963373D01*
X129973557Y-103793534D01*
X129973557Y-103793533D01*
X130057221Y-103637011D01*
X130057222Y-103637009D01*
X130086552Y-103601271D01*
X130169814Y-103499814D01*
X130271271Y-103416552D01*
X130307009Y-103387222D01*
X130361226Y-103358242D01*
X130463533Y-103303557D01*
X130520147Y-103286384D01*
X130633373Y-103252037D01*
X130699558Y-103245518D01*
X130765740Y-103239000D01*
X130854260Y-103239000D01*
X130920443Y-103245519D01*
X130920443Y-103245519D01*
G37*
G36*
X137397142Y-103358242D02*
X137545102Y-103419530D01*
X137612130Y-103464317D01*
X137678257Y-103508501D01*
X137791499Y-103621743D01*
X137835683Y-103687870D01*
X137880470Y-103754898D01*
X137941758Y-103902858D01*
X137973000Y-104059925D01*
X137973000Y-104220075D01*
X137941758Y-104377142D01*
X137896474Y-104486466D01*
X137880471Y-104525100D01*
X137791499Y-104658257D01*
X137678257Y-104771499D01*
X137612130Y-104815683D01*
X137545102Y-104860470D01*
X137397142Y-104921758D01*
X137240075Y-104953000D01*
X137079925Y-104953000D01*
X136922858Y-104921758D01*
X136774898Y-104860470D01*
X136707870Y-104815683D01*
X136641743Y-104771499D01*
X136528501Y-104658257D01*
X136439529Y-104525100D01*
X136423526Y-104486466D01*
X136378242Y-104377142D01*
X136347000Y-104220075D01*
X136347000Y-104059925D01*
X136378242Y-103902858D01*
X136439530Y-103754898D01*
X136484317Y-103687870D01*
X136528501Y-103621743D01*
X136641743Y-103508501D01*
X136707870Y-103464317D01*
X136774898Y-103419530D01*
X136922858Y-103358242D01*
X137079925Y-103327000D01*
X137240075Y-103327000D01*
X137397142Y-103358242D01*
X137397142Y-103358242D01*
G37*
G36*
X51097357Y-100105087D02*
X51244593Y-100134374D01*
X51521979Y-100249271D01*
X51761146Y-100409078D01*
X51771624Y-100416079D01*
X51983921Y-100628376D01*
X51983923Y-100628379D01*
X52150729Y-100878021D01*
X52265626Y-101155407D01*
X52265626Y-101155408D01*
X52324200Y-101449878D01*
X52324200Y-101750122D01*
X52306890Y-101837143D01*
X52265626Y-102044593D01*
X52150729Y-102321979D01*
X51985047Y-102569938D01*
X51983921Y-102571624D01*
X51771624Y-102783921D01*
X51771621Y-102783923D01*
X51521979Y-102950729D01*
X51244593Y-103065626D01*
X51097357Y-103094913D01*
X50950122Y-103124200D01*
X50649878Y-103124200D01*
X50502643Y-103094913D01*
X50355407Y-103065626D01*
X50078021Y-102950729D01*
X49828379Y-102783923D01*
X49828376Y-102783921D01*
X49616079Y-102571624D01*
X49614953Y-102569938D01*
X49449271Y-102321979D01*
X49334374Y-102044593D01*
X49293110Y-101837143D01*
X49275800Y-101750122D01*
X49275800Y-101449878D01*
X49334374Y-101155408D01*
X49334374Y-101155407D01*
X49449271Y-100878021D01*
X49616077Y-100628379D01*
X49616079Y-100628376D01*
X49828376Y-100416079D01*
X49838854Y-100409078D01*
X50078021Y-100249271D01*
X50355407Y-100134374D01*
X50502643Y-100105087D01*
X50649878Y-100075800D01*
X50950122Y-100075800D01*
X51097357Y-100105087D01*
X51097357Y-100105087D01*
G37*
G36*
X147617357Y-100105087D02*
X147764593Y-100134374D01*
X148041979Y-100249271D01*
X148281146Y-100409078D01*
X148291624Y-100416079D01*
X148503921Y-100628376D01*
X148503923Y-100628379D01*
X148670729Y-100878021D01*
X148785626Y-101155407D01*
X148785626Y-101155408D01*
X148844200Y-101449878D01*
X148844200Y-101750122D01*
X148826890Y-101837143D01*
X148785626Y-102044593D01*
X148670729Y-102321979D01*
X148505047Y-102569938D01*
X148503921Y-102571624D01*
X148291624Y-102783921D01*
X148291621Y-102783923D01*
X148041979Y-102950729D01*
X147764593Y-103065626D01*
X147617357Y-103094913D01*
X147470122Y-103124200D01*
X147169878Y-103124200D01*
X147022643Y-103094913D01*
X146875407Y-103065626D01*
X146598021Y-102950729D01*
X146348379Y-102783923D01*
X146348376Y-102783921D01*
X146136079Y-102571624D01*
X146134953Y-102569938D01*
X145969271Y-102321979D01*
X145854374Y-102044593D01*
X145813110Y-101837143D01*
X145795800Y-101750122D01*
X145795800Y-101449878D01*
X145854374Y-101155408D01*
X145854374Y-101155407D01*
X145969271Y-100878021D01*
X146136077Y-100628379D01*
X146136079Y-100628376D01*
X146348376Y-100416079D01*
X146358854Y-100409078D01*
X146598021Y-100249271D01*
X146875407Y-100134374D01*
X147022643Y-100105087D01*
X147169878Y-100075800D01*
X147470122Y-100075800D01*
X147617357Y-100105087D01*
X147617357Y-100105087D01*
G37*
G36*
X130920443Y-100705519D02*
X130986627Y-100712037D01*
X131099853Y-100746384D01*
X131156467Y-100763557D01*
X131258774Y-100818242D01*
X131312991Y-100847222D01*
X131348729Y-100876552D01*
X131450186Y-100959814D01*
X131533448Y-101061271D01*
X131562778Y-101097009D01*
X131565467Y-101102040D01*
X131646443Y-101253533D01*
X131646443Y-101253534D01*
X131697963Y-101423373D01*
X131715359Y-101600000D01*
X131697963Y-101776627D01*
X131663616Y-101889853D01*
X131646443Y-101946467D01*
X131593993Y-102044592D01*
X131562778Y-102102991D01*
X131533448Y-102138729D01*
X131450186Y-102240186D01*
X131352358Y-102320470D01*
X131312991Y-102352778D01*
X131312989Y-102352779D01*
X131156467Y-102436443D01*
X131099853Y-102453616D01*
X130986627Y-102487963D01*
X130920442Y-102494482D01*
X130854260Y-102501000D01*
X130765740Y-102501000D01*
X130699558Y-102494482D01*
X130633373Y-102487963D01*
X130520147Y-102453616D01*
X130463533Y-102436443D01*
X130307011Y-102352779D01*
X130307009Y-102352778D01*
X130267642Y-102320470D01*
X130169814Y-102240186D01*
X130086552Y-102138729D01*
X130057222Y-102102991D01*
X130026007Y-102044592D01*
X129973557Y-101946467D01*
X129956384Y-101889853D01*
X129922037Y-101776627D01*
X129904641Y-101600000D01*
X129922037Y-101423373D01*
X129973557Y-101253534D01*
X129973557Y-101253533D01*
X130054533Y-101102040D01*
X130057222Y-101097009D01*
X130086552Y-101061271D01*
X130169814Y-100959814D01*
X130271271Y-100876552D01*
X130307009Y-100847222D01*
X130361226Y-100818242D01*
X130463533Y-100763557D01*
X130520147Y-100746384D01*
X130633373Y-100712037D01*
X130699557Y-100705519D01*
X130765740Y-100699000D01*
X130854260Y-100699000D01*
X130920443Y-100705519D01*
X130920443Y-100705519D01*
G37*
G36*
X137397142Y-100818242D02*
X137511583Y-100865646D01*
X137541462Y-100878022D01*
X137545102Y-100879530D01*
X137612130Y-100924317D01*
X137678257Y-100968501D01*
X137791499Y-101081743D01*
X137805059Y-101102037D01*
X137880470Y-101214898D01*
X137941758Y-101362858D01*
X137973000Y-101519925D01*
X137973000Y-101680075D01*
X137941758Y-101837142D01*
X137896474Y-101946466D01*
X137880471Y-101985100D01*
X137791499Y-102118257D01*
X137678257Y-102231499D01*
X137612130Y-102275683D01*
X137545102Y-102320470D01*
X137545101Y-102320471D01*
X137545100Y-102320471D01*
X137541459Y-102321979D01*
X137397142Y-102381758D01*
X137240075Y-102413000D01*
X137079925Y-102413000D01*
X136922858Y-102381758D01*
X136778541Y-102321979D01*
X136774900Y-102320471D01*
X136774899Y-102320471D01*
X136774898Y-102320470D01*
X136707870Y-102275683D01*
X136641743Y-102231499D01*
X136528501Y-102118257D01*
X136439529Y-101985100D01*
X136423526Y-101946466D01*
X136378242Y-101837142D01*
X136347000Y-101680075D01*
X136347000Y-101519925D01*
X136378242Y-101362858D01*
X136439530Y-101214898D01*
X136514941Y-101102037D01*
X136528501Y-101081743D01*
X136641743Y-100968501D01*
X136707870Y-100924317D01*
X136774898Y-100879530D01*
X136778539Y-100878022D01*
X136808417Y-100865646D01*
X136922858Y-100818242D01*
X137079925Y-100787000D01*
X137240075Y-100787000D01*
X137397142Y-100818242D01*
X137397142Y-100818242D01*
G37*
G36*
X88148037Y-98876250D02*
X88148039Y-98876251D01*
X88148040Y-98876251D01*
X88471251Y-99010129D01*
X88471252Y-99010130D01*
X88762137Y-99204493D01*
X89009507Y-99451863D01*
X89009509Y-99451866D01*
X89203871Y-99742749D01*
X89294273Y-99961000D01*
X89337750Y-100065963D01*
X89406000Y-100409078D01*
X89406000Y-100758922D01*
X89338750Y-101097011D01*
X89337749Y-101102040D01*
X89203871Y-101425251D01*
X89187415Y-101449879D01*
X89009507Y-101716137D01*
X88762137Y-101963507D01*
X88762134Y-101963509D01*
X88471251Y-102157871D01*
X88148040Y-102291749D01*
X88148039Y-102291749D01*
X88148037Y-102291750D01*
X87804922Y-102360000D01*
X87455078Y-102360000D01*
X87111963Y-102291750D01*
X87111961Y-102291749D01*
X87111960Y-102291749D01*
X86788749Y-102157871D01*
X86497866Y-101963509D01*
X86497863Y-101963507D01*
X86250493Y-101716137D01*
X86072585Y-101449879D01*
X86056129Y-101425251D01*
X85922251Y-101102040D01*
X85921251Y-101097011D01*
X85854000Y-100758922D01*
X85854000Y-100409078D01*
X85922250Y-100065963D01*
X85965727Y-99961000D01*
X86056129Y-99742749D01*
X86250491Y-99451866D01*
X86250493Y-99451863D01*
X86497863Y-99204493D01*
X86788748Y-99010130D01*
X86788749Y-99010129D01*
X87111960Y-98876251D01*
X87111961Y-98876251D01*
X87111963Y-98876250D01*
X87455078Y-98808000D01*
X87804922Y-98808000D01*
X88148037Y-98876250D01*
X88148037Y-98876250D01*
G37*
G36*
X126248037Y-98876250D02*
X126248039Y-98876251D01*
X126248040Y-98876251D01*
X126571251Y-99010129D01*
X126571252Y-99010130D01*
X126862137Y-99204493D01*
X127109507Y-99451863D01*
X127109509Y-99451866D01*
X127303871Y-99742749D01*
X127394273Y-99961000D01*
X127437750Y-100065963D01*
X127506000Y-100409078D01*
X127506000Y-100758922D01*
X127438750Y-101097011D01*
X127437749Y-101102040D01*
X127303871Y-101425251D01*
X127287415Y-101449879D01*
X127109507Y-101716137D01*
X126862137Y-101963507D01*
X126862134Y-101963509D01*
X126571251Y-102157871D01*
X126248040Y-102291749D01*
X126248039Y-102291749D01*
X126248037Y-102291750D01*
X125904922Y-102360000D01*
X125555078Y-102360000D01*
X125211963Y-102291750D01*
X125211961Y-102291749D01*
X125211960Y-102291749D01*
X124888749Y-102157871D01*
X124597866Y-101963509D01*
X124597863Y-101963507D01*
X124350493Y-101716137D01*
X124172585Y-101449879D01*
X124156129Y-101425251D01*
X124022251Y-101102040D01*
X124021251Y-101097011D01*
X123954000Y-100758922D01*
X123954000Y-100409078D01*
X124022250Y-100065963D01*
X124065727Y-99961000D01*
X124156129Y-99742749D01*
X124350491Y-99451866D01*
X124350493Y-99451863D01*
X124597863Y-99204493D01*
X124888748Y-99010130D01*
X124888749Y-99010129D01*
X125211960Y-98876251D01*
X125211961Y-98876251D01*
X125211963Y-98876250D01*
X125555078Y-98808000D01*
X125904922Y-98808000D01*
X126248037Y-98876250D01*
X126248037Y-98876250D01*
G37*
G36*
X118628037Y-98876250D02*
X118628039Y-98876251D01*
X118628040Y-98876251D01*
X118951251Y-99010129D01*
X118951252Y-99010130D01*
X119242137Y-99204493D01*
X119489507Y-99451863D01*
X119489509Y-99451866D01*
X119683871Y-99742749D01*
X119774273Y-99961000D01*
X119817750Y-100065963D01*
X119886000Y-100409078D01*
X119886000Y-100758922D01*
X119818750Y-101097011D01*
X119817749Y-101102040D01*
X119683871Y-101425251D01*
X119667415Y-101449879D01*
X119489507Y-101716137D01*
X119242137Y-101963507D01*
X119242134Y-101963509D01*
X118951251Y-102157871D01*
X118628040Y-102291749D01*
X118628039Y-102291749D01*
X118628037Y-102291750D01*
X118284922Y-102360000D01*
X117935078Y-102360000D01*
X117591963Y-102291750D01*
X117591961Y-102291749D01*
X117591960Y-102291749D01*
X117268749Y-102157871D01*
X116977866Y-101963509D01*
X116977863Y-101963507D01*
X116730493Y-101716137D01*
X116552585Y-101449879D01*
X116536129Y-101425251D01*
X116402251Y-101102040D01*
X116401251Y-101097011D01*
X116334000Y-100758922D01*
X116334000Y-100409078D01*
X116402250Y-100065963D01*
X116445727Y-99961000D01*
X116536129Y-99742749D01*
X116730491Y-99451866D01*
X116730493Y-99451863D01*
X116977863Y-99204493D01*
X117268748Y-99010130D01*
X117268749Y-99010129D01*
X117591960Y-98876251D01*
X117591961Y-98876251D01*
X117591963Y-98876250D01*
X117935078Y-98808000D01*
X118284922Y-98808000D01*
X118628037Y-98876250D01*
X118628037Y-98876250D01*
G37*
G36*
X111008037Y-98876250D02*
X111008039Y-98876251D01*
X111008040Y-98876251D01*
X111331251Y-99010129D01*
X111331252Y-99010130D01*
X111622137Y-99204493D01*
X111869507Y-99451863D01*
X111869509Y-99451866D01*
X112063871Y-99742749D01*
X112154273Y-99961000D01*
X112197750Y-100065963D01*
X112266000Y-100409078D01*
X112266000Y-100758922D01*
X112198750Y-101097011D01*
X112197749Y-101102040D01*
X112063871Y-101425251D01*
X112047415Y-101449879D01*
X111869507Y-101716137D01*
X111622137Y-101963507D01*
X111622134Y-101963509D01*
X111331251Y-102157871D01*
X111008040Y-102291749D01*
X111008039Y-102291749D01*
X111008037Y-102291750D01*
X110664922Y-102360000D01*
X110315078Y-102360000D01*
X109971963Y-102291750D01*
X109971961Y-102291749D01*
X109971960Y-102291749D01*
X109648749Y-102157871D01*
X109357866Y-101963509D01*
X109357863Y-101963507D01*
X109110493Y-101716137D01*
X108932585Y-101449879D01*
X108916129Y-101425251D01*
X108782251Y-101102040D01*
X108781251Y-101097011D01*
X108714000Y-100758922D01*
X108714000Y-100409078D01*
X108782250Y-100065963D01*
X108825727Y-99961000D01*
X108916129Y-99742749D01*
X109110491Y-99451866D01*
X109110493Y-99451863D01*
X109357863Y-99204493D01*
X109648748Y-99010130D01*
X109648749Y-99010129D01*
X109971960Y-98876251D01*
X109971961Y-98876251D01*
X109971963Y-98876250D01*
X110315078Y-98808000D01*
X110664922Y-98808000D01*
X111008037Y-98876250D01*
X111008037Y-98876250D01*
G37*
G36*
X103388037Y-98876250D02*
X103388039Y-98876251D01*
X103388040Y-98876251D01*
X103711251Y-99010129D01*
X103711252Y-99010130D01*
X104002137Y-99204493D01*
X104249507Y-99451863D01*
X104249509Y-99451866D01*
X104443871Y-99742749D01*
X104534273Y-99961000D01*
X104577750Y-100065963D01*
X104646000Y-100409078D01*
X104646000Y-100758922D01*
X104578750Y-101097011D01*
X104577749Y-101102040D01*
X104443871Y-101425251D01*
X104427415Y-101449879D01*
X104249507Y-101716137D01*
X104002137Y-101963507D01*
X104002134Y-101963509D01*
X103711251Y-102157871D01*
X103388040Y-102291749D01*
X103388039Y-102291749D01*
X103388037Y-102291750D01*
X103044922Y-102360000D01*
X102695078Y-102360000D01*
X102351963Y-102291750D01*
X102351961Y-102291749D01*
X102351960Y-102291749D01*
X102028749Y-102157871D01*
X101737866Y-101963509D01*
X101737863Y-101963507D01*
X101490493Y-101716137D01*
X101312585Y-101449879D01*
X101296129Y-101425251D01*
X101162251Y-101102040D01*
X101161251Y-101097011D01*
X101094000Y-100758922D01*
X101094000Y-100409078D01*
X101162250Y-100065963D01*
X101205727Y-99961000D01*
X101296129Y-99742749D01*
X101490491Y-99451866D01*
X101490493Y-99451863D01*
X101737863Y-99204493D01*
X102028748Y-99010130D01*
X102028749Y-99010129D01*
X102351960Y-98876251D01*
X102351961Y-98876251D01*
X102351963Y-98876250D01*
X102695078Y-98808000D01*
X103044922Y-98808000D01*
X103388037Y-98876250D01*
X103388037Y-98876250D01*
G37*
G36*
X95768037Y-98876250D02*
X95768039Y-98876251D01*
X95768040Y-98876251D01*
X96091251Y-99010129D01*
X96091252Y-99010130D01*
X96382137Y-99204493D01*
X96629507Y-99451863D01*
X96629509Y-99451866D01*
X96823871Y-99742749D01*
X96914273Y-99961000D01*
X96957750Y-100065963D01*
X97026000Y-100409078D01*
X97026000Y-100758922D01*
X96958750Y-101097011D01*
X96957749Y-101102040D01*
X96823871Y-101425251D01*
X96807415Y-101449879D01*
X96629507Y-101716137D01*
X96382137Y-101963507D01*
X96382134Y-101963509D01*
X96091251Y-102157871D01*
X95768040Y-102291749D01*
X95768039Y-102291749D01*
X95768037Y-102291750D01*
X95424922Y-102360000D01*
X95075078Y-102360000D01*
X94731963Y-102291750D01*
X94731961Y-102291749D01*
X94731960Y-102291749D01*
X94408749Y-102157871D01*
X94117866Y-101963509D01*
X94117863Y-101963507D01*
X93870493Y-101716137D01*
X93692585Y-101449879D01*
X93676129Y-101425251D01*
X93542251Y-101102040D01*
X93541251Y-101097011D01*
X93474000Y-100758922D01*
X93474000Y-100409078D01*
X93542250Y-100065963D01*
X93585727Y-99961000D01*
X93676129Y-99742749D01*
X93870491Y-99451866D01*
X93870493Y-99451863D01*
X94117863Y-99204493D01*
X94408748Y-99010130D01*
X94408749Y-99010129D01*
X94731960Y-98876251D01*
X94731961Y-98876251D01*
X94731963Y-98876250D01*
X95075078Y-98808000D01*
X95424922Y-98808000D01*
X95768037Y-98876250D01*
X95768037Y-98876250D01*
G37*
G36*
X80528037Y-98876250D02*
X80528039Y-98876251D01*
X80528040Y-98876251D01*
X80851251Y-99010129D01*
X80851252Y-99010130D01*
X81142137Y-99204493D01*
X81389507Y-99451863D01*
X81389509Y-99451866D01*
X81583871Y-99742749D01*
X81674273Y-99961000D01*
X81717750Y-100065963D01*
X81786000Y-100409078D01*
X81786000Y-100758922D01*
X81718750Y-101097011D01*
X81717749Y-101102040D01*
X81583871Y-101425251D01*
X81567415Y-101449879D01*
X81389507Y-101716137D01*
X81142137Y-101963507D01*
X81142134Y-101963509D01*
X80851251Y-102157871D01*
X80528040Y-102291749D01*
X80528039Y-102291749D01*
X80528037Y-102291750D01*
X80184922Y-102360000D01*
X79835078Y-102360000D01*
X79491963Y-102291750D01*
X79491961Y-102291749D01*
X79491960Y-102291749D01*
X79168749Y-102157871D01*
X78877866Y-101963509D01*
X78877863Y-101963507D01*
X78630493Y-101716137D01*
X78452585Y-101449879D01*
X78436129Y-101425251D01*
X78302251Y-101102040D01*
X78301251Y-101097011D01*
X78234000Y-100758922D01*
X78234000Y-100409078D01*
X78302250Y-100065963D01*
X78345727Y-99961000D01*
X78436129Y-99742749D01*
X78630491Y-99451866D01*
X78630493Y-99451863D01*
X78877863Y-99204493D01*
X79168748Y-99010130D01*
X79168749Y-99010129D01*
X79491960Y-98876251D01*
X79491961Y-98876251D01*
X79491963Y-98876250D01*
X79835078Y-98808000D01*
X80184922Y-98808000D01*
X80528037Y-98876250D01*
X80528037Y-98876250D01*
G37*
G36*
X72908037Y-98876250D02*
X72908039Y-98876251D01*
X72908040Y-98876251D01*
X73231251Y-99010129D01*
X73231252Y-99010130D01*
X73522137Y-99204493D01*
X73769507Y-99451863D01*
X73769509Y-99451866D01*
X73963871Y-99742749D01*
X74054273Y-99961000D01*
X74097750Y-100065963D01*
X74166000Y-100409078D01*
X74166000Y-100758922D01*
X74098750Y-101097011D01*
X74097749Y-101102040D01*
X73963871Y-101425251D01*
X73947415Y-101449879D01*
X73769507Y-101716137D01*
X73522137Y-101963507D01*
X73522134Y-101963509D01*
X73231251Y-102157871D01*
X72908040Y-102291749D01*
X72908039Y-102291749D01*
X72908037Y-102291750D01*
X72564922Y-102360000D01*
X72215078Y-102360000D01*
X71871963Y-102291750D01*
X71871961Y-102291749D01*
X71871960Y-102291749D01*
X71548749Y-102157871D01*
X71257866Y-101963509D01*
X71257863Y-101963507D01*
X71010493Y-101716137D01*
X70832585Y-101449879D01*
X70816129Y-101425251D01*
X70682251Y-101102040D01*
X70681251Y-101097011D01*
X70614000Y-100758922D01*
X70614000Y-100409078D01*
X70682250Y-100065963D01*
X70725727Y-99961000D01*
X70816129Y-99742749D01*
X71010491Y-99451866D01*
X71010493Y-99451863D01*
X71257863Y-99204493D01*
X71548748Y-99010130D01*
X71548749Y-99010129D01*
X71871960Y-98876251D01*
X71871961Y-98876251D01*
X71871963Y-98876250D01*
X72215078Y-98808000D01*
X72564922Y-98808000D01*
X72908037Y-98876250D01*
X72908037Y-98876250D01*
G37*
G36*
X131711000Y-99961000D02*
X129909000Y-99961000D01*
X129909000Y-98159000D01*
X131711000Y-98159000D01*
X131711000Y-99961000D01*
X131711000Y-99961000D01*
G37*
G36*
X137397142Y-98278242D02*
X137545102Y-98339530D01*
X137678258Y-98428502D01*
X137791498Y-98541742D01*
X137880470Y-98674898D01*
X137941758Y-98822858D01*
X137973000Y-98979925D01*
X137973000Y-99140075D01*
X137941758Y-99297142D01*
X137880470Y-99445102D01*
X137791498Y-99578258D01*
X137678258Y-99691498D01*
X137545102Y-99780470D01*
X137397142Y-99841758D01*
X137240075Y-99873000D01*
X137079925Y-99873000D01*
X136922858Y-99841758D01*
X136774898Y-99780470D01*
X136641742Y-99691498D01*
X136528502Y-99578258D01*
X136439530Y-99445102D01*
X136378242Y-99297142D01*
X136347000Y-99140075D01*
X136347000Y-98979925D01*
X136378242Y-98822858D01*
X136439530Y-98674898D01*
X136528502Y-98541742D01*
X136641742Y-98428502D01*
X136774898Y-98339530D01*
X136922858Y-98278242D01*
X137079925Y-98247000D01*
X137240075Y-98247000D01*
X137397142Y-98278242D01*
X137397142Y-98278242D01*
G37*
M02*
