G04 #@! TF.GenerationSoftware,KiCad,Pcbnew,(5.0.2)-1*
G04 #@! TF.CreationDate,2019-04-02T18:39:04-05:00*
G04 #@! TF.ProjectId,CameraPowerInjector_Hardware,43616d65-7261-4506-9f77-6572496e6a65,rev?*
G04 #@! TF.SameCoordinates,Original*
G04 #@! TF.FileFunction,Copper,L2,Bot*
G04 #@! TF.FilePolarity,Positive*
%FSLAX46Y46*%
G04 Gerber Fmt 4.6, Leading zero omitted, Abs format (unit mm)*
G04 Created by KiCad (PCBNEW (5.0.2)-1) date 4/2/2019 6:39:04 PM*
%MOMM*%
%LPD*%
G01*
G04 APERTURE LIST*
G04 #@! TA.AperFunction,ComponentPad*
%ADD10C,5.080000*%
G04 #@! TD*
G04 #@! TA.AperFunction,ComponentPad*
%ADD11C,1.524000*%
G04 #@! TD*
G04 #@! TA.AperFunction,ComponentPad*
%ADD12C,2.641600*%
G04 #@! TD*
G04 #@! TA.AperFunction,ComponentPad*
%ADD13R,1.700000X1.700000*%
G04 #@! TD*
G04 #@! TA.AperFunction,ComponentPad*
%ADD14O,1.700000X1.700000*%
G04 #@! TD*
G04 #@! TA.AperFunction,Conductor*
%ADD15C,0.254000*%
G04 #@! TD*
G04 APERTURE END LIST*
D10*
G04 #@! TO.P,Conn1,1*
G04 #@! TO.N,GND*
X134620000Y-127254000D03*
G04 #@! TO.P,Conn1,2*
G04 #@! TO.N,N/C*
X134620000Y-119380000D03*
G04 #@! TO.P,Conn1,3*
G04 #@! TO.N,VDDA*
X134620000Y-111506000D03*
G04 #@! TD*
D11*
G04 #@! TO.P,Conn2,3*
G04 #@! TO.N,GND*
X124460000Y-109220000D03*
G04 #@! TO.P,Conn2,2*
G04 #@! TO.N,C1_Sig*
X121920000Y-109220000D03*
G04 #@! TO.P,Conn2,1*
G04 #@! TO.N,VCOM*
X119380000Y-109220000D03*
G04 #@! TD*
G04 #@! TO.P,Conn3,1*
G04 #@! TO.N,VCOM*
X104140000Y-109220000D03*
G04 #@! TO.P,Conn3,2*
G04 #@! TO.N,C2_Sig*
X106680000Y-109220000D03*
G04 #@! TO.P,Conn3,3*
G04 #@! TO.N,GND*
X109220000Y-109220000D03*
G04 #@! TD*
G04 #@! TO.P,Conn4,3*
G04 #@! TO.N,GND*
X93980000Y-109220000D03*
G04 #@! TO.P,Conn4,2*
G04 #@! TO.N,C3_Sig*
X91440000Y-109220000D03*
G04 #@! TO.P,Conn4,1*
G04 #@! TO.N,VCOM*
X88900000Y-109220000D03*
G04 #@! TD*
G04 #@! TO.P,Conn5,1*
G04 #@! TO.N,VCOM*
X73660000Y-109220000D03*
G04 #@! TO.P,Conn5,2*
G04 #@! TO.N,C4_Sig*
X76200000Y-109220000D03*
G04 #@! TO.P,Conn5,3*
G04 #@! TO.N,GND*
X78740000Y-109220000D03*
G04 #@! TD*
D10*
G04 #@! TO.P,Conn6,3*
G04 #@! TO.N,VDDA*
X63500000Y-127254000D03*
G04 #@! TO.P,Conn6,2*
G04 #@! TO.N,N/C*
X63500000Y-119380000D03*
G04 #@! TO.P,Conn6,1*
G04 #@! TO.N,GND*
X63500000Y-111506000D03*
G04 #@! TD*
D11*
G04 #@! TO.P,J1,1*
G04 #@! TO.N,C1_Sig*
X121920000Y-119380000D03*
G04 #@! TO.P,J1,2*
G04 #@! TO.N,GND*
X124460000Y-119380000D03*
D12*
G04 #@! TO.P,J1,3*
G04 #@! TO.N,N/C*
X127000000Y-124460000D03*
G04 #@! TO.P,J1,4*
X116840000Y-124460000D03*
G04 #@! TD*
G04 #@! TO.P,J2,4*
G04 #@! TO.N,N/C*
X101600000Y-124460000D03*
G04 #@! TO.P,J2,3*
X111760000Y-124460000D03*
D11*
G04 #@! TO.P,J2,2*
G04 #@! TO.N,GND*
X109220000Y-119380000D03*
G04 #@! TO.P,J2,1*
G04 #@! TO.N,C2_Sig*
X106680000Y-119380000D03*
G04 #@! TD*
G04 #@! TO.P,J3,1*
G04 #@! TO.N,C3_Sig*
X91440000Y-119380000D03*
G04 #@! TO.P,J3,2*
G04 #@! TO.N,GND*
X93980000Y-119380000D03*
D12*
G04 #@! TO.P,J3,3*
G04 #@! TO.N,N/C*
X96520000Y-124460000D03*
G04 #@! TO.P,J3,4*
X86360000Y-124460000D03*
G04 #@! TD*
G04 #@! TO.P,J4,4*
G04 #@! TO.N,N/C*
X71120000Y-124460000D03*
G04 #@! TO.P,J4,3*
X81280000Y-124460000D03*
D11*
G04 #@! TO.P,J4,2*
G04 #@! TO.N,GND*
X78740000Y-119380000D03*
G04 #@! TO.P,J4,1*
G04 #@! TO.N,C4_Sig*
X76200000Y-119380000D03*
G04 #@! TD*
D13*
G04 #@! TO.P,JP1,1*
G04 #@! TO.N,VDDF*
X130810000Y-99060000D03*
D14*
G04 #@! TO.P,JP1,2*
G04 #@! TO.N,VCOM*
X130810000Y-101600000D03*
G04 #@! TO.P,JP1,3*
G04 #@! TO.N,VDDA*
X130810000Y-104140000D03*
G04 #@! TD*
D11*
G04 #@! TO.P,U1,1*
G04 #@! TO.N,VDDA*
X137160000Y-104140000D03*
G04 #@! TO.P,U1,2*
G04 #@! TO.N,GND*
X137160000Y-101600000D03*
G04 #@! TO.P,U1,3*
G04 #@! TO.N,VDDF*
X137160000Y-99060000D03*
G04 #@! TD*
D15*
G04 #@! TO.N,VCOM*
G36*
X150307431Y-97317365D02*
X150726750Y-97483385D01*
X151091610Y-97748471D01*
X151379079Y-98095963D01*
X151571102Y-98504031D01*
X151662168Y-98981417D01*
X151665001Y-99071568D01*
X151665000Y-129493759D01*
X151602635Y-129987430D01*
X151436613Y-130406753D01*
X151171529Y-130771609D01*
X150824037Y-131059079D01*
X150415968Y-131251102D01*
X149938583Y-131342168D01*
X149848465Y-131345000D01*
X48306241Y-131345000D01*
X47812570Y-131282635D01*
X47393247Y-131116613D01*
X47028391Y-130851529D01*
X46740921Y-130504037D01*
X46548898Y-130095968D01*
X46457832Y-129618583D01*
X46455000Y-129528465D01*
X46455000Y-126580653D01*
X48691800Y-126580653D01*
X48691800Y-127419347D01*
X49012754Y-128194199D01*
X49605801Y-128787246D01*
X50380653Y-129108200D01*
X51219347Y-129108200D01*
X51994199Y-128787246D01*
X52587246Y-128194199D01*
X52908200Y-127419347D01*
X52908200Y-126622453D01*
X60325000Y-126622453D01*
X60325000Y-127885547D01*
X60808365Y-129052493D01*
X61701507Y-129945635D01*
X62868453Y-130429000D01*
X64131547Y-130429000D01*
X65298493Y-129945635D01*
X66191635Y-129052493D01*
X66675000Y-127885547D01*
X66675000Y-126622453D01*
X131445000Y-126622453D01*
X131445000Y-127885547D01*
X131928365Y-129052493D01*
X132821507Y-129945635D01*
X133988453Y-130429000D01*
X135251547Y-130429000D01*
X136418493Y-129945635D01*
X137311635Y-129052493D01*
X137795000Y-127885547D01*
X137795000Y-126622453D01*
X137777686Y-126580653D01*
X145211800Y-126580653D01*
X145211800Y-127419347D01*
X145532754Y-128194199D01*
X146125801Y-128787246D01*
X146900653Y-129108200D01*
X147739347Y-129108200D01*
X148514199Y-128787246D01*
X149107246Y-128194199D01*
X149428200Y-127419347D01*
X149428200Y-126580653D01*
X149107246Y-125805801D01*
X148514199Y-125212754D01*
X147739347Y-124891800D01*
X146900653Y-124891800D01*
X146125801Y-125212754D01*
X145532754Y-125805801D01*
X145211800Y-126580653D01*
X137777686Y-126580653D01*
X137311635Y-125455507D01*
X136418493Y-124562365D01*
X135251547Y-124079000D01*
X133988453Y-124079000D01*
X132821507Y-124562365D01*
X131928365Y-125455507D01*
X131445000Y-126622453D01*
X66675000Y-126622453D01*
X66191635Y-125455507D01*
X65298493Y-124562365D01*
X64131547Y-124079000D01*
X62868453Y-124079000D01*
X61701507Y-124562365D01*
X60808365Y-125455507D01*
X60325000Y-126622453D01*
X52908200Y-126622453D01*
X52908200Y-126580653D01*
X52587246Y-125805801D01*
X51994199Y-125212754D01*
X51219347Y-124891800D01*
X50380653Y-124891800D01*
X49605801Y-125212754D01*
X49012754Y-125805801D01*
X48691800Y-126580653D01*
X46455000Y-126580653D01*
X46455000Y-124070967D01*
X69164200Y-124070967D01*
X69164200Y-124849033D01*
X69461953Y-125567871D01*
X70012129Y-126118047D01*
X70730967Y-126415800D01*
X71509033Y-126415800D01*
X72227871Y-126118047D01*
X72778047Y-125567871D01*
X73075800Y-124849033D01*
X73075800Y-124070967D01*
X79324200Y-124070967D01*
X79324200Y-124849033D01*
X79621953Y-125567871D01*
X80172129Y-126118047D01*
X80890967Y-126415800D01*
X81669033Y-126415800D01*
X82387871Y-126118047D01*
X82938047Y-125567871D01*
X83235800Y-124849033D01*
X83235800Y-124070967D01*
X84404200Y-124070967D01*
X84404200Y-124849033D01*
X84701953Y-125567871D01*
X85252129Y-126118047D01*
X85970967Y-126415800D01*
X86749033Y-126415800D01*
X87467871Y-126118047D01*
X88018047Y-125567871D01*
X88315800Y-124849033D01*
X88315800Y-124070967D01*
X94564200Y-124070967D01*
X94564200Y-124849033D01*
X94861953Y-125567871D01*
X95412129Y-126118047D01*
X96130967Y-126415800D01*
X96909033Y-126415800D01*
X97627871Y-126118047D01*
X98178047Y-125567871D01*
X98475800Y-124849033D01*
X98475800Y-124070967D01*
X99644200Y-124070967D01*
X99644200Y-124849033D01*
X99941953Y-125567871D01*
X100492129Y-126118047D01*
X101210967Y-126415800D01*
X101989033Y-126415800D01*
X102707871Y-126118047D01*
X103258047Y-125567871D01*
X103555800Y-124849033D01*
X103555800Y-124070967D01*
X109804200Y-124070967D01*
X109804200Y-124849033D01*
X110101953Y-125567871D01*
X110652129Y-126118047D01*
X111370967Y-126415800D01*
X112149033Y-126415800D01*
X112867871Y-126118047D01*
X113418047Y-125567871D01*
X113715800Y-124849033D01*
X113715800Y-124070967D01*
X114884200Y-124070967D01*
X114884200Y-124849033D01*
X115181953Y-125567871D01*
X115732129Y-126118047D01*
X116450967Y-126415800D01*
X117229033Y-126415800D01*
X117947871Y-126118047D01*
X118498047Y-125567871D01*
X118795800Y-124849033D01*
X118795800Y-124070967D01*
X125044200Y-124070967D01*
X125044200Y-124849033D01*
X125341953Y-125567871D01*
X125892129Y-126118047D01*
X126610967Y-126415800D01*
X127389033Y-126415800D01*
X128107871Y-126118047D01*
X128658047Y-125567871D01*
X128955800Y-124849033D01*
X128955800Y-124070967D01*
X128658047Y-123352129D01*
X128107871Y-122801953D01*
X127389033Y-122504200D01*
X126610967Y-122504200D01*
X125892129Y-122801953D01*
X125341953Y-123352129D01*
X125044200Y-124070967D01*
X118795800Y-124070967D01*
X118498047Y-123352129D01*
X117947871Y-122801953D01*
X117229033Y-122504200D01*
X116450967Y-122504200D01*
X115732129Y-122801953D01*
X115181953Y-123352129D01*
X114884200Y-124070967D01*
X113715800Y-124070967D01*
X113418047Y-123352129D01*
X112867871Y-122801953D01*
X112149033Y-122504200D01*
X111370967Y-122504200D01*
X110652129Y-122801953D01*
X110101953Y-123352129D01*
X109804200Y-124070967D01*
X103555800Y-124070967D01*
X103258047Y-123352129D01*
X102707871Y-122801953D01*
X101989033Y-122504200D01*
X101210967Y-122504200D01*
X100492129Y-122801953D01*
X99941953Y-123352129D01*
X99644200Y-124070967D01*
X98475800Y-124070967D01*
X98178047Y-123352129D01*
X97627871Y-122801953D01*
X96909033Y-122504200D01*
X96130967Y-122504200D01*
X95412129Y-122801953D01*
X94861953Y-123352129D01*
X94564200Y-124070967D01*
X88315800Y-124070967D01*
X88018047Y-123352129D01*
X87467871Y-122801953D01*
X86749033Y-122504200D01*
X85970967Y-122504200D01*
X85252129Y-122801953D01*
X84701953Y-123352129D01*
X84404200Y-124070967D01*
X83235800Y-124070967D01*
X82938047Y-123352129D01*
X82387871Y-122801953D01*
X81669033Y-122504200D01*
X80890967Y-122504200D01*
X80172129Y-122801953D01*
X79621953Y-123352129D01*
X79324200Y-124070967D01*
X73075800Y-124070967D01*
X72778047Y-123352129D01*
X72227871Y-122801953D01*
X71509033Y-122504200D01*
X70730967Y-122504200D01*
X70012129Y-122801953D01*
X69461953Y-123352129D01*
X69164200Y-124070967D01*
X46455000Y-124070967D01*
X46455000Y-118748453D01*
X60325000Y-118748453D01*
X60325000Y-120011547D01*
X60808365Y-121178493D01*
X61701507Y-122071635D01*
X62868453Y-122555000D01*
X64131547Y-122555000D01*
X65298493Y-122071635D01*
X66191635Y-121178493D01*
X66675000Y-120011547D01*
X66675000Y-119102119D01*
X74803000Y-119102119D01*
X74803000Y-119657881D01*
X75015680Y-120171337D01*
X75408663Y-120564320D01*
X75922119Y-120777000D01*
X76477881Y-120777000D01*
X76991337Y-120564320D01*
X77384320Y-120171337D01*
X77470000Y-119964487D01*
X77555680Y-120171337D01*
X77948663Y-120564320D01*
X78462119Y-120777000D01*
X79017881Y-120777000D01*
X79531337Y-120564320D01*
X79924320Y-120171337D01*
X80137000Y-119657881D01*
X80137000Y-119102119D01*
X90043000Y-119102119D01*
X90043000Y-119657881D01*
X90255680Y-120171337D01*
X90648663Y-120564320D01*
X91162119Y-120777000D01*
X91717881Y-120777000D01*
X92231337Y-120564320D01*
X92624320Y-120171337D01*
X92710000Y-119964487D01*
X92795680Y-120171337D01*
X93188663Y-120564320D01*
X93702119Y-120777000D01*
X94257881Y-120777000D01*
X94771337Y-120564320D01*
X95164320Y-120171337D01*
X95377000Y-119657881D01*
X95377000Y-119102119D01*
X105283000Y-119102119D01*
X105283000Y-119657881D01*
X105495680Y-120171337D01*
X105888663Y-120564320D01*
X106402119Y-120777000D01*
X106957881Y-120777000D01*
X107471337Y-120564320D01*
X107864320Y-120171337D01*
X107950000Y-119964487D01*
X108035680Y-120171337D01*
X108428663Y-120564320D01*
X108942119Y-120777000D01*
X109497881Y-120777000D01*
X110011337Y-120564320D01*
X110404320Y-120171337D01*
X110617000Y-119657881D01*
X110617000Y-119102119D01*
X120523000Y-119102119D01*
X120523000Y-119657881D01*
X120735680Y-120171337D01*
X121128663Y-120564320D01*
X121642119Y-120777000D01*
X122197881Y-120777000D01*
X122711337Y-120564320D01*
X123104320Y-120171337D01*
X123190000Y-119964487D01*
X123275680Y-120171337D01*
X123668663Y-120564320D01*
X124182119Y-120777000D01*
X124737881Y-120777000D01*
X125251337Y-120564320D01*
X125644320Y-120171337D01*
X125857000Y-119657881D01*
X125857000Y-119102119D01*
X125710508Y-118748453D01*
X131445000Y-118748453D01*
X131445000Y-120011547D01*
X131928365Y-121178493D01*
X132821507Y-122071635D01*
X133988453Y-122555000D01*
X135251547Y-122555000D01*
X136418493Y-122071635D01*
X137311635Y-121178493D01*
X137795000Y-120011547D01*
X137795000Y-118748453D01*
X137311635Y-117581507D01*
X136418493Y-116688365D01*
X135251547Y-116205000D01*
X133988453Y-116205000D01*
X132821507Y-116688365D01*
X131928365Y-117581507D01*
X131445000Y-118748453D01*
X125710508Y-118748453D01*
X125644320Y-118588663D01*
X125251337Y-118195680D01*
X124737881Y-117983000D01*
X124182119Y-117983000D01*
X123668663Y-118195680D01*
X123275680Y-118588663D01*
X123190000Y-118795513D01*
X123104320Y-118588663D01*
X122711337Y-118195680D01*
X122197881Y-117983000D01*
X121642119Y-117983000D01*
X121128663Y-118195680D01*
X120735680Y-118588663D01*
X120523000Y-119102119D01*
X110617000Y-119102119D01*
X110404320Y-118588663D01*
X110011337Y-118195680D01*
X109497881Y-117983000D01*
X108942119Y-117983000D01*
X108428663Y-118195680D01*
X108035680Y-118588663D01*
X107950000Y-118795513D01*
X107864320Y-118588663D01*
X107471337Y-118195680D01*
X106957881Y-117983000D01*
X106402119Y-117983000D01*
X105888663Y-118195680D01*
X105495680Y-118588663D01*
X105283000Y-119102119D01*
X95377000Y-119102119D01*
X95164320Y-118588663D01*
X94771337Y-118195680D01*
X94257881Y-117983000D01*
X93702119Y-117983000D01*
X93188663Y-118195680D01*
X92795680Y-118588663D01*
X92710000Y-118795513D01*
X92624320Y-118588663D01*
X92231337Y-118195680D01*
X91717881Y-117983000D01*
X91162119Y-117983000D01*
X90648663Y-118195680D01*
X90255680Y-118588663D01*
X90043000Y-119102119D01*
X80137000Y-119102119D01*
X79924320Y-118588663D01*
X79531337Y-118195680D01*
X79017881Y-117983000D01*
X78462119Y-117983000D01*
X77948663Y-118195680D01*
X77555680Y-118588663D01*
X77470000Y-118795513D01*
X77384320Y-118588663D01*
X76991337Y-118195680D01*
X76477881Y-117983000D01*
X75922119Y-117983000D01*
X75408663Y-118195680D01*
X75015680Y-118588663D01*
X74803000Y-119102119D01*
X66675000Y-119102119D01*
X66675000Y-118748453D01*
X66191635Y-117581507D01*
X65298493Y-116688365D01*
X64131547Y-116205000D01*
X62868453Y-116205000D01*
X61701507Y-116688365D01*
X60808365Y-117581507D01*
X60325000Y-118748453D01*
X46455000Y-118748453D01*
X46455000Y-110874453D01*
X60325000Y-110874453D01*
X60325000Y-112137547D01*
X60808365Y-113304493D01*
X61701507Y-114197635D01*
X62868453Y-114681000D01*
X64131547Y-114681000D01*
X65298493Y-114197635D01*
X66191635Y-113304493D01*
X66675000Y-112137547D01*
X66675000Y-110874453D01*
X131445000Y-110874453D01*
X131445000Y-112137547D01*
X131928365Y-113304493D01*
X132821507Y-114197635D01*
X133988453Y-114681000D01*
X135251547Y-114681000D01*
X136418493Y-114197635D01*
X137311635Y-113304493D01*
X137795000Y-112137547D01*
X137795000Y-110874453D01*
X137311635Y-109707507D01*
X136418493Y-108814365D01*
X135251547Y-108331000D01*
X133988453Y-108331000D01*
X132821507Y-108814365D01*
X131928365Y-109707507D01*
X131445000Y-110874453D01*
X66675000Y-110874453D01*
X66191635Y-109707507D01*
X65426247Y-108942119D01*
X74803000Y-108942119D01*
X74803000Y-109497881D01*
X75015680Y-110011337D01*
X75408663Y-110404320D01*
X75922119Y-110617000D01*
X76477881Y-110617000D01*
X76991337Y-110404320D01*
X77384320Y-110011337D01*
X77470000Y-109804487D01*
X77555680Y-110011337D01*
X77948663Y-110404320D01*
X78462119Y-110617000D01*
X79017881Y-110617000D01*
X79531337Y-110404320D01*
X79924320Y-110011337D01*
X80137000Y-109497881D01*
X80137000Y-108942119D01*
X90043000Y-108942119D01*
X90043000Y-109497881D01*
X90255680Y-110011337D01*
X90648663Y-110404320D01*
X91162119Y-110617000D01*
X91717881Y-110617000D01*
X92231337Y-110404320D01*
X92624320Y-110011337D01*
X92710000Y-109804487D01*
X92795680Y-110011337D01*
X93188663Y-110404320D01*
X93702119Y-110617000D01*
X94257881Y-110617000D01*
X94771337Y-110404320D01*
X95164320Y-110011337D01*
X95377000Y-109497881D01*
X95377000Y-108942119D01*
X105283000Y-108942119D01*
X105283000Y-109497881D01*
X105495680Y-110011337D01*
X105888663Y-110404320D01*
X106402119Y-110617000D01*
X106957881Y-110617000D01*
X107471337Y-110404320D01*
X107864320Y-110011337D01*
X107950000Y-109804487D01*
X108035680Y-110011337D01*
X108428663Y-110404320D01*
X108942119Y-110617000D01*
X109497881Y-110617000D01*
X110011337Y-110404320D01*
X110404320Y-110011337D01*
X110617000Y-109497881D01*
X110617000Y-108942119D01*
X120523000Y-108942119D01*
X120523000Y-109497881D01*
X120735680Y-110011337D01*
X121128663Y-110404320D01*
X121642119Y-110617000D01*
X122197881Y-110617000D01*
X122711337Y-110404320D01*
X123104320Y-110011337D01*
X123190000Y-109804487D01*
X123275680Y-110011337D01*
X123668663Y-110404320D01*
X124182119Y-110617000D01*
X124737881Y-110617000D01*
X125251337Y-110404320D01*
X125644320Y-110011337D01*
X125857000Y-109497881D01*
X125857000Y-108942119D01*
X125644320Y-108428663D01*
X125251337Y-108035680D01*
X124737881Y-107823000D01*
X124182119Y-107823000D01*
X123668663Y-108035680D01*
X123275680Y-108428663D01*
X123190000Y-108635513D01*
X123104320Y-108428663D01*
X122711337Y-108035680D01*
X122197881Y-107823000D01*
X121642119Y-107823000D01*
X121128663Y-108035680D01*
X120735680Y-108428663D01*
X120523000Y-108942119D01*
X110617000Y-108942119D01*
X110404320Y-108428663D01*
X110011337Y-108035680D01*
X109497881Y-107823000D01*
X108942119Y-107823000D01*
X108428663Y-108035680D01*
X108035680Y-108428663D01*
X107950000Y-108635513D01*
X107864320Y-108428663D01*
X107471337Y-108035680D01*
X106957881Y-107823000D01*
X106402119Y-107823000D01*
X105888663Y-108035680D01*
X105495680Y-108428663D01*
X105283000Y-108942119D01*
X95377000Y-108942119D01*
X95164320Y-108428663D01*
X94771337Y-108035680D01*
X94257881Y-107823000D01*
X93702119Y-107823000D01*
X93188663Y-108035680D01*
X92795680Y-108428663D01*
X92710000Y-108635513D01*
X92624320Y-108428663D01*
X92231337Y-108035680D01*
X91717881Y-107823000D01*
X91162119Y-107823000D01*
X90648663Y-108035680D01*
X90255680Y-108428663D01*
X90043000Y-108942119D01*
X80137000Y-108942119D01*
X79924320Y-108428663D01*
X79531337Y-108035680D01*
X79017881Y-107823000D01*
X78462119Y-107823000D01*
X77948663Y-108035680D01*
X77555680Y-108428663D01*
X77470000Y-108635513D01*
X77384320Y-108428663D01*
X76991337Y-108035680D01*
X76477881Y-107823000D01*
X75922119Y-107823000D01*
X75408663Y-108035680D01*
X75015680Y-108428663D01*
X74803000Y-108942119D01*
X65426247Y-108942119D01*
X65298493Y-108814365D01*
X64131547Y-108331000D01*
X62868453Y-108331000D01*
X61701507Y-108814365D01*
X60808365Y-109707507D01*
X60325000Y-110874453D01*
X46455000Y-110874453D01*
X46455000Y-104140000D01*
X129295908Y-104140000D01*
X129411161Y-104719418D01*
X129739375Y-105210625D01*
X130230582Y-105538839D01*
X130663744Y-105625000D01*
X130956256Y-105625000D01*
X131389418Y-105538839D01*
X131880625Y-105210625D01*
X132208839Y-104719418D01*
X132324092Y-104140000D01*
X132208839Y-103560582D01*
X131880625Y-103069375D01*
X131389418Y-102741161D01*
X130956256Y-102655000D01*
X130663744Y-102655000D01*
X130230582Y-102741161D01*
X129739375Y-103069375D01*
X129411161Y-103560582D01*
X129295908Y-104140000D01*
X46455000Y-104140000D01*
X46455000Y-101180653D01*
X48691800Y-101180653D01*
X48691800Y-102019347D01*
X49012754Y-102794199D01*
X49605801Y-103387246D01*
X50380653Y-103708200D01*
X51219347Y-103708200D01*
X51994199Y-103387246D01*
X52587246Y-102794199D01*
X52908200Y-102019347D01*
X52908200Y-101180653D01*
X52587246Y-100405801D01*
X52296012Y-100114567D01*
X70030000Y-100114567D01*
X70030000Y-101053433D01*
X70389289Y-101920833D01*
X71053167Y-102584711D01*
X71920567Y-102944000D01*
X72859433Y-102944000D01*
X73726833Y-102584711D01*
X74390711Y-101920833D01*
X74750000Y-101053433D01*
X74750000Y-100114567D01*
X77650000Y-100114567D01*
X77650000Y-101053433D01*
X78009289Y-101920833D01*
X78673167Y-102584711D01*
X79540567Y-102944000D01*
X80479433Y-102944000D01*
X81346833Y-102584711D01*
X82010711Y-101920833D01*
X82370000Y-101053433D01*
X82370000Y-100114567D01*
X85270000Y-100114567D01*
X85270000Y-101053433D01*
X85629289Y-101920833D01*
X86293167Y-102584711D01*
X87160567Y-102944000D01*
X88099433Y-102944000D01*
X88966833Y-102584711D01*
X89630711Y-101920833D01*
X89990000Y-101053433D01*
X89990000Y-100114567D01*
X92890000Y-100114567D01*
X92890000Y-101053433D01*
X93249289Y-101920833D01*
X93913167Y-102584711D01*
X94780567Y-102944000D01*
X95719433Y-102944000D01*
X96586833Y-102584711D01*
X97250711Y-101920833D01*
X97610000Y-101053433D01*
X97610000Y-100114567D01*
X100510000Y-100114567D01*
X100510000Y-101053433D01*
X100869289Y-101920833D01*
X101533167Y-102584711D01*
X102400567Y-102944000D01*
X103339433Y-102944000D01*
X104206833Y-102584711D01*
X104870711Y-101920833D01*
X105230000Y-101053433D01*
X105230000Y-100114567D01*
X108130000Y-100114567D01*
X108130000Y-101053433D01*
X108489289Y-101920833D01*
X109153167Y-102584711D01*
X110020567Y-102944000D01*
X110959433Y-102944000D01*
X111826833Y-102584711D01*
X112490711Y-101920833D01*
X112850000Y-101053433D01*
X112850000Y-100114567D01*
X115750000Y-100114567D01*
X115750000Y-101053433D01*
X116109289Y-101920833D01*
X116773167Y-102584711D01*
X117640567Y-102944000D01*
X118579433Y-102944000D01*
X119446833Y-102584711D01*
X120110711Y-101920833D01*
X120470000Y-101053433D01*
X120470000Y-100114567D01*
X123370000Y-100114567D01*
X123370000Y-101053433D01*
X123729289Y-101920833D01*
X124393167Y-102584711D01*
X125260567Y-102944000D01*
X126199433Y-102944000D01*
X127066833Y-102584711D01*
X127730711Y-101920833D01*
X128090000Y-101053433D01*
X128090000Y-100114567D01*
X127730711Y-99247167D01*
X127066833Y-98583289D01*
X126199433Y-98224000D01*
X125260567Y-98224000D01*
X124393167Y-98583289D01*
X123729289Y-99247167D01*
X123370000Y-100114567D01*
X120470000Y-100114567D01*
X120110711Y-99247167D01*
X119446833Y-98583289D01*
X118579433Y-98224000D01*
X117640567Y-98224000D01*
X116773167Y-98583289D01*
X116109289Y-99247167D01*
X115750000Y-100114567D01*
X112850000Y-100114567D01*
X112490711Y-99247167D01*
X111826833Y-98583289D01*
X110959433Y-98224000D01*
X110020567Y-98224000D01*
X109153167Y-98583289D01*
X108489289Y-99247167D01*
X108130000Y-100114567D01*
X105230000Y-100114567D01*
X104870711Y-99247167D01*
X104206833Y-98583289D01*
X103339433Y-98224000D01*
X102400567Y-98224000D01*
X101533167Y-98583289D01*
X100869289Y-99247167D01*
X100510000Y-100114567D01*
X97610000Y-100114567D01*
X97250711Y-99247167D01*
X96586833Y-98583289D01*
X95719433Y-98224000D01*
X94780567Y-98224000D01*
X93913167Y-98583289D01*
X93249289Y-99247167D01*
X92890000Y-100114567D01*
X89990000Y-100114567D01*
X89630711Y-99247167D01*
X88966833Y-98583289D01*
X88099433Y-98224000D01*
X87160567Y-98224000D01*
X86293167Y-98583289D01*
X85629289Y-99247167D01*
X85270000Y-100114567D01*
X82370000Y-100114567D01*
X82010711Y-99247167D01*
X81346833Y-98583289D01*
X80479433Y-98224000D01*
X79540567Y-98224000D01*
X78673167Y-98583289D01*
X78009289Y-99247167D01*
X77650000Y-100114567D01*
X74750000Y-100114567D01*
X74390711Y-99247167D01*
X73726833Y-98583289D01*
X72859433Y-98224000D01*
X71920567Y-98224000D01*
X71053167Y-98583289D01*
X70389289Y-99247167D01*
X70030000Y-100114567D01*
X52296012Y-100114567D01*
X51994199Y-99812754D01*
X51219347Y-99491800D01*
X50380653Y-99491800D01*
X49605801Y-99812754D01*
X49012754Y-100405801D01*
X48691800Y-101180653D01*
X46455000Y-101180653D01*
X46455000Y-99106240D01*
X46517365Y-98612569D01*
X46676753Y-98210000D01*
X129312560Y-98210000D01*
X129312560Y-99910000D01*
X129361843Y-100157765D01*
X129502191Y-100367809D01*
X129712235Y-100508157D01*
X129960000Y-100557440D01*
X131660000Y-100557440D01*
X131907765Y-100508157D01*
X132117809Y-100367809D01*
X132258157Y-100157765D01*
X132307440Y-99910000D01*
X132307440Y-98782119D01*
X135763000Y-98782119D01*
X135763000Y-99337881D01*
X135975680Y-99851337D01*
X136368663Y-100244320D01*
X136575513Y-100330000D01*
X136368663Y-100415680D01*
X135975680Y-100808663D01*
X135763000Y-101322119D01*
X135763000Y-101877881D01*
X135975680Y-102391337D01*
X136368663Y-102784320D01*
X136575513Y-102870000D01*
X136368663Y-102955680D01*
X135975680Y-103348663D01*
X135763000Y-103862119D01*
X135763000Y-104417881D01*
X135975680Y-104931337D01*
X136368663Y-105324320D01*
X136882119Y-105537000D01*
X137437881Y-105537000D01*
X137951337Y-105324320D01*
X138344320Y-104931337D01*
X138557000Y-104417881D01*
X138557000Y-103862119D01*
X138344320Y-103348663D01*
X137951337Y-102955680D01*
X137744487Y-102870000D01*
X137951337Y-102784320D01*
X138344320Y-102391337D01*
X138557000Y-101877881D01*
X138557000Y-101322119D01*
X138498403Y-101180653D01*
X145211800Y-101180653D01*
X145211800Y-102019347D01*
X145532754Y-102794199D01*
X146125801Y-103387246D01*
X146900653Y-103708200D01*
X147739347Y-103708200D01*
X148514199Y-103387246D01*
X149107246Y-102794199D01*
X149428200Y-102019347D01*
X149428200Y-101180653D01*
X149107246Y-100405801D01*
X148514199Y-99812754D01*
X147739347Y-99491800D01*
X146900653Y-99491800D01*
X146125801Y-99812754D01*
X145532754Y-100405801D01*
X145211800Y-101180653D01*
X138498403Y-101180653D01*
X138344320Y-100808663D01*
X137951337Y-100415680D01*
X137744487Y-100330000D01*
X137951337Y-100244320D01*
X138344320Y-99851337D01*
X138557000Y-99337881D01*
X138557000Y-98782119D01*
X138344320Y-98268663D01*
X137951337Y-97875680D01*
X137437881Y-97663000D01*
X136882119Y-97663000D01*
X136368663Y-97875680D01*
X135975680Y-98268663D01*
X135763000Y-98782119D01*
X132307440Y-98782119D01*
X132307440Y-98210000D01*
X132258157Y-97962235D01*
X132117809Y-97752191D01*
X131907765Y-97611843D01*
X131660000Y-97562560D01*
X129960000Y-97562560D01*
X129712235Y-97611843D01*
X129502191Y-97752191D01*
X129361843Y-97962235D01*
X129312560Y-98210000D01*
X46676753Y-98210000D01*
X46683385Y-98193250D01*
X46948471Y-97828390D01*
X47295963Y-97540921D01*
X47704031Y-97348898D01*
X48181417Y-97257832D01*
X48271536Y-97255000D01*
X149813760Y-97255000D01*
X150307431Y-97317365D01*
X150307431Y-97317365D01*
G37*
X150307431Y-97317365D02*
X150726750Y-97483385D01*
X151091610Y-97748471D01*
X151379079Y-98095963D01*
X151571102Y-98504031D01*
X151662168Y-98981417D01*
X151665001Y-99071568D01*
X151665000Y-129493759D01*
X151602635Y-129987430D01*
X151436613Y-130406753D01*
X151171529Y-130771609D01*
X150824037Y-131059079D01*
X150415968Y-131251102D01*
X149938583Y-131342168D01*
X149848465Y-131345000D01*
X48306241Y-131345000D01*
X47812570Y-131282635D01*
X47393247Y-131116613D01*
X47028391Y-130851529D01*
X46740921Y-130504037D01*
X46548898Y-130095968D01*
X46457832Y-129618583D01*
X46455000Y-129528465D01*
X46455000Y-126580653D01*
X48691800Y-126580653D01*
X48691800Y-127419347D01*
X49012754Y-128194199D01*
X49605801Y-128787246D01*
X50380653Y-129108200D01*
X51219347Y-129108200D01*
X51994199Y-128787246D01*
X52587246Y-128194199D01*
X52908200Y-127419347D01*
X52908200Y-126622453D01*
X60325000Y-126622453D01*
X60325000Y-127885547D01*
X60808365Y-129052493D01*
X61701507Y-129945635D01*
X62868453Y-130429000D01*
X64131547Y-130429000D01*
X65298493Y-129945635D01*
X66191635Y-129052493D01*
X66675000Y-127885547D01*
X66675000Y-126622453D01*
X131445000Y-126622453D01*
X131445000Y-127885547D01*
X131928365Y-129052493D01*
X132821507Y-129945635D01*
X133988453Y-130429000D01*
X135251547Y-130429000D01*
X136418493Y-129945635D01*
X137311635Y-129052493D01*
X137795000Y-127885547D01*
X137795000Y-126622453D01*
X137777686Y-126580653D01*
X145211800Y-126580653D01*
X145211800Y-127419347D01*
X145532754Y-128194199D01*
X146125801Y-128787246D01*
X146900653Y-129108200D01*
X147739347Y-129108200D01*
X148514199Y-128787246D01*
X149107246Y-128194199D01*
X149428200Y-127419347D01*
X149428200Y-126580653D01*
X149107246Y-125805801D01*
X148514199Y-125212754D01*
X147739347Y-124891800D01*
X146900653Y-124891800D01*
X146125801Y-125212754D01*
X145532754Y-125805801D01*
X145211800Y-126580653D01*
X137777686Y-126580653D01*
X137311635Y-125455507D01*
X136418493Y-124562365D01*
X135251547Y-124079000D01*
X133988453Y-124079000D01*
X132821507Y-124562365D01*
X131928365Y-125455507D01*
X131445000Y-126622453D01*
X66675000Y-126622453D01*
X66191635Y-125455507D01*
X65298493Y-124562365D01*
X64131547Y-124079000D01*
X62868453Y-124079000D01*
X61701507Y-124562365D01*
X60808365Y-125455507D01*
X60325000Y-126622453D01*
X52908200Y-126622453D01*
X52908200Y-126580653D01*
X52587246Y-125805801D01*
X51994199Y-125212754D01*
X51219347Y-124891800D01*
X50380653Y-124891800D01*
X49605801Y-125212754D01*
X49012754Y-125805801D01*
X48691800Y-126580653D01*
X46455000Y-126580653D01*
X46455000Y-124070967D01*
X69164200Y-124070967D01*
X69164200Y-124849033D01*
X69461953Y-125567871D01*
X70012129Y-126118047D01*
X70730967Y-126415800D01*
X71509033Y-126415800D01*
X72227871Y-126118047D01*
X72778047Y-125567871D01*
X73075800Y-124849033D01*
X73075800Y-124070967D01*
X79324200Y-124070967D01*
X79324200Y-124849033D01*
X79621953Y-125567871D01*
X80172129Y-126118047D01*
X80890967Y-126415800D01*
X81669033Y-126415800D01*
X82387871Y-126118047D01*
X82938047Y-125567871D01*
X83235800Y-124849033D01*
X83235800Y-124070967D01*
X84404200Y-124070967D01*
X84404200Y-124849033D01*
X84701953Y-125567871D01*
X85252129Y-126118047D01*
X85970967Y-126415800D01*
X86749033Y-126415800D01*
X87467871Y-126118047D01*
X88018047Y-125567871D01*
X88315800Y-124849033D01*
X88315800Y-124070967D01*
X94564200Y-124070967D01*
X94564200Y-124849033D01*
X94861953Y-125567871D01*
X95412129Y-126118047D01*
X96130967Y-126415800D01*
X96909033Y-126415800D01*
X97627871Y-126118047D01*
X98178047Y-125567871D01*
X98475800Y-124849033D01*
X98475800Y-124070967D01*
X99644200Y-124070967D01*
X99644200Y-124849033D01*
X99941953Y-125567871D01*
X100492129Y-126118047D01*
X101210967Y-126415800D01*
X101989033Y-126415800D01*
X102707871Y-126118047D01*
X103258047Y-125567871D01*
X103555800Y-124849033D01*
X103555800Y-124070967D01*
X109804200Y-124070967D01*
X109804200Y-124849033D01*
X110101953Y-125567871D01*
X110652129Y-126118047D01*
X111370967Y-126415800D01*
X112149033Y-126415800D01*
X112867871Y-126118047D01*
X113418047Y-125567871D01*
X113715800Y-124849033D01*
X113715800Y-124070967D01*
X114884200Y-124070967D01*
X114884200Y-124849033D01*
X115181953Y-125567871D01*
X115732129Y-126118047D01*
X116450967Y-126415800D01*
X117229033Y-126415800D01*
X117947871Y-126118047D01*
X118498047Y-125567871D01*
X118795800Y-124849033D01*
X118795800Y-124070967D01*
X125044200Y-124070967D01*
X125044200Y-124849033D01*
X125341953Y-125567871D01*
X125892129Y-126118047D01*
X126610967Y-126415800D01*
X127389033Y-126415800D01*
X128107871Y-126118047D01*
X128658047Y-125567871D01*
X128955800Y-124849033D01*
X128955800Y-124070967D01*
X128658047Y-123352129D01*
X128107871Y-122801953D01*
X127389033Y-122504200D01*
X126610967Y-122504200D01*
X125892129Y-122801953D01*
X125341953Y-123352129D01*
X125044200Y-124070967D01*
X118795800Y-124070967D01*
X118498047Y-123352129D01*
X117947871Y-122801953D01*
X117229033Y-122504200D01*
X116450967Y-122504200D01*
X115732129Y-122801953D01*
X115181953Y-123352129D01*
X114884200Y-124070967D01*
X113715800Y-124070967D01*
X113418047Y-123352129D01*
X112867871Y-122801953D01*
X112149033Y-122504200D01*
X111370967Y-122504200D01*
X110652129Y-122801953D01*
X110101953Y-123352129D01*
X109804200Y-124070967D01*
X103555800Y-124070967D01*
X103258047Y-123352129D01*
X102707871Y-122801953D01*
X101989033Y-122504200D01*
X101210967Y-122504200D01*
X100492129Y-122801953D01*
X99941953Y-123352129D01*
X99644200Y-124070967D01*
X98475800Y-124070967D01*
X98178047Y-123352129D01*
X97627871Y-122801953D01*
X96909033Y-122504200D01*
X96130967Y-122504200D01*
X95412129Y-122801953D01*
X94861953Y-123352129D01*
X94564200Y-124070967D01*
X88315800Y-124070967D01*
X88018047Y-123352129D01*
X87467871Y-122801953D01*
X86749033Y-122504200D01*
X85970967Y-122504200D01*
X85252129Y-122801953D01*
X84701953Y-123352129D01*
X84404200Y-124070967D01*
X83235800Y-124070967D01*
X82938047Y-123352129D01*
X82387871Y-122801953D01*
X81669033Y-122504200D01*
X80890967Y-122504200D01*
X80172129Y-122801953D01*
X79621953Y-123352129D01*
X79324200Y-124070967D01*
X73075800Y-124070967D01*
X72778047Y-123352129D01*
X72227871Y-122801953D01*
X71509033Y-122504200D01*
X70730967Y-122504200D01*
X70012129Y-122801953D01*
X69461953Y-123352129D01*
X69164200Y-124070967D01*
X46455000Y-124070967D01*
X46455000Y-118748453D01*
X60325000Y-118748453D01*
X60325000Y-120011547D01*
X60808365Y-121178493D01*
X61701507Y-122071635D01*
X62868453Y-122555000D01*
X64131547Y-122555000D01*
X65298493Y-122071635D01*
X66191635Y-121178493D01*
X66675000Y-120011547D01*
X66675000Y-119102119D01*
X74803000Y-119102119D01*
X74803000Y-119657881D01*
X75015680Y-120171337D01*
X75408663Y-120564320D01*
X75922119Y-120777000D01*
X76477881Y-120777000D01*
X76991337Y-120564320D01*
X77384320Y-120171337D01*
X77470000Y-119964487D01*
X77555680Y-120171337D01*
X77948663Y-120564320D01*
X78462119Y-120777000D01*
X79017881Y-120777000D01*
X79531337Y-120564320D01*
X79924320Y-120171337D01*
X80137000Y-119657881D01*
X80137000Y-119102119D01*
X90043000Y-119102119D01*
X90043000Y-119657881D01*
X90255680Y-120171337D01*
X90648663Y-120564320D01*
X91162119Y-120777000D01*
X91717881Y-120777000D01*
X92231337Y-120564320D01*
X92624320Y-120171337D01*
X92710000Y-119964487D01*
X92795680Y-120171337D01*
X93188663Y-120564320D01*
X93702119Y-120777000D01*
X94257881Y-120777000D01*
X94771337Y-120564320D01*
X95164320Y-120171337D01*
X95377000Y-119657881D01*
X95377000Y-119102119D01*
X105283000Y-119102119D01*
X105283000Y-119657881D01*
X105495680Y-120171337D01*
X105888663Y-120564320D01*
X106402119Y-120777000D01*
X106957881Y-120777000D01*
X107471337Y-120564320D01*
X107864320Y-120171337D01*
X107950000Y-119964487D01*
X108035680Y-120171337D01*
X108428663Y-120564320D01*
X108942119Y-120777000D01*
X109497881Y-120777000D01*
X110011337Y-120564320D01*
X110404320Y-120171337D01*
X110617000Y-119657881D01*
X110617000Y-119102119D01*
X120523000Y-119102119D01*
X120523000Y-119657881D01*
X120735680Y-120171337D01*
X121128663Y-120564320D01*
X121642119Y-120777000D01*
X122197881Y-120777000D01*
X122711337Y-120564320D01*
X123104320Y-120171337D01*
X123190000Y-119964487D01*
X123275680Y-120171337D01*
X123668663Y-120564320D01*
X124182119Y-120777000D01*
X124737881Y-120777000D01*
X125251337Y-120564320D01*
X125644320Y-120171337D01*
X125857000Y-119657881D01*
X125857000Y-119102119D01*
X125710508Y-118748453D01*
X131445000Y-118748453D01*
X131445000Y-120011547D01*
X131928365Y-121178493D01*
X132821507Y-122071635D01*
X133988453Y-122555000D01*
X135251547Y-122555000D01*
X136418493Y-122071635D01*
X137311635Y-121178493D01*
X137795000Y-120011547D01*
X137795000Y-118748453D01*
X137311635Y-117581507D01*
X136418493Y-116688365D01*
X135251547Y-116205000D01*
X133988453Y-116205000D01*
X132821507Y-116688365D01*
X131928365Y-117581507D01*
X131445000Y-118748453D01*
X125710508Y-118748453D01*
X125644320Y-118588663D01*
X125251337Y-118195680D01*
X124737881Y-117983000D01*
X124182119Y-117983000D01*
X123668663Y-118195680D01*
X123275680Y-118588663D01*
X123190000Y-118795513D01*
X123104320Y-118588663D01*
X122711337Y-118195680D01*
X122197881Y-117983000D01*
X121642119Y-117983000D01*
X121128663Y-118195680D01*
X120735680Y-118588663D01*
X120523000Y-119102119D01*
X110617000Y-119102119D01*
X110404320Y-118588663D01*
X110011337Y-118195680D01*
X109497881Y-117983000D01*
X108942119Y-117983000D01*
X108428663Y-118195680D01*
X108035680Y-118588663D01*
X107950000Y-118795513D01*
X107864320Y-118588663D01*
X107471337Y-118195680D01*
X106957881Y-117983000D01*
X106402119Y-117983000D01*
X105888663Y-118195680D01*
X105495680Y-118588663D01*
X105283000Y-119102119D01*
X95377000Y-119102119D01*
X95164320Y-118588663D01*
X94771337Y-118195680D01*
X94257881Y-117983000D01*
X93702119Y-117983000D01*
X93188663Y-118195680D01*
X92795680Y-118588663D01*
X92710000Y-118795513D01*
X92624320Y-118588663D01*
X92231337Y-118195680D01*
X91717881Y-117983000D01*
X91162119Y-117983000D01*
X90648663Y-118195680D01*
X90255680Y-118588663D01*
X90043000Y-119102119D01*
X80137000Y-119102119D01*
X79924320Y-118588663D01*
X79531337Y-118195680D01*
X79017881Y-117983000D01*
X78462119Y-117983000D01*
X77948663Y-118195680D01*
X77555680Y-118588663D01*
X77470000Y-118795513D01*
X77384320Y-118588663D01*
X76991337Y-118195680D01*
X76477881Y-117983000D01*
X75922119Y-117983000D01*
X75408663Y-118195680D01*
X75015680Y-118588663D01*
X74803000Y-119102119D01*
X66675000Y-119102119D01*
X66675000Y-118748453D01*
X66191635Y-117581507D01*
X65298493Y-116688365D01*
X64131547Y-116205000D01*
X62868453Y-116205000D01*
X61701507Y-116688365D01*
X60808365Y-117581507D01*
X60325000Y-118748453D01*
X46455000Y-118748453D01*
X46455000Y-110874453D01*
X60325000Y-110874453D01*
X60325000Y-112137547D01*
X60808365Y-113304493D01*
X61701507Y-114197635D01*
X62868453Y-114681000D01*
X64131547Y-114681000D01*
X65298493Y-114197635D01*
X66191635Y-113304493D01*
X66675000Y-112137547D01*
X66675000Y-110874453D01*
X131445000Y-110874453D01*
X131445000Y-112137547D01*
X131928365Y-113304493D01*
X132821507Y-114197635D01*
X133988453Y-114681000D01*
X135251547Y-114681000D01*
X136418493Y-114197635D01*
X137311635Y-113304493D01*
X137795000Y-112137547D01*
X137795000Y-110874453D01*
X137311635Y-109707507D01*
X136418493Y-108814365D01*
X135251547Y-108331000D01*
X133988453Y-108331000D01*
X132821507Y-108814365D01*
X131928365Y-109707507D01*
X131445000Y-110874453D01*
X66675000Y-110874453D01*
X66191635Y-109707507D01*
X65426247Y-108942119D01*
X74803000Y-108942119D01*
X74803000Y-109497881D01*
X75015680Y-110011337D01*
X75408663Y-110404320D01*
X75922119Y-110617000D01*
X76477881Y-110617000D01*
X76991337Y-110404320D01*
X77384320Y-110011337D01*
X77470000Y-109804487D01*
X77555680Y-110011337D01*
X77948663Y-110404320D01*
X78462119Y-110617000D01*
X79017881Y-110617000D01*
X79531337Y-110404320D01*
X79924320Y-110011337D01*
X80137000Y-109497881D01*
X80137000Y-108942119D01*
X90043000Y-108942119D01*
X90043000Y-109497881D01*
X90255680Y-110011337D01*
X90648663Y-110404320D01*
X91162119Y-110617000D01*
X91717881Y-110617000D01*
X92231337Y-110404320D01*
X92624320Y-110011337D01*
X92710000Y-109804487D01*
X92795680Y-110011337D01*
X93188663Y-110404320D01*
X93702119Y-110617000D01*
X94257881Y-110617000D01*
X94771337Y-110404320D01*
X95164320Y-110011337D01*
X95377000Y-109497881D01*
X95377000Y-108942119D01*
X105283000Y-108942119D01*
X105283000Y-109497881D01*
X105495680Y-110011337D01*
X105888663Y-110404320D01*
X106402119Y-110617000D01*
X106957881Y-110617000D01*
X107471337Y-110404320D01*
X107864320Y-110011337D01*
X107950000Y-109804487D01*
X108035680Y-110011337D01*
X108428663Y-110404320D01*
X108942119Y-110617000D01*
X109497881Y-110617000D01*
X110011337Y-110404320D01*
X110404320Y-110011337D01*
X110617000Y-109497881D01*
X110617000Y-108942119D01*
X120523000Y-108942119D01*
X120523000Y-109497881D01*
X120735680Y-110011337D01*
X121128663Y-110404320D01*
X121642119Y-110617000D01*
X122197881Y-110617000D01*
X122711337Y-110404320D01*
X123104320Y-110011337D01*
X123190000Y-109804487D01*
X123275680Y-110011337D01*
X123668663Y-110404320D01*
X124182119Y-110617000D01*
X124737881Y-110617000D01*
X125251337Y-110404320D01*
X125644320Y-110011337D01*
X125857000Y-109497881D01*
X125857000Y-108942119D01*
X125644320Y-108428663D01*
X125251337Y-108035680D01*
X124737881Y-107823000D01*
X124182119Y-107823000D01*
X123668663Y-108035680D01*
X123275680Y-108428663D01*
X123190000Y-108635513D01*
X123104320Y-108428663D01*
X122711337Y-108035680D01*
X122197881Y-107823000D01*
X121642119Y-107823000D01*
X121128663Y-108035680D01*
X120735680Y-108428663D01*
X120523000Y-108942119D01*
X110617000Y-108942119D01*
X110404320Y-108428663D01*
X110011337Y-108035680D01*
X109497881Y-107823000D01*
X108942119Y-107823000D01*
X108428663Y-108035680D01*
X108035680Y-108428663D01*
X107950000Y-108635513D01*
X107864320Y-108428663D01*
X107471337Y-108035680D01*
X106957881Y-107823000D01*
X106402119Y-107823000D01*
X105888663Y-108035680D01*
X105495680Y-108428663D01*
X105283000Y-108942119D01*
X95377000Y-108942119D01*
X95164320Y-108428663D01*
X94771337Y-108035680D01*
X94257881Y-107823000D01*
X93702119Y-107823000D01*
X93188663Y-108035680D01*
X92795680Y-108428663D01*
X92710000Y-108635513D01*
X92624320Y-108428663D01*
X92231337Y-108035680D01*
X91717881Y-107823000D01*
X91162119Y-107823000D01*
X90648663Y-108035680D01*
X90255680Y-108428663D01*
X90043000Y-108942119D01*
X80137000Y-108942119D01*
X79924320Y-108428663D01*
X79531337Y-108035680D01*
X79017881Y-107823000D01*
X78462119Y-107823000D01*
X77948663Y-108035680D01*
X77555680Y-108428663D01*
X77470000Y-108635513D01*
X77384320Y-108428663D01*
X76991337Y-108035680D01*
X76477881Y-107823000D01*
X75922119Y-107823000D01*
X75408663Y-108035680D01*
X75015680Y-108428663D01*
X74803000Y-108942119D01*
X65426247Y-108942119D01*
X65298493Y-108814365D01*
X64131547Y-108331000D01*
X62868453Y-108331000D01*
X61701507Y-108814365D01*
X60808365Y-109707507D01*
X60325000Y-110874453D01*
X46455000Y-110874453D01*
X46455000Y-104140000D01*
X129295908Y-104140000D01*
X129411161Y-104719418D01*
X129739375Y-105210625D01*
X130230582Y-105538839D01*
X130663744Y-105625000D01*
X130956256Y-105625000D01*
X131389418Y-105538839D01*
X131880625Y-105210625D01*
X132208839Y-104719418D01*
X132324092Y-104140000D01*
X132208839Y-103560582D01*
X131880625Y-103069375D01*
X131389418Y-102741161D01*
X130956256Y-102655000D01*
X130663744Y-102655000D01*
X130230582Y-102741161D01*
X129739375Y-103069375D01*
X129411161Y-103560582D01*
X129295908Y-104140000D01*
X46455000Y-104140000D01*
X46455000Y-101180653D01*
X48691800Y-101180653D01*
X48691800Y-102019347D01*
X49012754Y-102794199D01*
X49605801Y-103387246D01*
X50380653Y-103708200D01*
X51219347Y-103708200D01*
X51994199Y-103387246D01*
X52587246Y-102794199D01*
X52908200Y-102019347D01*
X52908200Y-101180653D01*
X52587246Y-100405801D01*
X52296012Y-100114567D01*
X70030000Y-100114567D01*
X70030000Y-101053433D01*
X70389289Y-101920833D01*
X71053167Y-102584711D01*
X71920567Y-102944000D01*
X72859433Y-102944000D01*
X73726833Y-102584711D01*
X74390711Y-101920833D01*
X74750000Y-101053433D01*
X74750000Y-100114567D01*
X77650000Y-100114567D01*
X77650000Y-101053433D01*
X78009289Y-101920833D01*
X78673167Y-102584711D01*
X79540567Y-102944000D01*
X80479433Y-102944000D01*
X81346833Y-102584711D01*
X82010711Y-101920833D01*
X82370000Y-101053433D01*
X82370000Y-100114567D01*
X85270000Y-100114567D01*
X85270000Y-101053433D01*
X85629289Y-101920833D01*
X86293167Y-102584711D01*
X87160567Y-102944000D01*
X88099433Y-102944000D01*
X88966833Y-102584711D01*
X89630711Y-101920833D01*
X89990000Y-101053433D01*
X89990000Y-100114567D01*
X92890000Y-100114567D01*
X92890000Y-101053433D01*
X93249289Y-101920833D01*
X93913167Y-102584711D01*
X94780567Y-102944000D01*
X95719433Y-102944000D01*
X96586833Y-102584711D01*
X97250711Y-101920833D01*
X97610000Y-101053433D01*
X97610000Y-100114567D01*
X100510000Y-100114567D01*
X100510000Y-101053433D01*
X100869289Y-101920833D01*
X101533167Y-102584711D01*
X102400567Y-102944000D01*
X103339433Y-102944000D01*
X104206833Y-102584711D01*
X104870711Y-101920833D01*
X105230000Y-101053433D01*
X105230000Y-100114567D01*
X108130000Y-100114567D01*
X108130000Y-101053433D01*
X108489289Y-101920833D01*
X109153167Y-102584711D01*
X110020567Y-102944000D01*
X110959433Y-102944000D01*
X111826833Y-102584711D01*
X112490711Y-101920833D01*
X112850000Y-101053433D01*
X112850000Y-100114567D01*
X115750000Y-100114567D01*
X115750000Y-101053433D01*
X116109289Y-101920833D01*
X116773167Y-102584711D01*
X117640567Y-102944000D01*
X118579433Y-102944000D01*
X119446833Y-102584711D01*
X120110711Y-101920833D01*
X120470000Y-101053433D01*
X120470000Y-100114567D01*
X123370000Y-100114567D01*
X123370000Y-101053433D01*
X123729289Y-101920833D01*
X124393167Y-102584711D01*
X125260567Y-102944000D01*
X126199433Y-102944000D01*
X127066833Y-102584711D01*
X127730711Y-101920833D01*
X128090000Y-101053433D01*
X128090000Y-100114567D01*
X127730711Y-99247167D01*
X127066833Y-98583289D01*
X126199433Y-98224000D01*
X125260567Y-98224000D01*
X124393167Y-98583289D01*
X123729289Y-99247167D01*
X123370000Y-100114567D01*
X120470000Y-100114567D01*
X120110711Y-99247167D01*
X119446833Y-98583289D01*
X118579433Y-98224000D01*
X117640567Y-98224000D01*
X116773167Y-98583289D01*
X116109289Y-99247167D01*
X115750000Y-100114567D01*
X112850000Y-100114567D01*
X112490711Y-99247167D01*
X111826833Y-98583289D01*
X110959433Y-98224000D01*
X110020567Y-98224000D01*
X109153167Y-98583289D01*
X108489289Y-99247167D01*
X108130000Y-100114567D01*
X105230000Y-100114567D01*
X104870711Y-99247167D01*
X104206833Y-98583289D01*
X103339433Y-98224000D01*
X102400567Y-98224000D01*
X101533167Y-98583289D01*
X100869289Y-99247167D01*
X100510000Y-100114567D01*
X97610000Y-100114567D01*
X97250711Y-99247167D01*
X96586833Y-98583289D01*
X95719433Y-98224000D01*
X94780567Y-98224000D01*
X93913167Y-98583289D01*
X93249289Y-99247167D01*
X92890000Y-100114567D01*
X89990000Y-100114567D01*
X89630711Y-99247167D01*
X88966833Y-98583289D01*
X88099433Y-98224000D01*
X87160567Y-98224000D01*
X86293167Y-98583289D01*
X85629289Y-99247167D01*
X85270000Y-100114567D01*
X82370000Y-100114567D01*
X82010711Y-99247167D01*
X81346833Y-98583289D01*
X80479433Y-98224000D01*
X79540567Y-98224000D01*
X78673167Y-98583289D01*
X78009289Y-99247167D01*
X77650000Y-100114567D01*
X74750000Y-100114567D01*
X74390711Y-99247167D01*
X73726833Y-98583289D01*
X72859433Y-98224000D01*
X71920567Y-98224000D01*
X71053167Y-98583289D01*
X70389289Y-99247167D01*
X70030000Y-100114567D01*
X52296012Y-100114567D01*
X51994199Y-99812754D01*
X51219347Y-99491800D01*
X50380653Y-99491800D01*
X49605801Y-99812754D01*
X49012754Y-100405801D01*
X48691800Y-101180653D01*
X46455000Y-101180653D01*
X46455000Y-99106240D01*
X46517365Y-98612569D01*
X46676753Y-98210000D01*
X129312560Y-98210000D01*
X129312560Y-99910000D01*
X129361843Y-100157765D01*
X129502191Y-100367809D01*
X129712235Y-100508157D01*
X129960000Y-100557440D01*
X131660000Y-100557440D01*
X131907765Y-100508157D01*
X132117809Y-100367809D01*
X132258157Y-100157765D01*
X132307440Y-99910000D01*
X132307440Y-98782119D01*
X135763000Y-98782119D01*
X135763000Y-99337881D01*
X135975680Y-99851337D01*
X136368663Y-100244320D01*
X136575513Y-100330000D01*
X136368663Y-100415680D01*
X135975680Y-100808663D01*
X135763000Y-101322119D01*
X135763000Y-101877881D01*
X135975680Y-102391337D01*
X136368663Y-102784320D01*
X136575513Y-102870000D01*
X136368663Y-102955680D01*
X135975680Y-103348663D01*
X135763000Y-103862119D01*
X135763000Y-104417881D01*
X135975680Y-104931337D01*
X136368663Y-105324320D01*
X136882119Y-105537000D01*
X137437881Y-105537000D01*
X137951337Y-105324320D01*
X138344320Y-104931337D01*
X138557000Y-104417881D01*
X138557000Y-103862119D01*
X138344320Y-103348663D01*
X137951337Y-102955680D01*
X137744487Y-102870000D01*
X137951337Y-102784320D01*
X138344320Y-102391337D01*
X138557000Y-101877881D01*
X138557000Y-101322119D01*
X138498403Y-101180653D01*
X145211800Y-101180653D01*
X145211800Y-102019347D01*
X145532754Y-102794199D01*
X146125801Y-103387246D01*
X146900653Y-103708200D01*
X147739347Y-103708200D01*
X148514199Y-103387246D01*
X149107246Y-102794199D01*
X149428200Y-102019347D01*
X149428200Y-101180653D01*
X149107246Y-100405801D01*
X148514199Y-99812754D01*
X147739347Y-99491800D01*
X146900653Y-99491800D01*
X146125801Y-99812754D01*
X145532754Y-100405801D01*
X145211800Y-101180653D01*
X138498403Y-101180653D01*
X138344320Y-100808663D01*
X137951337Y-100415680D01*
X137744487Y-100330000D01*
X137951337Y-100244320D01*
X138344320Y-99851337D01*
X138557000Y-99337881D01*
X138557000Y-98782119D01*
X138344320Y-98268663D01*
X137951337Y-97875680D01*
X137437881Y-97663000D01*
X136882119Y-97663000D01*
X136368663Y-97875680D01*
X135975680Y-98268663D01*
X135763000Y-98782119D01*
X132307440Y-98782119D01*
X132307440Y-98210000D01*
X132258157Y-97962235D01*
X132117809Y-97752191D01*
X131907765Y-97611843D01*
X131660000Y-97562560D01*
X129960000Y-97562560D01*
X129712235Y-97611843D01*
X129502191Y-97752191D01*
X129361843Y-97962235D01*
X129312560Y-98210000D01*
X46676753Y-98210000D01*
X46683385Y-98193250D01*
X46948471Y-97828390D01*
X47295963Y-97540921D01*
X47704031Y-97348898D01*
X48181417Y-97257832D01*
X48271536Y-97255000D01*
X149813760Y-97255000D01*
X150307431Y-97317365D01*
G04 #@! TD*
M02*
