M48
;DRILL file {KiCad (5.0.2)-1} date 4/2/2019 6:39:05 PM
;FORMAT={-:-/ absolute / inch / decimal}
FMAT,2
INCH,TZ
T1C0.0300
T2C0.0350
T3C0.0354
T4C0.0394
T5C0.1040
T6C0.1598
%
G90
G05
T1
X3.1Y-4.3
X3.7Y-4.3
X4.3Y-4.3
X4.9Y-4.3
T2
X4.2Y-4.7
X4.3Y-4.7
X3.6Y-4.7
X3.7Y-4.7
X5.4Y-3.9
X5.4Y-4.
X5.4Y-4.1
X4.8Y-4.7
X4.9Y-4.7
X3.Y-4.7
X3.1Y-4.7
T3
X2.9Y-4.3
X3.Y-4.3
X3.5Y-4.3
X3.6Y-4.3
X4.1Y-4.3
X4.2Y-4.3
X4.7Y-4.3
X4.8Y-4.3
T4
X5.15Y-3.9
X5.15Y-4.
X5.15Y-4.1
T5
X3.4Y-4.9
X3.8Y-4.9
X4.6Y-4.9
X5.Y-4.9
X2.8Y-4.9
X3.2Y-4.9
X4.Y-4.9
X4.4Y-4.9
T6
X5.3Y-4.39
X5.3Y-4.7
X5.3Y-5.01
X2.5Y-4.39
X2.5Y-4.7
X2.5Y-5.01
T0
M30
