G04 #@! TF.FileFunction,Copper,L1,Top,Signal*
%FSLAX46Y46*%
G04 Gerber Fmt 4.6, Leading zero omitted, Abs format (unit mm)*
G04 Created by KiCad (PCBNEW 4.0.7) date 04/17/18 20:18:09*
%MOMM*%
%LPD*%
G01*
G04 APERTURE LIST*
%ADD10C,0.100000*%
%ADD11R,0.850000X0.850000*%
%ADD12C,0.850000*%
%ADD13C,1.524000*%
%ADD14C,5.080000*%
%ADD15R,0.750000X1.200000*%
%ADD16R,1.200000X0.900000*%
%ADD17C,2.641600*%
%ADD18R,0.900000X1.200000*%
%ADD19R,1.981200X0.558800*%
%ADD20R,1.168400X0.254000*%
%ADD21C,0.600000*%
%ADD22C,0.812800*%
%ADD23C,0.406400*%
%ADD24C,0.254000*%
G04 APERTURE END LIST*
D10*
D11*
X165821360Y-120868440D03*
D12*
X165821360Y-119618440D03*
X165821360Y-118368440D03*
D11*
X165735000Y-132461000D03*
D12*
X165735000Y-131211000D03*
X165735000Y-129961000D03*
D11*
X165709600Y-144048800D03*
D12*
X165709600Y-142798800D03*
X165709600Y-141548800D03*
D11*
X165709600Y-155682000D03*
D12*
X165709600Y-154432000D03*
X165709600Y-153182000D03*
D13*
X169418000Y-122174000D03*
X169418000Y-119634000D03*
X169418000Y-117094000D03*
X169418000Y-133731000D03*
X169418000Y-131191000D03*
X169418000Y-128651000D03*
X169418000Y-145364200D03*
X169418000Y-142824200D03*
X169418000Y-140284200D03*
X169392600Y-156921200D03*
X169392600Y-154381200D03*
X169392600Y-151841200D03*
X137703560Y-174594520D03*
X137703560Y-177134520D03*
X137703560Y-179674520D03*
D14*
X142646400Y-164085000D03*
X142646400Y-172084000D03*
X142646400Y-180085000D03*
D13*
X118567200Y-173812200D03*
X116027200Y-173812200D03*
X113487200Y-173812200D03*
D11*
X114757200Y-169265600D03*
D12*
X116007200Y-169265600D03*
X117257200Y-169265600D03*
D15*
X112631220Y-183680140D03*
X112631220Y-181780140D03*
X112552480Y-176816980D03*
X112552480Y-178716980D03*
X133324600Y-170825200D03*
X133324600Y-168925200D03*
X114968020Y-183680140D03*
X114968020Y-181780140D03*
X111384080Y-176816980D03*
X111384080Y-178716980D03*
X134493000Y-170825200D03*
X134493000Y-168925200D03*
X113799620Y-183680140D03*
X113799620Y-181780140D03*
X117200680Y-176816980D03*
X117200680Y-178716980D03*
X135661400Y-170825200D03*
X135661400Y-168925200D03*
X117304820Y-183705540D03*
X117304820Y-181805540D03*
X113720880Y-176816980D03*
X113720880Y-178716980D03*
X136829800Y-170825200D03*
X136829800Y-168925200D03*
X116136420Y-183680140D03*
X116136420Y-181780140D03*
X114863880Y-176816980D03*
X114863880Y-178716980D03*
X138023600Y-170825200D03*
X138023600Y-168925200D03*
X111462820Y-183680140D03*
X111462820Y-181780140D03*
X116032280Y-176816980D03*
X116032280Y-178716980D03*
X132130800Y-170850600D03*
X132130800Y-168950600D03*
D16*
X118945300Y-181864000D03*
X121145300Y-181864000D03*
D13*
X117475000Y-128778000D03*
X114935000Y-128778000D03*
D17*
X112395000Y-123698000D03*
X122555000Y-123698000D03*
D16*
X122255100Y-145249900D03*
X124455100Y-145249900D03*
X122255100Y-142709900D03*
X124455100Y-142709900D03*
X122255100Y-140169900D03*
X124455100Y-140169900D03*
X122255100Y-137629900D03*
X124455100Y-137629900D03*
X121145300Y-183743600D03*
X118945300Y-183743600D03*
X124091880Y-131150360D03*
X121891880Y-131150360D03*
D18*
X112179100Y-146222900D03*
X112179100Y-144022900D03*
X112179100Y-142031900D03*
X112179100Y-139831900D03*
D16*
X119743400Y-131216400D03*
X117543400Y-131216400D03*
D19*
X119722900Y-145249900D03*
X119722900Y-143979900D03*
X119722900Y-142709900D03*
X119722900Y-141439900D03*
X119722900Y-140169900D03*
X119722900Y-138899900D03*
X119722900Y-137629900D03*
X114795300Y-137629900D03*
X114795300Y-138899900D03*
X114795300Y-140169900D03*
X114795300Y-141439900D03*
X114795300Y-142709900D03*
X114795300Y-143979900D03*
X114795300Y-145249900D03*
D20*
X119062500Y-135243001D03*
X119062500Y-134743000D03*
X119062500Y-134243000D03*
X119062500Y-133742999D03*
X116319300Y-133742999D03*
X116319300Y-134243000D03*
X116319300Y-134743000D03*
X116319300Y-135243001D03*
D21*
X129641600Y-168960800D03*
X125933200Y-131140200D03*
X112191800Y-137464800D03*
X126060200Y-142494000D03*
X136347200Y-140157200D03*
X126415800Y-137617200D03*
X126415800Y-145211800D03*
X111130080Y-185257440D03*
X111384080Y-175158400D03*
X112392460Y-134543800D03*
X114940080Y-133731000D03*
X120167400Y-132603240D03*
X116761260Y-136291320D03*
X118521480Y-136319260D03*
D22*
X118567200Y-173812200D02*
X118567200Y-173695360D01*
X118567200Y-173695360D02*
X117257200Y-172385360D01*
X117257200Y-172385360D02*
X117257200Y-169265600D01*
X142646400Y-164085000D02*
X128294400Y-164085000D01*
X128294400Y-164085000D02*
X123207780Y-169171620D01*
X123207780Y-169171620D02*
X118567200Y-173812200D01*
X165709600Y-153182000D02*
X165709600Y-153085800D01*
X165709600Y-153085800D02*
X166954200Y-151841200D01*
X166954200Y-151841200D02*
X169392600Y-151841200D01*
X165709600Y-141548800D02*
X165709600Y-141452600D01*
X165709600Y-141452600D02*
X166878000Y-140284200D01*
X166878000Y-140284200D02*
X169418000Y-140284200D01*
X165735000Y-129961000D02*
X165811840Y-129961000D01*
X165811840Y-129961000D02*
X167121840Y-128651000D01*
X167121840Y-128651000D02*
X169418000Y-128651000D01*
X165821360Y-118368440D02*
X165821360Y-118328440D01*
X165821360Y-118328440D02*
X167055800Y-117094000D01*
X167055800Y-117094000D02*
X169418000Y-117094000D01*
D23*
X165735000Y-129961000D02*
X165735000Y-129926080D01*
X165709600Y-141548800D02*
X165709600Y-141528800D01*
X165709600Y-153182000D02*
X165709600Y-153172160D01*
D22*
X116007200Y-169265600D02*
X116007200Y-167456800D01*
X114795300Y-160591500D02*
X114795300Y-145249900D01*
X116535200Y-162331400D02*
X114795300Y-160591500D01*
X116535200Y-166928800D02*
X116535200Y-162331400D01*
X116007200Y-167456800D02*
X116535200Y-166928800D01*
X116027200Y-173812200D02*
X116027200Y-173946820D01*
X116027200Y-173946820D02*
X117454680Y-175374300D01*
X133921500Y-175374300D02*
X137703560Y-171592240D01*
X117454680Y-175374300D02*
X133921500Y-175374300D01*
X137703560Y-174594520D02*
X137703560Y-171592240D01*
X137703560Y-171592240D02*
X137703560Y-171145240D01*
X137703560Y-171145240D02*
X138023600Y-170825200D01*
X116007200Y-169265600D02*
X116007200Y-173792200D01*
X116007200Y-173792200D02*
X116027200Y-173812200D01*
X132130800Y-170850600D02*
X133299200Y-170850600D01*
X133299200Y-170850600D02*
X133324600Y-170825200D01*
X133324600Y-170825200D02*
X135661400Y-170825200D01*
X135661400Y-170825200D02*
X136829800Y-170825200D01*
X136829800Y-170825200D02*
X138023600Y-170825200D01*
X138023600Y-170825200D02*
X138059200Y-170789600D01*
X138059200Y-170789600D02*
X141352000Y-170789600D01*
X141352000Y-170789600D02*
X142646400Y-172084000D01*
D23*
X132130800Y-168950600D02*
X129651800Y-168950600D01*
X129651800Y-168950600D02*
X129641600Y-168960800D01*
D24*
X124091880Y-131150360D02*
X125923040Y-131150360D01*
X125923040Y-131150360D02*
X125933200Y-131140200D01*
X112179100Y-139831900D02*
X112179100Y-137477500D01*
X112179100Y-137477500D02*
X112191800Y-137464800D01*
D23*
X124455100Y-142709900D02*
X125844300Y-142709900D01*
X125844300Y-142709900D02*
X126060200Y-142494000D01*
X124455100Y-142709900D02*
X125461500Y-142709900D01*
X125461500Y-142709900D02*
X125652000Y-142519400D01*
X124455100Y-140169900D02*
X136334500Y-140169900D01*
X136334500Y-140169900D02*
X136347200Y-140157200D01*
X124455100Y-137629900D02*
X126403100Y-137629900D01*
X126403100Y-137629900D02*
X126415800Y-137617200D01*
X124455100Y-145249900D02*
X126377700Y-145249900D01*
X126377700Y-145249900D02*
X126415800Y-145211800D01*
X111462820Y-183680140D02*
X112631220Y-183680140D01*
X112631220Y-183680140D02*
X113799620Y-183680140D01*
X113799620Y-183680140D02*
X114968020Y-183680140D01*
X114968020Y-183680140D02*
X116136420Y-183680140D01*
X116136420Y-183680140D02*
X116161820Y-183705540D01*
X116161820Y-183705540D02*
X118907240Y-183705540D01*
X118907240Y-183705540D02*
X118945300Y-183743600D01*
D24*
X111462820Y-183680140D02*
X111462820Y-184924700D01*
X111462820Y-184924700D02*
X111130080Y-185257440D01*
X121891880Y-131150360D02*
X121891880Y-133022520D01*
X120671400Y-134243000D02*
X119062500Y-134243000D01*
X121891880Y-133022520D02*
X120671400Y-134243000D01*
X113967260Y-126903480D02*
X118968520Y-126903480D01*
X110380780Y-130489960D02*
X113967260Y-126903480D01*
X110380780Y-136108440D02*
X110380780Y-130489960D01*
X121891880Y-129826840D02*
X121891880Y-131150360D01*
X118968520Y-126903480D02*
X121891880Y-129826840D01*
X110528100Y-159143700D02*
X110528100Y-159138620D01*
X111015820Y-183680140D02*
X110530640Y-183194960D01*
X110530640Y-183194960D02*
X110530640Y-170535600D01*
X111462820Y-183680140D02*
X111015820Y-183680140D01*
X110530640Y-170380660D02*
X114642900Y-166268400D01*
X114642900Y-166268400D02*
X114642900Y-163258500D01*
X114642900Y-163258500D02*
X110528100Y-159143700D01*
X110530640Y-170535600D02*
X110530640Y-170380660D01*
X110380780Y-158991300D02*
X110380780Y-136108440D01*
X110380780Y-136108440D02*
X110380780Y-136098280D01*
X110528100Y-159138620D02*
X110380780Y-158991300D01*
X121706640Y-131335600D02*
X121891880Y-131150360D01*
X111005620Y-157972760D02*
X111005620Y-136144000D01*
X112707420Y-135577580D02*
X111572040Y-135577580D01*
X111572040Y-135577580D02*
X111005620Y-136144000D01*
X111384080Y-175158400D02*
X111384080Y-170784520D01*
X111384080Y-170784520D02*
X115519200Y-166649400D01*
X115519200Y-166649400D02*
X115519200Y-162486340D01*
X115519200Y-162486340D02*
X111005620Y-157972760D01*
X115265297Y-134997810D02*
X115520107Y-134743000D01*
X115520107Y-134743000D02*
X116319300Y-134743000D01*
X113287190Y-134997810D02*
X115265297Y-134997810D01*
X112707420Y-135577580D02*
X113287190Y-134997810D01*
D23*
X111384080Y-176816980D02*
X112552480Y-176816980D01*
X112552480Y-176816980D02*
X113720880Y-176816980D01*
X113720880Y-176816980D02*
X114863880Y-176816980D01*
X114863880Y-176816980D02*
X116032280Y-176816980D01*
X116032280Y-176816980D02*
X117200680Y-176816980D01*
D24*
X116319300Y-134743000D02*
X115640040Y-134743000D01*
X111384080Y-176816980D02*
X111384080Y-175158400D01*
D23*
X121145300Y-183743600D02*
X121145300Y-181864000D01*
X165709600Y-155682000D02*
X162219960Y-155682000D01*
X153233120Y-146685000D02*
X123690200Y-146685000D01*
X162191700Y-155643580D02*
X153233120Y-146685000D01*
X123690200Y-146685000D02*
X122255100Y-145249900D01*
X165709600Y-155682000D02*
X168153400Y-155682000D01*
X168153400Y-155682000D02*
X169392600Y-156921200D01*
X122255100Y-145249900D02*
X119722900Y-145249900D01*
X165709600Y-144048800D02*
X164878200Y-144048800D01*
X164832800Y-144094200D02*
X162902900Y-144094200D01*
X164878200Y-144048800D02*
X164832800Y-144094200D01*
X162902900Y-144094200D02*
X162382200Y-143573500D01*
X162382200Y-143573500D02*
X123118700Y-143573500D01*
X123118700Y-143573500D02*
X122255100Y-142709900D01*
X165709600Y-144048800D02*
X168102600Y-144048800D01*
X168102600Y-144048800D02*
X169418000Y-145364200D01*
X119722900Y-142709900D02*
X122255100Y-142709900D01*
X157353000Y-139039600D02*
X154889200Y-141503400D01*
X125242320Y-141457680D02*
X154843480Y-141457680D01*
X154843480Y-141457680D02*
X154889200Y-141503400D01*
X159105600Y-132486400D02*
X165709600Y-132486400D01*
X165709600Y-132486400D02*
X165735000Y-132461000D01*
X165735000Y-132461000D02*
X168148000Y-132461000D01*
X168148000Y-132461000D02*
X169418000Y-133731000D01*
X123542880Y-141457680D02*
X122255100Y-140169900D01*
X125242320Y-141457680D02*
X123542880Y-141457680D01*
X157353000Y-134239000D02*
X157353000Y-139039600D01*
X159106870Y-132485130D02*
X159105600Y-132486400D01*
X159105600Y-132486400D02*
X157353000Y-134239000D01*
X119722900Y-140169900D02*
X122255100Y-140169900D01*
X165821360Y-120868440D02*
X158556960Y-120868440D01*
X165821360Y-120868440D02*
X168112440Y-120868440D01*
X168112440Y-120868440D02*
X169418000Y-122174000D01*
X123514940Y-138889740D02*
X122255100Y-137629900D01*
X158501080Y-120924320D02*
X157302200Y-122123200D01*
X157302200Y-122123200D02*
X157302200Y-132334000D01*
X157302200Y-132334000D02*
X155841700Y-133794500D01*
X155841700Y-133794500D02*
X155841700Y-138328400D01*
X155841700Y-138328400D02*
X155280360Y-138889740D01*
X155280360Y-138889740D02*
X123514940Y-138889740D01*
X119722900Y-137629900D02*
X122255100Y-137629900D01*
D24*
X115378040Y-134243000D02*
X115077240Y-134543800D01*
X115077240Y-134543800D02*
X112392460Y-134543800D01*
X116319300Y-134243000D02*
X115378040Y-134243000D01*
D23*
X114795300Y-143979900D02*
X117348000Y-143979900D01*
X119743400Y-131907100D02*
X119743400Y-131216400D01*
X119176800Y-132473700D02*
X119743400Y-131907100D01*
X118071900Y-132473700D02*
X119176800Y-132473700D01*
X117614700Y-132930900D02*
X118071900Y-132473700D01*
X117614700Y-143713200D02*
X117614700Y-132930900D01*
X117348000Y-143979900D02*
X117614700Y-143713200D01*
X114795300Y-143979900D02*
X113535460Y-143979900D01*
X112816460Y-146222900D02*
X112179100Y-146222900D01*
X113141760Y-145897600D02*
X112816460Y-146222900D01*
X113141760Y-144373600D02*
X113141760Y-145897600D01*
X113535460Y-143979900D02*
X113141760Y-144373600D01*
X114795300Y-142709900D02*
X112181640Y-142709900D01*
X112181640Y-142709900D02*
X112179100Y-142707360D01*
X112179100Y-142031900D02*
X112179100Y-142707360D01*
X112179100Y-142707360D02*
X112179100Y-144022900D01*
X117475000Y-128778000D02*
X117475000Y-131148000D01*
X117475000Y-131148000D02*
X117543400Y-131216400D01*
D24*
X114952079Y-133742999D02*
X114940080Y-133731000D01*
X116319300Y-133742999D02*
X114952079Y-133742999D01*
X119111461Y-133694038D02*
X120167400Y-133694038D01*
X120167400Y-133694038D02*
X120167400Y-132603240D01*
X119111461Y-133694038D02*
X119062500Y-133742999D01*
X116319300Y-135243001D02*
X115820759Y-135243001D01*
X115820759Y-135243001D02*
X114795300Y-136268460D01*
X114795300Y-136268460D02*
X114795300Y-137629900D01*
X114795300Y-138899900D02*
X115773200Y-138899900D01*
X115773200Y-138899900D02*
X116761260Y-137911840D01*
X116761260Y-137911840D02*
X116761260Y-136291320D01*
X118521480Y-136319260D02*
X119062500Y-135778240D01*
X119062500Y-135778240D02*
X119062500Y-135243001D01*
G36*
X121191010Y-143611341D02*
X121403210Y-143756331D01*
X121655100Y-143807340D01*
X122167146Y-143807340D01*
X122512266Y-144152460D01*
X121655100Y-144152460D01*
X121419783Y-144196738D01*
X121203659Y-144335810D01*
X121151806Y-144411700D01*
X121020465Y-144411700D01*
X120965390Y-144374069D01*
X120713500Y-144323060D01*
X118732300Y-144323060D01*
X118496983Y-144367338D01*
X118280859Y-144506410D01*
X118135869Y-144718610D01*
X118084860Y-144970500D01*
X118084860Y-145529300D01*
X118129138Y-145764617D01*
X118268210Y-145980741D01*
X118480410Y-146125731D01*
X118732300Y-146176740D01*
X120713500Y-146176740D01*
X120948817Y-146132462D01*
X121017757Y-146088100D01*
X121150316Y-146088100D01*
X121191010Y-146151341D01*
X121403210Y-146296331D01*
X121655100Y-146347340D01*
X122167146Y-146347340D01*
X123097503Y-147277697D01*
X123369435Y-147459396D01*
X123690200Y-147523200D01*
X152885926Y-147523200D01*
X161194307Y-155831581D01*
X160289227Y-155830791D01*
X159421514Y-156189323D01*
X158757056Y-156852622D01*
X158397011Y-157719708D01*
X158396191Y-158658573D01*
X158754723Y-159526286D01*
X159418022Y-160190744D01*
X160285108Y-160550789D01*
X161223973Y-160551609D01*
X162091686Y-160193077D01*
X162756144Y-159529778D01*
X163116189Y-158662692D01*
X163117009Y-157723827D01*
X162758477Y-156856114D01*
X162423149Y-156520200D01*
X164795903Y-156520200D01*
X164820510Y-156558441D01*
X165032710Y-156703431D01*
X165284600Y-156754440D01*
X166134600Y-156754440D01*
X166369917Y-156710162D01*
X166586041Y-156571090D01*
X166620813Y-156520200D01*
X167806206Y-156520200D01*
X167995784Y-156709778D01*
X167995358Y-157197861D01*
X168207590Y-157711503D01*
X168600230Y-158104829D01*
X169113500Y-158317957D01*
X169669261Y-158318442D01*
X170105000Y-158138399D01*
X170105000Y-160360950D01*
X169997828Y-160937298D01*
X169719562Y-161365236D01*
X169298713Y-161654112D01*
X168720825Y-161776590D01*
X168706800Y-161773800D01*
X153035000Y-161773800D01*
X152763295Y-161827846D01*
X152532954Y-161981754D01*
X152379046Y-162212095D01*
X152325000Y-162483800D01*
X152325000Y-183311800D01*
X152379046Y-183583505D01*
X152532954Y-183813846D01*
X152763295Y-183967754D01*
X153035000Y-184021800D01*
X168817622Y-184021800D01*
X169359736Y-184165300D01*
X169766830Y-184475718D01*
X170024140Y-184918289D01*
X170105256Y-185520315D01*
X170105000Y-185521600D01*
X170105000Y-192891123D01*
X169866714Y-192941625D01*
X169646380Y-193036134D01*
X169612118Y-193050830D01*
X168958396Y-193499553D01*
X168860475Y-193599953D01*
X168764972Y-193697874D01*
X168332730Y-194362608D01*
X168332730Y-194362609D01*
X168229923Y-194619854D01*
X168095111Y-195344842D01*
X168086643Y-195365286D01*
X168086643Y-195390382D01*
X168084966Y-195399400D01*
X168086642Y-195533495D01*
X168086642Y-195642314D01*
X168088094Y-195649614D01*
X168088429Y-195676407D01*
X168097743Y-195698121D01*
X168241319Y-196419927D01*
X168289247Y-196535634D01*
X168347334Y-196675868D01*
X168787816Y-197335096D01*
X168983704Y-197530984D01*
X169642932Y-197971467D01*
X169770903Y-198024474D01*
X169898873Y-198077481D01*
X170105000Y-198118482D01*
X170105000Y-205593869D01*
X169952848Y-206358789D01*
X169559170Y-206947970D01*
X168969989Y-207341648D01*
X168205069Y-207493800D01*
X112508568Y-207493800D01*
X111845421Y-207375625D01*
X111728259Y-207352320D01*
X111136414Y-206973757D01*
X110730919Y-206392403D01*
X110603164Y-205811133D01*
X110565000Y-205619273D01*
X110565000Y-198116477D01*
X110803286Y-198065975D01*
X110930584Y-198011372D01*
X111057882Y-197956770D01*
X111711604Y-197508047D01*
X111880284Y-197335096D01*
X111905028Y-197309726D01*
X112337271Y-196644991D01*
X112440077Y-196387746D01*
X112574889Y-195662756D01*
X112583357Y-195642313D01*
X112583357Y-195617219D01*
X112585034Y-195608200D01*
X112583357Y-195474056D01*
X112583357Y-195365285D01*
X112581906Y-195357990D01*
X112581571Y-195331193D01*
X112572256Y-195309476D01*
X112428681Y-194587673D01*
X112375673Y-194459702D01*
X112322667Y-194331732D01*
X111882184Y-193672504D01*
X111686296Y-193476616D01*
X111027068Y-193036134D01*
X110952104Y-193005083D01*
X110771127Y-192930119D01*
X110565000Y-192889118D01*
X110565000Y-186014818D01*
X110599753Y-186049632D01*
X110943281Y-186192278D01*
X111315247Y-186192602D01*
X111659023Y-186050557D01*
X111922272Y-185787767D01*
X112064918Y-185444239D01*
X112064984Y-185368708D01*
X112166816Y-185216305D01*
X112187159Y-185114032D01*
X112224820Y-184924700D01*
X112224820Y-184921221D01*
X112256220Y-184927580D01*
X113006220Y-184927580D01*
X113223100Y-184886771D01*
X113424620Y-184927580D01*
X114174620Y-184927580D01*
X114391500Y-184886771D01*
X114593020Y-184927580D01*
X115343020Y-184927580D01*
X115559900Y-184886771D01*
X115761420Y-184927580D01*
X116511420Y-184927580D01*
X116671364Y-184897484D01*
X116677930Y-184901971D01*
X116929820Y-184952980D01*
X117679820Y-184952980D01*
X117915137Y-184908702D01*
X118098086Y-184790978D01*
X118345300Y-184841040D01*
X119545300Y-184841040D01*
X119780617Y-184796762D01*
X119996741Y-184657690D01*
X120044434Y-184587889D01*
X120081210Y-184645041D01*
X120293410Y-184790031D01*
X120545300Y-184841040D01*
X121745300Y-184841040D01*
X121980617Y-184796762D01*
X122196741Y-184657690D01*
X122341731Y-184445490D01*
X122392740Y-184193600D01*
X122392740Y-183293600D01*
X122348462Y-183058283D01*
X122209390Y-182842159D01*
X122154965Y-182804972D01*
X122196741Y-182778090D01*
X122341731Y-182565890D01*
X122392740Y-182314000D01*
X122392740Y-181414000D01*
X122348462Y-181178683D01*
X122209390Y-180962559D01*
X121997190Y-180817569D01*
X121745300Y-180766560D01*
X120545300Y-180766560D01*
X120309983Y-180810838D01*
X120093859Y-180949910D01*
X119948869Y-181162110D01*
X119897860Y-181414000D01*
X119897860Y-182314000D01*
X119942138Y-182549317D01*
X120081210Y-182765441D01*
X120135635Y-182802628D01*
X120093859Y-182829510D01*
X120046166Y-182899311D01*
X120009390Y-182842159D01*
X119797190Y-182697169D01*
X119545300Y-182646160D01*
X118345300Y-182646160D01*
X118161104Y-182680819D01*
X118143910Y-182654099D01*
X117931710Y-182509109D01*
X117679820Y-182458100D01*
X116929820Y-182458100D01*
X116769876Y-182488196D01*
X116763310Y-182483709D01*
X116511420Y-182432700D01*
X115761420Y-182432700D01*
X115544540Y-182473509D01*
X115343020Y-182432700D01*
X114593020Y-182432700D01*
X114376140Y-182473509D01*
X114174620Y-182432700D01*
X113424620Y-182432700D01*
X113207740Y-182473509D01*
X113006220Y-182432700D01*
X112256220Y-182432700D01*
X112039340Y-182473509D01*
X111837820Y-182432700D01*
X111292640Y-182432700D01*
X111292640Y-179951181D01*
X136306318Y-179951181D01*
X136518550Y-180464823D01*
X136911190Y-180858149D01*
X137424460Y-181071277D01*
X137980221Y-181071762D01*
X138493863Y-180859530D01*
X138887189Y-180466890D01*
X139100317Y-179953620D01*
X139100802Y-179397859D01*
X138888570Y-178884217D01*
X138495930Y-178490891D01*
X137982660Y-178277763D01*
X137426899Y-178277278D01*
X136913257Y-178489510D01*
X136519931Y-178882150D01*
X136306803Y-179395420D01*
X136306318Y-179951181D01*
X111292640Y-179951181D01*
X111292640Y-178064420D01*
X111759080Y-178064420D01*
X111975960Y-178023611D01*
X112177480Y-178064420D01*
X112927480Y-178064420D01*
X113144360Y-178023611D01*
X113345880Y-178064420D01*
X114095880Y-178064420D01*
X114299594Y-178026089D01*
X114488880Y-178064420D01*
X115238880Y-178064420D01*
X115455760Y-178023611D01*
X115657280Y-178064420D01*
X116407280Y-178064420D01*
X116624160Y-178023611D01*
X116825680Y-178064420D01*
X117575680Y-178064420D01*
X117810997Y-178020142D01*
X118027121Y-177881070D01*
X118172111Y-177668870D01*
X118223120Y-177416980D01*
X118223120Y-176415700D01*
X133921500Y-176415700D01*
X134320027Y-176336428D01*
X134657881Y-176110681D01*
X136306675Y-174461887D01*
X136306318Y-174871181D01*
X136518550Y-175384823D01*
X136911190Y-175778149D01*
X137424460Y-175991277D01*
X137980221Y-175991762D01*
X138493863Y-175779530D01*
X138887189Y-175386890D01*
X139100317Y-174873620D01*
X139100802Y-174317859D01*
X138888570Y-173804217D01*
X138744960Y-173660356D01*
X138744960Y-171956908D01*
X138850041Y-171889290D01*
X138889869Y-171831000D01*
X139471619Y-171831000D01*
X139470850Y-172712776D01*
X139953196Y-173880143D01*
X140845559Y-174774065D01*
X142012083Y-175258448D01*
X143275176Y-175259550D01*
X144442543Y-174777204D01*
X145336465Y-173884841D01*
X145820848Y-172718317D01*
X145821950Y-171455224D01*
X145339604Y-170287857D01*
X144447241Y-169393935D01*
X143280717Y-168909552D01*
X142017624Y-168908450D01*
X140850257Y-169390796D01*
X140492229Y-169748200D01*
X138825283Y-169748200D01*
X138650490Y-169628769D01*
X138398600Y-169577760D01*
X137648600Y-169577760D01*
X137418554Y-169621046D01*
X137204800Y-169577760D01*
X136454800Y-169577760D01*
X136237920Y-169618569D01*
X136036400Y-169577760D01*
X135286400Y-169577760D01*
X135069520Y-169618569D01*
X134868000Y-169577760D01*
X134118000Y-169577760D01*
X133901120Y-169618569D01*
X133699600Y-169577760D01*
X132949600Y-169577760D01*
X132714283Y-169622038D01*
X132686693Y-169639792D01*
X132505800Y-169603160D01*
X131755800Y-169603160D01*
X131520483Y-169647438D01*
X131304359Y-169786510D01*
X131159369Y-169998710D01*
X131108360Y-170250600D01*
X131108360Y-170755282D01*
X131089400Y-170850600D01*
X131108360Y-170945918D01*
X131108360Y-171450600D01*
X131152638Y-171685917D01*
X131291710Y-171902041D01*
X131503910Y-172047031D01*
X131755800Y-172098040D01*
X132505800Y-172098040D01*
X132741117Y-172053762D01*
X132768707Y-172036008D01*
X132949600Y-172072640D01*
X133699600Y-172072640D01*
X133916480Y-172031831D01*
X134118000Y-172072640D01*
X134868000Y-172072640D01*
X135084880Y-172031831D01*
X135286400Y-172072640D01*
X135750398Y-172072640D01*
X133490138Y-174332900D01*
X119863636Y-174332900D01*
X119963957Y-174091300D01*
X119964134Y-173888028D01*
X128725762Y-165126400D01*
X139641343Y-165126400D01*
X139953196Y-165881143D01*
X140845559Y-166775065D01*
X142012083Y-167259448D01*
X143275176Y-167260550D01*
X144442543Y-166778204D01*
X145336465Y-165885841D01*
X145820848Y-164719317D01*
X145821950Y-163456224D01*
X145339604Y-162288857D01*
X144447241Y-161394935D01*
X143280717Y-160910552D01*
X142017624Y-160909450D01*
X140850257Y-161391796D01*
X139956335Y-162284159D01*
X139640988Y-163043600D01*
X128294400Y-163043600D01*
X127895873Y-163122872D01*
X127558019Y-163348619D01*
X118625620Y-172281018D01*
X118298600Y-171953998D01*
X118298600Y-169521723D01*
X118317016Y-169477372D01*
X118317384Y-169055678D01*
X118156349Y-168665942D01*
X117858426Y-168367499D01*
X117468972Y-168205784D01*
X117048600Y-168205417D01*
X117048600Y-167888162D01*
X117271581Y-167665181D01*
X117497329Y-167327326D01*
X117576600Y-166928800D01*
X117576600Y-165885129D01*
X117835323Y-166511286D01*
X118498622Y-167175744D01*
X119365708Y-167535789D01*
X120304573Y-167536609D01*
X121172286Y-167178077D01*
X121836744Y-166514778D01*
X122196789Y-165647692D01*
X122197609Y-164708827D01*
X121839077Y-163841114D01*
X121175778Y-163176656D01*
X120308692Y-162816611D01*
X119369827Y-162815791D01*
X118502114Y-163174323D01*
X117837656Y-163837622D01*
X117576600Y-164466316D01*
X117576600Y-162331400D01*
X117497328Y-161932873D01*
X117271581Y-161595019D01*
X115836700Y-160160138D01*
X115836700Y-146167181D01*
X116021217Y-146132462D01*
X116237341Y-145993390D01*
X116382331Y-145781190D01*
X116433340Y-145529300D01*
X116433340Y-144970500D01*
X116404664Y-144818100D01*
X117348000Y-144818100D01*
X117668766Y-144754296D01*
X117940697Y-144572597D01*
X118207397Y-144305897D01*
X118389096Y-144033965D01*
X118452900Y-143713200D01*
X118452900Y-143566934D01*
X118480410Y-143585731D01*
X118732300Y-143636740D01*
X120713500Y-143636740D01*
X120948817Y-143592462D01*
X121017757Y-143548100D01*
X121150316Y-143548100D01*
X121191010Y-143611341D01*
X121191010Y-143611341D01*
G37*
X121191010Y-143611341D02*
X121403210Y-143756331D01*
X121655100Y-143807340D01*
X122167146Y-143807340D01*
X122512266Y-144152460D01*
X121655100Y-144152460D01*
X121419783Y-144196738D01*
X121203659Y-144335810D01*
X121151806Y-144411700D01*
X121020465Y-144411700D01*
X120965390Y-144374069D01*
X120713500Y-144323060D01*
X118732300Y-144323060D01*
X118496983Y-144367338D01*
X118280859Y-144506410D01*
X118135869Y-144718610D01*
X118084860Y-144970500D01*
X118084860Y-145529300D01*
X118129138Y-145764617D01*
X118268210Y-145980741D01*
X118480410Y-146125731D01*
X118732300Y-146176740D01*
X120713500Y-146176740D01*
X120948817Y-146132462D01*
X121017757Y-146088100D01*
X121150316Y-146088100D01*
X121191010Y-146151341D01*
X121403210Y-146296331D01*
X121655100Y-146347340D01*
X122167146Y-146347340D01*
X123097503Y-147277697D01*
X123369435Y-147459396D01*
X123690200Y-147523200D01*
X152885926Y-147523200D01*
X161194307Y-155831581D01*
X160289227Y-155830791D01*
X159421514Y-156189323D01*
X158757056Y-156852622D01*
X158397011Y-157719708D01*
X158396191Y-158658573D01*
X158754723Y-159526286D01*
X159418022Y-160190744D01*
X160285108Y-160550789D01*
X161223973Y-160551609D01*
X162091686Y-160193077D01*
X162756144Y-159529778D01*
X163116189Y-158662692D01*
X163117009Y-157723827D01*
X162758477Y-156856114D01*
X162423149Y-156520200D01*
X164795903Y-156520200D01*
X164820510Y-156558441D01*
X165032710Y-156703431D01*
X165284600Y-156754440D01*
X166134600Y-156754440D01*
X166369917Y-156710162D01*
X166586041Y-156571090D01*
X166620813Y-156520200D01*
X167806206Y-156520200D01*
X167995784Y-156709778D01*
X167995358Y-157197861D01*
X168207590Y-157711503D01*
X168600230Y-158104829D01*
X169113500Y-158317957D01*
X169669261Y-158318442D01*
X170105000Y-158138399D01*
X170105000Y-160360950D01*
X169997828Y-160937298D01*
X169719562Y-161365236D01*
X169298713Y-161654112D01*
X168720825Y-161776590D01*
X168706800Y-161773800D01*
X153035000Y-161773800D01*
X152763295Y-161827846D01*
X152532954Y-161981754D01*
X152379046Y-162212095D01*
X152325000Y-162483800D01*
X152325000Y-183311800D01*
X152379046Y-183583505D01*
X152532954Y-183813846D01*
X152763295Y-183967754D01*
X153035000Y-184021800D01*
X168817622Y-184021800D01*
X169359736Y-184165300D01*
X169766830Y-184475718D01*
X170024140Y-184918289D01*
X170105256Y-185520315D01*
X170105000Y-185521600D01*
X170105000Y-192891123D01*
X169866714Y-192941625D01*
X169646380Y-193036134D01*
X169612118Y-193050830D01*
X168958396Y-193499553D01*
X168860475Y-193599953D01*
X168764972Y-193697874D01*
X168332730Y-194362608D01*
X168332730Y-194362609D01*
X168229923Y-194619854D01*
X168095111Y-195344842D01*
X168086643Y-195365286D01*
X168086643Y-195390382D01*
X168084966Y-195399400D01*
X168086642Y-195533495D01*
X168086642Y-195642314D01*
X168088094Y-195649614D01*
X168088429Y-195676407D01*
X168097743Y-195698121D01*
X168241319Y-196419927D01*
X168289247Y-196535634D01*
X168347334Y-196675868D01*
X168787816Y-197335096D01*
X168983704Y-197530984D01*
X169642932Y-197971467D01*
X169770903Y-198024474D01*
X169898873Y-198077481D01*
X170105000Y-198118482D01*
X170105000Y-205593869D01*
X169952848Y-206358789D01*
X169559170Y-206947970D01*
X168969989Y-207341648D01*
X168205069Y-207493800D01*
X112508568Y-207493800D01*
X111845421Y-207375625D01*
X111728259Y-207352320D01*
X111136414Y-206973757D01*
X110730919Y-206392403D01*
X110603164Y-205811133D01*
X110565000Y-205619273D01*
X110565000Y-198116477D01*
X110803286Y-198065975D01*
X110930584Y-198011372D01*
X111057882Y-197956770D01*
X111711604Y-197508047D01*
X111880284Y-197335096D01*
X111905028Y-197309726D01*
X112337271Y-196644991D01*
X112440077Y-196387746D01*
X112574889Y-195662756D01*
X112583357Y-195642313D01*
X112583357Y-195617219D01*
X112585034Y-195608200D01*
X112583357Y-195474056D01*
X112583357Y-195365285D01*
X112581906Y-195357990D01*
X112581571Y-195331193D01*
X112572256Y-195309476D01*
X112428681Y-194587673D01*
X112375673Y-194459702D01*
X112322667Y-194331732D01*
X111882184Y-193672504D01*
X111686296Y-193476616D01*
X111027068Y-193036134D01*
X110952104Y-193005083D01*
X110771127Y-192930119D01*
X110565000Y-192889118D01*
X110565000Y-186014818D01*
X110599753Y-186049632D01*
X110943281Y-186192278D01*
X111315247Y-186192602D01*
X111659023Y-186050557D01*
X111922272Y-185787767D01*
X112064918Y-185444239D01*
X112064984Y-185368708D01*
X112166816Y-185216305D01*
X112187159Y-185114032D01*
X112224820Y-184924700D01*
X112224820Y-184921221D01*
X112256220Y-184927580D01*
X113006220Y-184927580D01*
X113223100Y-184886771D01*
X113424620Y-184927580D01*
X114174620Y-184927580D01*
X114391500Y-184886771D01*
X114593020Y-184927580D01*
X115343020Y-184927580D01*
X115559900Y-184886771D01*
X115761420Y-184927580D01*
X116511420Y-184927580D01*
X116671364Y-184897484D01*
X116677930Y-184901971D01*
X116929820Y-184952980D01*
X117679820Y-184952980D01*
X117915137Y-184908702D01*
X118098086Y-184790978D01*
X118345300Y-184841040D01*
X119545300Y-184841040D01*
X119780617Y-184796762D01*
X119996741Y-184657690D01*
X120044434Y-184587889D01*
X120081210Y-184645041D01*
X120293410Y-184790031D01*
X120545300Y-184841040D01*
X121745300Y-184841040D01*
X121980617Y-184796762D01*
X122196741Y-184657690D01*
X122341731Y-184445490D01*
X122392740Y-184193600D01*
X122392740Y-183293600D01*
X122348462Y-183058283D01*
X122209390Y-182842159D01*
X122154965Y-182804972D01*
X122196741Y-182778090D01*
X122341731Y-182565890D01*
X122392740Y-182314000D01*
X122392740Y-181414000D01*
X122348462Y-181178683D01*
X122209390Y-180962559D01*
X121997190Y-180817569D01*
X121745300Y-180766560D01*
X120545300Y-180766560D01*
X120309983Y-180810838D01*
X120093859Y-180949910D01*
X119948869Y-181162110D01*
X119897860Y-181414000D01*
X119897860Y-182314000D01*
X119942138Y-182549317D01*
X120081210Y-182765441D01*
X120135635Y-182802628D01*
X120093859Y-182829510D01*
X120046166Y-182899311D01*
X120009390Y-182842159D01*
X119797190Y-182697169D01*
X119545300Y-182646160D01*
X118345300Y-182646160D01*
X118161104Y-182680819D01*
X118143910Y-182654099D01*
X117931710Y-182509109D01*
X117679820Y-182458100D01*
X116929820Y-182458100D01*
X116769876Y-182488196D01*
X116763310Y-182483709D01*
X116511420Y-182432700D01*
X115761420Y-182432700D01*
X115544540Y-182473509D01*
X115343020Y-182432700D01*
X114593020Y-182432700D01*
X114376140Y-182473509D01*
X114174620Y-182432700D01*
X113424620Y-182432700D01*
X113207740Y-182473509D01*
X113006220Y-182432700D01*
X112256220Y-182432700D01*
X112039340Y-182473509D01*
X111837820Y-182432700D01*
X111292640Y-182432700D01*
X111292640Y-179951181D01*
X136306318Y-179951181D01*
X136518550Y-180464823D01*
X136911190Y-180858149D01*
X137424460Y-181071277D01*
X137980221Y-181071762D01*
X138493863Y-180859530D01*
X138887189Y-180466890D01*
X139100317Y-179953620D01*
X139100802Y-179397859D01*
X138888570Y-178884217D01*
X138495930Y-178490891D01*
X137982660Y-178277763D01*
X137426899Y-178277278D01*
X136913257Y-178489510D01*
X136519931Y-178882150D01*
X136306803Y-179395420D01*
X136306318Y-179951181D01*
X111292640Y-179951181D01*
X111292640Y-178064420D01*
X111759080Y-178064420D01*
X111975960Y-178023611D01*
X112177480Y-178064420D01*
X112927480Y-178064420D01*
X113144360Y-178023611D01*
X113345880Y-178064420D01*
X114095880Y-178064420D01*
X114299594Y-178026089D01*
X114488880Y-178064420D01*
X115238880Y-178064420D01*
X115455760Y-178023611D01*
X115657280Y-178064420D01*
X116407280Y-178064420D01*
X116624160Y-178023611D01*
X116825680Y-178064420D01*
X117575680Y-178064420D01*
X117810997Y-178020142D01*
X118027121Y-177881070D01*
X118172111Y-177668870D01*
X118223120Y-177416980D01*
X118223120Y-176415700D01*
X133921500Y-176415700D01*
X134320027Y-176336428D01*
X134657881Y-176110681D01*
X136306675Y-174461887D01*
X136306318Y-174871181D01*
X136518550Y-175384823D01*
X136911190Y-175778149D01*
X137424460Y-175991277D01*
X137980221Y-175991762D01*
X138493863Y-175779530D01*
X138887189Y-175386890D01*
X139100317Y-174873620D01*
X139100802Y-174317859D01*
X138888570Y-173804217D01*
X138744960Y-173660356D01*
X138744960Y-171956908D01*
X138850041Y-171889290D01*
X138889869Y-171831000D01*
X139471619Y-171831000D01*
X139470850Y-172712776D01*
X139953196Y-173880143D01*
X140845559Y-174774065D01*
X142012083Y-175258448D01*
X143275176Y-175259550D01*
X144442543Y-174777204D01*
X145336465Y-173884841D01*
X145820848Y-172718317D01*
X145821950Y-171455224D01*
X145339604Y-170287857D01*
X144447241Y-169393935D01*
X143280717Y-168909552D01*
X142017624Y-168908450D01*
X140850257Y-169390796D01*
X140492229Y-169748200D01*
X138825283Y-169748200D01*
X138650490Y-169628769D01*
X138398600Y-169577760D01*
X137648600Y-169577760D01*
X137418554Y-169621046D01*
X137204800Y-169577760D01*
X136454800Y-169577760D01*
X136237920Y-169618569D01*
X136036400Y-169577760D01*
X135286400Y-169577760D01*
X135069520Y-169618569D01*
X134868000Y-169577760D01*
X134118000Y-169577760D01*
X133901120Y-169618569D01*
X133699600Y-169577760D01*
X132949600Y-169577760D01*
X132714283Y-169622038D01*
X132686693Y-169639792D01*
X132505800Y-169603160D01*
X131755800Y-169603160D01*
X131520483Y-169647438D01*
X131304359Y-169786510D01*
X131159369Y-169998710D01*
X131108360Y-170250600D01*
X131108360Y-170755282D01*
X131089400Y-170850600D01*
X131108360Y-170945918D01*
X131108360Y-171450600D01*
X131152638Y-171685917D01*
X131291710Y-171902041D01*
X131503910Y-172047031D01*
X131755800Y-172098040D01*
X132505800Y-172098040D01*
X132741117Y-172053762D01*
X132768707Y-172036008D01*
X132949600Y-172072640D01*
X133699600Y-172072640D01*
X133916480Y-172031831D01*
X134118000Y-172072640D01*
X134868000Y-172072640D01*
X135084880Y-172031831D01*
X135286400Y-172072640D01*
X135750398Y-172072640D01*
X133490138Y-174332900D01*
X119863636Y-174332900D01*
X119963957Y-174091300D01*
X119964134Y-173888028D01*
X128725762Y-165126400D01*
X139641343Y-165126400D01*
X139953196Y-165881143D01*
X140845559Y-166775065D01*
X142012083Y-167259448D01*
X143275176Y-167260550D01*
X144442543Y-166778204D01*
X145336465Y-165885841D01*
X145820848Y-164719317D01*
X145821950Y-163456224D01*
X145339604Y-162288857D01*
X144447241Y-161394935D01*
X143280717Y-160910552D01*
X142017624Y-160909450D01*
X140850257Y-161391796D01*
X139956335Y-162284159D01*
X139640988Y-163043600D01*
X128294400Y-163043600D01*
X127895873Y-163122872D01*
X127558019Y-163348619D01*
X118625620Y-172281018D01*
X118298600Y-171953998D01*
X118298600Y-169521723D01*
X118317016Y-169477372D01*
X118317384Y-169055678D01*
X118156349Y-168665942D01*
X117858426Y-168367499D01*
X117468972Y-168205784D01*
X117048600Y-168205417D01*
X117048600Y-167888162D01*
X117271581Y-167665181D01*
X117497329Y-167327326D01*
X117576600Y-166928800D01*
X117576600Y-165885129D01*
X117835323Y-166511286D01*
X118498622Y-167175744D01*
X119365708Y-167535789D01*
X120304573Y-167536609D01*
X121172286Y-167178077D01*
X121836744Y-166514778D01*
X122196789Y-165647692D01*
X122197609Y-164708827D01*
X121839077Y-163841114D01*
X121175778Y-163176656D01*
X120308692Y-162816611D01*
X119369827Y-162815791D01*
X118502114Y-163174323D01*
X117837656Y-163837622D01*
X117576600Y-164466316D01*
X117576600Y-162331400D01*
X117497328Y-161932873D01*
X117271581Y-161595019D01*
X115836700Y-160160138D01*
X115836700Y-146167181D01*
X116021217Y-146132462D01*
X116237341Y-145993390D01*
X116382331Y-145781190D01*
X116433340Y-145529300D01*
X116433340Y-144970500D01*
X116404664Y-144818100D01*
X117348000Y-144818100D01*
X117668766Y-144754296D01*
X117940697Y-144572597D01*
X118207397Y-144305897D01*
X118389096Y-144033965D01*
X118452900Y-143713200D01*
X118452900Y-143566934D01*
X118480410Y-143585731D01*
X118732300Y-143636740D01*
X120713500Y-143636740D01*
X120948817Y-143592462D01*
X121017757Y-143548100D01*
X121150316Y-143548100D01*
X121191010Y-143611341D01*
G36*
X114965800Y-169009477D02*
X114947384Y-169053828D01*
X114947016Y-169475522D01*
X114965800Y-169520983D01*
X114965800Y-172897814D01*
X114843571Y-173019830D01*
X114630443Y-173533100D01*
X114629958Y-174088861D01*
X114842190Y-174602503D01*
X115234830Y-174995829D01*
X115748100Y-175208957D01*
X115816635Y-175209017D01*
X116177158Y-175569540D01*
X115657280Y-175569540D01*
X115440400Y-175610349D01*
X115238880Y-175569540D01*
X114488880Y-175569540D01*
X114285166Y-175607871D01*
X114095880Y-175569540D01*
X113345880Y-175569540D01*
X113129000Y-175610349D01*
X112927480Y-175569540D01*
X112225763Y-175569540D01*
X112318918Y-175345199D01*
X112319242Y-174973233D01*
X112177197Y-174629457D01*
X112146080Y-174598286D01*
X112146080Y-171100150D01*
X114965800Y-168280431D01*
X114965800Y-169009477D01*
X114965800Y-169009477D01*
G37*
X114965800Y-169009477D02*
X114947384Y-169053828D01*
X114947016Y-169475522D01*
X114965800Y-169520983D01*
X114965800Y-172897814D01*
X114843571Y-173019830D01*
X114630443Y-173533100D01*
X114629958Y-174088861D01*
X114842190Y-174602503D01*
X115234830Y-174995829D01*
X115748100Y-175208957D01*
X115816635Y-175209017D01*
X116177158Y-175569540D01*
X115657280Y-175569540D01*
X115440400Y-175610349D01*
X115238880Y-175569540D01*
X114488880Y-175569540D01*
X114285166Y-175607871D01*
X114095880Y-175569540D01*
X113345880Y-175569540D01*
X113129000Y-175610349D01*
X112927480Y-175569540D01*
X112225763Y-175569540D01*
X112318918Y-175345199D01*
X112319242Y-174973233D01*
X112177197Y-174629457D01*
X112146080Y-174598286D01*
X112146080Y-171100150D01*
X114965800Y-168280431D01*
X114965800Y-169009477D01*
G36*
X162310203Y-144686897D02*
X162582134Y-144868596D01*
X162902900Y-144932400D01*
X164830988Y-144932400D01*
X165032710Y-145070231D01*
X165284600Y-145121240D01*
X166134600Y-145121240D01*
X166369917Y-145076962D01*
X166586041Y-144937890D01*
X166620813Y-144887000D01*
X167755406Y-144887000D01*
X168021184Y-145152778D01*
X168020758Y-145640861D01*
X168232990Y-146154503D01*
X168625630Y-146547829D01*
X169138900Y-146760957D01*
X169694661Y-146761442D01*
X170105000Y-146591894D01*
X170105000Y-150624365D01*
X169671700Y-150444443D01*
X169115939Y-150443958D01*
X168602297Y-150656190D01*
X168458436Y-150799800D01*
X166954200Y-150799800D01*
X166555673Y-150879072D01*
X166298519Y-151050897D01*
X166217819Y-151104819D01*
X164973219Y-152349419D01*
X164832922Y-152559389D01*
X164811499Y-152580774D01*
X164799789Y-152608976D01*
X164747472Y-152687273D01*
X164729261Y-152778825D01*
X164649784Y-152970228D01*
X164649416Y-153391922D01*
X164810451Y-153781658D01*
X165108374Y-154080101D01*
X165497828Y-154241816D01*
X165919522Y-154242184D01*
X166309258Y-154081149D01*
X166607701Y-153783226D01*
X166694875Y-153573287D01*
X167385562Y-152882600D01*
X168458249Y-152882600D01*
X168600230Y-153024829D01*
X169113500Y-153237957D01*
X169669261Y-153238442D01*
X170105000Y-153058399D01*
X170105000Y-155704365D01*
X169671700Y-155524443D01*
X169180809Y-155524015D01*
X168746097Y-155089303D01*
X168474166Y-154907604D01*
X168153400Y-154843800D01*
X166623297Y-154843800D01*
X166598690Y-154805559D01*
X166386490Y-154660569D01*
X166134600Y-154609560D01*
X165284600Y-154609560D01*
X165049283Y-154653838D01*
X164833159Y-154792910D01*
X164798387Y-154843800D01*
X162577314Y-154843800D01*
X160664634Y-152931120D01*
X161223973Y-152931609D01*
X162091686Y-152573077D01*
X162756144Y-151909778D01*
X163116189Y-151042692D01*
X163117009Y-150103827D01*
X162758477Y-149236114D01*
X162138323Y-148614877D01*
X162781544Y-147972778D01*
X163141589Y-147105692D01*
X163142409Y-146166827D01*
X162783877Y-145299114D01*
X162120578Y-144634656D01*
X161583639Y-144411700D01*
X162035006Y-144411700D01*
X162310203Y-144686897D01*
X162310203Y-144686897D01*
G37*
X162310203Y-144686897D02*
X162582134Y-144868596D01*
X162902900Y-144932400D01*
X164830988Y-144932400D01*
X165032710Y-145070231D01*
X165284600Y-145121240D01*
X166134600Y-145121240D01*
X166369917Y-145076962D01*
X166586041Y-144937890D01*
X166620813Y-144887000D01*
X167755406Y-144887000D01*
X168021184Y-145152778D01*
X168020758Y-145640861D01*
X168232990Y-146154503D01*
X168625630Y-146547829D01*
X169138900Y-146760957D01*
X169694661Y-146761442D01*
X170105000Y-146591894D01*
X170105000Y-150624365D01*
X169671700Y-150444443D01*
X169115939Y-150443958D01*
X168602297Y-150656190D01*
X168458436Y-150799800D01*
X166954200Y-150799800D01*
X166555673Y-150879072D01*
X166298519Y-151050897D01*
X166217819Y-151104819D01*
X164973219Y-152349419D01*
X164832922Y-152559389D01*
X164811499Y-152580774D01*
X164799789Y-152608976D01*
X164747472Y-152687273D01*
X164729261Y-152778825D01*
X164649784Y-152970228D01*
X164649416Y-153391922D01*
X164810451Y-153781658D01*
X165108374Y-154080101D01*
X165497828Y-154241816D01*
X165919522Y-154242184D01*
X166309258Y-154081149D01*
X166607701Y-153783226D01*
X166694875Y-153573287D01*
X167385562Y-152882600D01*
X168458249Y-152882600D01*
X168600230Y-153024829D01*
X169113500Y-153237957D01*
X169669261Y-153238442D01*
X170105000Y-153058399D01*
X170105000Y-155704365D01*
X169671700Y-155524443D01*
X169180809Y-155524015D01*
X168746097Y-155089303D01*
X168474166Y-154907604D01*
X168153400Y-154843800D01*
X166623297Y-154843800D01*
X166598690Y-154805559D01*
X166386490Y-154660569D01*
X166134600Y-154609560D01*
X165284600Y-154609560D01*
X165049283Y-154653838D01*
X164833159Y-154792910D01*
X164798387Y-154843800D01*
X162577314Y-154843800D01*
X160664634Y-152931120D01*
X161223973Y-152931609D01*
X162091686Y-152573077D01*
X162756144Y-151909778D01*
X163116189Y-151042692D01*
X163117009Y-150103827D01*
X162758477Y-149236114D01*
X162138323Y-148614877D01*
X162781544Y-147972778D01*
X163141589Y-147105692D01*
X163142409Y-146166827D01*
X162783877Y-145299114D01*
X162120578Y-144634656D01*
X161583639Y-144411700D01*
X162035006Y-144411700D01*
X162310203Y-144686897D01*
G36*
X159446914Y-144632323D02*
X158782456Y-145295622D01*
X158422411Y-146162708D01*
X158421591Y-147101573D01*
X158780123Y-147969286D01*
X159400277Y-148590523D01*
X158757056Y-149232622D01*
X158397011Y-150099708D01*
X158396519Y-150663005D01*
X153825817Y-146092303D01*
X153553886Y-145910604D01*
X153233120Y-145846800D01*
X124037394Y-145846800D01*
X123502540Y-145311946D01*
X123502540Y-144799900D01*
X123458262Y-144564583D01*
X123359884Y-144411700D01*
X159980862Y-144411700D01*
X159446914Y-144632323D01*
X159446914Y-144632323D01*
G37*
X159446914Y-144632323D02*
X158782456Y-145295622D01*
X158422411Y-146162708D01*
X158421591Y-147101573D01*
X158780123Y-147969286D01*
X159400277Y-148590523D01*
X158757056Y-149232622D01*
X158397011Y-150099708D01*
X158396519Y-150663005D01*
X153825817Y-146092303D01*
X153553886Y-145910604D01*
X153233120Y-145846800D01*
X124037394Y-145846800D01*
X123502540Y-145311946D01*
X123502540Y-144799900D01*
X123458262Y-144564583D01*
X123359884Y-144411700D01*
X159980862Y-144411700D01*
X159446914Y-144632323D01*
G36*
X168021184Y-133519578D02*
X168020758Y-134007661D01*
X168232990Y-134521303D01*
X168625630Y-134914629D01*
X169138900Y-135127757D01*
X169694661Y-135128242D01*
X170105000Y-134958694D01*
X170105000Y-139056818D01*
X169697100Y-138887443D01*
X169141339Y-138886958D01*
X168627697Y-139099190D01*
X168483836Y-139242800D01*
X166878000Y-139242800D01*
X166479473Y-139322072D01*
X166222319Y-139493897D01*
X166141619Y-139547819D01*
X164973219Y-140716219D01*
X164832922Y-140926189D01*
X164811499Y-140947574D01*
X164799789Y-140975776D01*
X164747472Y-141054073D01*
X164729261Y-141145625D01*
X164649784Y-141337028D01*
X164649416Y-141758722D01*
X164810451Y-142148458D01*
X165108374Y-142446901D01*
X165497828Y-142608616D01*
X165919522Y-142608984D01*
X166309258Y-142447949D01*
X166607701Y-142150026D01*
X166694875Y-141940087D01*
X167309362Y-141325600D01*
X168483649Y-141325600D01*
X168625630Y-141467829D01*
X169138900Y-141680957D01*
X169694661Y-141681442D01*
X170105000Y-141511894D01*
X170105000Y-144136818D01*
X169697100Y-143967443D01*
X169206209Y-143967015D01*
X168695297Y-143456103D01*
X168423366Y-143274404D01*
X168102600Y-143210600D01*
X166623297Y-143210600D01*
X166598690Y-143172359D01*
X166386490Y-143027369D01*
X166134600Y-142976360D01*
X165284600Y-142976360D01*
X165049283Y-143020638D01*
X164833159Y-143159710D01*
X164785834Y-143228973D01*
X164649958Y-143256000D01*
X163250094Y-143256000D01*
X162974897Y-142980803D01*
X162702966Y-142799104D01*
X162382200Y-142735300D01*
X123502540Y-142735300D01*
X123502540Y-142287856D01*
X123542880Y-142295880D01*
X154659349Y-142295880D01*
X154889200Y-142341600D01*
X155209966Y-142277796D01*
X155481897Y-142096097D01*
X157945697Y-139632297D01*
X158127396Y-139360366D01*
X158191200Y-139039600D01*
X158191200Y-134586194D01*
X158546340Y-134231054D01*
X158422411Y-134529508D01*
X158421591Y-135468373D01*
X158780123Y-136336086D01*
X159443422Y-137000544D01*
X159459382Y-137007171D01*
X159446914Y-137012323D01*
X158782456Y-137675622D01*
X158422411Y-138542708D01*
X158421591Y-139481573D01*
X158780123Y-140349286D01*
X159443422Y-141013744D01*
X160310508Y-141373789D01*
X161249373Y-141374609D01*
X162117086Y-141016077D01*
X162781544Y-140352778D01*
X163141589Y-139485692D01*
X163142409Y-138546827D01*
X162783877Y-137679114D01*
X162120578Y-137014656D01*
X162104618Y-137008029D01*
X162117086Y-137002877D01*
X162781544Y-136339578D01*
X163141589Y-135472492D01*
X163142409Y-134533627D01*
X162783877Y-133665914D01*
X162443158Y-133324600D01*
X164837647Y-133324600D01*
X164845910Y-133337441D01*
X165058110Y-133482431D01*
X165310000Y-133533440D01*
X166160000Y-133533440D01*
X166395317Y-133489162D01*
X166611441Y-133350090D01*
X166646213Y-133299200D01*
X167800806Y-133299200D01*
X168021184Y-133519578D01*
X168021184Y-133519578D01*
G37*
X168021184Y-133519578D02*
X168020758Y-134007661D01*
X168232990Y-134521303D01*
X168625630Y-134914629D01*
X169138900Y-135127757D01*
X169694661Y-135128242D01*
X170105000Y-134958694D01*
X170105000Y-139056818D01*
X169697100Y-138887443D01*
X169141339Y-138886958D01*
X168627697Y-139099190D01*
X168483836Y-139242800D01*
X166878000Y-139242800D01*
X166479473Y-139322072D01*
X166222319Y-139493897D01*
X166141619Y-139547819D01*
X164973219Y-140716219D01*
X164832922Y-140926189D01*
X164811499Y-140947574D01*
X164799789Y-140975776D01*
X164747472Y-141054073D01*
X164729261Y-141145625D01*
X164649784Y-141337028D01*
X164649416Y-141758722D01*
X164810451Y-142148458D01*
X165108374Y-142446901D01*
X165497828Y-142608616D01*
X165919522Y-142608984D01*
X166309258Y-142447949D01*
X166607701Y-142150026D01*
X166694875Y-141940087D01*
X167309362Y-141325600D01*
X168483649Y-141325600D01*
X168625630Y-141467829D01*
X169138900Y-141680957D01*
X169694661Y-141681442D01*
X170105000Y-141511894D01*
X170105000Y-144136818D01*
X169697100Y-143967443D01*
X169206209Y-143967015D01*
X168695297Y-143456103D01*
X168423366Y-143274404D01*
X168102600Y-143210600D01*
X166623297Y-143210600D01*
X166598690Y-143172359D01*
X166386490Y-143027369D01*
X166134600Y-142976360D01*
X165284600Y-142976360D01*
X165049283Y-143020638D01*
X164833159Y-143159710D01*
X164785834Y-143228973D01*
X164649958Y-143256000D01*
X163250094Y-143256000D01*
X162974897Y-142980803D01*
X162702966Y-142799104D01*
X162382200Y-142735300D01*
X123502540Y-142735300D01*
X123502540Y-142287856D01*
X123542880Y-142295880D01*
X154659349Y-142295880D01*
X154889200Y-142341600D01*
X155209966Y-142277796D01*
X155481897Y-142096097D01*
X157945697Y-139632297D01*
X158127396Y-139360366D01*
X158191200Y-139039600D01*
X158191200Y-134586194D01*
X158546340Y-134231054D01*
X158422411Y-134529508D01*
X158421591Y-135468373D01*
X158780123Y-136336086D01*
X159443422Y-137000544D01*
X159459382Y-137007171D01*
X159446914Y-137012323D01*
X158782456Y-137675622D01*
X158422411Y-138542708D01*
X158421591Y-139481573D01*
X158780123Y-140349286D01*
X159443422Y-141013744D01*
X160310508Y-141373789D01*
X161249373Y-141374609D01*
X162117086Y-141016077D01*
X162781544Y-140352778D01*
X163141589Y-139485692D01*
X163142409Y-138546827D01*
X162783877Y-137679114D01*
X162120578Y-137014656D01*
X162104618Y-137008029D01*
X162117086Y-137002877D01*
X162781544Y-136339578D01*
X163141589Y-135472492D01*
X163142409Y-134533627D01*
X162783877Y-133665914D01*
X162443158Y-133324600D01*
X164837647Y-133324600D01*
X164845910Y-133337441D01*
X165058110Y-133482431D01*
X165310000Y-133533440D01*
X166160000Y-133533440D01*
X166395317Y-133489162D01*
X166611441Y-133350090D01*
X166646213Y-133299200D01*
X167800806Y-133299200D01*
X168021184Y-133519578D01*
G36*
X114091304Y-135976855D02*
X114033300Y-136268460D01*
X114033300Y-136703060D01*
X113804700Y-136703060D01*
X113569383Y-136747338D01*
X113353259Y-136886410D01*
X113208269Y-137098610D01*
X113157260Y-137350500D01*
X113157260Y-137909300D01*
X113201538Y-138144617D01*
X113279032Y-138265045D01*
X113208269Y-138368610D01*
X113157260Y-138620500D01*
X113157260Y-139179300D01*
X113201538Y-139414617D01*
X113340610Y-139630741D01*
X113552810Y-139775731D01*
X113804700Y-139826740D01*
X115785900Y-139826740D01*
X116021217Y-139782462D01*
X116237341Y-139643390D01*
X116382331Y-139431190D01*
X116398275Y-139352455D01*
X116776500Y-138974230D01*
X116776500Y-143141700D01*
X116402478Y-143141700D01*
X116433340Y-142989300D01*
X116433340Y-142430500D01*
X116389062Y-142195183D01*
X116249990Y-141979059D01*
X116037790Y-141834069D01*
X115785900Y-141783060D01*
X113804700Y-141783060D01*
X113569383Y-141827338D01*
X113500443Y-141871700D01*
X113276540Y-141871700D01*
X113276540Y-141431900D01*
X113232262Y-141196583D01*
X113093190Y-140980459D01*
X112880990Y-140835469D01*
X112629100Y-140784460D01*
X111767620Y-140784460D01*
X111767620Y-136459630D01*
X111887670Y-136339580D01*
X112707420Y-136339580D01*
X112999025Y-136281576D01*
X113246235Y-136116395D01*
X113602821Y-135759810D01*
X114236329Y-135759810D01*
X114091304Y-135976855D01*
X114091304Y-135976855D01*
G37*
X114091304Y-135976855D02*
X114033300Y-136268460D01*
X114033300Y-136703060D01*
X113804700Y-136703060D01*
X113569383Y-136747338D01*
X113353259Y-136886410D01*
X113208269Y-137098610D01*
X113157260Y-137350500D01*
X113157260Y-137909300D01*
X113201538Y-138144617D01*
X113279032Y-138265045D01*
X113208269Y-138368610D01*
X113157260Y-138620500D01*
X113157260Y-139179300D01*
X113201538Y-139414617D01*
X113340610Y-139630741D01*
X113552810Y-139775731D01*
X113804700Y-139826740D01*
X115785900Y-139826740D01*
X116021217Y-139782462D01*
X116237341Y-139643390D01*
X116382331Y-139431190D01*
X116398275Y-139352455D01*
X116776500Y-138974230D01*
X116776500Y-143141700D01*
X116402478Y-143141700D01*
X116433340Y-142989300D01*
X116433340Y-142430500D01*
X116389062Y-142195183D01*
X116249990Y-141979059D01*
X116037790Y-141834069D01*
X115785900Y-141783060D01*
X113804700Y-141783060D01*
X113569383Y-141827338D01*
X113500443Y-141871700D01*
X113276540Y-141871700D01*
X113276540Y-141431900D01*
X113232262Y-141196583D01*
X113093190Y-140980459D01*
X112880990Y-140835469D01*
X112629100Y-140784460D01*
X111767620Y-140784460D01*
X111767620Y-136459630D01*
X111887670Y-136339580D01*
X112707420Y-136339580D01*
X112999025Y-136281576D01*
X113246235Y-136116395D01*
X113602821Y-135759810D01*
X114236329Y-135759810D01*
X114091304Y-135976855D01*
G36*
X121191010Y-141071341D02*
X121403210Y-141216331D01*
X121655100Y-141267340D01*
X122167146Y-141267340D01*
X122512266Y-141612460D01*
X121655100Y-141612460D01*
X121419783Y-141656738D01*
X121203659Y-141795810D01*
X121151806Y-141871700D01*
X121020465Y-141871700D01*
X120965390Y-141834069D01*
X120713500Y-141783060D01*
X118732300Y-141783060D01*
X118496983Y-141827338D01*
X118452900Y-141855705D01*
X118452900Y-141026934D01*
X118480410Y-141045731D01*
X118732300Y-141096740D01*
X120713500Y-141096740D01*
X120948817Y-141052462D01*
X121017757Y-141008100D01*
X121150316Y-141008100D01*
X121191010Y-141071341D01*
X121191010Y-141071341D01*
G37*
X121191010Y-141071341D02*
X121403210Y-141216331D01*
X121655100Y-141267340D01*
X122167146Y-141267340D01*
X122512266Y-141612460D01*
X121655100Y-141612460D01*
X121419783Y-141656738D01*
X121203659Y-141795810D01*
X121151806Y-141871700D01*
X121020465Y-141871700D01*
X120965390Y-141834069D01*
X120713500Y-141783060D01*
X118732300Y-141783060D01*
X118496983Y-141827338D01*
X118452900Y-141855705D01*
X118452900Y-141026934D01*
X118480410Y-141045731D01*
X118732300Y-141096740D01*
X120713500Y-141096740D01*
X120948817Y-141052462D01*
X121017757Y-141008100D01*
X121150316Y-141008100D01*
X121191010Y-141071341D01*
G36*
X154587726Y-140619480D02*
X123890074Y-140619480D01*
X123502540Y-140231946D01*
X123502540Y-139725473D01*
X123514940Y-139727940D01*
X155280360Y-139727940D01*
X155528655Y-139678551D01*
X154587726Y-140619480D01*
X154587726Y-140619480D01*
G37*
X154587726Y-140619480D02*
X123890074Y-140619480D01*
X123502540Y-140231946D01*
X123502540Y-139725473D01*
X123514940Y-139727940D01*
X155280360Y-139727940D01*
X155528655Y-139678551D01*
X154587726Y-140619480D01*
G36*
X121191010Y-138531341D02*
X121403210Y-138676331D01*
X121655100Y-138727340D01*
X122167146Y-138727340D01*
X122512266Y-139072460D01*
X121655100Y-139072460D01*
X121419783Y-139116738D01*
X121203659Y-139255810D01*
X121151806Y-139331700D01*
X121020465Y-139331700D01*
X120965390Y-139294069D01*
X120713500Y-139243060D01*
X118732300Y-139243060D01*
X118496983Y-139287338D01*
X118452900Y-139315705D01*
X118452900Y-138486934D01*
X118480410Y-138505731D01*
X118732300Y-138556740D01*
X120713500Y-138556740D01*
X120948817Y-138512462D01*
X121017757Y-138468100D01*
X121150316Y-138468100D01*
X121191010Y-138531341D01*
X121191010Y-138531341D01*
G37*
X121191010Y-138531341D02*
X121403210Y-138676331D01*
X121655100Y-138727340D01*
X122167146Y-138727340D01*
X122512266Y-139072460D01*
X121655100Y-139072460D01*
X121419783Y-139116738D01*
X121203659Y-139255810D01*
X121151806Y-139331700D01*
X121020465Y-139331700D01*
X120965390Y-139294069D01*
X120713500Y-139243060D01*
X118732300Y-139243060D01*
X118496983Y-139287338D01*
X118452900Y-139315705D01*
X118452900Y-138486934D01*
X118480410Y-138505731D01*
X118732300Y-138556740D01*
X120713500Y-138556740D01*
X120948817Y-138512462D01*
X121017757Y-138468100D01*
X121150316Y-138468100D01*
X121191010Y-138531341D01*
G36*
X158422411Y-115352508D02*
X158421591Y-116291373D01*
X158780123Y-117159086D01*
X159443422Y-117823544D01*
X160310508Y-118183589D01*
X161249373Y-118184409D01*
X162117086Y-117825877D01*
X162781544Y-117162578D01*
X163141589Y-116295492D01*
X163142409Y-115356627D01*
X162820769Y-114578200D01*
X168205069Y-114578200D01*
X168969989Y-114730352D01*
X169559170Y-115124030D01*
X169952848Y-115713211D01*
X169972411Y-115811562D01*
X169697100Y-115697243D01*
X169141339Y-115696758D01*
X168627697Y-115908990D01*
X168483836Y-116052600D01*
X167055800Y-116052600D01*
X166657274Y-116131871D01*
X166319419Y-116357619D01*
X165084979Y-117592059D01*
X165057454Y-117633252D01*
X164923259Y-117767214D01*
X164761544Y-118156668D01*
X164761176Y-118578362D01*
X164922211Y-118968098D01*
X165220134Y-119266541D01*
X165609588Y-119428256D01*
X166031282Y-119428624D01*
X166421018Y-119267589D01*
X166719461Y-118969666D01*
X166766728Y-118855834D01*
X167487162Y-118135400D01*
X168483649Y-118135400D01*
X168625630Y-118277629D01*
X169138900Y-118490757D01*
X169694661Y-118491242D01*
X170105000Y-118321694D01*
X170105000Y-120946618D01*
X169697100Y-120777243D01*
X169206209Y-120776815D01*
X168705137Y-120275743D01*
X168433206Y-120094044D01*
X168112440Y-120030240D01*
X166735057Y-120030240D01*
X166710450Y-119991999D01*
X166498250Y-119847009D01*
X166246360Y-119796000D01*
X165396360Y-119796000D01*
X165161043Y-119840278D01*
X164944919Y-119979350D01*
X164910147Y-120030240D01*
X158556960Y-120030240D01*
X158236195Y-120094044D01*
X157964263Y-120275743D01*
X157941881Y-120309240D01*
X157908383Y-120331623D01*
X156709503Y-121530503D01*
X156527804Y-121802434D01*
X156509073Y-121896602D01*
X156464000Y-122123200D01*
X156464000Y-131986806D01*
X155249003Y-133201803D01*
X155067304Y-133473734D01*
X155067304Y-133473735D01*
X155003500Y-133794500D01*
X155003500Y-137981206D01*
X154933166Y-138051540D01*
X123862134Y-138051540D01*
X123502540Y-137691946D01*
X123502540Y-137179900D01*
X123458262Y-136944583D01*
X123319190Y-136728459D01*
X123106990Y-136583469D01*
X122855100Y-136532460D01*
X121655100Y-136532460D01*
X121419783Y-136576738D01*
X121203659Y-136715810D01*
X121151806Y-136791700D01*
X121020465Y-136791700D01*
X120965390Y-136754069D01*
X120713500Y-136703060D01*
X119374516Y-136703060D01*
X119456318Y-136506059D01*
X119456356Y-136462014D01*
X119601315Y-136317055D01*
X119716947Y-136144000D01*
X119766496Y-136069845D01*
X119781983Y-135991986D01*
X119882017Y-135973163D01*
X120098141Y-135834091D01*
X120243131Y-135621891D01*
X120294140Y-135370001D01*
X120294140Y-135116001D01*
X120273254Y-135005000D01*
X120671400Y-135005000D01*
X120963005Y-134946996D01*
X121210215Y-134781815D01*
X122430695Y-133561336D01*
X122595876Y-133314125D01*
X122611536Y-133235396D01*
X122653880Y-133022520D01*
X122653880Y-132217318D01*
X122727197Y-132203522D01*
X122943321Y-132064450D01*
X123088311Y-131852250D01*
X123139320Y-131600360D01*
X123139320Y-130700360D01*
X123095042Y-130465043D01*
X122955970Y-130248919D01*
X122743770Y-130103929D01*
X122653880Y-130085726D01*
X122653880Y-129826840D01*
X122595876Y-129535235D01*
X122534494Y-129443370D01*
X122430695Y-129288024D01*
X119507335Y-126364665D01*
X119507334Y-126364664D01*
X119260125Y-126199484D01*
X118968520Y-126141480D01*
X113967260Y-126141480D01*
X113675655Y-126199484D01*
X113576637Y-126265646D01*
X113428445Y-126364664D01*
X110565000Y-129228110D01*
X110565000Y-124390604D01*
X110735987Y-124804424D01*
X111285682Y-125355079D01*
X112004261Y-125653459D01*
X112782326Y-125654138D01*
X113501424Y-125357013D01*
X114052079Y-124807318D01*
X114350459Y-124088739D01*
X114350461Y-124085326D01*
X120598862Y-124085326D01*
X120895987Y-124804424D01*
X121445682Y-125355079D01*
X122164261Y-125653459D01*
X122942326Y-125654138D01*
X123661424Y-125357013D01*
X124212079Y-124807318D01*
X124510459Y-124088739D01*
X124511138Y-123310674D01*
X124214013Y-122591576D01*
X123664318Y-122040921D01*
X122945739Y-121742541D01*
X122167674Y-121741862D01*
X121448576Y-122038987D01*
X120897921Y-122588682D01*
X120599541Y-123307261D01*
X120598862Y-124085326D01*
X114350461Y-124085326D01*
X114351138Y-123310674D01*
X114054013Y-122591576D01*
X113504318Y-122040921D01*
X112785739Y-121742541D01*
X112007674Y-121741862D01*
X111288576Y-122038987D01*
X110737921Y-122588682D01*
X110565000Y-123005122D01*
X110565000Y-116478131D01*
X110717152Y-115713211D01*
X111110830Y-115124030D01*
X111700011Y-114730352D01*
X112464931Y-114578200D01*
X158743931Y-114578200D01*
X158422411Y-115352508D01*
X158422411Y-115352508D01*
G37*
X158422411Y-115352508D02*
X158421591Y-116291373D01*
X158780123Y-117159086D01*
X159443422Y-117823544D01*
X160310508Y-118183589D01*
X161249373Y-118184409D01*
X162117086Y-117825877D01*
X162781544Y-117162578D01*
X163141589Y-116295492D01*
X163142409Y-115356627D01*
X162820769Y-114578200D01*
X168205069Y-114578200D01*
X168969989Y-114730352D01*
X169559170Y-115124030D01*
X169952848Y-115713211D01*
X169972411Y-115811562D01*
X169697100Y-115697243D01*
X169141339Y-115696758D01*
X168627697Y-115908990D01*
X168483836Y-116052600D01*
X167055800Y-116052600D01*
X166657274Y-116131871D01*
X166319419Y-116357619D01*
X165084979Y-117592059D01*
X165057454Y-117633252D01*
X164923259Y-117767214D01*
X164761544Y-118156668D01*
X164761176Y-118578362D01*
X164922211Y-118968098D01*
X165220134Y-119266541D01*
X165609588Y-119428256D01*
X166031282Y-119428624D01*
X166421018Y-119267589D01*
X166719461Y-118969666D01*
X166766728Y-118855834D01*
X167487162Y-118135400D01*
X168483649Y-118135400D01*
X168625630Y-118277629D01*
X169138900Y-118490757D01*
X169694661Y-118491242D01*
X170105000Y-118321694D01*
X170105000Y-120946618D01*
X169697100Y-120777243D01*
X169206209Y-120776815D01*
X168705137Y-120275743D01*
X168433206Y-120094044D01*
X168112440Y-120030240D01*
X166735057Y-120030240D01*
X166710450Y-119991999D01*
X166498250Y-119847009D01*
X166246360Y-119796000D01*
X165396360Y-119796000D01*
X165161043Y-119840278D01*
X164944919Y-119979350D01*
X164910147Y-120030240D01*
X158556960Y-120030240D01*
X158236195Y-120094044D01*
X157964263Y-120275743D01*
X157941881Y-120309240D01*
X157908383Y-120331623D01*
X156709503Y-121530503D01*
X156527804Y-121802434D01*
X156509073Y-121896602D01*
X156464000Y-122123200D01*
X156464000Y-131986806D01*
X155249003Y-133201803D01*
X155067304Y-133473734D01*
X155067304Y-133473735D01*
X155003500Y-133794500D01*
X155003500Y-137981206D01*
X154933166Y-138051540D01*
X123862134Y-138051540D01*
X123502540Y-137691946D01*
X123502540Y-137179900D01*
X123458262Y-136944583D01*
X123319190Y-136728459D01*
X123106990Y-136583469D01*
X122855100Y-136532460D01*
X121655100Y-136532460D01*
X121419783Y-136576738D01*
X121203659Y-136715810D01*
X121151806Y-136791700D01*
X121020465Y-136791700D01*
X120965390Y-136754069D01*
X120713500Y-136703060D01*
X119374516Y-136703060D01*
X119456318Y-136506059D01*
X119456356Y-136462014D01*
X119601315Y-136317055D01*
X119716947Y-136144000D01*
X119766496Y-136069845D01*
X119781983Y-135991986D01*
X119882017Y-135973163D01*
X120098141Y-135834091D01*
X120243131Y-135621891D01*
X120294140Y-135370001D01*
X120294140Y-135116001D01*
X120273254Y-135005000D01*
X120671400Y-135005000D01*
X120963005Y-134946996D01*
X121210215Y-134781815D01*
X122430695Y-133561336D01*
X122595876Y-133314125D01*
X122611536Y-133235396D01*
X122653880Y-133022520D01*
X122653880Y-132217318D01*
X122727197Y-132203522D01*
X122943321Y-132064450D01*
X123088311Y-131852250D01*
X123139320Y-131600360D01*
X123139320Y-130700360D01*
X123095042Y-130465043D01*
X122955970Y-130248919D01*
X122743770Y-130103929D01*
X122653880Y-130085726D01*
X122653880Y-129826840D01*
X122595876Y-129535235D01*
X122534494Y-129443370D01*
X122430695Y-129288024D01*
X119507335Y-126364665D01*
X119507334Y-126364664D01*
X119260125Y-126199484D01*
X118968520Y-126141480D01*
X113967260Y-126141480D01*
X113675655Y-126199484D01*
X113576637Y-126265646D01*
X113428445Y-126364664D01*
X110565000Y-129228110D01*
X110565000Y-124390604D01*
X110735987Y-124804424D01*
X111285682Y-125355079D01*
X112004261Y-125653459D01*
X112782326Y-125654138D01*
X113501424Y-125357013D01*
X114052079Y-124807318D01*
X114350459Y-124088739D01*
X114350461Y-124085326D01*
X120598862Y-124085326D01*
X120895987Y-124804424D01*
X121445682Y-125355079D01*
X122164261Y-125653459D01*
X122942326Y-125654138D01*
X123661424Y-125357013D01*
X124212079Y-124807318D01*
X124510459Y-124088739D01*
X124511138Y-123310674D01*
X124214013Y-122591576D01*
X123664318Y-122040921D01*
X122945739Y-121742541D01*
X122167674Y-121741862D01*
X121448576Y-122038987D01*
X120897921Y-122588682D01*
X120599541Y-123307261D01*
X120598862Y-124085326D01*
X114350461Y-124085326D01*
X114351138Y-123310674D01*
X114054013Y-122591576D01*
X113504318Y-122040921D01*
X112785739Y-121742541D01*
X112007674Y-121741862D01*
X111288576Y-122038987D01*
X110737921Y-122588682D01*
X110565000Y-123005122D01*
X110565000Y-116478131D01*
X110717152Y-115713211D01*
X111110830Y-115124030D01*
X111700011Y-114730352D01*
X112464931Y-114578200D01*
X158743931Y-114578200D01*
X158422411Y-115352508D01*
G36*
X116291371Y-127985630D02*
X116078243Y-128498900D01*
X116077758Y-129054661D01*
X116289990Y-129568303D01*
X116636800Y-129915719D01*
X116636800Y-130209107D01*
X116491959Y-130302310D01*
X116346969Y-130514510D01*
X116295960Y-130766400D01*
X116295960Y-131666400D01*
X116340238Y-131901717D01*
X116479310Y-132117841D01*
X116691510Y-132262831D01*
X116943400Y-132313840D01*
X117046366Y-132313840D01*
X117022003Y-132338203D01*
X116840304Y-132610134D01*
X116803638Y-132794466D01*
X116776500Y-132930900D01*
X116776500Y-132968559D01*
X115735100Y-132968559D01*
X115668987Y-132980999D01*
X115512524Y-132980999D01*
X115470407Y-132938808D01*
X115126879Y-132796162D01*
X114754913Y-132795838D01*
X114411137Y-132937883D01*
X114147888Y-133200673D01*
X114005242Y-133544201D01*
X114005035Y-133781800D01*
X112952926Y-133781800D01*
X112922787Y-133751608D01*
X112579259Y-133608962D01*
X112207293Y-133608638D01*
X111863517Y-133750683D01*
X111600268Y-134013473D01*
X111457622Y-134357001D01*
X111457298Y-134728967D01*
X111499082Y-134830092D01*
X111280435Y-134873584D01*
X111142780Y-134965562D01*
X111142780Y-130805590D01*
X114282891Y-127665480D01*
X116612080Y-127665480D01*
X116291371Y-127985630D01*
X116291371Y-127985630D01*
G37*
X116291371Y-127985630D02*
X116078243Y-128498900D01*
X116077758Y-129054661D01*
X116289990Y-129568303D01*
X116636800Y-129915719D01*
X116636800Y-130209107D01*
X116491959Y-130302310D01*
X116346969Y-130514510D01*
X116295960Y-130766400D01*
X116295960Y-131666400D01*
X116340238Y-131901717D01*
X116479310Y-132117841D01*
X116691510Y-132262831D01*
X116943400Y-132313840D01*
X117046366Y-132313840D01*
X117022003Y-132338203D01*
X116840304Y-132610134D01*
X116803638Y-132794466D01*
X116776500Y-132930900D01*
X116776500Y-132968559D01*
X115735100Y-132968559D01*
X115668987Y-132980999D01*
X115512524Y-132980999D01*
X115470407Y-132938808D01*
X115126879Y-132796162D01*
X114754913Y-132795838D01*
X114411137Y-132937883D01*
X114147888Y-133200673D01*
X114005242Y-133544201D01*
X114005035Y-133781800D01*
X112952926Y-133781800D01*
X112922787Y-133751608D01*
X112579259Y-133608962D01*
X112207293Y-133608638D01*
X111863517Y-133750683D01*
X111600268Y-134013473D01*
X111457622Y-134357001D01*
X111457298Y-134728967D01*
X111499082Y-134830092D01*
X111280435Y-134873584D01*
X111142780Y-134965562D01*
X111142780Y-130805590D01*
X114282891Y-127665480D01*
X116612080Y-127665480D01*
X116291371Y-127985630D01*
G36*
X158782456Y-122105422D02*
X158422411Y-122972508D01*
X158421591Y-123911373D01*
X158780123Y-124779086D01*
X159412955Y-125413023D01*
X158782456Y-126042422D01*
X158422411Y-126909508D01*
X158421591Y-127848373D01*
X158780123Y-128716086D01*
X159443422Y-129380544D01*
X160310508Y-129740589D01*
X161249373Y-129741409D01*
X162117086Y-129382877D01*
X162781544Y-128719578D01*
X163141589Y-127852492D01*
X163142409Y-126913627D01*
X162783877Y-126045914D01*
X162151045Y-125411977D01*
X162781544Y-124782578D01*
X163141589Y-123915492D01*
X163142409Y-122976627D01*
X162783877Y-122108914D01*
X162382305Y-121706640D01*
X164907663Y-121706640D01*
X164932270Y-121744881D01*
X165144470Y-121889871D01*
X165396360Y-121940880D01*
X166246360Y-121940880D01*
X166481677Y-121896602D01*
X166697801Y-121757530D01*
X166732573Y-121706640D01*
X167765246Y-121706640D01*
X168021184Y-121962578D01*
X168020758Y-122450661D01*
X168232990Y-122964303D01*
X168625630Y-123357629D01*
X169138900Y-123570757D01*
X169694661Y-123571242D01*
X170105000Y-123401694D01*
X170105000Y-127423618D01*
X169697100Y-127254243D01*
X169141339Y-127253758D01*
X168627697Y-127465990D01*
X168483836Y-127609600D01*
X167121840Y-127609600D01*
X166723314Y-127688871D01*
X166385459Y-127914619D01*
X165310671Y-128989407D01*
X165135342Y-129061851D01*
X164836899Y-129359774D01*
X164675184Y-129749228D01*
X164674816Y-130170922D01*
X164835851Y-130560658D01*
X165133774Y-130859101D01*
X165523228Y-131020816D01*
X165944922Y-131021184D01*
X166156123Y-130933918D01*
X166210367Y-130923128D01*
X166255950Y-130892670D01*
X166334658Y-130860149D01*
X166395461Y-130799452D01*
X166548221Y-130697381D01*
X167553202Y-129692400D01*
X168483649Y-129692400D01*
X168625630Y-129834629D01*
X169138900Y-130047757D01*
X169694661Y-130048242D01*
X170105000Y-129878694D01*
X170105000Y-132503618D01*
X169697100Y-132334243D01*
X169206209Y-132333815D01*
X168740697Y-131868303D01*
X168468766Y-131686604D01*
X168148000Y-131622800D01*
X166648697Y-131622800D01*
X166624090Y-131584559D01*
X166411890Y-131439569D01*
X166160000Y-131388560D01*
X165310000Y-131388560D01*
X165074683Y-131432838D01*
X164858559Y-131571910D01*
X164806432Y-131648200D01*
X159113255Y-131648200D01*
X159106870Y-131646930D01*
X158786104Y-131710734D01*
X158514173Y-131892433D01*
X158140400Y-132266206D01*
X158140400Y-122470394D01*
X158904154Y-121706640D01*
X159181935Y-121706640D01*
X158782456Y-122105422D01*
X158782456Y-122105422D01*
G37*
X158782456Y-122105422D02*
X158422411Y-122972508D01*
X158421591Y-123911373D01*
X158780123Y-124779086D01*
X159412955Y-125413023D01*
X158782456Y-126042422D01*
X158422411Y-126909508D01*
X158421591Y-127848373D01*
X158780123Y-128716086D01*
X159443422Y-129380544D01*
X160310508Y-129740589D01*
X161249373Y-129741409D01*
X162117086Y-129382877D01*
X162781544Y-128719578D01*
X163141589Y-127852492D01*
X163142409Y-126913627D01*
X162783877Y-126045914D01*
X162151045Y-125411977D01*
X162781544Y-124782578D01*
X163141589Y-123915492D01*
X163142409Y-122976627D01*
X162783877Y-122108914D01*
X162382305Y-121706640D01*
X164907663Y-121706640D01*
X164932270Y-121744881D01*
X165144470Y-121889871D01*
X165396360Y-121940880D01*
X166246360Y-121940880D01*
X166481677Y-121896602D01*
X166697801Y-121757530D01*
X166732573Y-121706640D01*
X167765246Y-121706640D01*
X168021184Y-121962578D01*
X168020758Y-122450661D01*
X168232990Y-122964303D01*
X168625630Y-123357629D01*
X169138900Y-123570757D01*
X169694661Y-123571242D01*
X170105000Y-123401694D01*
X170105000Y-127423618D01*
X169697100Y-127254243D01*
X169141339Y-127253758D01*
X168627697Y-127465990D01*
X168483836Y-127609600D01*
X167121840Y-127609600D01*
X166723314Y-127688871D01*
X166385459Y-127914619D01*
X165310671Y-128989407D01*
X165135342Y-129061851D01*
X164836899Y-129359774D01*
X164675184Y-129749228D01*
X164674816Y-130170922D01*
X164835851Y-130560658D01*
X165133774Y-130859101D01*
X165523228Y-131020816D01*
X165944922Y-131021184D01*
X166156123Y-130933918D01*
X166210367Y-130923128D01*
X166255950Y-130892670D01*
X166334658Y-130860149D01*
X166395461Y-130799452D01*
X166548221Y-130697381D01*
X167553202Y-129692400D01*
X168483649Y-129692400D01*
X168625630Y-129834629D01*
X169138900Y-130047757D01*
X169694661Y-130048242D01*
X170105000Y-129878694D01*
X170105000Y-132503618D01*
X169697100Y-132334243D01*
X169206209Y-132333815D01*
X168740697Y-131868303D01*
X168468766Y-131686604D01*
X168148000Y-131622800D01*
X166648697Y-131622800D01*
X166624090Y-131584559D01*
X166411890Y-131439569D01*
X166160000Y-131388560D01*
X165310000Y-131388560D01*
X165074683Y-131432838D01*
X164858559Y-131571910D01*
X164806432Y-131648200D01*
X159113255Y-131648200D01*
X159106870Y-131646930D01*
X158786104Y-131710734D01*
X158514173Y-131892433D01*
X158140400Y-132266206D01*
X158140400Y-122470394D01*
X158904154Y-121706640D01*
X159181935Y-121706640D01*
X158782456Y-122105422D01*
M02*
