M48
;DRILL file {KiCad 4.0.7} date 04/17/18 20:18:14
;FORMAT={-:-/ absolute / inch / decimal}
FMAT,2
INCH,TZ
T1C0.016
T2C0.020
T3C0.030
T4C0.035
T5C0.104
T6C0.160
%
G90
G05
M72
T1
X4.3752Y-7.2936
X4.3852Y-6.896
X4.417Y-5.412
X4.4249Y-5.297
X4.5252Y-5.265
X4.5969Y-5.3658
X4.6662Y-5.3669
X4.731Y-5.2206
X4.958Y-5.163
X4.963Y-5.61
X4.977Y-5.418
X4.977Y-5.717
X5.104Y-6.652
X5.368Y-5.518
T2
X4.518Y-6.664
X4.5672Y-6.664
X4.6164Y-6.664
X6.524Y-5.5728
X6.524Y-5.622
X6.524Y-5.6712
X6.524Y-6.0308
X6.524Y-6.08
X6.524Y-6.1292
X6.525Y-5.1166
X6.525Y-5.1658
X6.525Y-5.215
X6.5284Y-4.6602
X6.5284Y-4.7094
X6.5284Y-4.7586
T3
X4.468Y-6.843
X4.568Y-6.843
X4.668Y-6.843
X6.669Y-5.978
X6.669Y-6.078
X6.669Y-6.178
X6.67Y-4.61
X6.67Y-4.71
X6.67Y-4.81
X6.67Y-5.065
X6.67Y-5.165
X6.67Y-5.265
X6.67Y-5.523
X6.67Y-5.623
X6.67Y-5.723
T4
X4.525Y-5.07
X4.625Y-5.07
X5.4214Y-6.8738
X5.4214Y-6.9738
X5.4214Y-7.0738
T5
X4.425Y-4.87
X4.825Y-4.87
T6
X5.616Y-6.46
X5.616Y-6.775
X5.616Y-7.09
T0
M30
