G04 #@! TF.FileFunction,Profile,NP*
%FSLAX46Y46*%
G04 Gerber Fmt 4.6, Leading zero omitted, Abs format (unit mm)*
G04 Created by KiCad (PCBNEW 4.0.7) date 04/17/18 20:18:09*
%MOMM*%
%LPD*%
G01*
G04 APERTURE LIST*
%ADD10C,0.100000*%
%ADD11C,0.150000*%
G04 APERTURE END LIST*
D10*
D11*
X109855000Y-116433600D02*
X109855000Y-193471800D01*
X170815000Y-116408200D02*
X170815000Y-160426400D01*
X112395000Y-113868200D02*
X168275000Y-113868200D01*
X112395000Y-113868200D02*
G75*
G03X109855000Y-116408200I0J-2540000D01*
G01*
X170815000Y-116408200D02*
G75*
G03X168275000Y-113868200I-2540000J0D01*
G01*
X112369600Y-208203800D02*
X168376600Y-208203800D01*
X109855000Y-205689200D02*
G75*
G03X112369600Y-208203800I2514600J0D01*
G01*
X109855000Y-197535800D02*
X109855000Y-205765400D01*
X109880400Y-197535800D02*
G75*
G03X111887000Y-195478400I-25400J2032000D01*
G01*
X111887000Y-195503800D02*
G75*
G03X109855000Y-193471800I-2032000J0D01*
G01*
X168808400Y-162483800D02*
G75*
G03X170815000Y-160426400I-25400J2032000D01*
G01*
X153035000Y-162483800D02*
X168706800Y-162483800D01*
X153035000Y-183311800D02*
X153035000Y-162483800D01*
X168910000Y-183311800D02*
X153035000Y-183311800D01*
X170815000Y-185470800D02*
G75*
G03X168910000Y-183311800I-2032000J127000D01*
G01*
X170815000Y-193446400D02*
X170815000Y-185521600D01*
X170789600Y-193471800D02*
G75*
G03X168783000Y-195529200I25400J-2032000D01*
G01*
X168783000Y-195503800D02*
G75*
G03X170815000Y-197535800I2032000J0D01*
G01*
X170815000Y-205663800D02*
X170815000Y-197535800D01*
X168275000Y-208203800D02*
G75*
G03X170815000Y-205663800I0J2540000D01*
G01*
X112445800Y-208203800D02*
X168198800Y-208203800D01*
X109855000Y-205714600D02*
G75*
G03X112445800Y-208203800I2540000J50800D01*
G01*
M02*
