G04 #@! TF.FileFunction,Soldermask,Top*
%FSLAX46Y46*%
G04 Gerber Fmt 4.6, Leading zero omitted, Abs format (unit mm)*
G04 Created by KiCad (PCBNEW 4.0.7) date 04/17/18 20:18:09*
%MOMM*%
%LPD*%
G01*
G04 APERTURE LIST*
%ADD10C,0.100000*%
%ADD11R,1.250000X1.250000*%
%ADD12C,1.250000*%
%ADD13C,1.924000*%
%ADD14C,3.850000*%
%ADD15C,5.480000*%
%ADD16R,1.150000X1.600000*%
%ADD17R,1.600000X1.300000*%
%ADD18C,3.041600*%
%ADD19R,1.300000X1.600000*%
%ADD20R,2.381200X0.958800*%
%ADD21R,1.568400X0.654000*%
G04 APERTURE END LIST*
D10*
D11*
X165821360Y-120868440D03*
D12*
X165821360Y-119618440D03*
X165821360Y-118368440D03*
D11*
X165735000Y-132461000D03*
D12*
X165735000Y-131211000D03*
X165735000Y-129961000D03*
D11*
X165709600Y-144048800D03*
D12*
X165709600Y-142798800D03*
X165709600Y-141548800D03*
D11*
X165709600Y-155682000D03*
D12*
X165709600Y-154432000D03*
X165709600Y-153182000D03*
D13*
X169418000Y-122174000D03*
X169418000Y-119634000D03*
X169418000Y-117094000D03*
D14*
X160782000Y-123444000D03*
X160782000Y-115824000D03*
D13*
X169418000Y-133731000D03*
X169418000Y-131191000D03*
X169418000Y-128651000D03*
D14*
X160782000Y-135001000D03*
X160782000Y-127381000D03*
D13*
X169418000Y-145364200D03*
X169418000Y-142824200D03*
X169418000Y-140284200D03*
D14*
X160782000Y-146634200D03*
X160782000Y-139014200D03*
D13*
X169392600Y-156921200D03*
X169392600Y-154381200D03*
X169392600Y-151841200D03*
D14*
X160756600Y-158191200D03*
X160756600Y-150571200D03*
D13*
X137703560Y-174594520D03*
X137703560Y-177134520D03*
X137703560Y-179674520D03*
D15*
X142646400Y-164085000D03*
X142646400Y-172084000D03*
X142646400Y-180085000D03*
D13*
X118567200Y-173812200D03*
X116027200Y-173812200D03*
X113487200Y-173812200D03*
D14*
X119837200Y-165176200D03*
X112217200Y-165176200D03*
D11*
X114757200Y-169265600D03*
D12*
X116007200Y-169265600D03*
X117257200Y-169265600D03*
D16*
X112631220Y-183680140D03*
X112631220Y-181780140D03*
X112552480Y-176816980D03*
X112552480Y-178716980D03*
X133324600Y-170825200D03*
X133324600Y-168925200D03*
X114968020Y-183680140D03*
X114968020Y-181780140D03*
X111384080Y-176816980D03*
X111384080Y-178716980D03*
X134493000Y-170825200D03*
X134493000Y-168925200D03*
X113799620Y-183680140D03*
X113799620Y-181780140D03*
X117200680Y-176816980D03*
X117200680Y-178716980D03*
X135661400Y-170825200D03*
X135661400Y-168925200D03*
X117304820Y-183705540D03*
X117304820Y-181805540D03*
X113720880Y-176816980D03*
X113720880Y-178716980D03*
X136829800Y-170825200D03*
X136829800Y-168925200D03*
X116136420Y-183680140D03*
X116136420Y-181780140D03*
X114863880Y-176816980D03*
X114863880Y-178716980D03*
X138023600Y-170825200D03*
X138023600Y-168925200D03*
X111462820Y-183680140D03*
X111462820Y-181780140D03*
X116032280Y-176816980D03*
X116032280Y-178716980D03*
X132130800Y-170850600D03*
X132130800Y-168950600D03*
D17*
X118945300Y-181864000D03*
X121145300Y-181864000D03*
D13*
X117475000Y-128778000D03*
X114935000Y-128778000D03*
D18*
X112395000Y-123698000D03*
X122555000Y-123698000D03*
D17*
X122255100Y-145249900D03*
X124455100Y-145249900D03*
X122255100Y-142709900D03*
X124455100Y-142709900D03*
X122255100Y-140169900D03*
X124455100Y-140169900D03*
X122255100Y-137629900D03*
X124455100Y-137629900D03*
X121145300Y-183743600D03*
X118945300Y-183743600D03*
X124091880Y-131150360D03*
X121891880Y-131150360D03*
D19*
X112179100Y-146222900D03*
X112179100Y-144022900D03*
X112179100Y-142031900D03*
X112179100Y-139831900D03*
D17*
X119743400Y-131216400D03*
X117543400Y-131216400D03*
D20*
X119722900Y-145249900D03*
X119722900Y-143979900D03*
X119722900Y-142709900D03*
X119722900Y-141439900D03*
X119722900Y-140169900D03*
X119722900Y-138899900D03*
X119722900Y-137629900D03*
X114795300Y-137629900D03*
X114795300Y-138899900D03*
X114795300Y-140169900D03*
X114795300Y-141439900D03*
X114795300Y-142709900D03*
X114795300Y-143979900D03*
X114795300Y-145249900D03*
D21*
X119062500Y-135243001D03*
X119062500Y-134743000D03*
X119062500Y-134243000D03*
X119062500Y-133742999D03*
X116319300Y-133742999D03*
X116319300Y-134243000D03*
X116319300Y-134743000D03*
X116319300Y-135243001D03*
M02*
